<svg width="32" height="26" viewBox="0 0 32 26" fill="none" xmlns="http://www.w3.org/2000/svg">
<path d="M3.73005 24.1204L3.27606 25.0114L3.73005 24.1204ZM1.54497 21.9353L0.653961 22.3893L1.54497 21.9353ZM30.455 21.9353L31.346 22.3893L30.455 21.9353ZM28.27 24.1204L28.7239 25.0114L28.27 24.1204ZM28.27 1.877L28.7239 0.985992L28.27 1.877ZM30.455 4.06208L31.346 3.60809L30.455 4.06208ZM3.73005 1.877L3.27606 0.985992L3.73005 1.877ZM1.54497 4.06208L0.653961 3.60809L1.54497 4.06208ZM1.71308 22.5772C1.35944 23.0014 1.41665 23.632 1.84086 23.9856C2.26508 24.3393 2.89565 24.2821 3.24929 23.8579L1.71308 22.5772ZM11.7681 13.639C12.1217 13.2148 12.0645 12.5842 11.6403 12.2306C11.2161 11.8769 10.5855 11.9341 10.2319 12.3584L11.7681 13.639ZM28.7541 23.8549C29.1079 24.279 29.7385 24.336 30.1626 23.9823C30.5867 23.6285 30.6437 22.9979 30.2899 22.5738L28.7541 23.8549ZM21.7679 12.3581C21.4141 11.934 20.7835 11.877 20.3594 12.2308C19.9353 12.5846 19.8783 13.2152 20.2321 13.6393L21.7679 12.3581ZM1.60307 5.50023C1.14369 5.19366 0.522764 5.31754 0.21619 5.77692C-0.0903836 6.2363 0.0334914 6.85723 0.492873 7.1638L1.60307 5.50023ZM13.0917 14.3695L12.5366 15.2013L12.5381 15.2023L13.0917 14.3695ZM18.9965 14.3695L19.55 15.2023L19.5544 15.1994L18.9965 14.3695ZM31.5099 7.16191C31.9683 6.85378 32.0901 6.23243 31.7819 5.7741C31.4738 5.31576 30.8524 5.19399 30.3941 5.50212L31.5099 7.16191ZM15.269 15.5714L15.5015 14.5988H15.5015L15.269 15.5714ZM16.8191 15.5714L16.5866 14.5988L16.8191 15.5714ZM9 2.33203H23V0.332031H9V2.33203ZM30 9.33203V16.6654H32V9.33203H30ZM23 23.6654H9V25.6654H23V23.6654ZM2 16.6654V9.33203H0V16.6654H2ZM9 23.6654C7.58337 23.6654 6.58104 23.6646 5.79744 23.6006C5.02552 23.5375 4.55435 23.4181 4.18404 23.2294L3.27606 25.0114C3.9753 25.3677 4.73898 25.5208 5.63458 25.5939C6.51851 25.6661 7.61637 25.6654 9 25.6654V23.6654ZM0 16.6654C0 18.049 -0.000777721 19.1469 0.071442 20.0308C0.144616 20.9264 0.297677 21.6901 0.653961 22.3893L2.43597 21.4813C2.24729 21.111 2.12787 20.6398 2.0648 19.8679C2.00078 19.0843 2 18.082 2 16.6654H0ZM4.18404 23.2294C3.43139 22.8459 2.81947 22.234 2.43597 21.4813L0.653961 22.3893C1.2292 23.5183 2.14708 24.4362 3.27606 25.0114L4.18404 23.2294ZM30 16.6654C30 18.082 29.9992 19.0843 29.9352 19.8679C29.8721 20.6398 29.7527 21.111 29.564 21.4813L31.346 22.3893C31.7023 21.6901 31.8554 20.9264 31.9286 20.0308C32.0008 19.1469 32 18.049 32 16.6654H30ZM23 25.6654C24.3836 25.6654 25.4815 25.6661 26.3654 25.5939C27.261 25.5208 28.0247 25.3677 28.7239 25.0114L27.816 23.2294C27.4456 23.4181 26.9745 23.5375 26.2026 23.6006C25.419 23.6646 24.4166 23.6654 23 23.6654V25.6654ZM29.564 21.4813C29.1805 22.234 28.5686 22.8459 27.816 23.2294L28.7239 25.0114C29.8529 24.4362 30.7708 23.5183 31.346 22.3893L29.564 21.4813ZM23 2.33203C24.4166 2.33203 25.419 2.33281 26.2026 2.39683C26.9745 2.4599 27.4456 2.57932 27.816 2.76801L28.7239 0.985992C28.0247 0.629708 27.261 0.476647 26.3654 0.403473C25.4815 0.331254 24.3836 0.332031 23 0.332031V2.33203ZM32 9.33203C32 7.9484 32.0008 6.85054 31.9286 5.96661C31.8554 5.07101 31.7023 4.30734 31.346 3.60809L29.564 4.51607C29.7527 4.88638 29.8721 5.35755 29.9352 6.12947C29.9992 6.91307 30 7.9154 30 9.33203H32ZM27.816 2.76801C28.5686 3.1515 29.1805 3.76342 29.564 4.51607L31.346 3.60809C30.7708 2.47912 29.8529 1.56123 28.7239 0.985992L27.816 2.76801ZM9 0.332031C7.61637 0.332031 6.51851 0.331254 5.63458 0.403473C4.73898 0.476647 3.9753 0.629708 3.27606 0.985992L4.18404 2.76801C4.55435 2.57932 5.02552 2.4599 5.79744 2.39683C6.58104 2.33281 7.58337 2.33203 9 2.33203V0.332031ZM2 9.33203C2 7.9154 2.00078 6.91307 2.0648 6.12947C2.12787 5.35755 2.24729 4.88638 2.43597 4.51607L0.653961 3.60809C0.297677 4.30734 0.144616 5.07101 0.071442 5.96661C-0.000777721 6.85054 0 7.9484 0 9.33203H2ZM3.27606 0.985992C2.14708 1.56123 1.2292 2.47912 0.653961 3.60809L2.43597 4.51607C2.81947 3.76342 3.43139 3.1515 4.18404 2.76801L3.27606 0.985992ZM3.24929 23.8579L11.7681 13.639L10.2319 12.3584L1.71308 22.5772L3.24929 23.8579ZM30.2899 22.5738L21.7679 12.3581L20.2321 13.6393L28.7541 23.8549L30.2899 22.5738ZM0.492873 7.1638L12.5366 15.2013L13.6468 13.5377L1.60307 5.50023L0.492873 7.1638ZM19.5544 15.1994L31.5099 7.16191L30.3941 5.50212L18.4385 13.5396L19.5544 15.1994ZM12.5381 15.2023C13.5401 15.8684 14.2454 16.3549 15.0365 16.544L15.5015 14.5988C15.1395 14.5123 14.7777 14.2895 13.6452 13.5367L12.5381 15.2023ZM18.4429 13.5367C17.3105 14.2895 16.9486 14.5123 16.5866 14.5988L17.0516 16.544C17.8427 16.3549 18.548 15.8684 19.55 15.2023L18.4429 13.5367ZM15.0365 16.544C15.6989 16.7024 16.3892 16.7024 17.0516 16.544L16.5866 14.5988C16.2299 14.6841 15.8582 14.6841 15.5015 14.5988L15.0365 16.544Z" fill="#B8181C"/>
</svg>
