<svg width="287" height="323" viewBox="0 0 287 323" fill="none" xmlns="http://www.w3.org/2000/svg">
<path d="M191.159 285.213L188.54 297.272C192.73 332.924 280.715 316.671 285.953 291.505L284.905 287.835L280.715 279.446L277.573 276.301L273.907 273.679L269.717 272.106L264.48 271.582L258.195 271.058L255.053 270.009L254.006 266.863L253.482 262.145V260.572L256.624 258.999V255.329L257.672 249.037L259.243 243.27L262.909 235.406L265.004 228.066L265.528 222.298L265.004 216.007L263.956 211.288L261.338 208.142L259.243 207.094L258.719 204.997L257.148 202.375L255.053 199.229L249.292 196.608L243.531 195.035H238.294L230.962 195.559L224.153 197.132L217.869 200.278L214.203 202.9L208.965 207.094L203.728 210.24L204.252 212.861L207.394 215.483L205.823 219.677V222.823L206.347 231.736L205.823 234.357L202.681 241.173V243.27L204.252 244.843L206.871 246.416L207.918 252.707L205.299 252.183L201.633 251.659L199.538 252.707L196.92 256.377L193.778 265.29L192.73 277.873L191.159 285.213Z" fill="white"/>
<path d="M89.0328 302.517L85.3667 310.381C124.332 332.611 175.622 319.993 196.396 310.906L195.872 309.333L192.73 302.517L187.493 296.225L182.255 291.507L174.923 287.312L170.21 285.215V284.691L174.4 282.594L178.589 279.448L181.208 275.254L182.255 270.011L182.779 266.341L182.255 262.146L180.16 257.952L177.542 254.282L179.113 251.66L180.16 246.942L179.637 243.272L178.066 239.077L175.447 235.407L172.828 233.31L168.639 232.786L170.21 229.64L169.162 225.97L168.115 223.873L165.496 221.776L162.878 221.251L159.212 221.776L158.688 220.203L156.069 216.009L152.403 212.863L146.642 211.29L141.929 210.766L137.215 211.814L131.978 214.436L128.312 218.106L122.551 218.63L115.743 221.776L112.077 225.97L109.458 230.689L108.41 234.883V241.699L109.458 247.466L106.316 249.563L103.173 253.758L102.126 260.573L104.744 267.914L102.65 273.681L104.221 279.448L107.887 283.642L111.553 285.215L108.41 286.788L99.5072 291.507L93.7463 296.225L89.0328 302.517Z" fill="white"/>
<path d="M8.3796 283.116L5.76099 290.98C42.2121 306.08 74.7178 298.67 86.4143 293.078L83.7957 288.359L79.6059 284.689L73.3212 281.019L67.0365 278.922L62.323 276.3L60.2281 273.679H63.3705L69.1314 272.63L71.2263 272.106L65.9891 268.436L62.323 264.766L72.2738 262.669L74.3686 261.096L76.9873 258.474L79.0821 252.707L80.6533 246.94L82.7482 244.843V242.745L81.177 240.648L80.6533 238.027V233.308V227.017L79.6059 223.347L79.0821 221.774L81.7008 220.201L83.2719 217.579L82.7482 214.958L80.6533 210.764L75.9398 205.521L69.1314 201.326L61.2756 198.705L49.7537 197.656L43.9927 198.181L38.2318 199.753L34.5657 202.375L32.9946 204.472L32.4708 206.045L28.2811 207.094L25.1387 209.191L22.5201 212.861L20.4252 218.104L19.3778 224.919V233.308L20.4252 239.6L23.0438 248.513L24.615 254.804V256.901L23.5676 262.669V264.766L27.2336 267.387L35.6132 270.009L33.5183 271.582L28.8048 273.154L22.5201 273.679L16.7592 275.776C15.188 276.824 11.9409 278.922 11.5219 278.922C11.103 278.922 9.25247 281.718 8.3796 283.116Z" fill="white"/>
<path d="M138.445 167.872C184.816 167.872 222.407 130.303 222.407 83.9597C222.407 37.6159 184.816 0.046875 138.445 0.046875C92.0738 0.046875 54.4827 37.6159 54.4827 83.9597C54.4827 130.303 92.0738 167.872 138.445 167.872Z" fill="url(#paint0_radial_717_9596)"/>
<path d="M131.651 103.658C131.651 105.715 131.651 112.81 131.651 112.81C131.651 115.438 133.7 117.314 136.263 118.104C136.396 119.361 137.721 119.999 139.045 119.999C140.369 119.999 141.694 119.371 141.827 118.104C144.4 117.314 146.439 115.438 146.439 112.81C146.439 112.81 146.439 105.715 146.439 103.658C146.439 102.649 146.534 101.84 148.449 100.573C148.449 100.573 146.344 99.0781 139.045 99.0781C131.737 99.0781 129.641 100.573 129.641 100.573C131.556 101.84 131.651 102.649 131.651 103.658Z" fill="#B8181C"/>
<path d="M107.887 183.503C106.491 185.95 102.65 188.746 98.9841 191.368L94.7943 192.941L90.0808 193.465L91.6519 191.368L94.2706 187.698L95.8417 182.979V179.833L90.6045 178.785L84.8436 176.163L81.1775 171.969L79.0826 166.726L78.0352 156.765L79.0826 143.133L83.2724 137.366L88.5096 134.22L95.8417 132.123L104.221 131.074H115.743L130.407 131.599L139.311 133.171L143.5 134.744L147.167 137.366L149.785 140.511L151.356 145.23L152.404 148.9L158.165 147.852L169.687 147.327H177.019H184.875L190.636 147.852L195.873 148.9L200.063 150.997L202.681 153.619L204.252 157.289L204.776 160.959V165.153L204.252 169.872L202.681 174.066L199.015 176.688L195.349 178.261L187.493 179.833C184.764 180.175 179.269 180.65 178.627 179.889L179.637 181.406V187.698V190.844L178.066 196.087L175.448 200.281L171.782 203.427L168.115 205.524C157.117 208.145 131.979 211.815 119.409 205.524L114.696 202.902L109.982 197.659L107.887 191.368V183.503Z" fill="white"/>
<path d="M131.146 112.01C131.184 109.23 131.242 106.449 131.242 103.669C131.251 103.031 131.146 102.545 130.784 102.107C130.432 101.669 129.927 101.288 129.403 100.955L129.384 100.936C129.193 100.812 129.136 100.555 129.26 100.364C129.298 100.307 129.345 100.269 129.393 100.231C130.222 99.7262 130.975 99.5263 131.785 99.3072C132.585 99.1073 133.385 98.9549 134.195 98.8502C135.815 98.6216 137.435 98.5454 139.055 98.5169C140.674 98.5169 142.294 98.5835 143.914 98.7835C144.724 98.8787 145.534 99.0216 146.344 99.212C147.163 99.431 147.916 99.6024 148.792 100.117C149.05 100.269 149.135 100.602 148.983 100.859C148.945 100.926 148.888 100.993 148.821 101.031L148.773 101.059C148.106 101.507 147.439 102.021 147.182 102.602C147.058 102.888 147.02 103.211 147.02 103.63V104.916V110.058V112.629C147.049 113.543 146.82 114.543 146.363 115.381C145.477 116.981 143.924 117.981 142.313 118.543C142.132 119.2 141.656 119.762 141.103 120.057C140.455 120.428 139.741 120.562 139.045 120.571C138.35 120.562 137.644 120.428 136.987 120.057C136.444 119.762 135.958 119.19 135.777 118.533C134.491 118.086 133.252 117.372 132.347 116.257C131.861 115.667 131.489 114.962 131.299 114.21C131.099 113.467 131.137 112.667 131.146 112.01ZM131.442 101.583C131.67 101.869 131.851 102.221 131.947 102.593C132.051 102.964 132.051 103.335 132.051 103.659C132.051 106.44 132.109 109.22 132.147 112.001C132.156 112.725 132.147 113.343 132.328 113.934C132.49 114.524 132.804 115.077 133.214 115.553C134.024 116.505 135.186 117.181 136.425 117.562C136.654 117.629 136.806 117.829 136.825 118.048C136.863 118.476 137.13 118.828 137.559 119.067C137.978 119.305 138.512 119.428 139.045 119.428C139.569 119.428 140.112 119.314 140.531 119.067C140.951 118.819 141.218 118.476 141.265 118.048C141.284 117.819 141.446 117.629 141.656 117.562H141.665C143.19 117.086 144.629 116.172 145.362 114.829C145.724 114.153 145.905 113.439 145.877 112.629V110.058V104.916V103.63C145.877 103.192 145.905 102.64 146.134 102.145C146.439 101.507 146.877 101.069 147.344 100.698C146.944 100.545 146.496 100.421 146.077 100.317C145.324 100.136 144.552 100.002 143.781 99.9167C142.227 99.7167 140.636 99.6596 139.055 99.65C137.473 99.631 135.891 99.6691 134.329 99.85C133.547 99.9262 132.776 100.06 132.013 100.221C131.508 100.336 130.975 100.479 130.508 100.659C130.832 100.926 131.156 101.221 131.442 101.583ZM124.982 90.3179C125.753 91.8796 126.82 93.2414 127.859 94.565C128.374 95.2316 128.917 95.8601 129.374 96.5362C129.831 97.2123 130.232 97.9169 130.336 98.6883V98.6978C130.355 98.8406 130.489 98.9454 130.632 98.9359C130.784 98.9263 130.899 98.793 130.889 98.6311C130.813 97.7075 130.403 96.8885 129.974 96.1553C129.526 95.4125 129.021 94.7269 128.526 94.0508C127.526 92.7081 126.563 91.3559 125.887 89.8704C125.201 88.3944 124.801 86.8136 124.705 85.2139C124.61 83.6141 124.781 81.9571 125.115 80.3859C125.81 77.2339 127.554 74.3391 130.117 72.4155C132.661 70.4729 135.882 69.4731 139.102 69.4635C142.313 69.4731 145.543 70.4729 148.087 72.4155C150.65 74.3391 152.384 77.2435 153.08 80.3954C153.404 81.9667 153.576 83.6236 153.48 85.2234C153.394 86.8327 152.985 88.4134 152.299 89.8799C151.622 91.3654 150.66 92.7081 149.659 94.0603C149.154 94.7364 148.649 95.4125 148.211 96.1648C147.773 96.9076 147.363 97.7265 147.296 98.6407C147.287 98.7835 147.392 98.9168 147.535 98.9359C147.687 98.9549 147.83 98.8502 147.849 98.6978V98.6883C147.954 97.9169 148.354 97.2028 148.811 96.5362C149.269 95.8601 149.812 95.2221 150.326 94.565C151.375 93.2509 152.432 91.8796 153.204 90.3179C153.995 88.7658 154.5 87.0517 154.652 85.3091C154.814 83.5569 154.643 81.8333 154.319 80.1193C153.614 76.7197 151.775 73.4344 148.935 71.3014C146.125 69.1493 142.599 68.0542 139.093 68.0352C135.586 68.0542 132.061 69.1493 129.25 71.3014C126.411 73.4344 124.562 76.7102 123.857 80.1193C123.533 81.8333 123.362 83.5569 123.524 85.3091C123.695 87.0517 124.2 88.7658 124.982 90.3179ZM144.724 83.2427C144.6 82.7951 144.733 82.3761 144.962 82.0904C145.381 81.5667 146.239 81.3572 146.934 82.0238C147.497 82.5761 147.477 83.0713 147.277 83.4807C147.154 83.7474 146.896 83.995 146.63 84.1664C146.515 84.233 146.401 84.2997 146.306 84.3473C146.286 84.414 146.258 84.4901 146.229 84.5663C146.124 84.8901 145.896 85.29 145.705 85.8328C145.61 86.0995 145.524 86.3851 145.438 86.6994C145.095 87.9563 144.743 89.5371 144.371 91.0893C143.571 94.4317 142.818 97.6884 142.818 97.6884C142.771 97.8693 142.59 97.9836 142.409 97.936C142.227 97.8979 142.113 97.7074 142.151 97.5265C142.151 97.5265 142.942 94.2793 143.733 90.9369C144.105 89.3847 144.495 87.8135 144.752 86.5375C144.819 86.2232 144.867 85.9185 144.905 85.6424C144.972 85.071 144.953 84.6139 145 84.2711C145.019 84.1092 145.048 83.9759 145.067 83.8807C145.057 83.8616 145.048 83.8521 145.029 83.8331C144.4 84.0616 143.714 84.2045 142.98 84.2045C141.732 84.2045 140.37 83.8045 139.074 82.7666C137.101 81.1953 135.281 81.8048 133.242 82.7189C133.29 83.0713 133.204 83.4712 132.861 83.8712C132.88 83.9664 132.909 84.0997 132.928 84.2616C132.976 84.5949 132.957 85.0615 133.023 85.6328C133.061 85.909 133.119 86.2042 133.176 86.528C133.433 87.8135 133.833 89.3752 134.195 90.9274C134.986 94.2698 135.777 97.517 135.777 97.517C135.815 97.6979 135.701 97.8884 135.52 97.9265C135.339 97.9741 135.148 97.8598 135.11 97.6789C135.11 97.6789 134.357 94.4222 133.557 91.0797C133.185 89.5276 132.833 87.9468 132.49 86.6898C132.404 86.3756 132.318 86.0899 132.223 85.8233C132.032 85.2805 131.804 84.8806 131.699 84.5568C131.67 84.4806 131.651 84.4044 131.623 84.3378C131.527 84.2902 131.413 84.233 131.299 84.1568C131.022 83.9854 130.775 83.7474 130.651 83.4712C130.46 83.0713 130.432 82.5666 130.994 82.0143C131.689 81.3477 132.547 81.5477 132.966 82.0809C132.976 82.0905 132.976 82.1 132.985 82.1C135.072 81.1572 137.225 80.4335 139.483 82.2333C141.303 83.6998 143.218 83.7569 144.724 83.2427ZM146.067 82.9856C146.105 82.9665 146.115 82.9475 146.086 82.9284C146.067 82.9189 146.067 82.9475 146.067 82.9856ZM81.8762 218.387C82.5241 217.33 82.5241 216.044 82.1239 214.768C81.7142 213.492 80.9806 212.254 80.1611 211.093C76.912 206.36 71.8717 203.094 66.5359 200.751C66.3739 200.684 66.2977 200.494 66.3739 200.332C66.4406 200.18 66.6026 200.113 66.755 200.151C72.4529 201.827 77.8839 205.17 81.4665 210.178C82.3431 211.426 83.153 212.749 83.6675 214.283C83.9152 215.044 84.0582 215.882 84.02 216.749C83.9819 217.606 83.7151 218.482 83.2768 219.215C82.3812 220.701 81.0282 221.634 79.7228 222.405C80.1707 223.205 80.4756 224.072 80.6757 224.938C80.9329 226.072 81.0949 227.214 81.1521 228.357C81.2188 229.5 81.2188 230.642 81.1806 231.776C81.1521 232.909 81.0091 234.061 80.9996 235.108C80.9901 236.184 81.0758 237.251 81.3236 238.251C81.5808 239.26 82.0001 240.155 82.6099 241.041C82.9052 241.498 83.2578 241.946 83.5532 242.584C83.6961 242.898 83.8104 243.269 83.839 243.65C83.8581 243.841 83.8485 244.022 83.839 244.222C83.8199 244.431 83.7723 244.641 83.6961 244.831C83.4007 245.602 82.8576 246.097 82.3431 246.478C81.9429 246.764 81.5332 246.974 81.114 247.174C80.7709 249.211 80.2564 251.144 79.6371 253.077C78.932 255.153 78.1412 257.115 77.0835 259.105C75.9211 261.124 73.9488 262.591 71.7764 263.248C69.6516 263.828 67.5363 264.162 65.402 264.4C65.2305 264.419 65.0686 264.295 65.0495 264.114C65.0304 263.952 65.1448 263.8 65.2972 263.771C67.3648 263.314 69.4515 262.81 71.4048 262.143C73.2913 261.476 74.8825 260.115 75.8258 258.401C76.7215 256.601 77.4742 254.573 78.1126 252.592C78.7414 250.602 79.275 248.535 79.5799 246.526V246.507C79.6276 246.221 79.8181 245.983 80.0659 245.878C80.9996 245.498 81.9524 244.898 82.1716 244.288C82.2002 244.212 82.2192 244.145 82.2192 244.079C82.2287 243.993 82.2287 243.898 82.2192 243.803C82.2002 243.622 82.162 243.45 82.0668 243.25C81.8953 242.86 81.5713 242.412 81.2569 241.927C80.5994 240.965 80.0468 239.794 79.7991 238.613C79.5323 237.432 79.4751 236.242 79.5228 235.07C79.5704 233.88 79.7324 232.804 79.7991 231.69C79.8848 230.585 79.942 229.481 79.9325 228.385C79.9134 227.29 79.8753 226.186 79.7038 225.119C79.5704 224.31 79.3894 223.491 79.0749 222.748C77.9411 223.367 76.7882 223.891 75.6353 224.396C74.2727 224.986 72.9197 225.548 71.5953 226.167C70.9474 226.481 70.2519 226.786 69.6611 227.129C69.0418 227.49 68.432 227.881 67.8412 228.281C65.4687 229.919 63.2773 231.861 61.5145 234.128C59.7709 236.384 58.4655 238.994 58.0177 241.793C57.5318 244.593 58.0368 247.497 59.0658 250.211C59.1325 250.373 59.0468 250.554 58.8848 250.621C58.7323 250.678 58.5608 250.611 58.4846 250.468C57.1316 247.802 56.3789 244.698 56.7981 241.622C57.1697 238.546 58.5608 235.68 60.4188 233.28C62.2768 230.861 64.5636 228.833 67.0313 227.109C67.6507 226.681 68.2891 226.272 68.9465 225.881C69.6421 225.481 70.2804 225.167 70.9569 224.824C72.3004 224.167 73.6534 223.558 74.9874 222.939C76.3118 222.31 77.6457 221.71 78.8748 220.996C80.104 220.301 81.2473 219.463 81.8762 218.387ZM85.8971 293.187C85.9733 293.32 86.1353 293.377 86.2877 293.32C86.4497 293.253 86.5355 293.072 86.4688 292.91C85.4588 290.263 83.9343 287.74 81.8667 285.702C79.8277 283.626 77.2836 282.112 74.6824 280.95C72.0717 279.779 69.3943 278.931 66.8694 277.874C64.6398 276.922 62.5245 275.732 60.9238 273.932C62.0958 273.913 63.2773 273.875 64.4492 273.789C65.6593 273.713 66.8694 273.561 68.0604 273.342C69.2514 273.113 70.4615 272.827 71.5858 272.237C71.7383 272.161 71.7954 271.97 71.7287 271.818C71.7097 271.77 71.662 271.751 71.6239 271.723C71.6049 271.704 71.6049 271.685 71.5858 271.675C69.4039 270.313 67.3934 268.761 65.5354 267.038C63.6965 265.295 62.0195 263.39 60.5617 261.324C57.6366 257.182 55.5595 252.497 54.5018 247.478C54.4733 247.335 54.3399 247.221 54.1779 247.221C54.0064 247.221 53.8635 247.374 53.8635 247.545C53.9301 250.183 54.5304 252.801 55.4832 255.268C56.417 257.753 57.7128 260.086 59.2373 262.248C60.7714 264.4 62.5436 266.4 64.5731 268.114C66.393 269.675 68.432 270.999 70.633 271.942C69.7755 272.246 68.8512 272.427 67.9365 272.551C66.7646 272.713 65.5831 272.789 64.3921 272.846C62.0195 272.942 59.628 272.894 57.2459 272.761C52.4819 272.475 47.7369 271.885 43.0395 271.075C38.3612 270.237 33.6733 269.171 29.3189 267.428C28.2423 266.98 27.1846 266.485 26.2414 265.876C25.3171 265.285 24.431 264.505 24.2214 263.724C24.1833 263.533 24.1452 263.343 24.1928 263.162C24.2119 262.981 24.2881 262.8 24.4119 262.467C24.6311 261.886 24.8217 261.295 24.9836 260.686C25.3076 259.477 25.5172 258.22 25.5553 256.953C25.5934 255.687 25.4505 254.382 25.117 253.163C24.8121 251.992 24.4786 250.83 24.1452 249.678C23.4782 247.364 22.7826 245.079 22.1538 242.784C21.5344 240.489 20.9723 238.175 20.6102 235.851C20.4197 234.689 20.3053 233.528 20.2291 232.356C20.1815 231.176 20.1243 229.995 20.1338 228.805C20.1338 224.091 20.6483 219.301 22.3348 214.959C23.1828 212.807 24.4215 210.807 26.1175 209.302C26.5748 208.979 26.9845 208.569 27.461 208.283C27.9659 208.036 28.4233 207.683 28.9569 207.474C29.4905 207.293 30.024 207.065 30.5767 206.903C31.1388 206.788 31.7105 206.674 32.2822 206.531L32.3108 206.522C32.3394 206.512 32.3489 206.493 32.368 206.484C32.4632 206.446 32.549 206.369 32.568 206.265V206.255C33.2064 203.703 35.4551 202.075 37.7704 200.98C40.1429 199.904 42.7536 199.266 45.3834 198.904C48.0227 198.542 50.7001 198.437 53.3775 198.513C56.0549 198.599 58.7323 198.866 61.4193 199.227C61.5717 199.246 61.7242 199.161 61.7718 199.008C61.829 198.837 61.7337 198.666 61.5622 198.608C58.942 197.77 56.2074 197.266 53.4537 197.066C50.7001 196.837 47.9179 196.932 45.1547 197.294C42.4106 197.685 39.6475 198.361 37.132 199.675C35.8743 200.323 34.6738 201.151 33.7019 202.237C33.2064 202.77 32.8158 203.398 32.4823 204.055C32.2155 204.646 32.0631 205.265 31.9868 205.893C29.6048 205.893 27.137 206.703 25.2409 208.283C23.259 209.902 21.9346 212.131 21.0009 214.406C19.1524 219.015 18.5998 223.938 18.5426 228.785C18.514 230.004 18.5617 231.214 18.5998 232.423C18.6665 233.651 18.7999 234.87 18.9904 236.08C19.362 238.498 19.9432 240.851 20.5721 243.184C21.2105 245.517 21.906 247.812 22.573 250.106C22.9065 251.259 23.2305 252.401 23.5258 253.554C23.8212 254.649 23.9451 255.753 23.9165 256.887C23.8784 258.01 23.7069 259.143 23.402 260.248C23.259 260.8 23.078 261.353 22.8779 261.886C22.8207 262.038 22.7826 262.124 22.7159 262.324C22.6588 262.514 22.5921 262.705 22.573 262.905C22.4968 263.305 22.554 263.733 22.6492 264.124C22.8589 264.905 23.3353 265.495 23.8021 265.981C24.2881 266.466 24.8121 266.847 25.3457 267.199C26.4224 267.895 27.5467 268.409 28.6901 268.885C30.4719 269.609 32.2917 270.18 34.1211 270.666C33.1493 271.294 32.0154 271.656 30.853 271.885C29.2999 272.189 27.6896 272.256 26.0317 272.408C22.7064 272.703 19.362 273.456 16.2844 274.951C13.2164 276.427 10.4913 278.741 8.66192 281.626C6.78488 284.492 5.83206 287.787 5.21273 291.006V291.015C5.18415 291.168 5.2699 291.32 5.42235 291.377C5.58433 291.434 5.76536 291.349 5.83206 291.187C6.91827 288.082 8.03306 285.035 9.872 282.445C11.6823 279.855 14.1597 277.789 17.0086 276.417C19.848 275.017 23.0113 274.303 26.2032 273.875C27.8135 273.684 29.4904 273.522 31.1388 273.065C32.549 272.684 33.9973 272.008 35.0454 270.923C35.255 270.98 35.4646 271.028 35.6742 271.085C38.0277 271.656 40.4002 272.123 42.7822 272.513C47.5463 273.303 52.358 273.76 57.1792 273.913C58.1225 273.941 59.0658 273.951 60.0091 273.951C60.314 274.446 60.6094 274.96 60.9905 275.408C61.4955 275.922 61.9528 276.532 62.5531 276.941L63.4202 277.617C63.7156 277.827 64.03 277.998 64.3444 278.198C64.9542 278.598 65.6021 278.903 66.25 279.217C68.8322 280.464 71.5 281.321 73.9964 282.455C76.5023 283.559 78.8558 284.959 80.8472 286.778C82.8385 288.606 84.4393 290.825 85.8685 293.206L85.8971 293.187ZM196.719 310.556C196.767 310.727 196.662 310.898 196.49 310.946C196.338 310.984 196.176 310.898 196.119 310.756C194.861 307.766 193.403 304.899 191.631 302.242C189.849 299.595 187.743 297.176 185.352 295.053C182.97 292.929 180.34 291.082 177.548 289.482C174.852 287.949 172.032 286.625 169.164 285.34C167.601 285.511 166.029 285.435 164.514 285.111C161.922 287.502 158.854 289.387 155.576 290.72C151.384 292.453 146.849 293.31 142.304 293.32C137.768 293.31 133.176 292.453 129.079 290.387C125.915 288.835 123.085 286.435 121.208 283.454C119.084 285.111 116.32 286.054 113.557 285.93C112.9 285.911 112.252 285.826 111.614 285.702C108.946 286.93 106.325 288.197 103.82 289.654C101.085 291.253 98.4933 293.091 96.1589 295.205C93.815 297.31 91.7569 299.719 90.0037 302.338C88.2601 304.966 86.8213 307.804 85.5731 310.746C85.5064 310.908 85.3159 310.984 85.1539 310.918C85.011 310.86 84.9252 310.699 84.9633 310.546C85.7637 307.394 87.05 304.347 88.7746 301.557C90.4706 298.738 92.624 296.205 95.0632 294.005C97.5024 291.806 100.208 289.901 103.105 288.387C105.401 287.159 107.793 286.149 110.251 285.34C108.641 284.826 107.126 283.978 105.84 282.864C103.677 281.026 102.2 278.331 101.923 275.456C101.628 272.742 102.4 270.056 103.648 267.733C102.657 266.076 101.923 264.257 101.59 262.352C101.209 260.296 101.228 258.163 101.695 256.115C102.162 254.077 103.105 252.135 104.477 250.545C105.687 249.145 107.25 248.088 108.936 247.402C108.85 247.231 108.765 247.059 108.688 246.888C107.898 245.04 107.536 243.069 107.383 241.108C107.126 237.175 107.764 233.185 109.327 229.538C110.87 225.9 113.5 222.653 116.911 220.539C120.198 218.463 124.048 217.501 127.84 217.273C129.774 214.702 132.471 212.769 135.424 211.597C138.492 210.378 141.837 209.912 145.115 210.178C148.383 210.445 151.651 211.464 154.376 213.397C156.882 215.149 158.787 217.806 159.569 220.777C161.007 220.253 162.618 220.12 164.104 220.501C165.876 220.939 167.449 221.986 168.592 223.358C169.735 224.738 170.412 226.491 170.488 228.271C170.555 229.747 170.145 231.204 169.411 232.452C170.374 232.223 171.422 232.299 172.365 232.594C173.604 232.966 174.738 233.613 175.7 234.423C177.634 236.051 179.016 238.232 179.845 240.555C180.674 242.888 180.998 245.402 180.721 247.869C180.483 250.145 179.578 252.382 178.044 254.077C178.149 254.163 178.253 254.249 178.349 254.334C179.073 255.011 179.721 255.753 180.283 256.572C181.417 258.191 182.255 260.01 182.789 261.914C183.846 265.723 183.723 269.828 182.455 273.57C181.198 277.293 178.816 280.702 175.519 282.94C174.051 283.95 172.384 284.654 170.65 285.054C173.261 285.873 175.805 286.911 178.244 288.187C181.188 289.692 183.942 291.606 186.429 293.815C188.906 296.034 191.116 298.576 192.841 301.424C194.594 304.29 195.909 307.375 196.719 310.556ZM169.802 284.026C171.574 283.616 173.242 282.835 174.738 281.817C177.72 279.75 179.892 276.589 181.007 273.122C182.122 269.656 182.351 265.866 181.398 262.343C180.931 260.581 180.169 258.905 179.149 257.401C178.901 257.02 178.606 256.677 178.339 256.296L177.463 255.239C176.891 254.553 176.253 253.954 175.471 253.516L175.462 253.506C175.309 253.42 175.252 253.22 175.338 253.068C175.404 252.944 175.547 252.887 175.681 252.906C176.31 253.02 176.891 253.297 177.415 253.639C178.434 251.792 179.111 249.811 179.321 247.745C179.53 245.507 179.187 243.212 178.396 241.108C177.606 239.003 176.395 237.032 174.738 235.575C173.918 234.842 172.965 234.28 171.946 233.937C170.917 233.604 169.878 233.461 168.706 233.356H168.697C168.649 233.356 168.601 233.337 168.563 233.309C168.535 233.299 168.497 233.309 168.468 233.28C168.335 233.185 168.306 232.994 168.382 232.861C169.211 231.48 169.621 229.9 169.459 228.347C169.326 226.795 168.63 225.338 167.63 224.177C166.629 223.005 165.257 222.158 163.78 221.824C162.303 221.491 160.75 221.691 159.378 222.367C159.035 222.539 158.616 222.396 158.444 222.053C158.416 221.996 158.397 221.939 158.387 221.882C157.796 218.92 155.996 216.292 153.518 214.578C151.051 212.835 148.021 211.902 144.981 211.664C141.932 211.435 138.816 211.883 135.987 213.026C133.157 214.159 130.632 216.025 128.86 218.473C128.717 218.673 128.488 218.777 128.269 218.796C124.543 218.958 120.827 219.844 117.693 221.805C114.548 223.729 112.109 226.7 110.642 230.109C109.165 233.509 108.536 237.299 108.765 241.012C108.869 242.869 109.174 244.726 109.803 246.44C110.108 247.297 110.508 248.126 111.051 248.83C111.575 249.545 112.271 250.106 113.119 250.268C113.291 250.297 113.405 250.459 113.376 250.64C113.348 250.792 113.205 250.906 113.052 250.906C111.957 250.887 110.985 250.221 110.299 249.478C109.898 249.03 109.565 248.545 109.27 248.031C107.736 248.83 106.383 249.926 105.354 251.268C104.191 252.773 103.429 254.563 103.067 256.42C102.695 258.277 102.724 260.21 103.114 262.067C103.515 263.914 104.22 265.704 105.249 267.304C105.411 267.561 105.411 267.876 105.277 268.133L105.268 268.142C104.029 270.351 103.267 272.846 103.524 275.313C103.762 277.769 105.001 280.083 106.84 281.759C108.688 283.435 111.118 284.502 113.634 284.711C116.13 284.921 118.702 284.283 120.884 282.902C120.484 282.197 120.113 281.474 119.817 280.712C119.751 280.55 119.836 280.36 119.998 280.303C120.151 280.245 120.322 280.312 120.399 280.455C122.409 284.35 125.811 287.283 129.708 289.092C133.624 290.901 137.978 291.701 142.304 291.701C146.639 291.701 150.974 290.892 155.043 289.377C159.102 287.835 162.894 285.559 166.105 282.559C166.229 282.436 166.439 282.445 166.553 282.569C166.667 282.683 166.667 282.874 166.562 282.997C166.124 283.502 165.667 283.988 165.19 284.454C166.772 284.511 168.316 284.388 169.802 284.026ZM200.054 253.116C200.692 252.516 201.578 252.278 202.522 252.24C203.465 252.201 204.456 252.363 205.447 252.544C205.609 252.573 205.771 252.478 205.809 252.316C205.856 252.144 205.761 251.973 205.59 251.925C204.608 251.649 203.608 251.363 202.522 251.306C201.979 251.287 201.426 251.325 200.873 251.468C200.33 251.592 199.758 251.878 199.32 252.22C198.434 252.916 197.786 253.782 197.205 254.658C196.633 255.534 196.138 256.448 195.699 257.391C194.823 259.258 194.099 261.191 193.489 263.152C192.87 265.219 192.727 267.276 192.517 269.285C192.145 273.332 191.898 277.35 191.326 281.312C191.069 283.293 190.602 285.207 190.183 287.206C189.773 289.187 189.382 291.177 189.077 293.187C189.058 293.339 189.144 293.482 189.287 293.539C189.459 293.596 189.64 293.51 189.687 293.339C190.345 291.415 190.907 289.473 191.459 287.521C192.012 285.588 192.508 283.578 192.841 281.55C193.508 277.512 193.756 273.446 194.108 269.437C194.299 267.438 194.461 265.428 194.985 263.6C195.528 261.686 196.176 259.791 196.976 257.982C197.815 256.201 198.691 254.334 200.054 253.116ZM286.122 291.901C285.969 291.939 285.807 291.853 285.75 291.711C284.454 288.52 283.101 285.388 281.396 282.464C279.671 279.579 277.565 276.893 274.812 275.094C273.44 274.199 271.934 273.541 270.333 273.161C268.733 272.77 267.075 272.608 265.369 272.542C263.664 272.465 261.882 272.389 260.148 272.123C259.281 271.989 258.414 271.818 257.556 271.551C256.956 271.361 256.356 271.151 255.784 270.828C255.889 271.189 255.994 271.542 256.108 271.904L256.413 272.865C256.518 273.227 256.575 273.599 256.603 273.97C256.651 274.713 256.527 275.475 256.136 276.103C256.022 276.294 255.765 276.36 255.574 276.236C255.431 276.151 255.365 275.998 255.384 275.846V275.827C255.45 275.208 255.498 274.637 255.441 274.056C255.393 273.475 255.155 272.961 254.907 272.304C254.45 271.047 254.078 269.752 253.745 268.447C253.44 267.142 253.164 265.819 253.021 264.476C252.945 263.809 252.887 263.133 252.859 262.457C252.84 262.105 252.83 261.753 252.849 261.4C251.992 261.638 251.125 261.829 250.248 261.943C249.095 262.067 247.942 262.133 246.799 262.076C245.646 262.038 244.512 261.895 243.378 261.714C243.245 261.695 243.131 261.638 243.035 261.562C241.577 260.4 240.434 258.924 239.548 257.353C238.652 255.782 237.995 254.125 237.423 252.459C236.832 250.802 236.394 249.107 235.88 247.478C235.622 246.659 235.375 245.84 235.041 245.079C234.803 244.507 234.536 243.955 234.184 243.479C233.926 243.888 233.631 244.269 233.278 244.602C232.84 245.002 232.335 245.326 231.811 245.564C230.734 246.021 229.572 246.107 228.486 245.964C228.333 245.945 228.219 245.802 228.238 245.65C228.257 245.517 228.371 245.412 228.505 245.402C229.524 245.336 230.515 245.098 231.344 244.631C232.173 244.164 232.802 243.45 233.231 242.603C233.679 241.755 233.841 240.793 234.003 239.774C234.155 238.775 234.222 237.765 234.126 236.794C234.041 235.832 233.774 234.899 233.25 234.194C232.726 233.49 231.954 232.994 231.039 232.813C230.125 232.633 229.134 232.661 228.209 232.937C227.352 233.185 226.552 233.661 225.732 234.194C225.723 234.261 225.713 234.318 225.675 234.375C225.58 234.48 225.427 234.509 225.303 234.461C223.693 233.737 222.464 232.318 221.635 230.785C220.787 229.243 220.33 227.548 220.053 225.862C219.796 224.167 219.71 222.443 219.891 220.748C220.044 219.282 220.358 217.806 220.968 216.435C220.044 216.606 219.11 216.768 218.167 216.892C216.204 217.149 214.222 217.311 212.212 217.216C210.687 217.12 209.106 216.93 207.619 216.339C206.361 218.577 206.161 221.215 206.361 223.786C206.466 225.176 206.647 226.567 206.857 227.986C207.038 229.404 207.324 230.833 207.181 232.423C207.028 233.966 206.571 235.394 206.037 236.765C205.504 238.137 204.856 239.441 204.17 240.717L203.655 241.669L203.522 241.908L203.465 242.012L203.446 242.05C203.408 242.136 203.379 242.26 203.37 242.374C203.303 242.85 203.465 243.345 203.798 243.783C204.484 244.688 205.761 245.288 207.028 245.717L207.047 245.726C207.352 245.831 207.543 246.117 207.543 246.421C207.533 247.326 207.629 248.307 207.733 249.249C207.848 250.202 207.991 251.154 208.191 252.097C208.515 253.715 208.963 255.315 209.477 256.896C209.887 256.134 210.363 255.391 210.983 254.734C211.602 254.077 212.402 253.449 213.45 253.258C214.508 253.097 215.604 253.401 216.376 254.277C217.147 255.192 217.138 256.391 216.919 257.306C216.661 258.248 216.356 258.962 216.09 259.762C215.823 260.543 215.575 261.324 215.366 262.114C214.937 263.695 214.641 265.314 214.46 266.952L214.384 267.59C214.356 267.847 214.289 268.095 214.232 268.333C214.089 268.799 213.908 269.228 213.698 269.637C213.279 270.447 212.783 271.18 212.25 271.875C211.183 273.265 210.001 274.503 208.753 275.684C207.572 276.789 206.352 277.817 204.989 278.76C204.646 280.236 204.361 281.759 204.103 283.274C203.827 284.883 203.57 286.502 203.351 288.121C203.141 289.739 202.912 291.368 202.731 292.996C202.598 294.167 202.474 295.339 202.35 296.51C203.208 295.605 204.103 294.739 205.008 293.901C207.381 291.682 209.896 289.644 212.364 287.587C214.842 285.54 217.3 283.474 219.644 281.312C221.749 279.341 223.75 277.274 225.503 274.989C225.875 271.418 225.923 267.818 225.704 264.228C225.303 264.419 224.903 264.562 224.494 264.714C223.788 264.952 223.074 265.152 222.359 265.324C221.73 265.466 221.092 265.581 220.444 265.676C220.625 266.047 220.701 266.476 220.606 266.876C220.473 267.523 220.082 268.085 219.596 268.466C218.796 269.113 217.833 269.361 216.881 269.437C216.957 269.79 217.004 270.151 216.995 270.532C216.976 271.151 216.738 271.837 216.242 272.304C215.747 272.77 215.127 272.942 214.556 273.037C214.27 273.056 213.974 273.065 213.698 273.046C213.422 273.018 213.145 272.98 212.869 272.932C212.755 272.913 212.679 272.808 212.698 272.694C212.717 272.599 212.783 272.532 212.869 272.523H212.888C213.155 272.484 213.412 272.456 213.67 272.437C213.927 272.399 214.165 272.332 214.413 272.285C214.88 272.142 215.299 271.942 215.575 271.646C215.851 271.351 215.956 270.942 215.966 270.494C215.975 270.056 215.88 269.552 215.718 269.142C215.613 268.866 215.747 268.561 216.013 268.456C216.071 268.437 216.137 268.418 216.194 268.418H216.204C216.709 268.409 217.224 268.399 217.7 268.266C218.176 268.142 218.634 267.99 219.015 267.714C219.396 267.447 219.701 267.095 219.853 266.676C219.977 266.381 219.977 266.047 219.882 265.733C219.253 265.809 218.615 265.857 217.967 265.847C217.748 265.847 217.567 265.666 217.567 265.447C217.567 265.247 217.719 265.085 217.91 265.057H217.919C219.32 264.847 220.711 264.581 222.083 264.219C222.769 264.038 223.445 263.838 224.103 263.6C224.741 263.371 225.437 263.076 225.847 262.752L225.856 262.743C226.113 262.533 226.494 262.581 226.704 262.838C226.78 262.933 226.818 263.048 226.837 263.152C227.39 268.818 227.142 274.57 226.085 280.169C227.238 281.264 229.057 281.788 230.82 282.026C232.716 282.293 234.67 282.312 236.613 282.217C240.52 282.026 244.369 281.217 248.18 280.274C248.4 280.217 248.609 280.35 248.666 280.56C248.714 280.76 248.609 280.96 248.428 281.026C246.561 281.769 244.617 282.274 242.654 282.655C240.691 283.035 238.7 283.321 236.699 283.454C234.698 283.588 232.669 283.588 230.639 283.302C228.648 283.007 226.485 282.521 224.865 280.807C224.732 280.664 224.684 280.474 224.713 280.293L224.722 280.255C224.951 279.103 225.132 277.95 225.284 276.789C223.95 278.798 222.34 280.607 220.654 282.302C218.367 284.626 215.88 286.721 213.403 288.778C210.916 290.834 208.42 292.853 205.971 294.92C203.551 297.015 201.178 299.138 199.158 301.595L199.149 301.604C199.034 301.738 198.834 301.757 198.701 301.652C198.577 301.547 198.548 301.376 198.634 301.243C199.482 299.814 200.492 298.51 201.588 297.281C201.655 294.158 201.836 291.034 202.14 287.921C202.312 286.283 202.493 284.635 202.731 282.997C202.979 281.359 203.236 279.741 203.598 278.084C203.636 277.903 203.741 277.76 203.884 277.655L203.913 277.636C205.218 276.732 206.466 275.589 207.657 274.465C208.848 273.322 209.982 272.123 210.964 270.828C211.449 270.18 211.897 269.513 212.25 268.828C212.421 268.485 212.574 268.142 212.679 267.799C212.726 267.628 212.764 267.466 212.783 267.304L212.86 266.685C213.06 264.981 213.374 263.286 213.832 261.619C214.06 260.781 214.337 259.962 214.632 259.162C214.918 258.382 215.28 257.534 215.48 256.858C215.67 256.182 215.632 255.496 215.289 255.087C214.965 254.668 214.251 254.392 213.65 254.477C213.022 254.553 212.383 254.963 211.831 255.496C211.278 256.03 210.802 256.687 210.363 257.363C209.515 258.743 208.839 260.277 208.334 261.848C208.277 262.019 208.105 262.105 207.934 262.057C207.772 262.01 207.686 261.848 207.714 261.686C208.01 260.315 208.439 258.972 209.039 257.686C208.648 256.848 208.258 256.01 207.943 255.144C207.591 254.211 207.286 253.258 207.028 252.297C206.771 251.335 206.562 250.354 206.39 249.364C206.257 248.545 206.171 247.726 206.123 246.869C205.571 246.678 205.008 246.478 204.475 246.193C203.789 245.831 203.093 245.374 202.55 244.688C202.007 244.003 201.664 243.05 201.797 242.098C201.826 241.86 201.883 241.631 201.979 241.384C201.998 241.327 202.036 241.25 202.074 241.184L202.14 241.06L202.264 240.822L202.769 239.889C204.056 237.413 205.304 234.813 205.609 232.195C205.723 230.928 205.542 229.509 205.39 228.1C205.237 226.681 205.056 225.243 205.028 223.777C205.008 222.32 205.066 220.825 205.437 219.377C205.723 218.168 206.247 216.997 206.962 215.987C206.733 215.873 206.504 215.759 206.285 215.625C205.361 215.073 204.551 214.245 204.046 213.254C203.541 212.264 203.341 211.159 203.331 210.102C203.331 209.817 203.493 209.569 203.741 209.455H203.751C206.104 208.36 208.191 206.655 210.268 204.922C212.345 203.179 214.451 201.399 216.766 199.875C221.359 196.752 226.771 194.866 232.259 194.228C237.728 193.6 243.359 193.619 248.743 195.247C251.411 196.056 254.021 197.351 256.098 199.342C258.156 201.227 259.443 203.979 259.509 206.712C260.72 206.874 261.758 207.503 262.606 208.302C263.521 209.179 264.169 210.264 264.655 211.378C265.636 213.635 266.008 216.035 266.16 218.406C266.274 220.787 266.217 223.139 265.912 225.5C265.636 227.852 265.179 230.195 264.445 232.442C263.054 236.975 260.91 241.136 259.49 245.479C258.004 249.802 257.318 254.354 257.194 258.924V258.962C257.185 259.21 257.061 259.429 256.87 259.553C255.87 260.229 254.898 260.638 253.859 261C253.916 261.419 253.964 261.848 254.012 262.267C254.069 262.914 254.164 263.552 254.269 264.2C254.479 265.485 254.717 266.761 255.041 268.018C255.174 268.59 255.327 269.161 255.489 269.723C256.918 270.342 258.661 270.475 260.31 270.666C262.006 270.847 263.664 270.894 265.407 270.885C267.151 270.923 268.952 271.028 270.705 271.466C272.468 271.885 274.164 272.618 275.679 273.608C278.718 275.617 280.995 278.522 282.644 281.607C284.33 284.702 285.502 288.016 286.331 291.377C286.398 291.691 286.293 291.863 286.122 291.901ZM253.154 259.667C254.012 259.381 254.898 259.001 255.622 258.562C255.784 254.001 256.499 249.411 257.985 245.088C259.462 240.593 261.596 236.442 262.921 232.08C264.264 227.738 264.874 223.148 264.702 218.606C264.588 216.349 264.245 214.083 263.397 212.054C262.539 210.064 261.158 208.226 259.185 207.407L259.128 207.379C259.1 207.369 259.09 207.341 259.071 207.322C259.033 207.303 259.014 207.274 258.985 207.236C258.976 207.217 258.966 207.207 258.957 207.198C258.947 207.169 258.919 207.16 258.919 207.131C258.347 204.531 257.051 202.227 255.136 200.513C253.211 198.799 250.791 197.685 248.295 196.894C243.235 195.409 237.757 195.237 232.469 195.856C227.161 196.466 222.035 198.237 217.605 201.227C215.375 202.694 213.317 204.417 211.221 206.16C209.248 207.788 207.209 209.464 204.808 210.654C204.846 211.397 204.999 212.111 205.313 212.74C205.694 213.492 206.285 214.13 207.019 214.606C208.505 215.568 210.43 215.93 212.307 216.092C214.213 216.235 216.147 216.178 218.081 215.997C220.015 215.816 221.94 215.568 223.865 215.225C224.036 215.197 224.198 215.311 224.236 215.482C224.265 215.654 224.16 215.806 223.998 215.844C223.274 216.006 222.55 216.159 221.826 216.301C221.54 217.815 221.397 219.339 221.368 220.872C221.349 222.472 221.416 224.072 221.673 225.643C221.911 227.214 222.34 228.747 222.959 230.176C223.55 231.499 224.341 232.709 225.418 233.718C226.113 233.042 226.904 232.395 227.866 231.995C228.934 231.557 230.115 231.404 231.287 231.595C232.45 231.776 233.65 232.385 234.384 233.385C235.136 234.375 235.451 235.566 235.565 236.689C235.67 237.822 235.575 238.937 235.403 240.022C235.26 240.946 235.003 241.927 234.565 242.831C235.156 243.355 235.603 243.993 235.965 244.65C236.394 245.45 236.756 246.259 237.061 247.088C237.671 248.745 238.195 250.392 238.767 252.011C239.348 253.62 239.996 255.201 240.844 256.639C241.654 258.02 242.654 259.267 243.864 260.248C244.865 260.391 245.865 260.505 246.875 260.524C247.942 260.562 249.019 260.486 250.067 260.353C251.115 260.21 252.154 259.991 253.154 259.667ZM80.971 172.936C82.6289 175.392 85.1444 177.145 87.7837 178.297C90.2896 179.392 92.9384 180.03 95.5872 180.497C95.511 181.544 95.3395 182.639 95.0822 183.677C94.7868 184.877 94.3771 186.048 93.8626 187.172C93.3576 188.296 92.7383 189.372 92.0046 190.362C91.2995 191.381 90.423 192.247 89.5368 193.104L89.5178 193.123C89.4225 193.219 89.3558 193.362 89.3653 193.504C89.3749 193.79 89.6131 194.009 89.8989 194C94.4819 193.857 98.9316 192.095 102.447 189.257C102.6 189.134 102.629 188.905 102.514 188.743C102.39 188.581 102.162 188.543 101.99 188.667C98.8363 190.981 95.1013 192.552 91.2328 192.885C91.8236 192.285 92.3762 191.657 92.8622 190.971C93.6435 189.924 94.3009 188.791 94.8345 187.6C95.3776 186.42 95.8159 185.182 96.1303 183.925C96.4447 182.658 96.6544 181.392 96.7115 180.039C96.7211 179.782 96.54 179.544 96.2732 179.506H96.2542C93.5005 179.03 90.766 178.383 88.241 177.268C85.7351 176.154 83.4293 174.535 81.9048 172.269C80.3612 170.022 79.5132 167.346 79.0463 164.622C78.5795 161.88 78.4365 159.08 78.427 156.271C78.4175 153.462 78.5509 150.653 78.9701 147.91C79.4084 145.177 80.1897 142.483 81.6666 140.197C83.1149 137.893 85.3444 136.198 87.8122 135.036C90.3086 133.884 93.0337 133.198 95.7873 132.731C101.314 131.808 106.964 131.627 112.604 131.551C118.245 131.541 123.905 131.56 129.498 132.065C130.889 132.227 132.299 132.322 133.671 132.57L135.748 132.903L137.787 133.379C140.474 134.074 143.123 135.017 145.343 136.617C147.563 138.207 149.212 140.492 150.164 143.073C151.136 145.654 151.546 148.415 152.08 151.186V151.196C152.099 151.3 152.194 151.386 152.308 151.386C152.442 151.386 152.546 151.281 152.546 151.148C152.556 150.567 152.537 149.986 152.508 149.405C156.148 148.434 159.95 148.129 163.742 147.882C167.639 147.672 171.546 147.634 175.462 147.672C179.368 147.682 183.275 147.825 187.153 148.167C191.002 148.539 194.918 149.12 198.31 150.767C199.968 151.634 201.426 152.824 202.398 154.395C203.408 155.947 203.808 157.842 204.084 159.709C204.465 163.489 204.513 167.508 203.322 171.06C202.703 172.821 201.607 174.383 200.121 175.497C198.644 176.64 196.843 177.345 195.004 177.868C193.165 178.411 191.24 178.706 189.325 179.011L186.429 179.344C185.457 179.411 184.485 179.525 183.513 179.611H183.503C183.303 179.63 183.16 179.801 183.17 179.992C183.179 180.201 183.351 180.354 183.561 180.344C184.542 180.306 185.523 180.287 186.514 180.23L189.459 179.973C191.421 179.725 193.384 179.459 195.309 178.887C197.224 178.344 199.149 177.621 200.797 176.364C202.455 175.135 203.713 173.364 204.399 171.441C205.094 169.517 205.342 167.498 205.466 165.518C205.494 164.527 205.542 163.527 205.485 162.537C205.466 162.042 205.466 161.547 205.428 161.042L205.275 159.547C204.989 157.576 204.57 155.528 203.446 153.748C202.36 151.967 200.702 150.596 198.891 149.653C195.194 147.882 191.193 147.349 187.277 146.977C183.341 146.653 179.406 146.53 175.481 146.539C171.555 146.52 167.63 146.577 163.694 146.806C161.732 146.92 159.759 147.091 157.806 147.396C156.005 147.663 154.214 148.034 152.47 148.606C152.299 146.596 151.88 144.587 151.165 142.663C150.174 139.93 148.392 137.426 146.001 135.693C143.609 133.96 140.836 132.969 138.073 132.236L135.977 131.741L133.862 131.389C132.452 131.122 131.032 131.017 129.612 130.846C123.943 130.294 118.255 130.256 112.585 130.275C106.916 130.36 101.218 130.532 95.5682 131.484C92.7478 131.96 89.937 132.665 87.2787 133.893C84.6489 135.122 82.1906 136.988 80.6185 139.511C79.0082 142.006 78.2079 144.873 77.76 147.701C77.3313 150.548 77.2074 153.405 77.2265 156.252C77.2455 159.099 77.398 161.966 77.8839 164.803C78.3984 167.66 79.2845 170.507 80.971 172.936ZM198.644 184.382C202.169 184.382 204.179 185.858 204.179 188.419C204.179 190.981 202.16 192.457 198.644 192.457C195.118 192.457 193.108 190.99 193.108 188.419C193.108 185.848 195.118 184.382 198.644 184.382ZM198.644 185.334C196.547 185.334 194.061 185.867 194.061 188.419C194.061 190.971 196.557 191.505 198.644 191.505C200.74 191.505 203.227 190.971 203.227 188.419C203.227 185.867 200.74 185.334 198.644 185.334ZM178.663 192.285C178.034 195.199 176.738 197.942 174.814 200.199C173.832 201.313 172.708 202.294 171.488 203.16C170.259 204.017 168.944 204.741 167.591 205.389L167.582 205.398C167.401 205.484 167.325 205.703 167.401 205.884C167.487 206.074 167.706 206.16 167.887 206.074C169.297 205.455 170.707 204.789 172.003 203.903C173.289 203.017 174.49 202.008 175.547 200.846C176.586 199.665 177.472 198.351 178.177 196.952C178.892 195.552 179.349 194.038 179.711 192.524C180.083 191 180.216 189.448 180.321 187.905C180.407 186.353 180.302 184.801 180.216 183.258C179.921 180.163 179.063 177.068 177.434 174.364C175.824 171.65 173.432 169.45 170.736 167.87C170.05 167.508 169.392 167.06 168.668 166.765L166.524 165.841C165.791 165.575 165.047 165.356 164.314 165.108C163.58 164.851 162.827 164.67 162.075 164.499C156.053 163.051 149.879 162.661 143.752 162.642C137.625 162.661 131.451 163.051 125.429 164.499C124.677 164.67 123.924 164.851 123.19 165.108C122.457 165.356 121.713 165.575 120.98 165.841L118.836 166.765C118.112 167.06 117.464 167.508 116.768 167.87C114.081 169.45 111.69 171.65 110.07 174.364C108.441 177.068 107.593 180.163 107.288 183.258C107.202 184.81 107.097 186.362 107.183 187.905C107.278 189.448 107.421 191.009 107.793 192.524C108.155 194.038 108.612 195.552 109.327 196.952C110.022 198.361 110.918 199.665 111.947 200.846C113.005 202.008 114.205 203.017 115.492 203.903C116.778 204.789 118.188 205.455 119.608 206.074C119.789 206.15 120.008 206.074 120.094 205.893C120.179 205.712 120.103 205.484 119.922 205.398L119.913 205.389C118.55 204.741 117.235 204.008 116.016 203.16C114.805 202.294 113.672 201.313 112.7 200.199C110.775 197.942 109.47 195.199 108.85 192.285C108.507 190.838 108.374 189.343 108.279 187.848C108.202 186.343 108.307 184.848 108.393 183.353C108.688 180.382 109.517 177.459 111.042 174.935C112.557 172.402 114.796 170.355 117.359 168.86C118.016 168.517 118.636 168.089 119.331 167.813L121.399 166.936C122.104 166.689 122.828 166.47 123.543 166.241C124.248 165.994 124.982 165.822 125.715 165.651C131.585 164.251 137.683 163.88 143.752 163.88C149.821 163.88 155.919 164.251 161.789 165.651C162.522 165.813 163.256 165.984 163.961 166.241C164.676 166.479 165.4 166.689 166.105 166.936L168.173 167.813C168.868 168.089 169.488 168.517 170.145 168.86C172.708 170.355 174.947 172.402 176.462 174.935C177.987 177.459 178.816 180.382 179.111 183.353C179.197 184.848 179.302 186.343 179.225 187.848C179.14 189.333 179.006 190.838 178.663 192.285Z" fill="black"/>
<defs>
<radialGradient id="paint0_radial_717_9596" cx="0" cy="0" r="1" gradientUnits="userSpaceOnUse" gradientTransform="translate(138.449 83.9609) scale(83.9633 83.914)">
<stop stop-color="#A1E3EF"/>
<stop offset="0.9953" stop-color="#A1E3EF" stop-opacity="0"/>
</radialGradient>
</defs>
</svg>
