<svg width="141" height="160" viewBox="0 0 141 160" fill="none" xmlns="http://www.w3.org/2000/svg">
<path fill-rule="evenodd" clip-rule="evenodd" d="M26.6369 156.799C26.6369 156.799 26.0993 139.632 24.0505 131.906C17.7928 128.267 17.8369 125.255 17.8794 123.296C17.9235 121.337 21.8268 115.761 21.5621 110.862C17.7241 118.213 12.8013 126.654 5.83452 125.187C-1.13259 123.72 0.16175 113.628 2.04396 108.433C3.92617 103.237 12.3536 94.8257 13.4434 93.0119C15.5723 89.4715 17.2961 81.5868 23.3201 80.532C25.7529 66.1233 21.0196 64.8263 22.544 62.427C15.9955 53.702 11.37 6.97874 46.6925 1.13392C82.015 -4.71089 88.6403 34.4212 82.9626 53.1445C77.2833 71.8676 79.5381 88.4402 79.5381 88.4402L82.9626 87.9583C86.2924 77.4669 102.979 62.891 122.242 71.4737C142.172 80.3526 139.496 99.9829 136.279 106.507C139.199 112.345 142.746 116.262 138.212 122.415C134.326 127.689 136.362 130.921 136.261 133.622C136.694 134.752 138.529 135.263 136.393 139.391C139.522 142.86 138.71 145.443 135.07 147.093C135.308 150.754 135.892 156.603 135.715 158.516C135.54 160.428 26.498 157.092 26.6369 156.799Z" fill="white"/>
<path fill-rule="evenodd" clip-rule="evenodd" d="M4.8378 109.034C5.93902 107.161 8.07775 104.908 10.4763 102.405C12.4287 100.369 14.5576 98.1761 16.4578 95.9032C18.1815 93.8416 19.7125 91.7094 20.7876 89.5904C22.9704 85.2517 24.2334 80.6418 24.6565 76.5814C25.0389 72.9018 24.7252 69.67 23.8282 67.4803C22.9753 65.4143 22.7629 63.9793 22.9655 63.025C23.0717 62.5245 23.2939 62.1781 23.5994 61.9731C23.9491 61.7386 24.3919 61.6861 24.8346 61.7512C25.0895 61.7902 25.3297 61.6142 25.3689 61.3583C25.4065 61.1025 25.2317 60.863 24.9751 60.8238C24.2938 60.7158 23.6174 60.8201 23.0717 61.1754C22.5815 61.4952 22.1894 62.0213 22.0097 62.8156C21.7662 63.8907 21.9313 65.5249 22.8658 67.8709C23.869 70.3687 24.0112 74.2858 23.2449 78.6456C22.6534 82.0088 21.5195 85.6343 19.7795 89.0815C18.7501 91.1378 17.2617 93.195 15.6197 95.2108C13.762 97.4911 11.6984 99.7134 9.80963 101.781C7.42582 104.39 5.32795 106.763 4.2594 108.704C4.16791 108.864 4.22346 109.067 4.38358 109.158C4.5437 109.249 4.7463 109.193 4.8378 109.034Z" fill="black"/>
<path fill-rule="evenodd" clip-rule="evenodd" d="M33.721 15.7012C30.2196 18.9951 27.2836 23.2398 25.2151 28.156C23.3443 32.5995 22.1729 37.5902 21.9441 42.9124C21.7775 46.7876 22.1075 50.8398 23.0208 54.9777C24.2332 60.4643 26.4797 66.0997 29.9125 71.6996C29.9991 71.8437 30.187 71.8903 30.3307 71.8034C30.4745 71.7166 30.5219 71.5289 30.4353 71.3846C27.1365 65.8093 25.0354 60.2123 23.895 54.7894C23.0388 50.7225 22.7284 46.7531 22.8869 42.9524C23.1042 37.7393 24.1956 32.8458 25.9863 28.4768C27.9682 23.643 30.7882 19.4489 34.1801 16.1843C34.3141 16.0575 34.319 15.8463 34.1916 15.7129C34.0657 15.5796 33.8533 15.5743 33.721 15.7012Z" fill="black"/>
<path fill-rule="evenodd" clip-rule="evenodd" d="M28.7814 72.7967C32.9412 71.0311 37.7726 69.5528 42.2052 68.8188C43.8129 68.5524 45.37 68.3854 46.8225 68.3372C48.507 68.2811 50.0526 68.3831 51.3744 68.7016C53.005 69.0825 53.6798 70.1925 53.6243 71.2782C53.5622 72.4877 52.6309 73.643 51.1947 73.634C50.1932 73.6301 49.2602 73.6933 48.4613 73.7816C46.8372 73.9607 45.7572 74.2379 45.7572 74.2379C45.5938 74.2773 45.4942 74.4422 45.5334 74.606C45.5726 74.7696 45.7376 74.8706 45.901 74.8312C45.901 74.8312 46.9516 74.5966 48.5266 74.4677C49.3043 74.4041 50.2111 74.3665 51.18 74.3968C53.0949 74.4525 54.3709 72.9394 54.4853 71.3305C54.5866 69.8826 53.7615 68.3383 51.5934 67.7947C50.1997 67.4553 48.5675 67.3281 46.7882 67.3935C45.2981 67.4484 43.7002 67.6372 42.0516 67.9322C37.5699 68.7343 32.7027 70.3265 28.5167 72.185C28.3484 72.2583 28.27 72.4548 28.3436 72.6236C28.4171 72.7923 28.6131 72.8699 28.7814 72.7967Z" fill="black"/>
<path fill-rule="evenodd" clip-rule="evenodd" d="M37.5002 75.2265L38.5802 76.3098C38.6929 76.4237 38.8661 76.4517 39.0082 76.3784C40.2271 75.7763 41.8806 75.2555 43.4213 75.0677C44.5111 74.9348 45.5421 74.9629 46.3034 75.3002C46.7527 75.4918 47.1449 75.7845 47.47 76.1367C47.97 76.6801 48.3098 77.3671 48.4095 78.0855C48.5663 79.2149 48.1415 80.4086 46.8639 81.2052C46.7201 81.2902 46.6694 81.4773 46.756 81.6226C46.841 81.7679 47.0272 81.8169 47.1727 81.732C48.7951 80.8429 49.3735 79.3847 49.246 77.9891C49.1627 77.0864 48.7722 76.2057 48.1611 75.5125C47.7576 75.053 47.2511 74.681 46.6792 74.4308C45.7806 74.0518 44.5732 73.9968 43.302 74.1851C41.7695 74.4123 40.1438 74.9775 38.8988 75.6121L37.9544 74.7383C37.8188 74.613 37.608 74.6207 37.4822 74.7553C37.358 74.89 37.3646 75.1012 37.5002 75.2265Z" fill="black"/>
<path fill-rule="evenodd" clip-rule="evenodd" d="M39.0374 81.0378C39.0374 81.0378 39.191 81.2942 39.4067 81.5922C39.5341 81.768 39.6844 81.9573 39.838 82.1188C39.9377 82.2207 40.0896 82.2524 40.222 82.1988C41.5503 81.6843 43.0077 81.2975 44.2674 81.2937C45.2053 81.2908 46.0287 81.498 46.5581 82.0954C47.509 83.1561 47.4698 84.4294 46.9421 85.6161C46.5941 86.3969 46.0402 87.1442 45.3834 87.7843C44.341 88.7972 43.0502 89.5522 41.8983 89.7087C41.0209 89.8282 40.2318 89.595 39.7645 88.8051C39.6812 88.6582 39.4949 88.6059 39.3495 88.6882C39.2025 88.7706 39.1502 88.9568 39.2319 89.1037C39.9214 90.4037 41.2742 90.697 42.7496 90.3108C43.8524 90.0222 45.0255 89.3395 46.0026 88.4385C46.7673 87.7315 47.4126 86.8886 47.808 86.0033C48.491 84.4806 48.4616 82.8397 47.2231 81.4921C46.5189 80.7341 45.4667 80.4255 44.2544 80.4607C42.9783 80.4976 41.5225 80.9057 40.1795 81.4514C40.1011 81.362 40.0243 81.2689 39.9557 81.1798C39.7514 80.916 39.606 80.688 39.606 80.688C39.5096 80.5315 39.3038 80.4826 39.1469 80.579C38.9901 80.6756 38.941 80.881 39.0374 81.0378Z" fill="black"/>
<path fill-rule="evenodd" clip-rule="evenodd" d="M42.3155 86.7832C41.8564 86.9895 41.3466 87.0877 40.8287 87.1446C40.6457 87.1647 40.4627 87.1769 40.2781 87.1882C40.1555 87.1957 40.033 87.2037 39.9104 87.2106C39.6735 87.2238 39.4415 87.2364 39.2112 87.2328C38.9677 87.2291 38.7341 87.2252 38.5053 87.1952C38.3436 87.1528 38.1769 87.2506 38.1344 87.4136C38.0919 87.5767 38.19 87.7434 38.3517 87.7857C38.7504 87.9394 39.1817 88.0629 39.6425 88.1147C39.9349 88.1476 40.2356 88.1474 40.5346 88.117C40.8319 88.0868 41.126 88.0204 41.4103 87.9328C41.8466 87.7986 42.2599 87.6112 42.6325 87.37C42.7942 87.2825 42.8547 87.0802 42.7681 86.9182C42.6798 86.7563 42.4772 86.6958 42.3155 86.7832Z" fill="black"/>
<path fill-rule="evenodd" clip-rule="evenodd" d="M39.4068 87.8504C39.0098 89.0312 37.6504 90.5917 35.765 91.8204C34.3157 92.7649 32.5495 93.5084 30.651 93.7192C30.5382 93.7328 30.437 93.7901 30.3667 93.8787C27.7738 97.1135 25.3622 101.775 22.9963 106.501C20.6959 111.096 18.4379 115.75 16.0197 119.146C14.4202 121.393 12.7733 123.09 10.9809 123.785C7.06292 125.307 3.9308 124.979 2.32798 122.229C1.14343 120.194 0.785617 116.94 1.4506 112.34C1.78881 109.995 2.69234 107.838 3.87198 105.839C5.29671 103.423 7.12827 101.24 8.87978 99.2432C11.0463 96.7751 13.0919 94.5818 14.1784 92.6062C15.9299 89.4123 17.2942 85.7193 19.263 83.4172C20.2433 82.2693 21.3756 81.4767 22.8117 81.3306C23.0388 81.3087 23.2071 81.1055 23.1842 80.8774C23.163 80.6492 22.9604 80.4818 22.7316 80.5039C21.0749 80.6551 19.745 81.5308 18.598 82.8427C16.572 85.1627 15.126 88.8942 13.3092 92.1233C12.2341 94.0391 10.2065 96.1456 8.08081 98.5363C6.27213 100.571 4.39155 102.805 2.92107 105.276C1.66137 107.395 0.703926 109.688 0.339574 112.178C-0.610843 118.696 0.501328 122.698 2.83285 124.548C4.85067 126.151 7.83574 126.229 11.3943 124.847C13.3549 124.085 15.2012 122.269 16.9462 119.804C19.3839 116.36 21.6713 111.649 23.9554 106.975C26.2134 102.354 28.4632 97.767 30.9336 94.5434C32.8877 94.2527 34.6932 93.4445 36.1751 92.4354C38.1863 91.0655 39.5947 89.3272 39.9967 88.0421C40.0506 87.879 39.9607 87.7036 39.7973 87.6507C39.634 87.5977 39.4591 87.6873 39.4068 87.8504Z" fill="black"/>
<path fill-rule="evenodd" clip-rule="evenodd" d="M21.4297 111.33C21.3072 112.681 21.0115 113.883 20.6488 114.99C20.2615 116.171 19.7812 117.236 19.3172 118.243C18.4725 120.075 17.6768 121.719 17.3974 123.397C17.2977 124.005 17.4072 124.883 17.7666 125.869C18.2846 127.287 19.3057 128.963 20.8742 130.329C22.6012 131.834 24.9834 132.966 28.0077 133.017C28.2364 133.025 28.4292 132.846 28.4357 132.616C28.4439 132.387 28.2642 132.195 28.0354 132.187C25.2759 132.041 23.1518 130.919 21.6029 129.51C20.2207 128.251 19.2943 126.759 18.8352 125.481C18.5607 124.72 18.4463 124.048 18.5215 123.58C18.7747 121.987 19.5704 120.446 20.3187 118.687C20.768 117.628 21.2027 116.496 21.5262 115.247C21.8317 114.066 22.031 112.784 22.0506 111.362C22.0604 111.191 21.9281 111.045 21.7565 111.036C21.585 111.027 21.4395 111.158 21.4297 111.33Z" fill="black"/>
<path fill-rule="evenodd" clip-rule="evenodd" d="M23.8067 131.607C23.8067 131.607 24.1269 133.484 24.5223 136.388C24.653 137.352 24.7902 138.427 24.9357 139.585C25.0615 140.596 25.1889 141.669 25.3213 142.783C25.4046 143.479 25.4944 144.191 25.5794 144.914C25.7493 146.365 25.9094 147.86 26.0369 149.363C26.1627 150.861 26.264 152.359 26.3081 153.83C26.3081 153.948 26.4012 154.044 26.5189 154.044C26.6349 154.044 26.7313 153.95 26.7313 153.833C26.8162 151.611 26.8015 149.314 26.6888 147.07C26.6104 145.53 26.4993 144.016 26.3424 142.575C26.1692 140.977 25.9437 139.471 25.7215 138.113C25.0745 134.167 24.4161 131.482 24.4161 131.482C24.3818 131.314 24.2168 131.205 24.0485 131.24C23.8802 131.274 23.7723 131.439 23.8067 131.607Z" fill="black"/>
<path fill-rule="evenodd" clip-rule="evenodd" d="M33.3141 13.7758C35.0313 17.9253 36.7256 21.1797 38.7418 24.0137C40.9263 27.0845 43.4833 29.6602 46.8033 32.3741C46.9307 32.4761 47.0974 32.513 47.2542 32.4739C47.4127 32.4349 47.5418 32.3242 47.6071 32.175C47.795 31.7381 48.0172 31.1385 48.2313 30.53C48.4322 29.9511 48.6267 29.3647 48.7737 28.9081C49.4665 29.6473 50.7164 30.9038 52.3535 32.2281C53.7227 33.3354 55.3631 34.4876 57.1669 35.4308C57.2747 35.4884 57.4005 35.4934 57.5132 35.4447C57.6243 35.396 57.7061 35.2988 57.7355 35.1811C57.8286 34.8016 57.9479 34.3546 58.0704 33.9184C58.2076 33.4273 58.3481 32.9502 58.4527 32.5978C58.8824 33.018 59.6504 33.6938 60.8398 34.495C61.9982 35.2751 63.5618 36.1779 65.609 37.0802C65.7152 37.1291 65.841 37.0824 65.8901 36.9761C65.9391 36.8699 65.8917 36.7439 65.7855 36.6952C63.802 35.7454 62.2939 34.8103 61.178 34.0088C59.3056 32.6629 58.5655 31.7027 58.5655 31.7027C58.4854 31.6014 58.3563 31.5525 58.2289 31.5754C58.1014 31.5984 57.9969 31.6896 57.9577 31.8125C57.9577 31.8125 57.6489 32.731 57.3466 33.7053C57.2649 33.9687 57.1848 34.2361 57.1113 34.4907C55.5526 33.5833 54.141 32.5228 52.945 31.5128C50.4942 29.445 48.9485 27.5749 48.9485 27.5749C48.8276 27.4313 48.6397 27.3648 48.4551 27.4012C48.2721 27.4376 48.1234 27.5715 48.0679 27.75C48.0679 27.75 47.6741 28.9834 47.251 30.1857C47.1366 30.5098 47.0206 30.8316 46.9079 31.1254C43.8934 28.6683 41.5341 26.2848 39.4672 23.4869C37.4314 20.7317 35.675 17.577 33.8859 13.5313C33.819 13.3736 33.636 13.3004 33.4775 13.3679C33.3206 13.4354 33.2471 13.6181 33.3141 13.7758Z" fill="black"/>
<path fill-rule="evenodd" clip-rule="evenodd" d="M62.0671 35.6985C62.6782 41.603 63.7369 47.2474 64.415 53.7906C64.7957 57.4669 65.0489 61.4278 65.0407 65.8828C65.0309 70.3496 64.7483 75.3117 64.0621 80.9856C63.5164 85.4888 62.7337 90.4417 61.5933 95.9451C61.559 96.1059 61.6211 96.2718 61.7534 96.37C61.8858 96.4683 62.0622 96.4805 62.206 96.4017C64.2581 95.2572 66.6468 92.773 68.8542 89.5734C71.3752 85.9173 73.6725 81.3305 74.9942 76.8064C75.0286 76.6944 74.9648 76.5761 74.8537 76.5422C74.741 76.5084 74.6233 76.5717 74.589 76.6836C73.4404 80.3546 71.6334 84.0538 69.6009 87.2415C67.3559 90.762 64.8398 93.6583 62.6226 95.1637C63.7271 90.0256 64.5359 85.3724 65.0734 81.1111C65.7972 75.3939 66.0619 70.3859 66.0456 65.8819C66.0309 61.3892 65.7237 57.3966 65.2956 53.694C64.5391 47.1567 63.3824 41.5276 62.6863 35.6302C62.6667 35.4596 62.5132 35.3365 62.3416 35.3554C62.1717 35.3744 62.0491 35.528 62.0671 35.6985Z" fill="black"/>
<path fill-rule="evenodd" clip-rule="evenodd" d="M22.9145 62.5751C17.9411 54.5004 16.3823 36.4217 22.2642 21.9324C27.1495 9.89856 37.2108 0.342755 54.8729 1.17121C66.2952 1.69486 73.4973 6.94493 77.8613 14.0956C81.4329 19.9489 83.1093 27.0625 83.6583 33.8969C84.3151 42.0746 83.356 49.8575 82.0326 54.6301C80.5556 59.9958 79.6047 65.7826 79.0982 71.2374C78.492 77.7643 78.5214 83.815 79.0263 88.0977C79.0508 88.3208 79.2534 88.4813 79.4756 88.4559C79.6994 88.4306 79.8595 88.2289 79.8334 88.0057C79.3694 83.7655 79.3972 77.7806 80.0458 71.3289C80.5866 65.9354 81.5604 60.2153 83.057 54.9158C84.4164 50.0593 85.4261 42.1366 84.7709 33.8085C84.2187 26.8003 82.4852 19.509 78.8253 13.5069C74.2897 6.06794 66.805 0.589544 54.9252 0.0469349C36.6913 -0.766815 26.3032 9.10524 21.3101 21.547C15.371 36.3472 17.1274 54.7839 22.2479 62.9891C22.3606 63.1733 22.6041 63.2302 22.7871 63.1159C22.9717 63.0017 23.0289 62.7593 22.9145 62.5751Z" fill="black"/>
<path fill-rule="evenodd" clip-rule="evenodd" d="M63.6891 70.1938C62.6271 72.0759 61.382 73.9041 60.6582 76.7682C60.3919 77.8197 60.1975 79.01 60.1125 80.3904C60.0455 81.4769 60.0554 82.6818 60.1403 84.0303C60.24 85.4645 59.5635 86.7185 58.4721 87.7102C57.4559 88.6346 56.0785 89.3263 54.5737 89.735C52.8565 90.2017 50.9711 90.3041 49.231 89.8911C48.0612 89.6138 46.955 89.1181 46.0172 88.3468C45.8848 88.2323 45.6855 88.2463 45.5711 88.3782C45.4568 88.5101 45.4698 88.7101 45.6022 88.8245C47.3079 90.3859 49.6084 91.0921 51.9236 91.1158C52.9105 91.1259 53.8989 91.0099 54.8417 90.7804C56.5409 90.3669 58.0898 89.5862 59.2368 88.557C60.6043 87.3291 61.4 85.7387 61.2742 83.9512C61.1762 82.6533 61.1615 81.4933 61.204 80.4455C61.2562 79.1331 61.4 77.9985 61.6141 76.9909C62.2088 74.1931 63.3231 72.3703 64.2658 70.5028C64.3508 70.3433 64.292 70.1446 64.1318 70.0593C63.9734 69.9739 63.774 70.0342 63.6891 70.1938Z" fill="black"/>
<path fill-rule="evenodd" clip-rule="evenodd" d="M48.8943 79.1919C49.5266 79.2534 50.2079 79.1964 50.8892 79.0239C51.3091 78.9175 51.729 78.7701 52.1326 78.5791C52.43 78.4387 52.7159 78.2742 52.9904 78.0923C53.6456 77.6563 54.224 77.1318 54.6929 76.5778C54.7713 76.4988 54.7697 76.3717 54.6912 76.294C54.6128 76.2163 54.4854 76.2172 54.4086 76.2962C53.8955 76.7433 53.2779 77.1266 52.6211 77.4607C52.3532 77.5976 52.077 77.7222 51.7993 77.8415C51.4284 78.0016 51.0526 78.1464 50.6768 78.259C50.0837 78.4367 49.4955 78.5511 48.9335 78.5375C48.7538 78.5268 48.5985 78.6644 48.5871 78.845C48.5757 79.0256 48.7129 79.181 48.8943 79.1919Z" fill="black"/>
<path fill-rule="evenodd" clip-rule="evenodd" d="M60.9483 80.1174C61.5463 80.2603 62.1672 80.4984 62.7162 80.7423C63.672 81.1683 64.4055 81.6118 64.4055 81.6118C64.5673 81.7119 64.7797 81.6619 64.8794 81.5001C64.9807 81.3385 64.93 81.1259 64.7683 81.0257C64.7683 81.0257 64.0102 80.5455 63.0184 80.0795C62.4368 79.8056 61.7734 79.5382 61.1346 79.3718C60.9287 79.3205 60.7212 79.4459 60.6689 79.6517C60.6183 79.8574 60.7441 80.0661 60.9483 80.1174Z" fill="black"/>
<path fill-rule="evenodd" clip-rule="evenodd" d="M71.5135 85.0025C72.4807 85.5765 73.4317 86.2719 74.2535 86.9278C75.7256 88.1019 76.7843 89.1478 76.7843 89.1478C76.8955 89.261 77.0784 89.2625 77.1912 89.1509C77.3055 89.0393 77.3072 88.8567 77.1945 88.7433C77.1945 88.7433 76.1455 87.6478 74.6783 86.4101C73.8516 85.712 72.8909 84.97 71.9122 84.3521C71.7341 84.2421 71.4988 84.2986 71.3877 84.4781C71.2782 84.6575 71.3354 84.8925 71.5135 85.0025Z" fill="black"/>
<path fill-rule="evenodd" clip-rule="evenodd" d="M48.0698 129.867C49.2461 130.767 50.4699 131.541 51.7558 132.123C52.6495 132.528 53.5694 132.842 54.5072 133.059C55.6885 133.332 56.8992 133.445 58.1213 133.411C59.3026 133.378 60.4953 133.197 61.6946 132.864C61.8481 132.825 61.9429 132.669 61.9037 132.514C61.8661 132.36 61.7092 132.266 61.5557 132.304C60.394 132.56 59.247 132.661 58.118 132.64C56.9629 132.617 55.8306 132.446 54.7179 132.174C53.8324 131.957 52.9599 131.672 52.0989 131.323C50.8392 130.812 49.6007 130.178 48.4112 129.389C48.2789 129.294 48.0959 129.325 48.0028 129.457C47.908 129.589 47.9391 129.773 48.0698 129.867Z" fill="black"/>
<path fill-rule="evenodd" clip-rule="evenodd" d="M33.0275 40.5388C35.1279 40.5501 34.8398 46.7748 32.649 46.6807C30.5073 46.5886 30.8846 40.5273 33.0275 40.5388Z" fill="black"/>
<path fill-rule="evenodd" clip-rule="evenodd" d="M47.3041 42.6021C49.4039 42.5562 49.2852 48.7865 47.0927 48.7521C44.9493 48.7183 45.1617 42.6489 47.3041 42.6021Z" fill="black"/>
<path fill-rule="evenodd" clip-rule="evenodd" d="M30.5709 32.9963C31.1656 32.25 31.8878 31.7563 32.6573 31.444C33.0511 31.2843 33.4579 31.1871 33.8762 31.1317C34.2879 31.0769 34.7094 31.073 35.1359 31.1168C35.9577 31.2013 36.7943 31.46 37.5932 31.9307C38.3236 32.3604 39.0326 32.9348 39.6633 33.6857C39.8234 33.895 40.1224 33.9356 40.3316 33.7762C40.5407 33.6169 40.5815 33.3175 40.4214 33.1081C39.647 31.9827 38.7206 31.1287 37.7305 30.5477C36.9478 30.0896 36.1244 29.7993 35.3042 29.6959C34.4105 29.5836 33.52 29.6843 32.7014 29.9927C32.2145 30.1762 31.7538 30.4313 31.3306 30.7633C30.7571 31.2144 30.2506 31.787 29.8405 32.4952C29.7017 32.6969 29.7539 32.9729 29.9549 33.1112C30.1575 33.2495 30.4336 33.198 30.5709 32.9963Z" fill="black"/>
<path fill-rule="evenodd" clip-rule="evenodd" d="M45.4598 37.7451C45.981 38.2761 46.5218 38.7527 47.1181 39.1704C47.5168 39.4496 47.9367 39.6973 48.3746 39.9168C48.6981 40.0785 49.0347 40.2187 49.3778 40.346C49.7144 40.4704 50.0591 40.5782 50.4104 40.676C51.4054 40.9522 52.4511 41.1467 53.5556 41.3098C53.8121 41.364 54.0653 41.1991 54.1193 40.9417C54.1748 40.6843 54.0098 40.4312 53.7516 40.3769C52.8971 40.1388 52.09 39.8699 51.309 39.585C50.7715 39.3888 50.2552 39.1742 49.747 38.9565C49.4268 38.8189 49.1098 38.6791 48.7961 38.5369C48.4792 38.3933 48.1638 38.2511 47.8534 38.0984C47.2276 37.791 46.6165 37.4716 46.0316 37.067C45.8437 36.9094 45.5643 36.9335 45.4075 37.1206C45.249 37.3077 45.2735 37.5875 45.4598 37.7451Z" fill="black"/>
<path fill-rule="evenodd" clip-rule="evenodd" d="M38.0783 50.62C36.8594 50.435 36.0425 51.0486 35.7631 51.8713C35.6324 52.2507 35.6275 52.6869 35.7566 53.1187C35.8611 53.4736 36.0604 53.8296 36.3611 54.1493C36.8463 54.6659 37.5995 55.1038 38.6534 55.3041C38.8053 55.3404 38.9573 55.2468 38.9932 55.0953C39.0308 54.9438 38.936 54.7914 38.7857 54.7552C38.3266 54.6203 37.9475 54.4355 37.6289 54.2299C37.0359 53.8468 36.7009 53.3614 36.5686 52.8838C36.4934 52.6136 36.4853 52.3489 36.5473 52.1075C36.696 51.5435 37.2041 51.1241 38.0309 51.1484C38.1763 51.1615 38.3054 51.0538 38.3184 50.908C38.3331 50.7622 38.2253 50.6331 38.0783 50.62Z" fill="black"/>
<path fill-rule="evenodd" clip-rule="evenodd" d="M100.356 104.664C99.3158 104.338 98.5713 104.847 98.3534 105.561C98.2951 105.755 98.2795 105.97 98.3101 106.191C98.3482 106.461 98.4556 106.745 98.6482 107.015C98.945 107.428 99.4422 107.821 100.185 108.089C100.328 108.148 100.494 108.079 100.553 107.935C100.612 107.791 100.543 107.625 100.399 107.566C99.5177 107.166 99.1182 106.598 99.0474 106.09C98.9633 105.489 99.4341 105.01 100.223 105.177C100.365 105.214 100.51 105.128 100.546 104.987C100.583 104.845 100.497 104.7 100.356 104.664Z" fill="black"/>
<path fill-rule="evenodd" clip-rule="evenodd" d="M98.2284 100.824C98.0395 100.102 97.6584 99.4104 97.1424 98.8992C96.7521 98.5138 96.2829 98.2362 95.786 98.1144C95.3895 98.0173 94.9699 98.0204 94.5577 98.145C93.8782 98.3494 93.1903 98.876 92.6101 99.8794C92.5249 100.01 92.5609 100.185 92.691 100.27C92.821 100.356 92.9959 100.32 93.0811 100.19C93.46 99.6878 93.8518 99.3604 94.2341 99.1538C94.6951 98.9058 95.1456 98.8847 95.5694 98.9929C95.8407 99.0622 96.1014 99.18 96.3446 99.3435C96.5093 99.454 96.6695 99.5768 96.8182 99.7178C97.1949 100.076 97.5195 100.512 97.7269 100.995C97.7739 101.134 97.9242 101.208 98.0633 101.161C98.2013 101.113 98.2754 100.962 98.2284 100.824Z" fill="black"/>
<path fill-rule="evenodd" clip-rule="evenodd" d="M111.175 103.232C110.987 102.51 110.606 101.819 110.09 101.307C109.699 100.922 109.23 100.644 108.733 100.523C108.337 100.425 107.917 100.429 107.505 100.553C106.825 100.758 106.137 101.284 105.557 102.288C105.472 102.418 105.508 102.593 105.638 102.679C105.768 102.764 105.943 102.728 106.028 102.598C106.407 102.096 106.799 101.769 107.181 101.562C107.642 101.314 108.093 101.293 108.516 101.401C108.788 101.47 109.048 101.588 109.292 101.752C109.456 101.862 109.617 101.985 109.765 102.126C110.142 102.484 110.467 102.921 110.674 103.404C110.721 103.542 110.871 103.616 111.01 103.569C111.148 103.521 111.222 103.371 111.175 103.232Z" fill="black"/>
<path fill-rule="evenodd" clip-rule="evenodd" d="M113.748 98.7144C113.339 98.3083 112.963 97.9043 112.586 97.4918C112.378 97.2633 112.174 97.0307 111.964 96.7953C111.829 96.6428 111.692 96.4884 111.549 96.3337C111.344 96.1099 111.133 95.8848 110.917 95.6476C110.614 95.3156 110.297 94.9754 109.977 94.5923C109.861 94.4283 109.633 94.3891 109.469 94.505C109.305 94.621 109.267 94.8485 109.382 95.0124C109.701 95.5478 110.001 96.0363 110.33 96.478C110.569 96.8006 110.817 97.0989 111.078 97.3743C111.35 97.6616 111.638 97.9207 111.931 98.1715C112.368 98.5453 112.824 98.8852 113.306 99.2347C113.45 99.3569 113.666 99.3393 113.787 99.1956C113.91 99.0521 113.892 98.8363 113.748 98.7144Z" fill="black"/>
<path fill-rule="evenodd" clip-rule="evenodd" d="M98.05 89.9707C97.4183 89.8635 96.6031 89.9793 95.7106 90.3514C95.2742 90.5332 94.8179 90.7753 94.367 91.0929C93.9767 91.368 93.5892 91.6989 93.2182 92.0827C92.7306 92.5886 92.276 93.1872 91.8486 93.8615C91.73 94.0241 91.7668 94.2519 91.9303 94.3698C92.0926 94.4874 92.321 94.4509 92.4385 94.288C93.0073 93.5887 93.621 93.0197 94.2193 92.534C94.3939 92.3921 94.566 92.2576 94.736 92.1287C95.0079 91.9218 95.2742 91.7329 95.5356 91.5665C96.454 90.9834 97.3034 90.665 97.9626 90.7105C98.1674 90.7346 98.3525 90.5882 98.3761 90.3839C98.3997 90.1797 98.2537 89.9945 98.05 89.9707Z" fill="black"/>
<path fill-rule="evenodd" clip-rule="evenodd" d="M45.3854 57.6748C45.8413 57.8705 46.2073 58.0846 46.5357 58.2931C46.6549 58.3694 46.7677 58.4454 46.8755 58.5204C46.9882 58.5982 47.0961 58.6744 47.1958 58.7558C47.547 59.0387 47.8248 59.3636 48.0274 59.8109C48.0715 59.9374 48.2088 60.0046 48.3362 59.9608C48.462 59.917 48.529 59.7787 48.4849 59.6521C48.3803 59.217 48.2186 58.8465 47.9833 58.5196C47.8215 58.2949 47.6255 58.0913 47.3853 57.9206C47.1745 57.7712 46.9294 57.6467 46.6533 57.5467C46.3167 57.4241 45.9377 57.345 45.5047 57.2742C45.3936 57.2415 45.2776 57.3048 45.2449 57.4154C45.2122 57.5259 45.2759 57.6421 45.3854 57.6748Z" fill="black"/>
<path fill-rule="evenodd" clip-rule="evenodd" d="M110.095 112.403C109.649 112.962 108.097 113.986 106.462 114.852C105.64 115.286 104.797 115.679 104.055 115.946C103.415 116.176 102.861 116.318 102.478 116.276C101.706 116.203 100.859 115.733 99.9851 115.105C98.129 113.773 96.1896 111.703 94.7894 110.506C94.6897 110.417 94.5362 110.427 94.4479 110.527C94.3581 110.627 94.3679 110.781 94.4675 110.87C95.8367 112.13 97.7026 114.313 99.5423 115.705C100.528 116.449 101.514 116.959 102.4 117.054C102.719 117.084 103.132 117.03 103.606 116.892C104.3 116.691 105.137 116.322 105.985 115.869C107.929 114.828 109.925 113.358 110.429 112.655C110.499 112.563 110.479 112.432 110.388 112.363C110.296 112.293 110.166 112.311 110.095 112.403Z" fill="black"/>
<path fill-rule="evenodd" clip-rule="evenodd" d="M103.974 74.5201C104.41 77.1794 105.771 80.4476 107.994 83.6232C109.21 85.3609 110.681 87.0735 112.394 88.6361C113.996 90.0959 115.811 91.4224 117.809 92.5365C120.606 94.0962 123.771 95.2275 127.25 95.7025C127.382 95.7221 127.506 95.6304 127.526 95.4978C127.545 95.3653 127.454 95.2419 127.321 95.2223C123.93 94.6816 120.868 93.493 118.159 91.9214C116.228 90.802 114.483 89.4808 112.921 88.0576C111.247 86.5322 109.787 84.8871 108.565 83.2146C106.333 80.1598 104.885 77.029 104.384 74.4464C104.364 74.333 104.255 74.2573 104.142 74.2777C104.027 74.298 103.952 74.4065 103.974 74.5201Z" fill="black"/>
<path fill-rule="evenodd" clip-rule="evenodd" d="M124.561 95.0655C124.44 96.6296 124.378 98.1683 124.498 99.6543C124.585 100.702 124.757 101.724 125.052 102.703C125.353 103.696 125.783 104.645 126.355 105.537C127.137 106.757 128.194 107.867 129.599 108.847C129.707 108.926 129.859 108.903 129.939 108.795C130.018 108.687 129.995 108.535 129.887 108.455C128.134 107.106 127.016 105.547 126.299 103.857C126.069 103.315 125.879 102.76 125.719 102.193C125.56 101.628 125.433 101.051 125.33 100.463C125.029 98.7466 124.948 96.9385 124.979 95.0846C124.984 94.9696 124.894 94.8718 124.78 94.8664C124.665 94.8612 124.567 94.9503 124.561 95.0655Z" fill="black"/>
<path fill-rule="evenodd" clip-rule="evenodd" d="M97.8796 122.325L98.4123 126.71C98.5087 127.446 99.0985 128.117 100.018 128.648C101.357 129.421 103.405 129.919 105.448 129.979C107.183 130.03 108.911 129.764 110.206 129.112C111.318 128.551 112.114 127.704 112.38 126.553C112.607 125.551 112.802 124.728 112.995 124.023C113.142 123.485 113.285 123.016 113.444 122.591C115.387 122.217 117.85 121.362 120.161 120.26C122.636 119.08 124.932 117.617 126.235 116.186C126.325 116.088 126.32 115.935 126.222 115.843C126.124 115.752 125.971 115.758 125.879 115.856C124.585 117.22 122.319 118.583 119.894 119.686C117.54 120.757 115.035 121.582 113.109 121.895C112.981 121.916 112.874 122.003 112.825 122.123C112.622 122.619 112.441 123.17 112.258 123.819C112.058 124.532 111.856 125.365 111.62 126.378C111.408 127.304 110.746 127.964 109.856 128.423C108.663 129.035 107.067 129.287 105.462 129.267C103.533 129.243 101.59 128.829 100.311 128.129C99.5609 127.718 99.0364 127.224 98.9449 126.634L98.2946 122.272C98.2799 122.157 98.1754 122.076 98.061 122.091C97.9466 122.106 97.8649 122.211 97.8796 122.325Z" fill="black"/>
<path fill-rule="evenodd" clip-rule="evenodd" d="M83.8997 97.4952C84.0942 94.2054 85.0206 91.0383 86.491 88.1759C87.4812 86.2482 88.7229 84.4636 90.164 82.8711C91.6165 81.2673 93.2667 79.8568 95.0901 78.7159C97.8088 77.0147 100.892 75.8966 104.199 75.598C104.333 75.5874 104.432 75.4703 104.423 75.3368C104.411 75.2033 104.294 75.1034 104.161 75.1141C100.753 75.3445 97.5458 76.4104 94.7208 78.1128C92.8174 79.2591 91.0822 80.6889 89.5839 82.3458C88.0988 83.9885 86.8423 85.8531 85.8636 87.8614C84.4193 90.8231 83.5844 94.1034 83.4831 97.4767C83.4782 97.5919 83.5681 97.6895 83.6824 97.6946C83.7984 97.6997 83.8948 97.6104 83.8997 97.4952Z" fill="black"/>
<path fill-rule="evenodd" clip-rule="evenodd" d="M102.823 122.087C100.222 122.055 97.379 121.104 94.6864 119.456C93.1065 118.489 91.5837 117.278 90.1868 115.863C88.865 114.525 87.6543 113.009 86.6364 111.324C85.1904 108.928 84.1202 106.206 83.6595 103.223C83.6399 103.091 83.5173 102.998 83.385 103.017C83.2526 103.036 83.1595 103.159 83.1791 103.291C83.5762 106.365 84.5892 109.195 86.0286 111.684C87.0432 113.442 88.2654 115.034 89.6296 116.413C91.0723 117.874 92.6735 119.099 94.3254 120.059C97.1503 121.699 100.135 122.559 102.825 122.504C102.939 122.504 103.032 122.41 103.032 122.295C103.032 122.18 102.937 122.086 102.823 122.087Z" fill="black"/>
<path fill-rule="evenodd" clip-rule="evenodd" d="M83.3532 103.821C82.2248 104.179 81.3112 103.854 80.6982 103.094C80.156 102.421 79.8474 101.419 79.838 100.242C79.7823 98.9756 80.2165 98.0393 80.8377 97.4451C81.6711 96.649 82.8322 96.4479 83.5572 96.9645C83.6651 97.0451 83.8173 97.024 83.8972 96.9173C83.9787 96.8103 83.958 96.6578 83.8501 96.5772C82.9738 95.8729 81.4753 95.9856 80.3808 96.9437C79.6018 97.6252 79.0349 98.7384 79.0544 100.263C79.1179 101.626 79.5242 102.78 80.1963 103.523C80.9965 104.41 82.149 104.754 83.4951 104.214C83.6042 104.175 83.6596 104.055 83.6209 103.947C83.5822 103.838 83.4622 103.782 83.3532 103.821Z" fill="black"/>
<path fill-rule="evenodd" clip-rule="evenodd" d="M125.08 115.151C125.882 116.556 127.614 117.506 129.326 117.479C130.341 117.464 131.348 117.105 132.157 116.317C132.603 115.883 132.982 115.311 133.271 114.593C133.987 112.733 133.631 111.223 132.831 110.175C131.751 108.761 129.861 108.206 128.724 108.715C128.6 108.767 128.542 108.91 128.594 109.033C128.647 109.157 128.789 109.214 128.913 109.162C129.885 108.776 131.429 109.353 132.295 110.571C132.938 111.477 133.192 112.753 132.548 114.304C131.89 116.002 130.615 116.731 129.301 116.805C127.785 116.89 126.214 116.14 125.437 114.934C125.378 114.836 125.25 114.804 125.151 114.864C125.052 114.924 125.021 115.052 125.08 115.151Z" fill="black"/>
<path fill-rule="evenodd" clip-rule="evenodd" d="M81.2485 99.0754C81.6843 98.7003 82.0473 98.6397 82.352 98.8165C82.5351 98.9217 82.688 99.109 82.833 99.3563C83.013 99.6653 83.1853 100.051 83.2977 100.517C83.3121 100.6 83.3908 100.656 83.4747 100.642C83.557 100.628 83.6138 100.549 83.5994 100.466C83.549 99.9378 83.4453 99.4762 83.2683 99.1214C83.0908 98.7617 82.846 98.5052 82.5802 98.3803C82.1303 98.1706 81.5905 98.2828 81.0762 98.9054C81.029 98.9532 81.0296 99.0302 81.0777 99.0771C81.1258 99.124 81.203 99.123 81.2485 99.0754Z" fill="black"/>
<path fill-rule="evenodd" clip-rule="evenodd" d="M131.52 112.446C131.363 111.861 130.961 111.366 130.428 111.033C130.086 110.82 129.691 110.675 129.278 110.623C128.975 110.585 128.66 110.599 128.355 110.668C127.714 110.813 127.1 111.191 126.637 111.846C126.585 111.913 126.597 112.009 126.663 112.06C126.73 112.112 126.825 112.1 126.877 112.034C127.328 111.507 127.886 111.243 128.448 111.152C128.706 111.111 128.964 111.11 129.217 111.137C129.658 111.183 130.081 111.32 130.437 111.548C130.817 111.79 131.127 112.116 131.291 112.523C131.311 112.586 131.38 112.621 131.443 112.599C131.508 112.578 131.542 112.51 131.52 112.446Z" fill="black"/>
<path fill-rule="evenodd" clip-rule="evenodd" d="M35.2599 60.7906C36.1569 60.9624 37.0702 61.1407 37.9819 61.276C38.6012 61.368 39.2188 61.4407 39.8282 61.4855C40.2497 61.5164 40.6664 61.5339 41.0765 61.5313C41.7267 61.527 42.359 61.4775 42.9619 61.376C44.8196 61.063 46.3996 60.27 47.4289 58.6849C47.5172 58.5564 47.4845 58.3806 47.357 58.2925C47.228 58.2045 47.0515 58.2374 46.9649 58.3658C45.9731 59.7397 44.5141 60.3464 42.841 60.5695C42.2724 60.6451 41.681 60.6752 41.0699 60.6798C40.6778 60.6827 40.2791 60.6772 39.8739 60.6616C39.2792 60.6389 38.6747 60.5974 38.0669 60.5451C37.1568 60.4668 36.2386 60.3697 35.34 60.2661C35.1962 60.2439 35.0606 60.3434 35.0377 60.4881C35.0148 60.6329 35.1145 60.7684 35.2599 60.7906Z" fill="black"/>
<path fill-rule="evenodd" clip-rule="evenodd" d="M93.01 110.432C94.0818 110.55 95.2402 110.703 96.4476 110.867C98.6615 111.168 101.032 111.536 103.313 111.866C105.841 112.232 108.256 112.548 110.201 112.785C110.355 112.806 110.497 112.697 110.517 112.542C110.538 112.388 110.429 112.246 110.275 112.226C108.514 111.975 106.372 111.621 104.101 111.277C102.753 111.073 101.359 110.871 99.9752 110.685C97.5391 110.358 95.134 110.084 93.0623 109.904C92.9169 109.889 92.7862 109.996 92.7731 110.142C92.7584 110.288 92.8646 110.417 93.01 110.432Z" fill="black"/>
<path fill-rule="evenodd" clip-rule="evenodd" d="M82.0439 87.6947C79.5049 87.6015 76.7666 89.5214 75.0134 92.4255C73.5822 94.7987 72.8159 97.8218 73.3273 100.9C73.6818 102.991 74.2226 105.209 74.6997 107.384C75.1915 109.631 75.6065 111.831 75.6376 113.799C75.667 115.751 75.3271 117.47 74.2063 118.734C74.0543 118.904 74.0282 119.151 74.1409 119.348C74.2537 119.545 74.4792 119.648 74.703 119.604C76.1833 119.292 77.5051 118.915 78.688 118.443C79.9166 117.953 80.995 117.364 81.9508 116.651C82.3985 117.424 82.8151 118.658 83.0128 120.079C83.1925 121.364 83.1942 122.801 82.869 124.201C82.838 124.322 82.8837 124.45 82.985 124.525C83.0863 124.599 83.2219 124.606 83.3298 124.541C84.266 123.954 85.0878 123.305 85.7855 122.646C86.5713 121.904 87.1987 121.153 87.6579 120.471C87.8556 120.656 88.0467 120.882 88.2199 121.115C88.728 121.8 89.0908 122.543 89.0908 122.543C89.1251 122.619 89.2166 122.652 89.2934 122.617C89.3685 122.581 89.4028 122.491 89.3669 122.414C89.3669 122.414 89.0205 121.63 88.5189 120.901C88.2869 120.563 88.0206 120.239 87.7428 120.003C87.6987 119.967 87.6399 119.951 87.5827 119.959C87.5255 119.968 87.4732 120.001 87.4422 120.049C86.9684 120.739 86.2936 121.51 85.4374 122.265C84.9064 122.734 84.3035 123.196 83.6353 123.627C83.8722 122.385 83.8869 121.131 83.7627 119.986C83.5601 118.122 82.9785 116.548 82.4066 115.753C82.3364 115.658 82.2302 115.595 82.1125 115.58C81.9949 115.564 81.8756 115.597 81.7825 115.67C80.7875 116.436 79.6487 117.042 78.3367 117.532C77.5557 117.824 76.7126 118.075 75.8026 118.291C76.4953 117.017 76.76 115.482 76.7355 113.782C76.7045 111.747 76.2617 109.471 75.7274 107.152C75.2307 104.997 74.6491 102.805 74.2667 100.733C73.7308 97.8799 74.3991 95.0566 75.6817 92.8182C77.2355 90.1032 79.6863 88.2309 82.0292 88.259C82.1861 88.2628 82.3151 88.1395 82.3184 87.9838C82.3233 87.828 82.1991 87.6986 82.0439 87.6947Z" fill="black"/>
<path fill-rule="evenodd" clip-rule="evenodd" d="M82.6638 91.9199C82.623 88.5612 84.0689 84.5394 86.755 80.8297C88.9395 77.8125 91.9556 75.0129 95.6857 72.9398C101.703 69.5951 109.596 68.1557 118.945 70.9307C128.369 73.688 133.614 79.127 136.181 85.1268C137.441 88.0704 138.068 91.1455 138.212 94.1194C138.47 99.4254 137.222 104.399 135.361 107.64C135.3 107.74 135.333 107.87 135.433 107.93C135.534 107.99 135.663 107.957 135.724 107.856C137.74 104.595 139.205 99.536 139.086 94.0887C139.019 90.9978 138.447 87.7808 137.178 84.7077C134.58 78.4154 129.097 72.7205 119.275 69.8069C109.567 66.9682 101.363 68.4671 95.1596 72.0059C91.3233 74.1952 88.2549 77.1663 86.0623 80.3393C83.3664 84.2416 82.0005 88.4573 82.1328 91.9333C82.1377 92.0795 82.2586 92.1954 82.4057 92.1918C82.5511 92.1881 82.6671 92.0663 82.6638 91.9199Z" fill="black"/>
<path fill-rule="evenodd" clip-rule="evenodd" d="M128.044 90.8657C128.387 92.5525 128.583 94.031 128.663 95.2866C128.737 96.4649 128.709 97.445 128.578 98.2161C128.43 99.1107 128.804 99.6754 129.243 99.8885C129.823 100.169 130.591 99.9106 130.719 98.9339C130.83 98.0874 130.941 96.9833 130.887 95.8528C130.856 95.1605 130.761 94.4585 130.572 93.799C130.539 93.6866 130.423 93.6206 130.31 93.6519C130.198 93.6833 130.132 93.8002 130.163 93.9128C130.331 94.5428 130.407 95.2116 130.425 95.8701C130.454 96.9695 130.327 98.0405 130.202 98.8613C130.129 99.3564 129.779 99.5429 129.487 99.3956C129.211 99.2567 129.037 98.8767 129.139 98.3127C129.279 97.5066 129.323 96.481 129.242 95.2489C129.155 93.9713 128.931 92.4696 128.564 90.7568C128.533 90.6135 128.392 90.5216 128.25 90.5515C128.106 90.5816 128.015 90.7223 128.044 90.8657Z" fill="black"/>
<path fill-rule="evenodd" clip-rule="evenodd" d="M136.999 107.935C138.264 109.798 139.054 111.425 139.512 112.871C139.929 114.189 140.051 115.351 139.978 116.413C139.898 117.595 139.566 118.645 139.128 119.639C138.656 120.708 138.066 121.712 137.496 122.716C136.295 124.831 135.213 126.947 135.54 129.611C135.555 129.761 135.689 129.871 135.839 129.857C135.989 129.843 136.099 129.709 136.084 129.558C135.986 128.074 136.355 126.802 136.917 125.607C137.504 124.357 138.308 123.196 139.041 121.981C139.541 121.151 140.012 120.299 140.363 119.385C140.71 118.482 140.942 117.519 140.991 116.471C141.044 115.3 140.87 114.017 140.348 112.586C139.808 111.104 138.889 109.459 137.475 107.593C137.38 107.461 137.197 107.431 137.066 107.526C136.934 107.62 136.904 107.804 136.999 107.935Z" fill="black"/>
<path fill-rule="evenodd" clip-rule="evenodd" d="M130.79 132.774C132.599 130.548 132.284 128.554 131.107 127.421C129.877 126.236 127.612 125.962 125.537 127.297C124.418 128.039 123.546 128.691 122.838 129.435C122.067 130.246 121.485 131.162 120.966 132.385C120.234 134.145 120.628 135.66 121.61 136.57C122.57 137.459 124.111 137.786 125.72 137.128C125.861 137.075 125.933 136.917 125.879 136.775C125.825 136.634 125.668 136.563 125.526 136.616C124.167 137.089 122.9 136.798 122.141 136.023C121.417 135.283 121.201 134.1 121.827 132.766C122.327 131.678 122.881 130.877 123.585 130.155C124.256 129.468 125.062 128.849 126.106 128.151C127.719 127.038 129.514 127.146 130.531 128.047C131.527 128.93 131.71 130.529 130.326 132.415C130.227 132.543 130.251 132.727 130.379 132.826C130.506 132.926 130.691 132.902 130.79 132.774Z" fill="black"/>
<path fill-rule="evenodd" clip-rule="evenodd" d="M128.936 142.52C127.214 143.147 126.031 142.853 125.335 142.133C124.459 141.224 124.386 139.671 125.01 138.728C125.737 137.612 126.933 136.344 128.178 135.251C128.799 134.706 129.431 134.204 130.031 133.791C130.781 133.273 131.464 132.888 131.998 132.769C133.534 132.416 135.336 133.188 136.231 134.57C137.009 135.77 137.092 137.424 135.789 139.247C135.697 139.367 135.722 139.539 135.842 139.63C135.963 139.721 136.135 139.696 136.225 139.576C137.842 137.526 137.761 135.581 136.913 134.148C135.885 132.412 133.686 131.433 131.794 131.799C130.887 131.984 129.559 132.755 128.242 133.827C126.672 135.107 125.11 136.802 124.222 138.227C123.45 139.494 123.592 141.536 124.789 142.681C125.663 143.518 127.103 143.916 129.148 143.067C129.3 143.009 129.374 142.838 129.317 142.687C129.258 142.536 129.086 142.461 128.936 142.52Z" fill="black"/>
<path fill-rule="evenodd" clip-rule="evenodd" d="M135.259 139.315C134.112 139.575 133.192 139.77 132.238 140.208C131.433 140.577 130.608 141.121 129.609 142.017C128.086 143.397 127.982 144.958 128.577 146.149C129.24 147.478 130.83 148.355 132.459 148.105C133.316 147.961 134.078 147.811 134.883 147.533C135.576 147.295 136.302 146.963 137.148 146.47C138.762 145.516 139.135 143.703 138.716 142.109C138.246 140.314 136.795 138.868 135.254 139.295L135.259 139.315ZM135.398 139.865C136.628 139.583 137.636 140.862 137.95 142.293C138.22 143.536 137.95 144.948 136.677 145.637C135.883 146.073 135.205 146.36 134.561 146.569C133.805 146.814 133.094 146.948 132.292 147.072C131.112 147.272 129.959 146.649 129.452 145.698C128.99 144.828 129.095 143.693 130.184 142.631C131.073 141.757 131.815 141.217 132.545 140.838C133.437 140.376 134.308 140.149 135.393 139.845L135.398 139.865Z" fill="black"/>
<path fill-rule="evenodd" clip-rule="evenodd" d="M112.865 124.068C113.772 124.252 115.279 124.778 116.939 125.425C117.808 125.763 118.718 126.135 119.603 126.519C121.247 127.231 122.811 127.981 123.827 128.715C123.948 128.806 124.119 128.782 124.211 128.662C124.302 128.542 124.28 128.37 124.159 128.278C123.262 127.56 121.937 126.778 120.476 126.064C119.933 125.798 119.373 125.54 118.809 125.305C117.832 124.897 116.847 124.544 115.945 124.254C114.734 123.863 113.672 123.598 112.97 123.49C112.81 123.462 112.658 123.568 112.628 123.727C112.601 123.887 112.707 124.039 112.865 124.068Z" fill="black"/>
<path fill-rule="evenodd" clip-rule="evenodd" d="M73.6332 154.355C73.679 150.994 74.0254 146.692 75.0743 142.735C75.7638 140.127 76.7539 137.667 78.2146 135.747C78.9008 134.828 79.6344 133.983 80.3925 133.198C82.3254 131.193 84.4429 129.604 86.5342 128.346C90.7038 125.837 94.7525 124.635 96.9239 124.077C97.071 124.04 97.1609 123.892 97.1249 123.745C97.089 123.599 96.9403 123.509 96.7932 123.545C94.5745 124.068 90.4212 125.192 86.1372 127.675C83.9674 128.933 81.7617 130.538 79.7635 132.587C78.976 133.394 78.2244 134.274 77.5137 135.224C76.0285 137.25 75.0106 139.821 74.3603 142.555C73.4029 146.585 73.2231 150.955 73.2901 154.356C73.2901 154.451 73.3669 154.528 73.4617 154.527C73.5564 154.527 73.6332 154.45 73.6332 154.355Z" fill="black"/>
<path fill-rule="evenodd" clip-rule="evenodd" d="M81.4691 143.186C81.8988 143.564 82.5736 143.976 83.0605 144.457C83.3529 144.745 83.5784 145.054 83.5637 145.42C83.5571 145.639 83.5555 146.171 83.5767 146.9C83.6029 147.806 83.6633 149.019 83.7287 150.32C83.8692 153.064 84.0653 156.192 84.1927 157.64C84.1976 157.723 84.2711 157.787 84.3545 157.781C84.4394 157.776 84.5031 157.702 84.4966 157.619C84.4541 156.806 84.4133 155.466 84.3741 153.961C84.3218 151.972 84.2842 149.699 84.245 147.981C84.2172 146.711 84.1845 145.748 84.1927 145.433C84.1911 145.015 84.013 144.639 83.7156 144.307C83.1895 143.723 82.2909 143.274 81.7452 142.85C81.6537 142.774 81.5165 142.787 81.4397 142.88C81.3629 142.972 81.3759 143.109 81.4691 143.186Z" fill="black"/>
<path fill-rule="evenodd" clip-rule="evenodd" d="M123.852 146.886C123.331 147.227 122.893 147.508 122.601 147.892C122.38 148.182 122.243 148.529 122.204 148.99C122.187 149.248 122.178 149.639 122.19 150.12C122.202 150.597 122.233 151.166 122.272 151.784C122.407 153.953 122.649 156.719 122.744 158.219C122.748 158.302 122.82 158.368 122.904 158.365C122.987 158.36 123.053 158.29 123.049 158.205C123.022 156.704 122.924 153.93 122.871 151.757C122.856 151.145 122.847 150.579 122.837 150.105C122.828 149.645 122.82 149.272 122.83 149.024C122.839 148.693 122.921 148.438 123.065 148.219C123.299 147.859 123.67 147.582 124.107 147.238C124.204 147.168 124.226 147.032 124.156 146.935C124.086 146.838 123.949 146.816 123.852 146.886Z" fill="black"/>
<path fill-rule="evenodd" clip-rule="evenodd" d="M134.579 147.24C134.78 148.05 134.959 149.475 135.11 151.023C135.315 153.127 135.464 155.457 135.539 156.8C135.543 156.898 135.627 156.976 135.728 156.973C135.827 156.968 135.904 156.883 135.901 156.785C135.863 155.436 135.781 153.096 135.635 150.98C135.527 149.392 135.382 147.931 135.201 147.095C135.16 146.924 134.988 146.817 134.817 146.857C134.646 146.897 134.538 147.069 134.579 147.24Z" fill="black"/>
</svg>
