<svg width="142" height="134" viewBox="0 0 142 134" fill="none" xmlns="http://www.w3.org/2000/svg">
<g clip-path="url(#clip0_747_9312)">
<path fill-rule="evenodd" clip-rule="evenodd" d="M71.8212 19.7361C59.4867 7.897 46.4967 3.29414 30.0286 13.0612C-11.5933 37.7467 16.6409 103.515 75.9473 132.256C122.721 111.073 167.691 44.6568 124.651 11.7039C101.705 -5.86361 80.1348 10.0431 71.8212 19.7361Z" fill="white"/>
<path fill-rule="evenodd" clip-rule="evenodd" d="M71.8212 19.7361C59.4867 7.897 46.4967 3.29414 30.0286 13.0612C-11.5933 37.7467 16.6409 103.515 75.9473 132.256C122.721 111.073 167.691 44.6568 124.651 11.7039C101.705 -5.86361 80.1348 10.0431 71.8212 19.7361Z" fill="url(#paint0_linear_747_9312)"/>
<path fill-rule="evenodd" clip-rule="evenodd" d="M68.7173 18.554C68.181 19.3557 67.7448 20.1438 67.418 20.9041C66.429 23.2075 66.4424 25.0465 66.9511 26.3166C67.5377 27.7803 68.7732 28.5544 70.1086 28.5484C71.2732 28.5432 72.8299 27.5176 73.2189 25.5803C73.504 24.1577 73.1599 22.1988 71.3653 19.8373C71.0126 19.3733 70.652 18.9171 70.2842 18.4681C74.1536 13.2357 82.3443 7.6312 92.1406 5.76076C100.716 4.12347 110.532 5.36406 119.804 12.2502C137.26 25.2136 140.219 45.5278 132.319 66.6275C123.534 90.0956 101.361 114.527 70.6291 131.089C70.3827 131.222 70.2889 131.531 70.4212 131.779C70.5527 132.027 70.8598 132.122 71.1063 131.988C102.12 115.325 124.486 90.6855 133.373 67.0278C141.495 45.4055 138.393 24.5961 120.51 11.287C110.931 4.15787 100.782 2.87035 91.9146 4.55536C81.9309 6.45252 73.5874 12.1395 69.4716 17.504C63.2844 10.3546 55.2378 5.4282 46.5159 3.84774C37.3422 2.1854 27.4165 4.21566 18.1109 11.2676C0.0573565 24.9639 -2.51435 46.5103 5.74558 68.408C15.2422 93.5838 39.0873 119.219 69.9102 133.685C70.1409 133.794 70.4149 133.693 70.5228 133.461C70.6307 133.229 70.5315 132.952 70.3008 132.844C39.779 118.427 16.1882 92.9749 6.82277 67.9974C-1.18999 46.6267 1.23399 25.5994 18.8596 12.2697C27.8507 5.4626 37.4325 3.48862 46.2928 5.09523C54.8322 6.64366 62.6967 11.5099 68.7173 18.554ZM69.5433 19.5483C69.1456 20.1772 68.8157 20.797 68.5574 21.3996C67.9102 22.9088 67.7424 24.1739 67.9133 25.1613C68.1488 26.5203 69.0582 27.2989 70.1023 27.2935C70.9937 27.2889 72.1134 26.2537 72.0567 24.5341C72.0213 23.459 71.5402 22.1415 70.3701 20.6039C70.0992 20.2471 69.8236 19.895 69.5433 19.5483Z" fill="black"/>
<path fill-rule="evenodd" clip-rule="evenodd" d="M67.8927 57.5803C67.1549 56.5489 66.0258 55.7742 64.7612 55.4664C63.2584 55.1005 61.5691 55.3775 60.1441 56.6583C57.8388 58.7273 57.675 61.6799 59.2639 64.7295C60.7869 67.6522 63.9501 70.6798 68.2841 72.9772C68.4211 73.0509 68.5857 73.0493 68.7219 72.974C72.8306 70.7028 76.148 67.4437 77.6386 64.2423C79.0355 61.2415 78.8599 58.2795 76.3772 56.0749C74.9212 54.7776 73.018 54.6008 71.2771 55.1691C69.9589 55.5992 68.7408 56.4645 67.8927 57.5803ZM67.277 59.0481C67.3707 59.2787 67.5888 59.433 67.836 59.4428C68.0825 59.4526 68.3124 59.3161 68.4235 59.0936C69.0565 57.7944 70.2841 56.7572 71.6471 56.2844C73.0054 55.8131 74.5063 55.8993 75.6669 56.8973C77.8016 58.7404 77.9244 61.2728 76.7606 63.8328C75.3937 66.838 72.3023 69.8688 68.4967 72.041C64.5013 69.8331 61.57 67.0029 60.1756 64.2544C58.8765 61.6936 58.9439 59.2152 60.8909 57.5128C62.007 56.5381 63.3141 56.3322 64.4722 56.6323C65.7297 56.9584 66.814 57.8763 67.277 59.0481Z" fill="black"/>
</g>
<defs>
<linearGradient id="paint0_linear_747_9312" x1="58.6242" y1="44.4994" x2="97.7275" y2="114.904" gradientUnits="userSpaceOnUse">
<stop stop-color="#FFCFC8"/>
<stop offset="1" stop-color="#FFCFC8" stop-opacity="0.21"/>
</linearGradient>
<clipPath id="clip0_747_9312">
<rect width="142" height="134" fill="white"/>
</clipPath>
</defs>
</svg>
