<svg width="257" height="252" viewBox="0 0 257 252" fill="none" xmlns="http://www.w3.org/2000/svg">
<path opacity="0.15" d="M186.428 9.42933C216.692 23.8035 227.828 59.2525 238.374 91.1087C248.628 122.081 257.47 155.109 244.578 185.074C231.293 215.955 202.961 238.187 170.871 248.014C140.064 257.448 108.212 248.818 78.7043 235.87C47.9072 222.357 14.2729 206.427 3.42087 174.537C-7.36307 142.848 9.34115 109.673 25.8547 80.5671C40.9163 54.0203 62.7116 33.2603 90.5816 20.9132C121.175 7.35959 156.202 -4.92714 186.428 9.42933Z" fill="#2469BE"/>
<path d="M191.358 1.39941L43.7002 56.6837L51.398 94.473L61.895 133.662L78.6903 183.348L98.2847 226.736L112.281 246.33L150.77 228.835L220.05 195.944L255.74 180.549L246.643 165.153L227.748 126.664L207.454 71.3796L197.657 33.5903L191.358 1.39941Z" fill="white"/>
<path d="M118.578 173.55L110.181 183.348L114.379 188.246L139.572 171.451L189.958 133.662L191.358 134.361L214.451 116.866L205.354 104.97L133.274 160.954H132.574L127.676 165.153L118.578 173.55Z" fill="#A7C8ED"/>
<path fill-rule="evenodd" clip-rule="evenodd" d="M256.264 181.397C256.598 181.252 256.849 180.966 256.951 180.618C257.053 180.269 256.995 179.893 256.792 179.592C242.897 158.909 228.046 126.973 216.055 93.4312C204.548 61.2434 195.676 27.577 192.819 0.949926C192.784 0.61892 192.595 0.323954 192.311 0.152153C192.025 -0.0192985 191.677 -0.0476401 191.368 0.0762247C180.884 4.28133 157.922 13.1107 132.403 22.8107C100.265 35.0264 64.0716 48.6246 43.649 56.1625C43.2035 56.3266 42.9369 56.7832 43.0129 57.2518C48.5955 91.7698 59.8644 135.47 74.3192 174.418C84.9061 202.945 97.2058 228.924 110.241 246.903C110.538 247.312 111.077 247.462 111.542 247.267C117.851 244.626 128.18 239.994 140.623 234.317C177.033 217.704 231.561 192.136 256.264 181.397ZM253.949 179.737C228.672 190.842 175.449 215.907 139.696 232.292C127.8 237.744 117.841 242.233 111.496 244.925C98.7181 227.12 86.6633 201.64 76.2608 173.696C61.9271 135.193 50.7359 92.0151 45.1028 57.7406C65.6644 50.1596 101.37 36.7553 133.127 24.719C157.664 15.4197 179.844 6.93778 190.858 2.56612C193.842 29.1176 202.596 62.3722 213.911 94.1957C225.687 127.313 240.24 158.878 253.949 179.737Z" fill="black"/>
<path fill-rule="evenodd" clip-rule="evenodd" d="M156.323 46.1438C156.254 46.0227 156.179 45.8817 156.131 45.7698C155.964 45.3828 155.807 44.9979 155.65 44.7617C155.511 44.5521 155.356 44.4094 155.21 44.3275C154.817 44.1074 154.361 44.0511 153.906 44.6077C153.065 45.6354 152.489 47.0906 151.652 48.2429C151.433 48.5441 151.196 48.8234 150.922 49.0574C150.873 48.9003 150.822 48.7131 150.793 48.5473C150.628 47.6036 150.552 46.4111 150.402 45.7922C150.222 45.0504 149.724 44.8257 149.428 44.8551C148.639 44.9328 147.929 45.5003 147.331 46.4188C146.534 47.6403 145.872 49.5053 145.097 51.0165C144.572 52.0424 144.043 52.9266 143.277 53.1138C143.224 53.1268 143.173 53.0893 143.115 53.0578C142.991 52.9907 142.866 52.8927 142.742 52.7807C142.276 52.358 141.838 51.7604 141.562 51.4637C141.161 51.0333 140.729 51.0897 140.58 51.1834C140.309 51.3538 140.092 51.5645 139.914 51.8031C139.61 52.2111 139.423 52.7041 139.217 53.1695C139.064 53.5138 138.912 53.8486 138.597 54.0467C138.322 54.2192 138.01 54.0666 137.72 53.962C137.3 53.8115 136.903 53.6744 136.594 53.7062C136.403 53.7258 136.231 53.7905 136.081 53.913C135.412 54.4575 134.858 55.5054 134.211 56.2566C134.032 56.4638 133.849 56.6478 133.645 56.7689C133.539 56.6534 133.378 56.4781 133.273 56.3669C133.107 56.1919 132.938 56.068 132.807 56.0219C132.539 55.926 132.313 55.9816 132.135 56.1975C131.64 56.7955 131.442 57.7371 131.03 58.4533C130.896 58.6871 130.736 58.8935 130.502 59.0219C130.443 59.0537 130.399 59.0062 130.348 58.9607C130.262 58.8823 130.179 58.777 130.096 58.6559C129.547 57.8567 129.004 56.5439 128.304 56.1219C127.873 55.8623 127.39 55.8231 126.832 56.2223C125.343 57.2839 124.994 59.4803 123.935 60.8918C123.7 61.2049 123.424 61.4726 123.073 61.6612C122.751 61.8344 122.551 61.6084 122.352 61.3722C121.991 60.9418 121.647 60.4107 121.227 60.1969C120.799 59.9785 120.274 59.9659 119.601 60.5912C119.324 60.8491 119.08 61.1329 118.856 61.4327C118.04 62.5265 117.528 63.8582 116.577 64.8646C116.414 65.036 115.826 65.7645 115.694 65.9279C115.65 65.8982 115.621 65.8282 115.576 65.7676C115.466 65.6186 115.37 65.4279 115.284 65.2295C115.043 64.676 114.874 64.0622 114.776 63.8635C114.456 63.2144 113.933 61.5695 113.347 60.3631C113 59.6461 112.607 59.0807 112.241 58.8494C111.975 58.6811 111.572 58.7094 111.167 59.0524C110.576 59.5534 109.822 60.8151 109.774 60.8869C108.871 62.2315 107.79 64.7099 106.481 66.5287C105.965 67.2446 105.419 67.8559 104.826 68.2163C104.747 68.0602 104.612 67.8009 104.543 67.7054C104.356 67.4468 104.117 67.3744 103.902 67.3919C103.584 67.4181 103.287 67.5728 103.018 67.831C102.731 68.1074 102.47 68.5245 102.221 68.9314C102.064 69.1876 101.923 69.4448 101.764 69.6068C101.698 69.5756 101.604 69.5284 101.541 69.4888C101.206 69.2824 100.863 69.0536 100.64 68.9958C100.287 68.9042 100.023 69.0154 99.8384 69.2334C99.5116 69.6176 99.1123 70.4049 98.6365 70.985C98.4416 71.2223 98.2684 71.4637 98.0262 71.443C97.4499 71.3944 97.07 70.8566 96.683 70.315C96.1529 69.5735 95.663 68.7575 95.1088 68.3072C94.5916 67.8866 94.0195 67.7232 93.3558 67.9279C92.4404 68.2103 91.7221 68.725 91.1188 69.3692C89.8921 70.6803 89.2028 72.5956 88.1482 73.9627C87.9739 74.1887 87.7213 74.6618 87.4375 75.1166C87.3242 75.2979 87.0932 75.4473 86.9711 75.5824C86.871 75.4295 86.7874 75.2398 86.7059 75.0337C86.4067 74.2765 86.1796 73.3213 85.8801 72.6124C85.6432 72.0519 85.3381 71.6243 85.0015 71.3864C83.8353 70.5623 82.6666 70.8223 81.6526 71.6127C80.4983 72.5127 79.5886 74.202 79.2852 75.1656C79.1977 75.4428 78.9353 76.2195 78.8954 76.7216C78.8604 77.1601 78.9902 77.4981 79.141 77.6958C79.4017 78.038 79.9112 78.4019 80.7758 77.8581C81.2093 77.5789 81.3349 77.0005 81.056 76.5666C81.0323 76.5299 81.0064 76.4953 80.9784 76.4627C81.0155 76.1737 80.9959 75.8175 81.0315 75.6964C81.2135 75.0757 81.7104 74.0564 82.3787 73.3301C82.8563 72.8111 83.4179 72.3678 84.0337 72.7849C84.2737 72.9473 84.3892 73.3661 84.5488 73.8122C84.8563 74.673 85.1383 75.6726 85.5285 76.3221C85.898 76.9365 86.377 77.2955 86.9288 77.3501C87.2913 77.3858 87.6961 77.2489 88.0611 76.8927C88.5793 76.3864 89.0894 75.2836 89.3784 74.8948C90.2532 73.7195 90.8515 72.1477 91.7539 70.8905C92.2679 70.1739 92.8869 69.5637 93.7826 69.2698C94.1409 69.1526 94.3698 69.4675 94.6371 69.7922C95.2263 70.5074 95.7841 71.5064 96.4832 72.104C96.9114 72.4696 97.3873 72.7076 97.9276 72.744C98.4405 72.7783 98.9311 72.5403 99.3573 72.1029C99.8055 71.6428 100.189 70.9371 100.515 70.4262C100.723 70.5441 101.064 70.6428 101.273 70.7331C101.689 70.9119 102.071 70.8937 102.351 70.6957C102.463 70.6162 102.575 70.5137 102.681 70.3902C102.995 70.0259 103.285 69.4339 103.607 68.9678C103.667 68.8811 103.72 68.7915 103.776 68.7191C103.892 68.9199 104.051 69.1596 104.189 69.2614C104.461 69.4602 104.793 69.5487 105.223 69.3128C106 68.8863 106.726 68.1123 107.385 67.17C108.677 65.3226 109.739 62.819 110.631 61.4551C110.67 61.3956 111.607 60.158 111.864 59.8183C112.071 60.0268 112.267 60.3851 112.47 60.7938C113.068 61.9957 113.603 63.6388 113.929 64.2855C114.063 64.5524 114.332 65.5619 114.731 66.1774C115.033 66.6441 115.427 66.8996 115.831 66.8618C115.977 66.8481 116.186 66.7516 116.389 66.5507C116.692 66.2498 117.069 65.67 117.239 65.4874C118.209 64.451 118.738 63.0885 119.57 61.9632C119.761 61.7056 119.969 61.4614 120.206 61.2396C120.476 60.9876 120.655 60.897 120.828 60.9842C121.246 61.1958 121.532 61.8264 121.914 62.1878C122.342 62.593 122.832 62.7851 123.488 62.4306C123.952 62.1801 124.321 61.8299 124.632 61.4156C125.641 60.0741 125.929 57.9544 127.349 56.9501C127.75 56.6674 128.017 56.9862 128.279 57.3651C128.881 58.2353 129.407 59.5282 130.004 59.8487C130.298 60.0069 130.609 60.0247 130.946 59.8459C131.337 59.6377 131.622 59.3148 131.849 58.9306C132.169 58.3875 132.344 57.6958 132.651 57.1587C132.839 57.3669 133.113 57.6573 133.244 57.7353C133.44 57.8525 133.624 57.8508 133.769 57.8011C134.21 57.6506 134.606 57.3287 134.969 56.9173C135.575 56.229 136.084 55.2559 136.704 54.7461C136.727 54.7486 136.777 54.7545 136.809 54.7619C136.897 54.7832 136.992 54.8171 137.09 54.8539C137.391 54.9666 137.722 55.1016 138.049 55.1562C138.431 55.2199 138.809 55.1796 139.163 54.9648C139.438 54.7983 139.651 54.5792 139.83 54.3269C140.107 53.9344 140.285 53.448 140.507 52.9886C140.608 52.7797 140.719 52.575 140.872 52.4028C141.193 52.7842 141.655 53.398 142.129 53.794C142.602 54.1884 143.111 54.3661 143.549 54.2664C144.286 54.0992 144.936 53.5411 145.505 52.7356C146.521 51.2975 147.308 49.0147 148.233 47.4811C148.518 47.0084 148.79 46.5976 149.112 46.3807C149.256 47.2726 149.307 48.8419 149.578 49.6841C149.776 50.2975 150.145 50.6278 150.493 50.7184C150.742 50.7828 151.028 50.7607 151.346 50.569C151.942 50.2097 152.433 49.7117 152.864 49.1428C153.518 48.2814 154.016 47.2351 154.602 46.3485C154.653 46.4682 154.705 46.5857 154.749 46.6844C154.944 47.1246 155.193 47.5028 155.458 47.7138C155.913 48.076 156.445 48.1746 157.089 47.6974C157.332 47.5175 157.592 47.2435 157.856 46.9132C158.418 46.2078 159.01 45.1714 159.546 44.5679C160.01 44.7477 160.893 44.9828 161.959 44.7449C162.856 44.5451 164.058 44.0336 165.661 42.8946C166.087 42.5853 166.181 41.9884 165.871 41.5633C165.562 41.1378 164.965 41.0437 164.54 41.3533C163.242 42.3208 162.278 42.7928 161.544 42.9744C160.605 43.2064 160.143 42.8894 159.897 42.7865C159.386 42.5717 159.026 42.67 158.755 42.8939C158.522 43.085 158.271 43.3639 158.02 43.6998C157.457 44.4531 156.868 45.5591 156.323 46.1438Z" fill="black"/>
<path fill-rule="evenodd" clip-rule="evenodd" d="M104.935 92.284C104.792 92.1762 104.619 92.0531 104.483 91.9775C104.048 91.7368 103.592 91.6612 103.169 91.8872C102.813 92.0769 102.541 92.3421 102.339 92.6741C102.053 93.142 101.903 93.7424 101.748 94.3134C101.695 94.5066 101.652 94.7001 101.588 94.8698C101.421 94.6899 101.182 94.501 101.057 94.3645C100.777 94.0622 100.46 93.9184 100.149 93.9618C99.7318 94.0202 99.2941 94.3127 98.9011 94.7669C98.5649 95.1556 98.2458 95.663 97.9561 96.1039C97.8283 95.7312 97.6506 95.3029 97.5705 94.9698C97.4707 94.5559 97.3462 94.2161 97.2167 94.0489C97.0309 93.8092 96.8084 93.749 96.5907 93.8036C95.9816 93.9537 95.3965 94.4695 94.8776 95.1707C93.9221 96.4615 93.1523 98.3894 92.7331 99.2008C92.5903 99.4724 92.2184 99.8986 92.0977 100.231C92.0392 100.01 92.0063 99.74 91.9829 99.4391C91.8867 98.204 91.9819 96.5171 91.8055 95.3316C91.6802 94.4891 91.3657 93.8747 90.9405 93.5916C90.0896 93.0254 88.985 93.1769 87.9146 93.7294C86.6273 94.3946 85.4093 95.6507 84.9139 96.4401C84.6301 96.8904 84.0811 97.8404 83.7942 98.4811C83.6252 98.8576 83.558 99.1784 83.5524 99.3516C83.5374 99.8184 83.791 100.073 84.0167 100.224C84.213 100.354 84.6507 100.533 85.2536 100.117C85.6154 99.8503 85.7291 99.3716 85.55 98.9783C85.7806 98.4125 86.1595 97.6665 86.3642 97.2932C86.7207 96.6455 87.6364 95.6025 88.6267 95.0192C89.184 94.691 89.7544 94.4492 90.2271 94.7284C90.3125 94.7788 90.3594 94.8862 90.409 95.0132C90.5147 95.2844 90.5865 95.6277 90.6372 96.0097C90.8429 97.5626 90.775 99.6543 91.1344 100.656C91.3044 101.13 91.5718 101.422 91.8947 101.525C92.2513 101.639 92.5441 101.557 92.7887 101.329C93.1428 100.998 93.3447 100.117 93.582 99.6309C93.9249 98.9388 94.4948 97.4128 95.2457 96.1966C95.6362 95.5643 96.0603 95.0062 96.5348 94.7623C96.5778 94.8512 96.6432 94.9621 96.6698 95.078C96.829 95.7753 96.9385 96.7596 97.0803 97.1921C97.3098 97.8936 97.7811 97.8572 98.0859 97.5574C98.5194 97.1329 99.0894 96.1333 99.6986 95.487C99.8595 95.3162 100.012 95.1654 100.172 95.1063C100.223 95.1731 100.324 95.3082 100.382 95.4044C100.626 95.8086 100.895 96.2116 101.121 96.346C101.39 96.5063 101.66 96.4986 101.937 96.3352C102.254 96.148 102.486 95.8603 102.672 95.5143C102.91 95.0696 103.049 94.4996 103.243 93.9782C103.351 93.6878 103.467 93.4072 103.701 93.2469C103.752 93.2833 103.841 93.3487 103.893 93.3932C104.138 93.6038 104.371 93.8117 104.541 93.8995C104.943 94.1077 105.281 94.0108 105.55 93.7966C105.987 93.4495 106.788 93.0219 107.611 92.6811C108.373 92.3652 109.154 92.116 109.637 92.1727C110.161 92.2158 110.622 91.8253 110.665 91.3008C110.708 90.7766 110.317 90.3158 109.793 90.2728C109.199 90.2451 108.304 90.4729 107.397 90.8756C106.494 91.2766 105.564 91.8158 104.935 92.284ZM84.2379 98.5525C84.2074 98.5682 84.1766 98.5878 84.1451 98.6127C84.1752 98.5903 84.206 98.5703 84.2379 98.5525Z" fill="black"/>
<path fill-rule="evenodd" clip-rule="evenodd" d="M212.576 113.323C212.576 113.323 207.63 106.601 204.712 102.933C213.199 96.3521 228.892 87.3614 238.425 83.8242C241.354 86.1262 241.376 88.9034 241.376 88.9034C241.376 88.9034 218.56 117.872 190.675 135.037C189.992 134.222 189.543 133.55 188.738 132.562C199.369 124.056 215.593 111.369 215.593 111.369" fill="#A7C8ED"/>
<path fill-rule="evenodd" clip-rule="evenodd" d="M211.628 113.479C208.552 115.852 203.813 119.515 198.893 123.342C195.19 126.221 191.386 129.193 188.109 131.776C187.899 131.944 187.765 132.189 187.737 132.456C187.709 132.723 187.788 132.99 187.958 133.199L189.888 135.698C190.215 136.089 190.78 136.18 191.215 135.913C201.281 129.795 210.72 122.174 218.658 114.865C232.916 101.738 242.377 89.6919 242.377 89.6919C242.556 89.4644 242.652 89.1831 242.65 88.8941C242.65 88.8941 242.668 87.3034 241.524 85.4045C241.021 84.5697 240.287 83.6676 239.211 82.8237C238.863 82.55 238.397 82.4772 237.982 82.6312C233.117 84.4423 226.66 87.6512 220.365 91.2591C216.889 93.2518 213.453 95.3526 210.378 97.424C208.009 99.0206 205.858 100.604 204.034 102.059C203.8 102.24 203.648 102.508 203.613 102.802C203.578 103.096 203.661 103.392 203.846 103.623C205.019 105.042 206.514 106.928 207.898 108.69C209.548 110.791 211.038 112.716 211.628 113.479ZM212.983 112.433C214.336 111.389 215.13 110.778 215.13 110.778C215.457 110.523 215.929 110.58 216.185 110.907C216.44 111.234 216.382 111.706 216.056 111.962C216.056 111.962 209.89 116.859 202.686 122.626C198.523 125.958 194.013 129.58 190.146 132.717L190.908 133.677C200.486 127.608 209.41 120.151 216.993 113.069C229.476 101.411 238.283 90.7111 240.05 88.5228C239.973 88.1254 239.787 87.4633 239.34 86.7209C239.059 86.2555 238.68 85.7635 238.169 85.2821C233.494 87.0848 227.486 90.097 221.606 93.4337C218.169 95.3837 214.783 97.4576 211.717 99.4482C209.741 100.732 207.894 101.975 206.271 103.157C207.028 104.164 207.872 105.307 208.703 106.449C210.542 108.979 212.319 111.491 212.983 112.433Z" fill="black"/>
<path fill-rule="evenodd" clip-rule="evenodd" d="M202.786 106.071C189.048 116.128 178.177 124.114 167.639 132.269C163.063 135.811 158.549 139.382 153.892 143.169C147.613 148.277 141.086 153.79 133.734 160.074C133.417 160.34 133.375 160.814 133.641 161.132C133.908 161.449 134.382 161.491 134.7 161.225C142.16 155.091 148.819 149.76 155.148 144.731C159.838 141.005 164.352 137.452 168.91 133.907C179.417 125.736 190.155 117.598 203.791 107.431C204.167 107.154 204.246 106.624 203.969 106.248C203.692 105.873 203.162 105.793 202.786 106.071Z" fill="black"/>
<path fill-rule="evenodd" clip-rule="evenodd" d="M141.565 171.284C141.775 171.11 141.898 170.853 141.902 170.581C141.906 170.309 141.79 170.048 141.585 169.868C141.581 169.868 138.856 167.546 136.466 164.422C135.475 163.127 134.547 161.69 133.891 160.235C133.791 160.009 133.59 159.843 133.349 159.787C133.108 159.731 132.855 159.792 132.665 159.951C128.237 163.631 124.093 167.232 120.491 170.474C118.636 172.143 116.916 173.707 115.408 175.177C112.184 178.318 109.88 181.002 108.856 182.936C108.676 183.293 108.683 183.716 108.875 184.066C109.507 185.228 110.353 186.449 111.296 187.445C112.036 188.224 112.838 188.865 113.638 189.271C113.951 189.43 114.317 189.446 114.642 189.315C117.126 188.292 121.382 185.786 125.947 182.774C131.588 179.053 137.715 174.567 141.565 171.289V171.284ZM139.549 170.5C135.674 173.587 129.98 177.554 124.729 180.895C120.597 183.525 116.745 185.768 114.284 186.839C113.726 186.459 113.186 185.926 112.681 185.335C112.181 184.749 111.719 184.101 111.325 183.455C112.605 181.185 115.39 178.002 119.128 174.28C120.432 172.982 121.851 171.621 123.367 170.22C126.258 167.549 129.497 164.725 132.899 161.82C133.729 163.459 134.836 165.049 135.938 166.449C137.326 168.212 138.713 169.665 139.549 170.5Z" fill="black"/>
<path fill-rule="evenodd" clip-rule="evenodd" d="M144.23 168.896C144.23 168.896 149 165.499 155.774 160.565C159.204 158.067 163.154 155.186 167.242 152.132C169.491 150.452 171.775 148.712 174.048 146.971C179.645 142.683 185.158 138.366 189.785 134.733C190.15 134.454 190.219 133.93 189.94 133.565C189.66 133.2 189.137 133.13 188.772 133.41C184.06 136.925 178.412 141.055 172.75 145.246C170.449 146.949 168.143 148.658 165.903 150.347C161.83 153.418 157.953 156.395 154.586 158.975C147.936 164.071 143.31 167.661 143.31 167.661C142.97 167.914 142.898 168.397 143.152 168.738C143.405 169.079 143.888 169.15 144.23 168.896Z" fill="black"/>
<path fill-rule="evenodd" clip-rule="evenodd" d="M153.257 150.691C153.257 150.691 165.602 141.292 178.682 131.225C182.079 128.61 185.518 125.94 188.806 123.382C194.736 118.77 200.166 114.512 203.972 111.594C204.148 111.462 204.182 111.212 204.05 111.037C203.918 110.862 203.668 110.827 203.493 110.959C198.573 114.63 190.917 120.393 183.073 126.436C180.019 128.79 176.943 131.195 173.978 133.52C162.601 142.437 152.869 150.193 152.869 150.193C152.731 150.3 152.707 150.499 152.814 150.636C152.921 150.773 153.119 150.798 153.257 150.691Z" fill="black"/>
<path fill-rule="evenodd" clip-rule="evenodd" d="M143.696 163.567C148.731 159.879 153.562 156.34 158.268 152.849C163.186 149.2 167.983 145.625 172.756 142.017C175.634 139.841 178.498 137.649 181.385 135.434C187.864 130.461 194.441 125.358 201.434 119.963C201.583 119.849 201.612 119.635 201.499 119.485C201.385 119.335 201.171 119.306 201.021 119.42C193.949 124.71 187.275 129.684 180.744 134.589C177.835 136.774 174.952 138.942 172.079 141.122C167.313 144.739 162.563 148.375 157.696 152.089C153.038 155.643 148.287 159.286 143.318 163.061C143.179 163.165 143.15 163.363 143.254 163.503C143.358 163.642 143.556 163.671 143.696 163.567Z" fill="black"/>
</svg>
