<svg width="17" height="17" viewBox="0 0 17 17" fill="none" xmlns="http://www.w3.org/2000/svg">
<path d="M8.50008 15.6405C8.28758 15.6405 8.07508 15.5909 7.898 15.4917C6.57341 14.7692 4.243 14.0042 2.78383 13.813L2.57841 13.7846C1.6505 13.6713 0.885498 12.8001 0.885498 11.858V3.30131C0.885498 2.74172 1.10508 2.23172 1.50883 1.86339C1.91258 1.49506 2.43675 1.31797 2.98925 1.36756C4.54758 1.48797 6.89925 2.26714 8.23092 3.10297L8.40091 3.20214C8.4505 3.23047 8.55675 3.23047 8.59925 3.20922L8.71258 3.13839C10.0442 2.30256 12.3959 1.50922 13.9613 1.37464C13.9755 1.37464 14.0322 1.37464 14.0463 1.37464C14.5634 1.32506 15.0947 1.50922 15.4913 1.87756C15.8951 2.24589 16.1147 2.75589 16.1147 3.31547V11.8651C16.1147 12.8142 15.3497 13.6784 14.4147 13.7917L14.1809 13.8201C12.7217 14.0113 10.3842 14.7834 9.088 15.4988C8.918 15.598 8.71258 15.6405 8.50008 15.6405ZM2.81925 2.42297C2.59258 2.42297 2.38716 2.50089 2.22425 2.64964C2.04716 2.81256 1.948 3.04631 1.948 3.30131V11.858C1.948 12.2759 2.30925 12.6796 2.713 12.7363L2.9255 12.7646C4.51925 12.9771 6.963 13.7776 8.37966 14.5496C8.44342 14.578 8.5355 14.5851 8.57092 14.5709C9.98758 13.7846 12.4455 12.9771 14.0463 12.7646L14.2872 12.7363C14.6909 12.6867 15.0522 12.2759 15.0522 11.858V3.30839C15.0522 3.04631 14.953 2.81964 14.7759 2.64964C14.5917 2.48672 14.358 2.40881 14.0959 2.42297C14.0817 2.42297 14.0251 2.42297 14.0109 2.42297C12.658 2.54339 10.4763 3.27297 9.28633 4.01672L9.173 4.09464C8.78341 4.33547 8.23092 4.33547 7.8555 4.10172L7.6855 4.00256C6.47425 3.25881 4.29258 2.53631 2.90425 2.42297C2.87591 2.42297 2.84758 2.42297 2.81925 2.42297Z" fill="#B8181C"/>
<path d="M8.5 15.0449C8.20958 15.0449 7.96875 14.8041 7.96875 14.5137V3.88867C7.96875 3.59826 8.20958 3.35742 8.5 3.35742C8.79042 3.35742 9.03125 3.59826 9.03125 3.88867V14.5137C9.03125 14.8112 8.79042 15.0449 8.5 15.0449Z" fill="#B8181C"/>
<path d="M5.48962 6.54492H3.89587C3.60546 6.54492 3.36462 6.30409 3.36462 6.01367C3.36462 5.72326 3.60546 5.48242 3.89587 5.48242H5.48962C5.78004 5.48242 6.02087 5.72326 6.02087 6.01367C6.02087 6.30409 5.78004 6.54492 5.48962 6.54492Z" fill="#B8181C"/>
<path d="M6.02087 8.66992H3.89587C3.60546 8.66992 3.36462 8.42909 3.36462 8.13867C3.36462 7.84826 3.60546 7.60742 3.89587 7.60742H6.02087C6.31129 7.60742 6.55212 7.84826 6.55212 8.13867C6.55212 8.42909 6.31129 8.66992 6.02087 8.66992Z" fill="#B8181C"/>
</svg>
