<svg width="40" height="40" viewBox="0 0 40 40" fill="none" xmlns="http://www.w3.org/2000/svg">
<circle cx="20" cy="20" r="20" fill="#B8181C"/>
<path d="M21.7273 30.5565C21.6222 30.5607 21.5549 30.5691 21.4877 30.5691C20.05 30.5691 18.6165 30.5649 17.1788 30.5733C16.9771 30.5733 16.9224 30.5187 16.9224 30.3169C16.9266 26.9707 16.9266 23.6203 16.9266 20.2741C16.9266 20.1859 16.9266 20.0976 16.9266 19.9841C16.1447 19.9841 15.3838 19.9841 14.6104 19.9841C14.6104 18.7902 14.6104 17.6174 14.6104 16.4109C14.6902 16.4109 14.7659 16.4109 14.8374 16.4109C15.4679 16.4109 16.0985 16.4067 16.729 16.4151C16.8888 16.4151 16.9308 16.3689 16.9308 16.2133C16.9224 15.2759 16.9224 14.3342 16.9308 13.3968C16.935 12.741 17.0401 12.1021 17.3428 11.5093C17.7758 10.6728 18.461 10.1305 19.327 9.7942C20.0332 9.51675 20.7773 9.41586 21.5255 9.40325C22.7446 9.38643 23.9637 9.39484 25.1828 9.39064C25.2963 9.39064 25.3888 9.38643 25.3888 9.54617C25.3846 10.7022 25.3846 11.8582 25.3846 13.0143C25.3846 13.0269 25.3804 13.0395 25.3635 13.0941C25.2921 13.0941 25.2122 13.0941 25.1323 13.0941C24.3757 13.0941 23.619 13.0899 22.8623 13.0941C22.4251 13.0941 22.072 13.2707 21.8492 13.6532C21.7819 13.7667 21.7399 13.9139 21.7399 14.0484C21.7273 14.763 21.7399 15.4777 21.7315 16.1923C21.7315 16.3604 21.7819 16.4067 21.9459 16.4067C22.9968 16.3983 24.0478 16.4025 25.0987 16.4025C25.1828 16.4025 25.2627 16.4025 25.4056 16.4025C25.2584 17.6048 25.1155 18.7818 24.9684 19.9715C23.8754 19.9715 22.8119 19.9715 21.7273 19.9715C21.7273 23.5068 21.7273 27.0211 21.7273 30.5565Z" fill="white"/>
</svg>
