<svg width="17" height="17" viewBox="0 0 17 17" fill="none" xmlns="http://www.w3.org/2000/svg">
<path d="M8.50008 16.1159C4.29966 16.1159 0.885498 12.7017 0.885498 8.5013C0.885498 4.30089 4.29966 0.886719 8.50008 0.886719C12.7005 0.886719 16.1147 4.30089 16.1147 8.5013C16.1147 12.7017 12.7005 16.1159 8.50008 16.1159ZM8.50008 1.94922C4.88758 1.94922 1.948 4.8888 1.948 8.5013C1.948 12.1138 4.88758 15.0534 8.50008 15.0534C12.1126 15.0534 15.0522 12.1138 15.0522 8.5013C15.0522 4.8888 12.1126 1.94922 8.50008 1.94922Z" fill="#B8181C"/>
<path d="M8.50024 7.4388C8.79066 7.4388 9.03149 7.67964 9.03149 7.97005L9.03149 11.5117C9.03149 11.8021 8.79066 12.043 8.50024 12.043C8.20983 12.043 7.96899 11.8021 7.96899 11.5117L7.96899 7.97005C7.96899 7.67964 8.20983 7.4388 8.50024 7.4388Z" fill="#B8181C"/>
<path d="M8.50016 5.1357C8.59225 5.1357 8.68433 5.15695 8.76933 5.19237C8.85433 5.22779 8.93225 5.27737 9.00308 5.34112C9.06683 5.41195 9.11641 5.48279 9.15183 5.57487C9.18725 5.65987 9.2085 5.75195 9.2085 5.84404C9.2085 5.93612 9.18725 6.0282 9.15183 6.1132C9.11641 6.1982 9.06683 6.27612 9.00308 6.34695C8.93225 6.4107 8.85433 6.46029 8.76933 6.4957C8.59933 6.56654 8.401 6.56654 8.231 6.4957C8.146 6.46029 8.06808 6.4107 7.99725 6.34695C7.9335 6.27612 7.88391 6.1982 7.8485 6.1132C7.81308 6.0282 7.79183 5.93612 7.79183 5.84404C7.79183 5.75195 7.81308 5.65987 7.8485 5.57487C7.88391 5.48279 7.9335 5.41195 7.99725 5.34112C8.06808 5.27737 8.146 5.22779 8.231 5.19237C8.316 5.15695 8.40808 5.1357 8.50016 5.1357Z" fill="#B8181C"/>
</svg>
