<svg width="17" height="17" viewBox="0 0 17 17" fill="none" xmlns="http://www.w3.org/2000/svg">
<path d="M7.0762 16.1358C6.6512 16.1358 6.24745 15.9233 5.9712 15.5479L5.12122 14.4146C5.12122 14.4217 5.0858 14.4004 5.07163 14.4004H4.80955C2.38705 14.4004 0.885376 13.7417 0.885376 10.4763V7.64292C0.885376 4.66084 2.7058 3.88167 4.2358 3.74709C4.4058 3.72584 4.60413 3.71875 4.80955 3.71875H9.34288C11.907 3.71875 13.2671 5.07876 13.2671 7.64292V10.4763C13.2671 10.6817 13.26 10.88 13.2316 11.0713C13.1041 12.58 12.325 14.4004 9.34288 14.4004H9.05955L8.1812 15.5479C7.90495 15.9233 7.5012 16.1358 7.0762 16.1358ZM4.80955 4.78125C4.64663 4.78125 4.4908 4.78833 4.34205 4.8025C2.69871 4.94417 1.94788 5.84376 1.94788 7.64292V10.4763C1.94788 12.9058 2.69872 13.3379 4.80955 13.3379H5.09288C5.41163 13.3379 5.77287 13.515 5.9712 13.77L6.82121 14.9104C6.97705 15.1229 7.17538 15.1229 7.33121 14.9104L8.1812 13.7771C8.38662 13.5008 8.71247 13.3379 9.05955 13.3379H9.34288C11.142 13.3379 12.0416 12.58 12.1762 10.965C12.1975 10.795 12.2046 10.6392 12.2046 10.4763V7.64292C12.2046 5.66667 11.3191 4.78125 9.34288 4.78125H4.80955Z" fill="#B8181C"/>
<path d="M7.07638 10.0514C6.67971 10.0514 6.36804 9.73268 6.36804 9.3431C6.36804 8.95352 6.68679 8.63477 7.07638 8.63477C7.46596 8.63477 7.78471 8.95352 7.78471 9.3431C7.78471 9.73268 7.47304 10.0514 7.07638 10.0514Z" fill="#B8181C"/>
<path d="M9.34285 10.0514C8.94619 10.0514 8.63452 9.73268 8.63452 9.3431C8.63452 8.95352 8.95327 8.63477 9.34285 8.63477C9.73244 8.63477 10.0512 8.95352 10.0512 9.3431C10.0512 9.73268 9.73244 10.0514 9.34285 10.0514Z" fill="#B8181C"/>
<path d="M4.81649 10.0514C4.41982 10.0514 4.10815 9.73268 4.10815 9.3431C4.10815 8.95352 4.4269 8.63477 4.81649 8.63477C5.20607 8.63477 5.52482 8.95352 5.52482 9.3431C5.52482 9.73268 5.20607 10.0514 4.81649 10.0514Z" fill="#B8181C"/>
<path d="M12.7075 11.5401C12.5658 11.5401 12.4242 11.4834 12.325 11.3771C12.2117 11.2638 12.1621 11.1009 12.1833 10.9451C12.2046 10.7963 12.2117 10.6405 12.2117 10.4776V7.64422C12.2117 5.66797 11.3263 4.78255 9.35 4.78255H4.81665C4.65373 4.78255 4.49792 4.78963 4.34917 4.8038C4.19334 4.82505 4.03041 4.76838 3.91708 4.66213C3.80374 4.54879 3.73998 4.39298 3.75415 4.23714C3.88165 2.70714 4.6679 0.886719 7.64998 0.886719H12.1833C14.7475 0.886719 16.1075 2.24672 16.1075 4.81089V7.64422C16.1075 10.6263 14.2871 11.4055 12.7571 11.5401C12.7358 11.5401 12.7217 11.5401 12.7075 11.5401ZM4.90167 3.72005H9.34291C11.9071 3.72005 13.2671 5.08006 13.2671 7.64422V10.3855C14.4713 10.088 15.0379 9.20256 15.0379 7.64422V4.81089C15.0379 2.83464 14.1525 1.94922 12.1762 1.94922H7.64292C6.08458 1.94922 5.20625 2.51589 4.90167 3.72005Z" fill="#B8181C"/>
</svg>
