<svg width="17" height="18" viewBox="0 0 17 18" fill="none" xmlns="http://www.w3.org/2000/svg">
<path d="M4.95833 13.25H4.39167C3.59826 13.25 3.20156 13.25 2.89851 13.0956C2.63195 12.9598 2.41523 12.743 2.27941 12.4765C2.125 12.1734 2.125 11.7767 2.125 10.9833V7.725C2.125 6.93159 2.125 6.53489 2.27941 6.23185C2.41523 5.96528 2.63195 5.74856 2.89851 5.61274C3.20156 5.45833 3.59826 5.45833 4.39167 5.45833H12.6083C13.4017 5.45833 13.7984 5.45833 14.1015 5.61274C14.368 5.74856 14.5848 5.96528 14.7206 6.23185C14.875 6.53489 14.875 6.93159 14.875 7.725V10.9833C14.875 11.7767 14.875 12.1734 14.7206 12.4765C14.5848 12.743 14.368 12.9598 14.1015 13.0956C13.7984 13.25 13.4017 13.25 12.6083 13.25H12.0417M4.95833 8.29167H4.96542M6.09167 15.375H10.9083C11.305 15.375 11.5034 15.375 11.6549 15.2978C11.7882 15.2299 11.8966 15.1215 11.9645 14.9882C12.0417 14.8367 12.0417 14.6384 12.0417 14.2417V12.2583C12.0417 11.8616 12.0417 11.6633 11.9645 11.5118C11.8966 11.3785 11.7882 11.2701 11.6549 11.2022C11.5034 11.125 11.305 11.125 10.9083 11.125H6.09167C5.69496 11.125 5.49661 11.125 5.34509 11.2022C5.21181 11.2701 5.10345 11.3785 5.03554 11.5118C4.95833 11.6633 4.95833 11.8616 4.95833 12.2583V14.2417C4.95833 14.6384 4.95833 14.8367 5.03554 14.9882C5.10345 15.1215 5.21181 15.2299 5.34509 15.2978C5.49661 15.375 5.69496 15.375 6.09167 15.375ZM6.09167 5.45833H10.9083C11.305 5.45833 11.5034 5.45833 11.6549 5.38113C11.7882 5.31322 11.8966 5.20486 11.9645 5.07158C12.0417 4.92006 12.0417 4.7217 12.0417 4.325V3.75833C12.0417 3.36163 12.0417 3.16328 11.9645 3.01176C11.8966 2.87848 11.7882 2.77011 11.6549 2.7022C11.5034 2.625 11.305 2.625 10.9083 2.625H6.09167C5.69496 2.625 5.49661 2.625 5.34509 2.7022C5.21181 2.77011 5.10345 2.87848 5.03554 3.01176C4.95833 3.16328 4.95833 3.36163 4.95833 3.75833V4.325C4.95833 4.7217 4.95833 4.92006 5.03554 5.07158C5.10345 5.20486 5.21181 5.31322 5.34509 5.38113C5.49661 5.45833 5.69496 5.45833 6.09167 5.45833Z" stroke="#4D5759" stroke-width="1.5" stroke-linecap="round" stroke-linejoin="round"/>
</svg>
