<svg width="17" height="17" viewBox="0 0 17 17" fill="none" xmlns="http://www.w3.org/2000/svg">
<path d="M8.50011 16.1212C7.72803 16.1212 6.96303 15.8945 6.36095 15.4483L3.31511 13.1745C2.50761 12.5724 1.8772 11.3116 1.8772 10.3129V5.04286C1.8772 3.95203 2.67761 2.79036 3.7047 2.40786L7.23928 1.08328C7.94053 0.821198 9.04553 0.821198 9.74678 1.08328L13.2814 2.40786C14.3084 2.79036 15.1089 3.95203 15.1089 5.04286V10.3058C15.1089 11.3116 14.4784 12.5654 13.6709 13.1674L10.6251 15.4412C10.0372 15.8945 9.2722 16.1212 8.50011 16.1212ZM7.6147 2.08203L4.08011 3.40661C3.47803 3.63328 2.94678 4.39828 2.94678 5.04995V10.3129C2.94678 10.9858 3.42136 11.9279 3.95261 12.3245L6.99845 14.5983C7.81303 15.2074 9.1872 15.2074 10.0089 14.5983L13.0547 12.3245C13.593 11.9208 14.0605 10.9858 14.0605 10.3129V5.04286C14.0605 4.39828 13.5293 3.63328 12.9272 3.39953L9.39261 2.07495C8.91095 1.90495 8.08928 1.90495 7.6147 2.08203Z" fill="#B8181C"/>
<path d="M7.55075 10.0792C7.41617 10.0792 7.28159 10.0296 7.17534 9.92339L6.03492 8.78297C5.82951 8.57755 5.82951 8.23755 6.03492 8.03214C6.24034 7.82672 6.58034 7.82672 6.78575 8.03214L7.55075 8.79714L10.2212 6.12672C10.4266 5.9213 10.7666 5.9213 10.972 6.12672C11.1774 6.33214 11.1774 6.67214 10.972 6.87755L7.92617 9.92339C7.81992 10.0296 7.68534 10.0792 7.55075 10.0792Z" fill="#B8181C"/>
</svg>
