<svg width="40" height="40" fill="none" xmlns="http://www.w3.org/2000/svg"><circle cx="20" cy="20" r="20" fill="#b8181c"/><g clip-path="url(#clip0)"><path d="M31.873 25.614a1.648 1.648 0 00-.08-.154c-.41-.739-1.194-1.646-2.352-2.721l-.024-.025-.013-.012-.012-.012h-.012c-.526-.501-.858-.838-.998-1.01-.255-.329-.312-.661-.172-.998.098-.255.468-.792 1.108-1.613.337-.435.603-.784.8-1.047 1.42-1.888 2.037-3.095 1.848-3.62l-.074-.123c-.049-.074-.176-.142-.381-.203-.206-.062-.468-.072-.789-.031l-3.546.024a.46.46 0 00-.247.007l-.16.037-.061.03-.05.038a.547.547 0 00-.135.129.847.847 0 00-.123.215 20.108 20.108 0 01-1.318 2.771c-.303.51-.582.95-.837 1.324a6.363 6.363 0 01-.64.825 4.467 4.467 0 01-.468.425c-.14.107-.247.152-.32.135a8.788 8.788 0 01-.21-.05.817.817 0 01-.277-.3 1.35 1.35 0 01-.142-.481 5.317 5.317 0 01-.043-.499c-.004-.14-.002-.337.006-.591.009-.255.013-.427.013-.517 0-.312.006-.65.018-1.016l.031-.868c.008-.214.012-.44.012-.678 0-.238-.014-.425-.043-.56a1.92 1.92 0 00-.129-.394.664.664 0 00-.252-.296 1.426 1.426 0 00-.413-.166c-.435-.098-.99-.152-1.662-.16-1.527-.016-2.508.082-2.944.296-.172.09-.328.213-.468.369-.147.18-.168.28-.061.296.492.073.841.25 1.046.529l.074.148c.058.107.115.296.173.566.057.271.094.57.11.9a9.337 9.337 0 010 1.538c-.04.427-.08.76-.116.998a1.996 1.996 0 01-.167.579 2.464 2.464 0 01-.147.27.213.213 0 01-.062.062.922.922 0 01-.333.062c-.114 0-.254-.058-.418-.173a2.95 2.95 0 01-.511-.474 6.325 6.325 0 01-.597-.843 14.713 14.713 0 01-.69-1.281l-.197-.357c-.123-.23-.291-.565-.505-1.004-.213-.44-.402-.864-.566-1.274a.812.812 0 00-.296-.394l-.062-.038a.84.84 0 00-.197-.104 1.303 1.303 0 00-.283-.08l-3.374.024c-.345 0-.579.078-.702.234l-.05.074a.398.398 0 00-.036.197c0 .09.024.202.074.333a40.66 40.66 0 001.607 3.35 37.52 37.52 0 001.508 2.598c.427.657.862 1.276 1.306 1.86.443.582.736.956.88 1.12.144.164.257.287.339.37l.308.295a7.3 7.3 0 00.868.708c.382.275.804.546 1.268.813a6.878 6.878 0 001.62.652 5.598 5.598 0 001.798.204h1.416c.287-.025.505-.116.652-.271l.05-.062a.816.816 0 00.092-.228c.029-.102.043-.215.043-.338a4.059 4.059 0 01.08-.954c.061-.284.131-.497.21-.64a1.576 1.576 0 01.474-.543.799.799 0 01.098-.043c.197-.065.429-.002.696.191.267.193.517.431.751.715.234.283.515.6.844.954.328.353.616.615.862.788l.246.148c.164.098.378.189.64.27.263.083.493.103.69.062l3.152-.049c.312 0 .555-.051.727-.154.172-.102.275-.215.308-.338a.952.952 0 00.006-.42 1.546 1.546 0 00-.087-.326z" fill="#fff"/></g><defs><clipPath id="clip0"><path fill="#fff" transform="translate(8.347 8.348)" d="M0 0h23.652v23.652H0z"/></clipPath></defs></svg>