<svg width="17" height="17" viewBox="0 0 17 17" fill="none" xmlns="http://www.w3.org/2000/svg">
<path d="M12.4807 6.81445H8.76196C8.47155 6.81445 8.23071 6.57362 8.23071 6.2832C8.23071 5.99279 8.47155 5.75195 8.76196 5.75195H12.4807C12.7711 5.75195 13.012 5.99279 13.012 6.2832C13.012 6.57362 12.7782 6.81445 12.4807 6.81445Z" fill="#B8181C"/>
<path d="M5.04327 7.35174C4.90869 7.35174 4.77411 7.30216 4.66786 7.19591L4.13661 6.66466C3.93119 6.45924 3.93119 6.11925 4.13661 5.91383C4.34202 5.70841 4.68202 5.70841 4.88744 5.91383L5.04327 6.06966L6.26161 4.85133C6.46702 4.64591 6.80702 4.64591 7.01244 4.85133C7.21786 5.05674 7.21786 5.39674 7.01244 5.60216L5.41869 7.19591C5.31952 7.29508 5.18494 7.35174 5.04327 7.35174Z" fill="#B8181C"/>
<path d="M12.4808 11.7734H8.76208C8.47167 11.7734 8.23083 11.5326 8.23083 11.2422C8.23083 10.9518 8.47167 10.7109 8.76208 10.7109H12.4808C12.7713 10.7109 13.0121 10.9518 13.0121 11.2422C13.0121 11.5326 12.7783 11.7734 12.4808 11.7734Z" fill="#B8181C"/>
<path d="M5.04327 12.3107C4.90869 12.3107 4.77411 12.2611 4.66786 12.1549L4.13661 11.6236C3.93119 11.4182 3.93119 11.0782 4.13661 10.8728C4.34202 10.6674 4.68202 10.6674 4.88744 10.8728L5.04327 11.0286L6.26161 9.81031C6.46702 9.6049 6.80702 9.6049 7.01244 9.81031C7.21786 10.0157 7.21786 10.3557 7.01244 10.5611L5.41869 12.1549C5.31952 12.2541 5.18494 12.3107 5.04327 12.3107Z" fill="#B8181C"/>
<path d="M10.6251 16.1159H6.37508C2.52883 16.1159 0.885498 14.4726 0.885498 10.6263V6.3763C0.885498 2.53005 2.52883 0.886719 6.37508 0.886719H10.6251C14.4713 0.886719 16.1147 2.53005 16.1147 6.3763V10.6263C16.1147 14.4726 14.4713 16.1159 10.6251 16.1159ZM6.37508 1.94922C3.10966 1.94922 1.948 3.11089 1.948 6.3763V10.6263C1.948 13.8917 3.10966 15.0534 6.37508 15.0534H10.6251C13.8905 15.0534 15.0522 13.8917 15.0522 10.6263V6.3763C15.0522 3.11089 13.8905 1.94922 10.6251 1.94922H6.37508Z" fill="#B8181C"/>
</svg>
