<svg width="17" height="17" viewBox="0 0 17 17" fill="none" xmlns="http://www.w3.org/2000/svg">
<path d="M8.5071 12.0419C7.90502 12.0419 7.29585 11.8861 6.82127 11.5815L2.5571 8.79774C1.76377 8.28065 1.28918 7.4094 1.28918 6.46024C1.28918 5.51107 1.76377 4.63982 2.5571 4.12274L6.82835 1.34607C7.77752 0.729822 9.25793 0.729822 10.2 1.35315L14.4429 4.1369C15.2292 4.65399 15.7038 5.52524 15.7038 6.46732C15.7038 7.4094 15.2292 8.28065 14.4429 8.79774L10.2 11.5815C9.72543 11.8932 9.11627 12.0419 8.5071 12.0419ZM8.5071 1.94815C8.10335 1.94815 7.6996 2.04024 7.40918 2.23857L3.14502 5.01524C2.64918 5.34107 2.35877 5.86524 2.35877 6.46024C2.35877 7.05524 2.6421 7.5794 3.14502 7.90524L7.40918 10.689C7.9971 11.0715 9.03127 11.0715 9.61918 10.689L13.8621 7.90524C14.3579 7.5794 14.6413 7.05524 14.6413 6.46024C14.6413 5.86524 14.3579 5.34107 13.8621 5.01524L9.61918 2.23149C9.32168 2.04732 8.91793 1.94815 8.5071 1.94815Z" fill="#B8181C"/>
<path d="M8.49992 16.1152C8.18826 16.1152 7.86951 16.0727 7.61451 15.9877L5.35492 15.2369C4.28534 14.8827 3.44242 13.714 3.44951 12.5877L3.45659 9.26562C3.45659 8.97521 3.69742 8.73438 3.98784 8.73438C4.27826 8.73438 4.51909 8.97521 4.51909 9.26562L4.51201 12.5877C4.51201 13.2535 5.06451 14.0185 5.69492 14.231L7.95451 14.9819C8.23784 15.074 8.76201 15.074 9.04534 14.9819L11.3049 14.231C11.9353 14.0185 12.4878 13.2535 12.4878 12.5948V9.30813C12.4878 9.01771 12.7287 8.77688 13.0191 8.77688C13.3095 8.77688 13.5503 9.01771 13.5503 9.30813V12.5948C13.5503 13.721 12.7145 14.8827 11.6449 15.244L9.38534 15.9948C9.13034 16.0727 8.81159 16.1152 8.49992 16.1152Z" fill="#B8181C"/>
<path d="M15.1583 11.1562C14.8679 11.1562 14.6271 10.9154 14.6271 10.625V6.375C14.6271 6.08458 14.8679 5.84375 15.1583 5.84375C15.4487 5.84375 15.6896 6.08458 15.6896 6.375V10.625C15.6896 10.9154 15.4487 11.1562 15.1583 11.1562Z" fill="#B8181C"/>
</svg>
