<svg width="52" height="52" viewBox="0 0 52 52" fill="none" xmlns="http://www.w3.org/2000/svg">
<path d="M21.667 23.8337H30.3337M26.0003 19.5003V28.167M43.2453 32.5003H35.967C34.7535 32.5003 34.1468 32.5003 33.6833 32.7365C33.2757 32.9442 32.9442 33.2757 32.7365 33.6833C32.5003 34.1468 32.5003 34.7535 32.5003 35.967V43.2453M43.3337 30.557V15.6003C43.3337 13.1734 43.3337 11.96 42.8614 11.033C42.4459 10.2177 41.783 9.55475 40.9676 9.1393C40.0407 8.66699 38.8272 8.66699 36.4003 8.66699H15.6003C13.1734 8.66699 11.96 8.66699 11.033 9.1393C10.2177 9.55475 9.55475 10.2177 9.1393 11.033C8.66699 11.96 8.66699 13.1734 8.66699 15.6003V36.4003C8.66699 38.8272 8.66699 40.0407 9.1393 40.9676C9.55475 41.783 10.2177 42.4459 11.033 42.8614C11.96 43.3337 13.1734 43.3337 15.6003 43.3337H30.557C31.6169 43.3337 32.1469 43.3337 32.6456 43.2139C33.0877 43.1078 33.5104 42.9327 33.8981 42.6951C34.3354 42.4271 34.7102 42.0524 35.4596 41.3029L41.3029 35.4596C42.0524 34.7102 42.4271 34.3354 42.6951 33.8981C42.9327 33.5104 43.1078 33.0877 43.2139 32.6456C43.3337 32.1469 43.3337 31.6169 43.3337 30.557Z" stroke="#2469BE" stroke-width="3" stroke-linecap="round" stroke-linejoin="round"/>
</svg>
