<svg width="52" height="52" viewBox="0 0 52 52" fill="none" xmlns="http://www.w3.org/2000/svg">
<path d="M18.8116 30.3333C20.8706 31.7023 23.3422 32.5 26.0002 32.5C28.6581 32.5 31.1297 31.7023 33.1887 30.3333M33.1963 30.3333C34.5626 30.3333 35.2458 30.3333 35.8157 30.4357C38.4905 30.916 40.5841 33.0097 41.0645 35.6844C41.1668 36.2543 41.1668 36.9375 41.1668 38.3039V42.0333C41.1668 43.2468 41.1668 43.8535 40.9307 44.317C40.723 44.7247 40.3915 45.0561 39.9838 45.2638C39.5203 45.5 38.9136 45.5 37.7002 45.5H14.3002C13.0867 45.5 12.48 45.5 12.0165 45.2638C11.6088 45.0561 11.2774 44.7247 11.0696 44.317C10.8335 43.8535 10.8335 43.2468 10.8335 42.0333V38.3155C10.8335 36.9383 10.8335 36.2497 10.9375 35.6754C11.4204 33.0079 13.5081 30.9202 16.1756 30.4373C16.7499 30.3333 17.4385 30.3333 18.8157 30.3333M34.6668 15.1667C34.6668 19.9531 30.7866 23.8333 26.0002 23.8333C21.2137 23.8333 17.3335 19.9531 17.3335 15.1667C17.3335 10.3802 21.2137 6.5 26.0002 6.5C30.7866 6.5 34.6668 10.3802 34.6668 15.1667Z" stroke="#2469BE" stroke-width="3" stroke-linecap="round" stroke-linejoin="round"/>
</svg>
