<svg width="18" height="18" viewBox="0 0 18 18" fill="none" xmlns="http://www.w3.org/2000/svg">
<path d="M14.0258 12.3475L17.595 15.9158L16.4158 17.095L12.8475 13.5258C11.5198 14.5902 9.86832 15.1691 8.16666 15.1667C4.02666 15.1667 0.666656 11.8067 0.666656 7.66666C0.666656 3.52666 4.02666 0.166664 8.16666 0.166664C12.3067 0.166664 15.6667 3.52666 15.6667 7.66666C15.6691 9.36833 15.0902 11.0198 14.0258 12.3475ZM12.3542 11.7292C13.4118 10.6416 14.0024 9.18369 14 7.66666C14 4.44333 11.3892 1.83333 8.16666 1.83333C4.94332 1.83333 2.33332 4.44333 2.33332 7.66666C2.33332 10.8892 4.94332 13.5 8.16666 13.5C9.68368 13.5024 11.1416 12.9118 12.2292 11.8542L12.3542 11.7292Z" fill="#031317"/>
</svg>
