<svg width="188" height="169" viewBox="0 0 188 169" fill="none" xmlns="http://www.w3.org/2000/svg">
<path fill-rule="evenodd" clip-rule="evenodd" d="M8.50838 43.1732H14.6089L23.5251 42.7039L30.5642 41.7654L35.257 41.2961L102.832 29.095L113.156 106.525L110.341 111.687L117.38 113.564L157.737 123.888L178.385 129.05L182.609 131.397L183.547 134.682L181.67 137.497L176.508 138.436L184.955 149.698C187.302 152.201 190.305 157.394 183.547 158.145C176.79 158.896 168.218 160.022 164.777 160.492L105.179 168L101.894 167.531L99.0782 163.777L86.4078 147.352L54.0279 137.966L58.2514 142.659L72.3296 158.145L73.7374 159.553C74.2067 160.022 74.8637 160.961 73.7374 160.961H64.352L53.0894 148.76L47.9274 142.19L34.7877 148.291L28.6872 150.168L23.5251 149.698L23.0559 148.76L23.5251 146.413L35.7263 131.866C34.6313 131.24 33.0983 129.238 35.7263 126.235L21.648 100.894L11.7933 78.838L4.75419 58.6592L1 45.0503L1.74478 41.7654L2.87709 39.8883L4.28492 39.419L6.16201 39.8883L7.10056 41.2961L8.50838 43.1732ZM101.425 150.637C100.642 150.48 99.0782 150.355 99.0782 151.106C99.0782 151.857 101.268 154.547 102.363 155.799L107.525 161.43L130.989 158.614C145.536 156.737 174.631 152.889 174.631 152.514C174.631 152.138 170.564 147.039 168.531 144.536L165.246 140.313L119.257 147.821L101.425 150.637Z" fill="white"/>
<path fill-rule="evenodd" clip-rule="evenodd" d="M142.846 96.6958C128.13 103.517 85.9969 122.139 72.517 129.568C47.6227 103.105 31.7529 57.7337 35.8543 27.2396C54.1938 19.0782 92.7526 5.86834 108.264 0.873109C107.094 22.967 116.661 68.0277 142.846 96.6958Z" fill="white"/>
<path fill-rule="evenodd" clip-rule="evenodd" d="M143.315 96.2667C143.452 96.4163 143.509 96.6218 143.469 96.8204C143.429 97.0189 143.297 97.1866 143.113 97.2718C133.29 101.819 111.253 111.615 93.6717 119.835C84.924 123.925 77.2814 127.624 72.8043 130.088C72.5664 130.219 72.2699 130.172 72.084 129.975C60.0492 117.171 50.1169 99.9655 43.5147 82.1464C36.4035 62.9534 33.159 43.0492 35.2988 27.1641C35.3247 26.9713 35.4488 26.8058 35.6265 26.7266C42.9155 23.4821 53.3948 19.4418 64.3535 15.4328C80.9882 9.34783 98.7289 3.33689 108.086 0.319582C108.268 0.261115 108.467 0.295754 108.619 0.412262C108.77 0.52877 108.855 0.712362 108.844 0.903292C108.207 13.0488 110.838 32.1632 117.709 51.6507C123.279 67.4502 131.638 83.4964 143.315 96.2667ZM141.796 96.4814C130.324 83.6815 122.08 67.7473 116.565 52.0531C109.81 32.8284 107.15 13.9665 107.645 1.68251C98.1091 4.765 80.9012 10.5892 64.7408 16.4923C53.9502 20.4337 43.6275 24.4109 36.3694 27.6238C34.3405 43.3019 37.5806 62.8734 44.5871 81.7486C51.0874 99.2601 60.8322 116.172 72.6356 128.824C77.1729 126.349 84.6429 122.728 93.1569 118.736C110.278 110.709 131.628 101.182 141.796 96.4814Z" fill="black"/>
<path fill-rule="evenodd" clip-rule="evenodd" d="M53.1891 32.9337C53.3132 32.8933 53.4477 32.9096 53.5544 32.9772C53.6598 33.0449 53.7247 33.156 53.7275 33.2771L53.6991 33.2823C53.6991 33.2823 53.7524 34.7927 54.0362 36.9959C54.1769 38.0874 54.3739 39.3486 54.6489 40.6806C54.8538 41.6758 54.6591 42.3755 54.2621 42.9029C53.6658 43.6963 52.5412 44.0826 51.5134 44.482C51.1425 44.6256 50.8817 44.8203 50.6999 45.0212C50.3427 45.4158 50.2981 45.824 50.2981 45.824C50.2825 46.0125 50.1337 46.1632 49.9458 46.1828C49.7579 46.2024 49.5822 46.0855 49.5277 45.9043C49.5277 45.9043 49.4473 45.6302 49.2249 45.4739C49.1181 45.399 48.9737 45.3631 48.7841 45.4085C47.8141 45.6407 46.7118 46.0517 45.9321 45.9189C45.4106 45.8304 44.9957 45.5488 44.7744 44.9278C44.2604 43.481 43.9723 42.0065 43.8164 40.6976C43.5244 38.2377 43.6986 36.3637 43.6986 36.3637C43.7131 36.2043 43.8212 36.0685 43.9727 36.0174L53.1839 32.9049L53.1891 32.9337ZM52.9611 33.8503L44.487 36.699C44.452 37.2795 44.4 38.7724 44.6149 40.6033C44.7624 41.8587 45.0345 43.2733 45.5264 44.6611C45.6706 45.0691 45.9921 45.1666 46.3749 45.1518C47.0415 45.1257 47.8608 44.815 48.601 44.6389C49.0672 44.5281 49.4188 44.6438 49.6808 44.8286C49.7234 44.8588 49.7637 44.891 49.8005 44.925C49.8823 44.7848 49.9857 44.6376 50.1176 44.4923C50.3676 44.2172 50.7218 43.946 51.2287 43.75C52.1209 43.4054 53.1208 43.1198 53.6383 42.4334C53.9233 42.0561 54.0319 41.5502 53.8871 40.837C53.6096 39.4838 53.4115 38.2027 53.2715 37.0937C53.086 35.6429 52.9987 34.4868 52.9611 33.8503Z" fill="black"/>
<path fill-rule="evenodd" clip-rule="evenodd" d="M95.6051 19.5509L63.1689 30.9475C62.7629 31.0924 62.3155 30.8806 62.1706 30.4743C62.0257 30.0683 62.2376 29.621 62.6437 29.476L94.9642 17.7555C95.4596 17.5785 96.0055 17.8373 96.1824 18.3327C96.3591 18.8282 96.1006 19.3739 95.6051 19.5509Z" fill="black"/>
<path fill-rule="evenodd" clip-rule="evenodd" d="M100.41 41.1503L52.8355 58.457C52.6369 58.5296 52.4166 58.4273 52.344 58.2287C52.2714 58.0299 52.3738 57.8097 52.5724 57.7371L100.091 40.2767C100.332 40.1885 100.599 40.3126 100.687 40.5538C100.775 40.7948 100.651 41.0622 100.41 41.1503Z" fill="black"/>
<path fill-rule="evenodd" clip-rule="evenodd" d="M105.802 59.3236L58.2276 76.6304C58.0289 76.7029 57.8086 76.6006 57.7361 76.402C57.6634 76.2032 57.7658 75.983 57.9645 75.9104L105.483 58.4501C105.724 58.3618 105.991 58.4859 106.079 58.7272C106.167 58.9682 106.043 59.2356 105.802 59.3236Z" fill="black"/>
<path fill-rule="evenodd" clip-rule="evenodd" d="M96.5419 26.2453L70.2711 36.1308C70.0734 36.206 69.8517 36.1063 69.7768 35.9085C69.7016 35.7108 69.8013 35.4894 69.999 35.4143L96.2117 25.3755C96.4519 25.2845 96.7206 25.4054 96.8117 25.6454C96.9029 25.8853 96.7819 26.1543 96.5419 26.2453Z" fill="black"/>
<path fill-rule="evenodd" clip-rule="evenodd" d="M102.926 50.3345L65.3556 63.9242C65.1567 63.9966 64.9368 63.8941 64.8644 63.6953C64.7919 63.4965 64.8946 63.2765 65.0933 63.2041L102.607 49.4604C102.849 49.3725 103.116 49.497 103.203 49.7382C103.291 49.9795 103.167 50.2467 102.926 50.3345Z" fill="black"/>
<path fill-rule="evenodd" clip-rule="evenodd" d="M110.176 68.1197L72.6055 81.7094C72.4066 81.7818 72.1867 81.6793 72.1143 81.4804C72.0418 81.2816 72.1445 81.0616 72.3432 80.9892L109.857 67.2455C110.098 67.1577 110.366 67.2822 110.453 67.5234C110.541 67.7646 110.417 68.0318 110.176 68.1197Z" fill="black"/>
<path fill-rule="evenodd" clip-rule="evenodd" d="M125.36 91.6208L112.959 97.1588C112.766 97.2463 112.539 97.1609 112.452 96.9684C112.364 96.7757 112.45 96.5484 112.642 96.461L124.975 90.7738C125.209 90.6677 125.485 90.7713 125.591 91.0051C125.697 91.2388 125.594 91.5147 125.36 91.6208Z" fill="black"/>
<path fill-rule="evenodd" clip-rule="evenodd" d="M62.0105 102.855L80.4035 115.305L83.1268 111.636L103.74 83.4976L96.5407 78.4202L78.3277 102.623L67.5643 95.1535L62.0105 102.855Z" fill="url(#paint0_linear_466_10298)"/>
<path fill-rule="evenodd" clip-rule="evenodd" d="M87.2401 109.026L74.839 114.564C74.6464 114.651 74.419 114.566 74.3317 114.373C74.2443 114.181 74.3298 113.953 74.5222 113.866L86.8555 108.179C87.0895 108.073 87.3653 108.176 87.4715 108.41C87.5774 108.644 87.4738 108.92 87.2401 109.026Z" fill="black"/>
<path d="M174.097 131.325C167.922 131.976 99.1969 141.991 99.1969 141.991C99.1969 141.991 43.3547 126.149 38.9222 125.334C34.2697 124.481 32.1465 131.659 38.1439 133.361C44.226 135.088 95.5173 150.06 95.5173 150.06" stroke="black" stroke-width="1.6" stroke-linecap="round" stroke-linejoin="round"/>
<path d="M101.041 150.664C101.041 150.664 176.965 138.351 180.53 137.828C184.092 137.304 185.136 130.861 179.731 129.375C174.322 127.888 115.503 113.095 115.503 113.095" stroke="black" stroke-width="1.6" stroke-linecap="round" stroke-linejoin="round"/>
<path d="M35.3482 125.486C17.1232 97.2938 4.66729 61.3832 1.22024 46.6515C0.310898 42.7713 2.42565 39.9339 3.77064 39.6003C6.33795 38.9585 7.70408 40.6094 8.94333 44.6248C13.0502 57.9504 21.6276 90.7915 43.8368 123.472" stroke="black" stroke-width="1.6" stroke-linecap="round" stroke-linejoin="round"/>
<path d="M8.78679 43.1471C15.7359 43.1556 24.4698 42.9867 30.8564 42.0535" stroke="black" stroke-width="1.6" stroke-linecap="round" stroke-linejoin="round"/>
<path d="M35.5427 132.373C35.5427 132.373 24.7997 144.93 23.4632 147.054C22.1309 149.177 23.1417 149.79 25.0154 149.971C26.8891 150.149 28.4032 150.115 30.4926 149.503C32.5862 148.89 48.1255 142.337 48.1255 142.337" stroke="black" stroke-width="1.6" stroke-linecap="round" stroke-linejoin="round"/>
<path d="M44.4585 138.005C44.4585 138.005 56.5168 153.484 64.0876 160.426" stroke="black" stroke-width="1.6" stroke-linecap="round" stroke-linejoin="round"/>
<path d="M176.259 138.368L185.031 149.427" stroke="black" stroke-width="1.6" stroke-linecap="round" stroke-linejoin="round"/>
<path d="M36.9054 128.11C37.1274 127.797 37.9282 126.981 40.3221 127.935C42.716 128.889 93.9819 143.355 93.9819 143.355" stroke="black" stroke-linecap="round" stroke-linejoin="round"/>
<path d="M116.398 142.756L179.706 132.842" stroke="black" stroke-linecap="round" stroke-linejoin="round"/>
<path d="M116.911 118.726L170.096 131.663" stroke="black" stroke-linecap="round" stroke-linejoin="round"/>
<path d="M39.4593 121.652C28.1327 105.515 12.6865 73.2226 6.55792 44.9585C5.86428 41.758 3.64378 42.2055 3.64378 42.2055" stroke="black" stroke-linecap="round" stroke-linejoin="round"/>
<path d="M57.2487 147.59C57.2487 147.59 64.3289 155.08 67.9028 158.522C69.6158 158.37 71.2991 158.437 72.6822 158.116C69.0025 154.464 62.6667 148.101 57.0372 141.35" stroke="black" stroke-linecap="round" stroke-linejoin="round"/>
<path d="M32.5948 144.537C32.5948 144.537 37.2812 138.445 40.4617 134.56" stroke="black" stroke-linecap="round" stroke-linejoin="round"/>
<path d="M35.7922 140.366C35.7922 140.366 38.6049 139.213 39.8779 138.563" stroke="black" stroke-linecap="round" stroke-linejoin="round"/>
<path d="M86.5845 148.11C86.5845 148.11 97.9365 162.149 101.1 166.455C101.959 167.629 103.799 168.085 105.765 167.887C117.202 166.73 169.411 159.763 169.411 159.763" stroke="black" stroke-linecap="round" stroke-linejoin="round"/>
<path d="M101.176 154.477L107.267 161.3L131.1 158.42" stroke="black" stroke-linecap="round" stroke-linejoin="round"/>
<path d="M106.852 163.943C106.852 163.943 104.518 164.091 103.249 162.655C100.834 159.923 95.2296 152.648 95.2296 152.648" stroke="black" stroke-linecap="round" stroke-linejoin="round"/>
<path d="M177.464 147.911L170.976 139.335L165.194 140.256L168.95 145.149" stroke="black" stroke-linecap="round" stroke-linejoin="round"/>
<path d="M48.8659 124.827C71.3204 132.714 93.2039 134.627 116.06 131.984" stroke="black" stroke-linecap="round" stroke-linejoin="round"/>
<path d="M85.4693 128.634C85.4693 128.634 99.0545 127.426 113.194 120.134" stroke="black" stroke-linecap="round" stroke-linejoin="round"/>
<defs>
<linearGradient id="paint0_linear_466_10298" x1="82.2978" y1="103.133" x2="98.1156" y2="78.1991" gradientUnits="userSpaceOnUse">
<stop stop-color="#D3FFD4"/>
<stop offset="1" stop-color="white"/>
</linearGradient>
</defs>
</svg>
