<svg width="142" height="143" viewBox="0 0 142 143" fill="none" xmlns="http://www.w3.org/2000/svg">
<path d="M78 96L2 136H65.5L142 96H78Z" fill="url(#paint0_linear_466_10267)"/>
<path d="M5 4.50016L1.5 6.00016V16L4 17V23.5L5 30L7 36L9.5 43L13.5 50L18 56.5L24.5 62C25.5 63 27.5 65.5 27.5 67.5C27.5 69.5 26.8333 70.6667 26.5 71L23.5 75L18 81L13 88L10 94L6.5 102.5C6 106.167 4.9 114.2 4.5 117C4.1 119.8 4.33333 123.833 4.5 125.5L1.5 126L0.5 127V135.5L7 138.5L13.5 140L28 141.5L43.5 141L55.5 139.5L64.5 137L66 135.5V127L65 125L62 124L61.5 118.5L60.5 109.5L59 102.5L55.5 93.5L50.5 85.5L44 78.5C42.8333 77.3333 40.2 74.8 39 74C37.5 73 37 69 37.5 67C37.9 65.4 39.3333 63.6667 40 63L45 58L53 49L58.5 38L60.5 30L61.5 23C61.3333 21.1667 61.1 17.5 61.5 17.5C61.9 17.5 62.6667 15.8333 63 15L63.5 13L63 6.5L56.5 3.5L49.5 2L39.5 1.00016C37.8333 0.833491 32.6 0.600158 25 1.00016C17.4 1.40016 8.5 3.50016 5 4.50016Z" fill="white"/>
<path fill-rule="evenodd" clip-rule="evenodd" d="M65.3146 135.616C65.2446 135.717 64.9846 135.927 64.4696 136.236C63.0426 137.094 59.8561 138.433 53.4471 139.487C48.8276 140.247 42.5501 140.856 34.0751 141.021C25.8216 141.196 19.0206 140.484 13.7741 139.506C7.86906 138.404 3.94356 136.966 2.14906 136.065C1.71956 135.85 1.31206 135.568 1.24056 135.518C1.14656 135.216 1.10856 134.286 1.07106 133.164C0.984563 130.609 1.00906 127.119 1.00906 127.119C1.01106 126.842 0.787058 126.615 0.510058 126.613C0.232558 126.611 0.00555808 126.835 0.00355808 127.112C0.00355808 127.112 -0.0219367 130.626 0.0635633 133.198C0.109063 134.569 0.20956 135.687 0.33256 135.968C0.37406 136.063 0.475061 136.206 0.672061 136.36C0.873061 136.516 1.21406 136.725 1.69606 136.967C3.53206 137.889 7.54556 139.375 13.5886 140.499C18.8891 141.486 25.7596 142.196 34.0966 142.011C42.6301 141.807 48.9486 141.168 53.5961 140.379C60.1796 139.262 63.4406 137.842 64.9021 136.951C65.6806 136.476 65.9966 136.103 66.0626 135.974C66.1381 135.825 66.2111 134.996 66.2276 133.86C66.2691 131.016 66.1576 126.081 66.1576 126.081C66.1536 125.87 65.9786 125.702 65.7676 125.706C65.5561 125.71 65.3881 125.885 65.3921 126.096C65.3921 126.096 65.4561 130.022 65.4276 132.879C65.4181 133.828 65.3986 134.658 65.3626 135.184C65.3501 135.365 65.3221 135.565 65.3146 135.616Z" fill="black"/>
<path fill-rule="evenodd" clip-rule="evenodd" d="M4.82011 125.227C4.82011 125.227 2.65161 125.175 1.34411 125.647C0.582611 125.922 0.115106 126.4 0.159106 127.022C0.177606 127.288 0.319611 127.567 0.609111 127.837C0.908111 128.116 1.38811 128.401 2.02861 128.68C3.79161 129.447 6.83811 130.206 10.5136 130.866C14.2841 131.543 18.7201 132.125 23.1001 132.515C27.6661 132.92 32.1716 133.112 35.7981 133.03C39.7796 132.924 44.9591 132.403 49.8991 131.644C55.5211 130.781 60.8321 129.615 63.7351 128.489C65.1396 127.928 66.0081 127.049 66.0661 126.273C66.1226 125.519 65.4801 124.675 63.5991 124.281C63.4056 124.237 63.2131 124.358 63.1686 124.551C63.1246 124.745 63.2461 124.938 63.4396 124.982C64.1051 125.145 64.5836 125.348 64.8966 125.583C65.1521 125.775 65.2741 125.98 65.2501 126.199C65.2306 126.377 65.1201 126.548 64.9621 126.718C64.6336 127.074 64.0896 127.392 63.4111 127.64C60.5381 128.717 55.2881 129.782 49.7416 130.589C44.8436 131.301 39.7141 131.812 35.7706 131.898C32.6561 131.977 28.8871 131.837 24.9896 131.559C21.3761 131.301 17.6526 130.924 14.2376 130.457C9.54211 129.816 5.43211 129.018 3.01011 128.16C2.25361 127.892 1.66861 127.624 1.29661 127.349C1.10961 127.21 0.971613 127.098 0.959613 126.96C0.948113 126.826 1.02311 126.725 1.13161 126.637C1.34761 126.463 1.67311 126.341 2.03511 126.247C3.23211 125.934 4.80561 125.954 4.80561 125.954C5.00611 125.957 5.17211 125.797 5.17611 125.597C5.18011 125.396 5.02061 125.231 4.82011 125.227Z" fill="black"/>
<path fill-rule="evenodd" clip-rule="evenodd" d="M28.2159 119.083C30.5359 119.376 33.7249 119.557 37.1009 119.503C38.2749 119.484 39.4704 119.435 40.6589 119.35C41.4539 119.294 42.2454 119.219 43.0244 119.128C44.3834 118.97 45.7039 118.764 46.9419 118.518C49.2134 118.067 51.2029 117.474 52.6404 116.759C52.7489 116.708 52.7964 116.58 52.7459 116.471C52.6959 116.363 52.5669 116.315 52.4584 116.366C51.0194 116.985 49.0454 117.432 46.8109 117.769C45.5809 117.954 44.2724 118.102 42.9299 118.226C42.1584 118.298 41.3759 118.362 40.5904 118.421C39.4149 118.51 38.2334 118.585 37.0729 118.642C33.7324 118.807 30.5709 118.82 28.2619 118.637C28.1384 118.624 28.0284 118.714 28.0159 118.837C28.0029 118.96 28.0929 119.07 28.2159 119.083Z" fill="black"/>
<path fill-rule="evenodd" clip-rule="evenodd" d="M34.4071 93.4668C34.4071 93.4668 35.4461 95.9758 37.9111 99.1703C38.7326 100.235 39.7136 101.374 40.8696 102.518C41.8661 103.504 42.9916 104.495 44.2561 105.44C45.9311 106.692 47.8521 107.859 50.0161 108.87C52.7396 110.128 54.5441 111.649 55.7676 113.195C57.7471 115.696 58.2131 118.256 58.5801 119.86C58.6081 119.99 58.7356 120.072 58.8646 120.044C58.9941 120.016 59.0766 119.889 59.0486 119.76C58.7121 118.088 58.2901 115.423 56.3021 112.783C55.0586 111.131 53.2026 109.493 50.3771 108.111C48.2836 107.097 46.4431 105.917 44.8156 104.694C43.5866 103.77 42.4806 102.819 41.4946 101.875C40.3476 100.778 39.3596 99.6938 38.5241 98.6808C36.0166 95.6433 34.8806 93.2568 34.8806 93.2568C34.8226 93.1263 34.6696 93.0673 34.5386 93.1253C34.4081 93.1833 34.3491 93.3363 34.4071 93.4668Z" fill="black"/>
<path fill-rule="evenodd" clip-rule="evenodd" d="M56.8468 33.7778C56.6728 35.3813 56.0233 37.1113 55.0748 38.9148C54.5348 39.9413 53.8973 40.9893 53.1888 42.0488C52.4208 43.1968 51.5678 44.3543 50.6698 45.5108C49.8018 46.6288 48.8913 47.7458 47.9643 48.8418C44.9008 52.4633 41.6573 55.8588 39.2953 58.4223C36.0728 61.9333 34.5813 63.7793 33.8793 67.9248C33.3193 71.2308 33.2738 76.0218 33.2578 84.3718C33.2568 84.4638 33.3303 84.5388 33.4223 84.5398C33.5138 84.5408 33.5893 84.4668 33.5903 84.3753C33.7393 76.0718 33.8603 71.3083 34.4663 68.0288C35.2043 64.0343 36.6828 62.2803 39.8423 58.9313C42.2363 56.3838 45.5508 53.0338 48.6313 49.4078C49.8428 47.9813 51.0198 46.5128 52.0863 45.0328C53.3633 43.2618 54.4888 41.4783 55.3523 39.7488C56.4013 37.6468 57.0573 35.6243 57.1553 33.8028C57.1623 33.7178 57.0988 33.6433 57.0133 33.6363C56.9283 33.6293 56.8538 33.6928 56.8468 33.7778Z" fill="black"/>
<path fill-rule="evenodd" clip-rule="evenodd" d="M18.2994 53.3312C18.8404 54.3092 19.5594 55.1967 20.3619 56.0007C21.5909 57.2322 23.0149 58.2667 24.2779 59.1387C26.1519 60.4297 28.2599 60.8827 29.7369 63.4427C30.8344 65.3447 31.5814 68.3977 31.6604 73.7877C31.8164 81.3197 31.8924 86.1557 31.8384 89.1262C31.8014 91.1672 31.7144 92.2967 31.5199 92.8017C31.2264 93.5667 29.9579 96.8557 27.0249 100.252C25.3519 102.189 23.1374 104.162 20.2539 105.721C16.7064 107.641 14.3384 109.039 12.6199 110.5C10.9864 111.89 9.93287 113.336 9.01887 115.336C8.50537 116.462 8.21538 117.48 8.06038 118.349C7.70938 120.317 8.04538 121.532 8.04538 121.532C8.07238 121.633 8.17637 121.693 8.27737 121.666C8.37837 121.639 8.43837 121.535 8.41137 121.434C8.41137 121.434 8.11588 120.282 8.46988 118.425C8.62938 117.587 8.92137 116.608 9.43037 115.527C10.3334 113.607 11.3634 112.221 12.9549 110.898C14.6674 109.475 17.0229 108.124 20.5459 106.267C23.5239 104.694 25.8184 102.689 27.5569 100.715C30.6094 97.2477 31.9454 93.8727 32.2554 93.0877C32.5224 92.4082 32.6649 90.6612 32.6829 87.2162C32.6989 84.2072 32.6259 79.8717 32.5109 73.7712C32.3739 68.1812 31.5424 65.0247 30.3784 63.0667C28.7994 60.4107 26.6099 59.9377 24.6289 58.6202C23.3759 57.7892 21.9629 56.8022 20.7359 55.6202C19.9509 54.8642 19.2414 54.0297 18.7029 53.1027C18.6399 52.9912 18.4984 52.9517 18.3869 53.0152C18.2754 53.0782 18.2364 53.2197 18.2994 53.3312Z" fill="black"/>
<path fill-rule="evenodd" clip-rule="evenodd" d="M50.4682 38.9765C50.4682 38.9765 45.3312 41.939 39.0227 44.9995C37.4047 45.7845 35.7162 46.5915 34.0112 47.344C29.9387 49.141 25.7907 50.672 22.4457 51.1705C21.1967 51.3685 20.1952 51.42 19.4392 51.3455C18.9947 51.3015 18.6427 51.219 18.3857 51.0875C18.2057 50.995 18.0767 50.889 18.0282 50.7435C17.9862 50.619 18.0332 50.5015 18.1332 50.3855C18.2547 50.244 18.4362 50.11 18.6717 49.9795C19.1892 49.693 19.9377 49.4345 20.8927 49.212C24.4022 48.4055 27.5382 47.4125 30.3587 46.359C33.8182 45.066 36.7997 43.671 39.3592 42.2855C45.2227 39.102 50.1387 35.997 53.2872 34.338C54.5667 33.664 55.5447 33.228 56.1707 33.141C56.4277 33.105 56.6112 33.112 56.6952 33.2485C56.9242 33.6195 56.6697 34.161 56.3182 34.7055C55.6662 35.715 54.5802 36.701 54.5802 36.701C54.5027 36.771 54.4962 36.8905 54.5662 36.9685C54.6362 37.046 54.7562 37.052 54.8337 36.982C54.8337 36.982 56.2742 35.6875 56.8907 34.5185C57.1857 33.959 57.2812 33.4215 57.0462 33.034C56.8942 32.7825 56.5862 32.665 56.1147 32.7265C55.4587 32.8125 54.4257 33.2485 53.0822 33.9465C49.9232 35.5875 44.9962 38.6785 39.1182 41.8395C36.5757 43.2105 33.6262 44.623 30.1782 45.8675C27.3707 46.881 24.2322 47.7745 20.7377 48.502C19.4242 48.771 18.4652 49.1255 17.9012 49.5175C17.2642 49.96 17.0727 50.4815 17.2297 50.9985C17.3832 51.5025 17.8777 51.927 18.7802 52.136C19.6347 52.334 20.9022 52.35 22.5857 52.1205C26.0042 51.621 30.2592 50.101 34.4147 48.2555C36.1322 47.4925 37.8367 46.682 39.4492 45.8525C45.7132 42.6305 50.7032 39.3585 50.7032 39.3585C50.8087 39.2935 50.8417 39.1555 50.7767 39.05C50.7117 38.9445 50.5737 38.912 50.4682 38.9765Z" fill="black"/>
<path fill-rule="evenodd" clip-rule="evenodd" d="M1.05673 6.88911C1.05673 6.88911 0.970727 8.51461 0.940227 10.3621C0.899727 12.7791 0.942722 15.5716 0.942722 15.5716C0.942222 15.7831 1.11322 15.9551 1.32422 15.9556C1.53572 15.9561 1.70772 15.7851 1.70822 15.5736C1.70822 15.5736 1.76472 12.7816 1.73622 10.3641C1.71522 8.51661 1.63672 6.89061 1.63672 6.89061C1.63722 6.73061 1.50772 6.60011 1.34772 6.59961C1.18772 6.59961 1.05723 6.72911 1.05673 6.88911Z" fill="black"/>
<path fill-rule="evenodd" clip-rule="evenodd" d="M62.2602 6.85353C62.3152 6.96553 62.3502 7.16703 62.3937 7.42403C62.5312 8.23302 62.6127 9.48302 62.6267 10.727C62.6407 11.981 62.5872 13.229 62.4407 14.0045C62.4247 14.0875 62.3997 14.181 62.3762 14.2615C62.1662 14.2135 61.8172 14.128 61.4682 14.0165C59.3647 13.3465 55.0407 11.7785 47.7227 10.8005C43.5372 10.241 38.3697 9.87703 32.0772 9.98203C20.2327 10.188 11.0947 11.203 5.96272 12.4795C3.69672 13.0435 2.18022 13.6845 1.48972 14.306C1.10522 14.652 0.926223 15.017 0.899223 15.3635C0.861723 15.8425 1.10422 16.3695 1.80572 16.834C2.51622 17.304 4.61922 17.751 7.65822 18.081C13.1567 18.6775 21.8332 19.0265 30.6232 19.0255C42.4597 19.024 54.4997 18.3935 59.2852 17.073C59.4892 17.018 59.6097 16.808 59.5547 16.604C59.4997 16.4 59.2892 16.279 59.0857 16.334C54.3232 17.5915 42.3707 18.033 30.6272 17.943C21.8837 17.876 13.2557 17.5155 7.78822 16.9025C5.03372 16.5935 3.11272 16.261 2.46922 15.833C2.33722 15.7455 2.23272 15.6595 2.16022 15.5705C2.12772 15.531 2.09572 15.499 2.09872 15.459C2.10522 15.381 2.17422 15.318 2.25472 15.24C2.42372 15.0765 2.67022 14.919 2.98572 14.758C4.22572 14.127 6.41372 13.5315 9.41272 13.0085C14.7192 12.0835 22.5152 11.411 32.0977 11.272C38.3127 11.1775 43.4147 11.547 47.5482 12.1015C54.7472 13.0675 59.0017 14.6035 61.0717 15.262C61.6827 15.456 62.1257 15.575 62.4122 15.6025C62.7712 15.637 63.0132 15.546 63.1652 15.4335C63.3462 15.2995 63.5637 14.967 63.6832 14.4365C63.8312 13.7815 63.9122 12.7255 63.9277 11.5825C63.9487 10.0895 63.8627 8.44553 63.7012 7.38602C63.6122 6.80202 63.4822 6.37052 63.3577 6.16353C63.2542 5.99102 62.8667 5.63002 62.1262 5.21352C60.5182 4.30852 57.0092 2.83752 51.4207 1.69002C46.7462 0.730524 40.6032 -0.00497466 32.8887 2.53407e-05C26.8427 0.00552534 21.6917 0.460524 17.4427 1.09552C7.46322 2.58702 2.43522 5.07002 2.43522 5.07002C2.20322 5.18353 2.10672 5.46352 2.21972 5.69552C2.33322 5.92752 2.61372 6.02402 2.84572 5.91052C2.84572 5.91052 7.79622 3.52152 17.5927 2.12352C21.8022 1.52302 26.9027 1.10653 32.8862 1.13953C40.4997 1.17953 46.5582 1.94202 51.1667 2.91152C56.5552 4.04552 59.9412 5.46002 61.4912 6.33852C61.8587 6.54702 62.2167 6.82003 62.2602 6.85353Z" fill="black"/>
<path fill-rule="evenodd" clip-rule="evenodd" d="M3.60498 18.6924C3.60498 18.6924 3.13248 29.1444 8.31598 41.3589C10.978 47.6309 15.136 54.3589 21.588 60.3849C22.67 61.3919 23.953 62.3674 25.014 63.4599C26.0145 64.4894 26.8205 65.6214 26.954 67.0344C27.134 68.9414 26.106 71.2789 23.039 74.4749C21.325 76.2749 19.493 78.2344 17.6765 80.4604C14.2135 84.7029 10.784 89.8904 8.23049 96.6689C5.63349 103.562 3.95148 112.108 4.05098 122.987C4.05098 123.196 4.22049 123.366 4.42949 123.366C4.63849 123.366 4.80848 123.196 4.80848 122.987C4.90798 112.261 6.73149 103.874 9.39399 97.1174C11.9885 90.5339 15.3935 85.5104 18.8095 81.3924C20.6185 79.2119 22.4255 77.2794 24.123 75.5114C27.6215 71.8389 28.6315 69.0749 28.413 66.8924C28.238 65.1454 27.2845 63.7219 26.0365 62.4584C24.949 61.3569 23.639 60.3764 22.53 59.3629C16.146 53.5524 12.01 47.0194 9.31849 40.9249C4.04849 28.9909 4.32348 18.7179 4.32348 18.7179C4.33098 18.5199 4.17548 18.3529 3.97748 18.3459C3.77898 18.3389 3.61198 18.4939 3.60498 18.6924Z" fill="black"/>
<path fill-rule="evenodd" clip-rule="evenodd" d="M62.1234 128.368C62.1234 128.368 63.5549 110.212 56.2252 93.9267C53.1259 87.0409 48.455 80.5017 41.5047 75.7716C41.2424 75.5563 38.0818 72.883 38.223 68.8561C38.295 66.805 39.2326 64.4212 41.7799 61.816C47.3259 56.0891 53.554 50.8592 57.5803 41.9278C60.3463 35.7917 62.0681 27.908 61.8186 16.9271C61.8158 16.718 61.6434 16.5509 61.4346 16.5537C61.2254 16.5564 61.0579 16.7286 61.0613 16.9377C61.1176 27.7285 59.2926 35.4378 56.4892 41.4269C52.4076 50.147 46.2348 55.2125 40.7223 60.7801C37.8234 63.7358 36.8093 66.4735 36.73 68.8047C36.5632 73.7366 40.6196 76.931 40.6196 76.931C40.6341 76.9428 40.6491 76.9534 40.6642 76.964C49.266 82.682 54.3008 91.2813 57.2711 99.79C62.2875 114.159 61.4062 128.317 61.4062 128.317C61.3922 128.515 61.5418 128.687 61.7394 128.701C61.9375 128.715 62.1094 128.565 62.1234 128.368Z" fill="black"/>
<path fill-rule="evenodd" clip-rule="evenodd" d="M6.95486 126.036C9.66936 127.262 13.5044 128.101 17.6099 128.64C20.3034 128.993 23.1124 129.222 25.7924 129.355C28.8079 129.506 31.6589 129.529 33.9959 129.521C38.0169 129.486 44.2729 128.931 49.7169 128.204C54.4174 127.576 58.5134 126.817 60.0619 126.183C60.1849 126.134 60.2444 125.994 60.1954 125.871C60.1464 125.748 60.0069 125.688 59.8844 125.737C58.3444 126.336 54.2844 126.995 49.6339 127.539C44.2124 128.173 37.9899 128.646 33.9944 128.623C31.6704 128.623 28.8359 128.564 25.8359 128.431C23.1764 128.312 20.3869 128.13 17.7074 127.834C13.6594 127.386 9.86286 126.694 7.16136 125.561C7.03036 125.504 6.87736 125.564 6.82036 125.695C6.76336 125.826 6.82336 125.979 6.95486 126.036Z" fill="black"/>
<defs>
<linearGradient id="paint0_linear_466_10267" x1="72" y1="96" x2="72" y2="136" gradientUnits="userSpaceOnUse">
<stop stop-color="#D9D9D9" stop-opacity="0"/>
<stop offset="0.0001" stop-color="#5254CA" stop-opacity="0"/>
<stop offset="1" stop-color="#5254CA"/>
</linearGradient>
</defs>
</svg>
