<svg width="181" height="181" viewBox="0 0 181 181" fill="none" xmlns="http://www.w3.org/2000/svg">
<path d="M5 113.5C3 115.9 0.833333 124.833 0 129C17.2 172.2 68.8333 161.667 92.5 151L97 154L96 158L95.5 160.5L96.5 162.5L95.5 166.5L94 171.5L92 174.5L89 178L85 180C86 182 93.5 180.5 95.5 175L97.5 170.5L99.5 163.5C101.5 163.1 102.667 161 103 160L104 156.5H105H111L111.5 158L112.5 159L117.5 160L122.5 159L127 158L130 155.5L131 151.5L137.5 148.5L139.5 146L140.5 142L139.5 139.5L141.5 138.5L143.5 136L144 133.5L143.5 129L142 125.5L138.5 124L133 123H132H131.5L135.5 117.5L134.5 113L129 108.5L125.5 108L115 110L111.5 112C110.3 110 104 104.167 101 101.5L92 94.5L90.5 93.2435L89.5 92.5L87.5 93L86 89L85 87L88 79.5L90.5 71L91 67L90 63.5L88 62L89 60L90 56.5V54L88.5 51.5L90 46L90.5 41L93 39L93.5 35V30.5L93 28L92.5 26L95.5 20V18L95 16.5L92.5 14L88.5 10.5L83.5 7.5L76.5 4C73 3.16667 65.9 1.4 65.5 1C65.1 0.6 59.6667 0.5 57 0.5L47.5 1.5L38 3.5L35 6.5V11.5L32 20L29 24.5L28.5 27.5L29 29.5L30.5 30.5L29.5 34C29.5 35 29.6 37.5 30 39.5C30.5 42 30 46 30.5 48C30.9 49.6 30.6667 51.6667 30.5 52.5C28.9 54.5 29.1667 57.6667 29.5 59L33.5 73.5C32.7 79.5 33.8333 88.3333 34.5 92L29.5 96C28.1667 97.1667 24.5 100 20.5 102C16.5 104 12.5 107.5 11 109C9.5 109 7.5 110.5 5 113.5Z" fill="white"/>
<path fill-rule="evenodd" clip-rule="evenodd" d="M30.696 30.3585C29.6893 29.9506 28.9748 28.9887 28.8357 27.7789C28.7238 26.8065 28.9884 25.679 29.7526 24.5343C30.8102 22.9446 31.976 20.9118 32.9072 19.0838C33.7222 17.484 34.3551 16.0368 34.5991 15.1694C35.4117 12.2336 35.1847 9.53767 35.5617 7.52427C35.7491 6.52301 36.0905 5.707 36.9231 5.18025C38.502 4.17796 44.163 2.29728 51.274 1.54983C55.8694 1.06679 61.0696 1.05884 66.178 2.09247C72.0471 3.26764 76.832 4.95557 80.7162 6.77314C87.1055 9.76293 91.0457 13.1338 93.2617 15.3492C94.0714 16.1546 94.7411 16.9581 95.0351 17.8583C95.3113 18.7045 95.2407 19.6313 94.6487 20.7183C94.1714 21.5947 93.7194 22.5237 93.3335 23.3566C92.6361 24.8621 92.1574 26.0533 92.1574 26.0533C92.0881 26.2221 92.1688 26.4154 92.3375 26.4849C92.5064 26.5542 92.6998 26.4735 92.7691 26.3048C92.7691 26.3048 93.2607 25.1361 93.9796 23.664C94.3755 22.853 94.8416 21.9503 95.3301 21.0994C96.0852 19.7842 96.167 18.6455 95.8505 17.6016C95.5389 16.574 94.8173 15.6344 93.9178 14.7029C91.6841 12.4009 87.721 8.85408 81.2112 5.72892C77.2723 3.83808 72.3958 2.11483 66.4217 0.889929C61.1859 -0.172536 55.8547 -0.177391 51.1445 0.321398C43.7684 1.10254 37.913 3.12212 36.2773 4.16531C35.1551 4.88348 34.6379 5.95492 34.3958 7.31092C34.0395 9.30505 34.3095 11.9703 33.5388 14.8825C33.3231 15.7115 32.7392 17.095 31.9964 18.6318C31.1192 20.4473 30.0214 22.4716 29.0172 24.0568C28.1588 25.4167 27.9009 26.7457 28.0607 27.8781C28.2707 29.3671 29.1911 30.5257 30.4466 30.9972C30.6229 31.0659 30.8218 30.9788 30.8907 30.8026C30.9594 30.6263 30.8722 30.4274 30.696 30.3585Z" fill="black"/>
<path fill-rule="evenodd" clip-rule="evenodd" d="M30.4807 28.45C32.4002 27.5039 34.4148 26.7421 36.498 26.1332C38.539 25.5367 40.6467 25.1002 42.7999 24.793C45.3206 24.4334 47.9032 24.2552 50.517 24.2609C54.3443 24.2692 58.2353 24.6573 62.0794 25.3789C65.2615 25.9761 68.4101 26.8014 71.4654 27.8159C73.5297 28.5014 75.5497 29.2757 77.5109 30.1215C80.0366 31.2106 82.4628 32.4197 84.7431 33.7451C87.1518 35.1453 89.4019 36.6636 91.4365 38.2925C91.5772 38.4089 91.7858 38.3893 91.9021 38.2487C92.0185 38.1081 91.9989 37.8995 91.8582 37.7831C89.8488 36.0638 87.6225 34.4411 85.2207 32.9503C82.944 31.5374 80.5145 30.2374 77.9695 29.0845C75.9916 28.1884 73.9433 27.3842 71.8497 26.6723C68.7487 25.6182 65.5448 24.774 62.3077 24.1641C58.3886 23.4256 54.4187 23.03 50.5163 23.044C47.8424 23.0535 45.1985 23.2475 42.6278 23.6663C40.4291 24.0246 38.2849 24.5473 36.2169 25.2305C34.1107 25.9265 32.0874 26.7968 30.1655 27.8412C29.9975 27.9281 29.9317 28.1351 30.0187 28.3032C30.1057 28.4712 30.3127 28.537 30.4807 28.45Z" fill="black"/>
<path fill-rule="evenodd" clip-rule="evenodd" d="M90.5619 40.9941C91.7239 40.5126 92.5357 40.1818 93.1192 39.3164C93.4554 38.8177 93.7157 38.1347 93.8949 37.1257C94.0013 36.5267 94.0724 35.8056 94.1252 34.9317C94.2503 31.6828 94.3541 29.3091 92.8525 26.5482C91.8612 24.7255 90.16 22.7336 87.2756 20.202C87.1953 20.1286 87.0705 20.1342 86.9969 20.2145C86.9235 20.2948 86.9291 20.4196 87.0094 20.493C89.7179 23.0741 91.297 25.0782 92.1985 26.8887C93.5269 29.5572 93.341 31.8014 93.1256 34.8776C93.0855 35.7099 93.0184 36.3959 92.9331 36.9688C92.8061 37.8223 92.635 38.4096 92.3756 38.8446C91.9224 39.605 91.2335 39.8958 90.278 40.37C90.1059 40.4483 90.0295 40.6516 90.108 40.8239C90.1862 40.9962 90.3896 41.0724 90.5619 40.9941Z" fill="black"/>
<path fill-rule="evenodd" clip-rule="evenodd" d="M42.7293 51.3108C44.4586 49.7825 45.4928 47.5204 45.5331 45.2425C45.5719 43.049 44.7028 40.8396 42.652 39.261C39.5771 36.8868 36.1642 37.0067 33.62 38.5608C31.0145 40.1523 29.3111 43.2645 29.8552 46.8221C30.3224 49.9868 32.3534 52.1639 34.8674 53.0144C37.3365 53.8497 40.2858 53.4027 42.7293 51.3108ZM41.9561 50.4232C39.8766 52.2666 37.3375 52.7147 35.1939 52.0253C32.9963 51.3183 31.2271 49.426 30.7857 46.6786C30.2962 43.5272 31.7843 40.7491 34.0983 39.3469C36.3405 37.9883 39.3491 37.9412 42.0333 40.0545C43.7766 41.4311 44.5062 43.334 44.4478 45.216C44.3866 47.1826 43.4682 49.1249 41.9561 50.4232Z" fill="black"/>
<path fill-rule="evenodd" clip-rule="evenodd" d="M67.2757 53.835C69.1847 52.2347 70.1002 49.7595 69.9785 47.3378C69.8579 44.9358 68.7251 42.5943 66.5684 41.2322C63.7166 39.4253 60.3524 39.5704 57.8259 41.0313C55.2747 42.5064 53.5662 45.3172 54.1084 48.8545C54.5707 51.9742 56.6524 54.1926 59.2107 55.1532C61.7887 56.1212 64.8546 55.8052 67.2757 53.835ZM66.5251 52.9281C64.4607 54.6656 61.8114 54.9771 59.5715 54.1717C57.322 53.3629 55.4863 51.4334 55.0502 48.7093C54.5698 45.6094 56.0534 43.1298 58.2942 41.8445C60.5325 40.5609 63.5146 40.4669 66.0219 42.0863C67.8664 43.2812 68.8088 45.3156 68.8878 47.386C68.9671 49.4604 68.1769 51.5787 66.5251 52.9281Z" fill="black"/>
<path fill-rule="evenodd" clip-rule="evenodd" d="M81.4308 56.4585C80.8552 57.0551 80.4099 57.7137 80.1015 58.4083C79.8795 58.9087 79.7269 59.4253 79.6494 59.9356C79.5661 60.4836 79.5696 61.0241 79.6292 61.5302C79.7343 62.4225 80.0185 63.2067 80.4112 63.7895C80.4947 63.9346 80.6802 63.9846 80.8254 63.9012C80.9705 63.8177 81.0207 63.6321 80.9371 63.487C80.7155 63.0267 80.6015 62.4522 80.5612 61.8188C80.5267 61.277 80.578 60.6976 80.6779 60.0983C80.7514 59.6568 80.8484 59.2053 80.9976 58.7547C81.21 58.1129 81.4922 57.4689 81.9241 56.8712C82.038 56.7351 82.0199 56.532 81.8838 56.4182C81.7475 56.3043 81.5446 56.3224 81.4308 56.4585Z" fill="black"/>
<path fill-rule="evenodd" clip-rule="evenodd" d="M81.7738 53.8056C82.529 53.3659 83.2151 53.1173 83.8316 52.9934C84.6239 52.8342 85.2878 52.9272 85.8443 53.1903C86.0887 53.3058 86.3131 53.4496 86.5166 53.6234C86.8275 53.889 87.0945 54.2124 87.3087 54.5852C87.6608 55.1973 87.8923 55.9151 87.9607 56.6696C87.9628 56.7617 88.0391 56.8347 88.1312 56.8326C88.2233 56.8305 88.2965 56.7542 88.2944 56.6621C88.3381 55.6502 88.1296 54.6485 87.662 53.8497C87.3071 53.2435 86.8024 52.7527 86.1768 52.4663C85.6018 52.2034 84.9181 52.1119 84.158 52.2546C83.3806 52.4006 82.518 52.7992 81.5782 53.5129C81.4974 53.5669 81.4757 53.6762 81.5297 53.757C81.5837 53.8378 81.693 53.8594 81.7738 53.8056Z" fill="black"/>
<path fill-rule="evenodd" clip-rule="evenodd" d="M80.9917 51.0628C82.1308 50.1982 83.8351 50.0055 85.4393 50.4109C86.3083 50.6304 87.1408 51.0377 87.8404 51.6241C88.2814 51.9937 88.6609 52.44 88.965 52.9585C89.2457 53.437 89.4569 53.9782 89.5808 54.5894C89.6913 55.1346 89.7413 55.7305 89.7011 56.3868C89.6503 57.216 89.4748 58.1302 89.1348 59.1423C88.8573 59.968 88.4881 60.8531 87.9871 61.8027C87.939 61.8812 87.9637 61.9841 88.0423 62.0322C88.1207 62.0803 88.2236 62.0556 88.2717 61.977C89.0546 60.8629 89.6353 59.8266 90.0394 58.8533C90.3879 58.0136 90.6003 57.2256 90.7069 56.4915C90.8421 55.5606 90.8002 54.7147 90.6238 53.9618C90.485 53.37 90.2574 52.8351 89.9677 52.36C89.5815 51.7265 89.0827 51.1958 88.513 50.7719C87.9417 50.3469 87.3021 50.0229 86.6297 49.8108C84.5262 49.1471 82.1457 49.5032 80.7647 50.7938C80.6905 50.8565 80.6811 50.9676 80.7438 51.0418C80.8065 51.1161 80.9176 51.1253 80.9917 51.0628Z" fill="black"/>
<path fill-rule="evenodd" clip-rule="evenodd" d="M81.0284 58.6114C81.1516 58.5453 81.309 58.5468 81.4859 58.5677C81.7404 58.5977 82.0261 58.6958 82.3276 58.8234C82.8814 59.0579 83.4732 59.4102 83.9794 59.7567C83.7257 60.1432 83.5412 60.5471 83.4357 60.9725C83.3228 61.4264 83.2986 61.9028 83.3573 62.4019C82.8786 62.568 82.4862 62.741 82.0272 62.7887C81.5931 62.8337 81.0996 62.7652 80.3996 62.4603C80.272 62.3972 80.1172 62.4494 80.0541 62.577C79.991 62.7045 80.0434 62.8595 80.1709 62.9225C80.9658 63.3649 81.5484 63.4895 82.0684 63.4819C82.684 63.4726 83.2084 63.2491 83.9298 63.0995C84.1428 63.0463 84.2792 62.8383 84.2429 62.6217C84.1701 62.1157 84.206 61.6458 84.3241 61.2007C84.4428 60.7537 84.6481 60.3298 84.9569 59.929C85.0328 59.832 85.0654 59.7081 85.0468 59.5865C85.0283 59.4646 84.9603 59.356 84.8589 59.2862C84.0937 58.7946 83.0423 58.2265 82.1681 58.0115C81.5774 57.8664 81.0605 57.8794 80.7241 58.1005C80.5832 58.1844 80.537 58.3671 80.6209 58.5081C80.7049 58.6491 80.8875 58.6953 81.0284 58.6114Z" fill="black"/>
<path fill-rule="evenodd" clip-rule="evenodd" d="M84.1749 60.4357C85.5602 60.893 88.0459 61.5811 89.4653 63.7553C90.3535 65.1156 90.8102 67.0577 90.3321 69.8821C89.7027 73.63 87.9562 79.1497 85.1387 85.4282C83.0948 89.9828 80.483 94.9329 77.3058 99.8943C75.0103 103.479 72.4266 107.073 69.5375 110.521C65.3852 115.477 60.6158 120.14 55.2094 124.06C55.0936 124.142 55.0669 124.304 55.1497 124.42C55.2324 124.535 55.3936 124.562 55.5094 124.479C61.0095 120.601 65.8864 115.97 70.1269 111.021C73.0781 107.576 75.7266 103.982 78.0576 100.378C81.2842 95.3906 83.9147 90.3938 85.9554 85.7927C88.781 79.4223 90.4685 73.804 91.0729 70.0032C91.5564 66.938 91.0092 64.8441 90.0298 63.3821C88.4863 61.0776 85.8435 60.3399 84.3577 59.8699C84.2016 59.8195 84.0338 59.9052 83.9834 60.0614C83.9329 60.2176 84.0187 60.3852 84.1749 60.4357Z" fill="black"/>
<path fill-rule="evenodd" clip-rule="evenodd" d="M83.6637 62.4886C85.5049 63.1496 87.1223 63.6736 87.7922 65.4476C88.2264 66.5973 88.2631 68.2489 87.7588 70.7492C86.9135 74.9664 84.7551 81.096 81.3985 87.8884C79.6999 91.3256 77.6946 94.9321 75.3923 98.5467C70.1711 106.745 63.4182 114.983 55.1845 121.318C55.0566 121.415 55.032 121.599 55.1294 121.727C55.227 121.853 55.4099 121.878 55.5377 121.781C63.8916 115.466 70.7996 107.24 76.1036 99.0023C78.4417 95.3708 80.4669 91.7369 82.1709 88.2689C85.5504 81.3915 87.668 75.1653 88.4981 70.8951C89.018 68.2023 88.9303 66.4269 88.4525 65.1948C87.6898 63.2279 85.9377 62.5873 83.8822 61.8709C83.7118 61.8106 83.5244 61.9 83.4642 62.0704C83.4038 62.2409 83.4932 62.4284 83.6637 62.4886Z" fill="black"/>
<path fill-rule="evenodd" clip-rule="evenodd" d="M55.1485 120.128C54.8778 120.34 54.7116 120.703 54.6224 121.179C54.5101 121.777 54.529 122.584 54.4844 123.444C54.4854 124.326 54.6521 124.878 54.9114 125.192C55.2311 125.581 55.6762 125.703 56.214 125.594C56.6435 125.503 56.8593 125.325 56.9691 125.147C57.1715 124.819 57.0582 124.477 57.0582 124.477C57.0109 124.323 56.8477 124.238 56.6941 124.285C56.5405 124.332 56.4542 124.495 56.5016 124.648C56.5016 124.648 56.5109 124.745 56.4254 124.817C56.3623 124.87 56.2583 124.894 56.1067 124.91C55.8657 124.936 55.6654 124.897 55.5367 124.714C55.3709 124.482 55.3198 124.083 55.3507 123.467C55.3485 122.638 55.2951 121.87 55.3598 121.289C55.3916 121.002 55.4281 120.765 55.5764 120.625C55.7134 120.506 55.7287 120.3 55.6107 120.163C55.4925 120.025 55.2855 120.01 55.1485 120.128Z" fill="black"/>
<path fill-rule="evenodd" clip-rule="evenodd" d="M57.7162 119.971C57.8086 119.085 57.4912 118.592 56.9302 118.286C56.3718 117.982 55.4999 117.896 54.464 117.802C52.8102 117.655 51.8291 117.536 51.1964 117.83C50.6276 118.095 50.2649 118.662 50.0143 119.858C49.6706 121.519 49.4196 122.692 49.2386 123.583C49.1033 124.251 49.0069 124.762 48.9336 125.199C48.8097 125.961 48.8405 126.841 49.9038 127.444C50.5158 127.791 51.532 128.043 53.1957 128.059C55.0571 128.074 56.3516 127.983 57.1753 127.674C58.2616 127.267 58.6596 126.536 58.4748 125.23C58.419 124.835 58.3577 124.472 58.2931 124.119C58.193 123.571 58.0856 123.051 57.9788 122.478C57.9511 122.319 57.8002 122.213 57.6419 122.241C57.4835 122.269 57.3773 122.419 57.405 122.578C57.4984 123.152 57.5943 123.674 57.681 124.223C57.7357 124.569 57.7863 124.925 57.8311 125.312C57.9358 126.218 57.6898 126.739 56.9325 127.003C56.1574 127.272 54.9468 127.315 53.21 127.266C51.7513 127.228 50.8586 127.022 50.3257 126.711C49.6909 126.341 49.7083 125.799 49.7869 125.343L50.8295 120.023C50.9918 119.19 51.1489 118.745 51.5412 118.554C52.0913 118.288 52.9534 118.442 54.4049 118.544C55.3252 118.607 56.1044 118.639 56.6056 118.898C56.9449 119.074 57.1066 119.38 57.0638 119.911C57.0471 120.09 57.1797 120.251 57.3598 120.267C57.5399 120.283 57.6995 120.151 57.7162 119.971Z" fill="black"/>
<path fill-rule="evenodd" clip-rule="evenodd" d="M30.1872 52.3268C29.3906 53.7558 28.8929 54.6262 28.8025 56.1115C28.7259 57.3726 28.9602 59.0887 29.596 62.0174C29.9181 63.4286 30.3077 65.0113 30.7766 66.637C31.4349 68.92 32.239 71.2893 33.1401 73.4102C34.4646 76.5285 36.0395 79.1014 37.6945 80.1743C39.479 81.3219 42.9958 82.4676 46.589 83.213C50.2042 83.9631 53.891 84.3108 55.9332 83.9441C57.2823 83.6997 58.5296 83.3654 59.5934 83.0285C61.7227 82.3539 63.117 81.669 63.117 81.669C63.3147 81.5741 63.3983 81.3364 63.3034 81.1387C63.2085 80.9409 62.971 80.8574 62.7731 80.9523C62.7731 80.9523 61.412 81.5883 59.3397 82.1983C58.3023 82.504 57.0865 82.8016 55.7743 83.0107C53.8083 83.3273 50.2818 82.8946 46.8226 82.126C43.4025 81.366 40.0448 80.2754 38.3525 79.1625C36.8432 78.1779 35.4838 75.7772 34.2715 72.9291C33.3865 70.8499 32.6014 68.5273 31.9265 66.2971C31.4426 64.6981 31.0097 63.1481 30.6611 61.762C29.9313 58.9845 29.6275 57.3537 29.6449 56.1432C29.6643 54.7816 30.0988 53.9709 30.7619 52.6287C30.8452 52.4701 30.7841 52.2737 30.6255 52.1904C30.4669 52.1071 30.2705 52.1682 30.1872 52.3268Z" fill="black"/>
<path fill-rule="evenodd" clip-rule="evenodd" d="M34.7333 26.2272C34.1687 27.1559 33.4553 28.414 32.8652 30.0071C32.7078 30.4322 32.5627 30.8818 32.4335 31.3547C32.3133 31.7951 32.2074 32.2557 32.1212 32.7357C31.9637 33.612 31.8649 34.5512 31.8388 35.5479C31.8047 36.853 31.9027 38.2536 32.1618 39.7473C32.1833 39.9065 32.33 40.0185 32.4893 39.997C32.6487 39.9755 32.7605 39.8288 32.739 39.6695C32.5985 38.2112 32.6217 36.8559 32.7337 35.5994C32.8183 34.6518 32.9632 33.7645 33.1366 32.9327C33.2313 32.4788 33.3333 32.0417 33.441 31.6213C33.5568 31.169 33.6786 30.7364 33.804 30.3233C34.2802 28.7551 34.8323 27.479 35.3015 26.5413C35.3882 26.3846 35.3312 26.1869 35.1745 26.1002C35.0177 26.0135 34.8201 26.0703 34.7333 26.2272Z" fill="black"/>
<path fill-rule="evenodd" clip-rule="evenodd" d="M31.9762 27.439C31.2988 28.4323 30.5562 29.5023 29.9865 30.7831C29.8116 31.1764 29.6567 31.5901 29.5257 32.0255C29.4018 32.4372 29.3001 32.8689 29.2278 33.3213C29.098 34.1323 29.0538 35.0099 29.1209 35.9634C29.2023 37.1182 29.4514 38.3826 29.9084 39.786C29.952 39.9408 30.1128 40.0311 30.2676 39.9877C30.4224 39.9443 30.5127 39.7834 30.4693 39.6286C30.1444 38.2577 30.0192 37.0359 30.0168 35.9309C30.0149 35.0483 30.1042 34.245 30.2465 33.5001C30.3252 33.0886 30.4194 32.6954 30.5261 32.3171C30.6398 31.9138 30.7669 31.528 30.9042 31.1561C31.3715 29.8901 31.9642 28.791 32.5285 27.7805C32.6226 27.6281 32.5755 27.428 32.4231 27.3337C32.2708 27.2395 32.0706 27.2866 31.9762 27.439Z" fill="black"/>
<path fill-rule="evenodd" clip-rule="evenodd" d="M72.3925 27.7351C73.6646 30.8538 74.3495 33.9412 74.6611 37.2033C74.9525 40.2531 74.9229 43.4595 74.6217 46.9997C74.4399 49.2586 74.8043 50.4607 75.4786 51.0079C76.1218 51.5299 77.0859 51.5136 78.2755 51.1673C78.4303 51.1239 78.5208 50.9631 78.4774 50.8083C78.434 50.6535 78.2732 50.5631 78.1184 50.6065C77.1635 50.8637 76.3887 50.9459 75.8837 50.5189C75.3178 50.0403 75.1393 48.9887 75.334 47.0645C75.6808 43.4753 75.7919 40.2175 75.486 37.1233C75.1563 33.7884 74.35 30.6495 72.9913 27.4846C72.9222 27.3192 72.7318 27.2412 72.5665 27.3104C72.4013 27.3795 72.3232 27.5699 72.3925 27.7351Z" fill="black"/>
<path fill-rule="evenodd" clip-rule="evenodd" d="M89.8493 36.9358C89.9125 37.7949 89.9324 38.6483 89.9342 39.4941C89.9355 40.0667 89.9227 40.6345 89.9074 41.1974C89.8812 42.1609 89.8284 43.1077 89.7526 44.0313C89.5406 46.6154 89.1273 49.0139 88.5339 51.0282C88.4841 51.181 88.5679 51.3454 88.7207 51.3953C88.8736 51.445 89.0381 51.3613 89.0878 51.2084C89.8104 49.184 90.4376 46.7648 90.7366 44.1275C90.844 43.1807 90.9052 42.2056 90.9122 41.2147C90.9161 40.6357 90.896 40.0514 90.8587 39.4637C90.8039 38.5983 90.7044 37.7283 90.5729 36.8547C90.5505 36.6551 90.3703 36.5112 90.1706 36.5335C89.9709 36.5558 89.8269 36.7361 89.8493 36.9358Z" fill="black"/>
<path fill-rule="evenodd" clip-rule="evenodd" d="M85.9352 64.6412C85.6448 65.0717 85.2507 65.4335 84.7942 65.7361C84.3729 66.0156 83.8881 66.2142 83.3646 66.3604C82.9753 66.4692 82.5651 66.5448 82.1312 66.5757C81.5251 66.6191 80.8817 66.6026 80.2037 66.4331C80.0511 66.3824 79.886 66.4651 79.8353 66.6175C79.7845 66.7701 79.8672 66.9351 80.0196 66.9859C80.7494 67.2924 81.4652 67.4584 82.1529 67.474C82.6717 67.4857 83.1718 67.4108 83.6325 67.2684C84.1268 67.1157 84.576 66.8806 84.9709 66.5948C85.5974 66.1414 86.0867 65.5613 86.4032 64.9106C86.4775 64.7814 86.4331 64.6162 86.3039 64.5419C86.1747 64.4675 86.0095 64.512 85.9352 64.6412Z" fill="black"/>
<path fill-rule="evenodd" clip-rule="evenodd" d="M84.6004 66.0715C84.6004 66.0715 83.9636 67.3763 83.2913 69.1018C82.9139 70.0703 82.5317 71.1714 82.2312 72.2437C82.1303 72.6233 81.8403 72.8584 81.5541 72.8831C81.3134 72.9037 81.1292 72.7117 81.1089 72.3345C81.0736 71.8421 81.1108 71.0506 81.1614 70.2281C81.2575 68.6645 81.4168 66.997 81.4168 66.997C81.4392 66.8379 81.3281 66.6905 81.1689 66.6681C81.0097 66.6459 80.8623 66.757 80.8401 66.9162C80.8401 66.9162 80.5325 68.5812 80.3376 70.1517C80.2302 71.0182 80.1646 71.8555 80.1765 72.3783C80.2208 73.4805 80.9354 73.8981 81.6383 73.8342C82.2573 73.778 82.9219 73.2958 83.1211 72.4692C83.3618 71.4094 83.6889 70.3203 84.0021 69.3553C84.5657 67.6191 85.0942 66.29 85.0942 66.29C85.1545 66.1537 85.0929 65.9941 84.9566 65.9339C84.8204 65.8736 84.6607 65.9353 84.6004 66.0715Z" fill="black"/>
<path fill-rule="evenodd" clip-rule="evenodd" d="M81.5578 73.2507C81.5578 73.2507 81.2485 74.2421 80.9094 75.8144C80.7974 76.3332 80.6765 76.9133 80.5826 77.5447C80.5008 78.095 80.4349 78.6828 80.3931 79.296C80.3355 80.1413 80.3348 81.0302 80.346 81.9407C80.3382 82.1012 80.4622 82.2377 80.6228 82.2455C80.7834 82.2532 80.92 82.1291 80.9278 81.9686C81.0071 81.2615 81.1136 80.5735 81.2107 79.9046C81.2791 79.4335 81.3486 78.9757 81.4096 78.533C81.4586 78.1784 81.5004 77.8337 81.5412 77.5025C81.5855 77.1412 81.6246 76.7961 81.6627 76.4694C81.8803 74.6061 82.0832 73.3752 82.0832 73.3752C82.1175 73.2302 82.0278 73.0846 81.8827 73.0503C81.7378 73.0159 81.5921 73.1058 81.5578 73.2507Z" fill="black"/>
<path fill-rule="evenodd" clip-rule="evenodd" d="M39.158 42.7803C38.135 44.822 38.8342 47.767 40.3734 47.6025C41.8371 47.446 42.0884 44.6039 41.7575 43.3948C40.9885 42.7724 40.0298 42.4861 39.158 42.7803Z" fill="black"/>
<path fill-rule="evenodd" clip-rule="evenodd" d="M62.0289 44.6142C61.0059 46.6559 61.705 49.6009 63.2442 49.4364C64.7079 49.2799 64.9592 46.4378 64.6283 45.2287C63.8594 44.6063 62.9007 44.32 62.0289 44.6142Z" fill="black"/>
<path fill-rule="evenodd" clip-rule="evenodd" d="M36.4838 44.6845C37.0716 44.1941 37.6556 43.8605 38.2308 43.6211C38.6294 43.4552 39.0232 43.3688 39.4267 43.3353C39.7224 43.3107 40.0216 43.3048 40.3344 43.3567C40.5368 43.3903 40.7437 43.431 40.957 43.4983C41.4432 43.6513 41.9539 43.8791 42.4971 44.2316C42.622 44.3328 42.8055 44.3137 42.9067 44.1888C43.008 44.0639 42.9888 43.8804 42.8639 43.7792C42.2215 43.1394 41.5953 42.6986 40.9656 42.437C40.4134 42.2075 39.8597 42.1159 39.3241 42.1627C38.7808 42.2101 38.2525 42.3977 37.7589 42.7054C37.1608 43.0781 36.6185 43.6225 36.0936 44.3112C35.9906 44.4189 35.9943 44.59 36.102 44.693C36.2097 44.796 36.3808 44.7922 36.4838 44.6845Z" fill="black"/>
<path fill-rule="evenodd" clip-rule="evenodd" d="M59.3518 46.518C59.9396 46.0276 60.5236 45.6941 61.0987 45.4547C61.4973 45.2887 61.8912 45.2023 62.2947 45.1688C62.5904 45.1442 62.8895 45.1383 63.2023 45.1903C63.4048 45.2238 63.6117 45.2646 63.825 45.3318C64.3111 45.4848 64.8219 45.7126 65.3651 46.0651C65.49 46.1664 65.6735 46.1472 65.7747 46.0223C65.8759 45.8974 65.8568 45.7139 65.7319 45.6127C65.0895 44.9729 64.4633 44.5321 63.8335 44.2705C63.2813 44.041 62.7277 43.9495 62.1921 43.9962C61.6487 44.0436 61.1205 44.2312 60.6269 44.5389C60.0288 44.9116 59.4864 45.456 58.9616 46.1447C58.8586 46.2524 58.8623 46.4236 58.97 46.5266C59.0777 46.6296 59.2488 46.6257 59.3518 46.518Z" fill="black"/>
<path fill-rule="evenodd" clip-rule="evenodd" d="M46.6825 47.6348C46.7744 47.1132 46.957 46.6913 47.1848 46.3412C47.3555 46.0789 47.5731 45.8838 47.8322 45.7375C48.0794 45.598 48.3678 45.5145 48.7029 45.4837C49.2809 45.4309 49.9756 45.5239 50.7964 45.7918C51.6963 46.0858 52.7343 46.5622 53.9073 47.2696C54.0719 47.3788 54.2942 47.3338 54.4034 47.1691C54.5127 47.0045 54.4677 46.7822 54.303 46.673C53.1283 45.8189 52.0776 45.2133 51.1488 44.8331C50.1718 44.433 49.3205 44.2793 48.6124 44.3239C48.1763 44.3512 47.7875 44.4547 47.4537 44.6247C47.0765 44.8173 46.7593 45.0865 46.5209 45.4324C46.3494 45.6813 46.2057 45.9618 46.1172 46.2834C46.0104 46.6712 45.9618 47.1023 45.9805 47.5845C45.9667 47.7783 46.1126 47.9468 46.3064 47.9607C46.5 47.9746 46.6686 47.8286 46.6825 47.6348Z" fill="black"/>
<path fill-rule="evenodd" clip-rule="evenodd" d="M69.497 46.8391L73.022 46.9369C73.1888 46.9765 73.7013 47.0967 74.4111 47.2475C74.8366 47.3378 75.3327 47.4357 75.8674 47.5397C78.7345 48.0981 82.6815 48.8264 82.6815 48.8264C82.8038 48.8552 82.9264 48.7795 82.9552 48.6572C82.9841 48.5351 82.9083 48.4124 82.786 48.3835C82.786 48.3835 78.9299 47.2705 76.1155 46.4881C75.5907 46.3423 75.1032 46.2078 74.6822 46.0985C73.8175 45.874 73.2412 45.7416 73.2412 45.7416C73.2 45.7319 73.1579 45.7264 73.1157 45.7255L69.5238 45.6623C69.1991 45.6549 68.9294 45.9125 68.922 46.2373C68.9147 46.562 69.1723 46.8317 69.497 46.8391Z" fill="black"/>
<path fill-rule="evenodd" clip-rule="evenodd" d="M30.0918 43.9827C30.0918 43.9827 29.5099 43.9455 29.0064 43.9656C28.6187 43.9812 28.2829 44.0351 28.2829 44.0351C28.1 44.0351 27.9298 44.1284 27.8313 44.2823C27.7328 44.4363 27.7195 44.6298 27.7962 44.7959L28.8519 46.3467C28.9044 46.4608 29.0398 46.5107 29.1538 46.458C29.2678 46.4053 29.3176 46.2701 29.265 46.1561L28.9968 45.1763C29 45.1764 29.0033 45.1766 29.0064 45.1767C29.5099 45.1969 30.0918 45.1598 30.0918 45.1598C30.4167 45.1598 30.6803 44.896 30.6803 44.5713C30.6803 44.2464 30.4167 43.9827 30.0918 43.9827Z" fill="black"/>
<path fill-rule="evenodd" clip-rule="evenodd" d="M48.7784 48.4927C48.7784 48.4927 47.3241 51.6652 46.0966 54.5394C45.3494 56.289 44.6936 57.9304 44.4554 58.6758C44.0839 59.9595 44.2511 60.8995 45.1218 61.5176C45.4935 61.7814 46.012 61.9915 46.7092 62.1116C47.3282 62.2182 48.0932 62.2582 49.0306 62.2419C49.2011 62.2493 49.3458 62.1167 49.3531 61.946C49.3605 61.7755 49.2279 61.6309 49.0574 61.6235C48.3502 61.548 47.7548 61.443 47.2492 61.327C46.5539 61.1677 46.058 60.971 45.7279 60.7077C45.4368 60.476 45.3259 60.1808 45.331 59.8167C45.3347 59.5668 45.3853 59.2898 45.477 58.9837C45.645 58.3954 46.0711 57.2427 46.567 55.9126C47.7312 52.7898 49.3094 48.7168 49.3094 48.7168C49.3714 48.5702 49.3025 48.401 49.156 48.3391C49.0094 48.2773 48.8403 48.3461 48.7784 48.4927Z" fill="black"/>
<path fill-rule="evenodd" clip-rule="evenodd" d="M35.2978 35.3865C36.5096 34.9364 37.8573 34.6368 39.2349 34.5471C39.5608 34.5257 39.8879 34.52 40.216 34.5169C40.5399 34.5138 40.8637 34.5185 41.1894 34.531C41.8387 34.5556 42.4865 34.5922 43.1377 34.7578C43.4315 34.864 43.7563 34.7118 43.8626 34.418C43.9689 34.1242 43.8167 33.7995 43.5229 33.6931C42.8449 33.3679 42.1544 33.1282 41.4378 33.003C40.954 32.9186 40.4625 32.8949 39.9758 32.9121C39.2485 32.9377 38.5307 33.0661 37.8341 33.2462C36.779 33.519 35.7803 33.9275 34.8646 34.3948C34.591 34.5142 34.4657 34.8335 34.5854 35.1072C34.7049 35.3809 35.0242 35.5059 35.2978 35.3865Z" fill="black"/>
<path fill-rule="evenodd" clip-rule="evenodd" d="M67.653 33.8348C65.6657 32.5485 63.7667 31.7407 61.9085 31.4671C61.04 31.3392 60.1783 31.3243 59.3334 31.4423C58.8249 31.5133 58.3234 31.6349 57.8295 31.8031C57.1262 32.0427 56.4444 32.3705 55.7664 32.7783C55.4872 32.9183 55.3739 33.2586 55.5139 33.538C55.6538 33.8173 55.9942 33.9304 56.2734 33.7906C57.1782 33.414 58.0781 33.2094 58.9786 33.0854C59.4327 33.0229 59.8858 32.9849 60.3438 32.9734C60.7973 32.9621 61.2541 32.9712 61.7175 33.0149C63.4214 33.1756 65.203 33.7421 67.1016 34.766C67.3585 34.9181 67.6908 34.8331 67.8428 34.576C67.995 34.3191 67.91 33.9869 67.653 33.8348Z" fill="black"/>
<path fill-rule="evenodd" clip-rule="evenodd" d="M44.2617 68.8712C44.2617 68.8712 46.4189 69.3276 49.1929 69.6055C49.7276 69.6591 50.2848 69.7046 50.8541 69.7314C51.4035 69.7573 51.9638 69.7692 52.5237 69.758C53.2766 69.7428 54.0278 69.6907 54.7535 69.6057C55.9653 69.4634 57.098 69.2226 58.0517 68.8877C58.2062 68.8428 58.2952 68.6811 58.2503 68.5266C58.2056 68.3723 58.0439 68.2832 57.8894 68.328C56.7333 68.5986 55.3332 68.664 53.8733 68.673C53.2461 68.677 52.6093 68.6677 51.9762 68.6595C51.3319 68.6511 50.6923 68.643 50.0728 68.6314C46.9462 68.5728 44.3415 68.3444 44.3415 68.3444C44.1961 68.3224 44.0603 68.4226 44.0382 68.5679C44.0161 68.7133 44.1163 68.8491 44.2617 68.8712Z" fill="black"/>
<path fill-rule="evenodd" clip-rule="evenodd" d="M57.5034 67.7653C57.7016 67.9178 57.8254 68.1083 57.9385 68.3331C57.9984 68.4524 58.0558 68.581 58.1043 68.7314C58.1695 68.9328 58.2395 69.1559 58.2774 69.4316C58.279 69.5487 58.3754 69.6426 58.4925 69.641C58.6096 69.6394 58.7035 69.543 58.7018 69.4259C58.7466 68.9453 58.7269 68.561 58.6167 68.25C58.5716 68.1229 58.5076 68.01 58.433 67.9113C58.2515 67.6707 58.0203 67.5016 57.7415 67.3744C57.6336 67.3086 57.4927 67.3429 57.4269 67.4507C57.3613 67.5587 57.3956 67.6997 57.5034 67.7653Z" fill="black"/>
<path fill-rule="evenodd" clip-rule="evenodd" d="M32.9423 72.4652C32.328 76.7411 32.2703 82.3307 33.0451 88.3637C33.4798 91.7479 34.1725 95.2722 35.1668 98.7742C36.1275 102.158 37.3775 105.518 38.9122 108.724C41.2413 113.589 44.2523 118.087 48.0092 121.754C48.123 121.867 48.3076 121.867 48.4214 121.754C48.535 121.641 48.5348 121.455 48.4211 121.342C44.8113 117.65 41.9773 113.147 39.7756 108.32C38.3236 105.137 37.161 101.809 36.2236 98.4756C35.2516 95.0193 34.5309 91.556 34.0423 88.2266C33.1703 82.2851 33.0209 76.7755 33.5118 72.539C33.5323 72.3819 33.4212 72.2377 33.2641 72.2172C33.1068 72.1969 32.9626 72.308 32.9423 72.4652Z" fill="black"/>
<path fill-rule="evenodd" clip-rule="evenodd" d="M34.7937 79.7329C34.8844 83.795 35.4139 88.3168 36.4146 92.8969C37.0373 95.7477 37.8367 98.6226 38.8191 101.42C41.4188 108.821 45.2443 115.689 50.0735 120.327C50.1887 120.439 50.3732 120.438 50.4855 120.321C50.5977 120.207 50.5954 120.023 50.4802 119.909C45.7892 115.273 42.1991 108.425 39.6688 101.123C38.709 98.3537 37.8939 95.521 37.2406 92.7107C36.1898 88.19 35.5403 83.7331 35.3679 79.7142C35.3626 79.5558 35.2299 79.4315 35.0714 79.4366C34.9129 79.4418 34.7886 79.5746 34.7937 79.7329Z" fill="black"/>
<path fill-rule="evenodd" clip-rule="evenodd" d="M37.373 104.612C37.6834 108.196 38.2155 111.674 39.1096 115.125C39.6949 117.383 40.4319 119.63 41.3395 121.885C43.352 126.887 46.2007 131.932 50.0365 137.33C50.1283 137.461 50.31 137.495 50.442 137.402C50.574 137.311 50.6068 137.129 50.515 136.998C46.8294 131.576 44.1723 126.503 42.2212 121.535C41.3459 119.308 40.6125 117.101 39.998 114.886C39.0558 111.491 38.3829 108.083 37.9692 104.552C37.9524 104.387 37.8053 104.267 37.6406 104.284C37.4761 104.301 37.3562 104.448 37.373 104.612Z" fill="black"/>
<path fill-rule="evenodd" clip-rule="evenodd" d="M51.6498 127.664C51.2817 129.836 50.8216 131.685 50.4929 133.675C50.2824 134.949 50.1212 136.28 50.0569 137.775C49.9423 140.444 50.1467 143.639 50.8499 148.006C50.8725 148.165 51.0203 148.275 51.1795 148.253C51.3387 148.229 51.4494 148.082 51.4268 147.923C50.8889 143.599 50.8538 140.45 51.0047 137.824C51.0885 136.361 51.2339 135.064 51.4025 133.811C51.6719 131.813 51.9891 129.936 52.2432 127.749C52.2666 127.585 52.1526 127.433 51.9888 127.41C51.8251 127.386 51.6732 127.501 51.6498 127.664Z" fill="black"/>
<path fill-rule="evenodd" clip-rule="evenodd" d="M53.688 127.625C53.688 127.625 52.9761 131.414 52.7002 136.336C52.5474 139.065 52.5337 142.142 52.8269 145.11C53.2598 149.49 54.3789 153.627 56.6705 156.108C56.7781 156.229 56.9625 156.237 57.0819 156.13C57.2014 156.023 57.2111 155.839 57.1036 155.718C54.9582 153.276 54.0365 149.254 53.6984 145.032C53.464 142.104 53.5217 139.078 53.6785 136.392C53.9622 131.533 54.5895 127.786 54.5895 127.786C54.6337 127.537 54.4676 127.3 54.2188 127.256C53.97 127.211 53.7321 127.377 53.688 127.625Z" fill="black"/>
<path fill-rule="evenodd" clip-rule="evenodd" d="M37.9441 90.7077C37.9441 90.7077 38.4544 89.0485 39.2008 87.2965C39.3872 86.8591 39.5895 86.4171 39.7934 85.9886C39.932 85.6974 40.068 85.4117 40.2109 85.1428C40.4186 84.7515 40.6286 84.3937 40.8603 84.1009C41.1277 83.7631 41.396 83.4982 41.7111 83.3983C41.8675 83.3614 41.9646 83.2042 41.9276 83.0478C41.8907 82.8913 41.7337 82.7942 41.5772 82.8311C41.0204 82.9207 40.4667 83.322 39.9579 83.9264C39.5969 84.3551 39.2546 84.8867 38.9645 85.4717C38.6479 86.1097 38.3963 86.811 38.1823 87.4771C37.6525 89.1261 37.4016 90.5782 37.4016 90.5782C37.366 90.7279 37.4584 90.8784 37.6082 90.9141C37.7578 90.9499 37.9084 90.8573 37.9441 90.7077Z" fill="black"/>
<path fill-rule="evenodd" clip-rule="evenodd" d="M43.7316 82.2988C43.3971 82.9989 43.2048 84.2483 43.6352 85.7942C43.8206 86.4602 44.1182 87.1844 44.5914 87.9261C44.9669 88.5148 45.4472 89.122 46.0663 89.7062C46.7985 90.397 47.7256 91.0431 48.8378 91.685C48.9715 91.7743 49.1526 91.7383 49.2419 91.6045C49.3313 91.4708 49.2951 91.2896 49.1613 91.2005C48.4885 90.6776 47.921 90.1493 47.4108 89.6422C47.0231 89.2567 46.6809 88.8787 46.3693 88.5134C46.0788 88.1727 45.8168 87.8439 45.5856 87.5214C45.3247 87.1574 45.0977 86.8073 44.9095 86.4642C43.9702 84.751 43.9375 83.2827 44.2161 82.4992C44.2714 82.3655 44.2077 82.212 44.0739 82.1567C43.9402 82.1013 43.7867 82.1651 43.7316 82.2988Z" fill="black"/>
<path fill-rule="evenodd" clip-rule="evenodd" d="M43.3219 103.881C44.1942 101.596 45.3845 99.1244 46.5876 97.1827C47.2815 96.0627 47.9789 95.1271 48.6376 94.5273C48.9949 94.202 49.3224 93.9716 49.6429 93.9241C49.8633 93.8879 50.1246 93.9653 50.4124 94.0906C50.8267 94.2709 51.2767 94.5546 51.7269 94.8791C53.2536 95.9797 54.7585 97.5448 54.7585 97.5448C54.8643 97.6659 55.0485 97.6784 55.1696 97.5726C55.2908 97.4668 55.3032 97.2826 55.1975 97.1615C55.1975 97.1615 53.4163 94.9346 51.7248 93.7124C50.9144 93.1268 50.0978 92.8057 49.4926 92.8787C49.0948 92.933 48.6653 93.1275 48.2321 93.4669C47.6428 93.9285 47.0212 94.6653 46.4212 95.5916C45.0387 97.7261 43.7271 100.875 42.8267 103.709C42.779 103.845 42.8512 103.995 42.9879 104.043C43.1246 104.09 43.2743 104.018 43.3219 103.881Z" fill="black"/>
<path fill-rule="evenodd" clip-rule="evenodd" d="M76.8111 85.1764C74.1569 87.2492 71.4782 88.7909 68.557 90.0287C65.7851 91.2033 62.7953 92.1032 59.3947 92.904C58.6044 93.0933 57.5421 93.8878 56.4473 95.0019C54.639 96.8418 52.6805 99.5334 51.5213 101.253C51.0684 101.938 50.9944 102.98 51.1835 104.335C51.544 106.914 52.7687 110.747 52.7776 115.375C52.7751 115.537 52.9037 115.669 53.0645 115.671C53.2251 115.674 53.3577 115.546 53.3602 115.384C53.511 110.725 52.4341 106.821 52.1434 104.214C52.0261 103.164 52.0105 102.35 52.3719 101.828C53.3501 100.389 54.9185 98.2651 56.4509 96.5452C57.6436 95.2066 58.7858 94.0929 59.6353 93.8772C63.0703 92.9881 66.0888 92.0134 68.8737 90.7515C71.8156 89.4183 74.4962 87.7684 77.1395 85.5851C77.2524 85.4945 77.2703 85.3294 77.1797 85.2165C77.089 85.1037 76.924 85.0857 76.8111 85.1764Z" fill="black"/>
<path fill-rule="evenodd" clip-rule="evenodd" d="M58.468 96.5254C58.862 96.2994 59.2309 96.2769 59.716 96.7257C60.1174 97.0972 60.5776 97.7453 61.1589 98.7797C61.9557 100.151 62.8879 101.739 63.7682 103.054C64.595 104.29 65.3705 105.287 65.8024 105.748C66.1456 106.105 66.576 106.242 67.0149 106.236C67.8584 106.225 68.7036 105.704 68.7036 105.704C68.7936 105.654 68.8257 105.54 68.775 105.449C68.7242 105.359 68.61 105.327 68.5198 105.378C68.5198 105.378 67.7555 105.76 67.0313 105.705C66.7479 105.684 66.4724 105.584 66.2701 105.335C66.0425 105.058 65.7279 104.585 65.3438 103.999C64.9253 103.361 64.4389 102.585 63.919 101.768C63.2124 100.658 62.4421 99.475 61.7907 98.4054C60.9038 96.9843 60.2499 96.269 59.7141 95.9803C59.1401 95.6713 58.6729 95.7694 58.1953 96.0774C58.0717 96.1526 58.0324 96.3141 58.1076 96.4377C58.1828 96.5613 58.3444 96.6006 58.468 96.5254Z" fill="black"/>
<path fill-rule="evenodd" clip-rule="evenodd" d="M57.118 101.729C56.9306 101.312 56.2355 101.177 55.5466 101.522C54.9822 101.805 54.4484 102.412 54.2935 103.333C54.2144 104.298 54.561 104.819 55.0169 105.007C55.5566 105.231 56.2846 105.013 56.6679 104.507C56.7389 104.432 56.7353 104.313 56.66 104.242C56.5848 104.172 56.4661 104.175 56.3953 104.25C56.0954 104.508 55.638 104.583 55.3296 104.39C55.2181 104.32 55.1607 104.191 55.1227 104.02C55.088 103.864 55.0833 103.673 55.1179 103.44C55.1667 102.92 55.3949 102.533 55.677 102.28C55.9359 102.048 56.2243 101.907 56.4568 101.914C56.5393 101.917 56.6182 101.915 56.6538 101.973C56.7212 102.101 56.8798 102.151 57.008 102.083C57.136 102.016 57.1853 101.857 57.118 101.729Z" fill="black"/>
<path fill-rule="evenodd" clip-rule="evenodd" d="M21.4397 113.757C21.4315 113.708 21.4212 113.63 21.4219 113.563C21.4244 113.354 21.463 113.092 21.5367 112.767C21.7799 111.652 23.3309 108.231 24.9463 104.868C26.658 101.304 28.4397 97.8042 28.9623 97.2347C29.4855 96.6612 30.49 95.728 31.5596 94.8286C32.564 93.984 33.6234 93.1684 34.3991 92.7142C34.5255 92.6436 34.5707 92.4837 34.5002 92.3574C34.4296 92.231 34.2696 92.1857 34.1434 92.2563C33.328 92.6904 32.204 93.4807 31.1383 94.307C30.0027 95.1874 28.9355 96.1092 28.3751 96.6778C27.8182 97.2457 25.8189 100.759 23.9603 104.378C22.1981 107.809 20.5678 111.335 20.2933 112.482C19.8939 114.212 20.436 114.833 21.0629 115C21.5589 115.13 22.3789 114.907 23.3264 114.597C24.2213 114.296 25.1715 114.038 26.0221 113.826C26.5595 113.691 27.0574 113.576 27.4776 113.482C27.0868 114.155 26.5823 115.03 26.1135 115.862C25.5292 116.896 25.0013 117.866 24.8055 118.3C24.5037 118.972 24.2369 119.471 24.2129 120.012C24.1906 120.516 24.3452 121.069 24.9017 121.806C25.2248 122.233 26.1428 123.291 27.2505 124.534C29.6165 127.191 32.8439 130.706 32.8439 130.706C32.9122 130.784 33.0306 130.792 33.1082 130.724C33.1858 130.655 33.1936 130.537 33.1254 130.459C33.1254 130.459 30.06 126.809 27.808 124.059C26.7719 122.793 25.9094 121.722 25.6091 121.291C25.2495 120.778 25.1184 120.413 25.1461 120.071C25.1814 119.636 25.443 119.255 25.7053 118.722C25.8672 118.392 26.2483 117.739 26.6973 116.987C27.7495 115.223 29.1788 112.933 29.1788 112.933C29.2997 112.733 29.2928 112.481 29.1611 112.288C29.0293 112.095 28.7968 111.997 28.5665 112.037C28.5665 112.037 27.3122 112.237 25.7277 112.605C24.8422 112.811 23.8551 113.073 22.9239 113.373C22.4466 113.531 22.0155 113.683 21.664 113.742C21.5939 113.754 21.4981 113.757 21.4397 113.757Z" fill="black"/>
<path fill-rule="evenodd" clip-rule="evenodd" d="M26.4259 98.3649C24.8602 99.1628 23.4349 99.8654 22.1466 100.532C20.5386 101.364 19.1362 102.107 17.9138 102.805C17.103 103.268 16.3739 103.716 15.7142 104.148C14.4481 104.977 13.4353 105.752 12.61 106.525C10.7442 108.273 9.83801 110.019 9.317 112.619C9.29272 112.72 9.35452 112.821 9.45501 112.845C9.5555 112.87 9.65688 112.808 9.68116 112.707C10.365 110.302 11.3501 108.743 13.2151 107.216C14.0552 106.528 15.0759 105.857 16.3162 105.099C16.9783 104.694 17.7028 104.267 18.4921 103.796C19.6961 103.078 21.0543 102.27 22.5985 101.34C23.8413 100.591 25.1892 99.7483 26.6834 98.8218C26.8095 98.7507 26.8542 98.5906 26.7831 98.4645C26.7121 98.3384 26.552 98.2938 26.4259 98.3649Z" fill="black"/>
<path fill-rule="evenodd" clip-rule="evenodd" d="M10.9185 108.76C9.51494 109.189 8.40304 109.637 7.45048 110.292C6.46835 110.967 5.66146 111.863 4.88238 113.169C4.35592 114.083 3.75414 115.283 3.18664 116.657C2.72478 117.775 2.28308 119.01 1.87449 120.276C1.05244 122.826 0.383858 125.517 0.00395369 127.73C-0.0170867 127.83 0.0479471 127.93 0.149176 127.951C0.250406 127.972 0.349719 127.907 0.37076 127.807C0.899859 125.648 1.79091 123.057 2.73641 120.579C3.20459 119.354 3.69117 118.159 4.15406 117.06C4.71391 115.731 5.23389 114.54 5.72576 113.642C6.36815 112.425 7.05586 111.579 7.90719 110.916C8.76999 110.243 9.79038 109.75 11.0886 109.256C11.2254 109.209 11.2984 109.06 11.2516 108.923C11.2046 108.786 11.0553 108.713 10.9185 108.76Z" fill="black"/>
<path fill-rule="evenodd" clip-rule="evenodd" d="M69.4638 112.432C68.2664 115.234 66.4058 118.826 64.4037 122.394C63.6699 123.701 62.9256 125.01 62.175 126.27C60.9414 128.34 59.7095 130.285 58.5222 131.892C58.48 131.946 58.49 132.024 58.5445 132.067C58.5989 132.109 58.6773 132.099 58.7197 132.045C59.988 130.486 61.3425 128.605 62.6541 126.567C63.4519 125.325 64.2387 124.03 64.9797 122.718C67.0012 119.133 68.7389 115.451 69.894 112.612C69.9436 112.493 69.8874 112.357 69.7687 112.307C69.6499 112.258 69.5134 112.314 69.4638 112.432Z" fill="black"/>
<path fill-rule="evenodd" clip-rule="evenodd" d="M83.6951 96.0927C84.6946 95.2908 86.0571 94.3543 87.2836 93.7019C87.9491 93.3479 88.5714 93.0798 89.0676 92.9759C89.3079 92.9256 89.5066 92.9054 89.6434 92.9797C89.8536 93.0936 89.9905 93.2077 90.0898 93.3237C90.2278 93.4852 90.2952 93.6522 90.3844 93.8206C90.5399 94.1137 90.7344 94.4133 91.1817 94.7284C91.5717 94.9961 93.0396 95.999 94.9578 97.3494C96.0879 98.1452 97.3786 99.0544 98.6818 100.031C100.329 101.265 102.005 102.588 103.411 103.904C103.481 103.974 103.595 103.974 103.664 103.904C103.734 103.833 103.734 103.72 103.664 103.65C101.99 101.886 99.912 100.059 97.9387 98.4831C96.8511 97.6144 95.7987 96.82 94.8689 96.1518C93.2692 95.0021 92.0417 94.2186 91.6928 93.9816C91.3196 93.7337 91.203 93.4885 91.0735 93.255C90.9794 93.0851 90.8812 92.9187 90.7328 92.7558C90.5731 92.5809 90.3593 92.4056 90.0273 92.2404C89.7991 92.1271 89.4968 92.086 89.1356 92.1446C88.7063 92.2142 88.1714 92.4161 87.5901 92.7164C86.2107 93.4291 84.5375 94.68 83.3732 95.7109C83.2678 95.7997 83.2545 95.9575 83.3433 96.0628C83.4322 96.1682 83.5898 96.1816 83.6951 96.0927Z" fill="black"/>
<path fill-rule="evenodd" clip-rule="evenodd" d="M84.8467 87.5198C85.204 88.294 85.5187 89.1281 85.849 89.9412C86.0728 90.4922 86.3074 91.0306 86.5148 91.5553C86.7604 92.1757 86.9883 92.7647 87.1633 93.3112C87.1881 93.4068 87.286 93.464 87.3815 93.4392C87.4771 93.4143 87.5345 93.3165 87.5096 93.2208C87.3161 92.3009 87.0429 91.2358 86.6518 90.1625C86.544 89.8664 86.422 89.572 86.2926 89.2804C85.9893 88.5968 85.6404 87.9313 85.2933 87.2961C85.2317 87.173 85.0816 87.123 84.9583 87.1846C84.835 87.2463 84.7851 87.3965 84.8467 87.5198Z" fill="black"/>
<path fill-rule="evenodd" clip-rule="evenodd" d="M93.318 117.541C87.8425 121.07 84.8055 128.437 85.1387 135.898C85.3243 140.054 86.5577 144.239 88.9766 147.803C90.5114 150.064 92.5301 152.068 95.0533 153.669C102.693 158.476 111.361 158.308 118.048 154.599C124.688 150.916 129.385 143.745 129.204 134.504C129.113 130.648 128.065 127.076 126.302 123.987C124.465 120.765 121.859 118.069 118.81 116.113C112.798 112.258 105.053 111.268 98.0252 114.803C97.8309 114.897 97.7502 115.133 97.8448 115.327C97.9392 115.52 98.1736 115.6 98.3677 115.506C105.129 112.319 112.455 113.425 118.083 117.219C120.899 119.117 123.283 121.693 124.959 124.739C126.551 127.632 127.506 130.953 127.553 134.535C127.697 143.078 123.355 149.695 117.218 153.102C111.025 156.539 103.01 156.715 95.9199 152.287C93.5722 150.834 91.6958 148.994 90.246 146.927C87.9261 143.618 86.7016 139.72 86.4407 135.826C85.9668 128.749 88.6413 121.68 93.7547 118.2C93.9366 118.08 93.9864 117.834 93.8659 117.653C93.7454 117.471 93.4999 117.421 93.318 117.541Z" fill="black"/>
<path fill-rule="evenodd" clip-rule="evenodd" d="M90.0158 142.458C88.2272 137.691 88.2515 133.012 89.5886 128.959C90.5572 126.022 92.2228 123.421 94.3992 121.353C95.2732 120.524 96.2289 119.779 97.2538 119.132C98.7644 118.175 100.428 117.435 102.212 116.948C106.216 115.853 110.826 116.043 115.646 118.071C115.776 118.128 115.929 118.069 115.986 117.938C116.044 117.807 115.985 117.656 115.855 117.598C110.929 115.321 106.141 114.94 101.959 115.974C100.057 116.445 98.282 117.212 96.6785 118.218C95.5896 118.902 94.5811 119.7 93.6661 120.591C91.4036 122.798 89.7024 125.581 88.7614 128.697C87.4874 132.917 87.6091 137.756 89.605 142.62C89.6496 142.734 89.7777 142.79 89.891 142.745C90.0043 142.701 90.0602 142.572 90.0158 142.458Z" fill="black"/>
<path fill-rule="evenodd" clip-rule="evenodd" d="M108.231 153.91C109.082 153.957 109.918 153.954 110.749 153.875C111.314 153.822 111.87 153.735 112.42 153.61C112.641 153.56 112.859 153.502 113.075 153.433C113.399 153.332 113.717 153.213 114.026 153.073C114.8 152.725 115.515 152.286 116.218 151.807C116.343 151.74 116.389 151.584 116.321 151.459C116.253 151.332 116.096 151.286 115.971 151.354C115.428 151.578 114.879 151.754 114.32 151.932C113.954 152.05 113.586 152.155 113.216 152.265C112.91 152.356 112.607 152.452 112.301 152.543C111.995 152.634 111.689 152.727 111.382 152.815C110.352 153.107 109.307 153.346 108.217 153.469C108.096 153.473 107.999 153.574 108.003 153.697C108.006 153.817 108.109 153.913 108.231 153.91Z" fill="black"/>
<path fill-rule="evenodd" clip-rule="evenodd" d="M119.711 149.257C121.011 148.158 122.193 146.858 123.207 145.344C123.842 144.395 124.412 143.365 124.899 142.254C125.084 141.83 125.258 141.392 125.414 140.941C125.639 140.29 125.834 139.611 125.992 138.911C126.358 137.288 126.544 135.55 126.595 133.707C126.605 133.564 126.499 133.44 126.357 133.43C126.215 133.418 126.09 133.526 126.08 133.667C125.918 134.934 125.674 136.133 125.39 137.284C125.19 138.093 124.962 138.871 124.719 139.626C124.509 140.281 124.287 140.916 124.047 141.534C123.798 142.174 123.535 142.794 123.251 143.391C122.228 145.544 120.948 147.408 119.412 148.934C119.322 149.016 119.316 149.154 119.399 149.244C119.481 149.334 119.621 149.34 119.711 149.257Z" fill="black"/>
<path fill-rule="evenodd" clip-rule="evenodd" d="M110.801 133.912C110.608 132.135 109.253 130.97 107.665 130.695C106.878 130.559 106.026 130.659 105.233 131.015C104.537 131.329 103.896 131.86 103.364 132.588C102.674 133.614 102.457 134.926 102.779 136.09C103.092 137.219 103.87 138.203 105.108 138.59C105.242 138.64 105.39 138.574 105.44 138.44C105.492 138.306 105.424 138.157 105.29 138.107C104.337 137.681 103.813 136.824 103.654 135.894C103.5 134.992 103.718 134.013 104.304 133.283C104.716 132.731 105.217 132.351 105.741 132.095C106.326 131.81 106.944 131.68 107.543 131.72C108.839 131.807 110.018 132.591 110.366 133.99C110.387 134.11 110.502 134.189 110.623 134.168C110.742 134.148 110.823 134.033 110.801 133.912Z" fill="black"/>
<path fill-rule="evenodd" clip-rule="evenodd" d="M110.837 112.308C113.061 111.323 115.588 110.418 118.124 109.742C119.817 109.29 121.514 108.947 123.125 108.765C124.6 108.599 126.003 108.573 127.264 108.731C128.682 108.909 129.918 109.316 130.842 110.087C132.677 111.578 133.802 113.144 134.266 114.684C134.834 116.565 134.4 118.39 133.105 119.921C131.663 121.64 130.576 122.901 129.668 123.885C128.704 124.93 127.951 125.655 127.184 126.276C127.011 126.409 126.978 126.657 127.112 126.831C127.244 127.003 127.493 127.035 127.667 126.903C128.491 126.298 129.31 125.588 130.358 124.552C131.319 123.603 132.471 122.379 134.004 120.711C135.672 118.883 136.271 116.637 135.646 114.293C135.168 112.498 133.939 110.636 131.866 108.859C130.721 107.907 129.209 107.346 127.45 107.15C126.072 106.996 124.539 107.061 122.933 107.299C121.26 107.547 119.508 107.98 117.769 108.539C115.219 109.36 112.702 110.451 110.492 111.587C110.293 111.682 110.209 111.921 110.305 112.12C110.399 112.319 110.637 112.403 110.837 112.308Z" fill="black"/>
<path fill-rule="evenodd" clip-rule="evenodd" d="M126.435 111.039C125.396 111.281 124.428 111.538 123.549 111.932C122.905 112.221 122.312 112.579 121.782 113.017C121.254 113.455 120.794 113.98 120.398 114.59C119.892 115.373 119.497 116.303 119.221 117.428C119.169 117.599 119.268 117.78 119.438 117.833C119.611 117.884 119.792 117.786 119.843 117.615C120.327 116.247 120.994 115.246 121.782 114.451C122.096 114.135 122.43 113.856 122.781 113.594C123.018 113.418 123.258 113.247 123.51 113.086C123.885 112.846 124.276 112.622 124.69 112.409C125.289 112.1 125.915 111.806 126.591 111.532C126.726 111.489 126.801 111.344 126.758 111.208C126.716 111.072 126.572 110.996 126.435 111.039Z" fill="black"/>
<path fill-rule="evenodd" clip-rule="evenodd" d="M131.659 123.164C133.849 123.17 136.936 123.66 139.384 124.782C141.021 125.534 142.382 126.563 142.847 128.044C143.178 129.045 143.404 130.056 143.51 131.046C143.618 132.076 143.595 133.085 143.383 134.041C142.98 135.861 141.91 137.484 139.902 138.675C138.211 139.687 136.641 140.276 135.261 140.633C132.903 141.245 131.09 141.198 130.158 141.4C129.982 141.433 129.867 141.604 129.901 141.781C129.935 141.956 130.106 142.071 130.282 142.037C131.23 141.872 133.059 141.997 135.461 141.475C136.931 141.154 138.607 140.593 140.43 139.596C142.799 138.286 144.088 136.426 144.606 134.327C144.924 133.036 144.949 131.648 144.734 130.238C144.601 129.371 144.373 128.499 144.079 127.632C143.452 125.862 141.841 124.573 139.815 123.773C137.196 122.74 133.925 122.49 131.643 122.647C131.5 122.653 131.389 122.772 131.393 122.915C131.397 123.056 131.518 123.168 131.659 123.164Z" fill="black"/>
<path fill-rule="evenodd" clip-rule="evenodd" d="M136.969 128.241C136.244 128.104 135.345 127.892 134.284 127.817C133.712 127.778 133.095 127.779 132.449 127.842C131.097 127.976 129.614 128.384 128.057 129.133C127.894 129.208 127.822 129.399 127.895 129.562C127.969 129.726 128.162 129.799 128.325 129.726C129.502 129.231 130.631 128.972 131.675 128.81C132.409 128.696 133.104 128.641 133.75 128.604C134.316 128.571 134.843 128.544 135.332 128.537C135.938 128.527 136.475 128.522 136.941 128.522C137.019 128.529 137.088 128.474 137.096 128.396C137.105 128.318 137.047 128.248 136.969 128.241Z" fill="black"/>
<path fill-rule="evenodd" clip-rule="evenodd" d="M139.352 140.109C139.766 140.739 139.916 142.088 139.723 143.501C139.57 144.623 139.18 145.79 138.449 146.67C138.057 147.15 137.369 147.62 136.533 148.104C135.85 148.5 135.066 148.89 134.245 149.274C131.631 150.495 128.607 151.602 126.952 152.134C125.474 152.623 124.539 152.844 123.741 152.701C123.111 152.588 122.58 152.249 121.925 151.68C121.746 151.515 121.466 151.528 121.303 151.708C121.138 151.887 121.152 152.167 121.331 152.332C122.109 153.076 122.769 153.498 123.544 153.673C124.459 153.879 125.557 153.719 127.289 153.229C128.992 152.732 132.134 151.737 134.818 150.516C135.689 150.119 136.508 149.693 137.22 149.261C138.207 148.662 138.987 148.037 139.436 147.447C140.25 146.356 140.671 144.956 140.774 143.612C140.903 141.928 140.55 140.356 140.013 139.644C139.885 139.462 139.632 139.418 139.449 139.547C139.268 139.675 139.224 139.927 139.352 140.109Z" fill="black"/>
<path fill-rule="evenodd" clip-rule="evenodd" d="M130.626 151.725C130.43 153.304 129.991 154.575 128.975 155.593C128.149 156.421 126.944 157.079 125.19 157.607C124.274 157.903 123.16 158.186 121.977 158.446C120.37 158.801 118.634 159.107 117.046 159.217C115.574 159.318 114.238 159.274 113.275 158.958C112.731 158.778 112.307 158.525 112.082 158.141C112.01 158.007 111.844 157.959 111.71 158.031C111.577 158.103 111.527 158.269 111.599 158.403C112.113 159.429 113.655 159.96 115.641 160.091C117.447 160.209 119.623 160.028 121.646 159.675C123.089 159.421 124.449 159.071 125.546 158.728C127.503 158.075 128.833 157.282 129.727 156.312C130.843 155.1 131.298 153.623 131.429 151.803C131.451 151.581 131.288 151.383 131.065 151.361C130.845 151.339 130.646 151.503 130.626 151.725Z" fill="black"/>
<path fill-rule="evenodd" clip-rule="evenodd" d="M88.6311 119.448C86.9219 120.388 84.2499 121.839 82.206 123.992C80.9699 125.292 79.9783 126.853 79.5059 128.66C79.2033 129.917 79.3513 130.847 79.7071 131.649C80.229 132.826 81.2604 133.682 81.7434 135.077C82.411 136.976 82.9279 138.287 83.4805 139.145C83.9393 139.856 84.422 140.274 85.0123 140.468C85.1548 140.519 85.3125 140.446 85.3644 140.303C85.4162 140.16 85.3428 140.003 85.2002 139.951C84.7362 139.766 84.3835 139.394 84.0486 138.801C83.5663 137.947 83.1448 136.659 82.6051 134.8C82.1816 133.364 81.1982 132.439 80.7145 131.225C80.4678 130.605 80.3832 129.899 80.641 128.952C81.0501 127.33 81.9566 125.95 83.0337 124.758C84.9472 122.64 87.4299 121.12 89.035 120.147C89.2281 120.035 89.2941 119.788 89.1827 119.595C89.0712 119.403 88.8242 119.336 88.6311 119.448Z" fill="black"/>
<path fill-rule="evenodd" clip-rule="evenodd" d="M96.503 154.359C96.0513 155.952 95.6148 157.278 95.3541 158.401C95.0671 159.638 94.9911 160.646 95.2037 161.455C95.4832 162.521 96.2348 163.306 97.7571 163.829C99.2231 164.289 100.262 164.163 101.021 163.759C102.064 163.208 102.595 162.126 102.967 161.261C103.289 160.502 103.606 159.641 103.875 158.857C104.33 157.527 104.651 156.422 104.651 156.422C104.699 156.279 104.623 156.123 104.48 156.075C104.336 156.024 104.18 156.102 104.131 156.245C104.131 156.245 103.611 157.571 102.948 159.035C102.673 159.641 102.373 160.271 102.075 160.839C101.742 161.479 101.321 162.313 100.496 162.684C99.9434 162.932 99.2127 162.93 98.1994 162.547C96.881 162.098 96.4256 161.401 96.4068 160.291C96.3961 159.66 96.4905 158.923 96.6415 158.056C96.8164 157.05 97.0486 155.888 97.2896 154.541C97.3399 154.325 97.2046 154.107 96.9874 154.057C96.7704 154.007 96.5534 154.143 96.503 154.359Z" fill="black"/>
<path fill-rule="evenodd" clip-rule="evenodd" d="M95.9051 162.741C95.4924 164.423 94.967 166.63 94.154 168.934C93.878 169.717 93.5724 170.511 93.2233 171.301C92.7206 172.439 92.1331 173.569 91.4082 174.628C89.9138 176.815 87.8675 178.72 84.9613 179.859C84.8191 179.91 84.7456 180.069 84.7976 180.21C84.8495 180.353 85.0074 180.427 85.1498 180.375C88.2636 179.32 90.5219 177.421 92.186 175.183C92.9924 174.098 93.6616 172.935 94.2089 171.746C94.5848 170.929 94.9046 170.101 95.1743 169.281C95.9501 166.921 96.345 164.642 96.6931 162.918C96.7417 162.7 96.6047 162.484 96.3872 162.435C96.1698 162.386 95.9538 162.523 95.9051 162.741Z" fill="black"/>
<path fill-rule="evenodd" clip-rule="evenodd" d="M98.9447 164.046C98.7148 165.017 98.4401 166.159 98.1227 167.402C97.8556 168.448 97.5567 169.565 97.1779 170.698C96.7105 172.097 96.1415 173.526 95.3785 174.881C95.3005 175.01 95.3427 175.179 95.4728 175.257C95.6027 175.335 95.7716 175.293 95.8496 175.163C96.9322 173.461 97.7369 171.633 98.3319 169.866C98.5894 169.101 98.8079 168.348 98.9917 167.624C99.3096 166.372 99.5262 165.205 99.7328 164.222C99.7814 164.004 99.6444 163.788 99.4269 163.74C99.2094 163.691 98.9934 163.828 98.9447 164.046Z" fill="black"/>
<path fill-rule="evenodd" clip-rule="evenodd" d="M126.186 95.8438C146.57 89.3808 172.818 78.7197 179.119 62.4373C185.417 46.1546 170.249 29.0274 150.188 37.0405C145.321 20.9146 120.654 19.1062 112.151 35.2054C110.263 38.778 109.301 42.515 109.039 46.3552L125.052 51.6649L126.224 52.9048L128.327 60.8157L140.905 39.9962L144.052 40.7849L144.903 58.7225L153.919 61.4085C154.775 60.0477 156.348 59.2576 157.996 59.6333C161.188 60.3599 161.878 64.4796 159.092 66.9357C157.161 68.639 153.955 67.7628 153.344 64.6817C153.34 64.6604 153.336 64.6391 153.332 64.6179L142.846 61.5497L141.664 60.0509L140.957 46.5206L129.203 66.1938L125.986 65.7423L123.012 54.7758L109 50.2053C109.53 61.9214 115.699 74.3836 121.413 85.9296C123.095 89.3278 124.738 92.6467 126.186 95.8438Z" fill="url(#paint0_linear_466_10166)"/>
<defs>
<linearGradient id="paint0_linear_466_10166" x1="140.699" y1="30.935" x2="124.201" y2="102.918" gradientUnits="userSpaceOnUse">
<stop stop-color="#06C0AA"/>
<stop offset="1" stop-color="#06C0AA" stop-opacity="0"/>
</linearGradient>
</defs>
</svg>
