<svg width="132" height="139" viewBox="0 0 132 139" fill="none" xmlns="http://www.w3.org/2000/svg">
<path d="M46.2146 34.8431C48.8453 26.9199 54.0234 10.8516 55.8702 6.25964C57.7188 1.66597 60.8107 0.448618 64.1645 0.471162C67.5183 0.495439 118.423 2.50701 123.074 2.85904C127.723 3.20933 128.181 5.47929 129.489 7.70069C130.798 9.92036 132.031 12.8163 131.065 16.2898C130.099 19.7649 101.594 119.527 99.0653 128.024C96.537 136.52 90.4988 137.999 87.0392 137.872C83.5779 137.746 36.1862 133.422 31.1122 132.864C26.0382 132.307 21.1861 127.476 21.3526 123.228C21.5191 118.979 21.8676 115.318 21.8676 115.318L0.66806 114.482L1.14147 35.1882C21.7809 34.6783 46.2146 34.8431 46.2146 34.8431Z" fill="white"/>
<path d="M49.4781 34.7221C49.5908 34.3805 56.1198 14.1278 58.3811 8.00981C60.6424 1.89358 62.2863 3.68665 66.3615 3.82365C70.4367 3.96064 113.899 5.35834 118.094 5.81615C122.29 6.27569 123.301 9.57051 122.422 12.652C121.545 15.7336 108.298 62.3882 108.298 62.3882C108.298 62.3882 108.221 43.0077 108.263 35.6256C96.1692 34.9788 57.4655 34.5088 49.4781 34.7221Z" fill="url(#paint0_linear_548_8468)"/>
<path d="M24.5242 115.246C23.8253 120.311 23.4109 122.312 28.915 122.638C34.4173 122.964 76.298 127.652 81.7847 127.756C87.1674 127.858 89.6264 126.831 91.0328 122.559C92.0351 119.517 93.0703 115.692 93.0703 115.692C93.0703 115.692 24.5294 115.215 24.5242 115.246Z" fill="url(#paint1_linear_548_8468)"/>
<path fill-rule="evenodd" clip-rule="evenodd" d="M58.5379 2.81129C58.7758 3.04738 58.7773 3.43167 58.5413 3.66962C57.7278 4.48948 57.0166 5.55971 56.4807 6.90698L56.4806 6.90725C55.6914 8.88847 53.2834 15.9119 51.0645 22.4663C49.957 25.7378 48.8992 28.8843 48.1183 31.2131C47.7278 32.3775 47.4066 33.3373 47.183 34.0061C47.0712 34.3405 46.9838 34.6021 46.9244 34.7801L46.8335 35.0521C46.8335 35.0523 46.8335 35.0524 46.3465 34.8899L46.8335 35.0524C46.7274 35.3703 46.3836 35.5421 46.0656 35.436C45.7477 35.33 45.5759 34.9862 45.682 34.6682L46.1714 34.8315C45.682 34.6682 45.682 34.6681 45.6821 34.6679L45.773 34.3955C45.8325 34.2174 45.9199 33.9557 46.0318 33.6212C46.2555 32.9521 46.5768 31.9919 46.9674 30.8272C47.7485 28.4977 48.8067 25.35 49.9147 22.0771C52.1268 15.5431 54.5482 8.47804 55.3528 6.4583C55.944 4.97201 56.7415 3.76014 57.6795 2.81467C57.9156 2.57671 58.2999 2.5752 58.5379 2.81129Z" fill="black"/>
<path fill-rule="evenodd" clip-rule="evenodd" d="M63.7093 1.39093C71.0298 1.16471 105.075 2.14131 123.16 3.59506L63.7093 1.39093ZM123.16 3.59506C124.851 3.73149 125.926 4.18001 126.732 4.82865C127.555 5.49132 128.149 6.40242 128.815 7.58221L128.816 7.5827C129.635 9.03068 130.267 10.2322 130.577 11.5505C130.883 12.8501 130.885 14.3017 130.364 16.2371C129.185 20.6189 100.06 122.359 98.5206 127.576C97.7735 130.107 96.46 132.55 94.4315 134.321C92.4151 136.082 89.6554 137.212 85.9357 137.072C78.2304 136.786 38.0269 132.809 31.1637 132.016C24.6294 131.261 21.5834 125.794 21.7653 122.529C21.8638 120.762 22.0332 119.52 22.1757 118.727C22.247 118.33 22.3115 118.045 22.357 117.864C22.3798 117.773 22.3978 117.708 22.4095 117.667C22.4154 117.647 22.4197 117.633 22.4222 117.624L22.4244 117.617L22.4245 117.617C22.4246 117.617 22.4247 117.616 22.4248 117.616C22.4248 117.616 22.4248 117.616 22.4248 117.616C22.5285 117.298 22.3553 116.956 22.0373 116.851C21.7188 116.747 21.3758 116.92 21.2712 117.238L21.7235 117.387C21.2712 117.238 21.2711 117.239 21.2711 117.239L21.2709 117.239L21.27 117.242L21.268 117.248C21.2665 117.253 21.2646 117.259 21.2622 117.267C21.2575 117.282 21.2511 117.303 21.2432 117.33C21.2275 117.385 21.2057 117.464 21.1795 117.569C21.1271 117.778 21.0569 118.089 20.981 118.512C20.8291 119.357 20.6543 120.649 20.5533 122.461C20.3364 126.354 23.8384 132.392 31.0244 133.222C37.8815 134.014 78.1303 137.997 85.8903 138.285C89.9047 138.436 92.9699 137.209 95.2299 135.236C97.4777 133.273 98.892 130.606 99.6848 127.919C101.225 122.7 130.353 20.9488 131.536 16.5525C132.1 14.4544 132.118 12.7967 131.759 11.2723C131.404 9.76653 130.69 8.42933 129.872 6.98481C129.2 5.79425 128.511 4.70263 127.493 3.88318C126.458 3.04958 125.135 2.53654 123.257 2.38511C105.144 0.92904 71.0501 -0.0504421 63.6715 0.177636L63.6712 0.177646C62.4285 0.216713 61.1803 0.514601 60.0162 1.10694C59.7174 1.25895 59.5984 1.62437 59.7505 1.92312C59.9025 2.22188 60.2679 2.34083 60.5667 2.18882C61.5631 1.68177 62.6351 1.42475 63.709 1.39094" fill="black"/>
<path fill-rule="evenodd" clip-rule="evenodd" d="M65.5918 3.99137C61.2578 3.99137 59.2579 6.90648 58.8027 8.31342L58.8015 8.31709L50.5416 32.2844C50.4685 32.4964 50.2374 32.6091 50.0253 32.536C49.8132 32.4629 49.7005 32.2318 49.7736 32.0197L58.0311 8.0596C58.5709 6.39665 60.8314 3.17905 65.5918 3.17905C70.1519 3.17905 101.81 4.44333 117.056 5.07482C117.617 5.09821 118.491 5.18879 119.302 5.38737C119.707 5.48662 120.11 5.61603 120.455 5.7848C120.792 5.94998 121.116 6.17354 121.31 6.48386C121.429 6.67408 121.371 6.92467 121.181 7.04356C120.99 7.16244 120.74 7.10462 120.621 6.9144C120.544 6.79147 120.378 6.65174 120.097 6.51428C119.824 6.3804 119.482 6.2678 119.109 6.17638C118.363 5.99363 117.544 5.90821 117.022 5.88645C101.761 5.25433 70.1298 3.99137 65.5918 3.99137Z" fill="black"/>
<path fill-rule="evenodd" clip-rule="evenodd" d="M87.7146 34.4667C98.1765 34.5626 106.052 34.7179 108.349 34.9665C108.648 34.9989 108.878 35.2451 108.89 35.5454C109.057 39.6878 108.878 46.1072 108.737 51.1628C108.707 52.2196 108.679 53.2168 108.656 54.1211C108.648 54.4562 108.369 54.7211 108.034 54.7126C107.699 54.7042 107.434 54.4258 107.443 54.0907C107.466 53.1763 107.494 52.1715 107.524 51.1092C107.659 46.2651 107.828 40.226 107.696 36.126C104.938 35.9122 97.4986 35.7703 87.7035 35.6805C77.2251 35.5844 64.0997 35.548 51.2551 35.5422C38.4108 35.5363 25.8488 35.561 16.4977 35.5872C11.8222 35.6003 7.94947 35.6137 5.24566 35.6239C3.89375 35.629 2.83407 35.6333 2.11239 35.6363C1.9163 35.6371 1.74516 35.6378 1.5999 35.6384C1.1698 58.4595 1.1106 86.5297 1.36328 111.811C1.36663 112.146 1.09762 112.421 0.762433 112.424C0.427246 112.428 0.152807 112.159 0.149457 111.823C-0.105503 86.3135 -0.0430858 57.9633 0.397517 35.0224C0.403847 34.6929 0.672019 34.4286 1.00161 34.4271L1.00435 35.0341C1.00161 34.4271 1.00199 34.4271 1.00274 34.4271L1.28382 34.4259C1.47001 34.4251 1.74643 34.4239 2.10734 34.4224C2.82918 34.4194 3.88901 34.4151 5.24109 34.41C7.94523 34.3999 11.8183 34.3864 16.4943 34.3733C25.8462 34.3471 38.4096 34.3224 51.2556 34.3283C64.1013 34.3341 77.231 34.3706 87.7146 34.4667Z" fill="black"/>
<path fill-rule="evenodd" clip-rule="evenodd" d="M0.404033 114.773C0.410984 114.438 0.688297 114.172 1.02343 114.179L1.01084 114.786L0.998258 115.392C0.663126 115.385 0.397083 115.108 0.404033 114.773ZM1.01084 114.786C0.998258 115.392 0.998471 115.392 0.99889 115.392L1.15525 115.396C1.25913 115.398 1.41383 115.401 1.6172 115.405C2.02393 115.413 2.62529 115.425 3.40395 115.44C4.96127 115.471 7.22779 115.514 10.0648 115.564C15.7388 115.666 23.6948 115.799 32.8231 115.925C51.0788 116.176 74.0269 116.397 92.7877 116.275C93.1229 116.273 93.3929 116 93.3907 115.664C93.3885 115.329 93.115 115.059 92.7798 115.061C74.0317 115.183 51.0934 114.962 32.8398 114.711C23.7135 114.586 15.7592 114.453 10.0865 114.351C7.25022 114.3 4.98433 114.257 3.42757 114.227C2.64919 114.212 2.04809 114.2 1.64162 114.191C1.43839 114.187 1.28381 114.184 1.18006 114.182L1.02404 114.179C1.02363 114.179 1.02343 114.179 1.01084 114.786Z" fill="black"/>
<path fill-rule="evenodd" clip-rule="evenodd" d="M45.3283 121.358C45.3588 121.024 45.6541 120.778 45.9879 120.809L45.9327 121.413L45.8776 122.017C45.5438 121.987 45.2978 121.692 45.3283 121.358ZM45.9327 121.413C45.8776 122.017 45.8775 122.017 45.8776 122.017L46.5193 122.076C46.9324 122.114 47.53 122.168 48.2679 122.236C49.7436 122.371 51.7804 122.557 54.0248 122.763C58.5138 123.175 63.8326 123.665 67.1535 123.977C67.4873 124.008 67.7833 123.763 67.8146 123.429C67.846 123.096 67.6009 122.8 67.2671 122.768C63.9447 122.456 58.6246 121.966 54.1357 121.554C51.8911 121.348 49.8542 121.162 48.3784 121.027C47.6405 120.96 47.0429 120.905 46.6297 120.867L45.9879 120.809C45.9878 120.809 45.9879 120.809 45.9327 121.413Z" fill="black"/>
<path fill-rule="evenodd" clip-rule="evenodd" d="M62.4935 7.59942C62.5005 7.26429 62.7779 6.99833 63.113 7.00539L63.1003 7.61219L63.0875 8.219C62.7524 8.21195 62.4864 7.93455 62.4935 7.59942ZM63.1003 7.61219L63.0875 8.219L63.3729 8.22512C63.5606 8.22918 63.8384 8.23524 64.1983 8.24326C64.9181 8.2593 65.9665 8.28313 67.2807 8.31434C67.6158 8.3223 67.8939 8.05709 67.9019 7.72198C67.9098 7.38687 67.6446 7.10876 67.3095 7.1008C65.9947 7.06958 64.9457 7.04573 64.2253 7.02968C63.8652 7.02166 63.5871 7.01558 63.3991 7.01152L63.113 7.00539L63.1003 7.61219Z" fill="black"/>
<path fill-rule="evenodd" clip-rule="evenodd" d="M113.365 9.61612C113.366 9.28092 113.638 9.00987 113.974 9.01073C115.357 9.01426 117.157 9.13202 118.304 9.22786C118.638 9.25579 118.886 9.54921 118.858 9.88325C118.83 10.2173 118.537 10.4654 118.203 10.4375C117.068 10.3426 115.306 10.228 113.97 10.2246C113.635 10.2238 113.364 9.95132 113.365 9.61612Z" fill="black"/>
<path fill-rule="evenodd" clip-rule="evenodd" d="M13.8202 54.4318C13.823 54.0966 14.097 53.8271 14.4322 53.8299L58.6365 54.1975C58.9717 54.2003 59.2412 54.4743 59.2384 54.8095C59.2356 55.1447 58.9616 55.4141 58.6264 55.4114L14.4221 55.0437C14.0869 55.0409 13.8174 54.767 13.8202 54.4318Z" fill="black"/>
<path fill-rule="evenodd" clip-rule="evenodd" d="M78.9659 76.8205C78.967 76.4853 79.2397 76.2145 79.5749 76.2155L93.8727 76.2624C94.2079 76.2635 94.4787 76.5361 94.4776 76.8713C94.4765 77.2065 94.2039 77.4773 93.8687 77.4762L79.5709 77.4294C79.2357 77.4283 78.9648 77.1557 78.9659 76.8205Z" fill="black"/>
<path fill-rule="evenodd" clip-rule="evenodd" d="M97.2152 39.7136C95.0658 39.593 92.8385 40.0802 91.3623 41.2C91.2097 41.3158 90.9921 41.2859 90.8763 41.1333C90.7606 40.9807 90.7904 40.7632 90.943 40.6474C92.5917 39.3967 95.0006 38.8946 97.2541 39.0211C99.4998 39.1471 101.697 39.9045 102.881 41.2955C103.534 42.0621 103.863 42.9109 103.862 43.7612C103.861 44.6111 103.53 45.4306 102.92 46.1388C101.707 47.5488 99.3915 48.5256 96.2385 48.5538C93.5739 48.5778 91.3937 47.7665 90.1494 46.5131C89.5244 45.8836 89.1299 45.135 89.0497 44.3258C88.9692 43.5139 89.2089 42.6768 89.7885 41.8813C89.9013 41.7265 90.1183 41.6925 90.2731 41.8053C90.4279 41.9181 90.4619 42.135 90.3491 42.2898C89.8553 42.9676 89.6786 43.638 89.74 44.2574C89.8016 44.8795 90.1071 45.4859 90.6416 46.0244C91.7162 47.1068 93.6927 47.8831 96.2322 47.8602H96.2322C99.2666 47.833 101.357 46.8927 102.395 45.6864C102.911 45.0863 103.167 44.4228 103.168 43.7603C103.169 43.0981 102.915 42.4048 102.353 41.7451L102.353 41.7451C101.345 40.5609 99.3724 39.8347 97.2152 39.7136Z" fill="black"/>
<path fill-rule="evenodd" clip-rule="evenodd" d="M23.5028 43.5186C23.5026 43.5186 23.5025 43.5186 23.5 43.1718C23.4975 42.825 23.4976 42.825 23.4978 42.825L23.7898 42.8229C23.9809 42.8217 24.2619 42.8198 24.6217 42.8177C25.3412 42.8134 26.3756 42.8077 27.6354 42.8022C30.1551 42.7912 33.5765 42.7811 37.1834 42.7844C44.3893 42.7911 52.3584 42.8516 55.3393 43.0687C55.5303 43.0826 55.6739 43.2487 55.66 43.4397C55.6461 43.6308 55.4799 43.7744 55.2889 43.7605C52.3392 43.5457 44.4011 43.4848 37.1827 43.4781C33.5774 43.4747 30.1573 43.4848 27.6385 43.4958C26.3791 43.5013 25.345 43.507 24.6258 43.5113C24.2663 43.5135 23.9854 43.5153 23.7944 43.5166L23.5028 43.5186ZM23.1532 43.1743C23.1518 42.9828 23.3059 42.8264 23.4975 42.825L23.5 43.1718L23.5025 43.5186C23.311 43.52 23.1546 43.3659 23.1532 43.1743Z" fill="black"/>
<path fill-rule="evenodd" clip-rule="evenodd" d="M19.3838 59.5304C19.3855 59.3389 19.5421 59.185 19.7337 59.1866L19.7306 59.5335L19.7276 59.8803C19.536 59.8786 19.3821 59.7219 19.3838 59.5304ZM19.7306 59.5335C19.7276 59.8803 19.7274 59.8803 19.7276 59.8803L22.9222 59.9086C24.8756 59.9259 27.5411 59.9496 30.3895 59.9752C36.0864 60.0264 42.5145 60.0849 45.4406 60.1144C45.6321 60.1163 45.789 59.9626 45.7909 59.771C45.7928 59.5795 45.6391 59.4227 45.4476 59.4207C42.521 59.3913 36.0924 59.3327 30.3957 59.2816C27.5473 59.256 24.8818 59.2323 22.9284 59.2149L19.7337 59.1866C19.7335 59.1866 19.7337 59.1866 19.7306 59.5335Z" fill="black"/>
<path fill-rule="evenodd" clip-rule="evenodd" d="M44.0172 77.5705C34.1012 77.4968 21.7464 77.4778 11.9826 77.6962C11.7911 77.7004 11.6324 77.5487 11.6281 77.3572C11.6238 77.1657 11.7756 77.007 11.9671 77.0027C21.7416 76.7841 34.1049 76.8032 44.0224 76.8769C48.9816 76.9137 53.3301 76.9642 56.4388 77.0056C57.9932 77.0262 59.2376 77.0445 60.0935 77.0577C60.5215 77.0643 60.8523 77.0696 61.0762 77.0733L61.4166 77.0789C61.4169 77.0789 61.417 77.0789 61.4122 77.3585L61.417 77.0789C61.6085 77.0822 61.7611 77.2402 61.7578 77.4317C61.7545 77.6232 61.5966 77.7758 61.4051 77.7725L61.4099 77.4939C61.4051 77.7725 61.405 77.7725 61.4048 77.7725L61.0648 77.7668C60.8412 77.7632 60.5106 77.7579 60.0829 77.7513C59.2274 77.7381 57.9834 77.7198 56.4296 77.6991C53.3219 77.6578 48.9748 77.6074 44.0172 77.5705Z" fill="black"/>
<path fill-rule="evenodd" clip-rule="evenodd" d="M38.9114 84.0485C31.2141 83.993 21.3783 84.0273 12.8142 84.3859C12.6228 84.3939 12.4611 84.2453 12.4531 84.0539C12.4451 83.8625 12.5938 83.7009 12.7851 83.6928C21.3662 83.3335 31.2152 83.2993 38.9164 83.3548C42.7676 83.3826 46.0827 83.4328 48.4352 83.4761C49.6114 83.4977 50.547 83.5176 51.1887 83.5321C51.5095 83.5393 51.7568 83.5452 51.924 83.5493C52.0076 83.5513 52.0711 83.5529 52.1138 83.554L52.1781 83.5557C52.1782 83.5557 52.1783 83.5557 52.1712 83.8282L52.1783 83.5557C52.3698 83.5607 52.521 83.7199 52.516 83.9114C52.511 84.1029 52.3517 84.2541 52.1602 84.2491L52.1672 83.9827C52.1602 84.2491 52.1604 84.2491 52.1602 84.2491L52.0962 84.2474C52.0538 84.2464 51.9904 84.2448 51.907 84.2427C51.7403 84.2387 51.4934 84.2328 51.173 84.2255C50.5323 84.2111 49.5976 84.1912 48.4225 84.1696C46.072 84.1264 42.7595 84.0762 38.9114 84.0485Z" fill="black"/>
<path fill-rule="evenodd" clip-rule="evenodd" d="M61.6279 90.3136C61.6287 90.5051 61.474 90.661 61.2825 90.6618L61.2811 90.315L61.2797 89.9681C61.4712 89.9674 61.6271 90.122 61.6279 90.3136ZM44.5545 90.8131C34.9424 90.9357 22.8383 91.1525 12.8637 91.5286C12.6723 91.5358 12.5113 91.3865 12.5041 91.1951C12.4969 91.0037 12.6462 90.8427 12.8376 90.8354C22.821 90.459 34.9321 90.2422 44.5457 90.1195C49.3528 90.0581 53.5362 90.0203 56.5178 89.9978C58.0086 89.9865 59.199 89.9791 60.0167 89.9745C60.4256 89.9722 60.7413 89.9706 60.9548 89.9696L61.2793 89.9681C61.2796 89.9681 61.2797 89.9681 61.2811 90.315C61.2825 90.6618 61.2824 90.6618 61.2822 90.6618L60.9581 90.6633C60.7448 90.6643 60.4293 90.6659 60.0206 90.6682C59.2033 90.6728 58.0134 90.6802 56.523 90.6914C53.5424 90.7139 49.3602 90.7517 44.5545 90.8131Z" fill="black"/>
<path fill-rule="evenodd" clip-rule="evenodd" d="M24.0292 97.1471C20.7067 97.1836 17.1837 97.2223 13.4295 97.2241C13.238 97.2242 13.0826 97.069 13.0826 96.8775C13.0825 96.6859 13.2377 96.5306 13.4292 96.5305C17.1633 96.5287 20.6771 96.4901 23.9963 96.4537C30.1629 96.386 35.6579 96.3257 40.6461 96.5221C40.8375 96.5296 40.9865 96.6909 40.979 96.8823C40.9715 97.0737 40.8102 97.2227 40.6188 97.2152C35.6471 97.0195 30.1821 97.0795 24.0292 97.1471Z" fill="black"/>
<path fill-rule="evenodd" clip-rule="evenodd" d="M78.9976 84.1187C78.8065 84.1312 78.6414 83.9864 78.6289 83.7953C78.6164 83.6041 78.7612 83.4391 78.9523 83.4266L78.9749 83.7727C78.9523 83.4266 78.9523 83.4266 78.9523 83.4266L78.9688 83.4255L79.0158 83.4226C79.0571 83.4201 79.1181 83.4165 79.1972 83.4121C79.3554 83.4033 79.5861 83.3913 79.8772 83.3784C80.4594 83.3527 81.2835 83.3234 82.2526 83.3092C84.1887 83.281 86.7116 83.3129 89.0411 83.556C89.2316 83.5759 89.3699 83.7465 89.35 83.937C89.3301 84.1275 89.1596 84.2658 88.9691 84.2459C86.6788 84.0069 84.1867 83.9747 82.2627 84.0028C81.3017 84.0168 80.4845 84.0459 79.9078 84.0714C79.6196 84.0841 79.3915 84.096 79.2357 84.1047C79.1578 84.109 79.098 84.1125 79.0578 84.115L79.0124 84.1178L78.9976 84.1187Z" fill="black"/>
<path fill-rule="evenodd" clip-rule="evenodd" d="M78.5759 90.6592C78.5888 90.4681 78.7542 90.3236 78.9453 90.3365C80.3849 90.4335 81.7012 90.4354 82.9165 90.4218C83.1679 90.4189 83.4156 90.4154 83.6594 90.412C84.5892 90.3989 85.4634 90.3865 86.2783 90.4157C86.4698 90.4225 86.6194 90.5832 86.6126 90.7747C86.6057 90.9661 86.445 91.1157 86.2536 91.1089C85.4576 91.0804 84.6062 91.0924 83.6788 91.1055C83.4328 91.1089 83.1814 91.1125 82.9243 91.1154C81.7031 91.129 80.3654 91.1274 78.8986 91.0285C78.7075 91.0157 78.563 90.8503 78.5759 90.6592Z" fill="black"/>
<path fill-rule="evenodd" clip-rule="evenodd" d="M7.36678 40.6967C7.37254 40.507 7.52973 40.3572 7.7195 40.3605L19.834 40.572C20.0211 40.5753 20.1719 40.7264 20.1748 40.9135L20.2424 45.3042C20.2438 45.3973 20.2078 45.4871 20.1423 45.5533C20.0769 45.6196 19.9876 45.6567 19.8945 45.6564L9.41173 45.6217C9.22019 45.6211 9.06543 45.4653 9.06606 45.2738C9.06669 45.0822 9.22248 44.9274 9.41403 44.9281L19.5434 44.9616L19.4864 41.2597L8.04972 41.06L7.94566 44.4877C7.93984 44.6792 7.77993 44.8297 7.58847 44.8239C7.39701 44.8181 7.24652 44.6581 7.25233 44.4667L7.36678 40.6967Z" fill="black"/>
<path fill-rule="evenodd" clip-rule="evenodd" d="M14.9817 40.9461C15.1119 40.823 15.3144 40.8193 15.449 40.9377L18.6398 43.7435C18.7836 43.8699 18.7977 44.0891 18.6712 44.2329C18.5447 44.3768 18.3255 44.3908 18.1817 44.2644L15.2284 41.6674L11.5911 45.1057C11.5222 45.1708 11.4295 45.2049 11.3348 45.2C11.24 45.195 11.1514 45.1515 11.0896 45.0794L8.58036 42.154C8.45565 42.0086 8.47242 41.7896 8.61781 41.6649C8.7632 41.5402 8.98215 41.557 9.10686 41.7024L11.3791 44.3515L14.9817 40.9461Z" fill="black"/>
<path fill-rule="evenodd" clip-rule="evenodd" d="M11.6252 40.888C11.7631 40.7681 11.9703 40.7757 12.099 40.9053L15.7996 44.6319C15.9346 44.7678 15.9338 44.9874 15.7979 45.1224C15.662 45.2573 15.4424 45.2566 15.3074 45.1207L11.8356 41.6244L11.08 42.2818C10.9354 42.4076 10.7164 42.3923 10.5906 42.2478C10.4649 42.1033 10.4802 41.8843 10.6247 41.7585L11.6252 40.888Z" fill="black"/>
<path fill-rule="evenodd" clip-rule="evenodd" d="M19.7271 41.08C19.8533 41.2241 19.8388 41.4432 19.6948 41.5694L16.7433 44.155C16.5992 44.2812 16.3801 44.2667 16.2539 44.1227C16.1277 43.9786 16.1422 43.7595 16.2862 43.6332L19.2377 41.0477C19.3818 40.9215 19.6009 40.9359 19.7271 41.08Z" fill="black"/>
<path fill-rule="evenodd" clip-rule="evenodd" d="M78.63 41.1129C78.8185 41.111 78.974 41.2599 78.9802 41.4483L79.0305 42.9778C79.0368 43.1692 78.8867 43.3295 78.6952 43.3358C78.5038 43.3421 78.3435 43.192 78.3372 43.0006L78.298 41.8099L59.0062 42.0041L59.0595 46.0298L64.2203 46.0412C64.4119 46.0416 64.5668 46.1973 64.5664 46.3888C64.566 46.5804 64.4103 46.7353 64.2188 46.7349L58.7164 46.7227C58.527 46.7223 58.3729 46.5699 58.3704 46.3805L58.308 41.6654C58.3068 41.5733 58.3423 41.4844 58.4067 41.4185C58.4711 41.3525 58.5591 41.315 58.6513 41.314L78.63 41.1129Z" fill="black"/>
<path fill-rule="evenodd" clip-rule="evenodd" d="M66.4711 41.5431C66.5663 41.545 66.6565 41.5859 66.7207 41.6563L70.0744 45.3373L72.3825 42.8653C72.5132 42.7253 72.7327 42.7178 72.8727 42.8485C73.0127 42.9792 73.0202 43.1987 72.8895 43.3387L70.3247 46.0855C70.2587 46.1563 70.166 46.1963 70.0691 46.1957C69.9723 46.1951 69.8801 46.154 69.8149 46.0824L66.4544 42.3939L62.6031 46.3004C62.532 46.3726 62.4327 46.4101 62.3316 46.4029C62.2304 46.3957 62.1375 46.3446 62.0772 46.263L59.6928 43.0358C59.579 42.8818 59.6116 42.6646 59.7657 42.5508C59.9197 42.437 60.1369 42.4696 60.2507 42.6236L62.394 45.5245L66.2173 41.6464C66.2841 41.5786 66.3759 41.5412 66.4711 41.5431Z" fill="black"/>
<path fill-rule="evenodd" clip-rule="evenodd" d="M62.5721 41.647C62.6702 41.6466 62.764 41.6879 62.83 41.7605L66.704 46.0212C66.8329 46.163 66.8224 46.3823 66.6807 46.5112C66.539 46.64 66.3196 46.6296 66.1908 46.4879L62.5754 42.5116L60.0693 45.3102C59.9415 45.4529 59.7223 45.465 59.5796 45.3372C59.4369 45.2094 59.4248 44.9902 59.5526 44.8475L62.315 41.7625C62.3805 41.6893 62.4739 41.6474 62.5721 41.647Z" fill="black"/>
<path fill-rule="evenodd" clip-rule="evenodd" d="M69.9483 41.5102C70.0501 41.5077 70.148 41.5502 70.2157 41.6263L73.6269 45.4593L75.2451 43.7723C75.373 43.639 75.5829 43.6293 75.7225 43.7503L76.7872 44.6728C76.932 44.7983 76.9477 45.0173 76.8223 45.1621C76.6968 45.3068 76.4778 45.3225 76.333 45.1971L75.5175 44.4904L73.8676 46.2103C73.8007 46.2801 73.7076 46.3188 73.6109 46.317C73.5141 46.3152 73.4226 46.2731 73.3583 46.2008L69.9696 42.3931L67.6965 45.21C67.5762 45.3591 67.3578 45.3824 67.2087 45.2621C67.0597 45.1418 67.0364 44.9235 67.1566 44.7744L69.6867 41.6391C69.7507 41.5598 69.8464 41.5126 69.9483 41.5102Z" fill="black"/>
<path fill-rule="evenodd" clip-rule="evenodd" d="M122.873 10.374C123.16 10.4553 123.328 10.7545 123.247 11.0423C113.14 46.8206 92.5933 119.439 91.2903 123.565C90.5881 125.789 89.1367 127.073 87.615 127.758C86.1161 128.433 84.5503 128.53 83.5419 128.409C67.2759 126.963 33.8195 124.051 29.8347 123.944C27.7499 123.887 26.3875 123.357 25.5426 122.641C24.6987 121.926 24.4034 121.05 24.4344 120.398L24.4369 120.347L25.2611 116.913C25.3309 116.622 25.6233 116.443 25.9141 116.513C26.2049 116.582 26.3841 116.875 26.3143 117.166L25.5154 120.494C25.5167 120.8 25.6693 121.329 26.2427 121.815C26.8441 122.324 27.9413 122.809 29.864 122.861C33.8935 122.97 67.416 125.888 83.6463 127.331L83.6551 127.332L83.6639 127.333C84.5061 127.435 85.8733 127.355 87.1701 126.771C88.4486 126.195 89.6599 125.131 90.2574 123.239C91.5538 119.134 112.093 46.5446 122.204 10.7479C122.286 10.4601 122.585 10.2927 122.873 10.374Z" fill="black"/>
<path fill-rule="evenodd" clip-rule="evenodd" d="M124.383 6.09713C124.565 5.96579 124.819 6.00674 124.95 6.18859C125.303 6.67639 125.668 7.65149 125.774 9.05621C125.881 10.4729 125.727 12.3518 125.009 14.6698C123.603 19.2114 104.119 89.0254 94.5501 123.375L94.5454 123.392L94.5392 123.409C94.3315 123.962 93.9662 124.831 93.5409 125.647C93.3282 126.055 93.0971 126.457 92.86 126.801C92.6269 127.14 92.3704 127.451 92.101 127.653C91.9215 127.787 91.6669 127.751 91.5323 127.571C91.3977 127.392 91.4341 127.137 91.6136 127.003C91.7774 126.88 91.9744 126.655 92.1907 126.341C92.4028 126.033 92.6169 125.662 92.8205 125.272C93.2236 124.498 93.5728 123.67 93.7724 123.14C103.34 88.7967 122.823 18.9852 124.233 14.4296C124.924 12.1985 125.063 10.4219 124.964 9.11733C124.865 7.80075 124.526 6.98873 124.292 6.6642C124.161 6.48235 124.201 6.22846 124.383 6.09713Z" fill="black"/>
<path fill-rule="evenodd" clip-rule="evenodd" d="M23.3896 124.448C23.4856 124.245 23.7278 124.159 23.9305 124.255C24.7236 124.63 27.709 125.545 32.9961 125.977C38.3075 126.411 63.6477 128.866 75.6497 130.039L75.6578 130.04L75.6659 130.041C77.1202 130.243 79.5085 130.485 81.9345 130.555C84.3746 130.626 86.7989 130.521 88.3553 130.054C88.5702 129.99 88.7966 130.112 88.8611 130.327C88.9255 130.542 88.8036 130.768 88.5887 130.833C86.8959 131.34 84.3559 131.439 81.9108 131.367C79.456 131.296 77.0424 131.052 75.5626 130.847C63.5525 129.673 38.2318 127.219 32.93 126.787C27.6027 126.352 24.5047 125.426 23.5828 124.989C23.3801 124.893 23.2936 124.651 23.3896 124.448Z" fill="black"/>
<defs>
<linearGradient id="paint0_linear_548_8468" x1="86.4946" y1="121.459" x2="34.8179" y2="96.1411" gradientUnits="userSpaceOnUse">
<stop stop-color="#E3EEFF" stop-opacity="0.979167"/>
<stop offset="1" stop-color="white" stop-opacity="0"/>
</linearGradient>
<linearGradient id="paint1_linear_548_8468" x1="86.4946" y1="121.459" x2="34.8179" y2="96.1411" gradientUnits="userSpaceOnUse">
<stop stop-color="#E3EEFF" stop-opacity="0.979167"/>
<stop offset="1" stop-color="white" stop-opacity="0"/>
</linearGradient>
</defs>
</svg>
