<svg width="240" height="144" viewBox="0 0 240 144" fill="none" xmlns="http://www.w3.org/2000/svg">
<path d="M239.5 139L30 143L164 99.5L239.5 139Z" fill="url(#paint0_linear_466_10474)"/>
<path d="M48.4998 21.5L14.4998 28.5L7.5 30C5.66659 31 1.79977 33.8 0.999765 37C0.199765 40.2 1.3331 44.3333 1.99977 46L17.4998 118.5C17.9998 122.333 19.5998 131.5 21.9998 137.5C24.3998 143.5 33.3331 143.333 37.4998 142.5L65.4998 137.5L130 125.5L173 117L184.5 115C186.666 113.833 191.2 111 192 109C192.8 107 192.333 102.167 192 100L190 90.5L180.5 44.5L173 12.5L170.5 6.5L168 3L164.5 1L159 0.5L135 5L92.4998 13L48.4998 21.5Z" fill="white"/>
<path fill-rule="evenodd" clip-rule="evenodd" d="M0.328774 43.2339C1.61921 49.2967 10.6848 90.0405 16.1046 114.55C18.0703 123.439 19.5562 130.193 20.0171 132.378C20.9202 136.659 22.4628 139.679 24.8537 141.504C27.2584 143.341 30.5416 143.995 34.9895 143.429C39.5983 142.842 65.3845 138.088 94.1933 132.669C133.386 125.297 178.174 116.693 182.801 115.643C186.955 114.701 189.732 113.048 191.329 110.643C192.945 108.209 193.363 104.98 192.695 100.85C191.916 96.0345 186.265 69.2223 181.088 45.7632C177.16 27.9683 173.501 12.1005 172.434 9.19154C171.066 5.46606 169.346 2.77977 166.694 1.30424C164.35 -0.000869728 161.257 -0.371159 156.975 0.396741C151.351 1.4043 95.3872 12.0052 54.1293 19.9403C31.1139 24.3668 12.6711 27.9645 10.0761 28.6148C6.37447 29.5424 3.63573 31.3525 1.95541 33.756C0.158961 36.3257 -0.44185 39.5851 0.328774 43.2339ZM1.70381 42.9424C1.01708 39.7162 1.51054 36.8271 3.09571 34.5518C4.60331 32.3879 7.08403 30.7884 10.4116 29.9488C13.0011 29.2955 31.4066 25.6732 54.3766 21.221C95.6173 13.2276 151.56 2.5612 157.181 1.54653C161.122 0.835642 163.973 1.11764 166.132 2.31636C168.567 3.66812 170.098 6.1693 171.356 9.58757C172.422 12.4836 176.077 28.2841 180.001 46.0035C185.189 69.433 190.841 96.2137 191.62 101.024C192.235 104.824 191.909 107.802 190.422 110.041C188.957 112.249 186.376 113.714 182.559 114.579C177.934 115.624 133.161 124.197 93.9789 131.527C65.2 136.91 39.4381 141.623 34.8342 142.203C30.7913 142.713 27.7949 142.185 25.6117 140.513C23.4245 138.838 22.0743 136.04 21.2533 132.118C20.7952 129.931 19.3183 123.171 17.365 114.272C11.9839 89.7576 2.98449 49.0062 1.70381 42.9424Z" fill="black"/>
<path fill-rule="evenodd" clip-rule="evenodd" d="M6.0593 33.6444C4.87438 34.6523 4.09049 36.0854 3.75982 38.0349C3.43723 39.9372 3.55012 42.3443 4.14741 45.3401C4.44742 46.8302 5.72222 52.9266 7.52579 61.2699C9.77142 71.659 12.8322 85.5323 15.6861 98.3682C19.6101 116.016 23.1737 131.696 23.7737 133.658C24.4388 135.821 25.4589 137.368 26.7159 138.379C28.2174 139.586 30.0609 140.036 32.0773 139.834C32.2742 139.814 32.4186 139.639 32.3994 139.442C32.3802 139.245 32.2046 139.101 32.0076 139.12C30.1923 139.292 28.5318 138.89 27.1878 137.795C26.0383 136.86 25.1247 135.423 24.5268 133.429C24.037 131.804 21.5727 120.764 18.5339 107C15.4548 93.0541 11.8083 76.3107 9.04534 63.7155C6.92226 54.0374 5.316 46.811 4.974 45.1704C4.36836 42.2993 4.22402 39.9891 4.51357 38.1585C4.79118 36.403 5.46763 35.1004 6.52236 34.1827C6.67092 34.055 6.68778 33.8306 6.55996 33.682C6.43223 33.5335 6.20786 33.5166 6.0593 33.6444Z" fill="black"/>
<path fill-rule="evenodd" clip-rule="evenodd" d="M36.8507 139.618C36.8507 139.618 46.6614 137.963 58.4402 135.882C63.0866 135.062 68.0388 134.172 72.8152 133.292C83.3335 131.355 93.0041 129.482 96.7246 128.643C96.9178 128.601 97.04 128.409 96.9969 128.216C96.9539 128.022 96.7623 127.9 96.5691 127.943C94.3473 128.423 90.0022 129.237 84.6258 130.222C78.9594 131.26 72.1458 132.468 65.4639 133.678C50.7848 136.336 36.7276 138.918 36.7276 138.918C36.5346 138.953 36.4056 139.137 36.4395 139.329C36.4735 139.523 36.6577 139.652 36.8507 139.618Z" fill="black"/>
<path fill-rule="evenodd" clip-rule="evenodd" d="M35.7509 106.302C33.7086 106.683 33.0808 109.21 33.5537 111.595C33.8101 112.887 34.3851 114.113 35.1403 114.884C35.8741 115.632 36.7804 115.968 37.7621 115.701C38.6835 115.438 39.314 114.757 39.6523 113.83C40.0206 112.82 40.0392 111.507 39.7612 110.259C39.2336 107.894 37.6376 105.859 35.7479 106.288L35.7509 106.302ZM35.9335 107.182C36.5225 107.071 37.0322 107.341 37.4544 107.792C38.0546 108.432 38.4679 109.439 38.6665 110.485C38.8612 111.513 38.8393 112.585 38.5221 113.405C38.3139 113.944 37.9719 114.367 37.4313 114.515C36.8901 114.67 36.4038 114.44 35.9895 114.034C35.3575 113.415 34.8862 112.413 34.6404 111.359C34.2174 109.548 34.3805 107.523 35.9306 107.168L35.9335 107.182Z" fill="black"/>
<path fill-rule="evenodd" clip-rule="evenodd" d="M52.8637 102.962C50.8361 103.34 50.0375 105.839 50.3636 108.193C50.7121 110.708 52.3502 112.853 54.5477 112.285C55.4524 112.036 56.093 111.383 56.4624 110.49C56.8724 109.498 56.947 108.201 56.7252 106.962C56.2986 104.581 54.7737 102.513 52.8607 102.947L52.8637 102.962ZM53.0463 103.842C53.6332 103.732 54.1284 103.999 54.5282 104.447C55.1011 105.089 55.4708 106.097 55.6233 107.141C55.7719 108.158 55.7036 109.216 55.3529 110.018C55.123 110.544 54.7661 110.954 54.2271 111.096C53.4768 111.304 52.8656 110.947 52.4075 110.353C51.9378 109.744 51.6152 108.903 51.4638 108.023C51.1523 106.212 51.4888 104.184 53.0434 103.828L53.0463 103.842Z" fill="black"/>
<path fill-rule="evenodd" clip-rule="evenodd" d="M124.821 88.3805C122.793 88.7592 121.994 91.2576 122.321 93.612C122.669 96.1272 124.307 98.2716 126.505 97.7041C127.409 97.4546 128.05 96.8019 128.419 95.9093C128.829 94.9175 128.904 93.6199 128.682 92.3812C128.256 89.9996 126.731 87.9316 124.818 88.3665L124.821 88.3805ZM125.003 89.2608C125.59 89.151 126.085 89.418 126.485 89.8661C127.058 90.5083 127.428 91.5159 127.58 92.5605C127.729 93.5769 127.661 94.6346 127.31 95.4367C127.08 95.9629 126.723 96.3732 126.184 96.5155C125.434 96.7228 124.823 96.3661 124.365 95.7723C123.895 95.1635 123.572 94.3219 123.421 93.4416C123.109 91.631 123.446 89.6025 125 89.2467L125.003 89.2608Z" fill="black"/>
<path fill-rule="evenodd" clip-rule="evenodd" d="M43.0756 108.855C43.2293 107.525 43.8427 106.14 45.0394 105.101C45.2268 104.944 45.2519 104.665 45.0956 104.478C44.9392 104.291 44.6602 104.265 44.4728 104.422C42.2923 106.173 41.6241 108.909 42.065 111C42.4794 112.965 43.8574 114.347 45.7942 114.178C46.7586 114.082 47.7129 113.335 48.2143 112.333C48.6875 111.388 48.7619 110.248 48.1622 109.311C47.4401 108.192 45.945 107.749 44.6369 108.04C44.0432 108.172 43.492 108.445 43.0756 108.855ZM43.2193 110.929C43.5681 112.183 44.411 113.093 45.676 112.957C46.2705 112.902 46.8194 112.396 47.1381 111.784C47.4398 111.205 47.5463 110.504 47.1903 109.917C46.7332 109.156 45.7232 108.893 44.8453 109.058C43.9856 109.218 43.224 109.803 43.2257 110.844C43.2264 110.873 43.2242 110.901 43.2193 110.929Z" fill="black"/>
<path fill-rule="evenodd" clip-rule="evenodd" d="M60.1111 105.569C60.2742 104.238 60.9181 102.834 62.1535 101.761C62.3409 101.604 62.366 101.325 62.2097 101.138C62.0533 100.951 61.7743 100.925 61.5869 101.082C59.4087 102.831 58.6811 105.472 59.0608 107.502C59.4189 109.415 60.7397 110.783 62.6859 110.691C63.936 110.616 64.8525 109.94 65.315 109.051C65.8032 108.113 65.7912 106.933 65.1353 105.964C64.3863 104.865 62.9318 104.431 61.6724 104.713C61.0726 104.848 60.5185 105.134 60.1111 105.569ZM60.293 107.713C60.6529 108.791 61.4419 109.547 62.6161 109.467C63.3846 109.426 63.9544 109.027 64.2472 108.486C64.5552 107.916 64.5672 107.196 64.1807 106.593C63.7052 105.844 62.7279 105.57 61.8818 105.729C61.0558 105.884 60.3383 106.467 60.3398 107.504C60.3414 107.579 60.3246 107.65 60.293 107.713Z" fill="black"/>
<path fill-rule="evenodd" clip-rule="evenodd" d="M91.3544 101.29C91.1067 102.74 90.2674 104.187 88.6604 104.969C88.439 105.072 88.3424 105.335 88.445 105.557C88.5477 105.778 88.8106 105.875 89.032 105.772C91.1553 104.839 92.2478 102.929 92.5008 101.059C92.8389 98.5594 91.6197 96.2036 89.5751 95.9495C88.2559 95.8025 87.3201 96.3576 86.7925 97.2221C86.305 98.021 86.1768 99.1099 86.4631 100.156C86.8648 101.603 88.4005 102.464 89.8434 102.152C90.3807 102.036 90.9128 101.762 91.3544 101.29ZM91.3449 99.3614C91.1204 98.1944 90.4763 97.2724 89.4372 97.1659C88.6799 97.0785 88.1335 97.3695 87.8237 97.8613C87.4828 98.403 87.4003 99.1448 87.5789 99.8657C87.7983 100.764 88.7457 101.29 89.6403 101.128C90.3513 101 91.0098 100.446 91.3449 99.3614Z" fill="black"/>
<path fill-rule="evenodd" clip-rule="evenodd" d="M119.116 95.5144C118.868 96.9642 118.029 98.4109 116.422 99.1936C116.201 99.2962 116.104 99.5595 116.207 99.7807C116.309 100.002 116.572 100.099 116.794 99.9962C118.917 99.0627 120.01 97.1535 120.263 95.2832C120.601 92.7835 119.381 90.4278 117.337 90.1737C116.018 90.0266 115.082 90.5817 114.554 91.4462C114.067 92.2451 113.938 93.334 114.225 94.3802C114.626 95.8275 116.162 96.6883 117.605 96.3765C118.142 96.2603 118.674 95.9863 119.116 95.5144ZM119.107 93.5855C118.882 92.4185 118.238 91.4965 117.199 91.39C116.442 91.3026 115.895 91.5936 115.585 92.0854C115.245 92.6271 115.162 93.369 115.341 94.0899C115.56 94.9881 116.507 95.5139 117.402 95.3525C118.113 95.2238 118.772 94.6699 119.107 93.5855Z" fill="black"/>
<path fill-rule="evenodd" clip-rule="evenodd" d="M99.4394 99.3246C99.4391 99.4718 99.4339 99.6196 99.4239 99.7661C99.2964 101.615 98.3716 103.402 96.2094 103.514C95.9654 103.522 95.7741 103.727 95.7822 103.971C95.7904 104.214 95.9949 104.406 96.2387 104.398C98.9777 104.358 100.3 102.193 100.532 99.8601C100.673 98.4499 100.397 96.9854 99.8253 95.9273C99.2658 94.8915 98.4136 94.243 97.409 94.2121C96.1293 94.1876 95.2263 94.7205 94.7084 95.5176C94.2013 96.2985 94.0622 97.3553 94.355 98.426C94.7555 99.8712 96.2892 100.731 97.7304 100.42C98.3509 100.286 98.9645 99.9413 99.4394 99.3246ZM99.2268 97.6514C99.1165 97.2335 98.9639 96.8452 98.7736 96.5077C98.4312 95.9003 97.9735 95.4548 97.3787 95.4436C96.6013 95.4209 96.0357 95.7041 95.7127 96.1832C95.3627 96.7015 95.2825 97.4131 95.4622 98.137C95.6824 99.0373 96.6319 99.5646 97.5285 99.4019C98.2354 99.2739 98.8904 98.7245 99.2268 97.6514Z" fill="black"/>
<path fill-rule="evenodd" clip-rule="evenodd" d="M131.063 90.2943L132.164 88.995C132.271 89.6038 132.416 90.3962 132.585 91.2316C133.064 93.5878 133.723 96.2857 133.723 96.2857C133.774 96.544 134.026 96.7126 134.285 96.6617C134.544 96.6098 134.713 96.3577 134.661 96.0994C134.661 96.0994 134.24 93.355 133.783 90.9944C133.434 89.1926 133.055 87.6192 133.055 87.6192C133.013 87.4066 132.851 87.238 132.641 87.1879C132.43 87.1378 132.209 87.2151 132.076 87.3855L130.366 89.7496C130.216 89.942 130.25 90.2196 130.442 90.3707C130.634 90.5209 130.913 90.4867 131.063 90.2943Z" fill="black"/>
<path fill-rule="evenodd" clip-rule="evenodd" d="M142.294 87.8253L143.395 86.526C143.502 87.1348 143.647 87.9272 143.817 88.7627C144.295 91.1188 144.954 93.8167 144.954 93.8167C145.005 94.075 145.257 94.2437 145.517 94.1927C145.776 94.1409 145.944 93.8888 145.893 93.6305C145.893 93.6305 145.472 90.886 145.014 88.5255C144.665 86.7237 144.287 85.1503 144.287 85.1503C144.245 84.9377 144.083 84.769 143.872 84.719C143.661 84.6689 143.441 84.7462 143.307 84.9166L141.598 87.2807C141.447 87.4731 141.482 87.7507 141.673 87.9018C141.866 88.052 142.144 88.0177 142.294 87.8253Z" fill="black"/>
<path fill-rule="evenodd" clip-rule="evenodd" d="M77.7648 98.7437L82.2153 98.127C81.8059 99.3007 81.4642 100.534 81.2525 101.8C80.9871 103.38 80.9239 105.004 81.0829 106.606C81.1031 106.87 81.3333 107.068 81.5968 107.047C81.8595 107.027 82.0572 106.797 82.037 106.534C81.9579 105.015 82.1239 103.493 82.4103 102.009C82.7037 100.483 83.1298 98.9968 83.6648 97.6184C83.7413 97.4198 83.7061 97.1949 83.5717 97.0298C83.4373 96.8655 83.2247 96.7847 83.0147 96.8198L77.6198 97.8714C77.3791 97.9118 77.2157 98.1393 77.2561 98.38C77.2965 98.6207 77.5241 98.7833 77.7648 98.7437Z" fill="black"/>
<path fill-rule="evenodd" clip-rule="evenodd" d="M164.779 81.852L169.23 81.2352C168.821 82.4089 168.479 83.6423 168.267 84.9083C168.002 86.4878 167.939 88.1122 168.098 89.7146C168.118 89.9781 168.348 90.1758 168.611 90.1556C168.874 90.1354 169.072 89.9052 169.052 89.6425C168.973 88.1236 169.139 86.6012 169.425 85.1174C169.718 83.5914 170.144 82.105 170.679 80.7266C170.756 80.5281 170.721 80.3031 170.586 80.138C170.452 79.9737 170.239 79.8929 170.029 79.928L164.634 80.9796C164.394 81.02 164.23 81.2475 164.271 81.4882C164.311 81.729 164.539 81.8915 164.779 81.852Z" fill="black"/>
<path fill-rule="evenodd" clip-rule="evenodd" d="M72.3482 109.018L75.7603 108.21C76.0072 108.158 76.1653 107.916 76.1135 107.669C76.0625 107.423 75.8201 107.264 75.5732 107.316L72.1224 107.94C71.8255 108.002 71.634 108.294 71.6964 108.591C71.7578 108.889 72.0504 109.08 72.3482 109.018Z" fill="black"/>
<path fill-rule="evenodd" clip-rule="evenodd" d="M132.525 97.2657L135.937 96.4575C136.184 96.4057 136.342 96.1632 136.29 95.9164C136.239 95.6704 135.997 95.5114 135.75 95.5632L132.299 96.1869C132.002 96.2493 131.811 96.541 131.873 96.8388C131.935 97.1366 132.227 97.3272 132.525 97.2657Z" fill="black"/>
<path fill-rule="evenodd" clip-rule="evenodd" d="M143.756 94.7955L147.169 93.9873C147.415 93.9355 147.574 93.693 147.522 93.4462C147.471 93.2002 147.228 93.0412 146.981 93.093L143.531 93.7167C143.234 93.7791 143.042 94.0708 143.105 94.3686C143.166 94.6664 143.459 94.857 143.756 94.7955Z" fill="black"/>
<path fill-rule="evenodd" clip-rule="evenodd" d="M107.759 94.9045C107.515 94.1059 107.927 93.4032 108.539 93.1001C109.136 92.8058 109.915 92.9024 110.479 93.6254C110.858 94.113 110.726 94.8026 110.466 95.5678C109.831 97.4285 108.304 99.6449 108.108 101.058C108.085 101.213 108.139 101.368 108.253 101.474C108.366 101.581 108.524 101.626 108.676 101.594L112.636 100.879C112.884 100.841 113.055 100.607 113.016 100.357C112.977 100.109 112.744 99.9375 112.495 99.9761L109.224 100.533C109.78 98.9325 111.352 96.7177 111.669 95.0117C111.816 94.2263 111.719 93.5332 111.304 92.9894C110.377 91.7762 109.068 91.6567 108.07 92.1372C107.013 92.645 106.299 93.8468 106.704 95.2216C106.792 95.5124 107.099 95.6785 107.39 95.5906C107.681 95.5037 107.847 95.1962 107.759 94.9045Z" fill="black"/>
<path fill-rule="evenodd" clip-rule="evenodd" d="M151.052 87.9372C149.937 89.2581 149.736 90.742 150.164 91.776C150.592 92.8117 151.628 93.5019 153.164 93.2982C154.917 93.0554 155.833 91.8714 155.741 90.5627C155.669 89.5335 154.906 88.3153 153.187 87.4548C154.025 86.3294 154.133 85.2709 153.877 84.4878C153.525 83.4171 152.501 82.7676 151.391 82.9265L151.392 82.9412C150.176 83.0805 149.13 84.3419 149.235 85.6547C149.3 86.472 149.799 87.3448 151.052 87.9372ZM152.288 88.4351C151.529 89.2157 151.197 90.0778 151.263 90.7966C151.334 91.5845 151.976 92.1069 152.98 91.9618C154.098 91.8094 154.659 91.0003 154.262 90.13C153.982 89.5139 153.336 88.9118 152.288 88.4351ZM152.002 86.9724C152.566 86.3547 152.82 85.7672 152.826 85.2538C152.836 84.4756 152.23 83.9361 151.534 84.0184L151.532 84.0046C150.864 84.1032 150.317 84.8219 150.397 85.5439C150.46 86.1167 150.952 86.6374 151.99 86.9675L152.002 86.9724Z" fill="black"/>
<path fill-rule="evenodd" clip-rule="evenodd" d="M158.711 83.2333C159.179 82.8713 159.885 82.5621 160.54 82.4672C161.067 82.3917 161.589 82.4251 161.719 82.9328C161.851 83.4468 161.615 83.8623 161.266 84.1689C160.844 84.5396 160.252 84.7619 159.739 84.8067C159.4 84.8409 159.139 85.1256 159.137 85.4682C159.133 85.8099 159.389 86.099 159.729 86.1385C160.803 86.2659 161.662 86.4873 162.25 86.851C162.665 87.1084 162.924 87.4396 162.952 87.8964C163.008 88.7046 162.633 89.5849 161.789 89.9213C161.125 90.1858 160.22 90.1313 159.063 89.5884C158.798 89.4566 158.476 89.5655 158.344 89.8308C158.213 90.0962 158.322 90.4186 158.587 90.5495C160.098 91.3401 161.318 91.377 162.217 91.0572C163.621 90.5583 164.319 89.1544 164.271 87.8279C164.232 86.9212 163.786 86.2149 162.967 85.701C162.69 85.5279 162.366 85.3777 161.995 85.2503C162.182 85.0983 162.35 84.9297 162.492 84.7452C162.941 84.1601 163.156 83.4353 162.918 82.6051C162.638 81.637 161.86 81.2312 160.897 81.2549C159.92 81.2795 158.742 81.7793 158.024 82.3715C157.786 82.5612 157.747 82.9082 157.937 83.1463C158.127 83.3835 158.474 83.4222 158.711 83.2333Z" fill="black"/>
<path fill-rule="evenodd" clip-rule="evenodd" d="M70.887 102.047L71.9878 100.748C72.0949 101.357 72.2399 102.149 72.4095 102.984C72.8882 105.341 73.5471 108.038 73.5471 108.038C73.5981 108.297 73.8502 108.465 74.1094 108.414C74.3685 108.363 74.5372 108.111 74.4854 107.852C74.4854 107.852 74.0646 105.108 73.6069 102.747C73.2581 100.945 72.8795 99.372 72.8795 99.372C72.8373 99.1594 72.6756 98.9908 72.4648 98.9407C72.254 98.8906 72.0334 98.9679 71.8999 99.1384L70.1904 101.502C70.0401 101.695 70.0744 101.972 70.2659 102.124C70.4583 102.274 70.7368 102.239 70.887 102.047Z" fill="black"/>
<path d="M40.1606 32.0881L19.2395 36.4965L24.0373 58.626C24.1213 60.2662 25.4567 63.2371 30.1263 61.999L35.1543 61.0454C35.6902 60.9839 37.0327 61.55 37.5 63C37.3411 62.162 37.5 60.5 39 60L45.6199 58.3394C47 58 49.0616 57.4302 48.3686 54.4524C47.6757 51.4745 45.4006 40.0697 44.3497 34.7395" stroke="black" stroke-linecap="round" stroke-linejoin="round"/>
<path d="M7.5 59L23 55.5M47.5 50L122.5 34" stroke="black" stroke-linecap="round" stroke-linejoin="round"/>
<path d="M55.5 32L108 21.5M67 35L109 26.5M59.5 52.5L120 40M60.5 57L83 52.5" stroke="black" stroke-linecap="round" stroke-linejoin="round"/>
<rect x="27.008" y="76.6257" width="28.0021" height="20.6343" rx="5.5" transform="rotate(-11.7792 27.008 76.6257)" stroke="black"/>
<mask id="path-29-inside-1_466_10474" fill="white">
<path fill-rule="evenodd" clip-rule="evenodd" d="M156.571 11.9833L145.425 14.1183L146.335 18.8705L141.458 19.8046L143.539 30.6672L148.416 29.733L149.326 34.4856L160.472 32.3506L159.562 27.598L164.438 26.6641L162.357 15.8015L157.481 16.7355L156.571 11.9833Z"/>
</mask>
<path d="M145.425 14.1183L145.237 13.1361C144.694 13.24 144.339 13.764 144.443 14.3064L145.425 14.1183ZM156.571 11.9833L157.553 11.7952C157.503 11.5347 157.352 11.3047 157.133 11.1558C156.913 11.0069 156.644 10.9513 156.383 11.0012L156.571 11.9833ZM146.335 18.8705L146.523 19.8526C147.066 19.7487 147.421 19.2248 147.317 18.6823L146.335 18.8705ZM141.458 19.8046L141.27 18.8225C141.01 18.8723 140.78 19.0237 140.631 19.2431C140.482 19.4626 140.426 19.7322 140.476 19.9927L141.458 19.8046ZM143.539 30.6672L142.557 30.8553C142.661 31.3977 143.184 31.7532 143.727 31.6493L143.539 30.6672ZM148.416 29.733L149.398 29.5449C149.294 29.0025 148.77 28.647 148.228 28.7509L148.416 29.733ZM149.326 34.4856L148.344 34.6737C148.448 35.2161 148.972 35.5716 149.514 35.4677L149.326 34.4856ZM160.472 32.3506L160.66 33.3328C161.203 33.2289 161.558 32.7049 161.455 32.1625L160.472 32.3506ZM159.562 27.598L159.374 26.6159C158.832 26.7198 158.476 27.2437 158.58 27.7862L159.562 27.598ZM164.438 26.6641L164.626 27.6462C165.169 27.5423 165.524 27.0184 165.42 26.476L164.438 26.6641ZM162.357 15.8015L163.34 15.6134C163.29 15.3529 163.138 15.1229 162.919 14.974C162.699 14.8251 162.43 14.7695 162.169 14.8194L162.357 15.8015ZM157.481 16.7355L156.499 16.9236C156.549 17.1841 156.7 17.4141 156.92 17.563C157.139 17.7119 157.409 17.7675 157.67 17.7176L157.481 16.7355ZM145.613 15.1004L156.759 12.9655L156.383 11.0012L145.237 13.1361L145.613 15.1004ZM147.317 18.6823L146.407 13.9302L144.443 14.3064L145.353 19.0586L147.317 18.6823ZM141.646 20.7867L146.523 19.8526L146.147 17.8883L141.27 18.8225L141.646 20.7867ZM144.521 30.479L142.44 19.6165L140.476 19.9927L142.557 30.8553L144.521 30.479ZM148.228 28.7509L143.351 29.685L143.727 31.6493L148.604 30.7152L148.228 28.7509ZM150.308 34.2975L149.398 29.5449L147.434 29.9211L148.344 34.6737L150.308 34.2975ZM160.284 31.3685L149.138 33.5034L149.514 35.4677L160.66 33.3328L160.284 31.3685ZM158.58 27.7862L159.49 32.5387L161.455 32.1625L160.544 27.4099L158.58 27.7862ZM164.25 25.6819L159.374 26.6159L159.75 28.5802L164.626 27.6462L164.25 25.6819ZM161.375 15.9896L163.456 26.8522L165.42 26.476L163.34 15.6134L161.375 15.9896ZM157.67 17.7176L162.546 16.7837L162.169 14.8194L157.293 15.7533L157.67 17.7176ZM155.589 12.1714L156.499 16.9236L158.464 16.5474L157.553 11.7952L155.589 12.1714Z" fill="black" mask="url(#path-29-inside-1_466_10474)"/>
<rect x="134.646" y="24.8444" width="19.0968" height="19.1424" rx="9.54838" transform="rotate(-10.8432 134.646 24.8444)" fill="white"/>
<mask id="path-32-inside-2_466_10474" fill="white">
<path fill-rule="evenodd" clip-rule="evenodd" d="M147.908 24.4705L139.334 26.1127L140.034 29.768L136.283 30.4865L137.883 38.8424L141.634 38.1239L142.334 41.7799L150.909 40.1376L150.208 36.4816L153.959 35.7631L152.359 27.4073L148.608 28.1258L147.908 24.4705Z"/>
</mask>
<path fill-rule="evenodd" clip-rule="evenodd" d="M147.908 24.4705L139.334 26.1127L140.034 29.768L136.283 30.4865L137.883 38.8424L141.634 38.1239L142.334 41.7799L150.909 40.1376L150.208 36.4816L153.959 35.7631L152.359 27.4073L148.608 28.1258L147.908 24.4705Z" fill="white"/>
<path d="M139.334 26.1127L139.145 25.1306C138.603 25.2345 138.248 25.7584 138.351 26.3009L139.334 26.1127ZM147.908 24.4705L148.89 24.2823C148.84 24.0219 148.689 23.7919 148.469 23.6429C148.25 23.494 147.98 23.4384 147.72 23.4883L147.908 24.4705ZM140.034 29.768L140.222 30.7502C140.482 30.7003 140.712 30.549 140.861 30.3295C141.01 30.11 141.066 29.8404 141.016 29.5799L140.034 29.768ZM136.283 30.4865L136.094 29.5044C135.834 29.5543 135.604 29.7056 135.455 29.9251C135.306 30.1445 135.25 30.4142 135.3 30.6747L136.283 30.4865ZM137.883 38.8424L136.901 39.0305C136.951 39.291 137.102 39.5209 137.322 39.6699C137.541 39.8188 137.811 39.8744 138.071 39.8245L137.883 38.8424ZM141.634 38.1239L142.616 37.9357C142.512 37.3933 141.988 37.0378 141.446 37.1417L141.634 38.1239ZM142.334 41.7799L141.352 41.968C141.456 42.5104 141.98 42.8659 142.523 42.762L142.334 41.7799ZM150.909 40.1376L151.097 41.1197C151.357 41.0699 151.587 40.9185 151.736 40.6991C151.885 40.4796 151.941 40.21 151.891 39.9495L150.909 40.1376ZM150.208 36.4816L150.02 35.4994C149.478 35.6033 149.122 36.1273 149.226 36.6697L150.208 36.4816ZM153.959 35.7631L154.148 36.7452C154.69 36.6413 155.045 36.1174 154.942 35.5749L153.959 35.7631ZM152.359 27.4073L153.341 27.2191C153.237 26.6767 152.713 26.3212 152.171 26.4251L152.359 27.4073ZM148.608 28.1258L147.626 28.3139C147.73 28.8563 148.253 29.2118 148.796 29.1079L148.608 28.1258ZM139.522 27.0949L148.096 25.4526L147.72 23.4883L139.145 25.1306L139.522 27.0949ZM141.016 29.5799L140.316 25.9246L138.351 26.3009L139.052 29.9562L141.016 29.5799ZM136.471 31.4687L140.222 30.7502L139.846 28.7859L136.094 29.5044L136.471 31.4687ZM138.865 38.6542L137.265 30.2984L135.3 30.6747L136.901 39.0305L138.865 38.6542ZM141.446 37.1417L137.695 37.8602L138.071 39.8245L141.822 39.106L141.446 37.1417ZM143.317 41.5918L142.616 37.9357L140.652 38.312L141.352 41.968L143.317 41.5918ZM150.72 39.1555L142.146 40.7977L142.523 42.762L151.097 41.1197L150.72 39.1555ZM149.226 36.6697L149.926 40.3257L151.891 39.9495L151.19 36.2935L149.226 36.6697ZM153.771 34.7809L150.02 35.4994L150.396 37.4637L154.148 36.7452L153.771 34.7809ZM151.377 27.5954L152.977 35.9512L154.942 35.5749L153.341 27.2191L151.377 27.5954ZM148.796 29.1079L152.547 28.3894L152.171 26.4251L148.42 27.1436L148.796 29.1079ZM146.925 24.6586L147.626 28.3139L149.59 27.9376L148.89 24.2823L146.925 24.6586Z" fill="black" mask="url(#path-32-inside-2_466_10474)"/>
<defs>
<linearGradient id="paint0_linear_466_10474" x1="207" y1="121" x2="30" y2="143" gradientUnits="userSpaceOnUse">
<stop stop-color="#1E72B9" stop-opacity="0"/>
<stop offset="1" stop-color="#1E72B9"/>
</linearGradient>
</defs>
</svg>
