<svg width="155" height="168" viewBox="0 0 155 168" fill="none" xmlns="http://www.w3.org/2000/svg">
<path d="M95.5695 96.5302L0 93.1685C0 93.1685 17.4875 138.36 34.5779 152.239C51.6621 166.113 54.7484 167.127 54.7484 167.127L62.4324 156.081L134.95 158.002L95.5695 96.5302Z" fill="url(#paint0_linear_466_10361)"/>
<path d="M33.2036 120.819C33.2036 117.32 36.8482 108.427 38.6705 104.418L44.1374 97.3112L51.2444 90.7509L56.1646 88.0174L54.5245 86.3774L53.9779 83.6439L50.6977 83.0972L45.2308 81.4571L41.404 77.0836L39.7639 72.7101L39.2172 68.8833V64.5097L41.9507 60.1362L43.5907 58.4961L42.4974 57.4028L41.404 54.6693L40.8573 52.4825V50.2958L41.404 47.5623L43.5907 44.8289L45.7775 43.7355L45.2308 42.6421L43.5907 38.8153V33.8951L44.6841 28.4282L49.0576 22.9613L56.1646 19.6811L59.4448 20.2278V18.041L59.9915 14.7609L61.6315 11.4807L65.4584 9.29399L68.7385 8.74729L71.472 9.29399L73.6587 5.46715L77.4855 2.18701L81.8591 0.546936H85.6859L89.5127 1.09363L93.3396 3.28039L96.6197 7.10722L98.2598 10.9341L100.447 9.84068L107.007 9.29399L111.927 10.3874L117.394 15.8543L119.581 21.3212V22.9613L125.048 24.0546L127.781 25.6947L130.515 28.9748L133.248 32.8017L134.341 38.8153L133.248 44.8289L131.061 48.6557L135.435 51.3892L138.168 55.216L139.262 58.4961V62.8697L137.075 69.9766L132.155 73.8035L127.234 74.8969V77.0836L126.141 80.3638L121.767 84.7373L129.968 89.1108L135.435 94.5777L139.808 100.591L144.182 108.792L148.009 122.459C148.446 136.892 137.622 139.042 132.155 138.313L130.515 139.953L128.328 145.42L131.608 150.34L132.701 152.527L134.341 155.807L135.435 157.994L134.888 159.634L132.155 162.914L127.781 166.194L122.314 165.647L110.834 163.461L105.913 162.367L96.6197 165.101L91.6995 165.647L83.4991 164.007L74.7521 161.274L55.6179 166.741L52.8845 165.647L49.0576 162.367L46.8709 157.994L49.0576 151.98L51.7911 145.967L45.7775 139.406C43.773 138.495 40.4928 139.406 35.9371 133.939C33.2036 130.659 33.2036 125.192 33.2036 120.819Z" fill="white"/>
<path fill-rule="evenodd" clip-rule="evenodd" d="M80.2855 126.968C78.8915 126.797 77.6764 126.09 76.4469 125.193C74.75 123.956 73.046 122.351 70.9492 121.093C69.5678 120.265 68.0192 119.593 66.2136 119.244C63.3466 118.718 60.8355 118.061 58.0879 118.333C55.8015 118.56 53.3551 119.417 50.4314 121.481C47.4511 123.604 45.5575 126.563 44.6659 129.576C43.5775 133.252 43.973 136.991 45.615 139.343C45.7381 139.526 45.9853 139.574 46.1677 139.451C46.3502 139.328 46.3987 139.081 46.2756 138.899C44.8385 136.691 44.6237 133.25 45.7237 129.907C46.6252 127.164 48.4245 124.488 51.2151 122.614C53.9132 120.787 56.1493 120.048 58.2327 119.858C60.8426 119.621 63.2226 120.236 65.9449 120.726C67.5797 121.003 68.9845 121.587 70.2517 122.296C72.3485 123.469 74.0786 124.982 75.7935 126.128C77.2117 127.076 78.6228 127.778 80.192 127.9C80.449 127.926 80.6782 127.738 80.7043 127.481C80.7295 127.224 80.5425 126.995 80.2855 126.968Z" fill="black"/>
<path fill-rule="evenodd" clip-rule="evenodd" d="M47.8105 141.905C48.4756 142.716 49.217 143.631 50.4322 145.004C51.1521 145.816 52.0391 146.789 53.1716 147.996C54.4883 149.395 55.7519 150.617 56.9383 151.513C58.1103 152.399 59.2247 152.963 60.2349 153.127C61.4285 153.32 62.516 153.003 63.4534 151.981C64.9777 153.306 66.4669 154.075 67.7431 154.238C68.9789 154.398 70.0556 154.05 70.8654 153.134C71.553 153.67 72.2729 153.95 72.9326 154.024C73.8385 154.126 74.6474 153.854 75.201 153.324C75.9623 152.59 76.3496 151.54 76.3002 150.121C76.2732 149.367 76.1232 148.496 75.849 147.506C76.4135 147.627 76.9967 147.58 77.5108 147.332C78.5552 146.829 79.454 145.435 78.9632 142.681C78.4114 139.602 78.0105 137.13 76.2957 133.677C75.2397 131.55 73.683 129.049 71.2726 125.797C71.144 125.618 70.8951 125.579 70.7171 125.707C70.5383 125.836 70.4978 126.085 70.6264 126.264C72.9128 129.516 74.3814 132.01 75.3682 134.124C76.9428 137.5 77.27 139.899 77.7337 142.887C77.9674 144.38 77.7751 145.333 77.3086 145.85C76.7118 146.513 75.6954 146.223 75.166 145.535C74.9548 145.266 74.5791 145.19 74.2798 145.355C73.9805 145.52 73.8448 145.878 73.9598 146.2C74.5108 147.787 74.8128 149.102 74.8325 150.161C74.8496 151.071 74.6564 151.764 74.1612 152.227C73.8394 152.529 73.3298 152.594 72.7915 152.439C72.2989 152.298 71.7893 151.97 71.3202 151.444C71.153 151.257 70.9059 151.163 70.6569 151.191C70.4071 151.22 70.1869 151.366 70.0655 151.585C69.5802 152.461 68.8342 152.814 67.9364 152.703C66.7347 152.555 65.3336 151.714 63.8794 150.341C63.7185 150.189 63.4983 150.115 63.2772 150.14C63.057 150.165 62.8593 150.287 62.7371 150.472C62.3227 151.114 61.8671 151.51 61.3404 151.661C60.7724 151.824 60.1495 151.712 59.4737 151.428C57.8604 150.75 56.0215 149.144 54.0407 147.154C52.8795 145.992 51.9717 145.055 51.2303 144.273C49.981 142.955 49.2108 142.077 48.5223 141.298C48.3551 141.101 48.0595 141.078 47.8635 141.245C47.6667 141.412 47.6424 141.708 47.8105 141.905Z" fill="black"/>
<path fill-rule="evenodd" clip-rule="evenodd" d="M112.387 126.228C110.823 127.836 108.618 130.71 106.551 133.624C104.377 136.69 102.358 139.798 101.398 141.519C100.551 143.039 100.313 144.557 100.679 145.537C101.004 146.411 101.787 146.986 103.109 146.834C102.93 147.188 102.821 147.533 102.765 147.861C102.574 148.986 103.019 149.945 103.611 150.526C104.129 151.037 104.962 151.275 105.974 151.158C106.636 151.081 107.381 150.85 108.154 150.455C108.45 151.188 109.182 151.79 110.395 151.938C111.768 152.105 113.885 151.625 116.723 149.754C117.568 150.246 118.39 150.68 119.18 150.954C120 151.239 120.791 151.35 121.549 151.224C122.377 151.087 123.645 150.579 124.856 149.864C125.94 149.224 126.975 148.416 127.627 147.591C128.071 147.029 128.513 146.254 128.944 145.389C129.769 143.736 130.568 141.729 131.336 140.38C131.638 139.845 132.154 139.416 132.718 138.939C133.569 138.221 134.532 137.435 135.314 136.312C136.015 135.307 136.576 134.041 136.79 132.325C137.15 129.305 136.128 126.074 133.945 123.532C132.066 121.344 129.336 119.665 125.944 119.071C122.75 118.527 119.888 118.735 117.369 119.38C114.276 120.17 111.708 121.602 109.68 123.032C107.771 124.381 105.978 125.399 104.286 126.035C102.893 126.558 101.575 126.825 100.316 126.789C100.14 126.781 99.9896 126.917 99.9815 127.093C99.9725 127.269 100.108 127.419 100.284 127.428C101.627 127.522 103.049 127.306 104.558 126.807C106.339 126.217 108.238 125.227 110.27 123.9C112.24 122.609 114.722 121.336 117.679 120.676C120.04 120.148 122.705 120.016 125.662 120.602C128.635 121.179 131.005 122.698 132.631 124.645C134.451 126.824 135.334 129.549 135.008 132.105C134.841 133.475 134.403 134.49 133.847 135.294C133.165 136.279 132.316 136.961 131.576 137.597C130.841 138.225 130.205 138.823 129.815 139.527C129.051 140.909 128.259 142.959 127.44 144.65C127.075 145.406 126.708 146.087 126.329 146.579C125.795 147.275 124.93 147.948 124.034 148.496C123.027 149.113 121.978 149.579 121.285 149.705C120.768 149.8 120.227 149.71 119.662 149.525C118.833 149.252 117.964 148.778 117.062 148.264C116.817 148.121 116.51 148.134 116.277 148.297C114.217 149.776 112.584 150.451 111.362 150.602C109.96 150.774 109.192 150.249 109.285 149.515C109.32 149.267 109.205 149.022 108.992 148.889C108.779 148.757 108.51 148.762 108.301 148.901C107.592 149.39 106.888 149.717 106.249 149.878C105.471 150.074 104.801 150.053 104.415 149.69C104.038 149.335 103.756 148.739 103.861 148.035C103.94 147.495 104.232 146.903 104.823 146.294C105.001 146.115 105.027 145.835 104.886 145.626C104.745 145.417 104.475 145.337 104.243 145.435C102.763 146.08 101.89 145.949 101.588 145.187C101.275 144.401 101.524 143.186 102.181 141.943C103.092 140.217 105.021 137.092 107.102 134.005C109.082 131.068 111.198 128.165 112.709 126.535C112.793 126.446 112.79 126.305 112.701 126.22C112.612 126.136 112.472 126.139 112.387 126.228Z" fill="black"/>
<path fill-rule="evenodd" clip-rule="evenodd" d="M107.419 163.236C109.004 163.557 112.27 164.323 115.736 165.043C117.621 165.435 119.565 165.812 121.326 166.112C122.687 166.344 123.941 166.526 124.974 166.636C126.191 166.766 127.124 166.781 127.611 166.689C128.879 166.437 130.751 165.208 132.377 163.694C133.979 162.203 135.345 160.463 135.74 159.286C135.861 158.925 135.859 158.406 135.706 157.777C135.521 157.018 135.135 156.064 134.633 155.037C132.871 151.436 129.718 146.898 129.718 146.898C129.647 146.789 129.5 146.758 129.391 146.83C129.283 146.901 129.252 147.049 129.323 147.157C129.323 147.157 131.607 150.841 133.216 154.221C133.815 155.477 134.32 156.689 134.567 157.646C134.707 158.187 134.778 158.624 134.671 158.903C134.276 159.941 132.954 161.412 131.478 162.697C130.035 163.953 128.44 165.039 127.34 165.227C126.931 165.301 126.15 165.246 125.129 165.142C124.117 165.04 122.889 164.876 121.55 164.684C119.793 164.431 117.85 164.123 115.959 163.823C112.461 163.267 109.147 162.733 107.545 162.505C107.343 162.471 107.152 162.607 107.116 162.808C107.082 163.01 107.218 163.202 107.419 163.236Z" fill="black"/>
<path fill-rule="evenodd" clip-rule="evenodd" d="M65.3744 130.049C66.9049 132.244 68.5677 135.078 70.1072 137.98C71.645 140.88 73.056 143.846 74.0842 146.312C74.2101 146.6 74.5462 146.732 74.8338 146.607C75.1223 146.481 75.2544 146.145 75.1286 145.856C74.0096 143.401 72.4862 140.453 70.8379 137.578C69.1896 134.703 67.4181 131.902 65.8031 129.74C65.7177 129.621 65.5523 129.595 65.4346 129.68C65.3159 129.765 65.2899 129.93 65.3744 130.049Z" fill="black"/>
<path fill-rule="evenodd" clip-rule="evenodd" d="M59.9224 135.949C61.6714 138.344 63.6091 141.18 65.3904 143.932C67.418 147.065 69.2407 150.084 70.3453 152.207C70.4945 152.484 70.8405 152.588 71.1173 152.437C71.3941 152.288 71.4975 151.942 71.3483 151.665C70.1655 149.557 68.2305 146.566 66.0834 143.468C64.2086 140.763 62.1747 137.979 60.3439 135.631C60.2558 135.515 60.0905 135.491 59.9736 135.579C59.8577 135.667 59.8343 135.833 59.9224 135.949Z" fill="black"/>
<path fill-rule="evenodd" clip-rule="evenodd" d="M53.9568 139.807L62.8788 151.047C63.0774 151.291 63.4369 151.327 63.6805 151.128C63.924 150.93 63.96 150.57 63.7614 150.327L54.3648 139.471C54.2732 139.359 54.106 139.343 53.9937 139.436C53.8813 139.528 53.8642 139.694 53.9568 139.807Z" fill="black"/>
<path fill-rule="evenodd" clip-rule="evenodd" d="M49.2191 134.315C50.2284 131.9 51.7554 129.477 53.7039 127.398C54.449 126.602 55.2588 125.861 56.1225 125.179C56.6366 124.772 57.1642 124.381 57.7178 124.02C58.5402 123.484 59.4039 123.002 60.335 122.613C60.4554 122.57 60.5183 122.438 60.4752 122.318C60.432 122.197 60.2999 122.134 60.1795 122.177C59.1738 122.477 58.2184 122.864 57.3188 123.346C56.7058 123.674 56.1198 124.041 55.5662 124.451C54.6369 125.137 53.7947 125.931 53.0326 126.784C51.0733 128.977 49.655 131.585 48.7275 134.123C48.6745 134.259 48.741 134.411 48.8767 134.464C49.0124 134.517 49.1661 134.451 49.2191 134.315Z" fill="black"/>
<path fill-rule="evenodd" clip-rule="evenodd" d="M39.3306 130.319C39.8618 127.851 41.8345 124.779 44.5506 122.478C45.5167 121.66 46.5773 120.944 47.7052 120.374C48.3838 120.032 49.0803 119.735 49.8038 119.514C50.8841 119.183 52.0103 118.998 53.1804 119.042C53.3081 119.052 53.4204 118.958 53.4312 118.83C53.4411 118.702 53.3467 118.591 53.2191 118.58C51.9851 118.421 50.7727 118.49 49.6025 118.756C48.8107 118.936 48.0405 119.203 47.3035 119.55C46.0893 120.122 44.964 120.901 43.9556 121.79C41.1578 124.259 39.2677 127.612 38.812 130.218C38.7841 130.361 38.8776 130.499 39.0214 130.527C39.1643 130.555 39.3027 130.462 39.3306 130.319Z" fill="black"/>
<path fill-rule="evenodd" clip-rule="evenodd" d="M128.351 118.315C131.255 117.979 134.153 118.993 136.454 120.907C137.331 121.636 138.117 122.498 138.8 123.466C139.197 124.031 139.565 124.625 139.886 125.258C140.354 126.18 140.738 127.167 140.99 128.234C141.013 128.36 141.134 128.443 141.259 128.419C141.385 128.397 141.469 128.276 141.445 128.15C141.293 127.011 141.01 125.933 140.599 124.932C140.31 124.229 139.963 123.565 139.556 122.95C138.853 121.886 137.989 120.964 137.028 120.201C134.53 118.215 131.359 117.304 128.279 117.791C128.134 117.81 128.033 117.944 128.053 118.088C128.073 118.233 128.206 118.334 128.351 118.315Z" fill="black"/>
<path fill-rule="evenodd" clip-rule="evenodd" d="M104.939 146.097C106.593 144.643 109.291 141.664 111.875 138.55C114.385 135.526 116.789 132.375 118.027 130.379C118.106 130.256 118.069 130.093 117.946 130.014C117.822 129.937 117.659 129.973 117.582 130.097C116.32 132.055 113.88 135.14 111.341 138.099C108.737 141.13 106.027 144.03 104.369 145.438C104.187 145.595 104.167 145.87 104.324 146.053C104.481 146.234 104.756 146.254 104.939 146.097Z" fill="black"/>
<path fill-rule="evenodd" clip-rule="evenodd" d="M108.733 149.855C110.179 148.827 112.222 146.898 114.323 144.699C117.09 141.802 119.96 138.439 121.691 136.086C121.778 135.969 121.754 135.804 121.638 135.716C121.521 135.628 121.355 135.652 121.268 135.769C119.507 138.074 116.596 141.361 113.797 144.187C111.701 146.303 109.669 148.16 108.235 149.14C108.039 149.278 107.99 149.549 108.128 149.746C108.265 149.944 108.536 149.992 108.733 149.855Z" fill="black"/>
<path fill-rule="evenodd" clip-rule="evenodd" d="M116.801 148.996C118.331 147.979 119.724 146.888 121.075 145.686C122.364 144.537 123.613 143.288 124.906 141.907C125.007 141.801 125.004 141.634 124.899 141.534C124.795 141.432 124.628 141.435 124.526 141.54C123.204 142.866 121.929 144.061 120.618 145.156C119.258 146.292 117.86 147.316 116.331 148.263C116.129 148.393 116.07 148.663 116.199 148.865C116.329 149.067 116.599 149.125 116.801 148.996Z" fill="black"/>
<path fill-rule="evenodd" clip-rule="evenodd" d="M120.502 126.185C121.422 126.82 122.277 127.556 123.083 128.324C123.91 129.111 124.669 129.947 125.37 130.77C125.821 131.297 126.251 131.816 126.647 132.324C127.833 133.85 128.728 135.262 129.2 136.256C129.238 136.343 129.338 136.382 129.426 136.345C129.512 136.307 129.551 136.205 129.514 136.119C129.096 135.074 128.3 133.557 127.159 131.944C126.778 131.406 126.361 130.856 125.898 130.318C125.175 129.479 124.355 128.66 123.466 127.901C122.6 127.161 121.661 126.492 120.676 125.912C120.601 125.864 120.5 125.886 120.452 125.961C120.404 126.037 120.426 126.137 120.502 126.185Z" fill="black"/>
<path fill-rule="evenodd" clip-rule="evenodd" d="M80.3353 128.443C80.0531 128.482 79.5597 128.501 78.9917 128.519C77.3397 128.571 75.1009 128.553 75.1009 128.553C74.9068 128.547 74.7441 128.699 74.7369 128.893C74.7307 129.087 74.8825 129.251 75.0776 129.257C75.0776 129.257 77.3308 129.395 78.998 129.423C79.8581 129.437 80.5726 129.407 80.8054 129.343C81.0921 129.263 81.3212 128.984 81.3419 128.474C81.3662 127.898 81.1109 126.83 81.0291 125.863C80.9869 125.361 80.9581 124.89 81.1747 124.621C81.2044 124.584 81.2709 124.566 81.3464 124.53C81.5693 124.425 81.8803 124.328 82.2542 124.235C83.6994 123.873 86.0289 123.627 88.1949 123.651C89.2528 123.662 90.2711 123.734 91.1249 123.903C91.8035 124.037 92.3724 124.215 92.7346 124.498C92.9161 124.638 92.9934 124.869 93.0455 125.127C93.1102 125.448 93.1219 125.81 93.1156 126.177C93.1004 127.135 92.9799 128.124 93.0923 128.702C93.1812 129.16 93.4014 129.455 93.6935 129.595C93.8931 129.692 94.4467 129.801 95.2547 129.873C97.9249 130.112 103.775 130.249 107.496 130.836C107.725 130.876 107.943 130.722 107.983 130.493C108.023 130.264 107.87 130.045 107.64 130.006C106.439 129.776 105.014 129.584 103.544 129.423C100.751 129.114 97.7937 128.907 95.9153 128.713C95.1675 128.636 94.6103 128.581 94.3523 128.507C94.3406 128.408 94.3182 128.188 94.3227 128.012C94.3406 127.248 94.4925 126.216 94.4233 125.338C94.3604 124.53 94.0971 123.844 93.5776 123.428C92.9934 122.964 92.029 122.631 90.8571 122.454C89.6761 122.277 88.274 122.239 86.8872 122.311C84.8749 122.414 82.8968 122.739 81.6754 123.12C80.924 123.354 80.4261 123.651 80.2409 123.899C79.9354 124.31 79.8284 124.949 79.8886 125.672C79.9533 126.458 80.1861 127.354 80.2931 128.014C80.3173 128.162 80.3299 128.333 80.3353 128.443Z" fill="black"/>
<path fill-rule="evenodd" clip-rule="evenodd" d="M92.9313 123.979C92.9313 123.979 94.9759 124.027 96.7905 124.284C97.3172 124.358 97.8232 124.449 98.251 124.565C98.5683 124.651 98.8397 124.739 99.0159 124.871C99.3915 125.134 99.4886 125.652 99.5129 126.195C99.5722 127.478 99.1399 128.943 99.1399 128.943C99.077 129.118 99.1678 129.312 99.343 129.376C99.5183 129.439 99.7124 129.348 99.7762 129.173C99.7762 129.173 100.433 127.612 100.493 126.192C100.53 125.288 100.285 124.461 99.6926 123.977C99.2666 123.657 98.4883 123.406 97.5779 123.292C95.561 123.041 92.9052 123.303 92.9052 123.303C92.7192 123.31 92.5736 123.468 92.5808 123.655C92.588 123.841 92.7452 123.986 92.9313 123.979Z" fill="black"/>
<path fill-rule="evenodd" clip-rule="evenodd" d="M76.7095 134.997C78.5816 134.749 81.4999 134.68 84.7516 134.68C85.973 134.68 87.242 134.692 88.5201 134.702C89.7801 134.712 91.0492 134.725 92.2913 134.736C97.2848 134.781 101.839 134.883 103.598 135.013C103.733 135.024 103.853 134.924 103.865 134.79C103.877 134.655 103.777 134.535 103.642 134.524C102.073 134.354 98.2815 134.072 93.9279 133.921C91.8338 133.848 89.6094 133.801 87.4434 133.814C83.1141 133.84 79.0175 134.075 76.6304 134.475C76.4866 134.497 76.3869 134.632 76.4093 134.775C76.4309 134.919 76.5657 135.019 76.7095 134.997Z" fill="black"/>
<path fill-rule="evenodd" clip-rule="evenodd" d="M84.3996 125.026C84.3996 125.026 87.1957 124.997 89.2628 125.158C90.1157 125.224 90.8419 125.282 91.1313 125.489C91.3362 125.629 91.4135 126.102 91.4908 126.614C91.6409 127.604 91.6481 128.762 91.6481 128.762C91.6436 128.865 91.7236 128.951 91.8252 128.955C91.9276 128.959 92.0139 128.88 92.0184 128.778C92.0184 128.778 92.1469 127.267 92.0103 126.174C91.9375 125.597 91.7533 125.138 91.5214 124.955C91.1808 124.701 90.3314 124.51 89.3095 124.454C87.2091 124.338 84.3763 124.647 84.3763 124.647C84.272 124.653 84.192 124.744 84.1983 124.848C84.2046 124.953 84.2945 125.033 84.3996 125.026Z" fill="black"/>
<path fill-rule="evenodd" clip-rule="evenodd" d="M51.6906 156.189C51.6906 156.189 51.0704 157.275 50.8134 158.356C50.6624 158.989 50.6588 159.618 50.8826 160.062C51.1405 160.531 51.7032 161.242 52.3575 161.928C53.507 163.135 54.8928 164.303 54.8928 164.303C54.9674 164.373 55.0843 164.37 55.1553 164.296C55.2254 164.222 55.2227 164.105 55.149 164.034C55.149 164.034 53.9348 162.722 52.8536 161.477C52.2739 160.809 51.7211 160.173 51.483 159.735C51.296 159.416 51.3149 158.948 51.3904 158.47C51.554 157.435 52.0294 156.36 52.0294 156.36C52.0761 156.267 52.0393 156.153 51.9458 156.105C51.8523 156.057 51.7373 156.095 51.6906 156.189Z" fill="black"/>
<path fill-rule="evenodd" clip-rule="evenodd" d="M50.6226 147.504C49.8209 149.388 48.1834 152.715 47.3107 155.501C46.8191 157.071 46.5935 158.484 46.7984 159.423C47.0932 160.746 48.4251 162.553 49.9962 164.117C51.6175 165.73 53.4842 167.073 54.5762 167.462C54.9762 167.6 55.6835 167.627 56.6083 167.495C57.6446 167.347 59.008 167.024 60.5206 166.596C62.4781 166.044 64.6926 165.318 66.7769 164.606C69.2233 163.769 71.4837 162.943 72.9432 162.459C73.1886 162.385 73.327 162.126 73.2524 161.881C73.1787 161.636 72.9199 161.498 72.6745 161.572C71.1889 161.98 68.8782 162.668 66.3931 163.397C64.2999 164.01 62.0827 164.646 60.1297 165.141C58.6791 165.509 57.3786 165.799 56.3908 165.934C55.7967 166.014 55.3438 166.065 55.0867 165.977C54.1152 165.655 52.4776 164.455 51.0019 163.074C49.5899 161.753 48.3038 160.273 48.0018 159.13C47.7897 158.343 47.9829 157.143 48.3326 155.793C49.057 152.999 50.4977 149.63 51.1906 147.729C51.2526 147.572 51.1762 147.394 51.0189 147.332C50.8617 147.27 50.6846 147.348 50.6226 147.504Z" fill="black"/>
<path fill-rule="evenodd" clip-rule="evenodd" d="M71.0415 160.103C71.0415 160.103 77.1621 162.664 83.6448 164.436C86.7033 165.273 89.8444 165.915 92.4562 166.082C93.6893 166.148 95.0779 166.026 96.5456 165.738C98.3907 165.378 100.366 164.773 102.32 164.046C109.134 161.511 115.698 157.539 115.698 157.539C115.811 157.474 115.851 157.33 115.787 157.217C115.722 157.103 115.578 157.063 115.464 157.128C115.464 157.128 108.768 160.687 101.932 162.939C100.016 163.571 98.0905 164.1 96.2984 164.42C94.9431 164.661 93.6669 164.791 92.5317 164.726C89.9918 164.608 86.9379 164.005 83.9477 163.27C77.4784 161.681 71.313 159.414 71.313 159.414C71.1224 159.338 70.9067 159.433 70.8321 159.623C70.7575 159.814 70.851 160.028 71.0415 160.103Z" fill="black"/>
<path fill-rule="evenodd" clip-rule="evenodd" d="M83.1199 68.7011C86.3142 67.2677 88.2201 64.4691 88.8103 61.435C89.4205 58.2994 88.6348 54.9244 86.4365 52.6258C83.6246 49.6487 79.718 48.8088 76.3474 49.8345C73.1246 50.8154 70.3676 53.5015 69.56 57.7877C68.7983 61.6871 70.4718 65.0126 73.1132 67.0948C75.9064 69.2974 79.7948 70.0745 83.1199 68.7011ZM82.409 67.0505C79.6699 68.2783 76.4099 67.6733 74.0299 65.8984C71.7268 64.1806 70.2423 61.3638 70.8126 58.0171C71.4818 54.2418 73.8518 51.8069 76.6863 50.9484C79.6376 50.0541 83.059 50.8727 85.4855 53.5115C87.3206 55.5324 87.9165 58.4475 87.3165 61.1224C86.7532 63.6372 85.1077 65.9374 82.409 67.0505Z" fill="black"/>
<path fill-rule="evenodd" clip-rule="evenodd" d="M106.168 67.8647C109.32 66.687 111.258 64.1737 111.967 61.3818C112.712 58.446 112.104 55.2152 110.129 52.9889C107.636 50.1373 104.084 49.2172 100.97 50.0265C97.9755 50.8058 95.3568 53.1839 94.4938 57.1288C93.6922 60.6711 94.9792 63.769 97.1755 65.802C99.5505 68.001 103.008 68.9278 106.168 67.8647ZM105.567 66.171C103.017 67.1222 100.176 66.4141 98.1867 64.6779C96.2784 63.013 95.1477 60.4088 95.7462 57.3947C96.4516 53.9663 98.666 51.8252 101.263 51.1513C103.957 50.4519 107.026 51.3354 109.151 53.8319C110.771 55.7641 111.206 58.5191 110.499 60.9855C109.846 63.2636 108.192 65.2892 105.567 66.171Z" fill="black"/>
<path fill-rule="evenodd" clip-rule="evenodd" d="M60.9908 37.2744C62.5556 38.8814 63.6691 41.0662 63.7833 43.3032C63.8866 45.3209 63.1479 47.3764 61.1472 49.0661C61.0016 49.1937 60.9207 49.3797 60.927 49.573C60.9324 49.7671 61.0259 49.9478 61.1796 50.0655C64.2515 52.4472 65.6662 55.627 65.6132 58.7421C65.5574 61.9525 63.9442 65.1035 60.8722 67.247C60.732 67.3423 60.6376 67.4915 60.6107 67.6596C60.5837 67.8267 60.6268 67.9975 60.7302 68.1323C62.3183 70.1464 63.2045 72.3169 63.1676 74.2987C63.1281 76.4162 62.0226 78.2973 59.6346 79.5115C59.4369 79.6077 59.3542 79.8467 59.4513 80.0444C59.5474 80.2422 59.7865 80.324 59.9842 80.2278C62.7749 78.921 64.0754 76.7676 64.1958 74.3337C64.2965 72.2963 63.5433 70.0449 62.0837 67.904C65.2563 65.5619 66.9721 62.2014 67.0395 58.7691C67.1051 55.4616 65.6419 52.0904 62.5484 49.5038C64.3899 47.5813 65.0299 45.3731 64.8438 43.2304C64.6317 40.7768 63.3312 38.4131 61.5445 36.7144C61.3899 36.5617 61.1409 36.5626 60.9881 36.7171C60.8354 36.8717 60.8363 37.1216 60.9908 37.2744Z" fill="black"/>
<path fill-rule="evenodd" clip-rule="evenodd" d="M71.2868 8.90426C67.8688 7.59298 64.4302 8.40995 62.0314 10.558C59.8276 12.5317 58.4966 15.6405 58.8839 19.2822C52.4965 19.0045 47.4787 22.3056 44.8103 27.0565C42.1913 31.7192 41.8444 37.7894 44.697 43.2557C41.6386 44.6595 40.0594 48.189 40.2482 51.846C40.4288 55.3314 42.1994 58.9012 45.7117 60.6943C45.9841 60.8363 46.3202 60.7293 46.4613 60.457C46.6024 60.1847 46.4964 59.8485 46.224 59.7074C43.1287 58.0771 41.6125 54.8829 41.4894 51.7894C41.3644 48.6339 42.6847 45.5466 45.3738 44.4322C46.5224 46.2171 47.725 47.0152 48.7406 47.2561C50.3287 47.6335 51.5869 46.7635 52.0507 45.6877C52.3455 45.0038 52.3284 44.2362 51.924 43.5981C51.5878 43.0669 50.9677 42.5987 49.9467 42.4153C49.047 42.2545 47.7834 42.312 46.0847 42.7766C43.3417 37.7265 43.614 32.0751 46.0245 27.7341C48.4754 23.3221 53.1409 20.2691 59.096 20.5881C59.9651 24.415 62.5311 24.1984 63.4865 23.2215C63.8918 22.8071 64.0886 22.2364 63.9673 21.6451C63.7929 20.7975 62.798 19.719 60.1197 19.382C59.6748 16.0665 60.8216 13.2156 62.8034 11.4145C64.9128 9.49834 67.9596 8.78024 70.992 9.95222C70.8482 10.7 70.939 11.2177 71.107 11.552C71.4737 12.2782 72.2116 12.3861 72.7778 12.1245C73.2254 11.9178 73.5508 11.4729 73.5247 10.9328C73.504 10.4816 73.2011 9.87043 72.2341 9.33297C73.9561 3.97278 79.0547 1.05541 84.2621 0.915207C89.4552 0.775001 94.7695 3.39758 97.0281 9.14603C97.1063 9.34825 97.3355 9.44891 97.5377 9.37072C97.7399 9.29163 97.8406 9.06334 97.7624 8.86112C95.404 2.72531 89.7688 -0.104884 84.2415 0.00296701C78.6674 0.111717 73.2173 3.21513 71.2868 8.90426ZM46.8262 43.9945C47.3726 44.7755 47.9182 45.2896 48.4431 45.5915C49.0668 45.9511 49.6357 45.9798 50.0725 45.7839C50.3835 45.6446 50.6216 45.4001 50.7448 45.1206C50.9057 44.7539 50.8382 44.3189 50.4212 44.0565C49.7813 43.652 48.6381 43.5604 46.8262 43.9945ZM60.392 20.7148C60.7111 21.8023 61.1874 22.3614 61.7078 22.5366C62.0503 22.6508 62.3855 22.5546 62.5868 22.347C62.7558 22.1708 62.7962 21.9039 62.6111 21.6567C62.2965 21.237 61.6018 20.8991 60.392 20.7148ZM71.9689 10.4205C71.9375 10.7081 71.9644 10.922 72.0426 11.0757C72.1064 11.1988 72.2341 11.2105 72.3302 11.1646C72.4237 11.1206 72.4902 11.0172 72.4363 10.8941C72.3662 10.735 72.2152 10.5787 71.9689 10.4205Z" fill="black"/>
<path fill-rule="evenodd" clip-rule="evenodd" d="M130.803 47.4696C129.017 46.8072 127.576 46.5606 126.449 46.5764C123.287 46.6201 122.318 48.6129 122.692 50.1284C122.884 50.9059 123.438 51.6129 124.303 51.9888C125.73 52.6097 128.231 52.3154 131.226 49.1564C137.143 51.7231 139.306 57.7099 138.631 63.1786C137.904 69.0657 133.892 74.4032 127.597 74.2584C126.718 70.5943 124.333 70.8095 123.452 71.7571C122.587 72.6879 122.695 74.9055 126.806 75.2978C127.101 77.5474 126.177 80.1984 124.11 81.6991C122.388 82.9503 119.881 83.3856 116.635 82.1898C116.432 82.1135 116.204 82.2166 116.128 82.4206C116.052 82.6239 116.155 82.8506 116.358 82.9269C119.932 84.2893 122.704 83.7757 124.624 82.4144C126.936 80.7744 128.019 77.8721 127.785 75.3519C134.589 75.4545 139.037 69.7408 139.884 63.3396C140.664 57.445 138.382 51.0095 132.179 48.0464C135.803 43.3171 135.743 36.5647 132.856 31.1317C130.076 25.9004 124.7 21.9059 117.609 22.1823C117.303 22.1923 117.061 22.4495 117.072 22.7563C117.083 23.063 117.339 23.3033 117.646 23.2928C124.223 23.1106 129.16 26.8693 131.693 31.7429C134.342 36.8393 134.382 43.1751 130.803 47.4696ZM126.568 74.189C126.216 72.9947 125.697 72.3995 125.151 72.2242C124.779 72.1038 124.421 72.2217 124.21 72.4538C124.018 72.6644 123.973 72.9784 124.188 73.2633C124.519 73.6996 125.26 74.0417 126.568 74.189ZM129.75 48.5988C127.451 47.8398 125.892 47.8663 124.942 48.3212C124.245 48.6544 123.971 49.2434 124.104 49.779C124.358 50.8002 125.769 51.3211 127.808 50.1225C128.411 49.7678 129.061 49.2684 129.75 48.5988Z" fill="black"/>
<path fill-rule="evenodd" clip-rule="evenodd" d="M113.887 39.6174C112.866 41.4509 112.294 43.2466 112.078 44.9497C111.908 46.297 111.966 47.5849 112.189 48.7794C112.44 50.1203 112.905 51.3471 113.513 52.4103C114.398 53.958 115.583 55.1587 116.825 55.9317C115.251 57.598 114.689 59.7891 115.123 61.8185C115.588 63.9863 117.174 65.9789 119.861 66.857C120.073 66.9325 120.306 66.821 120.381 66.6089C120.456 66.3968 120.345 66.164 120.133 66.0885C117.867 65.223 116.563 63.4794 116.248 61.6037C115.929 59.6957 116.662 57.6591 118.471 56.3415C118.671 56.1905 118.775 55.946 118.748 55.698C118.72 55.4499 118.564 55.2342 118.337 55.13C117.029 54.5161 115.78 53.2758 114.846 51.6464C114.311 50.7135 113.877 49.6529 113.611 48.4846C113.368 47.4231 113.255 46.2781 113.323 45.063C113.412 43.4659 113.788 41.7538 114.591 39.9706C114.688 39.7765 114.61 39.5392 114.416 39.4422C114.222 39.3442 113.984 39.4233 113.887 39.6174Z" fill="black"/>
<path fill-rule="evenodd" clip-rule="evenodd" d="M94.9317 13.5397C97.2532 11.2569 100.389 10.0319 103.631 9.82965C105.731 9.69753 107.873 10.0112 109.889 10.7706C110.674 11.0672 111.443 11.4258 112.182 11.8546C113.262 12.4801 114.281 13.2467 115.205 14.1751C117.26 16.2405 118.851 19.0644 119.576 22.743C119.6 22.8994 119.747 23.0063 119.904 22.9821C120.061 22.9569 120.168 22.8095 120.143 22.6531C119.665 18.7112 118.205 15.5907 116.164 13.2764C115.209 12.1934 114.123 11.291 112.953 10.5675C112.147 10.0687 111.298 9.65709 110.424 9.33443C108.202 8.51387 105.82 8.23615 103.518 8.47612C100.03 8.84012 96.7265 10.3914 94.3637 12.9933C94.2136 13.1506 94.2181 13.3995 94.3745 13.5505C94.5318 13.7006 94.7807 13.6961 94.9317 13.5397Z" fill="black"/>
<path fill-rule="evenodd" clip-rule="evenodd" d="M42.209 59.1654C38.1061 63.2961 37.5552 69.9559 39.8785 75.3359C41.2716 78.5633 43.6991 81.3369 46.9562 82.8234C48.7825 83.6566 50.8748 84.0709 53.1855 83.9576C53.731 87.0566 56.0238 88.7795 58.7003 89.1704C61.3956 89.565 64.4622 88.5961 66.2903 86.3762C66.3945 86.2567 66.382 86.0751 66.2624 85.9709C66.1429 85.8666 65.9613 85.8792 65.8571 85.9996C64.0964 87.914 61.2887 88.6492 58.871 88.1737C56.5442 87.7154 54.5858 86.085 54.4572 83.1874C54.4447 83.005 54.3602 82.836 54.2227 82.7165C54.0852 82.5978 53.9054 82.5385 53.7239 82.5529C51.4212 82.7021 49.3766 82.259 47.5961 81.4321C44.6761 80.0768 42.4894 77.6322 41.1646 74.7616C38.8899 69.831 39.1217 63.6763 42.7788 59.7101C42.9289 59.5528 42.9235 59.3038 42.7662 59.1528C42.6089 59.0027 42.36 59.0081 42.209 59.1654Z" fill="black"/>
<path fill-rule="evenodd" clip-rule="evenodd" d="M75.9614 30.1938C75.7754 33.1651 74.527 35.4902 72.796 37.0504C70.6183 39.0106 67.6902 39.7746 65.1638 39.0816C64.9552 39.0205 64.7368 39.1409 64.6757 39.3494C64.6146 39.558 64.735 39.7764 64.9436 39.8375C67.7261 40.6985 71.012 39.9606 73.4979 37.8539C75.3844 36.255 76.8036 33.8661 77.1999 30.7915C80.067 32.012 82.8828 32.0983 85.4577 31.5527C92.0932 30.1453 97.0777 24.5784 97.0777 24.5784C97.1865 24.4624 97.1793 24.28 97.0634 24.1721C96.9474 24.0643 96.7659 24.0706 96.658 24.1865C96.658 24.1865 92.7224 28.2246 87.3532 29.9314C84.3217 30.8948 80.8201 31.1123 77.3096 29.3229C77.3931 26.7785 77.0921 24.8309 76.5879 23.3857C75.273 19.6262 72.5668 19.0564 70.9913 19.9578C69.8166 20.631 69.0617 22.1778 69.7205 24.1667C70.3028 25.9274 72.095 28.1231 75.9614 30.1938ZM75.9893 28.5841C75.9345 25.1949 75.1579 23.0972 74.1423 21.9729C73.346 21.0921 72.4176 20.8944 71.7552 21.2799C71.2214 21.5918 70.9293 22.2587 71.0416 23.0999C71.1702 24.0562 71.7894 25.1886 73.0683 26.4082C73.8143 27.1182 74.7733 27.8525 75.9893 28.5841Z" fill="black"/>
<path fill-rule="evenodd" clip-rule="evenodd" d="M95.3271 25.8214C96.0191 28.4296 97.4607 31.0144 99.4686 33.2451C100.722 34.6382 102.191 35.901 103.828 36.9291C105.434 37.9375 107.2 38.7231 109.053 39.2318C111.745 39.9714 114.625 40.1134 117.518 39.4951C117.675 39.4663 117.778 39.3171 117.749 39.1607C117.721 39.0053 117.571 38.9019 117.415 38.9298C114.623 39.3531 111.897 39.0214 109.362 38.1991C107.636 37.6392 106.006 36.8357 104.497 35.8731C102.955 34.8899 101.54 33.7403 100.314 32.4605C98.3478 30.4051 96.8478 28.0431 96.0829 25.603C96.0227 25.3936 95.8043 25.2731 95.5958 25.3343C95.3864 25.3945 95.266 25.6129 95.3271 25.8214Z" fill="black"/>
<path fill-rule="evenodd" clip-rule="evenodd" d="M63.7013 80.307C64.1444 81.5248 64.5533 83.0132 65.319 84.4503C66.2735 86.2433 67.7673 87.9447 70.4626 88.989C71.933 89.5588 73.7701 89.9291 76.0871 89.9785C77.5781 90.0109 79.2705 89.8986 81.1965 89.6352C81.8975 90.4082 82.6534 91.0948 83.4578 91.6727C85.8745 93.41 88.6634 94.2324 91.3453 93.8666C94.6239 93.419 97.7867 91.2062 99.8978 86.6127C99.9949 86.4159 99.914 86.1768 99.7172 86.0788C99.5204 85.9818 99.2804 86.0627 99.1833 86.2595C97.0479 90.2859 94.1575 92.1859 91.1862 92.4456C89.5082 92.5921 87.8176 92.1985 86.2349 91.3914C84.7637 90.6409 83.3859 89.5319 82.2175 88.1226C82.0189 87.888 81.7115 87.773 81.4068 87.8206C78.911 88.2386 76.8142 88.3698 75.0418 88.3033C72.4039 88.2044 70.5049 87.6508 69.0965 86.8014C66.1495 85.0255 65.3334 82.0767 64.432 80.014C64.3511 79.8118 64.1219 79.7138 63.9206 79.7947C63.7184 79.8756 63.6204 80.1048 63.7013 80.307Z" fill="black"/>
<path fill-rule="evenodd" clip-rule="evenodd" d="M100.092 89.0112C103.214 89.2872 105.77 89.146 107.872 88.4944C109.689 87.93 111.175 86.9854 112.393 85.622C113.069 84.8662 113.664 83.9773 114.176 82.9428C114.803 81.681 115.313 80.1998 115.724 78.485C116.45 75.4463 116.856 71.6589 117.112 67.0114C117.129 66.7921 116.963 66.6007 116.744 66.5845C116.525 66.5684 116.333 66.7328 116.317 66.9521C115.891 71.5115 115.321 75.2126 114.525 78.1812C114.095 79.7855 113.594 81.1696 113 82.3568C112.537 83.2826 112.021 84.0869 111.429 84.7772C110.131 86.2898 108.478 87.2479 106.347 87.7629C104.604 88.1844 102.557 88.3273 100.143 88.2248C99.9266 88.2113 99.7387 88.3758 99.7243 88.5924C99.7109 88.809 99.8753 88.9969 100.092 89.0112Z" fill="black"/>
<path fill-rule="evenodd" clip-rule="evenodd" d="M81.1797 74.192C80.7474 74.5938 80.3384 75.0737 80.0014 75.6363C79.6967 76.1432 79.4424 76.6978 79.2734 77.299C79.2276 77.4177 79.2878 77.5525 79.4073 77.5974C79.5268 77.6433 79.6608 77.583 79.7057 77.4635C79.9556 76.9539 80.2737 76.4991 80.6296 76.0956C81.0017 75.6732 81.4196 75.3299 81.8474 75.0584C82.0865 74.8742 82.1305 74.5309 81.9463 74.2918C81.7621 74.0527 81.4187 74.0078 81.1797 74.192Z" fill="black"/>
<path fill-rule="evenodd" clip-rule="evenodd" d="M99.8699 74.2559C100.298 74.5274 100.716 74.8707 101.088 75.2931C101.444 75.6967 101.762 76.1514 102.012 76.661C102.057 76.7806 102.19 76.8408 102.31 76.7949C102.43 76.75 102.49 76.6152 102.444 76.4965C102.275 75.8953 102.021 75.3407 101.716 74.8338C101.379 74.2712 100.97 73.7913 100.538 73.3895C100.299 73.2053 99.9552 73.2502 99.771 73.4893C99.5867 73.7284 99.6308 74.0717 99.8699 74.2559Z" fill="black"/>
<path fill-rule="evenodd" clip-rule="evenodd" d="M79.8931 72.3267C79.3071 72.2871 78.5225 72.6161 77.7675 73.2479C77.4161 73.5418 77.0683 73.9031 76.7771 74.3237C76.5057 74.7156 76.2846 75.1551 76.1111 75.6143C75.8487 76.31 75.7067 77.0308 75.7067 77.7363C75.6905 77.863 75.7804 77.979 75.9071 77.9951C76.0338 78.0113 76.1498 77.9214 76.166 77.7947C76.3502 77.0649 76.7519 76.3828 77.2031 75.7321C77.3784 75.4795 77.5653 75.2387 77.7496 75.0014C77.8754 74.8396 77.9976 74.6796 78.1207 74.5259C78.4632 74.1008 78.8029 73.726 79.148 73.4645C79.4239 73.2551 79.6702 73.0888 79.9111 73.0583C80.1124 73.0538 80.2724 72.8857 80.2679 72.6835C80.2625 72.4813 80.0953 72.3213 79.8931 72.3267Z" fill="black"/>
<path fill-rule="evenodd" clip-rule="evenodd" d="M101.712 72.2414C102.093 72.3942 102.456 72.7222 102.832 73.1204C103.149 73.4529 103.434 73.8609 103.726 74.2959C103.999 74.7004 104.281 75.1156 104.502 75.5848C104.72 76.0485 104.916 76.5213 105.024 77.0425C105.033 77.1702 105.144 77.2672 105.271 77.2582C105.399 77.2493 105.495 77.1387 105.486 77.0111C105.531 76.2966 105.457 75.609 105.273 74.9529C105.143 74.4892 104.961 74.0506 104.726 73.6596C104.471 73.2363 104.153 72.8723 103.822 72.5703C103.196 72.0014 102.516 71.6518 101.917 71.5385C101.723 71.4819 101.52 71.5943 101.463 71.7875C101.407 71.9816 101.519 72.1848 101.712 72.2414Z" fill="black"/>
<path fill-rule="evenodd" clip-rule="evenodd" d="M80.8305 75.9721C82.8823 76.8241 84.9135 77.5126 86.9393 77.9152C88.3809 78.2019 89.818 78.3565 91.239 78.334C92.6878 78.3098 94.1204 78.1003 95.5287 77.7121C97.5087 77.1656 99.4339 76.2435 101.31 74.9062C101.417 74.8361 101.448 74.6923 101.378 74.5853C101.308 74.4784 101.164 74.4487 101.057 74.5179C99.1534 75.653 97.2337 76.3595 95.2987 76.7603C93.9496 77.0398 92.5961 77.1477 91.2291 77.1495C89.8774 77.1504 88.5148 77.0434 87.1344 76.8232C85.1508 76.5086 83.1322 75.9973 81.0911 75.2881C80.9024 75.2162 80.6912 75.3115 80.6193 75.5002C80.5474 75.689 80.6417 75.9002 80.8305 75.9721Z" fill="black"/>
<path fill-rule="evenodd" clip-rule="evenodd" d="M86.9382 81.9015C87.7147 82.2071 88.5802 82.4911 89.5131 82.6564C90.0937 82.7607 90.6986 82.8263 91.3088 82.8182C91.9101 82.8101 92.5132 82.731 93.1073 82.6007C93.9907 82.4066 94.8356 82.0875 95.6319 81.6435C95.7496 81.5932 95.8035 81.4566 95.7523 81.3389C95.7011 81.222 95.5645 81.1681 95.4476 81.2184C94.3763 81.5707 93.2582 81.6579 92.1438 81.6498C91.8778 81.6489 91.6126 81.6409 91.3484 81.6355C90.9466 81.6274 90.5485 81.6121 90.1548 81.5905C89.0853 81.533 88.0616 81.4198 87.1566 81.2032C86.9642 81.1429 86.7584 81.2508 86.6982 81.4431C86.638 81.6364 86.7458 81.8413 86.9382 81.9015Z" fill="black"/>
<path fill-rule="evenodd" clip-rule="evenodd" d="M91.3655 55.398C91.1623 57.981 91.2954 59.943 91.6198 61.4574C91.8346 62.4613 92.1312 63.2702 92.4404 63.9335C92.7271 64.5473 93.0309 65.0327 93.2969 65.4407C93.6789 66.0249 94.0168 66.3853 94.0402 66.7628C94.0698 67.1636 93.686 67.4926 93.154 67.7874C92.4628 68.1702 91.5164 68.4533 90.5107 68.5549C90.3831 68.5603 90.2842 68.669 90.2896 68.7967C90.2959 68.9243 90.4047 69.0232 90.5323 69.0178C91.875 69.0295 93.1567 68.7284 93.9736 68.2457C94.6423 67.8512 94.991 67.3065 95.0036 66.7385C95.0099 66.2343 94.6953 65.678 94.237 64.8682C94.0159 64.4781 93.7687 64.0135 93.5153 63.4437C93.2439 62.8334 92.9733 62.1 92.7397 61.1941C92.3694 59.7597 92.0764 57.9073 92.0961 55.4294C92.1051 55.2272 91.9487 55.0565 91.7465 55.0475C91.5443 55.0394 91.3735 55.1958 91.3655 55.398Z" fill="black"/>
<path fill-rule="evenodd" clip-rule="evenodd" d="M88.9481 59.2602C89.2618 58.924 89.7336 58.6796 90.2585 58.4881C90.7186 58.321 91.2264 58.2428 91.745 58.2302C92.234 58.2176 92.731 58.2446 93.2172 58.4387C93.6765 58.622 94.1285 58.8827 94.5357 59.3222C94.6103 59.4255 94.755 59.4498 94.8583 59.3752C94.9626 59.3006 94.9859 59.1559 94.9122 59.0517C94.4062 58.134 93.6998 57.5759 92.9242 57.2739C92.5413 57.1256 92.1396 57.051 91.7414 57.0456C91.2022 57.0375 90.6674 57.1544 90.1893 57.3521C89.3912 57.6819 88.7423 58.2248 88.3675 58.8144C88.2444 58.9744 88.2749 59.2044 88.4349 59.3276C88.5949 59.4507 88.825 59.421 88.9481 59.2602Z" fill="black"/>
<path fill-rule="evenodd" clip-rule="evenodd" d="M97.0412 58.405C96.981 58.2028 96.9064 58.263 96.8857 58.3493C96.8606 58.4563 96.9271 58.5641 97.034 58.5893C97.034 58.5893 97.514 58.7466 97.9912 58.7466C98.2635 58.7466 98.5242 58.6738 98.7291 58.5407C98.9538 58.3942 99.2072 57.8936 99.5299 57.2834C99.7833 56.8034 100.109 56.2633 100.567 55.8472C100.952 55.4975 101.447 55.2522 102.139 55.2908C102.682 55.2917 103.114 55.5128 103.484 55.8355C104.109 56.3819 104.583 57.1665 105.028 57.8253C105.481 58.4958 105.916 59.0342 106.404 59.1717C106.525 59.2148 106.658 59.1528 106.701 59.0324C106.745 58.9119 106.682 58.7789 106.562 58.7358C106.185 58.5677 105.943 58.0527 105.651 57.4622C105.262 56.6749 104.842 55.7519 104.216 55.0787C103.697 54.5197 103.034 54.1521 102.191 54.0811C101.108 54.0478 100.319 54.4316 99.76 55.0212C99.236 55.5721 98.9151 56.2885 98.6931 56.9167C98.5754 57.2501 98.4927 57.553 98.4037 57.7786C98.3651 57.8766 98.3498 57.961 98.3058 58.0015C98.1826 58.1183 97.9948 58.1731 97.8087 58.1965C97.5526 58.228 97.3072 58.2181 97.1913 58.2073C97.0583 58.1956 97.0331 58.3017 97.0412 58.405Z" fill="black"/>
<path fill-rule="evenodd" clip-rule="evenodd" d="M95.9318 49.7732C96.8036 48.6246 98.0016 47.7771 99.3084 47.2063C99.7371 47.0185 100.176 46.8657 100.622 46.739C101.067 46.6132 101.519 46.5233 101.972 46.4613C102.892 46.3355 103.815 46.3453 104.701 46.5682C105.993 46.8927 107.201 47.6072 108.142 48.8601C108.212 48.967 108.356 48.9967 108.463 48.9266C108.569 48.8556 108.599 48.7118 108.529 48.6057C107.652 47.0823 106.401 46.1072 104.994 45.6039C103.989 45.2444 102.902 45.1275 101.823 45.2444C101.297 45.3019 100.774 45.4223 100.266 45.5949C99.7668 45.7638 99.2815 45.9804 98.8222 46.2492C97.4803 47.0329 96.347 48.177 95.5975 49.5575C95.5372 49.6501 95.5642 49.7732 95.6568 49.8325C95.7493 49.8927 95.8725 49.8658 95.9318 49.7732Z" fill="black"/>
<path fill-rule="evenodd" clip-rule="evenodd" d="M86.937 49.3256C86.4499 48.3064 85.792 47.4364 84.993 46.7362C84.6326 46.4208 84.2407 46.1503 83.8282 45.9139C83.3653 45.6496 82.8746 45.4366 82.3614 45.2821C81.8545 45.1293 81.3251 45.0304 80.7841 44.9998C79.7694 44.9423 78.7116 45.0969 77.6618 45.4699C76.3397 45.9408 75.0356 46.7623 73.8106 47.9631C73.7145 48.0466 73.7037 48.1931 73.7882 48.2893C73.8717 48.3864 74.0182 48.3963 74.1144 48.3127C75.3826 47.342 76.6849 46.7506 77.953 46.4352C78.8949 46.2006 79.8143 46.1485 80.6978 46.2231C81.1571 46.2617 81.6065 46.33 82.0441 46.4379C82.4908 46.5484 82.924 46.6904 83.3438 46.872C84.6173 47.4247 85.7479 48.301 86.5928 49.526C86.6476 49.6213 86.7698 49.6536 86.8651 49.5979C86.9595 49.5431 86.9918 49.4208 86.937 49.3256Z" fill="black"/>
<path fill-rule="evenodd" clip-rule="evenodd" d="M85.9818 58.3328C85.9674 58.3292 85.9512 58.3274 85.9323 58.3274C85.8433 58.3292 85.6564 58.3175 85.4542 58.26C85.3149 58.2205 85.1756 58.1441 85.0614 58.0263C84.9086 57.8708 84.8394 57.4269 84.648 56.92C84.4143 56.3034 84.0692 55.6051 83.494 55.0685C82.935 54.5481 82.1566 54.2021 81.0943 54.1841C80.2099 54.221 79.5143 54.5266 78.9625 55.0119C78.2282 55.6572 77.75 56.5874 77.3312 57.3918C77.0166 57.9958 76.7686 58.5296 76.3803 58.7031C76.2599 58.7471 76.197 58.8792 76.241 58.9997C76.2842 59.1201 76.4172 59.1821 76.5376 59.139C77.0355 58.9997 77.4768 58.4478 77.954 57.772C78.4169 57.1177 78.9247 56.351 79.6266 55.8495C80.0284 55.5628 80.5029 55.384 81.097 55.4056C81.8196 55.3903 82.3463 55.6123 82.7552 55.9331C83.2522 56.3214 83.5965 56.8301 83.8571 57.2911C84.1869 57.8726 84.4269 58.3607 84.6462 58.5162C84.8259 58.6411 85.0201 58.7211 85.2178 58.7534C85.6339 58.8217 86.0177 58.722 86.0177 58.722C86.1615 58.6986 86.2334 58.5952 86.2136 58.4874C86.1939 58.3786 86.0896 58.3067 85.9818 58.3265V58.3328Z" fill="black"/>
<path fill-rule="evenodd" clip-rule="evenodd" d="M107.391 60.1924C107.391 60.1924 107.968 60.1304 108.591 59.9938C108.862 59.9345 109.139 59.8635 109.381 59.7772C109.487 59.7467 109.549 59.6361 109.518 59.5301C109.487 59.4249 109.377 59.3638 109.271 59.3944C109.036 59.4474 108.772 59.4806 108.515 59.5049C107.911 59.5615 107.358 59.5543 107.358 59.5543C107.182 59.5633 107.046 59.7134 107.054 59.8896C107.063 60.0657 107.214 60.2014 107.391 60.1924Z" fill="black"/>
<path fill-rule="evenodd" clip-rule="evenodd" d="M74.737 60.2908L73.0644 60.4714C72.9539 60.466 72.8604 60.5505 72.8559 60.661C72.8505 60.7707 72.935 60.8642 73.0447 60.8695L74.7883 60.928C74.9644 60.9136 75.0956 60.759 75.0813 60.5828C75.0669 60.4076 74.9123 60.2764 74.737 60.2908Z" fill="black"/>
<path fill-rule="evenodd" clip-rule="evenodd" d="M107.547 61.6769L108.716 61.5376C108.825 61.5331 108.911 61.4405 108.906 61.3309C108.902 61.2203 108.808 61.135 108.699 61.1394L107.546 61.037C107.37 61.0379 107.227 61.1808 107.227 61.3569C107.227 61.534 107.371 61.6769 107.547 61.6769Z" fill="black"/>
<path fill-rule="evenodd" clip-rule="evenodd" d="M75.0568 61.7299C75.0361 61.729 75.0118 61.7326 74.9849 61.7398C74.8582 61.774 74.5912 61.8468 74.3216 61.9016C74.1463 61.9385 73.9738 61.9708 73.8426 61.9771C73.7329 61.9726 73.6394 62.058 73.635 62.1685C73.6305 62.2782 73.7158 62.3708 73.8255 62.3752C73.9738 62.3959 74.1724 62.3968 74.3764 62.3941C74.7431 62.3878 75.1143 62.3537 75.1143 62.3537C75.3462 62.3168 75.4612 62.1497 75.4289 61.9762C75.3965 61.8027 75.2293 61.6877 75.0559 61.7201L75.0568 61.7299Z" fill="black"/>
<path fill-rule="evenodd" clip-rule="evenodd" d="M111.874 57.5517L115.934 54.6523C116.141 54.5247 116.205 54.2524 116.076 54.0466C115.948 53.8398 115.676 53.7769 115.469 53.9045L111.073 56.2611C110.716 56.4831 110.607 56.9513 110.828 57.3081C111.049 57.6641 111.519 57.7737 111.874 57.5517Z" fill="black"/>
<path fill-rule="evenodd" clip-rule="evenodd" d="M70.0008 58.1723L66.4363 56.8933C66.2161 56.7927 65.9546 56.8897 65.853 57.1108C65.7523 57.3319 65.8494 57.5935 66.0705 57.6941L69.369 59.5545C69.7509 59.7289 70.2021 59.5608 70.3765 59.1789C70.5508 58.7978 70.3828 58.3466 70.0008 58.1723Z" fill="black"/>
<path fill-rule="evenodd" clip-rule="evenodd" d="M53.586 88.8667C51.8802 89.5992 50.1294 90.6246 48.4011 91.935C47.3765 92.7125 46.3609 93.5896 45.3696 94.5612C44.2228 95.6847 43.1047 96.9321 42.0442 98.2982C41.0538 99.5736 40.1146 100.954 39.2356 102.424C36.1034 107.654 33.7154 114 32.6621 121.03C32.6297 121.221 32.7582 121.403 32.9497 121.436C33.142 121.469 33.3235 121.34 33.3568 121.148C34.6726 114.319 37.3104 108.247 40.5307 103.226C41.4231 101.834 42.3615 100.524 43.3231 99.2941C44.3468 97.9846 45.3984 96.7668 46.4724 95.6595C47.399 94.705 48.3355 93.8287 49.2801 93.0396C50.8637 91.7166 52.4572 90.63 54.0381 89.8418C54.3077 89.7178 54.4246 89.3978 54.2996 89.1282C54.1756 88.8595 53.8557 88.7426 53.586 88.8667Z" fill="black"/>
<path fill-rule="evenodd" clip-rule="evenodd" d="M122.947 85.9123C125.061 86.9639 127.005 88.1961 128.811 89.5595C130.044 90.4897 131.207 91.4855 132.309 92.5371C133.699 93.8609 134.984 95.2801 136.182 96.7738C137.379 98.2657 138.491 99.8314 139.511 101.467C143.528 107.901 146.154 115.393 147.611 123.093C147.644 123.285 147.826 123.414 148.018 123.381C148.209 123.348 148.338 123.166 148.305 122.974C147.097 115.084 144.735 107.334 140.814 100.677C139.801 98.9569 138.683 97.3095 137.448 95.7609C136.206 94.2043 134.846 92.7456 133.372 91.3992C132.202 90.3297 130.959 89.333 129.639 88.4163C127.718 87.0816 125.638 85.9204 123.402 84.939C123.134 84.8131 122.813 84.93 122.687 85.1978C122.562 85.4665 122.678 85.7874 122.947 85.9123Z" fill="black"/>
<path fill-rule="evenodd" clip-rule="evenodd" d="M58.6928 118.753C58.6533 117.865 58.807 116.237 59.0164 114.52C59.3912 111.453 59.9466 108.114 59.9466 108.114C59.9727 107.98 59.8846 107.851 59.7516 107.826C59.6185 107.801 59.49 107.889 59.4649 108.022C59.4649 108.022 58.7575 111.347 58.2443 114.408C57.9487 116.175 57.7204 117.854 57.7204 118.774C57.7258 119.043 57.9487 119.256 58.2174 119.25C58.4852 119.244 58.6982 119.021 58.6928 118.753Z" fill="black"/>
<path fill-rule="evenodd" clip-rule="evenodd" d="M124.253 118.774C124.25 117.887 124.11 116.463 123.924 114.987C123.585 112.286 123.105 109.412 123.105 109.412C123.086 109.277 122.962 109.184 122.827 109.203C122.693 109.222 122.6 109.346 122.619 109.481C122.619 109.481 122.948 112.362 123.147 115.064C123.254 116.504 123.322 117.892 123.281 118.753C123.276 119.021 123.489 119.244 123.756 119.25C124.025 119.255 124.248 119.042 124.253 118.774Z" fill="black"/>
<defs>
<linearGradient id="paint0_linear_466_10361" x1="51.3866" y1="96.5302" x2="51.3866" y2="167.127" gradientUnits="userSpaceOnUse">
<stop stop-color="#814BC5" stop-opacity="0"/>
<stop offset="1" stop-color="#814BC5"/>
</linearGradient>
</defs>
</svg>
