<svg width="401" height="359" viewBox="0 0 401 359" fill="none" xmlns="http://www.w3.org/2000/svg">
<g opacity="0.5">
<path d="M349.279 82.2693H319.999L305.359 56.6991L319.999 31.129H349.279L363.911 56.6991L349.279 82.2693ZM320.33 81.6559H348.907L363.2 56.6991L348.924 31.7424H320.347L306.062 56.6991L320.33 81.6559Z" fill="white"/>
<path d="M320.33 81.6559H348.907L363.2 56.6991L348.924 31.7424H320.347L306.062 56.6991L320.33 81.6559Z" fill="white"/>
</g>
<g opacity="0.3">
<path d="M300.769 347.605H100.256L0 173.803L100.256 0H300.769L400.969 173.803L300.769 347.605ZM102.522 343.436H298.22L396.098 173.803L298.334 4.16901H102.635L4.81452 173.803L102.522 343.436Z" fill="white"/>
<path d="M102.522 343.436H298.22L396.098 173.803L298.334 4.16901H102.635L4.81452 173.803L102.522 343.436Z" fill="white"/>
</g>
<path fill-rule="evenodd" clip-rule="evenodd" d="M121.14 85.6905C119.306 84.9475 118.005 83.1952 117.751 80.9914C117.547 79.22 118.029 77.1661 119.422 75.0808C121.348 72.185 123.472 68.4819 125.168 65.1518C126.653 62.2375 127.806 59.6012 128.25 58.0211C129.731 52.6731 129.317 47.762 130.004 44.0942C130.345 42.2703 130.967 40.7838 132.484 39.8242C135.36 37.9984 145.672 34.5724 158.626 33.2108C166.998 32.3309 176.471 32.3164 185.776 34.1993C196.468 36.3401 205.184 39.415 212.26 42.7259C223.899 48.1723 231.077 54.3129 235.114 58.3487C236.589 59.8159 237.809 61.2796 238.344 62.9194C238.847 64.4609 238.719 66.1492 237.64 68.1294C236.771 69.7258 235.947 71.4181 235.244 72.9355C233.974 75.678 233.102 77.8479 233.102 77.8479C232.976 78.1554 233.123 78.5076 233.43 78.6341C233.738 78.7603 234.09 78.6134 234.216 78.306C234.216 78.306 235.112 76.177 236.421 73.4954C237.143 72.018 237.992 70.3736 238.882 68.8236C240.257 66.4277 240.406 64.3534 239.83 62.4517C239.262 60.5798 237.948 58.8681 236.309 57.1712C232.24 52.9779 225.02 46.5167 213.162 40.8237C205.986 37.3793 197.103 34.2401 186.22 32.0087C176.682 30.0733 166.971 30.0644 158.39 30.9731C144.954 32.396 134.287 36.075 131.307 37.9754C129.263 39.2836 128.321 41.2354 127.88 43.7056C127.231 47.3382 127.723 52.1933 126.319 57.4985C125.926 59.0086 124.862 61.5289 123.509 64.3284C121.911 67.6357 119.911 71.3232 118.082 74.211C116.518 76.6882 116.048 79.1093 116.339 81.1721C116.722 83.8845 118.399 85.995 120.686 86.854C121.007 86.9792 121.369 86.8205 121.495 86.4994C121.62 86.1783 121.461 85.816 121.14 85.6905Z" fill="#193C6D"/>
<path fill-rule="evenodd" clip-rule="evenodd" d="M120.746 82.2138C124.243 80.4904 127.913 79.1025 131.708 77.9934C135.426 76.9068 139.265 76.1116 143.188 75.5519C147.78 74.8968 152.484 74.5723 157.246 74.5827C164.218 74.5977 171.306 75.3048 178.308 76.6192C184.105 77.7071 189.841 79.2105 195.407 81.0586C199.167 82.3074 202.847 83.718 206.419 85.2587C211.021 87.2426 215.44 89.4453 219.594 91.8597C223.982 94.4103 228.081 97.1761 231.787 100.144C232.044 100.356 232.424 100.32 232.635 100.064C232.847 99.8077 232.812 99.4276 232.555 99.2156C228.895 96.0836 224.839 93.1275 220.464 90.4118C216.317 87.8379 211.891 85.4699 207.255 83.3696C203.652 81.7373 199.921 80.2722 196.107 78.9755C190.458 77.0553 184.621 75.5173 178.724 74.4063C171.585 73.0611 164.353 72.3404 157.244 72.3658C152.373 72.3832 147.557 72.7365 142.874 73.4996C138.869 74.1522 134.963 75.1043 131.196 76.349C127.359 77.6168 123.673 79.2022 120.172 81.1047C119.866 81.2631 119.746 81.6402 119.905 81.9463C120.063 82.2524 120.44 82.3722 120.746 82.2138Z" fill="#193C6D"/>
<path fill-rule="evenodd" clip-rule="evenodd" d="M230.195 105.067C232.312 104.19 233.79 103.587 234.853 102.01C235.466 101.102 235.94 99.8579 236.266 98.0197C236.46 96.9285 236.59 95.6149 236.686 94.0231C236.914 88.1047 237.103 83.7806 234.367 78.7512C232.562 75.4309 229.463 71.8022 224.208 67.1905C224.062 67.0568 223.835 67.0669 223.701 67.2133C223.567 67.3596 223.577 67.5869 223.723 67.7207C228.657 72.4225 231.534 76.0733 233.176 79.3714C235.596 84.2325 235.257 88.3207 234.865 93.9245C234.792 95.4407 234.67 96.6903 234.514 97.734C234.283 99.2888 233.971 100.359 233.499 101.151C232.673 102.536 231.418 103.066 229.678 103.93C229.364 104.072 229.225 104.443 229.368 104.757C229.51 105.071 229.881 105.209 230.195 105.067Z" fill="#193C6D"/>
<path fill-rule="evenodd" clip-rule="evenodd" d="M143.064 123.858C146.214 121.074 148.098 116.954 148.171 112.804C148.242 108.808 146.659 104.783 142.923 101.908C137.322 97.5827 131.105 97.8012 126.47 100.632C121.723 103.531 118.62 109.201 119.612 115.682C120.463 121.447 124.163 125.412 128.742 126.962C133.24 128.483 138.613 127.669 143.064 123.858ZM141.655 122.242C137.867 125.599 133.242 126.416 129.337 125.16C125.334 123.872 122.111 120.425 121.307 115.42C120.415 109.679 123.126 104.619 127.341 102.064C131.426 99.5892 136.906 99.5035 141.796 103.353C144.972 105.861 146.301 109.327 146.194 112.756C146.083 116.338 144.41 119.876 141.655 122.242Z" fill="#193C6D"/>
<path fill-rule="evenodd" clip-rule="evenodd" d="M187.777 128.457C191.255 125.542 192.922 121.033 192.701 116.622C192.481 112.246 190.417 107.981 186.488 105.499C181.293 102.208 175.165 102.472 170.563 105.133C165.915 107.82 162.803 112.941 163.791 119.385C164.633 125.068 168.425 129.109 173.085 130.859C177.781 132.622 183.366 132.046 187.777 128.457ZM186.41 126.805C182.649 129.97 177.823 130.538 173.742 129.071C169.645 127.597 166.301 124.082 165.506 119.12C164.631 113.473 167.334 108.956 171.416 106.615C175.493 104.276 180.925 104.105 185.493 107.055C188.853 109.232 190.57 112.938 190.714 116.709C190.858 120.488 189.419 124.347 186.41 126.805Z" fill="#193C6D"/>
<path fill-rule="evenodd" clip-rule="evenodd" d="M213.562 133.237C212.513 134.324 211.702 135.523 211.14 136.789C210.736 137.7 210.458 138.641 210.316 139.571C210.165 140.569 210.171 141.554 210.28 142.476C210.471 144.101 210.989 145.53 211.704 146.591C211.856 146.856 212.194 146.947 212.459 146.795C212.723 146.643 212.815 146.305 212.662 146.04C212.259 145.202 212.051 144.155 211.977 143.001C211.915 142.014 212.008 140.959 212.19 139.867C212.324 139.063 212.501 138.241 212.772 137.42C213.159 136.25 213.674 135.077 214.46 133.989C214.668 133.741 214.635 133.371 214.387 133.163C214.139 132.956 213.769 132.989 213.562 133.237Z" fill="#193C6D"/>
<path fill-rule="evenodd" clip-rule="evenodd" d="M214.189 128.402C215.565 127.601 216.815 127.148 217.938 126.923C219.381 126.633 220.59 126.802 221.604 127.281C222.049 127.492 222.458 127.754 222.829 128.07C223.395 128.554 223.882 129.143 224.272 129.822C224.913 130.937 225.335 132.245 225.459 133.619C225.463 133.787 225.602 133.92 225.77 133.916C225.938 133.913 226.071 133.773 226.067 133.606C226.147 131.762 225.767 129.938 224.915 128.483C224.269 127.378 223.349 126.484 222.21 125.962C221.162 125.484 219.917 125.317 218.532 125.577C217.116 125.843 215.545 126.569 213.833 127.869C213.686 127.967 213.646 128.167 213.744 128.314C213.843 128.461 214.042 128.5 214.189 128.402Z" fill="#193C6D"/>
<path fill-rule="evenodd" clip-rule="evenodd" d="M212.761 123.406C214.836 121.831 217.941 121.48 220.863 122.218C222.446 122.618 223.963 123.36 225.237 124.429C226.041 125.102 226.732 125.915 227.286 126.859C227.797 127.731 228.182 128.717 228.407 129.83C228.609 130.824 228.7 131.909 228.627 133.105C228.534 134.615 228.215 136.28 227.595 138.124C227.09 139.628 226.417 141.241 225.504 142.971C225.417 143.114 225.462 143.301 225.605 143.389C225.748 143.476 225.935 143.431 226.023 143.288C227.449 141.259 228.507 139.371 229.243 137.598C229.878 136.068 230.265 134.633 230.459 133.295C230.705 131.6 230.629 130.059 230.308 128.687C230.055 127.609 229.64 126.635 229.112 125.769C228.409 124.615 227.5 123.648 226.462 122.876C225.422 122.102 224.256 121.512 223.032 121.125C219.2 119.916 214.863 120.565 212.348 122.916C212.213 123.03 212.195 123.233 212.31 123.368C212.424 123.503 212.626 123.52 212.761 123.406Z" fill="#193C6D"/>
<path fill-rule="evenodd" clip-rule="evenodd" d="M212.831 137.16C213.056 137.04 213.342 137.043 213.665 137.081C214.128 137.135 214.649 137.314 215.198 137.547C216.207 137.974 217.285 138.615 218.207 139.247C217.745 139.951 217.409 140.687 217.216 141.461C217.011 142.288 216.967 143.156 217.074 144.065C216.202 144.368 215.487 144.683 214.651 144.77C213.86 144.852 212.961 144.727 211.686 144.172C211.453 144.057 211.171 144.152 211.056 144.384C210.941 144.617 211.037 144.899 211.269 145.014C212.717 145.82 213.778 146.047 214.726 146.033C215.847 146.016 216.802 145.609 218.116 145.336C218.505 145.239 218.753 144.86 218.687 144.466C218.554 143.544 218.62 142.688 218.835 141.877C219.051 141.063 219.425 140.291 219.988 139.561C220.126 139.384 220.185 139.158 220.151 138.937C220.118 138.715 219.994 138.517 219.809 138.39C218.415 137.494 216.5 136.459 214.907 136.068C213.831 135.803 212.89 135.827 212.277 136.23C212.02 136.383 211.936 136.715 212.089 136.972C212.242 137.229 212.574 137.313 212.831 137.16Z" fill="#193C6D"/>
<path fill-rule="evenodd" clip-rule="evenodd" d="M218.564 140.48C221.088 141.313 225.616 142.566 228.202 146.527C229.819 149.005 230.651 152.543 229.781 157.688C228.634 164.515 225.452 174.57 220.32 186.008C216.597 194.305 211.839 203.322 206.051 212.36C201.869 218.89 197.163 225.437 191.9 231.719C184.336 240.747 175.647 249.241 165.799 256.381C165.588 256.531 165.539 256.826 165.69 257.038C165.841 257.247 166.134 257.295 166.345 257.145C176.365 250.08 185.249 241.645 192.973 232.629C198.35 226.354 203.174 219.806 207.421 213.241C213.298 204.156 218.09 195.053 221.808 186.672C226.955 175.067 230.029 164.832 231.13 157.908C232.011 152.325 231.014 148.51 229.23 145.847C226.418 141.649 221.604 140.305 218.897 139.449C218.613 139.357 218.307 139.513 218.215 139.798C218.123 140.082 218.28 140.388 218.564 140.48Z" fill="#193C6D"/>
<path fill-rule="evenodd" clip-rule="evenodd" d="M217.63 144.22C220.984 145.424 223.93 146.379 225.151 149.61C225.942 151.705 226.009 154.713 225.09 159.268C223.55 166.95 219.618 178.116 213.504 190.49C210.409 196.751 206.756 203.321 202.562 209.906C193.051 224.839 180.75 239.847 165.751 251.387C165.518 251.563 165.473 251.898 165.65 252.132C165.828 252.362 166.161 252.408 166.394 252.231C181.612 240.727 194.196 225.742 203.858 210.736C208.117 204.12 211.807 197.5 214.911 191.183C221.067 178.655 224.925 167.313 226.437 159.534C227.384 154.628 227.224 151.394 226.354 149.15C224.964 145.567 221.772 144.4 218.028 143.095C217.718 142.985 217.376 143.148 217.267 143.458C217.157 143.769 217.319 144.11 217.63 144.22Z" fill="#193C6D"/>
<path fill-rule="evenodd" clip-rule="evenodd" d="M165.682 249.22C165.189 249.606 164.886 250.268 164.724 251.133C164.519 252.224 164.554 253.693 164.473 255.261C164.474 256.866 164.778 257.872 165.25 258.445C165.833 259.153 166.644 259.375 167.623 259.177C168.406 259.011 168.799 258.686 168.999 258.362C169.368 257.764 169.161 257.143 169.161 257.143C169.075 256.861 168.778 256.706 168.498 256.791C168.218 256.877 168.061 257.175 168.147 257.453C168.147 257.453 168.164 257.63 168.008 257.762C167.894 257.858 167.704 257.901 167.428 257.931C166.989 257.979 166.624 257.906 166.39 257.574C166.087 257.151 165.994 256.424 166.051 255.301C166.047 253.792 165.949 252.393 166.067 251.334C166.125 250.812 166.192 250.38 166.462 250.126C166.711 249.908 166.739 249.533 166.524 249.284C166.309 249.032 165.932 249.005 165.682 249.22Z" fill="#193C6D"/>
<path fill-rule="evenodd" clip-rule="evenodd" d="M170.361 248.936C170.529 247.322 169.951 246.424 168.929 245.867C167.912 245.312 166.324 245.156 164.437 244.985C161.424 244.717 159.637 244.5 158.484 245.036C157.448 245.518 156.787 246.55 156.331 248.729C155.705 251.755 155.248 253.891 154.918 255.516C154.671 256.733 154.496 257.663 154.362 258.459C154.137 259.847 154.193 261.45 156.13 262.549C157.244 263.181 159.096 263.64 162.126 263.669C165.517 263.696 167.875 263.53 169.376 262.967C171.355 262.227 172.08 260.895 171.743 258.515C171.642 257.797 171.53 257.135 171.412 256.491C171.23 255.494 171.034 254.545 170.84 253.503C170.789 253.213 170.514 253.02 170.226 253.071C169.937 253.122 169.744 253.396 169.794 253.685C169.964 254.73 170.139 255.682 170.297 256.682C170.397 257.312 170.489 257.96 170.57 258.665C170.761 260.316 170.313 261.265 168.934 261.745C167.522 262.235 165.316 262.313 162.152 262.225C159.495 262.155 157.869 261.78 156.898 261.214C155.742 260.539 155.774 259.552 155.917 258.721L157.816 249.029C158.112 247.512 158.398 246.703 159.112 246.354C160.115 245.869 161.685 246.151 164.329 246.336C166.006 246.451 167.425 246.51 168.338 246.982C168.956 247.301 169.251 247.858 169.173 248.826C169.142 249.153 169.384 249.445 169.712 249.474C170.04 249.504 170.331 249.263 170.361 248.936Z" fill="#193C6D"/>
<path fill-rule="evenodd" clip-rule="evenodd" d="M120.215 125.709C118.764 128.312 117.857 129.898 117.692 132.603C117.553 134.901 117.98 138.027 119.138 143.362C119.725 145.933 120.434 148.816 121.288 151.777C122.488 155.936 123.952 160.252 125.594 164.116C128.007 169.796 130.876 174.483 133.89 176.438C137.141 178.528 143.548 180.615 150.093 181.973C156.679 183.34 163.395 183.973 167.115 183.305C169.573 182.86 171.845 182.251 173.783 181.637C177.662 180.408 180.202 179.16 180.202 179.16C180.562 178.988 180.714 178.555 180.541 178.194C180.368 177.834 179.936 177.682 179.575 177.855C179.575 177.855 177.096 179.014 173.321 180.125C171.431 180.682 169.216 181.224 166.826 181.605C163.244 182.181 156.82 181.393 150.519 179.993C144.288 178.609 138.172 176.622 135.089 174.595C132.34 172.801 129.863 168.428 127.655 163.239C126.043 159.452 124.613 155.221 123.383 151.158C122.502 148.245 121.713 145.422 121.078 142.897C119.749 137.837 119.195 134.866 119.227 132.661C119.262 130.181 120.054 128.704 121.262 126.259C121.413 125.97 121.302 125.612 121.013 125.46C120.724 125.309 120.366 125.42 120.215 125.709Z" fill="#193C6D"/>
<path fill-rule="evenodd" clip-rule="evenodd" d="M128.495 78.1645C127.467 79.8563 126.167 82.1482 125.092 85.0502C124.806 85.8245 124.541 86.6436 124.306 87.5051C124.087 88.3073 123.894 89.1465 123.737 90.0208C123.45 91.6172 123.27 93.3281 123.223 95.1437C123.161 97.5212 123.339 100.073 123.811 102.794C123.85 103.084 124.117 103.288 124.408 103.248C124.698 103.209 124.902 102.942 124.862 102.652C124.607 99.9953 124.649 97.5265 124.853 95.2375C125.007 93.5114 125.271 91.8949 125.587 90.3797C125.759 89.5529 125.945 88.7565 126.141 87.9908C126.352 87.1668 126.574 86.3788 126.803 85.6262C127.67 82.7695 128.676 80.4449 129.531 78.7367C129.688 78.4513 129.585 78.0911 129.299 77.9332C129.013 77.7753 128.654 77.8788 128.495 78.1645Z" fill="#193C6D"/>
<path fill-rule="evenodd" clip-rule="evenodd" d="M123.471 80.3741C122.237 82.1836 120.885 84.1327 119.847 86.4659C119.528 87.1823 119.246 87.936 119.007 88.7291C118.782 89.4791 118.596 90.2655 118.465 91.0897C118.228 92.5671 118.148 94.1656 118.27 95.9027C118.418 98.0062 118.872 100.31 119.704 102.866C119.784 103.148 120.077 103.313 120.359 103.234C120.641 103.155 120.805 102.861 120.726 102.579C120.134 100.082 119.906 97.8564 119.902 95.8435C119.898 94.2356 120.061 92.7724 120.32 91.4153C120.464 90.6657 120.635 89.9495 120.83 89.2604C121.037 88.5257 121.268 87.8229 121.518 87.1453C122.37 84.8392 123.449 82.837 124.477 80.9962C124.649 80.7185 124.563 80.354 124.285 80.1822C124.008 80.0106 123.643 80.0964 123.471 80.3741Z" fill="#193C6D"/>
<path fill-rule="evenodd" clip-rule="evenodd" d="M197.099 80.9131C199.416 86.5942 200.664 92.2183 201.232 98.1609C201.762 103.717 201.709 109.558 201.16 116.007C200.829 120.121 201.493 122.311 202.721 123.308C203.892 124.259 205.649 124.229 207.816 123.599C208.098 123.52 208.263 123.227 208.184 122.945C208.105 122.663 207.812 122.498 207.53 122.577C205.79 123.045 204.379 123.195 203.459 122.417C202.428 121.545 202.103 119.63 202.457 116.125C203.089 109.586 203.292 103.652 202.734 98.015C202.134 91.9401 200.665 86.2219 198.19 80.4566C198.064 80.1553 197.717 80.0133 197.416 80.1393C197.115 80.2652 196.973 80.6121 197.099 80.9131Z" fill="#193C6D"/>
<path fill-rule="evenodd" clip-rule="evenodd" d="M228.895 97.6706C229.01 99.2356 229.047 100.79 229.05 102.331C229.052 103.374 229.029 104.408 229.001 105.434C228.953 107.189 228.857 108.914 228.719 110.596C228.333 115.304 227.58 119.673 226.499 123.342C226.408 123.621 226.561 123.92 226.839 124.011C227.118 124.101 227.418 123.949 227.508 123.67C228.824 119.983 229.967 115.576 230.512 110.771C230.707 109.047 230.819 107.27 230.831 105.465C230.839 104.41 230.802 103.346 230.734 102.276C230.634 100.699 230.453 99.1142 230.213 97.5229C230.173 97.1592 229.844 96.897 229.481 96.9378C229.117 96.9782 228.854 97.3068 228.895 97.6706Z" fill="#193C6D"/>
<path fill-rule="evenodd" clip-rule="evenodd" d="M221.768 148.14C221.239 148.924 220.521 149.583 219.69 150.135C218.922 150.644 218.039 151.006 217.086 151.272C216.376 151.47 215.629 151.608 214.839 151.664C213.735 151.743 212.562 151.713 211.327 151.404C211.049 151.312 210.749 151.463 210.656 151.74C210.564 152.018 210.714 152.319 210.992 152.411C212.322 152.97 213.626 153.272 214.878 153.3C215.823 153.322 216.734 153.185 217.574 152.926C218.474 152.648 219.292 152.219 220.012 151.699C221.153 150.873 222.044 149.816 222.621 148.631C222.756 148.395 222.675 148.094 222.44 147.959C222.205 147.824 221.904 147.905 221.768 148.14Z" fill="#193C6D"/>
<path fill-rule="evenodd" clip-rule="evenodd" d="M219.334 150.747C219.334 150.747 218.174 153.124 216.95 156.267C216.262 158.032 215.566 160.037 215.019 161.991C214.835 162.682 214.306 163.111 213.785 163.156C213.347 163.193 213.011 162.843 212.974 162.156C212.91 161.259 212.978 159.817 213.07 158.319C213.245 155.471 213.535 152.433 213.535 152.433C213.576 152.143 213.373 151.875 213.083 151.834C212.793 151.794 212.525 151.996 212.484 152.286C212.484 152.286 211.924 155.319 211.569 158.18C211.373 159.758 211.254 161.284 211.276 162.236C211.356 164.244 212.658 165.005 213.938 164.888C215.066 164.786 216.277 163.908 216.64 162.402C217.078 160.471 217.674 158.487 218.245 156.729C219.271 153.566 220.234 151.145 220.234 151.145C220.344 150.897 220.232 150.606 219.983 150.497C219.735 150.387 219.444 150.499 219.334 150.747Z" fill="#193C6D"/>
<path fill-rule="evenodd" clip-rule="evenodd" d="M213.792 163.825C213.792 163.825 213.229 165.631 212.611 168.495C212.407 169.441 212.187 170.497 212.016 171.648C211.867 172.65 211.746 173.721 211.67 174.838C211.566 176.378 211.564 177.997 211.585 179.655C211.57 179.948 211.796 180.197 212.089 180.211C212.381 180.225 212.63 179.999 212.644 179.706C212.789 178.418 212.983 177.165 213.16 175.946C213.284 175.088 213.411 174.254 213.522 173.448C213.611 172.802 213.688 172.174 213.762 171.571C213.843 170.913 213.914 170.284 213.983 169.689C214.38 166.294 214.749 164.052 214.749 164.052C214.812 163.788 214.648 163.523 214.384 163.46C214.12 163.398 213.855 163.561 213.792 163.825Z" fill="#193C6D"/>
<path fill-rule="evenodd" clip-rule="evenodd" d="M136.554 108.319C134.69 112.039 135.964 117.403 138.767 117.104C141.434 116.819 141.892 111.641 141.289 109.439C139.888 108.305 138.142 107.783 136.554 108.319Z" fill="#193C6D"/>
<path fill-rule="evenodd" clip-rule="evenodd" d="M178.216 111.661C176.353 115.38 177.626 120.745 180.43 120.445C183.097 120.16 183.554 114.983 182.952 112.78C181.551 111.646 179.804 111.125 178.216 111.661Z" fill="#193C6D"/>
<path fill-rule="evenodd" clip-rule="evenodd" d="M131.685 111.789C132.756 110.896 133.82 110.288 134.867 109.852C135.594 109.55 136.311 109.392 137.046 109.331C137.585 109.287 138.13 109.276 138.699 109.37C139.068 109.432 139.445 109.506 139.834 109.628C140.719 109.907 141.65 110.322 142.639 110.964C142.867 111.149 143.201 111.114 143.385 110.886C143.57 110.659 143.535 110.324 143.307 110.14C142.137 108.975 140.997 108.172 139.849 107.695C138.843 107.277 137.835 107.11 136.859 107.195C135.869 107.282 134.907 107.623 134.008 108.184C132.918 108.863 131.93 109.854 130.974 111.109C130.787 111.305 130.793 111.617 130.99 111.805C131.186 111.992 131.498 111.985 131.685 111.789Z" fill="#193C6D"/>
<path fill-rule="evenodd" clip-rule="evenodd" d="M173.348 115.13C174.419 114.237 175.483 113.629 176.531 113.193C177.257 112.891 177.974 112.733 178.709 112.672C179.248 112.627 179.793 112.617 180.363 112.711C180.732 112.772 181.108 112.847 181.497 112.969C182.383 113.248 183.313 113.663 184.303 114.305C184.53 114.49 184.864 114.455 185.049 114.227C185.233 114 185.198 113.665 184.971 113.481C183.801 112.315 182.66 111.512 181.513 111.036C180.507 110.618 179.498 110.451 178.522 110.536C177.533 110.623 176.57 110.964 175.671 111.525C174.582 112.204 173.594 113.195 172.638 114.45C172.45 114.646 172.457 114.958 172.653 115.146C172.849 115.333 173.161 115.326 173.348 115.13Z" fill="#193C6D"/>
<path fill-rule="evenodd" clip-rule="evenodd" d="M150.257 117.162C150.425 116.212 150.757 115.443 151.172 114.805C151.483 114.327 151.88 113.972 152.352 113.706C152.802 113.452 153.327 113.299 153.938 113.243C154.991 113.147 156.256 113.316 157.751 113.805C159.391 114.34 161.282 115.208 163.418 116.497C163.718 116.695 164.123 116.613 164.322 116.314C164.521 116.014 164.439 115.609 164.139 115.41C161.999 113.854 160.085 112.751 158.393 112.058C156.614 111.329 155.063 111.049 153.773 111.13C152.979 111.18 152.27 111.369 151.662 111.679C150.975 112.029 150.397 112.52 149.963 113.15C149.65 113.603 149.389 114.114 149.228 114.7C149.033 115.407 148.944 116.192 148.979 117.07C148.953 117.423 149.219 117.73 149.572 117.756C149.925 117.781 150.232 117.515 150.257 117.162Z" fill="#193C6D"/>
<path fill-rule="evenodd" clip-rule="evenodd" d="M191.824 115.714L198.246 115.892C198.549 115.964 199.483 116.183 200.776 116.458C201.551 116.622 202.455 116.8 203.429 116.99C208.652 118.007 215.842 119.334 215.842 119.334C216.065 119.386 216.288 119.248 216.341 119.026C216.393 118.803 216.255 118.58 216.032 118.527C216.032 118.527 209.008 116.499 203.881 115.074C202.925 114.809 202.037 114.564 201.27 114.365C199.695 113.956 198.645 113.714 198.645 113.714C198.57 113.697 198.493 113.687 198.416 113.685L191.873 113.57C191.282 113.556 190.79 114.026 190.777 114.617C190.763 115.209 191.233 115.7 191.824 115.714Z" fill="#193C6D"/>
<path fill-rule="evenodd" clip-rule="evenodd" d="M120.041 110.509C120.041 110.509 118.981 110.441 118.064 110.478C117.357 110.506 116.746 110.604 116.746 110.604C116.413 110.604 116.102 110.774 115.923 111.055C115.744 111.335 115.719 111.688 115.859 111.99L117.782 114.816C117.878 115.023 118.124 115.114 118.332 115.018C118.54 114.922 118.631 114.676 118.535 114.468L118.046 112.683C118.052 112.684 118.058 112.684 118.064 112.684C118.981 112.721 120.041 112.653 120.041 112.653C120.633 112.653 121.113 112.173 121.113 111.581C121.113 110.989 120.633 110.509 120.041 110.509Z" fill="#193C6D"/>
<path fill-rule="evenodd" clip-rule="evenodd" d="M154.084 118.726C154.084 118.726 151.435 124.506 149.199 129.741C147.838 132.929 146.643 135.919 146.209 137.277C145.533 139.615 145.837 141.327 147.423 142.453C148.1 142.934 149.045 143.317 150.315 143.535C151.443 143.73 152.836 143.803 154.544 143.773C154.854 143.786 155.118 143.545 155.131 143.234C155.145 142.923 154.903 142.66 154.593 142.646C153.304 142.509 152.22 142.318 151.299 142.106C150.032 141.816 149.129 141.458 148.527 140.978C147.997 140.556 147.795 140.018 147.804 139.355C147.811 138.9 147.903 138.395 148.07 137.838C148.376 136.766 149.153 134.666 150.056 132.243C152.177 126.554 155.052 119.135 155.052 119.135C155.165 118.868 155.039 118.559 154.772 118.447C154.505 118.334 154.197 118.46 154.084 118.726Z" fill="#193C6D"/>
<path fill-rule="evenodd" clip-rule="evenodd" d="M129.522 94.8491C131.729 94.0292 134.184 93.4835 136.694 93.32C137.287 93.2812 137.883 93.2707 138.481 93.2651C139.071 93.2595 139.661 93.268 140.254 93.2908C141.437 93.3356 142.617 93.4023 143.803 93.7039C144.339 93.8974 144.93 93.6202 145.124 93.085C145.317 92.5497 145.04 91.9582 144.505 91.7644C143.27 91.172 142.012 90.7354 140.707 90.5073C139.825 90.3535 138.93 90.3103 138.044 90.3417C136.719 90.3883 135.411 90.6223 134.142 90.9504C132.22 91.4473 130.401 92.1914 128.733 93.0426C128.234 93.2603 128.006 93.8419 128.224 94.3404C128.442 94.839 129.023 95.0668 129.522 94.8491Z" fill="#193C6D"/>
<path fill-rule="evenodd" clip-rule="evenodd" d="M188.457 92.0227C184.837 89.6795 181.378 88.208 177.993 87.7095C176.411 87.4766 174.841 87.4495 173.302 87.6645C172.376 87.7937 171.462 88.0153 170.562 88.3217C169.281 88.758 168.039 89.3552 166.804 90.0982C166.295 90.3531 166.089 90.9731 166.344 91.482C166.599 91.9908 167.219 92.1969 167.728 91.9422C169.376 91.2561 171.015 90.8835 172.656 90.6576C173.483 90.5437 174.308 90.4745 175.143 90.4536C175.969 90.433 176.801 90.4496 177.645 90.5292C180.749 90.8219 183.994 91.8538 187.453 93.719C187.921 93.9962 188.526 93.8412 188.803 93.373C189.08 92.905 188.925 92.2998 188.457 92.0227Z" fill="#193C6D"/>
<path fill-rule="evenodd" clip-rule="evenodd" d="M145.855 155.847C145.855 155.847 149.784 156.678 154.838 157.185C155.812 157.282 156.827 157.365 157.864 157.414C158.865 157.461 159.885 157.483 160.905 157.462C162.277 157.435 163.645 157.34 164.967 157.185C167.175 156.926 169.238 156.487 170.975 155.877C171.257 155.795 171.419 155.501 171.337 155.219C171.256 154.938 170.961 154.776 170.68 154.857C168.574 155.35 166.023 155.47 163.364 155.486C162.221 155.493 161.061 155.476 159.908 155.461C158.734 155.446 157.569 155.431 156.44 155.41C150.745 155.303 146 154.887 146 154.887C145.735 154.847 145.488 155.03 145.447 155.295C145.407 155.559 145.59 155.807 145.855 155.847Z" fill="#193C6D"/>
<path fill-rule="evenodd" clip-rule="evenodd" d="M169.973 153.833C170.334 154.11 170.56 154.457 170.766 154.867C170.875 155.084 170.979 155.318 171.068 155.592C171.187 155.959 171.314 156.366 171.383 156.868C171.386 157.081 171.562 157.252 171.775 157.249C171.988 157.246 172.159 157.071 172.156 156.858C172.238 155.982 172.202 155.282 172.001 154.715C171.919 154.484 171.803 154.278 171.667 154.098C171.336 153.66 170.915 153.352 170.407 153.12C170.21 153.001 169.954 153.063 169.834 153.259C169.714 153.456 169.777 153.713 169.973 153.833Z" fill="#193C6D"/>
<path fill-rule="evenodd" clip-rule="evenodd" d="M125.234 162.396C124.115 170.186 124.01 180.368 125.422 191.358C126.213 197.523 127.475 203.943 129.287 210.322C131.037 216.486 133.314 222.608 136.109 228.448C140.352 237.31 145.837 245.505 152.681 252.184C152.888 252.39 153.225 252.39 153.432 252.184C153.639 251.978 153.639 251.64 153.431 251.434C146.855 244.709 141.693 236.505 137.682 227.712C135.037 221.914 132.919 215.851 131.212 209.779C129.441 203.482 128.128 197.173 127.238 191.108C125.65 180.285 125.377 170.248 126.272 162.531C126.309 162.245 126.107 161.982 125.82 161.945C125.534 161.908 125.271 162.11 125.234 162.396Z" fill="#193C6D"/>
<path fill-rule="evenodd" clip-rule="evenodd" d="M128.605 175.635C128.77 183.035 129.734 191.272 131.557 199.615C132.692 204.808 134.148 210.045 135.937 215.14C140.673 228.623 147.642 241.135 156.439 249.584C156.649 249.788 156.985 249.785 157.19 249.573C157.394 249.364 157.39 249.029 157.18 248.823C148.635 240.377 142.095 227.901 137.485 214.601C135.737 209.556 134.252 204.395 133.062 199.276C131.148 191.041 129.965 182.922 129.65 175.601C129.641 175.312 129.399 175.086 129.11 175.095C128.822 175.104 128.595 175.346 128.605 175.635Z" fill="#193C6D"/>
<path fill-rule="evenodd" clip-rule="evenodd" d="M133.306 220.957C133.871 227.484 134.84 233.821 136.469 240.106C137.535 244.221 138.878 248.314 140.531 252.422C144.197 261.533 149.387 270.724 156.374 280.558C156.542 280.796 156.873 280.858 157.113 280.689C157.353 280.523 157.413 280.19 157.246 279.952C150.532 270.075 145.692 260.833 142.137 251.785C140.543 247.727 139.207 243.706 138.088 239.672C136.371 233.488 135.145 227.279 134.392 220.846C134.361 220.546 134.093 220.328 133.793 220.358C133.493 220.389 133.275 220.657 133.306 220.957Z" fill="#193C6D"/>
<path fill-rule="evenodd" clip-rule="evenodd" d="M159.31 262.948C158.639 266.904 157.801 270.273 157.202 273.897C156.818 276.218 156.525 278.644 156.408 281.367C156.199 286.229 156.571 292.048 157.852 300.003C157.894 300.292 158.163 300.493 158.453 300.453C158.743 300.41 158.944 300.142 158.903 299.853C157.923 291.975 157.86 286.24 158.134 281.455C158.287 278.791 158.552 276.427 158.859 274.146C159.35 270.506 159.928 267.086 160.391 263.103C160.433 262.803 160.225 262.527 159.927 262.484C159.629 262.441 159.352 262.65 159.31 262.948Z" fill="#193C6D"/>
<path fill-rule="evenodd" clip-rule="evenodd" d="M163.022 262.878C163.022 262.878 161.725 269.78 161.223 278.746C160.944 283.718 160.919 289.322 161.453 294.729C162.242 302.708 164.281 310.245 168.455 314.764C168.651 314.984 168.987 315 169.205 314.804C169.422 314.608 169.44 314.273 169.244 314.054C165.336 309.604 163.657 302.279 163.041 294.586C162.614 289.253 162.719 283.742 163.005 278.848C163.522 269.997 164.664 263.171 164.664 263.171C164.745 262.718 164.442 262.286 163.989 262.206C163.536 262.123 163.102 262.425 163.022 262.878Z" fill="#193C6D"/>
<path fill-rule="evenodd" clip-rule="evenodd" d="M134.343 195.625C134.343 195.625 135.272 192.603 136.632 189.411C136.971 188.615 137.34 187.809 137.711 187.029C137.964 186.498 138.212 185.978 138.472 185.488C138.85 184.775 139.233 184.123 139.655 183.59C140.142 182.975 140.631 182.492 141.205 182.31C141.49 182.243 141.666 181.957 141.599 181.672C141.532 181.387 141.246 181.21 140.961 181.277C139.947 181.44 138.938 182.171 138.011 183.272C137.353 184.053 136.73 185.022 136.201 186.087C135.625 187.249 135.166 188.527 134.776 189.74C133.811 192.744 133.354 195.39 133.354 195.39C133.289 195.662 133.458 195.936 133.731 196.001C134.003 196.067 134.277 195.898 134.343 195.625Z" fill="#193C6D"/>
<path fill-rule="evenodd" clip-rule="evenodd" d="M144.888 180.308C144.278 181.584 143.928 183.86 144.712 186.676C145.05 187.889 145.592 189.208 146.454 190.56C147.138 191.632 148.013 192.738 149.141 193.802C150.475 195.061 152.163 196.238 154.189 197.407C154.433 197.57 154.763 197.504 154.926 197.26C155.088 197.017 155.023 196.687 154.779 196.524C153.553 195.572 152.519 194.609 151.59 193.686C150.884 192.983 150.26 192.295 149.693 191.629C149.164 191.009 148.686 190.41 148.265 189.822C147.79 189.159 147.376 188.521 147.034 187.896C145.322 184.775 145.263 182.101 145.77 180.673C145.871 180.43 145.755 180.15 145.511 180.05C145.268 179.949 144.988 180.065 144.888 180.308Z" fill="#193C6D"/>
<path fill-rule="evenodd" clip-rule="evenodd" d="M144.139 219.625C145.727 215.46 147.896 210.959 150.088 207.422C151.352 205.381 152.622 203.677 153.822 202.585C154.473 201.992 155.069 201.572 155.653 201.486C156.055 201.42 156.531 201.561 157.055 201.789C157.81 202.117 158.629 202.634 159.45 203.225C162.231 205.23 164.972 208.081 164.972 208.081C165.165 208.302 165.5 208.325 165.721 208.132C165.942 207.939 165.964 207.604 165.772 207.383C165.772 207.383 162.527 203.326 159.446 201.1C157.97 200.033 156.482 199.448 155.38 199.581C154.655 199.68 153.872 200.034 153.083 200.653C152.01 201.494 150.877 202.836 149.784 204.523C147.266 208.412 144.877 214.147 143.236 219.31C143.15 219.559 143.281 219.832 143.53 219.918C143.779 220.005 144.052 219.874 144.139 219.625Z" fill="#193C6D"/>
<path fill-rule="evenodd" clip-rule="evenodd" d="M205.144 185.55C200.309 189.326 195.429 192.135 190.108 194.39C185.058 196.529 179.612 198.168 173.417 199.627C171.978 199.972 170.043 201.419 168.048 203.449C164.754 206.801 161.186 211.704 159.075 214.837C158.25 216.085 158.115 217.983 158.459 220.45C159.116 225.149 161.347 232.132 161.363 240.562C161.359 240.857 161.593 241.098 161.886 241.101C162.178 241.106 162.42 240.873 162.425 240.578C162.699 232.091 160.738 224.98 160.208 220.23C159.994 218.317 159.966 216.836 160.624 215.884C162.406 213.263 165.263 209.393 168.055 206.26C170.227 203.822 172.308 201.793 173.856 201.4C180.113 199.78 185.612 198.005 190.685 195.706C196.044 193.277 200.927 190.272 205.742 186.295C205.948 186.13 205.981 185.829 205.816 185.623C205.65 185.418 205.35 185.385 205.144 185.55Z" fill="#193C6D"/>
<path fill-rule="evenodd" clip-rule="evenodd" d="M171.733 206.225C172.451 205.813 173.123 205.772 174.007 206.59C174.738 207.266 175.576 208.447 176.635 210.331C178.087 212.83 179.785 215.722 181.388 218.118C182.894 220.369 184.307 222.185 185.094 223.025C185.719 223.676 186.503 223.926 187.303 223.915C188.839 223.894 190.379 222.946 190.379 222.946C190.543 222.854 190.601 222.645 190.509 222.481C190.416 222.317 190.208 222.259 190.044 222.351C190.044 222.351 188.652 223.046 187.333 222.947C186.816 222.908 186.315 222.726 185.946 222.272C185.531 221.767 184.958 220.906 184.258 219.839C183.496 218.677 182.61 217.263 181.663 215.775C180.376 213.752 178.973 211.598 177.786 209.649C176.17 207.061 174.979 205.758 174.003 205.232C172.957 204.669 172.106 204.848 171.236 205.409C171.011 205.546 170.94 205.84 171.077 206.065C171.214 206.29 171.508 206.362 171.733 206.225Z" fill="#193C6D"/>
<path fill-rule="evenodd" clip-rule="evenodd" d="M169.273 215.705C168.931 214.945 167.665 214.699 166.41 215.328C165.382 215.843 164.409 216.948 164.127 218.627C163.983 220.384 164.614 221.333 165.445 221.677C166.428 222.083 167.754 221.686 168.453 220.765C168.582 220.628 168.575 220.412 168.438 220.283C168.301 220.154 168.085 220.161 167.956 220.298C167.41 220.766 166.576 220.903 166.015 220.552C165.811 220.425 165.707 220.19 165.638 219.878C165.575 219.593 165.566 219.246 165.629 218.821C165.718 217.874 166.134 217.17 166.647 216.709C167.119 216.285 167.645 216.029 168.068 216.042C168.218 216.046 168.362 216.043 168.427 216.149C168.55 216.383 168.839 216.473 169.072 216.35C169.305 216.227 169.395 215.938 169.273 215.705Z" fill="#193C6D"/>
<path fill-rule="evenodd" clip-rule="evenodd" d="M104.278 237.616C104.263 237.526 104.244 237.385 104.246 237.262C104.25 236.881 104.32 236.404 104.455 235.811C104.898 233.78 107.723 227.548 110.666 221.422C113.784 214.93 117.03 208.555 117.982 207.517C118.935 206.473 120.765 204.773 122.713 203.134C124.543 201.596 126.473 200.11 127.886 199.283C128.116 199.154 128.198 198.863 128.07 198.633C127.941 198.402 127.65 198.32 127.42 198.449C125.934 199.239 123.887 200.679 121.946 202.184C119.877 203.788 117.933 205.467 116.912 206.503C115.898 207.537 112.256 213.937 108.87 220.53C105.66 226.781 102.69 233.203 102.19 235.293C101.462 238.445 102.45 239.576 103.592 239.879C104.495 240.118 105.989 239.71 107.715 239.145C109.345 238.598 111.076 238.128 112.626 237.74C113.605 237.495 114.512 237.285 115.277 237.115C114.565 238.341 113.646 239.935 112.792 241.45C111.728 243.334 110.766 245.1 110.409 245.891C109.86 247.116 109.374 248.024 109.33 249.011C109.289 249.927 109.571 250.935 110.585 252.278C111.173 253.055 112.845 254.983 114.863 257.247C119.173 262.088 125.053 268.491 125.053 268.491C125.177 268.633 125.393 268.647 125.534 268.523C125.676 268.398 125.69 268.183 125.565 268.041C125.565 268.041 119.981 261.391 115.879 256.382C113.992 254.077 112.42 252.125 111.873 251.34C111.218 250.405 110.979 249.74 111.03 249.118C111.094 248.325 111.571 247.63 112.049 246.66C112.343 246.06 113.038 244.87 113.856 243.5C115.772 240.286 118.376 236.115 118.376 236.115C118.596 235.751 118.584 235.291 118.344 234.94C118.104 234.588 117.68 234.409 117.261 234.482C117.261 234.482 114.976 234.846 112.089 235.518C110.476 235.893 108.678 236.369 106.982 236.916C106.112 237.203 105.327 237.48 104.687 237.589C104.559 237.611 104.385 237.615 104.278 237.616Z" fill="#193C6D"/>
<path fill-rule="evenodd" clip-rule="evenodd" d="M113.361 209.575C110.509 211.028 107.913 212.308 105.566 213.522C102.637 215.037 100.082 216.392 97.8553 217.663C96.3781 218.507 95.05 219.322 93.8482 220.109C91.5418 221.62 89.6969 223.032 88.1935 224.44C84.7946 227.624 83.1438 230.804 82.1947 235.541C82.1505 235.724 82.2631 235.909 82.4461 235.953C82.6292 235.997 82.8139 235.885 82.8581 235.702C84.1039 231.32 85.8984 228.48 89.2957 225.698C90.8261 224.445 92.6855 223.222 94.945 221.841C96.1511 221.104 97.4709 220.326 98.9086 219.468C101.102 218.16 103.576 216.689 106.389 214.995C108.653 213.63 111.109 212.095 113.83 210.407C114.06 210.277 114.142 209.986 114.012 209.756C113.883 209.526 113.591 209.445 113.361 209.575Z" fill="#193C6D"/>
<path fill-rule="evenodd" clip-rule="evenodd" d="M85.112 228.512C82.5553 229.293 80.5298 230.109 78.7946 231.303C77.0054 232.533 75.5356 234.165 74.1163 236.543C73.1573 238.209 72.0611 240.394 71.0273 242.897C70.1859 244.934 69.3813 247.183 68.637 249.491C67.1395 254.136 65.9215 259.038 65.2295 263.069C65.1912 263.251 65.3096 263.434 65.494 263.471C65.6784 263.509 65.8594 263.391 65.8977 263.208C66.8615 259.276 68.4847 254.556 70.2071 250.043C71.06 247.81 71.9464 245.634 72.7896 243.631C73.8094 241.211 74.7567 239.041 75.6527 237.406C76.8229 235.188 78.0757 233.647 79.6265 232.438C81.1983 231.213 83.0571 230.316 85.4219 229.415C85.6712 229.33 85.8041 229.058 85.7189 228.809C85.6334 228.559 85.3613 228.426 85.112 228.512Z" fill="#193C6D"/>
<path fill-rule="evenodd" clip-rule="evenodd" d="M191.763 235.201C189.581 240.305 186.192 246.848 182.545 253.347C181.208 255.727 179.852 258.113 178.485 260.407C176.238 264.178 173.993 267.722 171.831 270.649C171.754 270.748 171.772 270.89 171.871 270.968C171.97 271.045 172.113 271.027 172.19 270.927C174.501 268.089 176.968 264.661 179.358 260.949C180.811 258.686 182.244 256.328 183.594 253.937C187.277 247.408 190.442 240.699 192.546 235.528C192.637 235.311 192.534 235.062 192.318 234.972C192.102 234.882 191.853 234.984 191.763 235.201Z" fill="#193C6D"/>
<path fill-rule="evenodd" clip-rule="evenodd" d="M217.687 205.436C219.507 203.975 221.989 202.269 224.224 201.08C225.436 200.436 226.569 199.947 227.474 199.758C227.911 199.666 228.273 199.63 228.522 199.765C228.905 199.972 229.155 200.18 229.336 200.392C229.587 200.686 229.71 200.99 229.872 201.297C230.155 201.831 230.51 202.376 231.325 202.95C232.035 203.438 234.709 205.265 238.203 207.725C240.262 209.175 242.613 210.831 244.987 212.61C247.988 214.859 251.04 217.269 253.603 219.666C253.73 219.792 253.937 219.792 254.064 219.664C254.191 219.537 254.19 219.33 254.063 219.203C251.013 215.99 247.228 212.661 243.634 209.79C241.652 208.208 239.735 206.761 238.041 205.543C235.127 203.449 232.891 202.022 232.256 201.59C231.576 201.138 231.363 200.692 231.128 200.266C230.956 199.957 230.777 199.654 230.507 199.357C230.216 199.038 229.827 198.719 229.222 198.418C228.806 198.212 228.255 198.137 227.597 198.244C226.815 198.37 225.841 198.738 224.782 199.285C222.269 200.583 219.221 202.862 217.1 204.74C216.908 204.902 216.884 205.189 217.046 205.381C217.208 205.573 217.495 205.598 217.687 205.436Z" fill="#193C6D"/>
<path fill-rule="evenodd" clip-rule="evenodd" d="M219.783 189.819C220.434 191.23 221.007 192.749 221.609 194.23C222.017 195.234 222.444 196.215 222.822 197.171C223.269 198.301 223.684 199.374 224.003 200.369C224.048 200.544 224.226 200.648 224.4 200.603C224.575 200.557 224.679 200.379 224.634 200.205C224.281 198.529 223.784 196.589 223.071 194.634C222.875 194.094 222.653 193.558 222.417 193.027C221.864 191.781 221.229 190.569 220.596 189.412C220.484 189.188 220.211 189.097 219.986 189.209C219.762 189.321 219.671 189.595 219.783 189.819Z" fill="#193C6D"/>
<path fill-rule="evenodd" clip-rule="evenodd" d="M235.215 244.508C225.241 250.935 219.708 264.356 220.315 277.948C220.653 285.519 222.9 293.142 227.307 299.634C230.103 303.754 233.78 307.404 238.376 310.32C252.293 319.077 268.083 318.771 280.265 312.014C292.361 305.306 300.917 292.242 300.587 275.409C300.421 268.384 298.512 261.876 295.301 256.25C291.954 250.381 287.207 245.47 281.653 241.905C270.701 234.883 256.592 233.081 243.79 239.52C243.436 239.692 243.289 240.12 243.461 240.474C243.634 240.825 244.061 240.973 244.414 240.801C256.732 234.994 270.077 237.01 280.329 243.921C285.459 247.379 289.801 252.072 292.854 257.62C295.754 262.89 297.494 268.939 297.58 275.466C297.842 291.028 289.933 303.081 278.753 309.288C267.472 315.55 252.871 315.869 239.955 307.804C235.678 305.155 232.26 301.805 229.619 298.039C225.393 292.011 223.162 284.911 222.687 277.816C221.824 264.924 226.696 252.048 236.011 245.709C236.342 245.489 236.433 245.041 236.213 244.712C235.994 244.379 235.547 244.288 235.215 244.508Z" fill="#193C6D"/>
<path fill-rule="evenodd" clip-rule="evenodd" d="M229.2 289.899C225.942 281.214 225.986 272.691 228.422 265.307C230.186 259.957 233.22 255.218 237.185 251.452C238.777 249.941 240.518 248.584 242.385 247.405C245.137 245.663 248.167 244.315 251.417 243.427C258.712 241.433 267.109 241.779 275.89 245.472C276.126 245.577 276.405 245.47 276.509 245.231C276.614 244.993 276.507 244.717 276.271 244.612C267.297 240.463 258.575 239.769 250.956 241.653C247.492 242.511 244.258 243.907 241.337 245.741C239.354 246.987 237.516 248.44 235.85 250.064C231.728 254.084 228.629 259.153 226.915 264.83C224.594 272.517 224.816 281.332 228.452 290.193C228.533 290.4 228.766 290.502 228.973 290.421C229.179 290.341 229.281 290.105 229.2 289.899Z" fill="#193C6D"/>
<path fill-rule="evenodd" clip-rule="evenodd" d="M262.382 310.76C263.931 310.845 265.453 310.84 266.968 310.695C267.997 310.599 269.01 310.441 270.012 310.213C270.415 310.122 270.811 310.017 271.205 309.891C271.795 309.706 272.374 309.489 272.937 309.234C274.347 308.602 275.649 307.8 276.93 306.929C277.158 306.806 277.241 306.522 277.118 306.294C276.995 306.064 276.708 305.98 276.48 306.104C275.491 306.511 274.491 306.833 273.473 307.157C272.805 307.372 272.135 307.562 271.463 307.763C270.905 307.929 270.353 308.103 269.795 308.269C269.238 308.436 268.68 308.605 268.12 308.765C266.244 309.296 264.341 309.733 262.355 309.955C262.135 309.963 261.958 310.148 261.966 310.371C261.972 310.591 262.159 310.765 262.382 310.76Z" fill="#193C6D"/>
<path fill-rule="evenodd" clip-rule="evenodd" d="M283.296 302.284C285.666 300.282 287.818 297.913 289.665 295.155C290.823 293.426 291.86 291.55 292.747 289.526C293.085 288.754 293.401 287.955 293.685 287.135C294.095 285.948 294.452 284.712 294.738 283.436C295.406 280.48 295.744 277.314 295.837 273.956C295.856 273.696 295.663 273.471 295.403 273.452C295.146 273.431 294.918 273.626 294.899 273.884C294.604 276.191 294.16 278.376 293.642 280.472C293.278 281.946 292.862 283.364 292.42 284.739C292.037 285.932 291.632 287.09 291.195 288.215C290.742 289.381 290.262 290.51 289.745 291.598C287.882 295.519 285.55 298.915 282.752 301.695C282.589 301.845 282.578 302.097 282.728 302.26C282.878 302.424 283.133 302.434 283.296 302.284Z" fill="#193C6D"/>
<path fill-rule="evenodd" clip-rule="evenodd" d="M267.064 274.331C266.713 271.093 264.245 268.97 261.353 268.469C259.919 268.223 258.367 268.405 256.922 269.053C255.654 269.624 254.486 270.592 253.518 271.919C252.26 273.787 251.864 276.178 252.452 278.298C253.022 280.354 254.439 282.147 256.694 282.852C256.938 282.943 257.209 282.822 257.3 282.578C257.394 282.335 257.27 282.064 257.026 281.973C255.29 281.195 254.336 279.635 254.047 277.941C253.766 276.298 254.162 274.513 255.231 273.184C255.981 272.179 256.892 271.487 257.847 271.021C258.913 270.501 260.039 270.265 261.13 270.337C263.491 270.495 265.638 271.924 266.274 274.473C266.311 274.69 266.52 274.835 266.74 274.797C266.957 274.76 267.104 274.551 267.064 274.331Z" fill="#193C6D"/>
<path fill-rule="evenodd" clip-rule="evenodd" d="M267.131 234.975C271.181 233.181 275.786 231.533 280.404 230.301C283.489 229.478 286.58 228.853 289.514 228.521C292.203 228.218 294.757 228.171 297.054 228.46C299.638 228.784 301.889 229.524 303.573 230.929C306.915 233.646 308.965 236.498 309.81 239.304C310.844 242.73 310.054 246.054 307.695 248.844C305.068 251.975 303.088 254.272 301.434 256.065C299.678 257.968 298.306 259.289 296.909 260.42C296.593 260.662 296.534 261.115 296.778 261.431C297.019 261.744 297.472 261.803 297.789 261.562C299.29 260.461 300.783 259.166 302.691 257.279C304.441 255.55 306.54 253.32 309.333 250.283C312.372 246.952 313.463 242.862 312.324 238.59C311.453 235.321 309.215 231.93 305.438 228.693C303.353 226.957 300.598 225.936 297.395 225.578C294.883 225.298 292.09 225.417 289.166 225.85C286.119 226.302 282.926 227.09 279.758 228.11C275.113 229.605 270.527 231.592 266.501 233.662C266.14 233.835 265.987 234.27 266.161 234.633C266.332 234.995 266.767 235.149 267.131 234.975Z" fill="#193C6D"/>
<path fill-rule="evenodd" clip-rule="evenodd" d="M295.545 232.665C293.653 233.105 291.889 233.574 290.289 234.291C289.115 234.818 288.035 235.47 287.07 236.268C286.108 237.065 285.269 238.021 284.548 239.134C283.626 240.559 282.907 242.253 282.404 244.304C282.31 244.615 282.489 244.944 282.8 245.041C283.114 245.135 283.444 244.955 283.537 244.644C284.419 242.152 285.633 240.329 287.07 238.881C287.641 238.305 288.249 237.796 288.89 237.319C289.321 236.999 289.758 236.688 290.217 236.394C290.9 235.956 291.613 235.548 292.366 235.16C293.457 234.597 294.599 234.063 295.829 233.562C296.076 233.484 296.213 233.22 296.135 232.973C296.057 232.725 295.794 232.587 295.545 232.665Z" fill="#193C6D"/>
<path fill-rule="evenodd" clip-rule="evenodd" d="M305.06 254.749C309.049 254.76 314.672 255.652 319.132 257.697C322.115 259.067 324.595 260.941 325.442 263.64C326.045 265.462 326.455 267.304 326.648 269.108C326.846 270.984 326.803 272.822 326.417 274.565C325.683 277.88 323.734 280.837 320.076 283.005C316.996 284.849 314.136 285.921 311.622 286.572C307.325 287.687 304.023 287.602 302.327 287.969C302.005 288.03 301.796 288.341 301.858 288.663C301.919 288.982 302.23 289.191 302.552 289.129C304.278 288.829 307.609 289.057 311.986 288.106C314.664 287.521 317.717 286.5 321.038 284.683C325.353 282.297 327.701 278.909 328.645 275.085C329.223 272.734 329.269 270.204 328.878 267.636C328.636 266.057 328.221 264.468 327.685 262.889C326.543 259.665 323.608 257.317 319.917 255.859C315.146 253.977 309.188 253.522 305.031 253.808C304.771 253.819 304.567 254.036 304.575 254.296C304.583 254.553 304.803 254.757 305.06 254.749Z" fill="#193C6D"/>
<path fill-rule="evenodd" clip-rule="evenodd" d="M314.734 263.999C313.412 263.75 311.774 263.364 309.842 263.227C308.799 263.154 307.676 263.157 306.5 263.272C304.036 263.516 301.335 264.259 298.499 265.623C298.201 265.76 298.07 266.108 298.204 266.406C298.338 266.703 298.689 266.837 298.987 266.703C301.131 265.803 303.187 265.331 305.09 265.036C306.427 264.827 307.692 264.728 308.869 264.661C309.901 264.599 310.86 264.551 311.75 264.538C312.855 264.519 313.833 264.511 314.683 264.511C314.825 264.524 314.951 264.422 314.964 264.28C314.98 264.138 314.876 264.012 314.734 263.999Z" fill="#193C6D"/>
<path fill-rule="evenodd" clip-rule="evenodd" d="M319.072 285.618C319.826 286.765 320.099 289.223 319.748 291.796C319.469 293.841 318.759 295.966 317.427 297.569C316.714 298.443 315.459 299.301 313.937 300.183C312.693 300.904 311.265 301.614 309.769 302.313C305.006 304.538 299.498 306.554 296.483 307.524C293.792 308.414 292.087 308.816 290.634 308.556C289.487 308.349 288.52 307.733 287.327 306.696C287 306.396 286.491 306.42 286.193 306.747C285.893 307.074 285.917 307.583 286.244 307.883C287.662 309.239 288.863 310.009 290.275 310.328C291.942 310.703 293.942 310.411 297.097 309.518C300.2 308.612 305.923 306.8 310.812 304.576C312.399 303.852 313.891 303.077 315.189 302.289C316.987 301.198 318.408 300.059 319.225 298.984C320.707 296.998 321.474 294.447 321.662 292C321.898 288.931 321.254 286.068 320.276 284.771C320.043 284.438 319.582 284.358 319.249 284.594C318.92 284.827 318.839 285.285 319.072 285.618Z" fill="#193C6D"/>
<path fill-rule="evenodd" clip-rule="evenodd" d="M303.181 306.779C302.825 309.655 302.026 311.971 300.174 313.826C298.67 315.335 296.475 316.533 293.28 317.495C291.611 318.034 289.582 318.548 287.427 319.023C284.5 319.669 281.337 320.226 278.445 320.427C275.762 320.612 273.328 320.532 271.575 319.956C270.583 319.629 269.812 319.168 269.401 318.468C269.27 318.224 268.967 318.136 268.723 318.267C268.482 318.398 268.391 318.701 268.522 318.945C269.458 320.813 272.267 321.781 275.885 322.019C279.174 322.234 283.138 321.904 286.823 321.261C289.453 320.8 291.929 320.162 293.929 319.537C297.494 318.347 299.917 316.903 301.544 315.136C303.578 312.928 304.406 310.237 304.645 306.921C304.685 306.517 304.388 306.157 303.983 306.117C303.581 306.077 303.219 306.374 303.181 306.779Z" fill="#193C6D"/>
<path fill-rule="evenodd" clip-rule="evenodd" d="M226.677 247.982C223.563 249.694 218.696 252.337 214.972 256.258C212.721 258.628 210.914 261.472 210.054 264.763C209.502 267.052 209.772 268.746 210.42 270.207C211.371 272.351 213.25 273.911 214.13 276.452C215.346 279.912 216.287 282.3 217.294 283.863C218.13 285.158 219.009 285.919 220.085 286.273C220.344 286.366 220.631 286.232 220.726 285.972C220.82 285.712 220.687 285.426 220.427 285.332C219.581 284.994 218.939 284.316 218.329 283.236C217.45 281.681 216.682 279.333 215.699 275.948C214.928 273.332 213.136 271.646 212.255 269.435C211.806 268.306 211.652 267.02 212.121 265.294C212.867 262.34 214.518 259.826 216.48 257.655C219.966 253.795 224.489 251.026 227.412 249.255C227.764 249.051 227.884 248.601 227.682 248.25C227.478 247.899 227.028 247.778 226.677 247.982Z" fill="#193C6D"/>
<path fill-rule="evenodd" clip-rule="evenodd" d="M241.016 311.577C240.193 314.48 239.397 316.895 238.923 318.94C238.4 321.194 238.261 323.03 238.649 324.504C239.158 326.445 240.527 327.876 243.3 328.827C245.971 329.666 247.863 329.436 249.247 328.702C251.146 327.696 252.114 325.726 252.791 324.15C253.377 322.767 253.955 321.199 254.445 319.771C255.274 317.348 255.858 315.335 255.858 315.335C255.946 315.075 255.807 314.791 255.547 314.702C255.284 314.611 255 314.753 254.911 315.013C254.911 315.013 253.964 317.428 252.756 320.095C252.255 321.199 251.709 322.347 251.165 323.381C250.559 324.547 249.792 326.067 248.289 326.742C247.283 327.195 245.952 327.19 244.106 326.493C241.704 325.675 240.875 324.405 240.84 322.384C240.821 321.234 240.993 319.891 241.268 318.313C241.587 316.479 242.009 314.362 242.448 311.909C242.54 311.515 242.294 311.119 241.898 311.028C241.503 310.936 241.107 311.183 241.016 311.577Z" fill="#193C6D"/>
<path fill-rule="evenodd" clip-rule="evenodd" d="M239.929 326.847C239.177 329.91 238.22 333.931 236.739 338.128C236.237 339.554 235.68 341.001 235.044 342.441C234.128 344.513 233.058 346.571 231.738 348.501C229.015 352.484 225.288 355.955 219.993 358.029C219.734 358.123 219.601 358.413 219.695 358.67C219.79 358.93 220.077 359.064 220.337 358.97C226.009 357.048 230.123 353.588 233.154 349.511C234.623 347.536 235.842 345.416 236.839 343.25C237.524 341.763 238.107 340.254 238.598 338.761C240.011 334.461 240.731 330.31 241.365 327.168C241.453 326.772 241.204 326.378 240.808 326.289C240.412 326.201 240.018 326.45 239.929 326.847Z" fill="#193C6D"/>
<path fill-rule="evenodd" clip-rule="evenodd" d="M245.466 329.223C245.047 330.992 244.547 333.072 243.969 335.337C243.482 337.243 242.938 339.277 242.248 341.341C241.396 343.89 240.36 346.493 238.97 348.961C238.828 349.197 238.905 349.505 239.142 349.647C239.378 349.79 239.686 349.712 239.828 349.476C241.8 346.375 243.266 343.046 244.35 339.827C244.819 338.433 245.217 337.061 245.552 335.742C246.131 333.461 246.526 331.336 246.902 329.545C246.99 329.148 246.741 328.754 246.345 328.666C245.949 328.578 245.555 328.827 245.466 329.223Z" fill="#193C6D"/>
<path fill-rule="evenodd" clip-rule="evenodd" d="M263.231 202.31C287.555 194.598 318.877 181.876 326.395 162.446C333.911 143.016 315.811 122.578 291.873 132.14C286.065 112.897 256.63 110.739 246.483 129.95C234.732 152.195 253.029 179.785 263.231 202.31Z" fill="url(#paint0_linear_466_10044)"/>
<path fill-rule="evenodd" clip-rule="evenodd" d="M235.454 145.48L259.441 153.304L262.99 166.39L266.828 166.929L280.854 143.453L281.699 159.598L283.108 161.387L296.4 165.276L297.494 161.567L285.564 158.013L284.548 136.608L280.793 135.667L265.783 160.511L263.274 151.071L261.875 149.592L236.833 141.288L235.454 145.48Z" fill="white"/>
<path fill-rule="evenodd" clip-rule="evenodd" d="M301.187 159.1C304.996 159.967 305.819 164.883 302.495 167.814C300.19 169.846 296.365 168.801 295.636 165.124C294.904 161.448 297.92 158.355 301.187 159.1Z" fill="white"/>
<defs>
<linearGradient id="paint0_linear_466_10044" x1="271.266" y1="125.998" x2="285.348" y2="198.261" gradientUnits="userSpaceOnUse">
<stop stop-color="#E5373B"/>
<stop offset="1" stop-color="#B8181C"/>
</linearGradient>
</defs>
</svg>
