<svg width="58" height="52" viewBox="0 0 58 52" fill="none" xmlns="http://www.w3.org/2000/svg">
<path fill-rule="evenodd" clip-rule="evenodd" d="M12.0011 0.666017H38.1239C39.6875 0.66599 40.9812 0.665969 42.0359 0.752134C43.1323 0.841714 44.1451 1.0343 45.0979 1.5198C46.5719 2.27081 47.7702 3.46916 48.5212 4.94309C49.0067 5.89594 49.1993 6.90876 49.2889 8.00517C49.375 9.05981 49.375 10.3536 49.375 11.9172V12.3488C50.1963 12.3756 50.9005 12.4456 51.5429 12.6268C54.1661 13.3666 56.2161 15.4166 56.9559 18.0397C57.2518 19.0889 57.2511 20.303 57.2501 21.9224C57.2501 22.0161 57.25 22.1112 57.25 22.2077V40.0817C57.25 41.6452 57.25 42.9389 57.1639 43.9935C57.0743 45.0899 56.8817 46.1028 56.3962 47.0556C55.6452 48.5295 54.4469 49.7279 52.9729 50.4789C52.0201 50.9644 51.0073 51.157 49.9109 51.2466C48.8563 51.3327 47.5625 51.3327 45.999 51.3327H12.001C10.4375 51.3327 9.14375 51.3327 8.08915 51.2466C6.99275 51.157 5.97992 50.9644 5.02708 50.4789C3.55314 49.7279 2.35479 48.5295 1.60378 47.0556C1.11829 46.1028 0.925698 45.0899 0.836118 43.9935C0.749953 42.9389 0.749975 41.6452 0.750001 40.0816V11.9171C0.749975 10.3535 0.749953 9.05978 0.836118 8.00517C0.925698 6.90876 1.11829 5.89594 1.60378 4.94309C2.35479 3.46916 3.55314 2.27081 5.02708 1.5198C5.97992 1.0343 6.99275 0.841714 8.08915 0.752134C9.14376 0.665969 10.4375 0.66599 12.0011 0.666017ZM53.25 35.666V27.9994H49.4167C47.2996 27.9994 45.5833 29.7156 45.5833 31.8327C45.5833 33.9498 47.2996 35.666 49.4167 35.666H53.25ZM53.25 23.9994H49.4167C45.0904 23.9994 41.5833 27.5065 41.5833 31.8327C41.5833 36.1589 45.0904 39.666 49.4167 39.666H53.25V39.9994C53.25 41.6658 53.2484 42.7954 53.1772 43.6678C53.1078 44.5168 52.9825 44.9447 52.8322 45.2396C52.4647 45.9609 51.8783 46.5474 51.157 46.9149C50.862 47.0652 50.4342 47.1905 49.5851 47.2598C48.7127 47.3311 47.5832 47.3327 45.9167 47.3327H12.0833C10.4168 47.3327 9.28726 47.3311 8.41488 47.2598C7.56584 47.1905 7.13801 47.0652 6.84304 46.9149C6.12175 46.5474 5.53533 45.9609 5.16781 45.2396C5.01751 44.9447 4.8922 44.5168 4.82283 43.6678C4.75156 42.7954 4.75 41.6658 4.75 39.9994V16.3327H47.375C49.4094 16.3327 50.014 16.3516 50.4572 16.4766C51.7408 16.8386 52.7441 17.8418 53.1061 19.1255C53.2311 19.5687 53.25 20.1732 53.25 22.2077V23.9994ZM4.75 12.3327H45.375V11.9994C45.375 10.3329 45.3734 9.20328 45.3022 8.33089C45.2328 7.48185 45.1075 7.05403 44.9572 6.75905C44.5897 6.03777 44.0033 5.45134 43.282 5.08383C42.987 4.93353 42.5592 4.80822 41.7101 4.73885C40.8377 4.66757 39.7082 4.66602 38.0417 4.66602H12.0833C10.4168 4.66602 9.28726 4.66757 8.41488 4.73885C7.56584 4.80822 7.13801 4.93353 6.84304 5.08383C6.12175 5.45134 5.53532 6.03777 5.16781 6.75905C5.01751 7.05403 4.8922 7.48185 4.82283 8.33089C4.75156 9.20328 4.75 10.3329 4.75 11.9994V12.3327ZM15.3333 31.8324C15.3335 30.7278 16.229 29.8325 17.3336 29.8327L29.0003 29.8343C30.1048 29.8344 31.0002 30.73 31 31.8346C30.9999 32.9391 30.1043 33.8344 28.9997 33.8343L17.3331 33.8327C16.2285 33.8325 15.3332 32.937 15.3333 31.8324Z" fill="#2469BE"/>
</svg>
