<svg width="56" height="56" viewBox="0 0 56 56" fill="none" xmlns="http://www.w3.org/2000/svg">
<path fill-rule="evenodd" clip-rule="evenodd" d="M31.4192 1.33579C32.2002 0.554738 33.4665 0.554738 34.2476 1.33579L54.6643 21.7525C55.4453 22.5335 55.4453 23.7998 54.6643 24.5809C53.8832 25.3619 52.6169 25.3619 51.8358 24.5809L31.4192 4.16421C30.6381 3.38316 30.6381 2.11683 31.4192 1.33579ZM28.4143 13.0025C29.1953 13.7835 29.1953 15.0498 28.4143 15.8309L14.3285 29.9167H37.8383L40.1692 27.5858C40.9502 26.8047 42.2165 26.8047 42.9976 27.5858C43.7786 28.3668 43.7786 29.6332 42.9976 30.4142L40.0815 33.3303C40.0811 33.3307 40.0807 33.3311 40.0803 33.3315L21.1226 52.2892C16.3145 57.0973 8.51895 57.0973 3.71083 52.2892C-1.0973 47.4811 -1.09729 39.6856 3.71083 34.8775L8.08439 30.5039C8.08535 30.5029 8.08631 30.502 8.08727 30.501L25.5858 13.0025C26.3669 12.2214 27.6332 12.2214 28.4143 13.0025ZM10.3285 33.9167L6.53926 37.7059C3.29323 40.9519 3.29323 46.2148 6.53926 49.4608C9.78529 52.7068 15.0481 52.7068 18.2942 49.4608L33.8383 33.9167H10.3285Z" fill="#2469BE"/>
</svg>
