<svg width="58" height="58" viewBox="0 0 58 58" fill="none" xmlns="http://www.w3.org/2000/svg">
<path fill-rule="evenodd" clip-rule="evenodd" d="M29 4.75C20.4396 4.75 13.5 11.6896 13.5 20.25C13.5 25.3563 16.2935 29.2386 20.0521 33.1533C20.9515 34.0901 21.8846 35.0077 22.8352 35.9427L22.9427 36.0484C23.9226 37.0122 24.9206 37.9958 25.8707 38.9971C26.9773 40.1633 28.0527 41.3875 29 42.6934C29.9473 41.3875 31.0227 40.1633 32.1293 38.9971C33.0794 37.9958 34.0774 37.0122 35.0573 36.0484L35.1648 35.9427C36.1155 35.0077 37.0485 34.0901 37.9479 33.1533C41.7065 29.2386 44.5 25.3563 44.5 20.25C44.5 11.6896 37.5604 4.75 29 4.75ZM9.5 20.25C9.5 9.48045 18.2304 0.75 29 0.75C39.7696 0.75 48.5 9.48045 48.5 20.25C48.5 26.9961 44.731 31.8639 40.8333 35.9236C39.8931 36.9028 38.9233 37.8566 37.9835 38.7808L37.8622 38.9002C36.8767 39.8694 35.9265 40.8066 35.0309 41.7504C33.2314 43.6469 31.7506 45.471 30.7889 47.3944C30.4501 48.072 29.7575 48.5 29 48.5C28.2425 48.5 27.5499 48.072 27.2111 47.3944C26.2494 45.471 24.7686 43.6469 22.9691 41.7504C22.0735 40.8066 21.1233 39.8694 20.1378 38.9002L20.0163 38.7806C19.0766 37.8565 18.1068 36.9028 17.1667 35.9236C13.269 31.8639 9.5 26.9961 9.5 20.25ZM24.0833 20.25C24.0833 17.5346 26.2846 15.3333 29 15.3333C31.7154 15.3333 33.9167 17.5346 33.9167 20.25C33.9167 22.9654 31.7154 25.1667 29 25.1667C26.2846 25.1667 24.0833 22.9654 24.0833 20.25ZM12.4938 37.0375C12.8873 38.0696 12.3696 39.2253 11.3375 39.6188C9.04328 40.4935 7.32156 41.4918 6.20837 42.501C5.09561 43.5098 4.75 44.3716 4.75 45.0408C4.75 45.7017 5.08652 46.5493 6.16658 47.5425C7.24835 48.5372 8.9241 49.5249 11.1634 50.3958C15.6293 52.1327 21.9348 53.25 29 53.25C36.0652 53.25 42.3707 52.1327 46.8366 50.3958C49.0759 49.5249 50.7516 48.5372 51.8334 47.5425C52.9135 46.5493 53.25 45.7017 53.25 45.0408C53.25 44.3716 52.9044 43.5098 51.7916 42.501C50.6784 41.4918 48.9567 40.4935 46.6625 39.6188C45.6304 39.2253 45.1127 38.0696 45.5062 37.0375C45.8997 36.0054 47.0554 35.4877 48.0875 35.8812C50.6531 36.8594 52.8689 38.0785 54.4782 39.5375C56.088 40.9969 57.25 42.8541 57.25 45.0408C57.25 47.1991 56.1175 49.0372 54.5409 50.4869C52.966 51.935 50.7975 53.1472 48.2865 54.1238C43.2518 56.0819 36.4323 57.25 29 57.25C21.5677 57.25 14.7482 56.0819 9.7135 54.1238C7.20248 53.1472 5.034 51.935 3.45913 50.4869C1.88255 49.0372 0.75 47.1991 0.75 45.0408C0.75 42.8541 1.91198 40.9969 3.52176 39.5375C5.13112 38.0785 7.3469 36.8594 9.9125 35.8812C10.9446 35.4877 12.1003 36.0054 12.4938 37.0375Z" fill="#2469BE"/>
</svg>
