<svg width="58" height="58" viewBox="0 0 58 58" fill="none" xmlns="http://www.w3.org/2000/svg">
<path fill-rule="evenodd" clip-rule="evenodd" d="M26.1275 8.53913C21.2706 3.68227 13.3961 3.68227 8.53925 8.53913C3.68239 13.396 3.68239 21.2705 8.53925 26.1274L18.7917 36.3798L36.3799 18.7916L26.1275 8.53913ZM28.9559 5.7107C22.537 -0.708254 12.1298 -0.708255 5.71082 5.7107C-0.708133 12.1297 -0.708132 22.5368 5.71082 28.9558L29.0442 52.2891C35.4631 58.7081 45.8703 58.7081 52.2892 52.2891C58.7082 45.8702 58.7082 35.463 52.2892 29.044L28.9559 5.7107ZM39.2084 21.62L21.6201 39.2082L31.8726 49.4607C36.7294 54.3176 44.604 54.3176 49.4608 49.4607C54.3177 44.6038 54.3177 36.7293 49.4608 31.8725L39.2084 21.62Z" fill="#2469BE"/>
</svg>
