<svg width="58" height="58" viewBox="0 0 58 58" fill="none" xmlns="http://www.w3.org/2000/svg">
<path fill-rule="evenodd" clip-rule="evenodd" d="M15.3333 11.5C15.3333 5.56294 20.1463 0.75 26.0833 0.75H31.9167C37.8537 0.75 42.6667 5.56294 42.6667 11.5C42.6667 11.8306 42.5865 12.1425 42.4444 12.4172C44.3154 12.4199 45.8662 12.4368 47.1598 12.5425C48.7426 12.6718 50.1156 12.9439 51.3804 13.5883C53.4031 14.619 55.0477 16.2635 56.0783 18.2863C56.7228 19.5511 56.9948 20.9241 57.1241 22.5068C57.25 24.0476 57.25 25.9533 57.25 28.3302V41.3365C57.25 43.7134 57.25 45.6191 57.1241 47.1598C56.9948 48.7426 56.7228 50.1156 56.0783 51.3804C55.0477 53.4031 53.4031 55.0477 51.3804 56.0783C50.1156 56.7228 48.7426 56.9948 47.1598 57.1241C45.6191 57.25 43.7134 57.25 41.3365 57.25H16.6635C14.2866 57.25 12.3809 57.25 10.8402 57.1241C9.25739 56.9948 7.8844 56.7228 6.6196 56.0783C4.59686 55.0477 2.95232 53.4031 1.92168 51.3804C1.27723 50.1156 1.00517 48.7426 0.875855 47.1598C0.749968 45.6191 0.749982 43.7134 0.75 41.3364V28.3302C0.749982 25.9533 0.749968 24.0476 0.875855 22.5068C1.00517 20.9241 1.27723 19.5511 1.92168 18.2863C2.95232 16.2635 4.59686 14.619 6.6196 13.5883C7.8844 12.9439 9.25739 12.6718 10.8402 12.5425C12.1338 12.4368 13.6846 12.4199 15.5556 12.4172C15.4135 12.1425 15.3333 11.8306 15.3333 11.5ZM19.1114 12.4167H38.8886C38.7468 12.1421 38.6667 11.8304 38.6667 11.5C38.6667 7.77208 35.6446 4.75 31.9167 4.75H26.0833C22.3554 4.75 19.3333 7.77208 19.3333 11.5C19.3333 11.8304 19.2532 12.1421 19.1114 12.4167ZM11.1659 16.5292C9.83048 16.6383 9.04249 16.8431 8.43556 17.1524C7.16547 17.7995 6.13285 18.8321 5.48571 20.1022C5.17646 20.7092 4.97168 21.4972 4.86257 22.8325C4.75156 24.1913 4.75 25.9334 4.75 28.4167V41.25C4.75 43.7332 4.75156 45.4754 4.86257 46.8341C4.97168 48.1695 5.17646 48.9575 5.48571 49.5644C6.13285 50.8345 7.16547 51.8671 8.43557 52.5143C9.04249 52.8235 9.83048 53.0283 11.1659 53.1374C12.5246 53.2484 14.2668 53.25 16.75 53.25H41.25C43.7332 53.25 45.4754 53.2484 46.8341 53.1374C48.1695 53.0283 48.9575 52.8235 49.5644 52.5143C50.8345 51.8671 51.8671 50.8345 52.5143 49.5644C52.8235 48.9575 53.0283 48.1695 53.1374 46.8341C53.2484 45.4754 53.25 43.7332 53.25 41.25V28.4167C53.25 25.9334 53.2484 24.1913 53.1374 22.8325C53.0283 21.4972 52.8235 20.7092 52.5143 20.1022C51.8671 18.8321 50.8345 17.7995 49.5644 17.1524C48.9575 16.8431 48.1695 16.6383 46.8341 16.5292C45.4754 16.4182 43.7332 16.4167 41.25 16.4167H16.75C14.2668 16.4167 12.5246 16.4182 11.1659 16.5292ZM29 27C30.1046 27 31 27.8954 31 29V32.8333H34.8333C35.9379 32.8333 36.8333 33.7288 36.8333 34.8333C36.8333 35.9379 35.9379 36.8333 34.8333 36.8333H31V40.6667C31 41.7712 30.1046 42.6667 29 42.6667C27.8954 42.6667 27 41.7712 27 40.6667V36.8333H23.1667C22.0621 36.8333 21.1667 35.9379 21.1667 34.8333C21.1667 33.7288 22.0621 32.8333 23.1667 32.8333H27V29C27 27.8954 27.8954 27 29 27Z" fill="#2469BE"/>
</svg>
