<svg width="52" height="58" viewBox="0 0 52 58" fill="none" xmlns="http://www.w3.org/2000/svg">
<path fill-rule="evenodd" clip-rule="evenodd" d="M26 0.75C27.1045 0.75 28 1.64543 28 2.75V6.58333H40.5833C46.5204 6.58333 51.3333 11.3963 51.3333 17.3333C51.3333 23.2704 46.5204 28.0833 40.5833 28.0833H34.75C33.6454 28.0833 32.75 27.1879 32.75 26.0833C32.75 24.9788 33.6454 24.0833 34.75 24.0833H40.5833C44.3112 24.0833 47.3333 21.0613 47.3333 17.3333C47.3333 13.6054 44.3112 10.5833 40.5833 10.5833H28V35.75H34.75C39.0762 35.75 42.5833 39.2571 42.5833 43.5833C42.5833 47.9096 39.0762 51.4167 34.75 51.4167C33.6454 51.4167 32.75 50.5212 32.75 49.4167C32.75 48.3121 33.6454 47.4167 34.75 47.4167C36.8671 47.4167 38.5833 45.7004 38.5833 43.5833C38.5833 41.4662 36.8671 39.75 34.75 39.75H28V55.25C28 56.3546 27.1045 57.25 26 57.25C24.8954 57.25 24 56.3546 24 55.25V51.4167H20.1666C19.0621 51.4167 18.1666 50.5212 18.1666 49.4167C18.1666 48.3121 19.0621 47.4167 20.1666 47.4167H24V39.75H20.1666C15.8404 39.75 12.3333 36.2429 12.3333 31.9167C12.3333 29.0147 13.9123 26.4839 16.2485 25.1325C17.2046 24.5794 18.4281 24.9062 18.9812 25.8623C19.5343 26.8184 19.2075 28.0419 18.2514 28.5949C17.1004 29.2608 16.3333 30.5003 16.3333 31.9167C16.3333 34.0338 18.0495 35.75 20.1666 35.75H24V10.5833H8.49996C6.38287 10.5833 4.66663 12.2996 4.66663 14.4167C4.66663 16.5338 6.38287 18.25 8.49996 18.25C10.6171 18.25 12.3333 16.5338 12.3333 14.4167V12.9583C12.3333 11.8538 13.2287 10.9583 14.3333 10.9583C15.4379 10.9583 16.3333 11.8538 16.3333 12.9583V14.4167C16.3333 18.7429 12.8262 22.25 8.49996 22.25C4.17373 22.25 0.666626 18.7429 0.666626 14.4167C0.666626 10.0904 4.17373 6.58333 8.49996 6.58333H24V2.75C24 1.64543 24.8954 0.75 26 0.75Z" fill="#2469BE"/>
</svg>
