<svg width="56" height="52" viewBox="0 0 56 52" fill="none" xmlns="http://www.w3.org/2000/svg">
<path fill-rule="evenodd" clip-rule="evenodd" d="M20.0487 0.666138C20.1424 0.666202 20.2373 0.666266 20.3335 0.666266H35.6664C35.7626 0.666266 35.8575 0.666202 35.9513 0.666138C37.6599 0.664982 38.961 0.664102 40.159 1.05784C41.2132 1.40427 42.1817 1.9707 43.0004 2.7196C43.9309 3.57078 44.568 4.70514 45.4047 6.19493C45.4506 6.27665 45.4971 6.35944 45.5442 6.44331L53.4192 20.4433C53.4646 20.5239 53.5094 20.6035 53.5536 20.682C54.3622 22.1173 54.9781 23.2105 55.2265 24.4053C55.4451 25.4569 55.4451 26.5423 55.2265 27.5939C54.9781 28.7887 54.3622 29.8819 53.5536 31.3172C53.5094 31.3957 53.4646 31.4753 53.4192 31.5559L45.5443 45.5559C45.4971 45.6397 45.4506 45.7225 45.4047 45.8042C44.568 47.294 43.9309 48.4284 43.0004 49.2796C42.1817 50.0285 41.2132 50.5949 40.159 50.9414C38.961 51.3351 37.66 51.3342 35.9513 51.3331C35.8576 51.333 35.7626 51.3329 35.6664 51.3329H20.3335C20.2373 51.3329 20.1424 51.333 20.0486 51.3331C18.34 51.3342 17.039 51.3351 15.8409 50.9414C14.7868 50.5949 13.8183 50.0285 12.9995 49.2796C12.069 48.4284 11.4319 47.294 10.5952 45.8042C10.5493 45.7225 10.5029 45.6398 10.4557 45.5559L2.58069 31.5559C2.53534 31.4753 2.49053 31.3957 2.4463 31.3172C1.63769 29.8819 1.02182 28.7887 0.773449 27.5939C0.554846 26.5423 0.554846 25.4569 0.773449 24.4053C1.02182 23.2105 1.6377 22.1173 2.44631 20.682C2.49053 20.6035 2.53534 20.5239 2.58069 20.4433L10.4557 6.44331C10.5029 6.35945 10.5493 6.27667 10.5952 6.19496C11.4319 4.70515 12.069 3.57078 12.9995 2.7196C13.8183 1.97069 14.7868 1.40427 15.8409 1.05784C17.039 0.664102 18.34 0.664983 20.0487 0.666138ZM20.3335 4.66627C18.2095 4.66627 17.6005 4.69002 17.0898 4.85789C16.5739 5.02742 16.1 5.3046 15.6993 5.67109C15.3026 6.03397 14.9833 6.55308 13.942 8.40435L6.06699 22.4044C5.06378 24.1878 4.79567 24.7098 4.68973 25.2194C4.58275 25.734 4.58275 26.2652 4.68973 26.7798C4.79567 27.2894 5.06378 27.8114 6.06699 29.5949L13.942 43.5948C14.9833 45.4461 15.3026 45.9652 15.6993 46.3281C16.1 46.6946 16.5739 46.9718 17.0898 47.1413C17.6005 47.3092 18.2095 47.3329 20.3335 47.3329H35.6664C37.7904 47.3329 38.3994 47.3092 38.9102 47.1413C39.426 46.9718 39.9 46.6946 40.3006 46.3281C40.6973 45.9652 41.0166 45.4461 42.0579 43.5948L49.9329 29.5948C50.9362 27.8114 51.2043 27.2894 51.3102 26.7798C51.4172 26.2652 51.4172 25.734 51.3102 25.2194C51.2043 24.7098 50.9362 24.1878 49.9329 22.4043L42.0579 8.40435C41.0166 6.55308 40.6973 6.03397 40.3006 5.67109C39.9 5.3046 39.426 5.02742 38.9102 4.85789C38.3994 4.69002 37.7904 4.66627 35.6664 4.66627H20.3335ZM28 12.3329C29.1045 12.3329 30 13.2284 30 14.3329V28.9163C30 30.0208 29.1045 30.9163 28 30.9163C26.8954 30.9163 26 30.0208 26 28.9163V14.3329C26 13.2284 26.8954 12.3329 28 12.3329ZM26 37.6663C26 36.5617 26.8954 35.6663 28 35.6663H28.0291C29.1337 35.6663 30.0291 36.5617 30.0291 37.6663C30.0291 38.7708 29.1337 39.6663 28.0291 39.6663H28C26.8954 39.6663 26 38.7708 26 37.6663Z" fill="#2469BE"/>
</svg>
