<svg width="58" height="58" viewBox="0 0 58 58" fill="none" xmlns="http://www.w3.org/2000/svg">
<path fill-rule="evenodd" clip-rule="evenodd" d="M14.4167 0.75C15.5212 0.75 16.4167 1.64543 16.4167 2.75V6.58333H41.5833V2.75C41.5833 1.64543 42.4788 0.75 43.5833 0.75C44.6879 0.75 45.5833 1.64543 45.5833 2.75V6.58333L45.9989 6.58333C47.5625 6.58331 48.8562 6.58328 49.9109 6.66945C51.0073 6.75903 52.0201 6.95162 52.9729 7.43712C54.4469 8.18813 55.6452 9.38647 56.3962 10.8604C56.8817 11.8133 57.0743 12.8261 57.1639 13.9225C57.25 14.9771 57.25 16.2708 57.25 17.8344V45.999C57.25 47.5625 57.25 48.8563 57.1639 49.9109C57.0743 51.0073 56.8817 52.0201 56.3962 52.9729C55.6452 54.4469 54.4469 55.6452 52.9729 56.3962C52.0201 56.8817 51.0073 57.0743 49.9109 57.1639C48.8563 57.25 47.5625 57.25 45.999 57.25H12.001C10.4375 57.25 9.14375 57.25 8.08915 57.1639C6.99275 57.0743 5.97992 56.8817 5.02708 56.3962C3.55314 55.6452 2.35479 54.4469 1.60378 52.9729C1.11829 52.0201 0.925698 51.0073 0.836118 49.9109C0.749953 48.8562 0.749975 47.5625 0.750001 45.9989V17.8344C0.749975 16.2709 0.749953 14.9771 0.836118 13.9225C0.925698 12.8261 1.11829 11.8133 1.60378 10.8604C2.35479 9.38647 3.55314 8.18812 5.02708 7.43712C5.97992 6.95162 6.99275 6.75903 8.08915 6.66945C9.14376 6.58328 10.4375 6.58331 12.0011 6.58333L12.4167 6.58333V2.75C12.4167 1.64543 13.3121 0.75 14.4167 0.75ZM12.0833 10.5833C10.4168 10.5833 9.28726 10.5849 8.41488 10.6562C7.56584 10.7255 7.13801 10.8508 6.84304 11.0011C6.12175 11.3687 5.53532 11.9551 5.16781 12.6764C5.01751 12.9713 4.8922 13.3992 4.82283 14.2482C4.75156 15.1206 4.75 16.2502 4.75 17.9167V18.25H53.25V17.9167C53.25 16.2502 53.2484 15.1206 53.1772 14.2482C53.1078 13.3992 52.9825 12.9713 52.8322 12.6764C52.4647 11.9551 51.8783 11.3687 51.157 11.0011C50.862 10.8508 50.4342 10.7255 49.5851 10.6562C48.7127 10.5849 47.5832 10.5833 45.9167 10.5833H12.0833ZM53.25 22.25H4.75V45.9167C4.75 47.5832 4.75156 48.7127 4.82283 49.5851C4.8922 50.4342 5.01751 50.862 5.16781 51.157C5.53532 51.8783 6.12175 52.4647 6.84304 52.8322C7.13801 52.9825 7.56584 53.1078 8.41488 53.1772C9.28726 53.2484 10.4168 53.25 12.0833 53.25H45.9167C47.5832 53.25 48.7127 53.2484 49.5851 53.1772C50.4342 53.1078 50.862 52.9825 51.157 52.8322C51.8783 52.4647 52.4647 51.8783 52.8322 51.157C52.9825 50.862 53.1078 50.4342 53.1772 49.5851C53.2484 48.7127 53.25 47.5832 53.25 45.9167V22.25ZM9.5 29C9.5 27.8954 10.3954 27 11.5 27H23.1667C24.2712 27 25.1667 27.8954 25.1667 29V40.6667C25.1667 41.7712 24.2712 42.6667 23.1667 42.6667H11.5C10.3954 42.6667 9.5 41.7712 9.5 40.6667V29ZM13.5 31V38.6667H21.1667V31H13.5Z" fill="#2469BE"/>
</svg>
