<svg width="50" height="58" viewBox="0 0 50 58" fill="none" xmlns="http://www.w3.org/2000/svg">
<path fill-rule="evenodd" clip-rule="evenodd" d="M16.497 0.75L25.9167 0.750001C26.4471 0.750001 26.9558 0.960715 27.3309 1.33579L44.8309 18.8358C45.206 19.2109 45.4167 19.7196 45.4167 20.25V29C45.4167 30.1046 44.5213 31 43.4167 31C42.3121 31 41.4167 30.1046 41.4167 29V22.25H35.1677C33.6042 22.25 32.3105 22.25 31.2559 22.1639C30.1595 22.0743 29.1466 21.8817 28.1938 21.3962C26.7198 20.6452 25.5215 19.4469 24.7705 17.9729C24.285 17.0201 24.0924 16.0073 24.0028 14.9109C23.9167 13.8562 23.9167 12.5624 23.9167 10.9989V4.75H16.5834C14.1001 4.75 12.358 4.75156 10.9993 4.86257C9.66386 4.97168 8.87587 5.17646 8.26894 5.48571C6.99885 6.13285 5.96623 7.16547 5.31908 8.43556C5.00984 9.04249 4.80505 9.83048 4.69594 11.1659C4.58493 12.5246 4.58337 14.2668 4.58337 16.75V41.25C4.58337 43.7332 4.58493 45.4754 4.69594 46.8341C4.80505 48.1695 5.00984 48.9575 5.31908 49.5644C5.96622 50.8345 6.99884 51.8671 8.26894 52.5143C8.87587 52.8235 9.66386 53.0283 10.9993 53.1374C12.358 53.2484 14.1001 53.25 16.5834 53.25H23C24.1046 53.25 25 54.1454 25 55.25C25 56.3546 24.1046 57.25 23 57.25H16.4969C14.12 57.25 12.2143 57.25 10.6735 57.1241C9.09076 56.9948 7.71778 56.7228 6.45298 56.0783C4.43024 55.0477 2.78569 53.4031 1.75506 51.3804C1.11061 50.1156 0.838546 48.7426 0.709229 47.1598C0.583342 45.6191 0.583356 43.7134 0.583374 41.3364V16.6636C0.583356 14.2866 0.583342 12.3809 0.709229 10.8402C0.838546 9.25739 1.11061 7.8844 1.75505 6.6196C2.78569 4.59686 4.43023 2.95232 6.45298 1.92168C7.71778 1.27723 9.09076 1.00517 10.6735 0.875855C12.2143 0.749968 14.12 0.749982 16.497 0.75ZM27.9167 7.57843L38.5883 18.25H35.25C33.5836 18.25 32.454 18.2484 31.5816 18.1772C30.7325 18.1078 30.3047 17.9825 30.0097 17.8322C29.2885 17.4647 28.702 16.8783 28.3345 16.157C28.1842 15.862 28.0589 15.4342 27.9895 14.5851C27.9183 13.7127 27.9167 12.5832 27.9167 10.9167V7.57843ZM12.25 20.25C12.25 19.1454 13.1455 18.25 14.25 18.25H17.1667C18.2713 18.25 19.1667 19.1454 19.1667 20.25C19.1667 21.3546 18.2713 22.25 17.1667 22.25H14.25C13.1455 22.25 12.25 21.3546 12.25 20.25ZM12.25 31.9167C12.25 30.8121 13.1455 29.9167 14.25 29.9167H31.75C32.8546 29.9167 33.75 30.8121 33.75 31.9167C33.75 33.0212 32.8546 33.9167 31.75 33.9167H14.25C13.1455 33.9167 12.25 33.0212 12.25 31.9167ZM40.5 38.6667C41.6046 38.6667 42.5 39.5621 42.5 40.6667V45.9583H47.7917C48.8963 45.9583 49.7917 46.8538 49.7917 47.9583C49.7917 49.0629 48.8963 49.9583 47.7917 49.9583H42.5V55.25C42.5 56.3546 41.6046 57.25 40.5 57.25C39.3955 57.25 38.5 56.3546 38.5 55.25V49.9583H33.2084C32.1038 49.9583 31.2084 49.0629 31.2084 47.9583C31.2084 46.8538 32.1038 45.9583 33.2084 45.9583H38.5V40.6667C38.5 39.5621 39.3955 38.6667 40.5 38.6667ZM12.25 43.5833C12.25 42.4788 13.1455 41.5833 14.25 41.5833H23C24.1046 41.5833 25 42.4788 25 43.5833C25 44.6879 24.1046 45.5833 23 45.5833H14.25C13.1455 45.5833 12.25 44.6879 12.25 43.5833Z" fill="#2469BE"/>
</svg>
