<svg width="58" height="58" viewBox="0 0 58 58" fill="none" xmlns="http://www.w3.org/2000/svg">
<path fill-rule="evenodd" clip-rule="evenodd" d="M24.0833 2.75C24.0833 1.64543 24.9788 0.75 26.0833 0.75H31.9167C33.0212 0.75 33.9167 1.64543 33.9167 2.75C33.9167 3.85457 33.0212 4.75 31.9167 4.75H31V9.60131C34.885 9.99711 38.4326 11.5334 41.3027 13.87L45.1301 10.0418L43.6275 8.53921C42.8464 7.75816 42.8464 6.49184 43.6275 5.71079C44.4085 4.92974 45.6748 4.92974 46.4559 5.71079L52.2892 11.5441C53.0703 12.3252 53.0703 13.5915 52.2892 14.3725C51.5082 15.1536 50.2418 15.1536 49.4608 14.3725L47.9585 12.8702L44.131 16.6985C46.467 19.5684 48.0029 23.1155 48.3987 27H53.25V26.0833C53.25 24.9788 54.1454 24.0833 55.25 24.0833C56.3546 24.0833 57.25 24.9788 57.25 26.0833V31.9167C57.25 33.0212 56.3546 33.9167 55.25 33.9167C54.1454 33.9167 53.25 33.0212 53.25 31.9167V31H48.3987C48.0036 34.8778 46.4723 38.4194 44.1431 41.2867L47.9194 45.091C47.9324 45.1041 47.9451 45.1173 47.9577 45.1306L49.4608 43.6275C50.2418 42.8464 51.5082 42.8464 52.2892 43.6275C53.0703 44.4085 53.0703 45.6748 52.2892 46.4559L46.4559 52.2892C45.6748 53.0703 44.4085 53.0703 43.6275 52.2892C42.8464 51.5082 42.8464 50.2418 43.6275 49.4608L45.1306 47.9577C45.1137 47.9418 45.097 47.9256 45.0806 47.909L41.3175 44.118C38.4448 46.4613 34.8917 48.0022 31 48.3987V53.25H31.9167C33.0212 53.25 33.9167 54.1454 33.9167 55.25C33.9167 56.3546 33.0212 57.25 31.9167 57.25H26.0833C24.9788 57.25 24.0833 56.3546 24.0833 55.25C24.0833 54.1454 24.9788 53.25 26.0833 53.25H27V48.3987C23.1132 48.0027 19.564 46.4652 16.6932 44.1267L12.869 47.9572L14.3725 49.4608C15.1536 50.2418 15.1536 51.5082 14.3725 52.2892C13.5915 53.0703 12.3252 53.0703 11.5441 52.2892L5.71079 46.4559C4.92974 45.6748 4.92974 44.4085 5.71079 43.6275C6.49184 42.8464 7.75816 42.8464 8.53921 43.6275L10.0405 45.1288L13.8657 41.2974C11.5315 38.4283 9.99687 34.8826 9.60131 31H4.75V31.9167C4.75 33.0212 3.85457 33.9167 2.75 33.9167C1.64543 33.9167 0.75 33.0212 0.75 31.9167V26.0833C0.75 24.9788 1.64543 24.0833 2.75 24.0833C3.85457 24.0833 4.75 24.9788 4.75 26.0833V27H9.60131C9.99708 23.1153 11.5332 19.5679 13.8695 16.6979L10.0417 12.8701L8.53921 14.3725C7.75816 15.1536 6.49184 15.1536 5.71079 14.3725C4.92974 13.5915 4.92974 12.3252 5.71079 11.5441L11.5441 5.71079C12.3252 4.92974 13.5915 4.92974 14.3725 5.71079C15.1536 6.49184 15.1536 7.75816 14.3725 8.53921L12.8701 10.0417L16.6979 13.8695C19.5679 11.5332 23.1153 9.99708 27 9.60131V4.75H26.0833C24.9788 4.75 24.0833 3.85457 24.0833 2.75ZM39.9758 39.9444C42.7716 37.1407 44.5 33.2722 44.5 29C44.5 24.7188 42.7643 20.8431 39.9583 18.038C37.1535 15.2341 33.2793 13.5 29 13.5C20.4396 13.5 13.5 20.4396 13.5 29C13.5 37.5604 20.4396 44.5 29 44.5C33.2882 44.5 37.1697 42.7586 39.9758 39.9444ZM19.7083 27.5417C19.7083 24.8263 21.9096 22.625 24.625 22.625C27.3404 22.625 29.5417 24.8263 29.5417 27.5417C29.5417 30.2571 27.3404 32.4583 24.625 32.4583C21.9096 32.4583 19.7083 30.2571 19.7083 27.5417ZM32.8333 34.8333C32.8333 33.7288 33.7288 32.8333 34.8333 32.8333H34.8625C35.9671 32.8333 36.8625 33.7288 36.8625 34.8333C36.8625 35.9379 35.9671 36.8333 34.8625 36.8333H34.8333C33.7288 36.8333 32.8333 35.9379 32.8333 34.8333Z" fill="#2469BE"/>
</svg>
