<svg xmlns="http://www.w3.org/2000/svg" width="80" height="80" viewBox="0 0 80 80">
  <g id="_002" data-name="002" transform="translate(-24 -24)">
    <circle id="Эллипс_7" data-name="Эллипс 7" cx="40" cy="40" r="40" transform="translate(24 24)" fill="#fff"/>
    <path id="Icon-docs" d="M29.955,11.649V31.607A1.664,1.664,0,0,1,28.3,33.283H1.652A1.653,1.653,0,0,1,0,31.632V1.651A1.668,1.668,0,0,1,1.661,0H18.306V9.985a1.664,1.664,0,0,0,1.664,1.664Zm0-3.328H21.634V0Zm-21.634,0v3.328h4.992V8.321Zm0,6.657v3.328H21.634V14.977Zm0,6.657v3.328H21.634V21.634Z" transform="translate(49.023 46.359)" fill="#193c6d"/>
  </g>
</svg>
