<svg xmlns="http://www.w3.org/2000/svg" width="80" height="80" viewBox="0 0 80 80">
  <g id="_003" data-name="003" transform="translate(-24 -24)">
    <circle id="Эллипс_7" data-name="Эллипс 7" cx="40" cy="40" r="40" transform="translate(24 24)" fill="#fff"/>
    <path id="Icon_metro-question" data-name="Icon metro-question" d="M18.321,26.678h4.5v4.5h-4.5Zm9-15.75a2.25,2.25,0,0,1,2.25,2.25v6.75l-6.75,4.5h-4.5v-2.25l6.75-4.5v-2.25H13.821v-4.5h13.5ZM20.571,5.3A14.625,14.625,0,1,0,30.912,9.587,14.529,14.529,0,0,0,20.571,5.3Zm0-3.375a18,18,0,1,1-18,18,18,18,0,0,1,18-18Z" transform="translate(43.429 44.072)" fill="#193c6d"/>
  </g>
</svg>
