<svg width="40" height="40" fill="none" xmlns="http://www.w3.org/2000/svg"><path d="M20 0C8.954 0 0 8.955 0 20s8.954 20 20 20c11.045 0 20-8.955 20-20S31.045 0 20 0zm11.199 24.506a2.784 2.784 0 01-2.784 2.784s-2.377.346-8.552.346c-6.21 0-8.393-.346-8.393-.346a2.784 2.784 0 01-2.784-2.784V15.32a2.784 2.784 0 012.784-2.783s2.183-.346 8.386-.346c6.182 0 8.56.346 8.56.346a2.784 2.784 0 012.783 2.783v9.186z" fill="#b8181c"/><path d="M16.618 24.462l7.632-4.408-7.632-4.409v8.817z" fill="#b8181c"/></svg>