<svg width="25" height="27" viewBox="0 0 25 27" fill="none" xmlns="http://www.w3.org/2000/svg">
<path fill-rule="evenodd" clip-rule="evenodd" d="M16 0C16.8487 0 17.6626 0.337142 18.2627 0.937258C18.8628 1.53737 19.2 2.35131 19.2 3.2V16H17.6V3.2C17.6 2.77565 17.4314 2.36869 17.1314 2.06863C16.8313 1.76857 16.4243 1.6 16 1.6H9.59999V7.2C9.59999 7.83652 9.34713 8.44697 8.89704 8.89706C8.44696 9.34714 7.83651 9.6 7.19999 9.6H1.6V22.4C1.6 22.8243 1.76857 23.2313 2.06863 23.5314C2.36869 23.8314 2.77565 24 3.2 24H11.4998V25.6H3.2C2.35131 25.6 1.53738 25.2629 0.93726 24.6627C0.337143 24.0626 0 23.2487 0 22.4V8.6624C0.000560167 8.02609 0.253783 7.41606 0.703999 6.9664L6.96639 0.7024C7.4163 0.252771 8.02631 0.00013581 8.66239 0H16ZM1.9312 8H7.19999C7.41216 8 7.61564 7.91571 7.76567 7.76568C7.9157 7.61566 7.99999 7.41217 7.99999 7.2V1.9312L1.9312 8ZM12.4998 12.8C12.712 12.8 12.9154 12.8843 13.0655 13.0343C13.2155 13.1843 13.2998 13.3878 13.2998 13.6C13.2998 13.8122 13.2155 14.0157 13.0655 14.1657C12.9154 14.3157 12.712 14.4 12.4998 14.4H4C3.78782 14.4 3.58434 14.3157 3.43431 14.1657C3.28428 14.0157 3.2 13.8122 3.2 13.6C3.2 13.3878 3.28428 13.1843 3.43431 13.0343C3.58434 12.8843 3.78782 12.8 4 12.8H12.4998ZM15.4343 16C15.6465 16 15.85 16.0843 16 16.2343C16.15 16.3843 16.2343 16.5878 16.2343 16.8C16.2343 17.0122 16.15 17.2157 16 17.3657C15.85 17.5157 15.6465 17.6 15.4343 17.6H6.29979C6.08762 17.6 5.88414 17.5157 5.73411 17.3657C5.58408 17.2157 5.49979 17.0122 5.49979 16.8C5.49979 16.5878 5.58408 16.3843 5.73411 16.2343C5.88414 16.0843 6.08762 16 6.29979 16H15.4343ZM12.4998 19.2C12.712 19.2 12.9154 19.2843 13.0655 19.4343C13.2155 19.5843 13.2998 19.7878 13.2998 20C13.2998 20.2122 13.2155 20.4157 13.0655 20.5657C12.9154 20.7157 12.712 20.8 12.4998 20.8H4C3.78782 20.8 3.58434 20.7157 3.43431 20.5657C3.28428 20.4157 3.2 20.2122 3.2 20C3.2 19.7878 3.28428 19.5843 3.43431 19.4343C3.58434 19.2843 3.78782 19.2 4 19.2H12.4998ZM19.844 17.1852L22.4716 19.8141L15.9564 26.3296L13.2813 26.6249C13.2148 26.6323 13.1631 26.6406 13.1232 26.6471C13.0558 26.658 13.0222 26.6634 13.0081 26.6493C12.9942 26.6353 12.9996 26.6018 13.0106 26.5351C13.0172 26.4949 13.0258 26.4426 13.0333 26.3752L13.3309 23.6981L19.844 17.1852ZM24.3273 16.3668L23.2914 15.3296C22.8519 14.8901 22.1392 14.8901 21.6998 15.3296L20.3744 16.655L23.002 19.2839L24.3273 17.9585C24.7668 17.5188 24.7668 16.8063 24.3273 16.3668ZM12.8998 3.75C12.7617 3.75 12.6498 3.86193 12.6498 4V5.15H11.4998C11.3617 5.15 11.2498 5.26193 11.2498 5.4V6.6C11.2498 6.73807 11.3617 6.85 11.4998 6.85H12.6498V8C12.6498 8.13807 12.7617 8.25 12.8998 8.25H14.0998C14.2379 8.25 14.3498 8.13807 14.3498 8V6.85H15.4998C15.6379 6.85 15.7498 6.73807 15.7498 6.6V5.4C15.7498 5.26193 15.6379 5.15 15.4998 5.15H14.3498V4C14.3498 3.86193 14.2379 3.75 14.0998 3.75H12.8998ZM13.1498 5.4V4.25H13.8498V5.4C13.8498 5.53807 13.9617 5.65 14.0998 5.65H15.2498V6.35H14.0998C13.9617 6.35 13.8498 6.46193 13.8498 6.6V7.75H13.1498V6.6C13.1498 6.46193 13.0379 6.35 12.8998 6.35H11.7498V5.65H12.8998C13.0379 5.65 13.1498 5.53807 13.1498 5.4Z" fill="white"/>
</svg>
