<svg width="40" height="40" fill="none" xmlns="http://www.w3.org/2000/svg"><circle cx="20" cy="20" r="20" fill="#b8181c"/><path d="M26.936 21.032c-.325-.661-1.24-1.218-2.458-.279-1.658 1.322-4.302 1.322-4.302 1.322s-2.643 0-4.301-1.322c-1.218-.939-2.134-.382-2.458.279-.58 1.16.07 1.727 1.542 2.666 1.264.812 2.991 1.113 4.104 1.23l-.927.927a521.158 521.158 0 00-3.467 3.455c-.522.533-.522 1.38 0 1.878l.162.186a1.35 1.35 0 001.902 0l3.443-3.455c1.334 1.31 2.597 2.574 3.479 3.455a1.35 1.35 0 001.9 0l.152-.186c.533-.498.533-1.345 0-1.878l-3.455-3.455-.916-.94c1.101-.104 2.805-.417 4.058-1.217 1.472-.939 2.121-1.507 1.542-2.666zm-6.76-9.473c1.6 0 2.899 1.299 2.899 2.887a2.89 2.89 0 01-2.899 2.887 2.89 2.89 0 01-2.898-2.887 2.897 2.897 0 012.898-2.887zm0 8.754a5.859 5.859 0 005.867-5.867 5.866 5.866 0 10-11.733 0 5.859 5.859 0 005.866 5.867z" fill="#fff"/></svg>