<?xml version="1.0" encoding="utf-8"?>
<!-- Generator: Adobe Illustrator 23.0.3, SVG Export Plug-In . SVG Version: 6.00 Build 0)  -->
<svg version="1.1" id="Слой_1" xmlns="http://www.w3.org/2000/svg" xmlns:xlink="http://www.w3.org/1999/xlink" x="0px" y="0px"
	 viewBox="0 0 48 48" style="enable-background:new 0 0 48 48;" xml:space="preserve">
<style type="text/css">
	.st0{fill:#193D6E;}
	.st1{fill:#B6181B;}
</style>
<path class="st0" d="M31.3,15H23l14.3,14.3c0.6,0.6,0.6,1.5,0,2L23,45.6h8.4c1.6,0,3.1-0.6,4.2-1.7l11.7-11.7c1-1,1-2.7,0-3.7
	L35.5,16.7C34.4,15.6,32.9,15,31.3,15"/>
<path class="st1" d="M25,3h-8.3c-1.6,0-3.1,0.6-4.2,1.7L0.8,16.5c-1.1,1.1-1.1,2.8,0,3.8l11.6,11.6c1.1,1.1,2.6,1.7,4.2,1.7H25
	L10.7,19.3c-0.5-0.5-0.5-1.4,0-2L25,3z"/>
</svg>
