<svg width="90" height="90" viewBox="0 0 90 90" fill="none" xmlns="http://www.w3.org/2000/svg">
<path d="M22.1763 61.046L23.1431 62.1929C23.1577 62.1805 23.1722 62.1679 23.1863 62.155L22.1763 61.046ZM45.5184 61.046L46.5284 59.937V59.937L45.5184 61.046ZM55.6322 67.1397L56.6422 68.2487L55.6322 67.1397ZM1.68822 76.3534C1.05479 76.8873 0.974115 77.8336 1.50802 78.467C2.04193 79.1005 2.98825 79.1812 3.62168 78.6472L1.68822 76.3534ZM71.9452 89.1633C72.5261 89.754 73.4758 89.7619 74.0665 89.1809C74.6571 88.6 74.665 87.6503 74.0841 87.0597L71.9452 89.1633ZM78.9743 67.1397L80.0093 66.054C80.001 66.0461 79.9927 66.0384 79.9843 66.0307L78.9743 67.1397ZM86.7637 76.6372C87.3633 77.2088 88.3128 77.186 88.8844 76.5864C89.456 75.9868 89.4333 75.0373 88.8336 74.4657L86.7637 76.6372ZM64.1486 60.7996L64.5854 62.2346L64.1486 60.7996ZM70.4579 60.7996L70.0211 62.2346H70.0211L70.4579 60.7996ZM30.6927 54.7058L31.1295 56.1408L30.6927 54.7058ZM37.0021 54.7058L36.5653 56.1408L37.0021 54.7058ZM10.5387 86.5625L9.85768 87.899L10.5387 86.5625ZM3.43716 79.461L2.10065 80.142L3.43716 79.461ZM86.5615 79.461L87.898 80.142L86.5615 79.461ZM79.46 86.5625L80.141 87.899L79.46 86.5625ZM79.46 3.43814L80.141 2.10163L79.46 3.43814ZM86.5615 10.5396L87.898 9.85866L86.5615 10.5396ZM10.5387 3.43814L9.85768 2.10163L10.5387 3.43814ZM3.43716 10.5396L2.10065 9.85866L3.43716 10.5396ZM44.5084 62.155L52.9109 69.8073L54.9309 67.5892L46.5284 59.937L44.5084 62.155ZM54.9309 69.8073L56.6422 68.2487L54.6222 66.0307L52.9109 67.5892L54.9309 69.8073ZM52.8515 69.7501L71.9452 89.1633L74.0841 87.0597L54.9903 67.6464L52.8515 69.7501ZM77.9393 68.2255L86.7637 76.6372L88.8336 74.4657L80.0093 66.054L77.9393 68.2255ZM56.6422 68.2487C58.7201 66.3564 60.2154 64.9961 61.4803 64.0134C62.7306 63.0421 63.6635 62.5152 64.5854 62.2346L63.7118 59.3646C62.2986 59.7947 61.0337 60.5614 59.6398 61.6443C58.2606 62.7158 56.6653 64.1701 54.6222 66.0307L56.6422 68.2487ZM79.9843 66.0307C77.9413 64.1701 76.346 62.7158 74.9667 61.6443C73.5728 60.5614 72.3079 59.7947 70.8947 59.3646L70.0211 62.2346C70.9431 62.5152 71.8759 63.0421 73.1262 64.0134C74.3912 64.9961 75.8865 66.3564 77.9643 68.2487L79.9843 66.0307ZM64.5854 62.2346C66.3572 61.6952 68.2494 61.6952 70.0211 62.2346L70.8947 59.3646C68.5535 58.6519 66.0531 58.6519 63.7118 59.3646L64.5854 62.2346ZM23.1863 62.155C25.2642 60.2627 26.7595 58.9023 28.0244 57.9197C29.2747 56.9484 30.2076 56.4214 31.1295 56.1408L30.2559 53.2708C28.8427 53.701 27.5779 54.4677 26.184 55.5505C24.8047 56.622 23.2094 58.0764 21.1663 59.937L23.1863 62.155ZM46.5284 59.937C44.4854 58.0764 42.8901 56.622 41.5108 55.5505C40.1169 54.4677 38.852 53.701 37.4389 53.2708L36.5653 56.1408C37.4872 56.4214 38.4201 56.9484 39.6704 57.9197C40.9353 58.9023 42.4306 60.2627 44.5084 62.155L46.5284 59.937ZM31.1295 56.1408C32.9013 55.6015 34.7935 55.6015 36.5653 56.1408L37.4389 53.2708C35.0976 52.5582 32.5972 52.5582 30.2559 53.2708L31.1295 56.1408ZM27.666 3.16699H62.3327V0.166992H27.666V3.16699ZM86.8327 27.667V62.3337H89.8327V27.667H86.8327ZM62.3327 86.8337H27.666V89.8337H62.3327V86.8337ZM3.16602 62.3337V27.667H0.166016V62.3337H3.16602ZM27.666 86.8337C23.0908 86.8337 19.7497 86.8325 17.1152 86.6172C14.4982 86.4034 12.711 85.9859 11.2197 85.226L9.85768 87.899C11.8424 88.9103 14.0684 89.3783 16.8709 89.6073C19.6559 89.8348 23.1403 89.8337 27.666 89.8337V86.8337ZM0.166016 62.3337C0.166016 66.8593 0.164849 70.3438 0.39239 73.1288C0.621362 75.9313 1.08938 78.1573 2.10065 80.142L4.77367 78.78C4.0138 77.2887 3.59624 75.5014 3.38243 72.8845C3.16718 70.25 3.16602 66.9088 3.16602 62.3337H0.166016ZM11.2197 85.226C8.44426 83.8119 6.1878 81.5554 4.77367 78.78L2.10065 80.142C3.8024 83.4819 6.51781 86.1973 9.85768 87.899L11.2197 85.226ZM86.8327 62.3337C86.8327 66.9088 86.8315 70.25 86.6163 72.8845C86.4025 75.5014 85.9849 77.2887 85.225 78.78L87.898 80.142C88.9093 78.1573 89.3773 75.9313 89.6063 73.1288C89.8338 70.3438 89.8327 66.8593 89.8327 62.3337H86.8327ZM62.3327 89.8337C66.8584 89.8337 70.3428 89.8348 73.1278 89.6073C75.9303 89.3783 78.1563 88.9103 80.141 87.899L78.779 85.226C77.2877 85.9859 75.5005 86.4034 72.8835 86.6172C70.249 86.8325 66.9079 86.8337 62.3327 86.8337V89.8337ZM85.225 78.78C83.8109 81.5554 81.5544 83.8119 78.779 85.226L80.141 87.899C83.4809 86.1973 86.1963 83.4819 87.898 80.142L85.225 78.78ZM62.3327 3.16699C66.9079 3.16699 70.249 3.16816 72.8835 3.3834C75.5005 3.59722 77.2877 4.01477 78.779 4.77465L80.141 2.10163C78.1563 1.09035 75.9303 0.622339 73.1278 0.393367C70.3428 0.165826 66.8584 0.166992 62.3327 0.166992V3.16699ZM89.8327 27.667C89.8327 23.1413 89.8338 19.6568 89.6063 16.8719C89.3773 14.0694 88.9093 11.8434 87.898 9.85866L85.225 11.2206C85.9849 12.712 86.4025 14.4992 86.6163 17.1162C86.8315 19.7506 86.8327 23.0918 86.8327 27.667H89.8327ZM78.779 4.77465C81.5544 6.18878 83.8109 8.44524 85.225 11.2206L87.898 9.85866C86.1963 6.51878 83.4809 3.80338 80.141 2.10163L78.779 4.77465ZM27.666 0.166992C23.1403 0.166992 19.6559 0.165826 16.8709 0.393367C14.0684 0.622339 11.8424 1.09035 9.85768 2.10163L11.2197 4.77465C12.711 4.01477 14.4982 3.59722 17.1152 3.3834C19.7497 3.16816 23.0908 3.16699 27.666 3.16699V0.166992ZM3.16602 27.667C3.16602 23.0918 3.16718 19.7506 3.38243 17.1162C3.59624 14.4992 4.0138 12.712 4.77367 11.2206L2.10065 9.85866C1.08938 11.8434 0.621362 14.0694 0.39239 16.8719C0.164849 19.6568 0.166016 23.1413 0.166016 27.667H3.16602ZM9.85768 2.10163C6.51781 3.80338 3.8024 6.51878 2.10065 9.85866L4.77367 11.2206C6.1878 8.44524 8.44426 6.18878 11.2197 4.77465L9.85768 2.10163ZM70.5827 28.7503C70.5827 33.905 66.404 38.0837 61.2493 38.0837V41.0837C68.0609 41.0837 73.5827 35.5618 73.5827 28.7503H70.5827ZM61.2493 38.0837C56.0947 38.0837 51.916 33.905 51.916 28.7503H48.916C48.916 35.5618 54.4378 41.0837 61.2493 41.0837V38.0837ZM51.916 28.7503C51.916 23.5957 56.0947 19.417 61.2493 19.417V16.417C54.4378 16.417 48.916 21.9388 48.916 28.7503H51.916ZM61.2493 19.417C66.404 19.417 70.5827 23.5957 70.5827 28.7503H73.5827C73.5827 21.9388 68.0609 16.417 61.2493 16.417V19.417ZM3.62168 78.6472L23.1431 62.1929L21.2096 59.8991L1.68822 76.3534L3.62168 78.6472Z" fill="white"/>
</svg>
