<svg width="553" height="78" viewBox="0 0 553 78" fill="none" xmlns="http://www.w3.org/2000/svg">
<path d="M546.933 65.8722H547.642C548.906 65.8722 549.538 65.1667 549.538 63.7545C549.592 63.2272 549.426 62.7012 549.074 62.2853C548.633 61.9462 548.064 61.7865 547.495 61.841H546.932L546.933 65.8722ZM552.403 63.6579C552.483 64.8684 552.046 66.0615 551.184 66.9749C550.26 67.8017 549.005 68.2287 547.723 68.1545H544.096V54.0176H546.931V59.5389H547.66C550.822 59.5389 552.403 60.9115 552.403 63.6579M538.616 68.1545H535.791V56.3283H532.873V54.0176H541.533V56.3283H538.617L538.616 68.1545ZM528.177 56.1154C527.305 56.1513 526.544 56.6749 526.255 57.4398C525.729 58.6044 525.488 59.8632 525.553 61.1244C525.553 64.3993 526.472 66.0368 528.313 66.0368C529.212 66.012 530.087 65.7645 530.847 65.3214V67.6582C529.991 68.1458 528.996 68.3847 527.992 68.3463C526.403 68.4082 524.898 67.6854 524.037 66.4465C523.019 64.83 522.539 62.9723 522.656 61.1033C522.54 59.2233 523.035 57.3531 524.078 55.7379C524.941 54.4965 526.443 53.7663 528.033 53.8133C528.574 53.8109 529.115 53.8826 529.634 54.0262C530.216 54.1995 530.769 54.4495 531.274 54.7676L530.342 56.9063C530.022 56.7033 529.687 56.5202 529.341 56.3593C528.977 56.1934 528.577 56.1093 528.173 56.1154H528.177ZM511.904 61.0662C511.836 62.3237 512.059 63.58 512.56 64.7508C512.857 65.5033 513.624 66.0071 514.488 66.017C516.198 66.017 517.053 64.3659 517.053 61.0662C517.053 57.7653 516.204 56.1154 514.509 56.1154C513.64 56.1179 512.863 56.6204 512.56 57.3779C512.059 58.5487 511.836 59.8075 511.904 61.0662M519.959 61.0662C520.086 62.9562 519.592 64.8375 518.543 66.4625C516.866 68.5419 513.69 68.9676 511.448 67.4119C511.06 67.142 510.716 66.8227 510.425 66.4625C509.374 64.83 508.88 62.9401 509.008 61.0427C508.882 59.1565 509.377 57.2801 510.426 55.6612C511.349 54.4272 512.893 53.723 514.509 53.7972C516.118 53.7267 517.65 54.4408 518.553 55.6785C519.595 57.3024 520.085 59.18 519.959 61.0662M505.849 68.1545H503.014V61.9561H499.279V68.1545H496.44V54.0176H499.274V59.6354H503.008V54.0176H505.842L505.849 68.1545ZM490.956 68.1545H488.131V56.3283H485.216V54.0176H493.875V56.3283H490.956V68.1545ZM482.652 68.1545H479.817V61.9561H476.081V68.1545H473.24V54.0176H476.075V59.6354H479.809V54.0176H482.644L482.652 68.1545ZM470.082 68.1545H463.214V54.0176H470.08V56.29H466.048V59.6552H469.783V61.9363H466.048V65.8524H470.08L470.082 68.1545ZM457.732 68.1545H454.908V56.3283H451.984V54.0176H460.654V56.3283H457.732V68.1545ZM449.894 68.1545H443.029V54.0176H449.894V56.29H445.863V59.6552H449.597V61.9363H445.863V65.8524H449.894V68.1545ZM439.4 68.1545H436.587V56.3283H432.825V68.1545H429.989V54.0176H439.4V68.1545ZM417.755 68.1545L414.858 56.1154H414.745C414.869 56.962 414.936 57.8136 414.941 58.6688V68.1545H412.316V54.0176H416.672L419.277 65.1271H419.361L421.946 54.0176H426.365V68.1545H423.674V58.5723C423.675 57.7579 423.723 56.9447 423.819 56.1352H423.738L420.851 68.1545H417.755ZM401.103 61.0662C401.033 62.3237 401.257 63.58 401.759 64.7508C402.055 65.5033 402.823 66.0071 403.686 66.017C405.396 66.017 406.25 64.3659 406.25 61.0662C406.25 57.7653 405.403 56.1154 403.708 56.1154C402.839 56.1179 402.063 56.6204 401.759 57.3779C401.256 58.5487 401.032 59.8075 401.101 61.0662H401.103ZM409.158 61.0662C409.284 62.9562 408.791 64.8362 407.742 66.4613C406.835 67.7002 405.3 68.4144 403.688 68.3463C402.074 68.4156 400.534 67.7027 399.625 66.465C398.572 64.8325 398.077 62.9425 398.207 61.0452C398.079 59.1589 398.572 57.2826 399.625 55.6637C400.546 54.4285 402.09 53.723 403.708 53.7972C405.316 53.7267 406.849 54.4408 407.75 55.6785C408.793 57.3024 409.283 59.18 409.158 61.0662M396.578 68.1545H393.401L389.491 60.9895V68.1545H386.678V54.0176H389.491V60.8632L393.462 54.0176H396.497L392.318 60.8249L396.578 68.1545ZM503.164 43.5937H503.871C505.135 43.5937 505.769 42.8882 505.769 41.476C505.822 40.9488 505.655 40.4228 505.303 40.0069C504.863 39.6678 504.293 39.5081 503.724 39.5626H503.162L503.164 43.5937ZM508.631 41.3795C508.714 42.59 508.275 43.7831 507.412 44.6965C506.489 45.5233 505.232 45.9503 503.952 45.876H500.327V31.7391H503.161V37.2605H503.889C507.052 37.2605 508.631 38.6331 508.631 41.3795M494.843 45.876H492.019V34.0499H489.102V31.7391H497.762V34.0499H494.843V45.876ZM484.406 33.837C483.534 33.8717 482.772 34.3964 482.485 35.1613C481.957 36.3248 481.717 37.5847 481.781 38.8459C481.781 42.1209 482.703 43.7583 484.543 43.7583C485.44 43.7336 486.316 43.486 487.076 43.0429V45.3797C486.219 45.8674 485.225 46.1062 484.22 46.0679C482.632 46.131 481.125 45.4082 480.263 44.1692C479.241 42.5516 478.761 40.6913 478.878 38.8212C478.761 36.9399 479.257 35.071 480.299 33.4546C481.162 32.2132 482.663 31.4829 484.254 31.5299C484.795 31.5275 485.334 31.5993 485.854 31.7428C486.437 31.9161 486.99 32.1661 487.495 32.4854L486.561 34.6229C486.243 34.4187 485.908 34.2368 485.561 34.0771C485.199 33.9125 484.801 33.8296 484.397 33.837H484.406ZM468.133 38.7878C468.065 40.0453 468.289 41.3015 468.791 42.4724C469.088 43.2249 469.855 43.7286 470.718 43.7385C472.428 43.7385 473.282 42.0875 473.282 38.7878C473.282 35.4868 472.433 33.837 470.739 33.837C469.871 33.8407 469.095 34.3432 468.791 35.0994C468.288 36.2703 468.064 37.529 468.133 38.7878ZM476.188 38.7878C476.315 40.6777 475.821 42.5578 474.772 44.1829C473.096 46.2622 469.919 46.6879 467.677 45.1322C467.289 44.8624 466.945 44.543 466.654 44.1829C465.601 42.5503 465.108 40.6604 465.237 38.763C465.112 36.8792 465.607 35.0041 466.657 33.3877C467.578 32.1513 469.121 31.4458 470.738 31.5188C472.347 31.4495 473.878 32.1624 474.781 33.4001C475.823 35.0239 476.315 36.9015 476.188 38.7878M462.077 45.876H459.243V39.6777H455.508V45.876H452.667V31.7391H455.502V37.357H459.236V31.7391H462.071L462.077 45.876ZM438.631 38.5464L434.895 31.7391H437.804L441.271 38.5848V31.7391H443.919V38.5848L447.397 31.7391H450.332L446.597 38.5266L450.384 45.876H447.316L443.92 38.711V45.876H441.266V38.711L437.9 45.876H434.833L438.631 38.5464ZM433.012 45.876H426.145V31.7391H433.012V34.0115H428.98V37.3768H432.714V39.6591H428.98V43.5739H433.012V45.876ZM418.975 43.5541V34.0486H417.242C417.055 35.6873 416.775 37.3149 416.403 38.9264C416.051 40.4921 415.597 42.0379 415.041 43.5529L418.975 43.5541ZM423.539 49.9158H420.787V45.876H413.951V49.9171H411.201V43.5554H412.103C413.599 39.7519 414.525 35.7765 414.856 31.7391H421.816V43.5554H423.55L423.539 49.9158ZM405.479 39.9772L404.667 36.6899C404.619 36.4894 404.509 35.9881 404.34 35.1861C404.169 34.3828 404.068 33.8469 404.032 33.5771C403.944 34.1316 403.829 34.7418 403.688 35.4089C403.547 36.0747 403.186 37.5983 402.604 39.9772H405.479ZM406.886 45.876L406.012 42.3078H402.04L401.165 45.876H398.329L402.099 31.6809H405.944L409.731 45.876H406.886ZM396.047 45.876H393.213V39.6777H389.478V45.876H386.637V31.7391H389.471V37.357H393.206V31.7391H396.047V45.876ZM509.553 21.3153H510.26C511.524 21.3153 512.156 20.6086 512.156 19.1976C512.21 18.6703 512.044 18.1443 511.692 17.7285C511.252 17.3893 510.682 17.2297 510.114 17.2841H509.551L509.553 21.3153ZM515.02 19.101C515.103 20.3127 514.664 21.5046 513.801 22.4181C512.878 23.2448 511.621 23.6718 510.341 23.5976H506.716V9.46067H509.55V14.982H510.274C513.438 14.982 515.02 16.3546 515.02 19.101M501.232 23.5976H498.402V11.7714H495.491V9.46067H504.149V11.7714H501.232V23.5976ZM490.795 11.5586C489.923 11.5932 489.161 12.118 488.874 12.8829C488.346 14.0463 488.106 15.3063 488.17 16.5675C488.17 19.8424 489.09 21.4799 490.932 21.4799C491.829 21.4551 492.705 21.2076 493.465 20.7645V23.1025C492.608 23.5889 491.614 23.8278 490.61 23.7894C489.022 23.8513 487.518 23.1285 486.656 21.8896C485.634 20.2731 485.151 18.4129 485.268 16.5427C485.15 14.6615 485.645 12.7925 486.688 11.1761C487.551 9.93471 489.052 9.20447 490.643 9.2515C491.184 9.24902 491.723 9.32081 492.243 9.46438C492.826 9.63766 493.379 9.88768 493.885 10.207L492.95 12.3445C492.632 12.1403 492.297 11.9583 491.95 11.7987C491.59 11.6341 491.192 11.5524 490.79 11.5586H490.795ZM474.522 16.5093C474.454 17.7668 474.677 19.0231 475.178 20.1939C475.476 20.9464 476.243 21.4502 477.106 21.4601C478.816 21.4601 479.669 19.809 479.669 16.5093C479.669 13.2084 478.822 11.5586 477.127 11.5586C476.259 11.5623 475.482 12.0648 475.178 12.821C474.678 13.9919 474.455 15.2506 474.526 16.5093H474.522ZM482.577 16.5093C482.704 18.3993 482.21 20.2806 481.161 21.9044C479.485 23.9837 476.308 24.4095 474.066 22.8537C473.678 22.5839 473.334 22.2646 473.044 21.9044C471.991 20.2719 471.497 18.3819 471.626 16.4846C471.5 14.6008 471.993 12.7257 473.043 11.1093C473.963 9.87282 475.509 9.1661 477.127 9.24036C478.736 9.16981 480.268 9.88396 481.17 11.1217C482.213 12.7455 482.703 14.6231 482.577 16.5093M468.467 23.5976H465.632V17.3992H461.897V23.5976H459.054V9.46067H461.888V15.0785H465.623V9.46067H468.457L468.467 23.5976ZM455.43 23.5976H452.615V11.7714H448.854V23.5976H446.019V9.46067H455.43V23.5976ZM435.86 23.7907C435.234 23.8068 434.612 23.7139 434.026 23.5196V21.1804C434.526 21.366 435.059 21.4613 435.598 21.4613C436.432 21.4613 437.076 20.7422 437.527 19.3053L433.617 9.46067H436.588L438.527 14.982C438.667 15.4078 438.769 15.8447 438.829 16.2878H438.914L439.058 15.6306L439.214 14.9832L440.871 9.46191H443.736L440.339 19.46C439.997 20.6915 439.362 21.8363 438.478 22.8104C437.79 23.4602 436.841 23.8154 435.86 23.7907M429.48 23.5976H426.655V11.7714H423.739V9.46067H432.397V11.7714H429.48V23.5976ZM419.041 11.5586C418.169 11.5932 417.409 12.118 417.119 12.8829C416.592 14.0463 416.354 15.3063 416.416 16.5675C416.416 19.8424 417.337 21.4799 419.179 21.4799C420.076 21.4551 420.951 21.2076 421.712 20.7645V23.1025C420.855 23.5889 419.86 23.8278 418.857 23.7894C417.269 23.8513 415.764 23.1285 414.902 21.8896C413.881 20.2731 413.398 18.4129 413.515 16.5427C413.398 14.6615 413.893 12.7925 414.936 11.1761C415.8 9.93471 417.301 9.20447 418.891 9.2515C419.432 9.24902 419.971 9.32081 420.491 9.46438C421.074 9.63766 421.626 9.88768 422.133 10.207L421.198 12.3445C420.879 12.1403 420.545 11.9583 420.198 11.7987C419.838 11.6353 419.44 11.5524 419.039 11.5586H419.041ZM402.768 16.5093C402.699 17.7668 402.923 19.0231 403.425 20.1939C403.721 20.9464 404.489 21.4502 405.352 21.4601C407.062 21.4601 407.916 19.809 407.916 16.5093C407.916 13.2084 407.069 11.5586 405.373 11.5586C404.505 11.5623 403.729 12.0648 403.425 12.821C402.922 13.9919 402.696 15.2506 402.766 16.5093H402.768ZM410.824 16.5093C410.95 18.3993 410.457 20.2806 409.408 21.9044C408.501 23.1434 406.966 23.8575 405.353 23.7894C403.74 23.8587 402.2 23.1471 401.291 21.9081C400.238 20.2756 399.743 18.3857 399.873 16.4883C399.745 14.6033 400.24 12.7269 401.291 11.1093C402.211 9.87159 403.757 9.1661 405.375 9.24036C406.983 9.16981 408.516 9.88396 409.418 11.1217C410.461 12.7455 410.95 14.6231 410.825 16.5093H410.824ZM393.172 21.2769V11.7714H391.436C391.249 13.4101 390.969 15.0377 390.597 16.6492C390.246 18.2161 389.792 19.7607 389.237 21.2757L393.172 21.2769ZM397.736 27.6399H394.984V23.5976H388.148V27.6399H385.398V21.2769H386.293C387.79 17.4735 388.717 13.498 389.045 9.46067H396.006V21.2769H397.739L397.736 27.6399Z" fill="#264570"/>
<path d="M365.285 0.0807905H369.716V76.8177H365.285V0.0807905Z" fill="#B9292C"/>
<path d="M141.83 14.6916H133.84L119.33 28.0958V14.6916H113.08V47.8295H119.33V32.4648L134.513 47.8295H142.81L124.464 30.1058L141.83 14.6916Z" fill="#B8282A"/>
<path d="M159.046 14.691L145.294 47.8289H152.008L155.284 39.6342H168.865L172.141 47.8289H178.856L165.104 14.691H159.046ZM167.009 34.6129H157.142L162.075 21.8844L167.009 34.6129Z" fill="#B8282A"/>
<path d="M182.487 47.83H188.739V19.7147H204.62V47.83H210.869V14.6921H182.487V47.83Z" fill="#B8282A"/>
<path d="M223.532 38.5033V14.6914H217.28V47.8293H223.166L240.458 23.8515V47.8293H246.709V14.6914H240.825L223.532 38.5033Z" fill="#B8282A"/>
<path d="M279.755 14.6916H250.922V19.7166H262.237V47.8295H268.488V19.7166H279.755V14.6916Z" fill="#B8282A"/>
<path d="M288.214 14.691L274.46 47.8289H281.178L284.452 39.6342H298.032L301.308 47.8289H308.025L294.272 14.691H288.214ZM296.177 34.6129H286.308L291.241 21.8844L296.177 34.6129Z" fill="#B8282A"/>
<path d="M318.648 14.6916V29.0414C318.648 35.3091 317.577 42.7798 312.479 42.7798C312.135 42.7798 311.771 42.7476 311.396 42.6832L310.457 42.5236V47.7206L311.121 47.8209C311.914 47.9385 312.683 47.9991 313.414 47.9991C321.034 47.9991 324.897 41.9258 324.897 29.9474V19.7166H335.768V47.8296H342.018V14.6916H318.648Z" fill="#B8282A"/>
<path d="M118.239 63.2046L114.619 55.8824H113.075V66.8805H114.77V59.8603L117.531 65.4436H118.929L121.623 59.8913V66.8805H123.319V55.8824H121.77L118.239 63.2046Z" fill="#B8282A"/>
<path d="M125.148 66.8801H132.785V65.4172H126.842V62.0692H131.903V60.6075H126.842V57.345H132.785V55.882H125.148V66.8801Z" fill="#B8282A"/>
<path d="M143.697 55.8823H136.912V60.0014C136.912 62.452 136.544 64.0424 135.653 65.4188H134.444V69.466H136.138V66.8805H143.338V69.466H145.032V65.4188H143.697V55.8823ZM138.559 60.6932V57.3465H142.003V65.4188H137.54C138.218 64.1316 138.559 62.5461 138.559 60.6932" fill="#B8282A"/>
<path d="M148.418 63.8621V55.8827H146.723V66.8809H148.229L153.732 58.8755V66.8809H155.425V55.8827H153.92L148.418 63.8621Z" fill="#B8282A"/>
<path d="M165.715 55.8823H164.021V65.4188H159.038V55.8823H157.343V66.8805H165.358V69.466H167.05V65.4188H165.715V55.8823Z" fill="#B8282A"/>
<path d="M170.261 63.8621V55.8827H168.566V66.8809H170.072L175.577 58.8755V66.8809H177.269V55.8827H175.766L170.261 63.8621Z" fill="#B8282A"/>
<path d="M185.778 60.6071H180.795V55.8816H179.1V66.8797H180.795V62.0701H185.778V66.8797H187.472V55.8816H185.778V60.6071Z" fill="#B8282A"/>
<path d="M193.904 57.259C195.197 57.259 196.14 58.0029 196.432 59.2492L196.501 59.555H198.218L198.126 59.097C197.704 57.0622 196.089 55.7961 193.904 55.7961C192.728 55.7961 191.657 56.1835 190.888 56.8853C189.697 57.9744 189.648 58.9881 189.648 61.3805C189.648 63.7742 189.697 64.7879 190.888 65.8771C191.657 66.5788 192.728 66.9675 193.904 66.9675C196.089 66.9675 197.704 65.7013 198.126 63.6653L198.218 63.2074H196.535L196.461 63.5131C196.172 64.7594 195.214 65.5045 193.904 65.5045C193.187 65.5045 192.573 65.278 192.084 64.8275C191.401 64.2037 191.343 63.4735 191.343 61.3805C191.343 59.2888 191.401 58.5611 192.084 57.9348C192.573 57.4868 193.187 57.259 193.904 57.259Z" fill="#B8282A"/>
<path d="M208.926 55.8823H206.599L201.984 60.2303V55.8823H200.29V66.8805H201.984V62.1141L206.957 66.8805H209.342L203.193 61.1549L208.926 55.8823Z" fill="#B8282A"/>
<path d="M213.224 55.7966C212.049 55.7966 210.977 56.1827 210.206 56.8858C209.063 57.9328 208.967 58.8401 208.967 61.3811C208.967 63.9208 209.063 64.8317 210.206 65.8776C210.977 66.5794 212.048 66.9668 213.224 66.9668C214.401 66.9668 215.472 66.5794 216.24 65.8776C217.386 64.8305 217.482 63.9208 217.482 61.3811C217.482 58.8425 217.386 57.9328 216.24 56.8858C215.472 56.1827 214.401 55.7966 213.224 55.7966ZM213.224 57.2595C213.942 57.2595 214.554 57.486 215.045 57.9353C215.728 58.5591 215.784 59.2881 215.784 61.3811C215.784 63.474 215.728 64.2042 215.046 64.8268C214.554 65.2761 213.942 65.505 213.224 65.505C212.507 65.505 211.893 65.2761 211.4 64.828C210.721 64.2042 210.662 63.474 210.662 61.3811C210.662 59.2881 210.721 58.5591 211.4 57.9366C211.893 57.486 212.507 57.2595 213.224 57.2595" fill="#B8282A"/>
<path d="M218.87 66.8801H226.506V65.4172H220.565V62.0692H225.626V60.6075H220.565V57.345H226.506V55.882H218.87V66.8801Z" fill="#B8282A"/>
<path d="M239.067 57.259C240.358 57.259 241.301 58.0029 241.592 59.2492L241.662 59.555H243.376L243.284 59.097C242.867 57.0622 241.253 55.7961 239.067 55.7961C237.89 55.7961 236.819 56.1835 236.048 56.8853C234.905 57.9323 234.809 58.842 234.809 61.3805C234.809 63.9203 234.905 64.83 236.048 65.8771C236.817 66.5788 237.89 66.9675 239.067 66.9675C241.253 66.9675 242.867 65.7013 243.284 63.6628L243.376 63.2074H241.693L241.622 63.5131C241.333 64.7594 240.378 65.5045 239.067 65.5045C238.349 65.5045 237.736 65.2768 237.242 64.8275C236.562 64.2037 236.504 63.4735 236.504 61.3805C236.504 59.2888 236.562 58.5598 237.242 57.9348C237.736 57.4868 238.349 57.259 239.067 57.259Z" fill="#B8282A"/>
<path d="M244.285 57.3461H247.617V66.88H249.31V57.3461H252.659V55.8819H244.285V57.3461Z" fill="#B8282A"/>
<path d="M258.827 55.8823H254.301V66.8805H255.998V62.5436H258.827C261.1 62.5436 262.627 61.2056 262.627 59.213C262.627 57.2203 261.1 55.8823 258.827 55.8823ZM255.998 57.3465H258.731C259.737 57.3465 260.933 57.6683 260.933 59.213C260.933 60.7564 259.737 61.0819 258.731 61.0819H255.998V57.3465Z" fill="#B8282A"/>
<path d="M287.35 55.7966C286.174 55.7966 285.103 56.1827 284.332 56.8858C283.187 57.9328 283.091 58.8425 283.091 61.3811C283.091 63.9208 283.187 64.8305 284.332 65.8776C285.1 66.5794 286.174 66.9668 287.35 66.9668C288.527 66.9668 289.596 66.5794 290.367 65.8776C291.51 64.8305 291.607 63.9208 291.607 61.3811C291.607 58.8425 291.51 57.9328 290.367 56.8858C289.596 56.1827 288.525 55.7966 287.35 55.7966ZM287.35 57.2595C288.067 57.2595 288.68 57.486 289.171 57.9353C289.854 58.5591 289.911 59.2881 289.911 61.3811C289.911 63.474 289.854 64.2042 289.172 64.8268C288.68 65.2761 288.068 65.505 287.35 65.505C286.631 65.505 286.019 65.2761 285.527 64.828C284.845 64.2042 284.787 63.474 284.787 61.3811C284.787 59.2881 284.845 58.5591 285.527 57.9366C286.019 57.486 286.633 57.2595 287.35 57.2595" fill="#B8282A"/>
<path d="M300.261 61.2283C300.342 61.1739 300.421 61.1157 300.506 61.0464C301.148 60.4931 301.487 59.7567 301.487 58.9114C301.487 57.1279 299.982 55.8827 297.829 55.8827H293.288V66.8809H297.953C300.241 66.8809 301.663 65.6766 301.663 63.7371C301.663 62.8311 301.309 62.0588 300.637 61.4944C300.509 61.388 300.39 61.3038 300.261 61.2283ZM297.735 60.5352H294.983V57.3444H297.735C298.504 57.3444 299.793 57.5536 299.793 58.9411C299.793 60.3273 298.504 60.5352 297.735 60.5352M294.983 65.4179V61.9982H297.859C299.178 61.9982 299.965 62.6381 299.965 63.7074C299.965 64.778 299.178 65.4179 297.859 65.4179H294.983Z" fill="#B8282A"/>
<path d="M307.049 55.8823L302.621 66.8805H304.437L305.411 64.3964H310.031L311.008 66.8805H312.823L308.395 55.8823H307.049ZM305.981 62.9335L307.723 58.4567L309.465 62.9335H305.981Z" fill="#B8282A"/>
<path d="M320.841 60.6071H315.857V55.8816H314.162V66.8797H315.857V62.0701H320.841V66.8797H322.536V55.8816H320.841V60.6071Z" fill="#B8282A"/>
<path d="M325.971 63.8621V55.8827H324.276V66.8809H325.782L331.287 58.8755V66.8809H332.98V55.8827H331.476L325.971 63.8621Z" fill="#B8282A"/>
<path d="M342.21 57.3461V55.8819H334.574V66.88H342.21V65.4183H336.272V62.0679H341.33V60.6074H336.272V57.3461H342.21Z" fill="#B8282A"/>
<path d="M270.066 66.9153L269.214 64.6937H264.428L263.577 66.9153H261.638L266.082 55.8541H267.563L271.988 66.9153H270.066ZM266.865 58.3554L264.956 63.2641H268.722L266.865 58.3554Z" fill="#B8282A"/>
<path d="M280.462 66.9153L277.822 62.6737L275.182 66.9153H273.088L276.816 61.2442L273.326 55.8541H275.437L277.822 59.8172L280.222 55.8541H282.335L278.828 61.2442L282.591 66.9153H280.462Z" fill="#B8282A"/>
<path d="M60.6157 24.572H44.6523L71.9813 49.5053C73.0644 50.4917 73.0644 52.0908 71.9813 53.0773L44.7137 77.9536H60.6784C63.6662 77.9536 66.5326 76.8694 68.6454 74.9435L91.0178 54.5315C92.9799 52.7418 92.9799 49.8407 91.0178 48.0498L68.5813 27.5821C66.4699 25.655 63.6035 24.572 60.6157 24.572Z" fill="#284471"/>
<path d="M48.5297 3.70289H32.6224C29.5972 3.70289 26.6975 4.79949 24.5593 6.75009L2.26162 27.0928C0.243524 28.932 0.243524 31.9124 2.26162 33.7516L24.4953 54.0361C26.6334 55.9879 29.5345 57.0833 32.5583 57.0833H48.467L21.1167 32.1339C20.0817 31.1883 20.0817 29.656 21.1167 28.7117L48.5297 3.70289Z" fill="#B8282A"/>
</svg>
