<svg width="16" height="16" viewBox="0 0 16 16" fill="none" xmlns="http://www.w3.org/2000/svg">
<path d="M2.3912 9.18591L2.74371 8.83132L2.3912 9.18591ZM2.3912 6.81407L2.03869 6.45948L2.03868 6.45948L2.3912 6.81407ZM13.6088 6.81407L13.2563 7.16866L13.6088 6.81407ZM13.6088 9.18591L13.9614 9.5405L13.6088 9.18591ZM14.1783 7.5865L14.6536 7.43144L14.1783 7.5865ZM14.1783 8.41349L14.6536 8.56856L14.1783 8.41349ZM1.82186 8.41349L1.34652 8.56856H1.34652L1.82186 8.41349ZM1.82186 7.5865L2.29721 7.74157L1.82186 7.5865ZM8.00012 11.5C5.85909 11.5 3.91572 9.99647 2.74371 8.83132L2.03869 9.5405C3.23926 10.7341 5.43361 12.5 8.00012 12.5V11.5ZM2.74371 7.16866C3.91572 6.00352 5.85909 4.5 8.00012 4.5V3.5C5.43361 3.5 3.23926 5.26593 2.03869 6.45948L2.74371 7.16866ZM8.00012 4.5C10.1411 4.5 12.0843 6.0035 13.2563 7.16866L13.9614 6.45948C12.7608 5.26594 10.5666 3.5 8.00012 3.5V4.5ZM13.2563 8.83132C12.0843 9.99648 10.1411 11.5 8.00012 11.5V12.5C10.5666 12.5 12.7608 10.734 13.9614 9.5405L13.2563 8.83132ZM13.2563 7.16866C13.5803 7.49076 13.6461 7.56731 13.703 7.74157L14.6536 7.43144C14.5112 6.9947 14.2636 6.75993 13.9614 6.45948L13.2563 7.16866ZM13.9614 9.5405C14.2636 9.24006 14.5112 9.00531 14.6536 8.56856L13.7029 8.25843C13.6461 8.43268 13.5803 8.50922 13.2563 8.83132L13.9614 9.5405ZM13.703 7.74157C13.716 7.78163 13.7316 7.87606 13.7316 8C13.7316 8.12394 13.716 8.21837 13.7029 8.25843L14.6536 8.56856C14.7117 8.39073 14.7316 8.18061 14.7316 8C14.7316 7.81939 14.7117 7.60927 14.6536 7.43144L13.703 7.74157ZM2.74371 8.83132C2.41982 8.50932 2.35407 8.43273 2.29721 8.25843L1.34652 8.56856C1.48898 9.00526 1.73636 9.23995 2.03869 9.5405L2.74371 8.83132ZM2.03868 6.45948C1.73636 6.76004 1.48897 6.99475 1.34652 7.43144L2.29721 7.74157C2.35407 7.56726 2.41983 7.49066 2.74372 7.16866L2.03868 6.45948ZM2.29721 8.25843C2.28414 8.21837 2.26855 8.12394 2.26855 8C2.26855 7.87606 2.28414 7.78163 2.29721 7.74157L1.34652 7.43144C1.28851 7.60927 1.26855 7.81939 1.26855 8C1.26855 8.18061 1.28851 8.39073 1.34652 8.56856L2.29721 8.25843ZM7.99992 8.83333C7.53969 8.83333 7.16659 8.46024 7.16659 8H6.16659C6.16659 9.01252 6.9874 9.83333 7.99992 9.83333V8.83333ZM7.16659 8C7.16659 7.53976 7.53969 7.16667 7.99992 7.16667V6.16667C6.9874 6.16667 6.16659 6.98748 6.16659 8H7.16659ZM7.99992 7.16667C8.46016 7.16667 8.83326 7.53976 8.83326 8H9.83326C9.83326 6.98748 9.01245 6.16667 7.99992 6.16667V7.16667ZM8.83326 8C8.83326 8.46024 8.46016 8.83333 7.99992 8.83333V9.83333C9.01245 9.83333 9.83326 9.01252 9.83326 8H8.83326Z" fill="#969696"/>
</svg>
