<svg width="207" height="271" viewBox="0 0 207 271" fill="none" xmlns="http://www.w3.org/2000/svg">
<path d="M72 241.5L77.5 238.5L57.5 239L38.5 238.5H29L13 236.5L6.5 234.5L2.5 231L1 226L1.5 220L3.5 207.5L11 180.5L20.5 154.5L28 137.5L32 130L38 124.5L50 117.5L60 113L55 105.5L50 96L46 87L45 84.5L43 75.5L42.5 69.5L38 66L36 61.5L32.5 50L29.5 39.5L27.5 32.5L27 28L29 21.5L36 15L46.5 9.5L58 6L78.5 2.5L94.5 1.5L105 2.5L114 6L117.5 10.5L118.5 23.5L121.5 51L119.5 55.5L121.5 61L123.5 72V77.5V87L122.5 94L120 106.5L127 107.5L146 112.5L154.5 115L162 119L170.5 124L177 132L184 144L191 161L196.5 176L200.5 190L203.5 205L205.5 216L206 224L205 230L201 236L191.5 241.5L183 244.5L174 246.5L168.5 247L167 247.5L164.5 249H159.5H155.5L150 249.5L146 250L142 251.5L138.5 252.5L135.5 252L132.5 255.5L127.5 259.5L121.5 263.5L115 268H110H98.5L85.5 268.5L66 267.5L52 265.5L40.5 263L35 261L32 258L36 258.5L45 256.5L50.5 255L58.5 250.5L65.5 245.5L72 241.5Z" fill="white"/>
<path fill-rule="evenodd" clip-rule="evenodd" d="M121.969 51.0845C121.965 49.389 121.763 46.5391 121.45 43.0931C120.532 32.9577 118.669 17.6119 118.283 11.5297C118.091 8.51825 115.145 4.45287 106.479 2.35664C99.3673 0.636139 88.2834 0.177708 71.5585 2.6741C56.1611 4.96847 45.1677 8.67421 37.8828 12.9916C27.8356 18.9456 24.7559 26.119 26.7345 32.4848C27.9244 36.3265 30.6611 46.7616 33.2074 55.0761C34.4318 59.0749 35.6145 62.5875 36.5652 64.6604C38.0942 68.0004 43.2713 72.2816 53.7547 74.0582C60.9047 75.2698 70.5623 75.3364 83.2496 73.1502C95.3391 71.0723 103.844 68.0964 109.721 64.9534C119.198 59.8863 121.964 54.2658 121.969 51.0845ZM120.276 51.0856C120.285 53.9789 117.558 58.8923 108.961 63.5376C103.202 66.6495 94.8568 69.5893 82.9932 71.6784C70.5212 73.8695 61.0224 73.8501 53.9861 72.6796C44.172 71.0462 39.227 67.2201 37.7873 64.0987C36.8499 62.0635 35.6844 58.6142 34.4762 54.6865C31.9187 46.3742 29.1787 35.938 27.9855 32.0969C26.1556 26.1872 29.2292 19.6504 38.5626 14.1404C45.746 9.89964 56.5929 6.29991 71.7655 4.07381C84.8419 2.1585 94.4167 2.04695 101.312 2.94327C107.581 3.75801 111.591 5.39415 113.973 7.26006C115.82 8.70639 116.643 10.2643 116.724 11.6257C117.09 17.7174 118.899 33.0898 119.787 43.2413C120.083 46.6245 120.278 49.4218 120.276 51.0856Z" fill="black"/>
<path d="M63.9466 54.8994C61.4401 54.8994 59.0153 54.7245 57.0101 54.7245C57.0101 56.1235 57.5055 58.8106 58.205 61.1656C59.7206 61.3055 63.4997 61.4959 65.1999 61.5736C65.5982 62.9629 66.5172 66.1552 67.0069 67.8107C68.7264 67.8689 72.4279 67.6066 73.7102 67.4609C73.0574 65.4324 72.389 62.4188 72.1364 61.1656C74.3126 60.913 78.9447 60.3495 80.0639 60.1163C79.5684 58.3385 79.073 55.7737 78.6649 53.6461C76.577 54.1152 73.3569 54.7245 70.8832 54.7245C70.5237 52.4317 69.7757 47.6422 69.6591 46.8262C67.8812 47.001 64.3547 47.1468 62.8683 47.2633C63.0315 48.9188 63.6552 53.0438 63.9466 54.8994Z" fill="url(#paint0_linear_669_8862)"/>
<path fill-rule="evenodd" clip-rule="evenodd" d="M31.2261 32.0463C35.4302 33.6686 43.1386 35.3735 52.6375 35.7731C59.2026 36.0495 66.6262 35.7143 74.3252 34.293C78.4882 33.5243 82.7307 32.432 86.9609 30.9591C96.0151 27.8056 105.011 22.8927 113.073 15.5828C113.238 15.4352 113.252 15.1815 113.104 15.0161C112.957 14.8513 112.703 14.8374 112.538 14.9851C104.491 22.1007 95.5428 26.8116 86.5779 29.8424C82.3932 31.2571 78.2035 32.3022 74.0976 33.0581C66.4919 34.4589 59.1687 34.848 52.6807 34.626C43.3218 34.3057 35.7088 32.7434 31.5513 31.19C31.3155 31.1006 31.0507 31.2194 30.9608 31.4558C30.8709 31.6917 30.9902 31.9564 31.2261 32.0463Z" fill="black"/>
<path fill-rule="evenodd" clip-rule="evenodd" d="M41.7062 70.0938C41.588 73.7535 43.3357 81.7694 46.9792 90.8758C50.6289 99.9978 56.1684 110.225 63.5793 118.25C71.8948 127.254 82.5569 133.477 95.4707 132.463C107.984 131.436 115.716 121.379 119.93 108.63C126.282 89.4095 124.659 64.1659 120.347 55.9719C120.218 55.7221 119.91 55.625 119.66 55.7549C119.41 55.8847 119.312 56.1933 119.442 56.4431C123.605 64.5289 124.887 89.3235 118.512 108.155C114.428 120.217 107.209 129.871 95.3369 130.78C82.9604 131.772 72.7767 125.744 64.7731 117.143C56.0785 107.799 49.9468 95.4074 46.4492 85.3963C44.0954 78.6597 42.9244 73.0143 42.9966 70.131C43.0071 69.7753 42.7263 69.4778 42.37 69.4673C42.0142 69.4573 41.7167 69.7381 41.7062 70.0938Z" fill="black"/>
<path fill-rule="evenodd" clip-rule="evenodd" d="M72.1446 94.8564C75.6172 103.547 66.2089 109.164 56.0379 109.187C46.5741 109.208 38.1536 103.057 38.3174 95.1733C38.5438 84.2642 66.5541 80.8682 72.1446 94.8564Z" fill="white" fill-opacity="0.78"/>
<path fill-rule="evenodd" clip-rule="evenodd" d="M72.9299 94.542C70.1688 87.7543 62.4082 84.8411 54.8275 84.9094C49.2997 84.9588 43.9045 86.5821 40.7183 89.3166C38.8535 90.9178 37.7246 92.8947 37.6835 95.1597C37.5892 99.5719 40.0378 103.475 43.8624 106.156C47.1574 108.467 51.4764 109.87 56.0396 109.878C61.9548 109.897 67.6158 108.048 70.8387 104.868C73.4993 102.242 74.5694 98.7255 72.9299 94.542ZM71.3587 95.1697C72.7667 98.6256 71.9226 101.56 69.7398 103.768C66.7861 106.755 61.5247 108.452 56.0363 108.495C51.7606 108.521 47.6946 107.254 44.5972 105.104C41.1257 102.694 38.8701 99.1779 38.9506 95.1863C38.995 93.2821 39.984 91.6404 41.5613 90.3062C44.565 87.7654 49.6532 86.3352 54.8325 86.3441C61.7589 86.3568 68.9128 88.9376 71.3587 95.1697Z" fill="black"/>
<path fill-rule="evenodd" clip-rule="evenodd" d="M113.928 93.741C111.395 86.5526 104.084 83.1814 96.7931 82.9363C88.6013 82.6602 80.5533 86.3647 79.4616 92.6929C78.7584 96.6717 80.1487 100.216 82.8582 102.968C86.272 106.437 91.8181 108.642 97.8943 108.763C103.799 108.891 108.818 106.755 111.717 103.561C114.187 100.84 115.148 97.3504 113.928 93.741ZM112.329 94.2937C113.643 98.0193 112.093 101.609 108.884 104.066C106.179 106.137 102.315 107.413 97.9165 107.368C93.2578 107.312 88.9066 105.977 85.7153 103.718C82.0568 101.127 79.935 97.3212 80.7109 92.9134C81.7543 87.143 89.2601 84.0434 96.7376 84.3721C103.386 84.6642 110.099 87.7072 112.329 94.2937Z" fill="black"/>
<path fill-rule="evenodd" clip-rule="evenodd" d="M80.2725 94.6941C79.6742 94.0037 78.8528 93.5042 77.9471 93.2195C77.366 93.0369 76.7477 92.9487 76.1472 92.9648C75.6766 92.9775 75.2159 93.0541 74.7903 93.1862C73.5809 93.563 72.6246 94.2962 72.2994 95.3107C72.1879 95.5694 72.3078 95.8696 72.5664 95.9812C72.825 96.0927 73.1253 95.9728 73.2368 95.7142C73.4344 95.3612 73.7857 95.142 74.1836 94.9594C74.747 94.7002 75.4435 94.6447 76.1633 94.6536C76.7305 94.6608 77.3122 94.7124 77.8616 94.8717C78.4116 95.0316 78.94 95.2436 79.359 95.606C79.6104 95.858 80.0195 95.8585 80.272 95.6071C80.5239 95.3551 80.5245 94.9461 80.2725 94.6941Z" fill="black"/>
<path fill-rule="evenodd" clip-rule="evenodd" d="M76.291 101.711C76.3587 104.506 76.1767 106.709 76.0113 108.47C75.8148 110.564 75.615 112.048 75.7104 113.123C75.832 114.49 76.3598 115.315 77.7018 115.87C78.8501 116.33 80.1454 116.224 81.3681 115.809C83.7057 115.015 85.7565 113.172 85.7565 113.172C85.9457 113.012 85.969 112.728 85.8092 112.539C85.6494 112.35 85.3657 112.326 85.1765 112.486C85.1765 112.486 83.1929 114.047 81.0118 114.657C80.0705 114.92 79.0887 115.007 78.2368 114.619C77.4676 114.279 77.2051 113.786 77.1324 112.995C77.0386 111.972 77.2139 110.559 77.3038 108.56C77.3849 106.758 77.3816 104.503 77.1179 101.663C77.1046 101.435 76.9087 101.261 76.6806 101.274C76.4519 101.287 76.2777 101.483 76.291 101.711Z" fill="black"/>
<path fill-rule="evenodd" clip-rule="evenodd" d="M61.1978 53.2139C60.2665 53.2195 59.4068 53.2145 58.6442 53.2045C56.4869 53.1762 55.1133 53.1068 55.1133 53.1068C54.8769 53.0929 54.646 53.185 54.4845 53.3582C54.3224 53.5319 54.2464 53.7678 54.2764 54.0031C54.2764 54.0031 54.5328 55.9212 54.9191 57.8393C55.105 58.7639 55.3214 59.6885 55.5523 60.4061C55.6433 60.6947 55.897 60.9012 56.1978 60.9317C57.4204 61.0472 58.6459 61.1254 59.8586 61.1737C60.9047 61.2153 61.9409 61.2353 62.9577 61.2364C63.1997 62.2376 63.4311 63.1451 63.6381 63.9321C64.167 65.9412 64.54 67.1666 64.54 67.1666C64.6244 67.4491 64.8819 67.6445 65.1771 67.65C65.1771 67.65 66.6995 67.6683 68.6209 67.5867C69.7093 67.5401 70.9253 67.4613 72.0658 67.3287C72.2567 67.3076 72.4288 67.2016 72.5331 67.0406C72.638 66.8791 72.6652 66.6793 72.6064 66.4962C72.2861 65.5027 71.9881 64.4432 71.7106 63.3493C71.5019 62.5251 71.3054 61.6815 71.1206 60.8313C72.3588 60.7319 73.4844 60.6187 74.4628 60.5094C76.9637 60.2291 78.5049 59.9655 78.5049 59.9655C78.6747 59.9361 78.824 59.8367 78.9161 59.6913C79.0077 59.5465 79.0344 59.3689 78.9883 59.2029C78.9883 59.2029 78.597 57.791 78.2507 55.9656C78.057 54.9461 77.8783 53.7967 77.7878 52.6944C77.7723 52.5157 77.6813 52.352 77.537 52.2454C77.3932 52.1389 77.2101 52.0995 77.0347 52.1378C75.8026 52.3981 74.4884 52.6062 73.1386 52.771C72.0419 52.9048 70.9219 53.0091 69.8042 53.0907C69.6332 51.8614 69.4906 50.7203 69.374 49.7218C69.0943 47.3204 68.9672 45.7425 68.9672 45.7425C68.9328 45.3584 68.6004 45.0698 68.2146 45.0909C68.2146 45.0909 66.0229 45.1936 63.95 45.2719C62.8611 45.3129 61.8049 45.3473 61.1201 45.3557C60.9075 45.3601 60.7055 45.4522 60.5629 45.6104C60.4197 45.7686 60.3486 45.9789 60.3658 46.1915C60.4624 47.5246 60.6017 48.8733 60.7704 50.2102C60.8975 51.222 61.0424 52.2277 61.1978 53.2139ZM62.1968 54.8967C62.446 54.895 62.6818 54.7834 62.8411 54.592C63.001 54.4005 63.0676 54.1485 63.0243 53.9032C62.7873 52.6306 62.5653 51.3186 62.3738 49.9932C62.2234 48.956 62.0919 47.9103 61.9848 46.8708C62.5836 46.8453 63.294 46.8098 64.0188 46.7709C65.3847 46.6971 66.8022 46.6122 67.613 46.5628C67.6874 47.2521 67.8195 48.4176 68.011 49.89C68.1636 51.0583 68.3528 52.4203 68.5815 53.8904C68.6326 54.2318 68.9378 54.4765 69.2825 54.4521C70.6261 54.3489 71.9792 54.214 73.2995 54.0409C74.439 53.891 75.554 53.7128 76.6173 53.4997C76.7256 54.4227 76.8826 55.3523 77.0469 56.197C77.2628 57.307 77.492 58.2688 77.6435 58.8699C76.9764 58.9709 75.8281 59.1319 74.3285 59.2967C73.1802 59.4227 71.8266 59.5492 70.3253 59.6541C70.1483 59.6669 69.9851 59.7557 69.8774 59.8972C69.7703 60.0393 69.7292 60.2202 69.7648 60.3945C69.9868 61.4945 70.2282 62.5901 70.489 63.654C70.6972 64.5026 70.9181 65.3312 71.1523 66.1254C70.2781 66.1981 69.3879 66.2425 68.5715 66.2692C67.35 66.3086 66.2932 66.308 65.7027 66.3025C65.5556 65.7758 65.2987 64.8339 64.984 63.5857C64.7514 62.6633 64.4878 61.5739 64.2136 60.3617C64.1387 60.0387 63.8512 59.8106 63.5193 59.8101C62.3455 59.8034 61.1423 59.7729 59.9257 59.7096C58.9101 59.6569 57.885 59.5809 56.8605 59.4798C56.7056 58.8949 56.563 58.2194 56.4359 57.544C56.2405 56.5062 56.084 55.4694 55.9836 54.7507C56.6074 54.7812 57.5087 54.819 58.6115 54.8484C59.6493 54.8761 60.8653 54.8967 62.1968 54.8967Z" fill="black"/>
<path fill-rule="evenodd" clip-rule="evenodd" d="M117.136 245.858C116.527 248.385 117.504 250.393 119.397 251.09C120.779 251.599 122.789 251.414 125.188 250.016C125.347 250.761 125.638 251.337 126.011 251.776C126.54 252.398 127.241 252.766 128.05 252.925C129.899 253.286 132.379 252.455 134.158 251.477C134.222 251.629 134.301 251.773 134.396 251.908C134.811 252.504 135.541 252.957 136.581 253.119C137.832 253.313 139.596 253.092 141.755 252.219C145.193 250.831 148.387 250.08 151.935 249.767C155.064 249.491 158.466 249.554 162.541 249.817C165.41 250.002 167.469 248.778 168.591 246.734C169.547 244.995 169.815 242.626 169.245 239.992C168.877 238.293 167.586 235.972 165.947 233.664C163.688 230.485 160.783 227.319 158.876 225.851C156.83 224.269 152.143 220.907 148.434 218.474C146.258 217.047 144.404 215.942 143.578 215.663C143.212 215.539 142.561 215.511 141.705 215.603C140.145 215.768 137.801 216.295 135.306 216.985C130.573 218.294 125.31 220.206 123.792 221.328C122.576 222.226 120.735 224.99 118.918 228.21C116.696 232.149 114.472 236.764 113.407 239.254C112.375 241.663 112.63 243.487 113.477 244.586C114.246 245.586 115.569 246.076 117.136 245.858ZM119.247 244.967C119.401 244.648 119.341 244.268 119.095 244.013C118.851 243.758 118.473 243.683 118.148 243.824C116.726 244.451 115.428 244.411 114.772 243.577C114.176 242.82 114.175 241.555 114.874 239.873C115.901 237.407 118.051 232.835 120.208 228.93C121.87 225.919 123.507 223.298 124.63 222.452C125.875 221.517 129.792 220.035 133.742 218.818C136.628 217.929 139.535 217.188 141.461 216.92C142.257 216.809 142.859 216.76 143.175 216.865C144.143 217.187 146.581 218.717 149.265 220.515C152.633 222.77 156.37 225.455 158.135 226.813C159.974 228.233 162.771 231.299 164.944 234.375C166.462 236.524 167.683 238.673 168.019 240.255C168.504 242.545 168.308 244.607 167.47 246.115C166.57 247.735 164.909 248.663 162.63 248.502C157.521 248.142 153.448 248.103 149.648 248.628C146.79 249.023 144.086 249.738 141.218 250.876C139.374 251.607 137.878 251.83 136.814 251.656C135.915 251.51 135.387 251.053 135.492 250.338C135.535 250.042 135.398 249.748 135.143 249.591C134.889 249.434 134.565 249.442 134.32 249.612C132.864 250.611 130.229 251.78 128.354 251.399C127.309 251.187 126.633 250.368 126.643 248.647C126.643 248.351 126.479 248.078 126.215 247.941C125.952 247.804 125.634 247.825 125.391 247.995C123.093 249.595 121.224 250.025 119.971 249.552C118.473 248.987 118.204 247.108 119.247 244.967Z" fill="black"/>
<path fill-rule="evenodd" clip-rule="evenodd" d="M139.292 224.015C136.522 224.909 134.398 225.74 132.585 226.757C131.127 227.576 129.87 228.513 128.647 229.688C127.829 230.473 127.026 231.364 126.197 232.407C125.512 233.27 124.809 234.238 124.061 235.33C122.445 237.691 120.621 240.645 118.244 244.391C118.097 244.614 118.159 244.915 118.382 245.062C118.605 245.208 118.906 245.147 119.053 244.923C121.544 241.27 123.49 238.41 125.148 236.09C125.901 235.035 126.595 234.094 127.259 233.244C128.043 232.239 128.783 231.364 129.539 230.586C132.087 227.961 134.797 226.444 139.513 224.64C139.685 224.579 139.776 224.39 139.715 224.217C139.654 224.045 139.464 223.954 139.292 224.015Z" fill="black"/>
<path fill-rule="evenodd" clip-rule="evenodd" d="M145.976 231.52C143.529 232.333 141.464 233.107 139.605 234.031C137.515 235.07 135.672 236.272 133.858 237.889C132.607 239.004 131.376 240.323 130.078 241.908C128.594 243.719 127.039 245.896 125.251 248.529C125.096 248.747 125.148 249.049 125.366 249.204C125.584 249.358 125.886 249.306 126.041 249.088C128.353 245.947 130.316 243.515 132.131 241.533C132.898 240.695 133.638 239.94 134.37 239.247C135.174 238.487 135.968 237.802 136.782 237.174C139.426 235.137 142.284 233.704 146.204 232.143C146.376 232.08 146.465 231.889 146.401 231.717C146.339 231.546 146.148 231.457 145.976 231.52Z" fill="black"/>
<path fill-rule="evenodd" clip-rule="evenodd" d="M152.67 239.448C150.806 239.617 148.98 239.88 147.209 240.333C145.401 240.795 143.647 241.433 141.989 242.345C140.707 243.05 139.486 243.924 138.332 244.971C136.797 246.364 135.394 248.083 134.113 250.171C133.969 250.395 134.032 250.695 134.257 250.84C134.481 250.985 134.781 250.921 134.926 250.697C136.243 248.768 137.68 247.221 139.183 245.938C140.296 244.987 141.454 244.197 142.645 243.514C144.205 242.619 145.821 241.913 147.509 241.368C149.205 240.821 150.954 240.408 152.755 240.106C152.937 240.082 153.065 239.916 153.042 239.734C153.018 239.553 152.852 239.425 152.67 239.448Z" fill="black"/>
<path fill-rule="evenodd" clip-rule="evenodd" d="M127.378 220.538L136.935 200.975C137.709 199.467 136.727 197.911 135.237 197.215C133.825 196.555 132.075 196.723 131.218 198.226C130.751 199.048 127.947 204.088 124.514 210.38C122.425 214.209 120.101 218.501 117.921 222.584C113.629 230.627 109.885 237.855 109.409 239.098C108.702 240.955 108.112 244.001 108.127 246.291C108.132 247.219 108.239 248.029 108.458 248.611C108.643 249.103 108.912 249.456 109.237 249.659C109.476 249.809 109.796 249.893 110.188 249.869C110.825 249.83 111.727 249.496 112.68 248.899C113.855 248.162 115.13 247.034 116.083 245.685C116.268 245.429 116.209 245.072 115.953 244.888C115.698 244.703 115.34 244.762 115.156 245.017C114.435 245.999 113.521 246.843 112.627 247.471C111.859 248.011 111.107 248.39 110.509 248.542C110.255 248.607 110.049 248.664 109.922 248.582C109.752 248.472 109.677 248.23 109.602 247.935C109.433 247.266 109.421 246.34 109.499 245.327C109.652 243.366 110.168 241.089 110.754 239.622C111.062 238.846 112.724 235.714 114.986 231.499C117.499 226.817 120.766 220.824 123.787 215.244C128.152 207.179 132.017 199.984 132.573 198.987C132.992 198.232 133.895 198.269 134.604 198.591C135.33 198.919 135.988 199.576 135.622 200.311C135.184 201.192 133.611 204.52 131.881 208.2C129.286 213.724 126.339 220.043 126.339 220.043C126.202 220.33 126.324 220.673 126.611 220.811C126.898 220.947 127.241 220.825 127.378 220.538Z" fill="black"/>
<path fill-rule="evenodd" clip-rule="evenodd" d="M134.363 197.634L135.699 195.066C135.734 194.996 135.824 195.033 135.904 195.036C136.17 195.048 136.467 195.196 136.673 195.406C136.84 195.575 136.957 195.801 136.813 196.063C136.578 196.51 136.379 196.896 136.22 197.222C135.845 197.996 135.675 198.416 135.675 198.416C135.574 198.616 135.655 198.86 135.855 198.961C136.055 199.061 136.299 198.98 136.4 198.78L137.799 196.658C138.437 195.678 137.98 194.725 137.199 194.192C136.741 193.878 136.165 193.736 135.697 193.8C135.213 193.868 134.812 194.115 134.624 194.575L133.569 197.275C133.469 197.494 133.567 197.753 133.786 197.852C134.005 197.951 134.264 197.854 134.363 197.634Z" fill="black"/>
<path fill-rule="evenodd" clip-rule="evenodd" d="M121.044 211.506C121.029 211.288 120.93 211.077 120.751 210.924C120.265 210.521 119.804 210.458 119.423 210.547C118.826 210.688 118.322 211.276 118.227 211.979C118.154 212.518 118.299 213.076 118.683 213.439C118.985 213.725 119.437 213.942 120.108 213.848C121.195 213.696 122.093 212.866 122.839 211.381C123.645 209.774 124.355 207.36 125.324 204.503C126.1 202.224 127.237 200.362 128.434 199.191C129.594 198.058 130.774 197.542 131.675 198.157C131.871 198.296 132.144 198.249 132.283 198.052C132.421 197.856 132.374 197.583 132.178 197.444C131 196.584 129.339 196.993 127.741 198.459C126.405 199.684 125.099 201.653 124.18 204.093C123.142 206.838 122.381 209.166 121.542 210.701C121.375 211.005 121.213 211.277 121.044 211.506Z" fill="black"/>
<path fill-rule="evenodd" clip-rule="evenodd" d="M109.446 250.449L110.368 249.567C110.583 249.153 110.422 248.642 110.008 248.426C109.594 248.21 109.083 248.371 108.867 248.786L108.672 250.046C108.561 250.26 108.644 250.523 108.858 250.635C109.071 250.746 109.335 250.662 109.446 250.449Z" fill="black"/>
<path fill-rule="evenodd" clip-rule="evenodd" d="M152.252 221.907C154.53 221.425 156.089 220.703 157.418 219.818C158.789 218.902 159.907 217.805 161.33 216.585C162.785 215.336 164.575 213.955 167.37 212.531C169.279 211.531 171.203 211.014 173.075 210.81C175.169 210.584 177.202 210.754 179.095 211.161C185.407 212.518 190.169 216.404 190.169 216.404C190.355 216.564 190.635 216.543 190.796 216.357C190.956 216.171 190.935 215.889 190.749 215.729C190.749 215.729 185.966 211.414 179.427 209.748C177.392 209.229 175.188 208.967 172.913 209.17C170.839 209.356 168.71 209.94 166.591 211.031C163.669 212.578 161.799 214.054 160.294 215.403C158.944 216.612 157.902 217.712 156.603 218.635C155.421 219.476 154.025 220.17 151.97 220.674C151.63 220.752 151.417 221.091 151.495 221.431C151.572 221.771 151.911 221.984 152.252 221.907Z" fill="black"/>
<path fill-rule="evenodd" clip-rule="evenodd" d="M167.845 247.629C170.854 247.78 181.818 246.218 191.338 242.284C196.823 240.017 201.816 236.951 204.615 233.033C206.151 230.876 206.815 226.662 206.63 221.05C206.251 209.552 202.486 192.006 196.962 174.763C192.46 160.71 186.785 146.858 180.834 136.642C177.158 130.333 173.36 125.403 169.677 122.615C164.438 118.664 157.782 115.547 151.063 113.153C136.03 107.798 120.725 106.011 120.725 106.011C120.376 105.968 120.058 106.216 120.015 106.565C119.972 106.914 120.22 107.232 120.569 107.274C120.569 107.274 135.686 109.232 150.524 114.649C157.063 117.035 163.556 120.085 168.65 123.969C172.191 126.659 175.807 131.435 179.34 137.511C185.228 147.641 190.837 161.37 195.304 175.295C200.78 192.364 204.532 209.726 204.942 221.109C205.126 226.238 204.68 230.113 203.286 232.092C200.666 235.82 195.928 238.707 190.758 240.898C181.507 244.818 170.839 246.484 167.902 246.366C167.553 246.35 167.257 246.62 167.242 246.969C167.226 247.318 167.496 247.614 167.845 247.629Z" fill="black"/>
<path fill-rule="evenodd" clip-rule="evenodd" d="M161.43 158.783C160.225 161.097 159.723 164.779 159.784 168.893C159.858 173.842 160.733 179.412 161.804 183.899C162.693 187.539 164.214 192.533 165.752 197.187C166.357 199.019 166.964 200.798 167.538 202.421C169.123 206.903 170.403 210.203 170.403 210.203C170.522 210.534 170.886 210.707 171.217 210.589C171.548 210.471 171.721 210.106 171.603 209.775C171.603 209.775 170.299 205.753 168.641 200.594C167.717 197.72 166.666 194.498 165.725 191.407C164.845 188.514 164.043 185.741 163.497 183.488C162.418 179.116 161.591 173.681 161.412 168.851C161.271 165.008 161.516 161.549 162.562 159.346C162.717 159.033 162.59 158.653 162.277 158.498C161.965 158.342 161.585 158.47 161.43 158.783Z" fill="black"/>
<path fill-rule="evenodd" clip-rule="evenodd" d="M59.7792 112.537C54.1881 114.68 47.6924 117.792 42.1807 121.117C37.7462 123.791 33.9517 126.613 31.7306 129.155C29.934 131.225 26.6346 137.7 22.8672 146.512C17.8772 158.184 12.017 173.98 7.53648 188.886C4.2592 199.789 1.72896 210.223 0.814317 218.235C0.141102 224.135 0.375863 228.762 1.73117 231.394C2.42159 232.729 3.682 233.866 5.37419 234.796C7.17294 235.785 9.46954 236.556 12.0203 237.144C22.9827 239.669 38.7225 238.875 38.7225 238.875C39.0804 238.859 39.3585 238.554 39.3424 238.196C39.3263 237.838 39.0222 237.56 38.6642 237.576C38.6642 237.576 26.3671 238.054 16.0596 236.329C12.8534 235.792 9.8425 235.044 7.47043 233.991C5.47798 233.107 3.94285 232.028 3.22856 230.626C1.97926 228.185 1.8838 223.894 2.51705 218.431C3.43669 210.502 5.96416 200.182 9.21035 189.39C13.6748 174.547 19.5145 158.823 24.4451 147.184C28.087 138.585 31.2039 132.227 32.9422 130.2C35.0528 127.723 38.6947 124.982 42.9327 122.343C48.3329 118.98 54.6987 115.791 60.1904 113.584C60.4796 113.471 60.6222 113.144 60.5084 112.855C60.3952 112.566 60.0683 112.423 59.7792 112.537Z" fill="black"/>
<path fill-rule="evenodd" clip-rule="evenodd" d="M45.0372 205.574C44.5339 205.558 44.0771 205.554 43.6719 205.565C39.0777 205.689 36.1384 206.462 34.4911 207.501C32.6657 208.654 32.2339 210.139 32.7434 211.602C33.0426 212.462 33.94 213.079 35.2448 213.286C36.8366 213.539 39.0715 213.22 41.1078 212.327C43.4211 211.311 45.459 209.567 46.0912 207.173C49.3163 207.39 53.9838 208.034 59.1759 208.868C63.7885 209.61 68.8107 210.508 73.6097 211.396C84.0454 213.329 93.4194 215.245 95.1771 215.639C96.5002 215.935 97.4903 216.374 98.1563 216.915C98.981 217.587 99.243 218.414 98.9155 219.225C98.3988 220.503 96.5845 225.032 94.3534 230.29C93.3983 232.54 92.3682 234.923 91.3281 237.242C89.2075 237.489 84.6298 237.688 79.268 237.852C66.7616 238.234 50.015 238.407 50.015 238.407C49.767 238.408 49.5666 238.61 49.5671 238.858C49.5683 239.106 49.7703 239.307 50.0184 239.306C50.0184 239.306 66.7794 239.352 79.2991 239.12C85.0855 239.013 89.9712 238.842 91.9048 238.59C92.1445 238.558 92.351 238.404 92.4514 238.184C93.8684 235.115 95.2786 231.912 96.5129 229.041C98.4233 224.598 99.9145 220.948 100.38 219.823C100.877 218.619 100.709 217.37 99.7991 216.285C99.0188 215.354 97.6268 214.53 95.5356 214.052C93.2579 213.536 78.2318 210.39 64.6149 208.09C57.4315 206.876 50.6372 205.908 46.2971 205.636C46.468 200.985 46.3842 193.627 44.5755 185.536C43.2035 179.396 40.8392 172.834 36.8465 166.711C36.7267 166.525 36.478 166.471 36.2921 166.591C36.1056 166.711 36.0518 166.96 36.1717 167.146C40.03 173.216 42.2778 179.7 43.5593 185.756C45.2498 193.746 45.2559 200.993 45.0372 205.574ZM44.7797 207.106C44.3901 207.093 44.0316 207.09 43.7063 207.096C40.3436 207.158 37.9294 207.571 36.3099 208.217C34.4057 208.975 33.7008 210.002 34.0865 211.141C34.2397 211.593 34.7875 211.79 35.4707 211.906C36.8532 212.138 38.7952 211.854 40.5745 211.094C42.4421 210.296 44.1531 208.973 44.7797 207.106Z" fill="black"/>
<path fill-rule="evenodd" clip-rule="evenodd" d="M100.423 220.046C101.939 220.411 103.624 220.926 105.432 221.556C106.481 221.921 107.57 222.329 108.689 222.779C109.477 223.095 110.282 223.423 111.096 223.784C112.877 224.575 114.701 225.49 116.501 226.602C116.768 226.78 117.128 226.707 117.305 226.441C117.482 226.174 117.41 225.814 117.144 225.637C115.367 224.366 113.566 223.273 111.774 222.36C110.953 221.942 110.136 221.557 109.323 221.221C108.17 220.744 107.032 220.348 105.93 220.017C104.04 219.451 102.259 219.085 100.676 218.816C100.336 218.746 100.004 218.964 99.9345 219.304C99.8646 219.644 100.084 219.976 100.423 220.046Z" fill="black"/>
<path fill-rule="evenodd" clip-rule="evenodd" d="M96.8017 238.61C99.413 238.885 101.963 239.143 104.405 239.489C106.124 239.733 107.787 240.022 109.379 240.392C109.779 240.475 110.172 240.218 110.256 239.817C110.339 239.417 110.082 239.024 109.681 238.94C108.036 238.637 106.322 238.418 104.552 238.249C102.083 238.013 99.5107 237.871 96.875 237.714C96.628 237.694 96.411 237.878 96.391 238.126C96.3705 238.373 96.5548 238.59 96.8017 238.61Z" fill="black"/>
<path fill-rule="evenodd" clip-rule="evenodd" d="M78.102 238.158C67.996 241.707 61.1067 249.088 51.1778 253.599C45.8182 256.033 39.5561 257.617 31.3571 257.242C30.9985 257.227 30.6705 257.442 30.5407 257.776C30.4108 258.11 30.5074 258.49 30.781 258.721C35.8909 263.051 44.5228 265.604 55.1016 267.042C65.6333 268.474 78.1086 268.847 90.8891 268.914C98.8473 268.956 106.924 268.863 114.724 268.878C114.871 268.879 115.014 268.835 115.137 268.754C119.583 265.736 123.382 263.543 127.787 260.028C130.095 258.184 132.571 255.981 135.391 253.106C135.61 252.886 135.609 252.53 135.389 252.311C135.169 252.092 134.812 252.093 134.593 252.313C131.775 255.109 129.306 257.249 127.006 259.035C122.646 262.42 118.888 264.534 114.512 267.408C106.783 267.321 98.7846 267.304 90.9025 267.218C78.2013 267.078 65.8059 266.716 55.3375 265.3C46.4553 264.099 38.97 262.175 33.9273 258.949C41.1556 258.853 46.8566 257.252 51.7955 254.937C61.6545 250.318 68.4155 242.825 78.4555 239.143C78.7274 239.045 78.869 238.745 78.7713 238.474C78.6736 238.202 78.3739 238.06 78.102 238.158Z" fill="black"/>
<path fill-rule="evenodd" clip-rule="evenodd" d="M108.916 262.807C104.297 262.439 99.9317 262.196 95.7764 262.031C92.7473 261.91 89.8307 261.827 87.0119 261.755C85.0194 261.706 83.0753 261.66 81.1749 261.617C78.1602 261.55 75.2553 261.479 72.4359 261.35C67.0125 261.102 61.9098 260.659 56.9675 259.689C56.7394 259.641 56.5146 259.788 56.4669 260.016C56.4192 260.245 56.5657 260.469 56.7943 260.517C61.7599 261.62 66.897 262.228 72.3688 262.579C75.197 262.761 78.1147 262.878 81.1428 262.956C83.0453 263.005 84.9911 263.034 86.9869 263.061C89.8024 263.1 92.7156 263.131 95.7431 263.187C99.889 263.264 104.248 263.377 108.862 263.625C109.088 263.64 109.283 263.469 109.298 263.243C109.313 263.017 109.142 262.822 108.916 262.807Z" fill="black"/>
<path fill-rule="evenodd" clip-rule="evenodd" d="M115.826 255.35C111.207 254.982 106.842 254.739 102.686 254.574C99.6571 254.453 96.7406 254.37 93.9218 254.298C91.9293 254.249 89.9852 254.203 88.0848 254.16C85.0701 254.093 82.1652 254.022 79.3458 253.893C73.9224 253.645 68.8197 253.202 63.8774 252.232C63.6493 252.184 63.4245 252.331 63.3768 252.559C63.3291 252.788 63.4756 253.012 63.7043 253.06C68.6698 254.163 73.8069 254.771 79.2787 255.122C82.1069 255.304 85.0246 255.421 88.0527 255.499C89.9552 255.548 91.901 255.577 93.8968 255.604C96.7123 255.643 99.6255 255.674 102.653 255.73C106.799 255.807 111.158 255.92 115.772 256.168C115.997 256.183 116.193 256.012 116.208 255.786C116.223 255.56 116.052 255.365 115.826 255.35Z" fill="black"/>
<path fill-rule="evenodd" clip-rule="evenodd" d="M112.544 259.039C108.052 258.666 104.18 258.42 100.765 258.282C98.3506 258.184 96.1656 258.134 94.1554 258.113C92.5903 258.098 91.1312 258.101 89.7514 258.112C87.3627 258.131 85.2137 258.169 83.1652 258.163C79.8297 258.153 76.7627 258.042 73.355 257.595C73.1242 257.56 72.9088 257.72 72.8744 257.951C72.8406 258.182 72.9998 258.397 73.2307 258.431C75.9608 258.886 78.4788 259.132 81.0934 259.263C83.4605 259.382 85.9047 259.417 88.6547 259.431C90.216 259.439 91.876 259.441 93.6775 259.443C95.9358 259.446 98.4155 259.451 101.202 259.498C104.493 259.551 108.208 259.644 112.49 259.857C112.716 259.872 112.911 259.701 112.926 259.475C112.941 259.249 112.77 259.054 112.544 259.039Z" fill="black"/>
<path fill-rule="evenodd" clip-rule="evenodd" d="M119.348 252.176C118.013 252.01 116.758 251.803 115.546 251.637C115.028 251.566 114.52 251.502 114.019 251.451C113.674 251.415 113.332 251.386 112.994 251.365C111.484 251.275 110.059 251.266 108.682 251.298C108.448 251.291 108.253 251.475 108.246 251.708C108.239 251.941 108.422 252.136 108.655 252.144C109.68 252.237 110.722 252.395 111.815 252.536C112.503 252.625 113.206 252.719 113.932 252.787C114.625 252.853 115.337 252.893 116.069 252.927C117.103 252.976 118.173 252.988 119.293 252.994C119.519 253.009 119.714 252.838 119.729 252.612C119.744 252.387 119.573 252.191 119.348 252.176Z" fill="black"/>
<path fill-rule="evenodd" clip-rule="evenodd" d="M121.32 102.033C123.746 103.736 125.352 106.075 126.442 108.825C126.816 109.767 127.128 110.757 127.397 111.789C127.57 112.453 127.73 113.132 127.87 113.827C128.122 115.084 128.316 116.391 128.454 117.743C128.585 119.037 128.679 120.366 128.717 121.729C128.715 122.054 128.977 122.32 129.302 122.322C129.627 122.324 129.892 122.062 129.895 121.737C129.954 120.34 129.97 118.971 129.913 117.638C129.854 116.221 129.72 114.846 129.499 113.528C129.375 112.785 129.223 112.058 129.034 111.356C128.735 110.247 128.355 109.192 127.899 108.199C127.366 107.037 126.728 105.961 125.976 104.985C124.844 103.513 123.464 102.268 121.797 101.293C121.593 101.161 121.32 101.22 121.188 101.424C121.056 101.629 121.116 101.902 121.32 102.033Z" fill="black"/>
<path fill-rule="evenodd" clip-rule="evenodd" d="M123.351 178.8C123.268 177.919 122.81 177.196 122.1 176.713C121.235 176.125 120.025 175.871 118.946 176.117C118.061 176.309 117.174 176.829 116.531 177.401C115.8 178.05 115.419 178.798 115.475 179.247C115.521 179.681 116.027 180.341 116.831 180.888C117.553 181.379 118.499 181.808 119.385 181.944C120.364 182.105 121.352 181.94 122.089 181.459C122.857 180.959 123.366 180.103 123.351 178.8ZM116.661 179.135C116.717 179.134 116.708 179.004 116.756 178.932C116.93 178.664 117.238 178.372 117.61 178.113C118.073 177.79 118.64 177.529 119.197 177.439C119.782 177.349 120.412 177.482 120.912 177.766C121.34 178.009 121.655 178.395 121.661 178.888C121.719 179.51 121.567 179.961 121.218 180.228C120.785 180.559 120.17 180.664 119.558 180.607C118.976 180.547 118.352 180.332 117.824 180.051C117.403 179.825 117.04 179.565 116.812 179.316C116.747 179.245 116.682 179.191 116.661 179.135Z" fill="black"/>
<path fill-rule="evenodd" clip-rule="evenodd" d="M129.975 179.455C130.099 180.735 130.672 181.527 131.453 181.948C132.229 182.366 133.222 182.435 134.171 182.17C135.022 181.941 135.9 181.412 136.55 180.844C137.265 180.219 137.682 179.519 137.68 179.083C137.688 178.633 137.244 177.938 136.476 177.371C135.79 176.863 134.867 176.431 133.982 176.331C132.895 176.196 131.733 176.583 130.951 177.273C130.326 177.824 129.964 178.581 129.975 179.455ZM131.665 179.362C131.617 178.876 131.871 178.46 132.253 178.175C132.701 177.84 133.293 177.642 133.866 177.671C134.414 177.704 134.991 177.907 135.471 178.181C135.856 178.4 136.184 178.657 136.378 178.905C136.431 178.973 136.492 179.021 136.492 179.075C136.491 179.141 136.428 179.208 136.365 179.295C136.173 179.566 135.851 179.861 135.47 180.127C134.99 180.462 134.411 180.741 133.854 180.86C133.271 180.979 132.668 180.937 132.22 180.649C131.859 180.417 131.673 179.984 131.665 179.362Z" fill="black"/>
<path fill-rule="evenodd" clip-rule="evenodd" d="M137.108 179.735C138.492 179.701 139.9 179.625 140.901 178.91C141.769 178.289 142.391 177.2 142.406 175.203C142.498 160.159 140.685 146.048 138.038 136.159C136.46 130.261 134.561 125.846 132.639 123.556C131.518 122.221 130.342 121.568 129.223 121.555C128.674 121.549 128.082 121.731 127.472 122.123C126.705 122.615 125.874 123.465 125.024 124.634C122.551 128.032 119.772 134.236 117.305 141.509C113.623 152.362 110.614 165.6 110.159 175.293C110.093 176.737 110.313 177.79 110.985 178.504C111.735 179.302 113.122 179.724 115.596 179.64C115.911 179.631 116.16 179.368 116.151 179.053C116.143 178.738 115.88 178.489 115.564 178.498C114.007 178.532 112.962 178.396 112.285 178.02C111.424 177.543 111.316 176.647 111.393 175.358C111.943 165.777 115.088 152.73 118.812 142.027C121.268 134.966 123.969 128.929 126.386 125.629C126.975 124.825 127.539 124.192 128.079 123.764C128.484 123.445 128.851 123.239 129.206 123.241C129.595 123.245 129.98 123.413 130.372 123.697C130.912 124.088 131.445 124.688 131.979 125.464C134.133 128.597 136.17 134.451 137.794 141.979C139.779 151.184 141.128 162.868 141.177 175.202C141.184 176.656 140.832 177.489 140.205 177.949C139.387 178.548 138.213 178.551 137.073 178.593C136.758 178.603 136.51 178.866 136.52 179.182C136.53 179.496 136.793 179.744 137.108 179.735Z" fill="black"/>
<path fill-rule="evenodd" clip-rule="evenodd" d="M71.6578 175.495C75.2054 171.807 76.1267 167.34 75.2659 163.329C74.3296 158.97 71.266 155.155 67.1379 153.408C62.4998 151.464 57.6646 152.276 54.2403 155.085C51.0968 157.664 49.1348 161.935 49.6249 167.297C50.1655 172.918 53.7435 176.849 58.1103 178.486C62.6513 180.187 68.0342 179.408 71.6578 175.495ZM70.827 174.71C67.5064 178.159 62.6674 178.762 58.6181 177.166C54.7753 175.651 51.6434 172.139 51.2377 167.154C50.8298 162.424 52.5414 158.665 55.3092 156.386C58.2879 153.935 62.4809 153.205 66.5352 154.864C70.2481 156.368 73.017 159.749 73.92 163.63C74.7631 167.252 73.98 171.307 70.827 174.71Z" fill="black"/>
<path fill-rule="evenodd" clip-rule="evenodd" d="M63.4205 162.131C62.4265 161.743 61.3715 161.933 60.5184 162.509C59.9734 162.877 59.5178 163.422 59.2425 164.077C59.0543 164.525 58.9528 165.029 58.9622 165.558C58.98 166.524 59.3307 167.58 60.1655 168.6C60.2731 168.76 60.4907 168.802 60.65 168.694C60.8093 168.586 60.8509 168.368 60.7427 168.209C60.3875 167.559 60.2337 166.933 60.1793 166.349C60.1183 165.695 60.2598 165.113 60.4796 164.6C60.7199 164.039 61.0662 163.56 61.5302 163.253C62.0253 162.925 62.5986 162.734 63.2119 162.852C63.4105 162.909 63.6187 162.795 63.6764 162.596C63.7341 162.397 63.6192 162.189 63.4205 162.131Z" fill="black"/>
<path fill-rule="evenodd" clip-rule="evenodd" d="M58.4638 153.549C58.4638 153.549 58.6325 151.099 58.7274 148.699C58.7752 147.494 58.7952 146.305 58.7929 145.443C58.7868 145.075 58.9922 144.818 59.2669 144.643C59.6121 144.425 60.0672 144.338 60.5245 144.345C61.3731 144.358 62.2989 144.698 62.4581 145.608C62.6246 146.478 62.7995 147.6 62.9721 148.722C63.3362 151.088 63.6664 153.44 63.6664 153.44C63.6864 153.668 63.8873 153.837 64.1148 153.817C64.3429 153.797 64.5116 153.596 64.4917 153.368C64.4917 153.368 64.4095 150.982 64.2491 148.582C64.1725 147.428 64.071 146.275 63.9694 145.379C63.7457 143.648 62.1651 142.7 60.5634 142.656C58.7724 142.608 57.1118 143.694 57.2056 145.503L57.5658 153.536C57.5619 153.784 57.7601 153.988 58.0082 153.992C58.2562 153.995 58.4605 153.797 58.4638 153.549Z" fill="black"/>
<path fill-rule="evenodd" clip-rule="evenodd" d="M60.7566 143.063C60.746 140.932 60.7743 138.748 60.8248 136.594C60.8587 135.138 60.9131 133.703 60.9869 132.31C61.039 131.34 61.1018 130.393 61.175 129.476C61.2943 127.982 61.4486 126.573 61.6978 125.29C62.265 122.371 63.2346 120.11 65.0633 119.118C65.2687 119.018 65.3536 118.769 65.2531 118.564C65.1521 118.359 64.9041 118.274 64.6987 118.375C63.1497 119.052 61.9859 120.478 61.1339 122.432C60.5035 123.879 60.0484 125.62 59.7387 127.553C59.6105 128.356 59.5061 129.192 59.4373 130.054C59.3419 131.262 59.3058 132.52 59.3086 133.806C59.3113 135.032 59.3568 136.282 59.4257 137.539C59.5283 139.403 59.6937 141.274 59.8597 143.105C59.8713 143.352 60.0817 143.544 60.3292 143.533C60.5767 143.521 60.7682 143.31 60.7566 143.063Z" fill="black"/>
<path fill-rule="evenodd" clip-rule="evenodd" d="M107.675 131.027C104.895 134.901 102.295 139.695 100.088 144.936C98.744 148.128 97.533 151.481 96.5179 154.882C95.4973 158.301 94.6798 161.77 94.0404 165.15C92.9654 170.833 92.4442 176.278 92.5147 180.908C92.5136 181.136 92.6979 181.323 92.9265 181.324C93.1552 181.325 93.3417 181.141 93.3428 180.912C93.4566 176.347 94.2369 171.013 95.4701 165.444C96.2044 162.129 97.119 158.738 98.1363 155.368C99.1475 152.018 100.265 148.691 101.502 145.508C103.529 140.293 105.833 135.454 108.415 131.536C108.556 131.332 108.504 131.052 108.3 130.911C108.096 130.771 107.816 130.822 107.675 131.027Z" fill="black"/>
<path fill-rule="evenodd" clip-rule="evenodd" d="M80.4968 135.772C81.3154 138.351 82.3427 141.337 83.6059 144.417C84.3662 146.271 85.1982 148.162 86.1178 150.011C87.038 151.861 88.0497 153.665 89.0876 155.385C90.8048 158.228 92.6335 160.81 94.4323 162.904C94.5749 163.082 94.8357 163.111 95.0145 162.968C95.1932 162.825 95.2215 162.564 95.0788 162.386C93.9727 160.896 92.8905 159.171 91.8176 157.31C90.8458 155.623 89.8973 153.823 88.971 151.976C88.5393 151.114 88.1147 150.242 87.6862 149.371C87.0408 148.06 86.3992 146.748 85.7809 145.449C85.1421 144.105 84.52 142.782 83.9344 141.493C82.9604 139.347 82.0741 137.311 81.3431 135.471C81.2604 135.237 81.0035 135.115 80.7698 135.198C80.5361 135.281 80.4141 135.538 80.4968 135.772Z" fill="black"/>
<defs>
<linearGradient id="paint0_linear_669_8862" x1="57" y1="57" x2="80.0639" y2="56.2872" gradientUnits="userSpaceOnUse">
<stop stop-color="#B8181C"/>
<stop offset="1" stop-color="#B8181C" stop-opacity="0"/>
</linearGradient>
</defs>
</svg>
