<svg width="380" height="272" viewBox="0 0 380 272" fill="none" xmlns="http://www.w3.org/2000/svg">
<path fill-rule="evenodd" clip-rule="evenodd" d="M326 149C345.5 142 362 146.5 378.769 173.892C363.716 112.823 302.062 30.5975 191.645 27.6752C79.5252 24.7079 14.1953 107.545 0.655701 165.432C0.655701 165.432 14 136 38.5 148C47 122 93.5 111.5 117.5 127C126.15 114.275 160 96 186.405 104.8L191.645 106.484C191.645 106.484 206.5 108 227 130.5C235 127.5 284.5 94.5 326 149Z" fill="#FFFCDE"/>
<path fill-rule="evenodd" clip-rule="evenodd" d="M378.121 174.068C373.47 155.557 364.471 135.124 351.128 115.574C339.784 98.9532 325.28 82.9919 307.608 69.3761C277.973 46.5417 239.395 30.3233 191.614 29.0976C164.462 28.3632 140.073 32.7088 118.505 40.4973C102.112 46.4176 87.3532 54.3359 74.2475 63.5492C55.9589 76.4068 40.8934 91.7875 29.1549 107.831C14.9463 127.251 5.59421 147.619 1.29916 165.597C1.21167 165.969 0.85437 166.195 0.500702 166.105C0.148865 166.013 -0.0681152 165.637 0.0194092 165.265C4.18866 147.053 13.4259 126.357 27.6182 106.598C39.3548 90.2604 54.4695 74.554 72.8947 61.4332C86.1208 52.0149 101.055 43.9322 117.652 37.8891C139.475 29.9424 164.181 25.5407 191.681 26.2526C240.071 27.5725 279.186 43.9732 309.098 67.2472C326.913 81.1093 341.452 97.4132 352.778 114.339C366.076 134.213 374.92 154.968 379.423 173.715C379.516 174.093 379.299 174.479 378.94 174.576C378.581 174.674 378.214 174.446 378.121 174.068Z" fill="black"/>
<path fill-rule="evenodd" clip-rule="evenodd" d="M374.84 170.2C370.333 161.409 363.146 153.799 354.203 149.873C346.124 146.325 336.606 145.805 326.349 150.166C325.881 150.362 325.349 150.178 325.082 149.729C315.737 134.156 298.943 123.379 279.996 120.186C263.056 117.328 244.374 120.533 227.693 131.964C227.132 132.347 226.39 132.238 225.95 131.709C211.368 114.158 192.354 104.867 172.917 104.309C153.848 103.762 134.378 111.618 118.279 128.316C117.856 128.755 117.202 128.834 116.697 128.504C104.816 120.679 88.6968 119.037 73.985 122.578C58.9706 126.191 45.3872 135.209 39.2746 148.806C39.1707 149.038 38.9829 149.219 38.7514 149.303C38.5217 149.388 38.2683 149.37 38.0496 149.257C31.2151 145.625 24.2657 145.124 18.2625 147.473C12.3194 149.802 7.31888 154.909 4.24707 162.456C4.10672 162.809 3.72018 162.974 3.38477 162.824C3.04932 162.676 2.89255 162.27 3.03293 161.917C6.19403 153.904 11.459 148.484 17.7137 145.947C23.85 143.457 30.9562 143.741 38.0222 147.134C44.4319 133.385 58.1849 124.072 73.4709 120.253C88.4343 116.512 104.834 118.057 117.185 125.66C133.674 108.846 153.534 100.934 172.988 101.473C192.799 102.022 212.198 111.333 227.206 128.939C244.252 117.677 263.213 114.531 280.408 117.532C299.707 120.897 316.755 131.996 326.391 147.807C336.92 143.718 346.637 144.453 354.878 148.2C364.098 152.393 371.469 160.362 376.027 169.537C376.201 169.882 376.076 170.31 375.748 170.494C375.421 170.676 375.013 170.546 374.84 170.2Z" fill="black"/>
<path fill-rule="evenodd" clip-rule="evenodd" d="M367.478 168.817C359.281 165.908 351.394 164.784 344.02 166.266C336.807 167.72 330.095 171.677 324.068 178.871C323.791 179.201 323.321 179.254 322.982 178.995C309.843 168.967 294.192 165.595 278.985 167.561C263.79 169.525 249.038 176.817 237.668 188.13C237.477 188.32 237.218 188.416 236.955 188.393C236.693 188.37 236.45 188.232 236.292 188.011C231.322 181.17 224.326 175.821 216.188 171.997C208.689 168.472 200.222 166.243 191.46 165.34C190.913 165.283 190.514 164.77 190.569 164.195C190.621 163.62 191.11 163.2 191.657 163.257C200.632 164.205 209.3 166.518 216.975 170.148C225.066 173.976 232.051 179.272 237.141 185.974C248.712 174.832 263.533 167.672 278.775 165.743C294.17 163.794 309.995 167.175 323.343 177.164C329.528 170.033 336.388 166.109 343.729 164.652C351.35 163.138 359.498 164.291 367.961 167.319C368.353 167.459 368.564 167.91 368.431 168.322C368.298 168.735 367.871 168.957 367.478 168.817Z" fill="black"/>
<path d="M187 154H191V230.5L187 271V154Z" fill="white"/>
<path fill-rule="evenodd" clip-rule="evenodd" d="M186.44 165.004C175.794 164.496 164.903 165.919 154.935 169.341C144.54 172.912 135.15 178.656 128.113 186.669C127.927 186.88 127.664 186.997 127.391 186.989C127.117 186.979 126.86 186.847 126.689 186.623C118.37 175.846 104.514 169.941 90.3178 168.712C75.8485 167.459 61.0054 171.063 51.2541 179.446C51.0645 179.609 50.8147 179.674 50.5741 179.624C50.3335 179.574 50.1256 179.415 50.0089 179.187C46.3921 172.125 40.3925 167.039 33.8971 163.969C26.4646 160.455 18.3741 159.569 12.4401 161.447C12.0409 161.573 11.6161 161.335 11.4958 160.913C11.3755 160.492 11.6015 160.047 12.0026 159.92C18.2282 157.931 26.729 158.785 34.5443 162.452C41.078 165.518 47.1286 170.543 50.9733 177.465C61.0109 169.245 75.905 165.647 90.46 166.863C104.782 168.058 118.751 173.917 127.456 184.505C134.603 176.648 143.969 170.954 154.319 167.365C164.504 163.834 175.641 162.342 186.53 162.829C187.1 162.856 187.543 163.364 187.518 163.965C187.494 164.565 187.009 165.031 186.44 165.004Z" fill="black"/>
<path fill-rule="evenodd" clip-rule="evenodd" d="M192.597 106.218C192.597 106.218 192.473 138.531 192.236 170.843C191.999 203.158 191.649 235.468 191.649 235.468C191.649 235.752 191.428 235.98 191.16 235.978C190.89 235.978 190.673 235.746 190.673 235.464C190.673 235.464 190.593 203.15 190.626 170.836C190.659 138.523 190.805 106.21 190.805 106.21C190.806 105.69 191.209 105.269 191.705 105.271C192.199 105.274 192.598 105.698 192.597 106.218Z" fill="black"/>
<path fill-rule="evenodd" clip-rule="evenodd" d="M187.803 104.946C187.803 104.946 187.679 146.412 187.442 187.878C187.205 229.344 186.855 270.809 186.855 270.809C186.855 271.093 186.635 271.321 186.367 271.321C186.097 271.319 185.88 271.089 185.88 270.805C185.88 270.805 185.8 229.339 185.833 187.872C185.866 146.406 186.011 104.94 186.011 104.94C186.013 104.419 186.416 103.998 186.91 104C187.406 104.002 187.805 104.426 187.803 104.946Z" fill="black"/>
<path fill-rule="evenodd" clip-rule="evenodd" d="M324.967 140.752C323.162 130.654 318.268 116.646 309.915 102.044C303.612 91.0266 295.326 79.6864 284.905 69.4104C277.458 62.067 268.926 55.2649 259.218 49.531C246.273 41.8839 231.255 36.1164 213.974 33.5146C213.73 33.4791 213.558 33.2409 213.591 32.9832C213.626 32.7256 213.852 32.5451 214.096 32.5806C231.557 35.0088 246.785 40.6269 259.905 48.2315C269.768 53.9479 278.446 60.7767 285.989 68.192C296.537 78.5615 304.868 90.0744 311.196 101.237C319.595 116.052 324.44 130.278 326.211 140.51C326.274 140.871 326.047 141.22 325.704 141.285C325.36 141.352 325.03 141.114 324.967 140.752Z" fill="black"/>
<path fill-rule="evenodd" clip-rule="evenodd" d="M226.087 122.804C225.423 114.243 224.53 104.922 222.934 95.3055C221.952 89.394 220.69 83.3763 219.052 77.3467C216.463 67.8102 212.928 58.2431 207.783 49.1226C207.654 48.9003 207.722 48.6101 207.933 48.4749C208.144 48.3397 208.42 48.4103 208.549 48.6326C212.564 55.3973 215.729 62.4173 218.201 69.5292C219.917 74.4633 221.308 79.4378 222.429 84.3893C223.889 90.8342 224.893 97.2401 225.646 103.457C226.455 110.144 226.945 116.617 227.349 122.703C227.375 123.069 227.114 123.389 226.766 123.416C226.418 123.445 226.114 123.169 226.087 122.804Z" fill="black"/>
<path fill-rule="evenodd" clip-rule="evenodd" d="M116.594 120.592C116.908 111.327 118.295 101.9 120.875 92.7575C123.408 83.783 127.07 75.0709 131.976 67.0643C135.816 60.7984 140.42 54.9646 145.807 49.7597C153.348 42.4735 162.438 36.4335 173.152 32.1417C173.383 32.0471 173.642 32.1672 173.732 32.4096C173.822 32.652 173.708 32.9255 173.478 33.0201C162.976 37.4325 154.124 43.5669 146.769 50.8487C141.535 56.03 137.07 61.8009 133.31 67.9671C128.5 75.8568 124.848 84.3944 122.305 93.2094C119.707 102.219 118.243 111.503 117.859 120.646C117.845 121.012 117.55 121.3 117.201 121.284C116.852 121.269 116.58 120.96 116.594 120.592Z" fill="black"/>
<path fill-rule="evenodd" clip-rule="evenodd" d="M36.8361 141.839C38.8777 131.358 42.2692 120.501 47.5598 109.761C52.2147 100.311 58.3218 90.9362 66.2671 82.0026C71.8184 75.7605 78.27 69.7358 85.7289 64.038C95.252 56.7641 106.431 50.04 119.485 44.0524C119.712 43.9467 119.976 44.0541 120.076 44.2919C120.176 44.5298 120.074 44.8084 119.848 44.9139C106.954 51.0448 95.9557 57.9104 86.565 65.2369C79.241 70.9506 72.9064 76.9559 67.4264 83.1414C59.5992 91.9761 53.5233 101.183 48.884 110.487C43.6051 121.074 40.162 131.766 38.0744 142.112C38.0031 142.472 37.6679 142.702 37.3261 142.627C36.9843 142.553 36.7646 142.2 36.8361 141.839Z" fill="black"/>
<path fill-rule="evenodd" clip-rule="evenodd" d="M191.027 28.1516C190.938 26.0308 190.728 24.2814 190.38 22.9838C190.229 22.4186 190.045 21.9549 189.824 21.5987C189.64 21.3004 189.428 21.1012 189.144 21.0719C189.078 21.0638 189.036 21.1264 188.982 21.1811C188.885 21.2815 188.794 21.4092 188.708 21.5575C188.375 22.1224 188.101 22.9211 187.873 23.8208C187.527 25.1895 187.275 26.7662 187.146 28.1596C187.126 28.5491 186.809 28.848 186.439 28.8264C186.069 28.8047 185.784 28.4708 185.804 28.0811C185.839 25.9019 186.09 23.2759 186.69 21.53C186.949 20.778 187.29 20.1796 187.662 19.7828C188.156 19.2569 188.732 19.0354 189.357 19.1097C190.435 19.2646 191.31 20.054 191.795 21.5881C192.261 23.0686 192.394 25.3187 192.28 28.1516C192.28 28.5149 191.999 28.8101 191.654 28.8101C191.308 28.8101 191.027 28.5149 191.027 28.1516Z" fill="black"/>
<path fill-rule="evenodd" clip-rule="evenodd" d="M279.894 155.473C279.894 155.473 280.451 175.866 280.532 183.858C280.552 185.803 280.526 187.013 280.526 187.013C280.526 187.594 280.077 188.066 279.525 188.066C278.972 188.066 278.523 187.594 278.523 187.013C278.523 187.013 278.497 185.803 278.516 183.858C278.598 175.866 279.156 155.473 279.156 155.473C279.156 155.259 279.321 155.084 279.525 155.084C279.728 155.084 279.894 155.259 279.894 155.473Z" fill="black"/>
<path fill-rule="evenodd" clip-rule="evenodd" d="M373.391 26.0378C373.391 26.0378 373.948 40.3375 374.03 45.9454C374.05 47.309 374.024 48.1586 374.024 48.1586C374.024 48.7397 373.575 49.2115 373.022 49.2115C372.469 49.2115 372.021 48.7397 372.021 48.1586C372.021 48.1586 371.994 47.309 372.014 45.9454C372.096 40.3375 372.653 26.0378 372.653 26.0378C372.653 25.823 372.818 25.6484 373.022 25.6484C373.226 25.6484 373.391 25.823 373.391 26.0378Z" fill="black"/>
<path fill-rule="evenodd" clip-rule="evenodd" d="M90.0842 228.454C90.0842 228.454 90.6413 237.994 90.7232 241.742C90.743 242.652 90.7168 243.219 90.7168 243.219C90.7168 243.801 90.268 244.273 89.7152 244.273C89.1623 244.273 88.7137 243.801 88.7137 243.219C88.7137 243.219 88.6872 242.652 88.7071 241.742C88.789 237.994 89.3463 228.454 89.3463 228.454C89.3463 228.239 89.5116 228.064 89.7152 228.064C89.9189 228.064 90.0842 228.239 90.0842 228.454Z" fill="black"/>
<path fill-rule="evenodd" clip-rule="evenodd" d="M114.171 0.161095C114.171 0.161095 114.529 32.1475 114.72 50.5207C114.734 51.8575 114.753 53.1214 114.757 54.297C114.778 59.6249 114.738 63.1097 114.738 63.1097C114.738 63.5259 114.416 63.8653 114.019 63.8653C113.623 63.8653 113.301 63.5259 113.301 63.1097C113.301 63.1097 113.261 59.6249 113.281 54.297C113.286 53.1214 113.305 51.8575 113.319 50.5207C113.509 32.1475 113.868 0.161095 113.868 0.161095C113.868 0.0728728 113.936 0 114.019 0C114.103 0 114.171 0.0728728 114.171 0.161095Z" fill="black"/>
<path fill-rule="evenodd" clip-rule="evenodd" d="M55.2711 37.3466L55.6843 77.2979C55.6843 77.5549 55.5274 77.7832 55.2951 77.8637C55.0629 77.9423 54.8082 77.856 54.6638 77.6489C51.5955 73.3337 48.0577 70.9517 44.5538 70.2267C40.4666 69.3809 36.4304 70.8251 33.282 74.1507C33.0031 74.4461 32.5473 74.4461 32.2666 74.1507C31.9858 73.8554 31.9858 73.3778 32.2666 73.0824C35.7796 69.3944 40.2952 67.7891 44.8327 68.7864C48.2035 69.5286 51.594 71.7208 54.5725 75.5661C54.5726 75.5661 54.9679 37.3466 54.9679 37.3466C54.9679 37.2584 55.0359 37.1855 55.1196 37.1855C55.2032 37.1855 55.2711 37.2584 55.2711 37.3466Z" fill="black"/>
</svg>
