<svg width="22" height="22" viewBox="0 0 22 22" fill="none" xmlns="http://www.w3.org/2000/svg">
<path d="M6.70711 10.2929C6.31658 9.90237 5.68342 9.90237 5.29289 10.2929C4.90237 10.6834 4.90237 11.3166 5.29289 11.7071L6.70711 10.2929ZM11 16L10.2929 16.7071C10.6834 17.0976 11.3166 17.0976 11.7071 16.7071L11 16ZM16.7071 11.7071C17.0976 11.3166 17.0976 10.6834 16.7071 10.2929C16.3166 9.90237 15.6834 9.90237 15.2929 10.2929L16.7071 11.7071ZM12 1C12 0.447715 11.5523 0 11 0C10.4477 0 10 0.447715 10 1H12ZM1 20C0.447715 20 0 20.4477 0 21C0 21.5523 0.447715 22 1 22V20ZM21 22C21.5523 22 22 21.5523 22 21C22 20.4477 21.5523 20 21 20V22ZM5.29289 11.7071L10.2929 16.7071L11.7071 15.2929L6.70711 10.2929L5.29289 11.7071ZM11.7071 16.7071L16.7071 11.7071L15.2929 10.2929L10.2929 15.2929L11.7071 16.7071ZM10 1V16H12V1H10ZM1 22H21V20H1V22Z" fill="#2469BE"/>
</svg>
