<svg width="17" height="17" viewBox="0 0 17 17" fill="none" xmlns="http://www.w3.org/2000/svg">
<path d="M3.49198 16.1149C3.19448 16.1149 2.91823 16.0441 2.67032 15.9024C2.1249 15.5837 1.81323 14.9391 1.81323 14.1387V4.15116C1.81323 2.35199 3.27948 0.885742 5.07865 0.885742H11.9141C13.7132 0.885742 15.1795 2.35199 15.1795 4.15116V14.1316C15.1795 14.932 14.8678 15.5766 14.3224 15.8953C13.777 16.2141 13.0616 16.1787 12.3603 15.7891L8.90365 13.8695C8.69823 13.7562 8.29448 13.7562 8.08907 13.8695L4.6324 15.7891C4.2499 16.0016 3.86032 16.1149 3.49198 16.1149ZM5.08573 1.94824C3.87448 1.94824 2.88282 2.93991 2.88282 4.15116V14.1316C2.88282 14.5495 3.00323 14.8612 3.21573 14.9816C3.42823 15.102 3.76115 15.0666 4.1224 14.8612L7.57907 12.9416C8.10323 12.6512 8.89657 12.6512 9.42073 12.9416L12.8774 14.8612C13.2386 15.0666 13.5716 15.1091 13.7841 14.9816C13.9966 14.8541 14.117 14.5424 14.117 14.1316V4.15116C14.117 2.93991 13.1253 1.94824 11.9141 1.94824H5.08573Z" fill="#B8181C"/>
<path d="M7.85542 9.38527C7.72084 9.38527 7.58626 9.33569 7.48001 9.22944L6.41751 8.16694C6.21209 7.96152 6.21209 7.62152 6.41751 7.41611C6.62292 7.21069 6.96292 7.21069 7.16834 7.41611L7.85542 8.10319L10.3133 5.64527C10.5188 5.43986 10.8588 5.43986 11.0642 5.64527C11.2696 5.85069 11.2696 6.19069 11.0642 6.39611L8.23084 9.22944C8.12459 9.33569 7.99001 9.38527 7.85542 9.38527Z" fill="#B8181C"/>
</svg>
