<svg width="24" height="24" viewBox="0 0 24 24" fill="none" xmlns="http://www.w3.org/2000/svg">
<path d="M12 22.751C6.07 22.751 1.25 17.931 1.25 12.001C1.25 6.07098 6.07 1.25098 12 1.25098C17.93 1.25098 22.75 6.07098 22.75 12.001C22.75 17.931 17.93 22.751 12 22.751ZM12 2.75098C6.9 2.75098 2.75 6.90098 2.75 12.001C2.75 17.101 6.9 21.251 12 21.251C17.1 21.251 21.25 17.101 21.25 12.001C21.25 6.90098 17.1 2.75098 12 2.75098Z" fill="#193C6D"/>
<path d="M10.58 15.5811C10.38 15.5811 10.19 15.5011 10.05 15.3611L7.22 12.5311C6.93 12.2411 6.93 11.7611 7.22 11.4711C7.51 11.1811 7.99 11.1811 8.28 11.4711L10.58 13.7711L15.72 8.63107C16.01 8.34107 16.49 8.34107 16.78 8.63107C17.07 8.92107 17.07 9.40107 16.78 9.69107L11.11 15.3611C10.97 15.5011 10.78 15.5811 10.58 15.5811Z" fill="#193C6D"/>
</svg>
