<svg width="12" height="12" viewBox="0 0 12 12" fill="none" xmlns="http://www.w3.org/2000/svg">
<path d="M11.6569 0.343186C11.8444 0.530722 11.9498 0.785076 11.9498 1.05029C11.9498 1.31551 11.8444 1.56986 11.6569 1.7574L7.41425 6.00004L11.6569 10.2427C11.8444 10.4302 11.9498 10.6846 11.9498 10.9498C11.9498 11.215 11.8444 11.4694 11.6569 11.6569C11.4694 11.8444 11.215 11.9498 10.9498 11.9498C10.6846 11.9498 10.4302 11.8444 10.2427 11.6569L6.00004 7.41425L1.7574 11.6569C1.56986 11.8444 1.31551 11.9498 1.05029 11.9498C0.785076 11.9498 0.530722 11.8444 0.343186 11.6569C0.15565 11.4694 0.0502931 11.215 0.0502931 10.9498C0.0502931 10.6846 0.15565 10.4302 0.343186 10.2427L4.58583 6.00004L0.343186 1.7574C0.15565 1.56986 0.050293 1.31551 0.050293 1.05029C0.050293 0.785076 0.15565 0.530722 0.343186 0.343186C0.530722 0.15565 0.785076 0.050293 1.05029 0.050293C1.31551 0.050293 1.56986 0.15565 1.7574 0.343186L6.00004 4.58583L10.2427 0.343186C10.4302 0.15565 10.6846 0.050293 10.9498 0.050293C11.215 0.050293 11.4694 0.15565 11.6569 0.343186Z" fill="#313131"/>
</svg>
