<svg width="10" height="8" viewBox="0 0 10 8" fill="none" xmlns="http://www.w3.org/2000/svg">
<path d="M1.53033 3.46967C1.23744 3.17678 0.762563 3.17678 0.46967 3.46967C0.176777 3.76256 0.176777 4.23744 0.46967 4.53033L1.53033 3.46967ZM4 7L3.46967 7.53033C3.61867 7.67933 3.82348 7.75878 4.03399 7.74923C4.24449 7.73968 4.44127 7.64202 4.57617 7.48014L4 7ZM9.57617 1.48014C9.84134 1.16193 9.79835 0.689007 9.48014 0.423834C9.16193 0.158661 8.68901 0.201654 8.42383 0.519862L9.57617 1.48014ZM0.46967 4.53033L3.46967 7.53033L4.53033 6.46967L1.53033 3.46967L0.46967 4.53033ZM4.57617 7.48014L9.57617 1.48014L8.42383 0.519862L3.42383 6.51986L4.57617 7.48014Z" fill="#193C6D"/>
</svg>
