<svg width="53" height="44" viewBox="0 0 53 44" fill="none" xmlns="http://www.w3.org/2000/svg">
<path d="M12.6667 26.335H27.3333M12.6667 15.6683H39.3333M20.6667 39.6683H10.5333C7.54639 39.6683 6.05291 39.6683 4.91205 39.087C3.90852 38.5757 3.09262 37.7598 2.5813 36.7562C2 35.6154 2 34.1219 2 31.135V10.8683C2 7.88135 2 6.38787 2.5813 5.24701C3.09262 4.24348 3.90852 3.42758 4.91205 2.91626C6.05291 2.33496 7.54639 2.33496 10.5333 2.33496H41.4667C44.4536 2.33496 45.9471 2.33496 47.088 2.91626C48.0915 3.42758 48.9074 4.24348 49.4187 5.24701C50 6.38787 50 7.88135 50 10.8683V11.6683M31.3333 42.335L36.7332 41.255C37.2041 41.1608 37.4395 41.1137 37.659 41.0276C37.8539 40.9512 38.0391 40.8521 38.2108 40.7323C38.4042 40.5975 38.5739 40.4277 38.9135 40.0882L50 29.0016C51.4728 27.5289 51.4728 25.1411 50 23.6683C48.5272 22.1955 46.1394 22.1955 44.6667 23.6683L33.5801 34.7548C33.2406 35.0944 33.0708 35.2641 32.9359 35.4575C32.8162 35.6292 32.7171 35.8144 32.6407 36.0093C32.5546 36.2288 32.5075 36.4642 32.4133 36.9351L31.3333 42.335Z" stroke="#2469BE" stroke-width="3" stroke-linecap="round" stroke-linejoin="round"/>
</svg>
