<svg width="52" height="52" viewBox="0 0 52 52" fill="none" xmlns="http://www.w3.org/2000/svg">
<path d="M15.3333 20.501C14.5049 20.501 13.8333 21.1726 13.8333 22.001C13.8333 22.8294 14.5049 23.501 15.3333 23.501V20.501ZM36.6667 23.501C37.4951 23.501 38.1667 22.8294 38.1667 22.001C38.1667 21.1726 37.4951 20.501 36.6667 20.501V23.501ZM15.3333 31.1676C14.5049 31.1676 13.8333 31.8392 13.8333 32.6676C13.8333 33.4961 14.5049 34.1676 15.3333 34.1676V31.1676ZM23.3333 34.1676C24.1618 34.1676 24.8333 33.4961 24.8333 32.6676C24.8333 31.8392 24.1618 31.1676 23.3333 31.1676V34.1676ZM4.50619 36.6698L5.84939 36.0021L4.50619 36.6698ZM2.01235 50.001L0.627636 49.4243C0.434837 49.8872 0.486137 50.4159 0.764346 50.8331C1.04255 51.2504 1.51087 51.501 2.01235 51.501V50.001ZM15.3333 23.501H36.6667V20.501H15.3333V23.501ZM15.3333 34.1676H23.3333V31.1676H15.3333V34.1676ZM48.5104 26.001C48.5104 38.4274 38.4368 48.501 26.0104 48.501V51.501C40.0937 51.501 51.5104 40.0842 51.5104 26.001H48.5104ZM3.51042 26.001C3.51042 13.5746 13.584 3.50098 26.0104 3.50098V0.500977C11.9271 0.500977 0.510422 11.9177 0.510422 26.001H3.51042ZM26.0104 3.50098C38.4368 3.50098 48.5104 13.5746 48.5104 26.001H51.5104C51.5104 11.9177 40.0937 0.500977 26.0104 0.500977V3.50098ZM5.84939 36.0021C4.35272 32.9911 3.51042 29.5966 3.51042 26.001H0.510422C0.510422 30.0702 1.46467 33.9209 3.16298 37.3374L5.84939 36.0021ZM26.0104 48.501C25.9998 48.501 25.9891 48.501 25.9784 48.501C25.9677 48.501 25.957 48.501 25.9462 48.501C25.9354 48.501 25.9245 48.501 25.9136 48.501C25.9027 48.501 25.8918 48.501 25.8807 48.501C25.8697 48.501 25.8587 48.501 25.8476 48.501C25.8365 48.501 25.8253 48.501 25.8141 48.501C25.8029 48.501 25.7917 48.501 25.7804 48.501C25.7691 48.501 25.7578 48.501 25.7464 48.501C25.735 48.501 25.7235 48.501 25.712 48.501C25.7005 48.501 25.689 48.501 25.6774 48.501C25.6658 48.501 25.6542 48.501 25.6425 48.501C25.6308 48.501 25.6191 48.501 25.6073 48.501C25.5956 48.501 25.5837 48.501 25.5719 48.501C25.56 48.501 25.5481 48.501 25.5361 48.501C25.5242 48.501 25.5122 48.501 25.5001 48.501C25.488 48.501 25.4759 48.501 25.4638 48.501C25.4516 48.501 25.4394 48.501 25.4272 48.501C25.415 48.501 25.4027 48.501 25.3903 48.501C25.378 48.501 25.3656 48.501 25.3532 48.501C25.3408 48.501 25.3283 48.501 25.3158 48.501C25.3033 48.501 25.2907 48.501 25.2781 48.501C25.2655 48.501 25.2528 48.501 25.2401 48.501C25.2274 48.501 25.2147 48.501 25.2019 48.501C25.1891 48.501 25.1763 48.501 25.1634 48.501C25.1506 48.501 25.1376 48.501 25.1247 48.501C25.1117 48.501 25.0987 48.501 25.0856 48.501C25.0726 48.501 25.0595 48.501 25.0464 48.501C25.0332 48.501 25.02 48.501 25.0068 48.501C24.9936 48.501 24.9803 48.501 24.967 48.501C24.9537 48.501 24.9403 48.501 24.9269 48.501C24.9135 48.501 24.9001 48.501 24.8866 48.501C24.8731 48.501 24.8596 48.501 24.846 48.501C24.8324 48.501 24.8188 48.501 24.8052 48.501C24.7915 48.501 24.7778 48.501 24.7641 48.501C24.7503 48.501 24.7365 48.501 24.7227 48.501C24.7089 48.501 24.695 48.501 24.6811 48.501C24.6672 48.501 24.6533 48.501 24.6393 48.501C24.6253 48.501 24.6112 48.501 24.5972 48.501C24.5831 48.501 24.569 48.501 24.5548 48.501C24.5407 48.501 24.5265 48.501 24.5122 48.501C24.498 48.501 24.4837 48.501 24.4694 48.501C24.4551 48.501 24.4407 48.501 24.4263 48.501C24.4119 48.501 24.3975 48.501 24.383 48.501C24.3685 48.501 24.354 48.501 24.3394 48.501C24.3249 48.501 24.3103 48.501 24.2956 48.501C24.281 48.501 24.2663 48.501 24.2516 48.501C24.2369 48.501 24.2221 48.501 24.2073 48.501C24.1925 48.501 24.1777 48.501 24.1628 48.501C24.148 48.501 24.1331 48.501 24.1181 48.501C24.1032 48.501 24.0882 48.501 24.0731 48.501C24.0581 48.501 24.043 48.501 24.0279 48.501C24.0128 48.501 23.9977 48.501 23.9825 48.501C23.9673 48.501 23.9521 48.501 23.9369 48.501C23.9216 48.501 23.9063 48.501 23.891 48.501C23.8757 48.501 23.8603 48.501 23.8449 48.501C23.8295 48.501 23.814 48.501 23.7986 48.501C23.7831 48.501 23.7676 48.501 23.752 48.501C23.7365 48.501 23.7209 48.501 23.7053 48.501C23.6896 48.501 23.674 48.501 23.6583 48.501C23.6426 48.501 23.6268 48.501 23.6111 48.501C23.5953 48.501 23.5795 48.501 23.5637 48.501C23.5478 48.501 23.5319 48.501 23.516 48.501C23.5001 48.501 23.4842 48.501 23.4682 48.501C23.4522 48.501 23.4362 48.501 23.4201 48.501C23.4041 48.501 23.388 48.501 23.3719 48.501C23.3557 48.501 23.3396 48.501 23.3234 48.501C23.3072 48.501 23.291 48.501 23.2747 48.501C23.2584 48.501 23.2421 48.501 23.2258 48.501C23.2095 48.501 23.1931 48.501 23.1767 48.501C23.1603 48.501 23.1439 48.501 23.1274 48.501C23.111 48.501 23.0945 48.501 23.0779 48.501C23.0614 48.501 23.0448 48.501 23.0282 48.501C23.0116 48.501 22.995 48.501 22.9783 48.501C22.9617 48.501 22.945 48.501 22.9283 48.501C22.9115 48.501 22.8948 48.501 22.878 48.501C22.8612 48.501 22.8444 48.501 22.8275 48.501C22.8106 48.501 22.7937 48.501 22.7768 48.501C22.7599 48.501 22.7429 48.501 22.726 48.501C22.709 48.501 22.6919 48.501 22.6749 48.501C22.6578 48.501 22.6408 48.501 22.6237 48.501C22.6065 48.501 22.5894 48.501 22.5722 48.501C22.555 48.501 22.5378 48.501 22.5206 48.501C22.5034 48.501 22.4861 48.501 22.4688 48.501C22.4515 48.501 22.4342 48.501 22.4168 48.501C22.3995 48.501 22.3821 48.501 22.3646 48.501C22.3472 48.501 22.3298 48.501 22.3123 48.501C22.2948 48.501 22.2773 48.501 22.2598 48.501C22.2422 48.501 22.2247 48.501 22.2071 48.501C22.1895 48.501 22.1718 48.501 22.1542 48.501C22.1365 48.501 22.1189 48.501 22.1011 48.501C22.0834 48.501 22.0657 48.501 22.0479 48.501C22.0301 48.501 22.0123 48.501 21.9945 48.501C21.9767 48.501 21.9588 48.501 21.9409 48.501C21.9231 48.501 21.9051 48.501 21.8872 48.501C21.8693 48.501 21.8513 48.501 21.8333 48.501C21.8153 48.501 21.7973 48.501 21.7792 48.501C21.7612 48.501 21.7431 48.501 21.725 48.501C21.7069 48.501 21.6888 48.501 21.6706 48.501C21.6524 48.501 21.6342 48.501 21.616 48.501C21.5978 48.501 21.5796 48.501 21.5613 48.501C21.543 48.501 21.5248 48.501 21.5064 48.501C21.4881 48.501 21.4698 48.501 21.4514 48.501C21.433 48.501 21.4146 48.501 21.3962 48.501C21.3778 48.501 21.3593 48.501 21.3409 48.501C21.3224 48.501 21.3039 48.501 21.2853 48.501C21.2668 48.501 21.2483 48.501 21.2297 48.501C21.2111 48.501 21.1925 48.501 21.1739 48.501C21.1553 48.501 21.1366 48.501 21.1179 48.501C21.0993 48.501 21.0806 48.501 21.0618 48.501C21.0431 48.501 21.0244 48.501 21.0056 48.501C20.9868 48.501 20.968 48.501 20.9492 48.501C20.9304 48.501 20.9115 48.501 20.8927 48.501C20.8738 48.501 20.8549 48.501 20.836 48.501C20.8171 48.501 20.7981 48.501 20.7792 48.501C20.7602 48.501 20.7412 48.501 20.7222 48.501C20.7032 48.501 20.6842 48.501 20.6651 48.501C20.6461 48.501 20.627 48.501 20.6079 48.501C20.5888 48.501 20.5697 48.501 20.5505 48.501C20.5314 48.501 20.5122 48.501 20.493 48.501C20.4738 48.501 20.4546 48.501 20.4354 48.501C20.4162 48.501 20.3969 48.501 20.3776 48.501C20.3584 48.501 20.3391 48.501 20.3197 48.501C20.3004 48.501 20.2811 48.501 20.2617 48.501C20.2424 48.501 20.223 48.501 20.2036 48.501C20.1842 48.501 20.1647 48.501 20.1453 48.501C20.1259 48.501 20.1064 48.501 20.0869 48.501C20.0674 48.501 20.0479 48.501 20.0284 48.501C20.0089 48.501 19.9893 48.501 19.9698 48.501C19.9502 48.501 19.9306 48.501 19.911 48.501C19.8914 48.501 19.8718 48.501 19.8521 48.501C19.8325 48.501 19.8128 48.501 19.7931 48.501C19.7735 48.501 19.7538 48.501 19.734 48.501C19.7143 48.501 19.6946 48.501 19.6748 48.501C19.6551 48.501 19.6353 48.501 19.6155 48.501C19.5957 48.501 19.5759 48.501 19.556 48.501C19.5362 48.501 19.5164 48.501 19.4965 48.501C19.4766 48.501 19.4567 48.501 19.4368 48.501C19.4169 48.501 19.397 48.501 19.3771 48.501C19.3571 48.501 19.3372 48.501 19.3172 48.501C19.2972 48.501 19.2772 48.501 19.2572 48.501C19.2372 48.501 19.2172 48.501 19.1971 48.501C19.1771 48.501 19.157 48.501 19.137 48.501C19.1169 48.501 19.0968 48.501 19.0767 48.501C19.0566 48.501 19.0365 48.501 19.0163 48.501C18.9962 48.501 18.976 48.501 18.9559 48.501C18.9357 48.501 18.9155 48.501 18.8953 48.501C18.8751 48.501 18.8549 48.501 18.8346 48.501C18.8144 48.501 18.7941 48.501 18.7739 48.501C18.7536 48.501 18.7333 48.501 18.713 48.501C18.6927 48.501 18.6724 48.501 18.6521 48.501C18.6318 48.501 18.6114 48.501 18.5911 48.501C18.5707 48.501 18.5504 48.501 18.53 48.501C18.5096 48.501 18.4892 48.501 18.4688 48.501C18.4484 48.501 18.4279 48.501 18.4075 48.501C18.3871 48.501 18.3666 48.501 18.3461 48.501C18.3257 48.501 18.3052 48.501 18.2847 48.501C18.2642 48.501 18.2437 48.501 18.2232 48.501C18.2027 48.501 18.1821 48.501 18.1616 48.501C18.141 48.501 18.1205 48.501 18.0999 48.501C18.0793 48.501 18.0588 48.501 18.0382 48.501C18.0176 48.501 17.997 48.501 17.9763 48.501C17.9557 48.501 17.9351 48.501 17.9144 48.501C17.8938 48.501 17.8731 48.501 17.8525 48.501C17.8318 48.501 17.8111 48.501 17.7904 48.501C17.7697 48.501 17.749 48.501 17.7283 48.501C17.7076 48.501 17.6869 48.501 17.6662 48.501C17.6454 48.501 17.6247 48.501 17.6039 48.501C17.5832 48.501 17.5624 48.501 17.5416 48.501C17.5208 48.501 17.5 48.501 17.4793 48.501C17.4585 48.501 17.4376 48.501 17.4168 48.501C17.396 48.501 17.3752 48.501 17.3543 48.501C17.3335 48.501 17.3127 48.501 17.2918 48.501C17.2709 48.501 17.2501 48.501 17.2292 48.501C17.2083 48.501 17.1874 48.501 17.1665 48.501C17.1456 48.501 17.1247 48.501 17.1038 48.501C17.0829 48.501 17.062 48.501 17.0411 48.501C17.0201 48.501 16.9992 48.501 16.9783 48.501C16.9573 48.501 16.9364 48.501 16.9154 48.501C16.8944 48.501 16.8735 48.501 16.8525 48.501C16.8315 48.501 16.8105 48.501 16.7895 48.501C16.7685 48.501 16.7475 48.501 16.7265 48.501C16.7055 48.501 16.6845 48.501 16.6635 48.501C16.6424 48.501 16.6214 48.501 16.6004 48.501C16.5793 48.501 16.5583 48.501 16.5372 48.501C16.5162 48.501 16.4951 48.501 16.4741 48.501C16.453 48.501 16.4319 48.501 16.4109 48.501C16.3898 48.501 16.3687 48.501 16.3476 48.501C16.3265 48.501 16.3054 48.501 16.2843 48.501C16.2632 48.501 16.2421 48.501 16.221 48.501C16.1999 48.501 16.1788 48.501 16.1577 48.501C16.1365 48.501 16.1154 48.501 16.0943 48.501C16.0731 48.501 16.052 48.501 16.0309 48.501C16.0097 48.501 15.9886 48.501 15.9674 48.501C15.9463 48.501 15.9251 48.501 15.904 48.501C15.8828 48.501 15.8616 48.501 15.8405 48.501C15.8193 48.501 15.7981 48.501 15.7769 48.501C15.7558 48.501 15.7346 48.501 15.7134 48.501C15.6922 48.501 15.671 48.501 15.6498 48.501C15.6286 48.501 15.6075 48.501 15.5863 48.501C15.5651 48.501 15.5439 48.501 15.5227 48.501C15.5015 48.501 15.4802 48.501 15.459 48.501C15.4378 48.501 15.4166 48.501 15.3954 48.501C15.3742 48.501 15.353 48.501 15.3318 48.501C15.3105 48.501 15.2893 48.501 15.2681 48.501C15.2469 48.501 15.2256 48.501 15.2044 48.501C15.1832 48.501 15.162 48.501 15.1407 48.501C15.1195 48.501 15.0983 48.501 15.077 48.501C15.0558 48.501 15.0346 48.501 15.0133 48.501C14.9921 48.501 14.9709 48.501 14.9496 48.501C14.9284 48.501 14.9072 48.501 14.8859 48.501C14.8647 48.501 14.8435 48.501 14.8222 48.501C14.801 48.501 14.7797 48.501 14.7585 48.501C14.7373 48.501 14.716 48.501 14.6948 48.501C14.6736 48.501 14.6523 48.501 14.6311 48.501C14.6098 48.501 14.5886 48.501 14.5674 48.501C14.5461 48.501 14.5249 48.501 14.5037 48.501C14.4824 48.501 14.4612 48.501 14.44 48.501C14.4187 48.501 14.3975 48.501 14.3763 48.501C14.355 48.501 14.3338 48.501 14.3126 48.501C14.2914 48.501 14.2701 48.501 14.2489 48.501C14.2277 48.501 14.2065 48.501 14.1852 48.501C14.164 48.501 14.1428 48.501 14.1216 48.501C14.1004 48.501 14.0792 48.501 14.0579 48.501C14.0367 48.501 14.0155 48.501 13.9943 48.501C13.9731 48.501 13.9519 48.501 13.9307 48.501C13.9095 48.501 13.8883 48.501 13.8671 48.501C13.8459 48.501 13.8247 48.501 13.8036 48.501C13.7824 48.501 13.7612 48.501 13.74 48.501C13.7188 48.501 13.6977 48.501 13.6765 48.501C13.6553 48.501 13.6341 48.501 13.613 48.501C13.5918 48.501 13.5707 48.501 13.5495 48.501C13.5284 48.501 13.5072 48.501 13.4861 48.501C13.4649 48.501 13.4438 48.501 13.4226 48.501C13.4015 48.501 13.3804 48.501 13.3592 48.501C13.3381 48.501 13.317 48.501 13.2959 48.501C13.2748 48.501 13.2537 48.501 13.2326 48.501C13.2115 48.501 13.1904 48.501 13.1693 48.501C13.1482 48.501 13.1271 48.501 13.106 48.501C13.0849 48.501 13.0638 48.501 13.0428 48.501C13.0217 48.501 13.0007 48.501 12.9796 48.501C12.9585 48.501 12.9375 48.501 12.9165 48.501C12.8954 48.501 12.8744 48.501 12.8533 48.501C12.8323 48.501 12.8113 48.501 12.7903 48.501C12.7693 48.501 12.7483 48.501 12.7273 48.501C12.7063 48.501 12.6853 48.501 12.6643 48.501C12.6433 48.501 12.6223 48.501 12.6014 48.501C12.5804 48.501 12.5594 48.501 12.5385 48.501C12.5175 48.501 12.4966 48.501 12.4757 48.501C12.4547 48.501 12.4338 48.501 12.4129 48.501C12.392 48.501 12.3711 48.501 12.3502 48.501C12.3293 48.501 12.3084 48.501 12.2875 48.501C12.2666 48.501 12.2457 48.501 12.2249 48.501C12.204 48.501 12.1831 48.501 12.1623 48.501C12.1415 48.501 12.1206 48.501 12.0998 48.501C12.079 48.501 12.0582 48.501 12.0374 48.501C12.0166 48.501 11.9958 48.501 11.975 48.501C11.9542 48.501 11.9334 48.501 11.9127 48.501C11.8919 48.501 11.8711 48.501 11.8504 48.501C11.8297 48.501 11.8089 48.501 11.7882 48.501C11.7675 48.501 11.7468 48.501 11.7261 48.501C11.7054 48.501 11.6847 48.501 11.664 48.501C11.6433 48.501 11.6227 48.501 11.602 48.501C11.5814 48.501 11.5607 48.501 11.5401 48.501C11.5195 48.501 11.4989 48.501 11.4783 48.501C11.4577 48.501 11.4371 48.501 11.4165 48.501C11.3959 48.501 11.3754 48.501 11.3548 48.501C11.3342 48.501 11.3137 48.501 11.2932 48.501C11.2726 48.501 11.2521 48.501 11.2316 48.501C11.2111 48.501 11.1906 48.501 11.1702 48.501C11.1497 48.501 11.1292 48.501 11.1088 48.501C11.0883 48.501 11.0679 48.501 11.0475 48.501C11.0271 48.501 11.0067 48.501 10.9863 48.501C10.9659 48.501 10.9455 48.501 10.9251 48.501C10.9048 48.501 10.8844 48.501 10.8641 48.501C10.8437 48.501 10.8234 48.501 10.8031 48.501C10.7828 48.501 10.7625 48.501 10.7423 48.501C10.722 48.501 10.7017 48.501 10.6815 48.501C10.6612 48.501 10.641 48.501 10.6208 48.501C10.6006 48.501 10.5804 48.501 10.5602 48.501C10.54 48.501 10.5198 48.501 10.4997 48.501C10.4795 48.501 10.4594 48.501 10.4393 48.501C10.4192 48.501 10.3991 48.501 10.379 48.501C10.3589 48.501 10.3388 48.501 10.3188 48.501C10.2987 48.501 10.2787 48.501 10.2587 48.501C10.2386 48.501 10.2186 48.501 10.1987 48.501C10.1787 48.501 10.1587 48.501 10.1388 48.501C10.1188 48.501 10.0989 48.501 10.079 48.501C10.059 48.501 10.0391 48.501 10.0193 48.501C9.99939 48.501 9.97953 48.501 9.95968 48.501C9.93984 48.501 9.92002 48.501 9.90021 48.501C9.8804 48.501 9.86061 48.501 9.84084 48.501C9.82107 48.501 9.80132 48.501 9.78159 48.501C9.76186 48.501 9.74215 48.501 9.72245 48.501C9.70276 48.501 9.68308 48.501 9.66343 48.501C9.64377 48.501 9.62414 48.501 9.60452 48.501C9.5849 48.501 9.5653 48.501 9.54573 48.501C9.52615 48.501 9.50659 48.501 9.48705 48.501C9.46752 48.501 9.448 48.501 9.4285 48.501C9.409 48.501 9.38953 48.501 9.37007 48.501C9.35061 48.501 9.33118 48.501 9.31176 48.501C9.29235 48.501 9.27295 48.501 9.25358 48.501C9.23421 48.501 9.21485 48.501 9.19552 48.501C9.17619 48.501 9.15688 48.501 9.13759 48.501C9.1183 48.501 9.09904 48.501 9.07979 48.501C9.06055 48.501 9.04132 48.501 9.02212 48.501C9.00292 48.501 8.98374 48.501 8.96458 48.501C8.94542 48.501 8.92629 48.501 8.90717 48.501C8.88806 48.501 8.86897 48.501 8.8499 48.501C8.83083 48.501 8.81179 48.501 8.79277 48.501C8.77374 48.501 8.75474 48.501 8.73577 48.501C8.71679 48.501 8.69784 48.501 8.67891 48.501C8.65998 48.501 8.64107 48.501 8.62219 48.501C8.6033 48.501 8.58444 48.501 8.56561 48.501C8.54677 48.501 8.52796 48.501 8.50917 48.501C8.49038 48.501 8.47162 48.501 8.45288 48.501C8.43414 48.501 8.41543 48.501 8.39674 48.501C8.37805 48.501 8.35938 48.501 8.34074 48.501C8.3221 48.501 8.30348 48.501 8.28489 48.501C8.2663 48.501 8.24773 48.501 8.22919 48.501C8.21065 48.501 8.19213 48.501 8.17364 48.501C8.15515 48.501 8.13668 48.501 8.11824 48.501C8.0998 48.501 8.08139 48.501 8.063 48.501C8.04462 48.501 8.02625 48.501 8.00792 48.501C7.98958 48.501 7.97127 48.501 7.95299 48.501C7.93471 48.501 7.91645 48.501 7.89822 48.501C7.87999 48.501 7.86179 48.501 7.84361 48.501C7.82543 48.501 7.80728 48.501 7.78916 48.501C7.77104 48.501 7.75294 48.501 7.73488 48.501C7.71681 48.501 7.69877 48.501 7.68075 48.501C7.66274 48.501 7.64476 48.501 7.6268 48.501C7.60884 48.501 7.59091 48.501 7.57301 48.501C7.55511 48.501 7.53723 48.501 7.51939 48.501C7.50154 48.501 7.48373 48.501 7.46594 48.501C7.44815 48.501 7.43039 48.501 7.41266 48.501C7.39493 48.501 7.37722 48.501 7.35955 48.501C7.34188 48.501 7.32423 48.501 7.30662 48.501C7.289 48.501 7.27142 48.501 7.25386 48.501C7.23631 48.501 7.21878 48.501 7.20128 48.501C7.18378 48.501 7.16632 48.501 7.14888 48.501C7.13144 48.501 7.11404 48.501 7.09666 48.501C7.07928 48.501 7.06193 48.501 7.04462 48.501C7.0273 48.501 7.01002 48.501 6.99276 48.501C6.9755 48.501 6.95828 48.501 6.94109 48.501C6.92389 48.501 6.90673 48.501 6.8896 48.501C6.87247 48.501 6.85536 48.501 6.8383 48.501C6.82123 48.501 6.80419 48.501 6.78718 48.501C6.77018 48.501 6.7532 48.501 6.73626 48.501C6.71932 48.501 6.7024 48.501 6.68553 48.501C6.66865 48.501 6.6518 48.501 6.63499 48.501C6.61817 48.501 6.60139 48.501 6.58464 48.501C6.56789 48.501 6.55117 48.501 6.53449 48.501C6.5178 48.501 6.50115 48.501 6.48453 48.501C6.46792 48.501 6.45133 48.501 6.43478 48.501C6.41823 48.501 6.40171 48.501 6.38522 48.501C6.36874 48.501 6.35229 48.501 6.33587 48.501C6.31945 48.501 6.30307 48.501 6.28672 48.501C6.27036 48.501 6.25405 48.501 6.23777 48.501C6.22148 48.501 6.20524 48.501 6.18902 48.501C6.17281 48.501 6.15663 48.501 6.14049 48.501C6.12434 48.501 6.10823 48.501 6.09216 48.501C6.07608 48.501 6.06004 48.501 6.04404 48.501C6.02803 48.501 6.01206 48.501 5.99613 48.501C5.9802 48.501 5.9643 48.501 5.94843 48.501C5.93257 48.501 5.91674 48.501 5.90095 48.501C5.88516 48.501 5.86941 48.501 5.85369 48.501C5.83797 48.501 5.82228 48.501 5.80664 48.501C5.79099 48.501 5.77538 48.501 5.7598 48.501C5.74423 48.501 5.72869 48.501 5.71319 48.501C5.69769 48.501 5.68223 48.501 5.6668 48.501C5.65137 48.501 5.63598 48.501 5.62063 48.501C5.60528 48.501 5.58996 48.501 5.57469 48.501C5.55941 48.501 5.54417 48.501 5.52896 48.501C5.51376 48.501 5.4986 48.501 5.48347 48.501C5.46834 48.501 5.45326 48.501 5.4382 48.501C5.42315 48.501 5.40814 48.501 5.39317 48.501C5.37819 48.501 5.36326 48.501 5.34836 48.501C5.33347 48.501 5.31861 48.501 5.30379 48.501C5.28897 48.501 5.27419 48.501 5.25945 48.501C5.24471 48.501 5.23001 48.501 5.21534 48.501C5.20068 48.501 5.18606 48.501 5.17148 48.501C5.15689 48.501 5.14235 48.501 5.12785 48.501C5.11334 48.501 5.09888 48.501 5.08445 48.501C5.07003 48.501 5.05565 48.501 5.0413 48.501C5.02696 48.501 5.01266 48.501 4.9984 48.501C4.98413 48.501 4.96991 48.501 4.95573 48.501C4.94155 48.501 4.92741 48.501 4.91331 48.501C4.89921 48.501 4.88515 48.501 4.87114 48.501C4.85712 48.501 4.84315 48.501 4.82921 48.501C4.81528 48.501 4.80139 48.501 4.78754 48.501C4.77369 48.501 4.75988 48.501 4.74611 48.501C4.73234 48.501 4.71862 48.501 4.70494 48.501C4.69125 48.501 4.67761 48.501 4.66402 48.501C4.65042 48.501 4.63686 48.501 4.62335 48.501C4.60984 48.501 4.59637 48.501 4.58294 48.501C4.56952 48.501 4.55613 48.501 4.54279 48.501C4.52945 48.501 4.51615 48.501 4.5029 48.501C4.48965 48.501 4.47643 48.501 4.46327 48.501C4.4501 48.501 4.43698 48.501 4.4239 48.501C4.41082 48.501 4.39778 48.501 4.38479 48.501C4.3718 48.501 4.35885 48.501 4.34595 48.501C4.33305 48.501 4.32019 48.501 4.30738 48.501C4.29456 48.501 4.28179 48.501 4.26907 48.501C4.25634 48.501 4.24367 48.501 4.23103 48.501C4.2184 48.501 4.20581 48.501 4.19326 48.501C4.18072 48.501 4.16822 48.501 4.15577 48.501C4.14331 48.501 4.13091 48.501 4.11854 48.501C4.10618 48.501 4.09387 48.501 4.0816 48.501C4.06933 48.501 4.0571 48.501 4.04493 48.501C4.03275 48.501 4.02062 48.501 4.00853 48.501C3.99645 48.501 3.98441 48.501 3.97242 48.501C3.96042 48.501 3.94848 48.501 3.93658 48.501C3.92468 48.501 3.91283 48.501 3.90103 48.501C3.88923 48.501 3.87747 48.501 3.86576 48.501C3.85405 48.501 3.84239 48.501 3.83077 48.501C3.81916 48.501 3.80759 48.501 3.79608 48.501C3.78456 48.501 3.77309 48.501 3.76166 48.501C3.75024 48.501 3.73887 48.501 3.72754 48.501C3.71622 48.501 3.70494 48.501 3.69371 48.501C3.68248 48.501 3.6713 48.501 3.66017 48.501C3.64904 48.501 3.63796 48.501 3.62692 48.501C3.61589 48.501 3.60491 48.501 3.59397 48.501C3.58304 48.501 3.57215 48.501 3.56131 48.501C3.55048 48.501 3.53969 48.501 3.52895 48.501C3.51822 48.501 3.50753 48.501 3.49689 48.501C3.48626 48.501 3.47567 48.501 3.46513 48.501C3.4546 48.501 3.44411 48.501 3.43368 48.501C3.42324 48.501 3.41286 48.501 3.40252 48.501C3.39219 48.501 3.3819 48.501 3.37167 48.501C3.36144 48.501 3.35126 48.501 3.34113 48.501C3.33099 48.501 3.32092 48.501 3.31089 48.501C3.30086 48.501 3.29088 48.501 3.28096 48.501C3.27103 48.501 3.26116 48.501 3.25134 48.501C3.24152 48.501 3.23175 48.501 3.22203 48.501C3.21232 48.501 3.20265 48.501 3.19304 48.501C3.18343 48.501 3.17387 48.501 3.16436 48.501C3.15485 48.501 3.1454 48.501 3.136 48.501C3.1266 48.501 3.11725 48.501 3.10795 48.501C3.09865 48.501 3.08941 48.501 3.08022 48.501C3.07103 48.501 3.0619 48.501 3.05282 48.501C3.04373 48.501 3.0347 48.501 3.02573 48.501C3.01675 48.501 3.00783 48.501 2.99897 48.501C2.9901 48.501 2.98129 48.501 2.97253 48.501C2.96377 48.501 2.95506 48.501 2.94641 48.501C2.93776 48.501 2.92917 48.501 2.92063 48.501C2.91209 48.501 2.9036 48.501 2.89517 48.501C2.88674 48.501 2.87836 48.501 2.87004 48.501C2.86172 48.501 2.85346 48.501 2.84525 48.501C2.83704 48.501 2.82888 48.501 2.82078 48.501C2.81269 48.501 2.80464 48.501 2.79666 48.501C2.78867 48.501 2.78074 48.501 2.77286 48.501C2.76499 48.501 2.75717 48.501 2.74941 48.501C2.74165 48.501 2.73394 48.501 2.72629 48.501C2.71864 48.501 2.71105 48.501 2.70351 48.501C2.69598 48.501 2.6885 48.501 2.68108 48.501C2.67366 48.501 2.66629 48.501 2.65898 48.501C2.65168 48.501 2.64443 48.501 2.63723 48.501C2.63004 48.501 2.62291 48.501 2.61583 48.501C2.60875 48.501 2.60174 48.501 2.59477 48.501C2.58781 48.501 2.58091 48.501 2.57407 48.501C2.56722 48.501 2.56044 48.501 2.55371 48.501C2.54698 48.501 2.54031 48.501 2.5337 48.501C2.52709 48.501 2.52054 48.501 2.51405 48.501C2.50755 48.501 2.50112 48.501 2.49475 48.501C2.48837 48.501 2.48206 48.501 2.4758 48.501C2.46955 48.501 2.46335 48.501 2.45722 48.501C2.45108 48.501 2.445 48.501 2.43899 48.501C2.43297 48.501 2.42701 48.501 2.42112 48.501C2.41522 48.501 2.40938 48.501 2.40361 48.501C2.39783 48.501 2.39212 48.501 2.38646 48.501C2.38081 48.501 2.37521 48.501 2.36968 48.501C2.36415 48.501 2.35868 48.501 2.35327 48.501C2.34785 48.501 2.3425 48.501 2.33722 48.501C2.33193 48.501 2.3267 48.501 2.32153 48.501C2.31637 48.501 2.31127 48.501 2.30622 48.501C2.30118 48.501 2.2962 48.501 2.29128 48.501C2.28637 48.501 2.28151 48.501 2.27672 48.501C2.27192 48.501 2.26719 48.501 2.26252 48.501C2.25785 48.501 2.25325 48.501 2.2487 48.501C2.24416 48.501 2.23968 48.501 2.23526 48.501C2.23084 48.501 2.22649 48.501 2.2222 48.501C2.21791 48.501 2.21368 48.501 2.20952 48.501C2.20535 48.501 2.20125 48.501 2.19721 48.501C2.19318 48.501 2.1892 48.501 2.18529 48.501C2.18138 48.501 2.17754 48.501 2.17376 48.501C2.16998 48.501 2.16626 48.501 2.16261 48.501C2.15895 48.501 2.15536 48.501 2.15184 48.501C2.14832 48.501 2.14486 48.501 2.14147 48.501C2.13807 48.501 2.13474 48.501 2.13148 48.501C2.12821 48.501 2.12502 48.501 2.12188 48.501C2.11875 48.501 2.11568 48.501 2.11268 48.501C2.10968 48.501 2.10674 48.501 2.10387 48.501C2.101 48.501 2.09819 48.501 2.09546 48.501C2.09272 48.501 2.09004 48.501 2.08744 48.501C2.08483 48.501 2.08229 48.501 2.07982 48.501C2.07735 48.501 2.07494 48.501 2.0726 48.501C2.07026 48.501 2.06799 48.501 2.06578 48.501C2.06357 48.501 2.06143 48.501 2.05936 48.501C2.05729 48.501 2.05529 48.501 2.05335 48.501C2.05141 48.501 2.04954 48.501 2.04774 48.501C2.04594 48.501 2.04421 48.501 2.04254 48.501C2.04087 48.501 2.03928 48.501 2.03775 48.501C2.03622 48.501 2.03476 48.501 2.03336 48.501C2.03197 48.501 2.03065 48.501 2.02939 48.501C2.02813 48.501 2.02695 48.501 2.02583 48.501C2.02471 48.501 2.02366 48.501 2.02268 48.501C2.0217 48.501 2.02079 48.501 2.01995 48.501C2.01911 48.501 2.01834 48.501 2.01763 48.501C2.01693 48.501 2.0163 48.501 2.01573 48.501C2.01517 48.501 2.01468 48.501 2.01426 48.501C2.01383 48.501 2.01348 48.501 2.0132 48.501C2.01292 48.501 2.0127 48.501 2.01256 48.501C2.01242 48.501 2.01235 48.501 2.01235 50.001C2.01235 51.501 2.01242 51.501 2.01256 51.501C2.0127 51.501 2.01292 51.501 2.0132 51.501C2.01348 51.501 2.01383 51.501 2.01426 51.501C2.01468 51.501 2.01517 51.501 2.01573 51.501C2.0163 51.501 2.01693 51.501 2.01763 51.501C2.01834 51.501 2.01911 51.501 2.01995 51.501C2.02079 51.501 2.0217 51.501 2.02268 51.501C2.02366 51.501 2.02471 51.501 2.02583 51.501C2.02695 51.501 2.02813 51.501 2.02939 51.501C2.03065 51.501 2.03197 51.501 2.03336 51.501C2.03476 51.501 2.03622 51.501 2.03775 51.501C2.03928 51.501 2.04087 51.501 2.04254 51.501C2.04421 51.501 2.04594 51.501 2.04774 51.501C2.04954 51.501 2.05141 51.501 2.05335 51.501C2.05529 51.501 2.05729 51.501 2.05936 51.501C2.06143 51.501 2.06357 51.501 2.06578 51.501C2.06799 51.501 2.07026 51.501 2.0726 51.501C2.07494 51.501 2.07735 51.501 2.07982 51.501C2.08229 51.501 2.08483 51.501 2.08744 51.501C2.09004 51.501 2.09272 51.501 2.09546 51.501C2.09819 51.501 2.101 51.501 2.10387 51.501C2.10674 51.501 2.10968 51.501 2.11268 51.501C2.11568 51.501 2.11875 51.501 2.12188 51.501C2.12502 51.501 2.12821 51.501 2.13148 51.501C2.13474 51.501 2.13807 51.501 2.14147 51.501C2.14486 51.501 2.14832 51.501 2.15184 51.501C2.15536 51.501 2.15895 51.501 2.16261 51.501C2.16626 51.501 2.16998 51.501 2.17376 51.501C2.17754 51.501 2.18138 51.501 2.18529 51.501C2.1892 51.501 2.19318 51.501 2.19721 51.501C2.20125 51.501 2.20535 51.501 2.20952 51.501C2.21368 51.501 2.21791 51.501 2.2222 51.501C2.22649 51.501 2.23084 51.501 2.23526 51.501C2.23968 51.501 2.24416 51.501 2.2487 51.501C2.25325 51.501 2.25785 51.501 2.26252 51.501C2.26719 51.501 2.27192 51.501 2.27672 51.501C2.28151 51.501 2.28637 51.501 2.29128 51.501C2.2962 51.501 2.30118 51.501 2.30622 51.501C2.31127 51.501 2.31637 51.501 2.32153 51.501C2.3267 51.501 2.33193 51.501 2.33722 51.501C2.3425 51.501 2.34785 51.501 2.35327 51.501C2.35868 51.501 2.36415 51.501 2.36968 51.501C2.37521 51.501 2.38081 51.501 2.38646 51.501C2.39212 51.501 2.39783 51.501 2.40361 51.501C2.40938 51.501 2.41522 51.501 2.42112 51.501C2.42701 51.501 2.43297 51.501 2.43899 51.501C2.445 51.501 2.45108 51.501 2.45722 51.501C2.46335 51.501 2.46955 51.501 2.4758 51.501C2.48206 51.501 2.48837 51.501 2.49475 51.501C2.50112 51.501 2.50755 51.501 2.51405 51.501C2.52054 51.501 2.52709 51.501 2.5337 51.501C2.54031 51.501 2.54698 51.501 2.55371 51.501C2.56044 51.501 2.56722 51.501 2.57407 51.501C2.58091 51.501 2.58781 51.501 2.59477 51.501C2.60174 51.501 2.60875 51.501 2.61583 51.501C2.62291 51.501 2.63004 51.501 2.63723 51.501C2.64443 51.501 2.65168 51.501 2.65898 51.501C2.66629 51.501 2.67366 51.501 2.68108 51.501C2.6885 51.501 2.69598 51.501 2.70351 51.501C2.71105 51.501 2.71864 51.501 2.72629 51.501C2.73394 51.501 2.74165 51.501 2.74941 51.501C2.75717 51.501 2.76499 51.501 2.77286 51.501C2.78074 51.501 2.78867 51.501 2.79666 51.501C2.80464 51.501 2.81269 51.501 2.82078 51.501C2.82888 51.501 2.83704 51.501 2.84525 51.501C2.85346 51.501 2.86172 51.501 2.87004 51.501C2.87836 51.501 2.88674 51.501 2.89517 51.501C2.9036 51.501 2.91209 51.501 2.92063 51.501C2.92917 51.501 2.93776 51.501 2.94641 51.501C2.95506 51.501 2.96377 51.501 2.97253 51.501C2.98129 51.501 2.9901 51.501 2.99897 51.501C3.00783 51.501 3.01675 51.501 3.02573 51.501C3.0347 51.501 3.04373 51.501 3.05282 51.501C3.0619 51.501 3.07103 51.501 3.08022 51.501C3.08941 51.501 3.09865 51.501 3.10795 51.501C3.11725 51.501 3.1266 51.501 3.136 51.501C3.1454 51.501 3.15485 51.501 3.16436 51.501C3.17387 51.501 3.18343 51.501 3.19304 51.501C3.20265 51.501 3.21232 51.501 3.22203 51.501C3.23175 51.501 3.24152 51.501 3.25134 51.501C3.26116 51.501 3.27103 51.501 3.28096 51.501C3.29088 51.501 3.30086 51.501 3.31089 51.501C3.32092 51.501 3.33099 51.501 3.34113 51.501C3.35126 51.501 3.36144 51.501 3.37167 51.501C3.3819 51.501 3.39219 51.501 3.40252 51.501C3.41286 51.501 3.42324 51.501 3.43368 51.501C3.44411 51.501 3.4546 51.501 3.46513 51.501C3.47567 51.501 3.48626 51.501 3.49689 51.501C3.50753 51.501 3.51822 51.501 3.52895 51.501C3.53969 51.501 3.55048 51.501 3.56131 51.501C3.57215 51.501 3.58304 51.501 3.59397 51.501C3.60491 51.501 3.61589 51.501 3.62692 51.501C3.63796 51.501 3.64904 51.501 3.66017 51.501C3.6713 51.501 3.68248 51.501 3.69371 51.501C3.70494 51.501 3.71622 51.501 3.72754 51.501C3.73887 51.501 3.75024 51.501 3.76166 51.501C3.77309 51.501 3.78456 51.501 3.79608 51.501C3.80759 51.501 3.81916 51.501 3.83077 51.501C3.84239 51.501 3.85405 51.501 3.86576 51.501C3.87747 51.501 3.88923 51.501 3.90103 51.501C3.91283 51.501 3.92468 51.501 3.93658 51.501C3.94848 51.501 3.96042 51.501 3.97242 51.501C3.98441 51.501 3.99645 51.501 4.00853 51.501C4.02062 51.501 4.03275 51.501 4.04493 51.501C4.0571 51.501 4.06933 51.501 4.0816 51.501C4.09387 51.501 4.10618 51.501 4.11854 51.501C4.13091 51.501 4.14331 51.501 4.15577 51.501C4.16822 51.501 4.18072 51.501 4.19326 51.501C4.20581 51.501 4.2184 51.501 4.23103 51.501C4.24367 51.501 4.25634 51.501 4.26907 51.501C4.28179 51.501 4.29456 51.501 4.30738 51.501C4.32019 51.501 4.33305 51.501 4.34595 51.501C4.35885 51.501 4.3718 51.501 4.38479 51.501C4.39778 51.501 4.41082 51.501 4.4239 51.501C4.43698 51.501 4.4501 51.501 4.46327 51.501C4.47643 51.501 4.48965 51.501 4.5029 51.501C4.51615 51.501 4.52945 51.501 4.54279 51.501C4.55613 51.501 4.56952 51.501 4.58294 51.501C4.59637 51.501 4.60984 51.501 4.62335 51.501C4.63686 51.501 4.65042 51.501 4.66402 51.501C4.67761 51.501 4.69125 51.501 4.70494 51.501C4.71862 51.501 4.73234 51.501 4.74611 51.501C4.75988 51.501 4.77369 51.501 4.78754 51.501C4.80139 51.501 4.81528 51.501 4.82921 51.501C4.84315 51.501 4.85712 51.501 4.87114 51.501C4.88515 51.501 4.89921 51.501 4.91331 51.501C4.92741 51.501 4.94155 51.501 4.95573 51.501C4.96991 51.501 4.98413 51.501 4.9984 51.501C5.01266 51.501 5.02696 51.501 5.0413 51.501C5.05565 51.501 5.07003 51.501 5.08445 51.501C5.09888 51.501 5.11334 51.501 5.12785 51.501C5.14235 51.501 5.15689 51.501 5.17148 51.501C5.18606 51.501 5.20068 51.501 5.21534 51.501C5.23001 51.501 5.24471 51.501 5.25945 51.501C5.27419 51.501 5.28897 51.501 5.30379 51.501C5.31861 51.501 5.33347 51.501 5.34836 51.501C5.36326 51.501 5.37819 51.501 5.39317 51.501C5.40814 51.501 5.42315 51.501 5.4382 51.501C5.45326 51.501 5.46834 51.501 5.48347 51.501C5.4986 51.501 5.51376 51.501 5.52896 51.501C5.54417 51.501 5.55941 51.501 5.57469 51.501C5.58996 51.501 5.60528 51.501 5.62063 51.501C5.63598 51.501 5.65137 51.501 5.6668 51.501C5.68223 51.501 5.69769 51.501 5.71319 51.501C5.72869 51.501 5.74423 51.501 5.7598 51.501C5.77538 51.501 5.79099 51.501 5.80664 51.501C5.82228 51.501 5.83797 51.501 5.85369 51.501C5.86941 51.501 5.88516 51.501 5.90095 51.501C5.91674 51.501 5.93257 51.501 5.94843 51.501C5.9643 51.501 5.9802 51.501 5.99613 51.501C6.01206 51.501 6.02803 51.501 6.04404 51.501C6.06004 51.501 6.07608 51.501 6.09216 51.501C6.10823 51.501 6.12434 51.501 6.14049 51.501C6.15663 51.501 6.17281 51.501 6.18902 51.501C6.20524 51.501 6.22148 51.501 6.23777 51.501C6.25405 51.501 6.27036 51.501 6.28672 51.501C6.30307 51.501 6.31945 51.501 6.33587 51.501C6.35229 51.501 6.36874 51.501 6.38522 51.501C6.40171 51.501 6.41823 51.501 6.43478 51.501C6.45133 51.501 6.46792 51.501 6.48453 51.501C6.50115 51.501 6.5178 51.501 6.53449 51.501C6.55117 51.501 6.56789 51.501 6.58464 51.501C6.60139 51.501 6.61817 51.501 6.63499 51.501C6.6518 51.501 6.66865 51.501 6.68553 51.501C6.7024 51.501 6.71932 51.501 6.73626 51.501C6.7532 51.501 6.77018 51.501 6.78718 51.501C6.80419 51.501 6.82123 51.501 6.8383 51.501C6.85536 51.501 6.87247 51.501 6.8896 51.501C6.90673 51.501 6.92389 51.501 6.94109 51.501C6.95828 51.501 6.9755 51.501 6.99276 51.501C7.01002 51.501 7.0273 51.501 7.04462 51.501C7.06193 51.501 7.07928 51.501 7.09666 51.501C7.11404 51.501 7.13144 51.501 7.14888 51.501C7.16632 51.501 7.18378 51.501 7.20128 51.501C7.21878 51.501 7.23631 51.501 7.25386 51.501C7.27142 51.501 7.289 51.501 7.30662 51.501C7.32423 51.501 7.34188 51.501 7.35955 51.501C7.37722 51.501 7.39493 51.501 7.41266 51.501C7.43039 51.501 7.44815 51.501 7.46594 51.501C7.48373 51.501 7.50154 51.501 7.51939 51.501C7.53723 51.501 7.55511 51.501 7.57301 51.501C7.59091 51.501 7.60884 51.501 7.6268 51.501C7.64476 51.501 7.66274 51.501 7.68075 51.501C7.69877 51.501 7.71681 51.501 7.73488 51.501C7.75294 51.501 7.77104 51.501 7.78916 51.501C7.80728 51.501 7.82543 51.501 7.84361 51.501C7.86179 51.501 7.87999 51.501 7.89822 51.501C7.91645 51.501 7.93471 51.501 7.95299 51.501C7.97127 51.501 7.98958 51.501 8.00792 51.501C8.02625 51.501 8.04462 51.501 8.063 51.501C8.08139 51.501 8.0998 51.501 8.11824 51.501C8.13668 51.501 8.15515 51.501 8.17364 51.501C8.19213 51.501 8.21065 51.501 8.22919 51.501C8.24773 51.501 8.2663 51.501 8.28489 51.501C8.30348 51.501 8.3221 51.501 8.34074 51.501C8.35938 51.501 8.37805 51.501 8.39674 51.501C8.41543 51.501 8.43414 51.501 8.45288 51.501C8.47162 51.501 8.49038 51.501 8.50917 51.501C8.52796 51.501 8.54677 51.501 8.56561 51.501C8.58444 51.501 8.6033 51.501 8.62219 51.501C8.64107 51.501 8.65998 51.501 8.67891 51.501C8.69784 51.501 8.71679 51.501 8.73577 51.501C8.75474 51.501 8.77374 51.501 8.79277 51.501C8.81179 51.501 8.83083 51.501 8.8499 51.501C8.86897 51.501 8.88806 51.501 8.90717 51.501C8.92629 51.501 8.94542 51.501 8.96458 51.501C8.98374 51.501 9.00292 51.501 9.02212 51.501C9.04132 51.501 9.06055 51.501 9.07979 51.501C9.09904 51.501 9.1183 51.501 9.13759 51.501C9.15688 51.501 9.17619 51.501 9.19552 51.501C9.21485 51.501 9.23421 51.501 9.25358 51.501C9.27295 51.501 9.29235 51.501 9.31176 51.501C9.33118 51.501 9.35061 51.501 9.37007 51.501C9.38953 51.501 9.409 51.501 9.4285 51.501C9.448 51.501 9.46752 51.501 9.48705 51.501C9.50659 51.501 9.52615 51.501 9.54573 51.501C9.5653 51.501 9.5849 51.501 9.60452 51.501C9.62414 51.501 9.64377 51.501 9.66343 51.501C9.68308 51.501 9.70276 51.501 9.72245 51.501C9.74215 51.501 9.76186 51.501 9.78159 51.501C9.80132 51.501 9.82107 51.501 9.84084 51.501C9.86061 51.501 9.8804 51.501 9.90021 51.501C9.92002 51.501 9.93984 51.501 9.95968 51.501C9.97953 51.501 9.99939 51.501 10.0193 51.501C10.0391 51.501 10.059 51.501 10.079 51.501C10.0989 51.501 10.1188 51.501 10.1388 51.501C10.1587 51.501 10.1787 51.501 10.1987 51.501C10.2186 51.501 10.2386 51.501 10.2587 51.501C10.2787 51.501 10.2987 51.501 10.3188 51.501C10.3388 51.501 10.3589 51.501 10.379 51.501C10.3991 51.501 10.4192 51.501 10.4393 51.501C10.4594 51.501 10.4795 51.501 10.4997 51.501C10.5198 51.501 10.54 51.501 10.5602 51.501C10.5804 51.501 10.6006 51.501 10.6208 51.501C10.641 51.501 10.6612 51.501 10.6815 51.501C10.7017 51.501 10.722 51.501 10.7423 51.501C10.7625 51.501 10.7828 51.501 10.8031 51.501C10.8234 51.501 10.8437 51.501 10.8641 51.501C10.8844 51.501 10.9048 51.501 10.9251 51.501C10.9455 51.501 10.9659 51.501 10.9863 51.501C11.0067 51.501 11.0271 51.501 11.0475 51.501C11.0679 51.501 11.0883 51.501 11.1088 51.501C11.1292 51.501 11.1497 51.501 11.1702 51.501C11.1906 51.501 11.2111 51.501 11.2316 51.501C11.2521 51.501 11.2726 51.501 11.2932 51.501C11.3137 51.501 11.3342 51.501 11.3548 51.501C11.3754 51.501 11.3959 51.501 11.4165 51.501C11.4371 51.501 11.4577 51.501 11.4783 51.501C11.4989 51.501 11.5195 51.501 11.5401 51.501C11.5607 51.501 11.5814 51.501 11.602 51.501C11.6227 51.501 11.6433 51.501 11.664 51.501C11.6847 51.501 11.7054 51.501 11.7261 51.501C11.7468 51.501 11.7675 51.501 11.7882 51.501C11.8089 51.501 11.8297 51.501 11.8504 51.501C11.8711 51.501 11.8919 51.501 11.9127 51.501C11.9334 51.501 11.9542 51.501 11.975 51.501C11.9958 51.501 12.0166 51.501 12.0374 51.501C12.0582 51.501 12.079 51.501 12.0998 51.501C12.1206 51.501 12.1415 51.501 12.1623 51.501C12.1831 51.501 12.204 51.501 12.2249 51.501C12.2457 51.501 12.2666 51.501 12.2875 51.501C12.3084 51.501 12.3293 51.501 12.3502 51.501C12.3711 51.501 12.392 51.501 12.4129 51.501C12.4338 51.501 12.4547 51.501 12.4757 51.501C12.4966 51.501 12.5175 51.501 12.5385 51.501C12.5594 51.501 12.5804 51.501 12.6014 51.501C12.6223 51.501 12.6433 51.501 12.6643 51.501C12.6853 51.501 12.7063 51.501 12.7273 51.501C12.7483 51.501 12.7693 51.501 12.7903 51.501C12.8113 51.501 12.8323 51.501 12.8533 51.501C12.8744 51.501 12.8954 51.501 12.9165 51.501C12.9375 51.501 12.9585 51.501 12.9796 51.501C13.0007 51.501 13.0217 51.501 13.0428 51.501C13.0638 51.501 13.0849 51.501 13.106 51.501C13.1271 51.501 13.1482 51.501 13.1693 51.501C13.1904 51.501 13.2115 51.501 13.2326 51.501C13.2537 51.501 13.2748 51.501 13.2959 51.501C13.317 51.501 13.3381 51.501 13.3592 51.501C13.3804 51.501 13.4015 51.501 13.4226 51.501C13.4438 51.501 13.4649 51.501 13.4861 51.501C13.5072 51.501 13.5284 51.501 13.5495 51.501C13.5707 51.501 13.5918 51.501 13.613 51.501C13.6341 51.501 13.6553 51.501 13.6765 51.501C13.6977 51.501 13.7188 51.501 13.74 51.501C13.7612 51.501 13.7824 51.501 13.8036 51.501C13.8247 51.501 13.8459 51.501 13.8671 51.501C13.8883 51.501 13.9095 51.501 13.9307 51.501C13.9519 51.501 13.9731 51.501 13.9943 51.501C14.0155 51.501 14.0367 51.501 14.0579 51.501C14.0792 51.501 14.1004 51.501 14.1216 51.501C14.1428 51.501 14.164 51.501 14.1852 51.501C14.2065 51.501 14.2277 51.501 14.2489 51.501C14.2701 51.501 14.2914 51.501 14.3126 51.501C14.3338 51.501 14.355 51.501 14.3763 51.501C14.3975 51.501 14.4187 51.501 14.44 51.501C14.4612 51.501 14.4824 51.501 14.5037 51.501C14.5249 51.501 14.5461 51.501 14.5674 51.501C14.5886 51.501 14.6098 51.501 14.6311 51.501C14.6523 51.501 14.6736 51.501 14.6948 51.501C14.716 51.501 14.7373 51.501 14.7585 51.501C14.7797 51.501 14.801 51.501 14.8222 51.501C14.8435 51.501 14.8647 51.501 14.8859 51.501C14.9072 51.501 14.9284 51.501 14.9496 51.501C14.9709 51.501 14.9921 51.501 15.0133 51.501C15.0346 51.501 15.0558 51.501 15.077 51.501C15.0983 51.501 15.1195 51.501 15.1407 51.501C15.162 51.501 15.1832 51.501 15.2044 51.501C15.2256 51.501 15.2469 51.501 15.2681 51.501C15.2893 51.501 15.3105 51.501 15.3318 51.501C15.353 51.501 15.3742 51.501 15.3954 51.501C15.4166 51.501 15.4378 51.501 15.459 51.501C15.4802 51.501 15.5015 51.501 15.5227 51.501C15.5439 51.501 15.5651 51.501 15.5863 51.501C15.6075 51.501 15.6286 51.501 15.6498 51.501C15.671 51.501 15.6922 51.501 15.7134 51.501C15.7346 51.501 15.7558 51.501 15.7769 51.501C15.7981 51.501 15.8193 51.501 15.8405 51.501C15.8616 51.501 15.8828 51.501 15.904 51.501C15.9251 51.501 15.9463 51.501 15.9674 51.501C15.9886 51.501 16.0097 51.501 16.0309 51.501C16.052 51.501 16.0731 51.501 16.0943 51.501C16.1154 51.501 16.1365 51.501 16.1577 51.501C16.1788 51.501 16.1999 51.501 16.221 51.501C16.2421 51.501 16.2632 51.501 16.2843 51.501C16.3054 51.501 16.3265 51.501 16.3476 51.501C16.3687 51.501 16.3898 51.501 16.4109 51.501C16.4319 51.501 16.453 51.501 16.4741 51.501C16.4951 51.501 16.5162 51.501 16.5372 51.501C16.5583 51.501 16.5793 51.501 16.6004 51.501C16.6214 51.501 16.6424 51.501 16.6635 51.501C16.6845 51.501 16.7055 51.501 16.7265 51.501C16.7475 51.501 16.7685 51.501 16.7895 51.501C16.8105 51.501 16.8315 51.501 16.8525 51.501C16.8735 51.501 16.8944 51.501 16.9154 51.501C16.9364 51.501 16.9573 51.501 16.9783 51.501C16.9992 51.501 17.0201 51.501 17.0411 51.501C17.062 51.501 17.0829 51.501 17.1038 51.501C17.1247 51.501 17.1456 51.501 17.1665 51.501C17.1874 51.501 17.2083 51.501 17.2292 51.501C17.2501 51.501 17.2709 51.501 17.2918 51.501C17.3127 51.501 17.3335 51.501 17.3543 51.501C17.3752 51.501 17.396 51.501 17.4168 51.501C17.4376 51.501 17.4585 51.501 17.4793 51.501C17.5 51.501 17.5208 51.501 17.5416 51.501C17.5624 51.501 17.5832 51.501 17.6039 51.501C17.6247 51.501 17.6454 51.501 17.6662 51.501C17.6869 51.501 17.7076 51.501 17.7283 51.501C17.749 51.501 17.7697 51.501 17.7904 51.501C17.8111 51.501 17.8318 51.501 17.8525 51.501C17.8731 51.501 17.8938 51.501 17.9144 51.501C17.9351 51.501 17.9557 51.501 17.9763 51.501C17.997 51.501 18.0176 51.501 18.0382 51.501C18.0588 51.501 18.0793 51.501 18.0999 51.501C18.1205 51.501 18.141 51.501 18.1616 51.501C18.1821 51.501 18.2027 51.501 18.2232 51.501C18.2437 51.501 18.2642 51.501 18.2847 51.501C18.3052 51.501 18.3257 51.501 18.3461 51.501C18.3666 51.501 18.3871 51.501 18.4075 51.501C18.4279 51.501 18.4484 51.501 18.4688 51.501C18.4892 51.501 18.5096 51.501 18.53 51.501C18.5504 51.501 18.5707 51.501 18.5911 51.501C18.6114 51.501 18.6318 51.501 18.6521 51.501C18.6724 51.501 18.6927 51.501 18.713 51.501C18.7333 51.501 18.7536 51.501 18.7739 51.501C18.7941 51.501 18.8144 51.501 18.8346 51.501C18.8549 51.501 18.8751 51.501 18.8953 51.501C18.9155 51.501 18.9357 51.501 18.9559 51.501C18.976 51.501 18.9962 51.501 19.0163 51.501C19.0365 51.501 19.0566 51.501 19.0767 51.501C19.0968 51.501 19.1169 51.501 19.137 51.501C19.157 51.501 19.1771 51.501 19.1971 51.501C19.2172 51.501 19.2372 51.501 19.2572 51.501C19.2772 51.501 19.2972 51.501 19.3172 51.501C19.3372 51.501 19.3571 51.501 19.3771 51.501C19.397 51.501 19.4169 51.501 19.4368 51.501C19.4567 51.501 19.4766 51.501 19.4965 51.501C19.5164 51.501 19.5362 51.501 19.556 51.501C19.5759 51.501 19.5957 51.501 19.6155 51.501C19.6353 51.501 19.6551 51.501 19.6748 51.501C19.6946 51.501 19.7143 51.501 19.734 51.501C19.7538 51.501 19.7735 51.501 19.7931 51.501C19.8128 51.501 19.8325 51.501 19.8521 51.501C19.8718 51.501 19.8914 51.501 19.911 51.501C19.9306 51.501 19.9502 51.501 19.9698 51.501C19.9893 51.501 20.0089 51.501 20.0284 51.501C20.0479 51.501 20.0674 51.501 20.0869 51.501C20.1064 51.501 20.1259 51.501 20.1453 51.501C20.1647 51.501 20.1842 51.501 20.2036 51.501C20.223 51.501 20.2424 51.501 20.2617 51.501C20.2811 51.501 20.3004 51.501 20.3197 51.501C20.3391 51.501 20.3584 51.501 20.3776 51.501C20.3969 51.501 20.4162 51.501 20.4354 51.501C20.4546 51.501 20.4738 51.501 20.493 51.501C20.5122 51.501 20.5314 51.501 20.5505 51.501C20.5697 51.501 20.5888 51.501 20.6079 51.501C20.627 51.501 20.6461 51.501 20.6651 51.501C20.6842 51.501 20.7032 51.501 20.7222 51.501C20.7412 51.501 20.7602 51.501 20.7792 51.501C20.7981 51.501 20.8171 51.501 20.836 51.501C20.8549 51.501 20.8738 51.501 20.8927 51.501C20.9115 51.501 20.9304 51.501 20.9492 51.501C20.968 51.501 20.9868 51.501 21.0056 51.501C21.0244 51.501 21.0431 51.501 21.0618 51.501C21.0806 51.501 21.0993 51.501 21.1179 51.501C21.1366 51.501 21.1553 51.501 21.1739 51.501C21.1925 51.501 21.2111 51.501 21.2297 51.501C21.2483 51.501 21.2668 51.501 21.2853 51.501C21.3039 51.501 21.3224 51.501 21.3409 51.501C21.3593 51.501 21.3778 51.501 21.3962 51.501C21.4146 51.501 21.433 51.501 21.4514 51.501C21.4698 51.501 21.4881 51.501 21.5064 51.501C21.5248 51.501 21.543 51.501 21.5613 51.501C21.5796 51.501 21.5978 51.501 21.616 51.501C21.6342 51.501 21.6524 51.501 21.6706 51.501C21.6888 51.501 21.7069 51.501 21.725 51.501C21.7431 51.501 21.7612 51.501 21.7792 51.501C21.7973 51.501 21.8153 51.501 21.8333 51.501C21.8513 51.501 21.8693 51.501 21.8872 51.501C21.9051 51.501 21.9231 51.501 21.9409 51.501C21.9588 51.501 21.9767 51.501 21.9945 51.501C22.0123 51.501 22.0301 51.501 22.0479 51.501C22.0657 51.501 22.0834 51.501 22.1011 51.501C22.1189 51.501 22.1365 51.501 22.1542 51.501C22.1718 51.501 22.1895 51.501 22.2071 51.501C22.2247 51.501 22.2422 51.501 22.2598 51.501C22.2773 51.501 22.2948 51.501 22.3123 51.501C22.3298 51.501 22.3472 51.501 22.3646 51.501C22.3821 51.501 22.3995 51.501 22.4168 51.501C22.4342 51.501 22.4515 51.501 22.4688 51.501C22.4861 51.501 22.5034 51.501 22.5206 51.501C22.5378 51.501 22.555 51.501 22.5722 51.501C22.5894 51.501 22.6065 51.501 22.6237 51.501C22.6408 51.501 22.6578 51.501 22.6749 51.501C22.6919 51.501 22.709 51.501 22.726 51.501C22.7429 51.501 22.7599 51.501 22.7768 51.501C22.7937 51.501 22.8106 51.501 22.8275 51.501C22.8444 51.501 22.8612 51.501 22.878 51.501C22.8948 51.501 22.9115 51.501 22.9283 51.501C22.945 51.501 22.9617 51.501 22.9783 51.501C22.995 51.501 23.0116 51.501 23.0282 51.501C23.0448 51.501 23.0614 51.501 23.0779 51.501C23.0945 51.501 23.111 51.501 23.1274 51.501C23.1439 51.501 23.1603 51.501 23.1767 51.501C23.1931 51.501 23.2095 51.501 23.2258 51.501C23.2421 51.501 23.2584 51.501 23.2747 51.501C23.291 51.501 23.3072 51.501 23.3234 51.501C23.3396 51.501 23.3557 51.501 23.3719 51.501C23.388 51.501 23.4041 51.501 23.4201 51.501C23.4362 51.501 23.4522 51.501 23.4682 51.501C23.4842 51.501 23.5001 51.501 23.516 51.501C23.5319 51.501 23.5478 51.501 23.5637 51.501C23.5795 51.501 23.5953 51.501 23.6111 51.501C23.6268 51.501 23.6426 51.501 23.6583 51.501C23.674 51.501 23.6896 51.501 23.7053 51.501C23.7209 51.501 23.7365 51.501 23.752 51.501C23.7676 51.501 23.7831 51.501 23.7986 51.501C23.814 51.501 23.8295 51.501 23.8449 51.501C23.8603 51.501 23.8757 51.501 23.891 51.501C23.9063 51.501 23.9216 51.501 23.9369 51.501C23.9521 51.501 23.9673 51.501 23.9825 51.501C23.9977 51.501 24.0128 51.501 24.0279 51.501C24.043 51.501 24.0581 51.501 24.0731 51.501C24.0882 51.501 24.1032 51.501 24.1181 51.501C24.1331 51.501 24.148 51.501 24.1628 51.501C24.1777 51.501 24.1925 51.501 24.2073 51.501C24.2221 51.501 24.2369 51.501 24.2516 51.501C24.2663 51.501 24.281 51.501 24.2956 51.501C24.3103 51.501 24.3249 51.501 24.3394 51.501C24.354 51.501 24.3685 51.501 24.383 51.501C24.3975 51.501 24.4119 51.501 24.4263 51.501C24.4407 51.501 24.4551 51.501 24.4694 51.501C24.4837 51.501 24.498 51.501 24.5122 51.501C24.5265 51.501 24.5407 51.501 24.5548 51.501C24.569 51.501 24.5831 51.501 24.5972 51.501C24.6112 51.501 24.6253 51.501 24.6393 51.501C24.6533 51.501 24.6672 51.501 24.6811 51.501C24.695 51.501 24.7089 51.501 24.7227 51.501C24.7365 51.501 24.7503 51.501 24.7641 51.501C24.7778 51.501 24.7915 51.501 24.8052 51.501C24.8188 51.501 24.8324 51.501 24.846 51.501C24.8596 51.501 24.8731 51.501 24.8866 51.501C24.9001 51.501 24.9135 51.501 24.9269 51.501C24.9403 51.501 24.9537 51.501 24.967 51.501C24.9803 51.501 24.9936 51.501 25.0068 51.501C25.02 51.501 25.0332 51.501 25.0464 51.501C25.0595 51.501 25.0726 51.501 25.0856 51.501C25.0987 51.501 25.1117 51.501 25.1247 51.501C25.1376 51.501 25.1506 51.501 25.1634 51.501C25.1763 51.501 25.1891 51.501 25.2019 51.501C25.2147 51.501 25.2274 51.501 25.2401 51.501C25.2528 51.501 25.2655 51.501 25.2781 51.501C25.2907 51.501 25.3033 51.501 25.3158 51.501C25.3283 51.501 25.3408 51.501 25.3532 51.501C25.3656 51.501 25.378 51.501 25.3903 51.501C25.4027 51.501 25.415 51.501 25.4272 51.501C25.4394 51.501 25.4516 51.501 25.4638 51.501C25.4759 51.501 25.488 51.501 25.5001 51.501C25.5122 51.501 25.5242 51.501 25.5361 51.501C25.5481 51.501 25.56 51.501 25.5719 51.501C25.5837 51.501 25.5956 51.501 25.6073 51.501C25.6191 51.501 25.6308 51.501 25.6425 51.501C25.6542 51.501 25.6658 51.501 25.6774 51.501C25.689 51.501 25.7005 51.501 25.712 51.501C25.7235 51.501 25.735 51.501 25.7464 51.501C25.7578 51.501 25.7691 51.501 25.7804 51.501C25.7917 51.501 25.8029 51.501 25.8141 51.501C25.8253 51.501 25.8365 51.501 25.8476 51.501C25.8587 51.501 25.8697 51.501 25.8807 51.501C25.8918 51.501 25.9027 51.501 25.9136 51.501C25.9245 51.501 25.9354 51.501 25.9462 51.501C25.957 51.501 25.9677 51.501 25.9784 51.501C25.9891 51.501 25.9998 51.501 26.0104 51.501V48.501ZM2.01235 50.001C3.39706 50.5777 3.39715 50.5774 3.39726 50.5772C3.39732 50.5771 3.39744 50.5768 3.39755 50.5765C3.39777 50.576 3.39806 50.5753 3.39841 50.5744C3.39911 50.5727 3.40006 50.5704 3.40126 50.5676C3.40365 50.5618 3.40703 50.5536 3.41135 50.5431C3.41998 50.5221 3.4324 50.4918 3.44828 50.4527C3.48004 50.3746 3.52571 50.2612 3.58282 50.1166C3.697 49.8277 3.85718 49.4135 4.04367 48.9069C4.41582 47.8959 4.89665 46.5062 5.32572 45.0022C5.75245 43.5065 6.14057 41.8546 6.30941 40.3301C6.47042 38.8763 6.46966 37.2499 5.84939 36.0021L3.16298 37.3374C3.37472 37.7634 3.47823 38.6402 3.32764 39.9999C3.18489 41.2888 2.84556 42.7606 2.44083 44.1792C2.03844 45.5896 1.5838 46.905 1.22836 47.8705C1.05105 48.3522 0.899402 48.7442 0.792697 49.0143C0.739366 49.1493 0.697327 49.2536 0.668996 49.3233C0.654832 49.3582 0.644101 49.3844 0.637106 49.4014C0.633608 49.4099 0.631045 49.4161 0.629454 49.4199C0.628658 49.4218 0.628106 49.4232 0.627801 49.4239C0.627649 49.4243 0.627559 49.4245 0.627531 49.4245C0.627517 49.4246 0.627543 49.4245 0.627536 49.4245C0.627578 49.4244 0.627636 49.4243 2.01235 50.001Z" fill="#2469BE"/>
</svg>
