<svg width="52" height="52" viewBox="0 0 52 52" fill="none" xmlns="http://www.w3.org/2000/svg">
<path d="M7.69784 28.0384L15.7462 18.232C16.5676 17.176 16.9782 16.648 17.1934 16.0559C17.3839 15.5319 17.4626 14.9739 17.4247 14.4177C17.3819 13.789 17.1335 13.168 16.6366 11.9259L14.7414 7.18791C14.0062 5.34974 13.6385 4.43066 13.0043 3.82823C12.4455 3.29739 11.7452 2.93931 10.9877 2.79707C10.128 2.63566 9.16763 2.87574 7.24697 3.3559L2.00075 4.66764C2.00075 31.3343 20.6666 50.001 47.3341 50.001L48.6451 44.754C49.1252 42.8334 49.3653 41.873 49.2039 41.0133C49.0617 40.2558 48.7036 39.5555 48.1728 38.9966C47.5703 38.3624 46.6512 37.9948 44.8131 37.2595L40.585 35.5683C39.1679 35.0015 38.4594 34.7181 37.753 34.6963C37.1286 34.6772 36.5084 34.8044 35.9421 35.068C35.3014 35.3663 34.7618 35.9059 33.6826 36.9851L25.5404 45.1299M28.6667 12.6676C31.2713 13.1758 33.665 14.4497 35.5415 16.3261C37.418 18.2026 38.6918 20.5964 39.2 23.201M28.6667 2.00098C34.0781 2.60214 39.1242 5.02544 42.9767 8.873C46.8291 12.7206 49.2587 17.7637 49.8667 23.1743" stroke="#2469BE" stroke-width="3" stroke-linecap="round" stroke-linejoin="round"/>
</svg>
