<svg width="25" height="25" viewBox="0 0 25 25" fill="none" xmlns="http://www.w3.org/2000/svg">
<g clip-path="url(#clip0_949_2318)">
<path d="M18.7823 17.31L23.2438 21.7704L21.7698 23.2444L17.3094 18.7829C15.6497 20.1134 13.5854 20.837 11.4583 20.834C6.28334 20.834 2.08334 16.634 2.08334 11.459C2.08334 6.28398 6.28334 2.08398 11.4583 2.08398C16.6333 2.08398 20.8333 6.28398 20.8333 11.459C20.8364 13.5861 20.1127 15.6504 18.7823 17.31ZM16.6927 16.5371C18.0147 15.1776 18.753 13.3553 18.75 11.459C18.75 7.42982 15.4865 4.16732 11.4583 4.16732C7.42918 4.16732 4.16668 7.42982 4.16668 11.459C4.16668 15.4871 7.42918 18.7507 11.4583 18.7507C13.3546 18.7536 15.177 18.0154 16.5365 16.6934L16.6927 16.5371Z" fill="#2469BE"/>
</g>
<defs>
<clipPath id="clip0_949_2318">
<rect width="25" height="25" fill="white"/>
</clipPath>
</defs>
</svg>
