<svg width="22" height="22" viewBox="0 0 22 22" fill="none" xmlns="http://www.w3.org/2000/svg">
<path d="M16.7823 15.31L21.2438 19.7704L19.7698 21.2444L15.3094 16.7829C13.6498 18.1134 11.5855 18.837 9.45837 18.834C4.28337 18.834 0.083374 14.634 0.083374 9.45899C0.083374 4.28398 4.28337 0.0839844 9.45837 0.0839844C14.6334 0.0839844 18.8334 4.28398 18.8334 9.45899C18.8364 11.5861 18.1128 13.6504 16.7823 15.31ZM14.6927 14.5371C16.0147 13.1776 16.753 11.3553 16.75 9.45899C16.75 5.42982 13.4865 2.16732 9.45837 2.16732C5.42921 2.16732 2.16671 5.42982 2.16671 9.45899C2.16671 13.4871 5.42921 16.7507 9.45837 16.7507C11.3547 16.7536 13.177 16.0154 14.5365 14.6934L14.6927 14.5371Z" fill="white"/>
</svg>
