<svg width="20" height="20" viewBox="0 0 20 20" fill="none" xmlns="http://www.w3.org/2000/svg">
<path d="M13.3333 18.9596H6.66667C3.625 18.9596 1.875 17.2096 1.875 14.168V5.83464C1.875 2.79297 3.625 1.04297 6.66667 1.04297H13.3333C16.375 1.04297 18.125 2.79297 18.125 5.83464V14.168C18.125 17.2096 16.375 18.9596 13.3333 18.9596ZM6.66667 2.29297C4.28333 2.29297 3.125 3.4513 3.125 5.83464V14.168C3.125 16.5513 4.28333 17.7096 6.66667 17.7096H13.3333C15.7167 17.7096 16.875 16.5513 16.875 14.168V5.83464C16.875 3.4513 15.7167 2.29297 13.3333 2.29297H6.66667Z" fill="#B8181C"/>
<path d="M7.49999 9.25962C7.35833 9.25962 7.21666 9.23464 7.08333 9.17631C6.69999 9.00964 6.45833 8.63463 6.45833 8.2263V1.66797C6.45833 1.3263 6.74166 1.04297 7.08333 1.04297H12.9167C13.2583 1.04297 13.5417 1.3263 13.5417 1.66797V8.21796C13.5417 8.63462 13.3 9.00963 12.9167 9.16797C12.5417 9.33463 12.1 9.25965 11.7917 8.97632L9.99999 7.33462L8.20831 8.98466C8.00831 9.16799 7.75833 9.25962 7.49999 9.25962ZM9.99999 6.00965C10.25 6.00965 10.5083 6.10128 10.7083 6.28462L12.2917 7.74295V2.29297H7.70833V7.74295L9.29168 6.28462C9.49168 6.10128 9.74999 6.00965 9.99999 6.00965Z" fill="#B8181C"/>
<path d="M14.5833 12.293H11.0417C10.7 12.293 10.4167 12.0096 10.4167 11.668C10.4167 11.3263 10.7 11.043 11.0417 11.043H14.5833C14.925 11.043 15.2083 11.3263 15.2083 11.668C15.2083 12.0096 14.925 12.293 14.5833 12.293Z" fill="#B8181C"/>
<path d="M14.5833 15.625H7.5C7.15833 15.625 6.875 15.3417 6.875 15C6.875 14.6583 7.15833 14.375 7.5 14.375H14.5833C14.925 14.375 15.2083 14.6583 15.2083 15C15.2083 15.3417 14.925 15.625 14.5833 15.625Z" fill="#B8181C"/>
</svg>
