<svg width="312" height="145" viewBox="0 0 312 145" fill="none" xmlns="http://www.w3.org/2000/svg">
<path fill-rule="evenodd" clip-rule="evenodd" d="M33.8789 51.891L30.4481 59.1814L28.7328 64.3272L27.4462 72.9042V82.3388L29.5905 90.0581L31.7347 94.7754L34.3078 98.2062L36.0232 99.9216L28.3039 115.789L26.1597 119.649L26.5885 122.222L30.4481 125.224C31.3058 125.367 33.6216 125.738 36.0232 126.081C38.4247 126.424 42.17 125.652 43.7424 125.224L47.6021 122.651L53.1771 115.36L56.6079 111.501L68.6156 114.502L69.0445 118.362L70.7599 121.364L73.7618 122.222H81.4811L85.7695 121.364L88.3426 126.51L90.9157 128.654L98.2061 130.37H105.068L109.785 128.654L111.5 126.51V125.224L110.643 121.793L109.785 117.076L111.929 116.647L121.364 113.645L125.652 119.649L117.933 122.651L115.789 124.795L116.647 128.654L119.649 130.37H126.081L132.085 129.941L138.089 128.226L140.233 128.654L149.239 129.941H158.245L168.537 127.797L171.11 128.654L174.112 129.512L178.401 130.799L185.262 131.656L191.695 131.228L195.555 130.799L195.983 131.656H197.699L200.701 132.085L205.847 134.229L210.993 137.66L216.997 138.947L222.143 138.518L231.149 136.374L235.009 134.658L235.866 132.514L235.009 129.941L232.007 127.368L228.147 125.652L222.572 124.366L218.712 123.508L212.709 123.937L206.705 124.366L194.697 126.51L187.835 126.939H183.118L179.258 126.51L174.97 125.652L171.968 124.366L171.11 120.506L170.253 119.649L166.822 118.362L160.818 117.076L154.385 116.647H151.812L153.099 113.645L153.956 108.499L153.099 103.352L151.383 99.0639L147.953 95.2043L143.664 92.2023L146.237 88.3427L148.381 83.6254L149.239 79.3369L156.101 78.9081L160.818 76.335L163.391 73.333L165.535 69.9023L166.393 65.6138V60.4676L164.678 53.606C164.249 51.8906 161.247 48.031 160.389 47.1733C159.531 46.3156 155.243 44.1714 153.956 43.7425C152.927 43.3994 150.097 43.3137 148.81 43.3137L148.381 41.5983C147.381 39.7399 145.122 35.6802 144.093 34.3079L141.52 30.8771C141.52 29.5048 138.089 21.4424 136.374 17.5828L132.085 9.43468L127.368 2.57312C126.939 2.14427 125.824 1.2008 124.795 0.857724C123.765 0.514646 122.65 1.57247 122.222 2.14427L117.504 9.00584L114.074 16.7251L106.783 17.1539C105.925 17.5828 103.695 18.269 101.637 17.5828C99.5785 16.8966 96.4907 17.2969 95.2042 17.5828L90.9157 12.8659L84.0542 6.8616L79.3368 3.00236C78.1932 2.00171 75.3914 0.0861935 73.333 0.429272C71.2745 0.77235 70.1881 4.2889 69.9022 6.0043L68.1868 12.8659L66.4714 21.014L65.6137 28.7332L64.3271 29.5909L60.4675 32.5929L57.0367 33.0217L50.1752 36.0237L44.6001 39.4544L39.0251 44.1718L33.8789 51.891ZM210.136 127.796L204.561 128.654L207.562 130.798L210.993 132.513L213.138 133.8L216.139 134.658H218.713L221.714 134.229L225.574 133.371L228.147 132.513L230.291 132.085L228.147 130.369L225.574 128.654L223.43 127.796L220.857 127.367H215.711L210.136 127.796ZM137.66 101.637L138.947 99.493L140.662 96.9199L141.949 97.3488L144.951 100.351L147.524 105.068L147.953 108.928L146.666 113.216L144.093 110.214L137.66 101.637Z" fill="white"/>
<path d="M18.4405 43.3129C18.4405 42.9698 18.7264 41.7405 18.8694 41.1687L18.4405 40.311L18.0117 40.7398L17.154 41.5975L15.8674 43.3129L14.5809 47.1725L15.0097 49.3168L16.2963 51.0322L18.8694 51.8899L20.1559 51.461L23.5867 49.3168C24.1585 48.602 25.7309 46.9152 27.4463 45.886C29.1617 44.8567 29.8765 45.4571 30.0194 45.886L30.4482 47.6014V51.461C30.4482 53.5195 31.5918 55.4636 32.1636 56.1783L36.0233 48.0302L35.5944 43.3129L34.3079 41.1687L32.5925 39.8821L30.4482 39.0244L28.304 39.4533L25.7309 41.1687L21.4424 45.4571L19.2982 46.7437C18.4405 45.886 18.4405 43.7417 18.4405 43.3129Z" fill="white"/>
<path d="M295.047 120.076L291.617 121.363L292.045 125.651L295.047 127.796L298.049 128.653L300.622 129.082H303.624L307.913 128.225L310.915 126.509L311.772 122.221L310.057 120.934L306.626 119.648L302.767 119.219H298.907L295.047 120.076Z" fill="white"/>
<path d="M178.83 110.642L179.258 112.357L181.832 113.644L184.833 114.502L189.98 114.93L193.839 114.502L196.412 113.215L197.27 109.355L193.41 107.211L189.551 106.354H185.691L181.403 107.64L179.258 108.498L178.83 110.642Z" fill="white"/>
<path d="M60.0383 134.657L61.3248 130.797L63.8979 130.368L67.3287 129.939L72.4749 131.226L75.9057 133.799L78.0499 136.372L76.7634 140.661L75.048 141.09H72.046L67.7576 139.803L64.6603 138.564L65.1845 138.945L64.7556 141.518L63.4691 142.805L59.6094 144.091H56.1787L52.319 143.663L49.3171 142.376L47.1729 141.09V137.659L48.8882 136.801L54.0344 135.514H59.1806H60.4671L62.0396 136.658L60.0383 134.657Z" fill="white"/>
<path d="M5.57489 115.359L0.428711 117.503L0.857559 121.362L3.43065 122.649L9.86337 123.935L14.5807 122.649L18.0115 120.505V117.074L17.1538 116.216L10.7211 114.93L5.57489 115.359Z" fill="white"/>
<path fill-rule="evenodd" clip-rule="evenodd" d="M127.131 56.8759C127.618 54.8024 128.38 52.9641 129.684 51.4278C130.845 50.0608 132.437 48.9363 134.644 48.0952C136.766 47.2849 138.686 46.6072 140.658 45.9725C142.57 45.3568 144.531 44.7818 146.776 44.1708C151.172 42.9642 155.921 44.1403 159.577 47.3205C162.649 49.9923 164.956 54.0782 165.633 59.3916C166.32 64.6972 165.494 69.0439 163.63 72.2854C161.333 76.2792 157.455 78.5785 152.91 78.8839C150.989 79.024 148.911 79.1016 146.896 79.1475C143.24 79.231 139.789 79.2059 137.839 79.2189C135.957 79.2342 134.347 78.6259 133.055 77.8227C131.042 76.5716 129.793 74.8528 129.497 74.2448C129.455 74.1567 129.35 74.1189 129.262 74.1604C129.174 74.2022 129.136 74.3073 129.177 74.3953C129.471 75.0387 130.723 76.8728 132.791 78.2345C134.141 79.1233 135.837 79.8076 137.836 79.8433C139.789 79.8755 143.244 79.9859 146.906 79.9813C148.937 79.9788 151.031 79.9391 152.97 79.8366C157.863 79.55 162.066 77.1075 164.557 72.8215C166.536 69.418 167.426 64.8393 166.707 59.2527C165.97 53.6461 163.517 49.3343 160.25 46.5409C156.319 43.1804 151.221 42.01 146.548 43.3589C144.301 44.0125 142.338 44.6231 140.427 45.2775C138.456 45.9524 136.54 46.6735 134.421 47.53C132.134 48.4561 130.498 49.6679 129.315 51.1208C128 52.7352 127.245 54.6468 126.786 56.7989C126.765 56.8939 126.825 56.9883 126.92 57.0096C127.015 57.0309 127.109 56.971 127.131 56.8759Z" fill="black"/>
<path fill-rule="evenodd" clip-rule="evenodd" d="M142.369 47.2631C139.771 49.6646 137.947 53.1167 137.114 56.8867C136.582 59.2906 136.452 61.8235 136.772 64.2845C136.901 65.2735 137.106 66.2507 137.386 67.2026C137.81 68.6384 138.406 70.0181 139.182 71.2968C141.007 74.3076 143.82 76.7648 147.729 78.1126C147.821 78.1457 147.922 78.0982 147.955 78.0066C147.988 77.915 147.941 77.8138 147.849 77.7808C144.106 76.3638 141.465 73.9061 139.768 70.9507C139.054 69.7061 138.509 68.3733 138.117 66.9914C137.857 66.073 137.665 65.1334 137.535 64.1831C137.212 61.8043 137.3 59.3588 137.764 57.0232C138.496 53.3383 140.151 49.9263 142.612 47.5189C142.683 47.4517 142.686 47.34 142.619 47.2694C142.551 47.1988 142.44 47.1961 142.369 47.2631Z" fill="black"/>
<path fill-rule="evenodd" clip-rule="evenodd" d="M149.557 65.3448C150.016 65.6782 150.387 65.2437 150.102 64.79C149.063 63.1388 148.917 62.1682 148.974 61.0578C149.037 59.8339 150.332 58.8771 149.567 57.9904C148.875 57.1869 147.135 58.3728 147.224 60.7093C147.332 63.5235 148.675 64.705 149.557 65.3448Z" fill="black"/>
<path fill-rule="evenodd" clip-rule="evenodd" d="M157.501 63.4921C157.154 63.9306 156.689 63.6143 156.84 63.1071C157.388 61.2609 157.271 60.298 156.925 59.2554C156.543 58.1063 155.066 57.5358 155.556 56.4899C156 55.5424 157.958 56.2142 158.489 58.463C159.128 61.1717 158.167 62.6507 157.501 63.4921Z" fill="black"/>
<path fill-rule="evenodd" clip-rule="evenodd" d="M148.711 79.6133C148.711 79.6133 148.42 82.1518 147.309 85.2182C146.704 86.8887 145.859 88.7155 144.684 90.3745C144.588 90.5044 144.616 90.6875 144.746 90.7832C144.875 90.8789 145.059 90.8511 145.154 90.7212C146.429 89.0557 147.372 87.205 148.059 85.5056C149.329 82.3696 149.724 79.7483 149.724 79.7483C149.761 79.4689 149.564 79.2118 149.285 79.1745C149.005 79.1372 148.748 79.3338 148.711 79.6133Z" fill="black"/>
<path fill-rule="evenodd" clip-rule="evenodd" d="M140.446 81.0435C140.704 81.9378 140.617 83.0341 139.807 83.748C139.244 84.2441 138.34 84.5383 136.978 84.4853C135.958 84.4608 134.951 84.4307 133.959 84.4111C132.412 84.3804 130.901 84.3626 129.432 84.3345C122.522 84.2022 116.53 83.9488 111.929 83.1621C107.239 82.3603 104.009 81.0457 102.807 78.6996C102.734 78.5542 102.556 78.4955 102.411 78.5685C102.265 78.6417 102.207 78.819 102.28 78.9646C103.51 81.4617 106.856 82.9922 111.795 83.9106C116.418 84.77 122.449 85.1258 129.408 85.3267C130.879 85.3693 132.392 85.4094 133.942 85.4319C134.934 85.4462 135.942 85.4479 136.963 85.4549C138.632 85.4418 139.715 84.9904 140.364 84.3413C141.332 83.3734 141.386 81.9748 140.971 80.8697C140.923 80.7249 140.767 80.6463 140.622 80.6941C140.477 80.7421 140.399 80.8986 140.446 81.0435Z" fill="black"/>
<path fill-rule="evenodd" clip-rule="evenodd" d="M107.086 77.6774C106.734 77.5398 106.38 77.4196 105.998 77.3437C105.627 77.2698 105.243 77.24 104.854 77.2485C104.401 77.2584 103.943 77.3365 103.486 77.4504C102.842 77.6108 102.199 77.8645 101.573 78.224C100.194 79.0138 98.884 80.3109 97.809 82.2887C97.727 82.4294 97.7747 82.61 97.9153 82.6919C98.056 82.774 98.2366 82.7263 98.3185 82.5857C99.42 80.8184 100.695 79.6933 102.005 79.0259C102.97 78.5339 103.956 78.3361 104.907 78.2613C105.25 78.2342 105.586 78.2131 105.92 78.2077C106.276 78.2019 106.617 78.1874 106.962 78.216C107.11 78.2504 107.259 78.1578 107.294 78.0091C107.328 77.8605 107.235 77.7118 107.086 77.6774Z" fill="black"/>
<path fill-rule="evenodd" clip-rule="evenodd" d="M133.534 84.871C133.534 84.871 133.141 85.6922 132.692 86.7555C132.522 87.1582 132.347 87.5949 132.181 88.0342C131.94 88.6724 131.722 89.3147 131.562 89.8572C128.85 89.8847 127.212 89.87 125.906 89.8767C125.409 89.8792 124.96 89.8857 124.518 89.8967C122.079 88.4363 119.607 88.3338 117.336 89.3713C115.379 90.2652 113.568 92.0172 112.078 94.49C111.992 94.6284 112.035 94.8103 112.173 94.8961C112.311 94.9818 112.493 94.939 112.579 94.8006C114.043 92.4998 115.779 90.873 117.646 90.0713C119.727 89.1782 121.967 89.3379 124.147 90.7515C124.223 90.7997 124.312 90.8246 124.402 90.8231C125.745 90.8105 127.119 90.8586 129.681 90.8723C130.35 90.8758 131.099 90.8735 131.95 90.8701C132.183 90.8687 132.385 90.709 132.441 90.4825C132.543 90.0289 132.71 89.4653 132.886 88.8718C133.075 88.2362 133.28 87.5704 133.463 86.9751C133.792 85.9068 134.049 85.0726 134.049 85.0726C134.104 84.9306 134.034 84.77 133.892 84.7143C133.75 84.6588 133.589 84.729 133.534 84.871Z" fill="black"/>
<path fill-rule="evenodd" clip-rule="evenodd" d="M114.464 88.6767C114.464 88.6767 108.744 91.5365 103.852 94.9458C102.426 95.9399 101.069 96.9795 99.9485 98.0134C99.0164 98.8731 98.2515 99.734 97.7211 100.542C97.4034 101.049 97.1442 101.507 96.9446 101.926C96.466 102.931 96.2903 103.699 96.2928 104.281C96.3013 106.185 98.0526 106.233 98.0526 106.233C98.141 106.24 98.218 106.173 98.2243 106.085C98.2306 105.996 98.1638 105.919 98.0755 105.913C98.0755 105.913 96.7647 105.748 96.8862 104.304C96.9237 103.859 97.0929 103.305 97.4449 102.599C97.6792 102.13 97.9912 101.596 98.407 100.991C98.9054 100.229 99.6383 99.4304 100.505 98.6077C101.589 97.5781 102.885 96.5185 104.251 95.498C109.003 91.947 114.557 88.8536 114.557 88.8536C114.606 88.8279 114.625 88.7673 114.599 88.7184C114.573 88.6695 114.512 88.6508 114.464 88.6767Z" fill="black"/>
<path fill-rule="evenodd" clip-rule="evenodd" d="M114.664 89.0095C114.763 88.9389 114.809 88.8081 114.777 88.6853C114.745 88.5626 114.642 88.4756 114.523 88.4696C113.928 88.4391 113.195 88.2685 112.414 88.0105C111.42 87.6822 110.35 87.2107 109.377 86.6907C109.303 86.6514 109.216 86.6427 109.135 86.6665C106.451 87.4472 100.93 90.0746 96.5337 93.5972C93.7457 95.8311 91.4172 98.4298 90.4997 101.134C89.391 104.406 89.8353 106.074 90.9136 107.072C91.4829 107.599 92.252 107.946 93.1233 108.231C94.1418 108.565 95.3066 108.82 96.414 109.257C98.8575 110.221 100.622 110.273 101.868 109.12C102.804 108.253 103.47 106.64 103.871 104.032C104.097 102.543 104.591 101.121 105.237 99.7819C105.677 98.8697 106.189 97.9967 106.741 97.1689C107.86 95.49 109.152 94.0035 110.36 92.77C112.66 90.4215 114.664 88.9942 114.664 88.9942V89.0095ZM113.709 88.969C112.895 89.5372 111.406 90.6444 109.783 92.1835C108.491 93.4087 107.12 94.9099 105.932 96.6179C105.336 97.4739 104.789 98.3837 104.322 99.3373C103.624 100.764 103.11 102.29 102.87 103.881C102.529 106.18 102.016 107.629 101.195 108.397C100.188 109.34 98.7521 109.139 96.7612 108.369C95.6322 107.933 94.4469 107.681 93.4091 107.349C92.6721 107.114 92.0126 106.843 91.529 106.402C90.6168 105.571 90.4093 104.163 91.3181 101.408C92.1688 98.8261 94.389 96.3533 97.0234 94.203C101.239 90.7622 106.527 88.1568 109.195 87.3229C110.172 87.8253 111.235 88.2767 112.225 88.5925C112.747 88.7596 113.25 88.8887 113.709 88.969H113.709Z" fill="black"/>
<path fill-rule="evenodd" clip-rule="evenodd" d="M109.365 86.7368C108.38 86.1519 107.562 85.6223 106.884 85.1428C106.273 84.7101 105.781 84.3158 105.413 83.9183C104.618 83.0629 104.402 82.2115 104.72 81.0807C104.747 80.9962 104.7 80.9058 104.615 80.8787C104.531 80.8518 104.441 80.8985 104.414 80.9829C103.959 82.2522 104.137 83.2578 104.997 84.2848C105.369 84.7292 105.876 85.1787 106.527 85.6446C107.215 86.1366 108.072 86.6406 109.087 87.2153C109.22 87.2917 109.389 87.2468 109.465 87.1146C109.542 86.9827 109.497 86.8134 109.365 86.7368Z" fill="black"/>
<path fill-rule="evenodd" clip-rule="evenodd" d="M114.455 89.0348C115.13 89.1593 115.823 89.2718 116.439 89.3469C117.57 89.4848 118.436 89.5284 118.436 89.5284C118.524 89.5381 118.604 89.4744 118.613 89.3862C118.623 89.2982 118.559 89.2187 118.471 89.2091C118.471 89.2091 117.998 89.1332 117.295 89.0075C116.97 88.9495 116.598 88.8778 116.2 88.8047C115.679 88.7092 115.115 88.6106 114.564 88.4928C114.414 88.4627 114.269 88.5597 114.239 88.7094C114.209 88.8591 114.306 89.0048 114.455 89.0348Z" fill="black"/>
<path fill-rule="evenodd" clip-rule="evenodd" d="M124.124 90.682C124.504 90.9557 124.85 91.2354 125.144 91.4917C125.724 91.9979 126.094 92.3923 126.094 92.3923C126.169 92.4854 126.305 92.5004 126.398 92.426C126.491 92.3516 126.506 92.2155 126.432 92.1226C126.432 92.1226 126.113 91.6584 125.596 91.0464C125.331 90.7331 125.015 90.3869 124.664 90.0418C124.487 89.8929 124.223 89.9154 124.074 90.0922C123.925 90.2688 123.947 90.5332 124.124 90.682Z" fill="black"/>
<path fill-rule="evenodd" clip-rule="evenodd" d="M128.291 92.0759C133.115 92.8105 139.354 95.4473 143.36 99.4771C146.067 102.2 147.754 105.565 147.185 109.435C146.805 112.089 145.796 114.299 144.389 116.139C143.388 117.448 142.183 118.569 140.85 119.528C138.836 120.976 136.531 122.05 134.187 122.824C130.17 124.15 126.043 124.602 123.072 124.476C122.953 124.469 122.851 124.56 122.844 124.679C122.837 124.798 122.927 124.9 123.046 124.907C126.07 125.139 130.3 124.845 134.433 123.606C136.887 122.87 139.305 121.8 141.417 120.328C142.846 119.332 144.134 118.148 145.199 116.759C146.708 114.793 147.767 112.414 148.16 109.572C148.722 105.396 146.914 101.768 143.956 98.8767C139.784 94.7997 133.334 92.195 128.371 91.5234C128.219 91.5014 128.077 91.6073 128.055 91.7599C128.033 91.9123 128.139 92.054 128.291 92.0759Z" fill="black"/>
<path fill-rule="evenodd" clip-rule="evenodd" d="M134.495 88.8174C134.495 88.8174 142.847 90.5352 148.457 96.3812C151.674 99.7331 153.981 104.454 153.249 111.01C152.542 117.367 148.903 121.735 144.199 124.671C139.792 127.422 134.45 128.917 129.661 129.608C125.498 130.209 121.751 130.205 119.398 129.85C117.907 129.63 116.945 128.504 116.568 127.241C116.159 125.873 116.41 124.32 117.497 123.558C119.537 122.122 123.317 120.841 127.343 119.761C134.789 117.765 143.085 116.495 143.085 116.495C143.203 116.478 143.285 116.369 143.269 116.251C143.252 116.133 143.142 116.051 143.024 116.068C143.024 116.068 134.667 117.166 127.157 119.045C123 120.085 119.106 121.376 116.988 122.822C115.583 123.784 115.155 125.748 115.66 127.507C116.124 129.116 117.358 130.53 119.249 130.827C121.668 131.2 125.524 131.235 129.806 130.616C134.723 129.906 140.202 128.337 144.713 125.49C149.629 122.387 153.399 117.769 154.093 111.101C154.8 104.257 152.355 99.352 148.968 95.8862C143.171 89.9527 134.605 88.2702 134.605 88.2702C134.454 88.2398 134.306 88.3378 134.276 88.4888C134.246 88.6398 134.344 88.7871 134.495 88.8174Z" fill="black"/>
<path fill-rule="evenodd" clip-rule="evenodd" d="M153.545 116.895C156.534 117.06 160.079 117.349 163.578 118.062C165.778 118.511 167.961 119.129 169.97 119.995C170.319 120.145 170.602 120.468 170.834 120.872C171.157 121.434 171.372 122.154 171.476 122.883C171.581 123.628 171.569 124.383 171.421 124.987C171.316 125.423 171.157 125.781 170.871 125.925C170.238 126.245 167.089 127.861 161.586 128.845C159.694 129.183 157.528 129.45 155.088 129.57C152.633 129.69 149.901 129.663 146.894 129.404C144.372 129.188 141.659 128.819 138.755 128.229C138.638 128.203 138.523 128.277 138.497 128.393C138.471 128.509 138.544 128.625 138.661 128.651C141.565 129.355 144.284 129.842 146.819 130.14C149.86 130.498 152.633 130.598 155.125 130.521C157.618 130.443 159.834 130.191 161.763 129.85C167.433 128.847 170.653 127.109 171.304 126.775C171.702 126.57 172.017 126.169 172.211 125.622C172.484 124.861 172.536 123.796 172.373 122.749C172.126 121.164 171.372 119.65 170.302 119.208C168.227 118.355 165.982 117.756 163.719 117.335C160.176 116.675 156.59 116.45 153.571 116.337C153.418 116.33 153.286 116.449 153.28 116.603C153.273 116.757 153.39 116.888 153.545 116.895Z" fill="black"/>
<path fill-rule="evenodd" clip-rule="evenodd" d="M146.656 123.729C149.078 124.192 153.358 124.294 157.649 124.007C161.794 123.729 165.947 123.09 168.442 122.073C168.508 122.047 168.54 121.972 168.515 121.906C168.488 121.839 168.413 121.807 168.346 121.833C165.858 122.802 161.734 123.366 157.624 123.576C153.382 123.792 149.158 123.63 146.774 123.135C146.61 123.102 146.45 123.209 146.418 123.373C146.385 123.537 146.492 123.696 146.656 123.729Z" fill="black"/>
<path fill-rule="evenodd" clip-rule="evenodd" d="M172.074 124.518C174.743 126.072 178.354 126.903 182.17 127.24C187.713 127.729 193.686 127.178 197.798 126.336C202.554 125.358 208.049 124.5 213.139 124.22C216.921 124.011 220.478 124.12 223.333 124.757C227.171 125.61 230.274 126.781 232.384 128.138C234.611 129.57 235.728 131.165 235.18 132.835C234.876 133.759 234.589 134.304 234.039 134.681C233.109 135.32 231.561 135.543 228.511 136.325C224.912 137.251 221.132 138.565 217.28 138.493C214.945 138.45 212.585 137.889 210.224 136.396C206.697 134.172 204.368 132.786 202.229 132.024C200.341 131.352 198.599 131.155 196.341 131.301C196.017 130.892 195.803 130.274 195.775 129.649C195.752 129.053 195.896 128.442 196.334 128.008C198.774 127.78 200.627 127.96 202.539 128.609C204.928 129.42 207.404 130.948 211.187 133.289C213.353 134.63 215.688 135.05 218.06 134.956C223.813 134.727 229.782 131.443 233.971 131.446C234.04 131.447 234.1 131.39 234.1 131.318C234.102 131.247 234.044 131.189 233.972 131.188C229.795 131.107 223.785 134.266 218.043 134.392C215.792 134.442 213.583 134.018 211.55 132.713C207.737 130.266 205.236 128.675 202.815 127.813C200.759 127.08 198.76 126.865 196.09 127.094C195.997 127.103 195.908 127.14 195.835 127.201C195.082 127.823 194.786 128.757 194.815 129.684C194.846 130.659 195.244 131.613 195.787 132.159C195.888 132.259 196.027 132.311 196.169 132.301C198.386 132.154 200.061 132.337 201.88 132.997C203.959 133.752 206.224 135.117 209.651 137.298C212.197 138.912 214.743 139.523 217.259 139.572C221.208 139.648 225.089 138.318 228.78 137.368C232.024 136.532 233.657 136.244 234.645 135.563C235.367 135.066 235.796 134.382 236.193 133.167C236.743 131.484 236.087 129.794 234.34 128.275C232.232 126.443 228.477 124.833 223.555 123.754C220.619 123.114 216.965 123.006 213.083 123.244C207.949 123.56 202.413 124.474 197.623 125.498C193.577 126.366 187.696 126.962 182.228 126.533C178.513 126.241 174.988 125.479 172.376 123.993C172.231 123.91 172.045 123.96 171.962 124.105C171.88 124.249 171.93 124.435 172.074 124.518Z" fill="black"/>
<path fill-rule="evenodd" clip-rule="evenodd" d="M194.328 130.91C193.022 130.828 191.004 131.107 188.385 131.225C186.676 131.302 184.711 131.3 182.511 131.087C181.065 130.947 179.519 130.722 177.878 130.35C175.793 129.878 173.554 129.183 171.184 128.152C171.024 128.081 170.837 128.153 170.767 128.313C170.695 128.472 170.767 128.659 170.927 128.73C173.324 129.822 175.587 130.582 177.706 131.088C179.379 131.487 180.96 131.736 182.439 131.865C184.682 132.059 186.686 131.994 188.425 131.856C191.021 131.651 193.012 131.262 194.313 131.289C194.417 131.293 194.505 131.212 194.51 131.107C194.514 131.003 194.432 130.914 194.328 130.91Z" fill="black"/>
<path fill-rule="evenodd" clip-rule="evenodd" d="M199.174 130.274C199.555 129.7 199.254 129.04 198.709 128.696C198.455 128.536 198.146 128.452 197.841 128.479C197.55 128.504 197.262 128.631 197.023 128.879C196.695 129.244 196.599 129.585 196.632 129.882C196.688 130.414 197.126 130.777 197.126 130.777C197.173 130.822 197.248 130.82 197.292 130.773C197.338 130.726 197.335 130.65 197.289 130.605C197.289 130.605 197.006 130.278 197.027 129.871C197.037 129.675 197.139 129.468 197.389 129.261C197.539 129.13 197.715 129.082 197.885 129.072C198.072 129.061 198.26 129.106 198.423 129.192C198.765 129.371 199.028 129.713 198.845 130.085C198.793 130.176 198.825 130.292 198.915 130.344C199.005 130.396 199.121 130.365 199.174 130.274Z" fill="black"/>
<path fill-rule="evenodd" clip-rule="evenodd" d="M204.198 128.941C206.222 128.636 208.138 128.364 209.952 128.139C211.286 127.974 212.567 127.835 213.795 127.737C214.675 127.666 215.53 127.615 216.359 127.587C217.706 127.541 218.983 127.558 220.195 127.664C223.959 127.991 227.104 129.165 229.76 131.779C229.806 131.825 229.881 131.826 229.927 131.78C229.973 131.734 229.975 131.659 229.929 131.612C227.282 128.859 224.095 127.547 220.248 127.129C219.014 126.995 217.713 126.954 216.34 126.992C215.501 127.016 214.636 127.071 213.744 127.151C212.509 127.261 211.222 127.419 209.882 127.613C208.068 127.876 206.156 128.208 204.137 128.567C204.034 128.584 203.963 128.682 203.98 128.785C203.997 128.888 204.094 128.958 204.198 128.941Z" fill="black"/>
<path fill-rule="evenodd" clip-rule="evenodd" d="M111.486 116.894C114.707 116.279 118.299 115.261 121.917 113.686C124.08 112.745 126.254 111.608 128.361 110.249C129.173 109.725 129.973 109.164 130.758 108.569C131.908 107.696 133.028 106.749 134.103 105.727C136.654 103.302 138.958 100.455 140.868 97.1578C140.939 97.0408 140.901 96.8886 140.784 96.8179C140.667 96.7472 140.515 96.7849 140.444 96.9018C138.451 100.069 136.073 102.764 133.497 105.069C132.415 106.036 131.299 106.933 130.161 107.768C129.384 108.338 128.598 108.878 127.806 109.394C125.748 110.735 123.642 111.886 121.546 112.861C118.019 114.502 114.53 115.658 111.378 116.373C111.234 116.403 111.142 116.544 111.172 116.688C111.202 116.832 111.343 116.924 111.486 116.894Z" fill="black"/>
<path fill-rule="evenodd" clip-rule="evenodd" d="M108.459 111.272C109.186 114.807 109.78 119.09 110.406 122.245C110.617 123.312 110.834 124.251 111.059 124.993C111.222 125.53 111.115 126.053 110.82 126.545C110.422 127.208 109.694 127.805 108.774 128.317C106.951 129.33 104.371 129.978 101.86 129.951C100.222 129.941 98.5978 129.878 97.0471 129.696C95.4048 129.503 93.8459 129.175 92.4453 128.603C90.538 127.824 88.9248 126.597 87.809 124.657C87.0647 123.37 86.1042 121.387 85.1576 119.334C83.3245 115.358 81.5513 111.123 81.5513 111.123C81.5002 110.996 81.3558 110.935 81.2291 110.986C81.1024 111.037 81.0409 111.181 81.092 111.308C81.092 111.308 82.756 115.6 84.4993 119.628C85.4084 121.729 86.3414 123.757 87.0662 125.076C88.2539 127.224 89.9954 128.608 92.0751 129.491C93.5474 130.117 95.1911 130.492 96.9262 130.704C98.513 130.898 100.177 130.953 101.855 130.962C104.541 130.962 107.296 130.237 109.231 129.126C111.269 127.957 112.385 126.343 111.866 124.74C111.633 124.024 111.405 123.115 111.176 122.083C110.481 118.943 109.786 114.676 108.978 111.159C108.947 111.015 108.805 110.924 108.662 110.955C108.519 110.987 108.427 111.128 108.459 111.272Z" fill="black"/>
<path fill-rule="evenodd" clip-rule="evenodd" d="M121.015 113.778C121.527 114.509 122.153 115.375 122.773 116.222C124.133 118.082 125.458 119.844 125.458 119.844C125.507 119.912 125.602 119.929 125.671 119.88C125.74 119.831 125.756 119.736 125.707 119.667C125.707 119.667 124.484 117.837 123.23 115.907C122.661 115.03 122.086 114.135 121.617 113.381C121.507 113.214 121.283 113.169 121.117 113.278C120.951 113.388 120.905 113.612 121.015 113.778Z" fill="black"/>
<path fill-rule="evenodd" clip-rule="evenodd" d="M137.427 101.717C139.445 104.382 141.2 106.588 142.671 108.528C143.476 109.589 144.196 110.57 144.827 111.503C144.873 111.574 144.967 111.594 145.038 111.548C145.109 111.501 145.129 111.407 145.083 111.336C144.48 110.377 143.791 109.367 143.018 108.274C141.614 106.285 139.935 104.022 138.009 101.291C137.892 101.131 137.666 101.096 137.505 101.213C137.344 101.331 137.309 101.556 137.427 101.717Z" fill="black"/>
<path fill-rule="evenodd" clip-rule="evenodd" d="M105.723 17.6388C106.98 17.3496 108.75 17.1894 110.869 17.228C112.429 17.2565 114.177 17.4007 116.052 17.6798C120.529 18.3463 125.721 19.8287 130.763 22.6606C133.288 24.079 135.773 25.833 138.122 27.9803C139.062 28.8397 139.981 29.7598 140.874 30.7464C143.568 33.7244 146.01 37.3088 147.982 41.6446C148.038 41.7738 148.189 41.8332 148.318 41.7769C148.447 41.7207 148.507 41.5702 148.45 41.4409C146.591 36.965 144.249 33.2187 141.584 30.1203C140.08 28.371 138.471 26.8312 136.805 25.4741C135.02 24.0206 133.165 22.7812 131.288 21.7259C126.123 18.8222 120.791 17.2994 116.194 16.6777C114.269 16.4173 112.472 16.3215 110.873 16.3365C108.674 16.3571 106.844 16.5963 105.55 16.9384C105.356 16.9861 105.238 17.1819 105.286 17.3752C105.334 17.5684 105.529 17.6866 105.723 17.6388Z" fill="black"/>
<path fill-rule="evenodd" clip-rule="evenodd" d="M97.1899 19.6199C95.5203 17.5587 92.9142 14.5637 89.9761 11.5521C87.4178 8.92985 84.6081 6.29718 81.9951 4.21195C79.9778 2.60214 78.067 1.32471 76.4648 0.621634C75.3037 0.112161 74.2848 -0.0940456 73.4785 0.0397931C72.4475 0.211774 71.4774 1.0458 70.6345 2.44038C69.5754 4.19305 68.6644 6.85433 67.9189 9.97995C67.1675 13.1311 66.5691 16.7569 66.122 20.3788C65.383 26.3663 65.0485 32.34 64.9571 36.1228C64.9518 36.2638 65.062 36.3823 65.2028 36.3875C65.3436 36.3928 65.4623 36.2827 65.4676 36.1418C65.6569 32.3787 66.186 26.4472 67.036 20.5006C67.5472 16.9237 68.1725 13.3416 68.9399 10.2275C69.6775 7.23388 70.533 4.67579 71.5516 2.99548C72.1948 1.93482 72.8699 1.22833 73.6549 1.09739C74.2997 0.989434 75.1067 1.19411 76.0364 1.60022C77.5732 2.27146 79.3982 3.50444 81.3392 5.03797C83.9331 7.08727 86.7161 9.68265 89.2854 12.2363C92.2494 15.182 94.9291 18.0724 96.6346 20.0807C96.7618 20.2339 96.9893 20.2551 97.1426 20.128C97.2958 20.0008 97.3171 19.7732 97.1899 19.6199Z" fill="black"/>
<path fill-rule="evenodd" clip-rule="evenodd" d="M95.476 17.7868C97.1368 17.6099 99.3812 17.5258 102.006 18.3143C103.252 18.6886 104.585 19.256 105.985 20.1147C108.449 21.6266 111.119 24.0244 113.869 27.7985C114 27.9773 114.228 28.0568 114.441 27.998C115.476 27.7091 116.595 27.3711 117.786 27.1071C118.505 26.9479 119.249 26.8141 120.019 26.7407C120.167 26.7279 120.302 26.6501 120.387 26.5285C120.472 26.4068 120.499 26.2537 120.46 26.1103C119.92 24.2359 118.903 22.2694 117.232 20.6727C115.856 19.3574 114.042 18.2917 111.706 17.7291C111.57 17.693 111.43 17.7742 111.394 17.9104C111.358 18.0466 111.439 18.1866 111.575 18.2229C113.757 18.8567 115.42 19.9427 116.67 21.2373C117.997 22.6104 118.85 24.2242 119.332 25.7999C118.728 25.8699 118.14 25.9705 117.567 26.0904C116.487 26.3167 115.466 26.6103 114.511 26.8737C111.727 23.1344 109.03 20.733 106.526 19.2239C105.033 18.3239 103.609 17.7338 102.276 17.371C99.4922 16.6127 97.1257 16.8177 95.386 17.0709C95.1884 17.0958 95.0481 17.2763 95.073 17.474C95.098 17.6715 95.2785 17.8117 95.476 17.7868Z" fill="black"/>
<path fill-rule="evenodd" clip-rule="evenodd" d="M114.347 17.0658C115.203 15.1225 116.5 12.3359 117.951 9.62128C118.843 7.95204 119.789 6.30784 120.753 4.92041C121.491 3.85839 122.232 2.94587 122.958 2.29319C123.569 1.74438 124.154 1.3788 124.717 1.31716C124.934 1.29349 125.172 1.37301 125.433 1.51195C125.791 1.70215 126.175 2.0061 126.584 2.39961C127.701 3.4739 128.965 5.19745 130.28 7.26208C131.642 9.40043 133.045 11.9079 134.384 14.4575C136.515 18.5135 138.476 22.6796 139.679 25.7313C139.728 25.8634 139.876 25.9305 140.007 25.8811C140.14 25.8318 140.207 25.6845 140.157 25.5523C139.055 22.4405 137.275 18.1589 135.23 14.026C133.939 11.4157 132.538 8.86831 131.177 6.69556C129.537 4.07992 127.93 2.01155 126.606 1.00282C125.863 0.436817 125.175 0.192638 124.6 0.257174C124.004 0.323923 123.375 0.611863 122.738 1.09767C121.81 1.80568 120.84 2.94399 119.894 4.32869C118.92 5.75529 117.956 7.44087 117.08 9.16732C115.675 11.9354 114.483 14.7996 113.682 16.7857C113.605 16.9693 113.691 17.181 113.875 17.2583C114.058 17.3356 114.27 17.2494 114.347 17.0658Z" fill="black"/>
<path fill-rule="evenodd" clip-rule="evenodd" d="M65.7153 28.4295C64.7706 28.7619 63.586 29.4318 62.2871 30.4252C61.3582 31.1358 60.3667 32.0093 59.3684 33.0449C57.0415 35.4585 54.653 38.7285 52.7452 42.676C52.0583 44.0974 51.4344 45.6082 50.9079 47.2027C50.411 48.708 49.9945 50.2865 49.694 51.9327C49.1415 54.9603 48.9683 58.21 49.2625 61.6375C49.2714 61.7782 49.3928 61.8853 49.5336 61.8764C49.6743 61.8674 49.7812 61.746 49.7723 61.6054C49.6361 58.235 49.9792 55.0663 50.6227 52.1181C50.8291 51.1731 51.0653 50.2509 51.3266 49.3515C51.9718 47.1315 52.7846 45.056 53.7104 43.1426C55.5681 39.3037 57.8832 36.1292 60.1033 33.7407C61.0494 32.7229 61.9712 31.8428 62.842 31.1232C64.025 30.1456 65.0979 29.4553 65.9697 29.1045C66.156 29.0344 66.2503 28.8261 66.18 28.6398C66.1099 28.4536 65.9016 28.3592 65.7153 28.4295Z" fill="black"/>
<path fill-rule="evenodd" clip-rule="evenodd" d="M59.9033 32.1833C56.0301 32.7634 51.4718 34.271 46.9819 37.1005C44.5311 38.6451 42.1044 40.5873 39.8166 42.9716C35.2449 47.7361 31.2369 54.2838 28.7335 63.055C27.6027 67.0598 27.0188 70.8383 26.8623 74.338C26.7406 77.0592 26.8736 79.6115 27.1925 81.9678C28.4013 90.9027 32.2494 97.0238 35.021 99.0255C35.1344 99.1092 35.2945 99.085 35.3781 98.9716C35.4619 98.8584 35.4379 98.6983 35.3245 98.6146C32.6715 96.6107 29.1265 90.5609 28.1014 81.8529C27.8297 79.5436 27.7345 77.0478 27.8768 74.3879C28.0604 70.9622 28.6344 67.264 29.7593 63.3472C32.198 54.7667 36.1171 48.368 40.5694 43.691C42.7884 41.3601 45.1415 39.4603 47.5092 37.9257C51.8517 35.1108 56.2513 33.5322 60.0168 32.8959C60.2135 32.8645 60.3477 32.6794 60.3164 32.4828C60.285 32.2861 60.0999 32.1519 59.9033 32.1833Z" fill="black"/>
<path fill-rule="evenodd" clip-rule="evenodd" d="M35.6693 99.6128C34.2578 102.179 32.6119 105.521 31.0656 108.75C30.0145 110.945 29.0128 113.089 28.1311 114.884C27.3582 116.458 26.6861 117.764 26.1696 118.6C25.0146 120.473 25.4153 122.367 27.1288 123.89C28.6215 125.217 31.1814 126.256 34.5853 126.668C38.1177 127.084 41.0436 126.748 43.3325 125.929C45.536 125.141 47.1556 123.911 48.184 122.505C48.7359 121.745 49.5919 120.632 50.5398 119.415C53.0409 116.205 56.187 112.285 56.187 112.285C56.277 112.176 56.2619 112.015 56.1534 111.925C56.0449 111.835 55.8839 111.85 55.7938 111.959C55.7938 111.959 53.1649 115.021 50.7527 117.918C49.4439 119.489 48.2014 121.014 47.4673 121.97C46.5099 123.227 45.0084 124.292 43.0003 124.98C40.8233 125.727 38.0549 126.028 34.7137 125.611C31.5821 125.229 29.2144 124.309 27.8399 123.089C26.5613 121.955 26.2137 120.553 27.0718 119.155C27.5974 118.296 28.2865 116.958 29.0679 115.341C29.9399 113.536 30.9383 111.384 31.9538 109.166C33.4383 105.924 34.9655 102.543 36.3058 99.9525C36.3994 99.7768 36.333 99.5581 36.1573 99.4643C35.9816 99.3707 35.7629 99.4372 35.6693 99.6128Z" fill="black"/>
<path fill-rule="evenodd" clip-rule="evenodd" d="M51.2739 108.56C51.2739 108.56 52.0427 109.367 54.0606 110.491C54.8555 110.933 55.846 111.429 57.0674 111.932C58.7249 112.615 60.8081 113.315 63.3796 113.971C65.0952 114.409 67.0299 114.827 69.2067 115.191C70.4359 115.396 71.7423 115.586 73.1304 115.747C74.0775 115.857 75.0622 115.953 76.0863 116.034C78.2192 116.202 80.5183 116.305 82.9975 116.358C83.1384 116.365 83.2582 116.256 83.2652 116.116C83.2722 115.975 83.1636 115.855 83.0227 115.848C81.6617 115.74 80.3582 115.613 79.1051 115.482C77.0109 115.265 75.067 115.015 73.2586 114.755C71.8903 114.558 70.6001 114.359 69.3857 114.146C67.2425 113.77 65.3346 113.363 63.6417 112.937C61.1205 112.303 59.0818 111.621 57.4425 110.992C53.3024 109.403 51.7784 108.044 51.7784 108.044C51.636 107.905 51.4074 107.908 51.2682 108.05C51.1289 108.192 51.1315 108.421 51.2739 108.56Z" fill="black"/>
<path fill-rule="evenodd" clip-rule="evenodd" d="M68.2725 114.836C68.6648 116.836 68.9505 118.627 69.4179 119.911C69.7571 120.843 70.2055 121.516 70.8069 121.864C71.1854 122.081 72.0482 122.283 73.2174 122.411C74.2101 122.519 75.4322 122.586 76.7568 122.591C77.8854 122.595 79.0882 122.551 80.2871 122.465C82.1442 122.332 83.989 122.087 85.5346 121.734C85.6301 121.715 85.6918 121.622 85.6723 121.526C85.6528 121.431 85.5596 121.369 85.4641 121.388C83.3513 121.771 80.6915 121.897 78.2198 121.895C76.6251 121.893 75.1097 121.836 73.8697 121.732C72.5454 121.622 71.5464 121.479 71.1466 121.259C70.6523 120.99 70.3095 120.431 70.0117 119.685C69.5138 118.438 69.1698 116.69 68.7154 114.741C68.6891 114.619 68.5686 114.541 68.4463 114.568C68.3242 114.594 68.2462 114.714 68.2725 114.836Z" fill="black"/>
<path fill-rule="evenodd" clip-rule="evenodd" d="M31.2281 44.7995C29.0323 44.215 26.9982 45.7055 24.9889 47.4597C23.2163 49.0072 21.4639 50.7575 19.5688 51.2269C18.6177 51.4626 17.6314 51.3564 16.5856 50.7007C15.1245 49.8 14.8443 48.2729 15.0898 46.704C15.4032 44.7002 16.5674 42.6145 17.5155 41.5039C17.7748 41.2001 18.0133 40.9699 18.2136 40.8439C18.2651 40.8114 18.3123 40.7856 18.3561 40.7712C18.3715 40.7662 18.3816 40.7507 18.3924 40.7553C18.6328 40.8581 18.6155 41.1176 18.5793 41.4533C18.5074 42.1186 18.2412 43.0384 18.2949 44.0252C18.3231 44.5432 18.4363 45.0791 18.7054 45.6071C18.7481 45.6946 18.8539 45.7309 18.9413 45.6881C19.0289 45.6454 19.065 45.5396 19.0224 45.4521C18.5049 44.3504 18.7125 43.2368 18.8974 42.349C19.0262 41.7314 19.135 41.2102 19.056 40.8533C18.9987 40.5947 18.8576 40.4035 18.6021 40.285C18.4031 40.1927 18.0567 40.2695 17.6631 40.5868C16.595 41.448 14.8413 44.0647 14.404 46.5912C14.0824 48.4482 14.4696 50.2444 16.194 51.3295C17.442 52.1017 18.6182 52.2178 19.7459 51.925C21.7291 51.4099 23.5649 49.5736 25.3931 47.9135C27.2324 46.2433 29.0595 44.7405 31.1165 45.2384C31.2376 45.2692 31.3609 45.1958 31.3917 45.0748C31.4225 44.9537 31.3491 44.8303 31.2281 44.7995Z" fill="black"/>
<path fill-rule="evenodd" clip-rule="evenodd" d="M18.5393 47.1685C19.397 47.3179 20.3877 46.7122 21.4672 45.7369C23.0263 44.3283 24.8233 42.1703 26.822 40.8146C28.055 39.9782 29.3627 39.4399 30.7717 39.67C32.5797 39.9405 33.7218 40.8591 34.4488 41.9203C35.7681 43.8454 35.7537 46.2321 35.7537 46.2321C35.7509 46.3294 35.8276 46.4107 35.9249 46.4135C36.0222 46.4165 36.1035 46.3398 36.1065 46.2425C36.1065 46.2425 36.236 43.7078 34.9143 41.614C34.1473 40.3987 32.8966 39.3388 30.8876 38.9722C29.2967 38.7037 27.7936 39.2538 26.4089 40.2115C24.393 41.606 22.6279 43.8536 21.0869 45.3279C20.1701 46.2049 19.3615 46.826 18.6096 46.7211C18.4861 46.7017 18.3701 46.7862 18.3508 46.9098C18.3314 47.0333 18.416 47.1493 18.5393 47.1685Z" fill="black"/>
<path fill-rule="evenodd" clip-rule="evenodd" d="M29.8753 46.1234C30.0506 46.6099 30.1197 47.1395 30.1559 47.6895C30.191 48.223 30.1778 48.774 30.1723 49.3236C30.1694 49.6221 30.1709 49.9199 30.1787 50.2131C30.1908 50.683 30.2196 51.1394 30.2731 51.5703C30.3376 52.0891 30.4415 52.5648 30.6104 52.9795C30.6403 53.0723 30.7399 53.1233 30.8325 53.0934C30.9253 53.0635 30.9763 52.9641 30.9464 52.8714C30.8252 52.372 30.8247 51.8 30.8446 51.1831C30.8567 50.8089 30.8826 50.4215 30.8986 50.0255C30.909 49.7662 30.9145 49.504 30.9124 49.2413C30.909 48.8412 30.8895 48.4406 30.8471 48.0486C30.766 47.295 30.6005 46.5766 30.2921 45.9465C30.2433 45.8314 30.1103 45.7777 29.9953 45.8266C29.8802 45.8754 29.8265 46.0085 29.8753 46.1234Z" fill="black"/>
<path fill-rule="evenodd" clip-rule="evenodd" d="M74.877 31.3316C75.0195 27.0728 75.5259 20.4542 76.4352 15.5826C76.7759 13.7574 77.1692 12.1809 77.6339 11.0779C77.9309 10.3734 78.2238 9.86856 78.5895 9.69453C78.9003 9.54537 79.3055 9.69317 79.7966 9.95523C80.6536 10.4123 81.6833 11.2822 82.7888 12.355C84.2388 13.7621 85.8086 15.515 87.2652 17.1876C89.0317 19.216 90.6348 21.1214 91.6461 22.1674C91.7124 22.2389 91.8241 22.2432 91.8954 22.1769C91.9669 22.1107 91.9712 21.999 91.9049 21.9277C90.9407 20.8433 89.4337 18.869 87.7469 16.7834C86.3375 15.0409 84.8071 13.2207 83.3776 11.7631C82.228 10.5909 81.1366 9.65366 80.2286 9.15628C79.4167 8.71152 78.7128 8.62297 78.1952 8.86902C77.6896 9.1115 77.1987 9.74987 76.7955 10.7285C76.3204 11.8812 75.9197 13.5273 75.6006 15.435C74.7777 20.3551 74.4611 27.0328 74.4242 31.3221C74.4215 31.4471 74.5209 31.5506 74.6457 31.5533C74.7707 31.5559 74.8744 31.4566 74.877 31.3316Z" fill="black"/>
<path fill-rule="evenodd" clip-rule="evenodd" d="M123.494 15.2843C123.734 14.4118 124.083 13.1705 124.469 11.9438C124.709 11.1835 124.968 10.4314 125.229 9.77804C125.472 9.16913 125.711 8.6474 125.968 8.30582C126.1 8.12958 126.216 7.99438 126.354 7.96611C126.627 7.90873 126.907 8.13809 127.179 8.40832C127.768 8.99544 128.253 9.8659 128.253 9.8659C128.297 9.95309 128.403 9.98851 128.49 9.94509C128.577 9.90167 128.612 9.79558 128.569 9.70857C128.569 9.70857 128.01 8.47099 127.32 7.81456C126.983 7.49478 126.605 7.32655 126.251 7.37559C125.993 7.41271 125.72 7.59337 125.461 7.90873C125.16 8.27619 124.857 8.84236 124.584 9.51973C124.314 10.1906 124.072 10.9731 123.856 11.7635C123.514 13.0132 123.249 14.2851 123.054 15.1757C123.024 15.2969 123.098 15.4199 123.22 15.4498C123.341 15.4798 123.464 15.4057 123.494 15.2843Z" fill="black"/>
<path fill-rule="evenodd" clip-rule="evenodd" d="M113.375 33.2546C112.88 33.4925 112.391 33.7437 111.915 34.0546C111.637 34.2361 111.372 34.4386 111.113 34.654C110.943 34.796 110.777 34.945 110.622 35.1045C110.157 35.581 109.743 36.1076 109.365 36.6598C108.797 37.4886 108.334 38.3698 107.968 39.2891C107.898 39.4233 107.951 39.5886 108.085 39.6581C108.219 39.7276 108.385 39.675 108.454 39.5406C108.88 38.8862 109.375 38.2843 109.908 37.6994C110.275 37.2975 110.665 36.924 111.059 36.5498C111.32 36.3016 111.59 36.0637 111.849 35.8163C112.178 35.5014 112.495 35.1832 112.819 34.8748C113.158 34.5518 113.471 34.2278 113.816 33.9317C114.002 33.8102 114.056 33.5599 113.934 33.3731C113.813 33.1863 113.562 33.1332 113.375 33.2546Z" fill="black"/>
<path fill-rule="evenodd" clip-rule="evenodd" d="M129.311 28.8034C129.664 28.7339 130.029 28.7509 130.417 28.7817C130.658 28.801 130.899 28.8427 131.149 28.8878C131.449 28.9418 131.75 29.0212 132.059 29.1044C132.359 29.1856 132.665 29.2681 132.97 29.3731C133.575 29.5821 134.175 29.838 134.738 30.1714C135.315 30.5136 135.854 30.9002 136.315 31.3608C136.411 31.4776 136.584 31.4944 136.701 31.3986C136.817 31.3027 136.834 31.1299 136.738 31.0132C136.164 30.1608 135.401 29.4067 134.53 28.8097C133.932 28.4005 133.29 28.0684 132.632 27.8517C132.4 27.7756 132.165 27.7204 131.931 27.6809C131.561 27.6184 131.195 27.5862 130.84 27.6031C130.185 27.6342 129.583 27.7793 129.051 28.0392C128.84 28.111 128.727 28.3406 128.799 28.5515C128.871 28.7625 129.1 28.8754 129.311 28.8034Z" fill="black"/>
<path fill-rule="evenodd" clip-rule="evenodd" d="M117.641 40.3076C115.163 40.9492 116.677 49.5721 119.763 49.0684C122.849 48.5647 120.559 39.5524 117.641 40.3076Z" fill="black"/>
<path fill-rule="evenodd" clip-rule="evenodd" d="M132.569 35.214C130.046 36.0803 132.329 44.8344 135.494 44.0597C138.659 43.285 135.538 34.1942 132.569 35.214Z" fill="black"/>
<path fill-rule="evenodd" clip-rule="evenodd" d="M11.109 45.9745C10.5813 47.6846 10.3368 49.5406 10.4848 51.2659C10.594 52.537 10.9141 53.7373 11.4738 54.7512C11.7782 55.3025 12.1559 55.7989 12.6077 56.2203C13.0543 56.637 13.5743 56.9815 14.1681 57.2357C14.9377 57.5655 15.8326 57.748 16.8597 57.737C17.6625 57.7281 18.5456 57.5994 19.5164 57.3375C19.5901 57.3205 19.6361 57.2469 19.6192 57.1734C19.6022 57.0996 19.5286 57.0537 19.4551 57.0707C18.502 57.2525 17.6436 57.3075 16.8701 57.2651C15.9274 57.2134 15.1186 57.0039 14.425 56.6704C13.9098 56.4224 13.4626 56.103 13.0718 55.7291C12.6732 55.3478 12.3357 54.9085 12.0526 54.4227C11.5077 53.4887 11.1652 52.3875 11.0011 51.2078C10.7687 49.5364 10.8778 47.7188 11.2851 46.0227C11.2984 45.9742 11.2698 45.9239 11.2211 45.9105C11.1726 45.8972 11.1223 45.9258 11.109 45.9745Z" fill="black"/>
<path fill-rule="evenodd" clip-rule="evenodd" d="M6.57237 52.0886C6.27949 53.4387 6.15399 54.757 6.24867 55.9726C6.32172 56.9083 6.52196 57.7824 6.86235 58.5553C7.04829 58.9775 7.27851 59.3694 7.55215 59.7225C7.83089 60.0823 8.15527 60.4028 8.52393 60.6778C9.04157 61.0636 9.64419 61.3642 10.3382 61.5559C10.9259 61.7183 11.5768 61.8019 12.2971 61.8016C12.3726 61.8055 12.4369 61.7473 12.4408 61.6719C12.4446 61.5964 12.3865 61.5319 12.3109 61.5281C11.6307 61.4583 11.0262 61.3109 10.4843 61.1072C9.87525 60.8782 9.35591 60.5673 8.90995 60.1911C8.60004 59.9297 8.33015 59.6346 8.08989 59.3133C7.85133 58.9942 7.64478 58.6482 7.46684 58.2774C7.12764 57.57 6.89505 56.7757 6.76495 55.9136C6.58769 54.7398 6.58292 53.4537 6.75235 52.1194C6.76087 52.0699 6.72749 52.0225 6.67777 52.014C6.62805 52.0055 6.58088 52.0389 6.57237 52.0886Z" fill="black"/>
<path fill-rule="evenodd" clip-rule="evenodd" d="M39.7308 39.5284C39.3327 38.2055 38.8036 36.9915 38.1316 35.9741C37.6142 35.191 37.0155 34.5236 36.3432 34.0125C35.9759 33.7332 35.5846 33.502 35.1741 33.3257C34.7559 33.1461 34.3169 33.023 33.8611 32.9611C33.2213 32.8745 32.5486 32.9037 31.8485 33.0723C31.2558 33.215 30.6459 33.4574 30.016 33.8067C29.9481 33.8399 29.92 33.922 29.9532 33.9899C29.9864 34.0577 30.0685 34.086 30.1365 34.0526C30.7653 33.784 31.3655 33.62 31.9382 33.5356C32.582 33.4407 33.1869 33.461 33.7593 33.5739C34.1571 33.6523 34.5362 33.7797 34.902 33.9443C35.2654 34.1078 35.6137 34.3103 35.9491 34.5485C36.5886 35.0028 37.177 35.5849 37.7086 36.276C38.4325 37.2168 39.06 38.3394 39.5585 39.5887C39.575 39.6361 39.6272 39.6614 39.6748 39.6447C39.7224 39.6281 39.7475 39.576 39.7308 39.5284Z" fill="black"/>
<path fill-rule="evenodd" clip-rule="evenodd" d="M311.999 121.863C312.008 121.681 311.917 121.508 311.762 121.41C308.82 119.574 305.147 118.811 301.668 118.76C297.442 118.7 293.505 119.697 291.527 121.106C291.426 121.177 291.366 121.293 291.368 121.416C291.373 122.104 291.435 122.872 291.53 123.625C291.627 124.401 291.76 125.162 291.906 125.802C291.92 125.858 291.944 125.91 291.979 125.954C292.334 126.398 293.478 127.394 295.576 128.23C297.086 128.833 299.101 129.359 301.68 129.532C304.173 129.702 306.322 129.354 307.955 128.805C309.389 128.323 310.433 127.676 310.996 127.081C311.301 126.758 311.476 126.437 311.538 126.154C311.642 125.669 311.73 125.078 311.802 124.429C311.892 123.63 311.955 122.742 311.999 121.863ZM310.967 122.115C310.935 122.876 310.887 123.635 310.819 124.327C310.759 124.939 310.686 125.498 310.593 125.956C310.548 126.177 310.344 126.417 310.043 126.675C309.518 127.123 308.704 127.575 307.659 127.941C306.121 128.479 304.093 128.825 301.731 128.692C299.756 128.578 298.123 128.248 296.803 127.831C294.403 127.071 293.062 126.036 292.625 125.543C292.489 124.944 292.366 124.245 292.276 123.531C292.192 122.88 292.136 122.218 292.121 121.61C294.067 120.344 297.735 119.497 301.651 119.605C304.861 119.693 308.239 120.432 310.967 122.115Z" fill="black"/>
<path fill-rule="evenodd" clip-rule="evenodd" d="M292.658 121.974C294.33 122.853 295.978 123.522 297.594 123.965C298.788 124.292 299.963 124.503 301.111 124.586C302.338 124.675 303.535 124.62 304.688 124.437C306.483 124.152 308.167 123.545 309.718 122.661C309.793 122.621 309.82 122.528 309.781 122.454C309.74 122.38 309.648 122.352 309.573 122.392C308.027 123.181 306.362 123.672 304.61 123.893C303.493 124.034 302.34 124.058 301.155 123.975C300.039 123.898 298.895 123.729 297.725 123.451C296.123 123.07 294.471 122.501 292.789 121.71C292.716 121.674 292.627 121.703 292.59 121.776C292.554 121.849 292.585 121.937 292.658 121.974Z" fill="black"/>
<path fill-rule="evenodd" clip-rule="evenodd" d="M294.071 126.618L293.807 125.229C293.793 125.118 293.693 125.038 293.582 125.051C293.472 125.064 293.392 125.165 293.403 125.276L293.468 126.689C293.489 126.855 293.638 126.974 293.805 126.954C293.971 126.935 294.09 126.784 294.071 126.618Z" fill="black"/>
<path fill-rule="evenodd" clip-rule="evenodd" d="M296.157 127.782L295.845 125.464C295.835 125.352 295.736 125.27 295.626 125.28C295.513 125.29 295.432 125.389 295.442 125.5L295.554 127.837C295.569 128.004 295.716 128.127 295.883 128.111C296.05 128.096 296.172 127.949 296.157 127.782Z" fill="black"/>
<path fill-rule="evenodd" clip-rule="evenodd" d="M298.498 128.453L298.067 125.171C298.055 125.059 297.956 124.978 297.845 124.989C297.733 125.001 297.651 125.1 297.663 125.211L297.895 128.514C297.912 128.68 298.06 128.801 298.227 128.785C298.392 128.768 298.515 128.619 298.498 128.453Z" fill="black"/>
<path fill-rule="evenodd" clip-rule="evenodd" d="M300.19 124.355L300.526 127.62C300.534 127.732 300.631 127.816 300.742 127.808C300.854 127.8 300.938 127.702 300.929 127.591L300.793 124.311C300.781 124.144 300.636 124.019 300.47 124.031C300.303 124.043 300.178 124.188 300.19 124.355Z" fill="black"/>
<path fill-rule="evenodd" clip-rule="evenodd" d="M303.178 124.326L303.279 126.316C303.279 126.428 303.369 126.519 303.481 126.519C303.594 126.519 303.684 126.428 303.684 126.316L303.784 124.326C303.784 124.159 303.648 124.023 303.481 124.023C303.315 124.023 303.178 124.159 303.178 124.326Z" fill="black"/>
<path fill-rule="evenodd" clip-rule="evenodd" d="M305.57 124.135L305.671 125.327C305.671 125.439 305.761 125.53 305.873 125.53C305.986 125.53 306.076 125.439 306.076 125.327L306.177 124.135C306.177 123.968 306.04 123.832 305.873 123.832C305.707 123.832 305.57 123.968 305.57 124.135Z" fill="black"/>
<path fill-rule="evenodd" clip-rule="evenodd" d="M18.3703 116.756C18.3651 116.573 18.2636 116.407 18.1032 116.32C15.4023 114.89 12.1287 114.447 9.06882 114.619C5.35069 114.828 1.95382 115.948 0.302915 117.308C0.20794 117.386 0.156366 117.506 0.166431 117.629C0.221813 118.338 0.258131 119.138 0.342387 119.896C0.40353 120.45 0.493059 120.983 0.63307 121.444C0.648845 121.498 0.677801 121.548 0.716677 121.59C1.05086 121.956 2.19335 122.782 4.13779 123.398C5.56743 123.851 7.43758 124.196 9.74538 124.155C11.9591 124.119 13.875 123.595 15.3196 122.928C16.5448 122.362 17.4342 121.685 17.902 121.109C18.1642 120.786 18.3031 120.478 18.3406 120.221C18.3903 119.881 18.412 119.525 18.4185 119.146C18.4298 118.448 18.3875 117.668 18.3703 116.756ZM17.3605 117.08C17.3919 117.852 17.4343 118.526 17.4333 119.136C17.4327 119.471 17.4188 119.787 17.3784 120.089C17.3483 120.323 17.1131 120.604 16.7621 120.921C16.1784 121.447 15.2673 122.005 14.1115 122.45C12.8915 122.92 11.4004 123.263 9.7256 123.312C7.96537 123.362 6.46747 123.176 5.23934 122.884C3.07413 122.369 1.75611 121.54 1.33081 121.135C1.21607 120.736 1.14252 120.282 1.09023 119.811C1.01303 119.134 0.976825 118.421 0.930105 117.772C2.55664 116.556 5.69842 115.603 9.10963 115.463C11.9052 115.348 14.8848 115.787 17.3605 117.08Z" fill="black"/>
<path fill-rule="evenodd" clip-rule="evenodd" d="M1.36934 118.051C2.88615 118.722 4.37598 119.244 5.83208 119.582C6.89981 119.83 7.9477 119.987 8.96544 120.034C10.0629 120.085 11.1247 120.012 12.1365 119.823C13.7355 119.525 15.2103 118.927 16.5288 118.043C16.5991 117.998 16.621 117.904 16.5756 117.833C16.5301 117.761 16.4357 117.74 16.3655 117.785C15.0506 118.57 13.5975 119.049 12.0462 119.281C11.0675 119.427 10.0483 119.468 8.99324 119.422C8.00577 119.38 6.98627 119.264 5.94131 119.063C4.49841 118.785 3.00498 118.363 1.48222 117.778C1.40662 117.747 1.3207 117.783 1.28997 117.858C1.25925 117.933 1.29376 118.02 1.36934 118.051Z" fill="black"/>
<path fill-rule="evenodd" clip-rule="evenodd" d="M4.33203 119.144L4.43201 120.988C4.43082 121.1 4.52256 121.19 4.63345 121.19C4.74584 121.19 4.83691 121.1 4.83661 120.988L4.9374 119.144C4.93624 118.977 4.80092 118.842 4.63458 118.842C4.46675 118.842 4.33088 118.977 4.33203 119.144Z" fill="black"/>
<path fill-rule="evenodd" clip-rule="evenodd" d="M6.59867 119.71L6.69795 121.93C6.69824 122.042 6.78999 122.133 6.90088 122.133C7.01326 122.133 7.10434 122.042 7.10404 121.93L7.20405 119.71C7.20439 119.543 7.06905 119.407 6.90123 119.407C6.7349 119.407 6.59902 119.543 6.59867 119.71Z" fill="black"/>
<path fill-rule="evenodd" clip-rule="evenodd" d="M9.08234 119.864L9.18148 122.361C9.18177 122.473 9.27203 122.564 9.38441 122.564C9.49679 122.564 9.58787 122.473 9.58756 122.361L9.68774 119.864C9.68659 119.697 9.55125 119.561 9.38492 119.561C9.2171 119.561 9.0812 119.697 9.08234 119.864Z" fill="black"/>
<path fill-rule="evenodd" clip-rule="evenodd" d="M11.4451 119.777L11.5452 122.417C11.5455 122.529 11.6358 122.62 11.7481 122.62C11.859 122.62 11.9501 122.529 11.9498 122.417L12.0505 119.777C12.0509 119.61 11.9155 119.474 11.7477 119.474C11.5814 119.474 11.4455 119.61 11.4451 119.777Z" fill="black"/>
<path fill-rule="evenodd" clip-rule="evenodd" d="M13.2413 119.282L13.3415 121.385C13.3418 121.497 13.432 121.588 13.5444 121.588C13.6568 121.588 13.7464 121.497 13.7476 121.385L13.8467 119.282C13.8471 119.115 13.7117 118.979 13.5439 118.979C13.3776 118.979 13.2417 119.115 13.2413 119.282Z" fill="black"/>
<path fill-rule="evenodd" clip-rule="evenodd" d="M14.7564 118.833L14.8576 120.027C14.8564 120.139 14.9482 120.23 15.0591 120.23C15.1714 120.23 15.2625 120.139 15.2622 120.027L15.3633 118.833C15.3621 118.666 15.2268 118.53 15.0605 118.53C14.8926 118.53 14.7567 118.666 14.7564 118.833Z" fill="black"/>
<path fill-rule="evenodd" clip-rule="evenodd" d="M197.615 109.215C197.617 109.051 197.541 108.896 197.411 108.799C194.853 106.925 191.618 106.015 188.269 105.962C185.106 105.911 181.838 106.619 178.96 108.021C178.858 108.07 178.784 108.163 178.758 108.273C178.609 108.902 178.539 109.568 178.536 110.213C178.535 110.91 178.612 111.582 178.755 112.16C178.769 112.218 178.798 112.272 178.838 112.317C179.169 112.702 180.251 113.57 182.237 114.294C183.642 114.806 185.506 115.252 187.885 115.4C190.164 115.546 192.16 115.3 193.694 114.886C195.066 114.515 196.078 114 196.629 113.509C196.965 113.209 197.146 112.897 197.2 112.621C197.287 112.181 197.395 111.591 197.479 110.937C197.55 110.391 197.603 109.8 197.615 109.215ZM196.589 109.461C196.576 109.924 196.538 110.385 196.489 110.817C196.418 111.447 196.322 112.015 196.245 112.44C196.213 112.622 196.015 112.798 195.732 112.999C195.225 113.363 194.442 113.718 193.449 114.001C191.996 114.414 190.102 114.668 187.933 114.558C185.648 114.438 183.854 114.034 182.504 113.555C180.81 112.954 179.829 112.251 179.467 111.883C179.35 111.382 179.288 110.808 179.288 110.214C179.29 109.686 179.341 109.141 179.448 108.62C182.187 107.35 185.269 106.712 188.25 106.803C191.306 106.897 194.251 107.757 196.589 109.461V109.461Z" fill="black"/>
<path fill-rule="evenodd" clip-rule="evenodd" d="M179.815 109.04C181.319 109.772 182.832 110.349 184.328 110.749C185.404 111.036 186.469 111.237 187.509 111.339C188.625 111.448 189.713 111.447 190.754 111.341C192.458 111.169 194.031 110.711 195.413 110.002L195.964 109.726C196.038 109.689 196.069 109.597 196.032 109.522C195.994 109.446 195.904 109.415 195.827 109.453L195.266 109.697C193.9 110.318 192.358 110.661 190.705 110.778C189.696 110.849 188.647 110.83 187.566 110.732C186.553 110.64 185.51 110.481 184.454 110.241C182.967 109.903 181.449 109.421 179.939 108.772C179.864 108.738 179.777 108.771 179.743 108.845C179.709 108.919 179.742 109.006 179.815 109.04Z" fill="black"/>
<path fill-rule="evenodd" clip-rule="evenodd" d="M181.129 110.927L181.169 111.889C181.169 112.015 181.27 112.118 181.396 112.118C181.522 112.118 181.624 112.015 181.624 111.889L181.664 110.927C181.664 110.78 181.543 110.66 181.396 110.66C181.25 110.66 181.129 110.78 181.129 110.927Z" fill="black"/>
<path fill-rule="evenodd" clip-rule="evenodd" d="M183.235 112.835L183.196 111.249C183.196 111.123 183.094 111.021 182.967 111.021C182.842 111.021 182.74 111.123 182.74 111.249L182.701 112.835C182.701 112.982 182.821 113.101 182.967 113.101C183.115 113.101 183.235 112.982 183.235 112.835Z" fill="black"/>
<path fill-rule="evenodd" clip-rule="evenodd" d="M185.193 113.584L185.155 111.61C185.155 111.484 185.052 111.382 184.927 111.382C184.801 111.382 184.698 111.484 184.698 111.61L184.66 113.584C184.66 113.731 184.779 113.85 184.927 113.85C185.074 113.85 185.193 113.731 185.193 113.584Z" fill="black"/>
<path fill-rule="evenodd" clip-rule="evenodd" d="M187.103 112.299L187.143 113.58C187.143 113.706 187.244 113.808 187.371 113.808C187.496 113.808 187.598 113.706 187.598 113.58L187.638 112.299C187.638 112.152 187.517 112.032 187.371 112.032C187.224 112.032 187.103 112.152 187.103 112.299Z" fill="black"/>
<path fill-rule="evenodd" clip-rule="evenodd" d="M189.392 112.663L189.43 113.407C189.43 113.533 189.532 113.635 189.659 113.635C189.784 113.635 189.885 113.533 189.885 113.407L189.925 112.663C189.925 112.516 189.805 112.396 189.659 112.396C189.511 112.396 189.392 112.516 189.392 112.663Z" fill="black"/>
<path fill-rule="evenodd" clip-rule="evenodd" d="M191.433 112.667L191.472 113.06C191.472 113.186 191.574 113.288 191.701 113.288C191.826 113.288 191.929 113.186 191.929 113.06L191.967 112.667C191.967 112.52 191.848 112.4 191.701 112.4C191.553 112.4 191.433 112.52 191.433 112.667Z" fill="black"/>
<path fill-rule="evenodd" clip-rule="evenodd" d="M64.7782 139.269C64.7782 139.269 64.7258 139.926 64.6481 140.592C64.6116 140.898 64.5704 141.206 64.5259 141.45C64.4926 141.63 64.2959 141.803 64.0167 142.002C63.509 142.365 62.7284 142.719 61.7369 143.001C60.2836 143.413 58.3909 143.667 56.2253 143.557C53.9408 143.441 52.1464 143.038 50.7963 142.562C49.0972 141.964 48.1135 141.263 47.7534 140.896C47.6328 140.395 47.5678 139.821 47.5646 139.227C47.563 138.691 47.6106 138.14 47.7185 137.611C49.4525 136.782 51.3294 136.209 53.2348 135.914C55.229 135.605 57.2534 135.598 59.1778 135.921C59.3254 135.946 59.465 135.847 59.4919 135.7C59.5173 135.553 59.419 135.412 59.2714 135.386C57.2915 135.028 55.2036 135.008 53.1428 135.3C51.112 135.588 49.1098 136.182 47.2616 137.056C47.168 137.102 47.0982 137.188 47.0728 137.291C46.9221 137.918 46.8475 138.581 46.8427 139.225C46.8364 139.921 46.911 140.593 47.0522 141.171C47.0648 141.228 47.0934 141.281 47.1315 141.325C47.4631 141.711 48.5419 142.583 50.5266 143.311C51.9291 143.826 53.7948 144.273 56.1746 144.425C58.456 144.571 60.4534 144.324 61.9891 143.91C63.3614 143.539 64.3752 143.022 64.9257 142.53C65.2652 142.227 65.4461 141.913 65.5016 141.635C65.5524 141.374 65.6016 141.044 65.6444 140.716C65.7333 140.032 65.7967 139.356 65.7967 139.356C65.8205 139.075 65.6127 138.828 65.3303 138.804C65.0495 138.779 64.802 138.988 64.7782 139.269Z" fill="black"/>
<path fill-rule="evenodd" clip-rule="evenodd" d="M48.1063 138.052C49.5373 138.752 50.9762 139.313 52.4041 139.71C53.4258 139.993 54.438 140.2 55.4311 140.314C56.4909 140.435 57.5285 140.454 58.5248 140.381C60.151 140.263 61.6661 139.892 63.021 139.299C63.0987 139.268 63.1368 139.178 63.1051 139.1C63.0734 139.022 62.9845 138.985 62.9052 139.016C61.563 139.52 60.0749 139.776 58.4947 139.832C57.5285 139.867 56.5274 139.82 55.501 139.705C54.5316 139.598 53.5416 139.433 52.5358 139.196C51.1174 138.861 49.6705 138.399 48.23 137.784C48.1554 137.75 48.0682 137.783 48.0348 137.857C47.9999 137.931 48.0333 138.018 48.1063 138.052Z" fill="black"/>
<path fill-rule="evenodd" clip-rule="evenodd" d="M50.0123 138.969L50.0504 140.371C50.0504 140.497 50.1535 140.599 50.2788 140.599C50.4057 140.599 50.5073 140.497 50.5073 140.371L50.5454 138.969C50.5454 138.822 50.4264 138.702 50.2788 138.702C50.1313 138.702 50.0123 138.822 50.0123 138.969Z" fill="black"/>
<path fill-rule="evenodd" clip-rule="evenodd" d="M52.0334 139.576L52.073 141.552C52.073 141.678 52.1746 141.781 52.2999 141.781C52.4268 141.781 52.5284 141.678 52.5284 141.552L52.568 139.576C52.568 139.429 52.4475 139.31 52.2999 139.31C52.154 139.31 52.0334 139.429 52.0334 139.576Z" fill="black"/>
<path fill-rule="evenodd" clip-rule="evenodd" d="M54.2999 140.147L54.3395 142.697C54.3395 142.823 54.4411 142.925 54.5664 142.925C54.6933 142.925 54.7949 142.823 54.7949 142.697L54.8345 140.147C54.8345 139.999 54.7139 139.88 54.5664 139.88C54.4204 139.88 54.2999 139.999 54.2999 140.147Z" fill="black"/>
<path fill-rule="evenodd" clip-rule="evenodd" d="M57.433 143.923L57.395 141.532C57.395 141.406 57.2918 141.304 57.1665 141.304C57.0412 141.304 56.938 141.406 56.938 141.532L56.9 143.923C56.9 144.07 57.0189 144.19 57.1665 144.19C57.314 144.19 57.433 144.07 57.433 143.923Z" fill="black"/>
<path fill-rule="evenodd" clip-rule="evenodd" d="M59.894 143.528L59.8559 141.969C59.8559 141.844 59.7544 141.741 59.6274 141.741C59.5021 141.741 59.399 141.844 59.399 141.969L59.3609 143.528C59.3609 143.676 59.4799 143.795 59.6274 143.795C59.775 143.795 59.894 143.676 59.894 143.528Z" fill="black"/>
<path fill-rule="evenodd" clip-rule="evenodd" d="M62.12 143.161L62.082 142.353C62.082 142.227 61.9789 142.125 61.8535 142.125C61.7282 142.125 61.625 142.227 61.625 142.353L61.587 143.161C61.587 143.308 61.706 143.428 61.8535 143.428C62.0011 143.428 62.12 143.308 62.12 143.161Z" fill="black"/>
<path fill-rule="evenodd" clip-rule="evenodd" d="M76.5144 136.643C74.9388 136.796 73.4082 136.752 71.9492 136.541C70.9289 136.394 69.9461 136.159 69.0061 135.844C68.5254 135.683 68.0556 135.503 67.5981 135.302C67.1353 135.098 66.6846 134.875 66.2481 134.628C64.9336 133.884 63.7479 132.935 62.7445 131.759C62.6818 131.682 62.5679 131.67 62.4903 131.733C62.4126 131.795 62.4005 131.909 62.4632 131.987C63.4367 133.261 64.6051 134.324 65.9338 135.155C66.3793 135.434 66.8427 135.686 67.3233 135.909C67.798 136.13 68.2891 136.324 68.7941 136.487C69.7754 136.806 70.8082 137.02 71.8752 137.133C73.3792 137.293 74.9521 137.245 76.5592 137.008C76.6601 136.996 76.7322 136.904 76.7197 136.803C76.7075 136.702 76.6155 136.63 76.5144 136.643Z" fill="black"/>
<path fill-rule="evenodd" clip-rule="evenodd" d="M76.6699 141.186C76.7627 141.16 76.8461 141.108 76.9108 141.037C77.2401 140.664 77.5618 140.027 77.833 139.319C78.187 138.394 78.4699 137.349 78.6213 136.704C78.6449 136.608 78.6371 136.507 78.599 136.416C77.4782 133.793 74.5419 131.571 71.001 130.45C67.9591 129.486 64.4754 129.323 61.3361 130.444C61.2306 130.482 61.1453 130.562 61.1005 130.665C60.7327 131.501 60.3974 132.214 60.1091 132.969C59.9148 133.478 59.7418 134.005 59.5939 134.598C59.569 134.7 59.5826 134.807 59.6322 134.899C60.7533 137.006 63.8493 139.018 67.3199 140.253C70.5703 141.409 74.1375 141.882 76.6699 141.186ZM76.2454 140.243C73.8887 140.859 70.6195 140.41 67.6266 139.377C64.4553 138.284 61.5793 136.54 60.4555 134.637C60.5813 134.143 60.7267 133.696 60.8881 133.264C61.1476 132.568 61.4482 131.908 61.7763 131.152C64.7025 130.145 67.9399 130.287 70.7615 131.198C73.9677 132.234 76.6401 134.25 77.6881 136.63C77.5245 137.245 77.2529 138.152 76.9229 138.958C76.7148 139.467 76.4872 139.935 76.2455 140.242L76.2454 140.243Z" fill="black"/>
<path fill-rule="evenodd" clip-rule="evenodd" d="M68.6439 136.239L68.124 138.158C68.0903 138.252 68.1392 138.356 68.233 138.389C68.327 138.423 68.4307 138.374 68.4644 138.28L69.2848 136.469C69.3483 136.292 69.2564 136.097 69.0794 136.034C68.9025 135.97 68.7074 136.062 68.6439 136.239Z" fill="black"/>
<path fill-rule="evenodd" clip-rule="evenodd" d="M70.9216 136.863L70.6423 138.131C70.609 138.225 70.6583 138.328 70.7523 138.362C70.8465 138.395 70.9498 138.345 70.9832 138.251L71.5635 137.09C71.6264 136.913 71.5334 136.718 71.3561 136.655C71.179 136.593 70.9842 136.686 70.9216 136.863Z" fill="black"/>
<path fill-rule="evenodd" clip-rule="evenodd" d="M73.099 137.006L72.9856 137.922C72.9563 138.017 73.0101 138.118 73.1055 138.148C73.2008 138.177 73.3021 138.123 73.3313 138.028L73.7501 137.206C73.8051 137.026 73.704 136.836 73.5243 136.781C73.3445 136.726 73.154 136.827 73.099 137.006Z" fill="black"/>
</svg>
