<svg width="111" height="170" viewBox="0 0 111 170" fill="none" xmlns="http://www.w3.org/2000/svg">
<path fill-rule="evenodd" clip-rule="evenodd" d="M51.3971 74.0099C48.1153 74.0099 39.6159 80.4387 38.8594 80.7814C38.103 81.124 38.103 81.789 38.103 81.789C38.103 81.789 20.6147 89.3766 15.7977 92.057C13.9176 93.105 12.7272 94.4351 11.2253 97.8006C5.42931 110.789 0.412004 131.305 0.400879 152.295C0.400879 157.091 4.22782 162.291 12.171 162.139C12.171 165.817 12.1153 167.954 12.1153 167.954H110.292C111.783 128.393 107.411 101.801 104.841 95.8861C103.172 92.057 93.5936 88.1473 89.3662 85.7793C88.9991 83.9555 79.0201 74.1308 74.7927 73.3247C69.1857 72.2667 58.339 74.0099 51.3971 74.0099Z" fill="white"/>
<path d="M110.292 168.317H12.1261C12.0148 168.317 11.9147 168.276 11.8368 168.206C11.759 168.135 11.7145 168.035 11.7256 167.944C11.7256 167.924 11.7812 165.919 11.7812 162.513C8.377 162.503 5.4623 161.505 3.32633 159.611C1.21261 157.736 0 155.076 0 152.295C0.0111248 129.925 5.61804 109.399 10.8578 97.66C12.3152 94.3952 13.5056 92.9039 15.5859 91.7451C20.0915 89.236 35.7886 82.394 37.7355 81.5476C37.8022 81.2554 38.0247 80.7616 38.6811 80.4593C38.8146 80.3989 39.4264 79.9757 40.0828 79.5323C43.0865 77.4767 48.6934 73.6476 51.3967 73.6476C53.9888 73.6476 57.0704 73.4058 60.3411 73.1538C65.7367 72.7306 71.3102 72.2973 74.8702 72.9725C79.1421 73.7786 88.8318 83.2606 89.7107 85.548C90.634 86.0619 91.8244 86.6564 93.0815 87.2812C97.8874 89.6794 103.861 92.6721 105.208 95.7556C107.577 101.187 112.238 126.902 110.692 167.964C110.692 168.166 110.514 168.317 110.292 168.317ZM12.5377 167.581H109.902C111.404 126.842 106.798 101.388 104.462 96.0175C103.227 93.176 97.1421 90.1328 92.6921 87.916C91.3683 87.2509 90.1112 86.6262 89.1544 86.0921C89.0543 86.0418 88.9876 85.9511 88.9653 85.8503C88.5982 84.0567 78.7527 74.4638 74.7033 73.698C71.2657 73.043 65.7478 73.4763 60.4079 73.8894C57.1149 74.1413 54.0111 74.3832 51.3856 74.3832C48.9493 74.3832 43.0754 78.4037 40.5612 80.1167C39.6378 80.7516 39.2262 81.0337 39.0259 81.1143C38.5142 81.3461 38.4919 81.7794 38.4919 81.7995C38.4919 81.9406 38.4029 82.0716 38.2583 82.122C38.0803 82.2026 20.7367 89.7298 15.9864 92.3698C14.3288 93.2969 13.1384 94.4557 11.581 97.9321C6.37453 109.611 0.800989 130.026 0.789864 152.295C0.789864 154.875 1.91347 157.343 3.87144 159.077C5.92954 160.9 8.78862 161.827 12.1483 161.757C12.2596 161.757 12.3597 161.797 12.4376 161.858C12.5154 161.928 12.5599 162.019 12.5599 162.12C12.5822 164.901 12.5488 166.815 12.5377 167.581Z" fill="black"/>
<path fill-rule="evenodd" clip-rule="evenodd" d="M36.9023 82.6806L38.3263 82.3179C38.3263 82.3179 38.6267 89.3311 39.4722 91.7294C40.3177 94.1377 45.9357 95.2763 48.6613 95.4678C47.7157 97.2916 45.958 101.07 46.0581 101.836C46.136 102.421 61.466 118.916 70.9888 122.745C80.4561 116.205 84.7614 107.912 87.2867 99.2263C85.9295 96.4754 82.8034 93.3114 82.8034 93.3114C82.8034 93.3114 87.0865 91.7092 89.089 90.5907C89.5784 89.1699 89.4672 87.1546 89.089 85.9958C89.7119 86.3183 90.1347 86.5903 90.1347 86.5903C90.4017 87.1445 90.6131 89.4722 90.1347 91.1248C89.7787 92.3642 84.8949 93.7548 84.8949 93.7548C84.8949 93.7548 88.7663 97.9768 88.3992 99.2162C85.4623 109.132 80.9567 118.1 70.9888 125.375C70.9888 125.375 46.1582 105.04 44.356 102.622C43.5105 101.483 45.068 98.5915 46.5253 96.4754C42.042 95.8507 38.8269 94.6818 38.1817 92.5053C37.0915 88.8072 36.9023 82.6806 36.9023 82.6806Z" fill="#EAEAEA"/>
<path fill-rule="evenodd" clip-rule="evenodd" d="M39.0717 80.7272C39.806 79.1049 41.8641 77.1601 44.2893 75.5378C46.7145 73.9054 49.5068 72.6055 51.7207 72.3334C51.9209 72.3133 52.0544 72.142 52.0322 71.9606C52.0099 71.7792 51.8208 71.6583 51.6206 71.6785C49.3177 71.9707 46.403 73.3109 43.8665 75.0037C41.319 76.7067 39.183 78.7723 38.4154 80.4753C38.3375 80.6466 38.4265 80.838 38.6156 80.8985C38.7936 80.969 39.005 80.8985 39.0717 80.7272Z" fill="black"/>
<path fill-rule="evenodd" clip-rule="evenodd" d="M77.1493 72.7422C79.1073 73.3165 83.3236 75.8558 86.6388 79.6043C89.954 83.3427 92.3904 88.2802 90.7773 93.7216C90.7216 93.8929 90.844 94.0742 91.0331 94.1246C91.2222 94.175 91.4225 94.0642 91.4781 93.8929C93.1468 88.2399 90.6438 83.0807 87.2062 79.2013C83.7686 75.3319 79.4077 72.722 77.3718 72.1275C77.1827 72.0671 76.9824 72.1678 76.9157 72.3391C76.8601 72.5003 76.9602 72.6817 77.1493 72.7422Z" fill="black"/>
<path fill-rule="evenodd" clip-rule="evenodd" d="M73.817 169.555C73.3386 159.277 73.817 155.398 73.3942 149.15C73.3831 148.969 73.1829 148.848 72.9826 148.868C72.7824 148.888 72.66 149.059 72.6711 149.241C73.0939 155.488 72.6155 159.317 73.0939 169.585C73.105 169.767 73.2719 169.908 73.4721 169.898C73.6723 169.888 73.8281 169.726 73.817 169.555Z" fill="black"/>
<path fill-rule="evenodd" clip-rule="evenodd" d="M84.3343 22.3416C87.2045 31.8136 85.5358 54.123 83.945 60.1891C82.4654 65.832 76.9697 66.618 76.9697 66.618C76.9697 66.618 76.8362 73.4499 76.9141 76.9565C77.0253 81.8638 68.5927 88.5848 68.5927 88.5848C68.5927 88.5848 54.4641 83.5365 52.0278 75.6566C51.2046 71.8779 46.9215 39.0384 45.9536 30.9974C44.9858 22.9563 47.3442 11.1264 62.2738 9.85675C75.2898 8.72818 82.5766 16.5476 84.3343 22.3416Z" fill="white"/>
<path fill-rule="evenodd" clip-rule="evenodd" d="M77.3147 66.8826C77.2925 68.1624 77.1923 73.8556 77.2591 76.939C77.3036 78.9644 75.9575 81.2921 74.311 83.3578C71.8858 86.3808 68.8153 88.8193 68.8153 88.8193C68.7152 88.8999 68.5706 88.9201 68.4482 88.8797C68.4482 88.8797 63.3197 87.0458 58.6806 83.8616C55.5545 81.7153 52.6621 78.9443 51.6608 75.7298L51.6497 75.7097C50.8265 71.9209 46.5434 39.0714 45.5755 31.0303C44.5966 22.8481 47.0218 10.8268 62.2183 9.5269C75.4902 8.37818 82.8994 16.3588 84.6793 22.2536C87.5607 31.7659 85.892 54.166 84.29 60.2623C82.9661 65.3308 78.5162 66.6206 77.3147 66.8826ZM68.5038 88.1945C69.1602 87.6504 71.6744 85.5243 73.7214 82.9749C75.2789 81.0402 76.5805 78.8637 76.536 76.9592C76.4581 73.4525 76.5916 66.6106 76.5916 66.6106C76.5916 66.4493 76.7251 66.3183 76.892 66.2881C76.892 66.2881 82.154 65.5223 83.578 60.1112C85.1688 54.0653 86.8264 31.8565 83.9674 22.4249C82.243 16.7316 75.0675 9.07346 62.2739 10.1718C47.6336 11.4213 45.353 23.0597 46.2987 30.9496C47.2554 38.9706 51.5385 71.7295 52.3617 75.5686C53.3184 78.652 56.1219 81.282 59.1145 83.3376C63.1305 86.0986 67.5137 87.8217 68.5038 88.1945Z" fill="black"/>
<path d="M50.9933 24.4719C51.2889 24.4085 51.5492 24.356 51.7654 24.3142C48.6031 32.7147 48.0513 46.667 51.0263 64.3241C50.4969 64.4882 49.9634 64.482 49.529 64.421C49.2744 64.3853 49.0605 64.3316 48.9116 64.2873C48.8894 64.2807 48.8687 64.2743 48.8496 64.2683C48.8427 64.2494 48.8353 64.229 48.8274 64.2072C48.7706 64.051 48.6872 63.8195 48.5809 63.5195C48.3683 62.9194 48.0642 62.045 47.6984 60.9495C46.9668 58.7583 45.9893 55.6834 45.0055 52.1494C43.0477 45.116 41.0749 36.2968 40.9533 29.0102C41.5504 28.2251 42.5147 27.5265 43.6725 26.9188C44.8746 26.288 46.2504 25.773 47.5577 25.3665C48.8635 24.9604 50.0913 24.6654 50.9933 24.4719Z" fill="white" stroke="black" stroke-width="0.8"/>
<path fill-rule="evenodd" clip-rule="evenodd" d="M50.3192 40.3904C45.2463 37.9317 40.5739 40.5818 40.7074 44.9147C40.8965 50.9405 47.805 51.6257 50.3192 49.5802" fill="white"/>
<path fill-rule="evenodd" clip-rule="evenodd" d="M50.4859 40.0962C47.8159 38.8064 45.2572 38.877 43.3771 39.8141C41.4859 40.7613 40.2733 42.6154 40.34 44.9128C40.3956 46.6863 41.0075 48.0265 41.9197 48.9837C43.2881 50.4247 45.3351 51.0091 47.1818 50.9285C48.5168 50.8781 49.7516 50.4751 50.5526 49.8201C50.6972 49.6992 50.7195 49.4876 50.586 49.3566C50.4525 49.2256 50.2189 49.2054 50.0743 49.3263C49.3734 49.8906 48.3054 50.2231 47.1484 50.2735C45.5019 50.3441 43.6886 49.8302 42.4649 48.5504C41.6528 47.6939 41.1076 46.4948 41.0631 44.8927C40.9964 42.8572 42.0533 41.2248 43.7331 40.3784C45.4241 39.5319 47.738 39.5017 50.1521 40.6605C50.3301 40.7411 50.5526 40.6807 50.6416 40.5295C50.7306 40.3784 50.6639 40.1768 50.4859 40.0962Z" fill="black"/>
<path fill-rule="evenodd" clip-rule="evenodd" d="M44.9232 41.9825C47.9158 41.7407 49.6179 43.6149 50.1519 45.3481C50.2075 45.5194 50.4077 45.6201 50.5968 45.5798C50.786 45.5294 50.8972 45.3481 50.8527 45.1768C50.2409 43.1917 48.294 41.0655 44.8675 41.3376C44.6673 41.3578 44.5227 41.5089 44.5338 41.6903C44.5449 41.8717 44.7229 42.0027 44.9232 41.9825Z" fill="black"/>
<path fill-rule="evenodd" clip-rule="evenodd" d="M40.7185 31.6324C39.873 31.7432 39.5726 30.9975 39.3724 29.9697C39.0609 28.4079 38.182 18.1399 38.6493 15.4696C39.1165 12.8094 49.2401 2.48091 62.5899 1.03997C75.9397 -0.400981 81.9694 3.75056 82.8705 4.28461C83.7827 4.81867 84.0052 5.25196 84.2389 5.92709C85.2957 9.04075 86.7976 15.8424 85.7073 22.9867C85.5961 23.682 85.2735 24.1656 84.5504 24.1052C83.5157 22.9867 79.3996 20.7094 70.4552 21.0218C54.9472 21.5861 41.6196 29.5969 40.7185 31.6324Z" fill="white"/>
<path fill-rule="evenodd" clip-rule="evenodd" d="M40.7623 31.9558C40.8958 31.9356 40.996 31.8651 41.0516 31.7542C41.1517 31.5326 41.4076 31.2504 41.8081 30.8977C42.4644 30.3133 43.4879 29.5979 44.8006 28.822C49.9737 25.7587 59.6857 21.7482 70.4656 21.3653C79.2209 21.053 83.2481 23.2295 84.2716 24.3278C84.3383 24.3984 84.4273 24.4387 84.5163 24.4387C84.9168 24.4689 85.2172 24.3681 85.4619 24.1968C85.7845 23.955 85.9848 23.5519 86.0627 23.038C87.164 15.8333 85.651 8.97117 84.5831 5.83736C84.3272 5.0917 84.0824 4.60802 83.0701 4.02358C82.1467 3.48953 76.0503 -0.732549 62.5448 0.72855C53.0886 1.74628 45.2456 7.15739 41.2184 11.2485C39.4496 13.0421 38.4261 14.604 38.2815 15.4302C37.8143 18.1106 38.7042 28.4592 39.0046 30.0312C39.1159 30.5854 39.2605 31.069 39.483 31.4016C39.7833 31.8248 40.1838 32.0364 40.7623 31.9558ZM84.7054 23.7938C85.1171 23.7635 85.2728 23.4008 85.3396 22.9574C86.4187 15.8736 84.9391 9.12232 83.8822 6.03889C83.6819 5.44438 83.4817 5.05139 82.6696 4.57779C81.7685 4.05381 75.8167 -0.0372675 62.6226 1.38353C53.3779 2.3811 45.7018 7.69145 41.7636 11.6818C40.1282 13.3444 39.127 14.7652 38.9935 15.531C38.5374 18.1711 39.4162 28.3685 39.7166 29.9203C39.8056 30.3838 39.9168 30.7869 40.106 31.059C40.2061 31.2 40.3285 31.2907 40.4953 31.3109C40.6511 31.069 40.9292 30.7667 41.3074 30.4342C41.9972 29.8296 43.0429 29.084 44.4113 28.2778C49.6511 25.1642 59.5077 21.1033 70.4434 20.7204C79.2765 20.4081 83.4817 22.6148 84.7054 23.7938Z" fill="black"/>
<path fill-rule="evenodd" clip-rule="evenodd" d="M62.0554 36.9493C62.0305 38.2301 62.628 39.3838 63.9101 39.5002C65.1923 39.6166 65.603 37.9655 65.603 36.9493C65.603 35.9226 65.0304 34.6737 63.9101 34.6631C62.7899 34.6631 62.0803 35.7745 62.0554 36.9493Z" fill="black"/>
<path fill-rule="evenodd" clip-rule="evenodd" d="M78.5081 36.9493C78.4832 38.2301 79.0807 39.3838 80.3628 39.5002C81.6449 39.6166 82.0557 37.9655 82.0557 36.9493C82.0557 35.9226 81.4831 34.6737 80.3628 34.6631C79.2425 34.6631 78.533 35.7745 78.5081 36.9493Z" fill="black"/>
<path fill-rule="evenodd" clip-rule="evenodd" d="M60.0638 33.1758C58.9736 33.1758 57.9612 33.4781 57.3382 34.123C56.9155 34.5663 56.6485 35.1709 56.6707 35.967C56.7152 37.7405 56.8598 38.3954 57.1268 39.5845C57.4828 41.1262 58.6954 42.154 60.0638 42.1439C61.8549 42.1338 66.7943 42.154 68.6299 42.0835C70.4544 42.0129 71.2665 40.7533 71.5446 39.5945C71.8673 38.2745 72.023 37.0149 72.023 35.7554C72.023 34.919 71.6893 34.2842 71.1664 33.8509C70.6435 33.4176 69.9204 33.1959 69.0861 33.1959H60.0638V33.1758ZM60.0638 33.8308H69.0972C69.7313 33.8308 70.2875 33.992 70.688 34.3245C71.0774 34.647 71.311 35.1306 71.311 35.7453C71.311 36.9646 71.1553 38.1737 70.8438 39.4434C70.6213 40.3503 70.0205 41.368 68.6077 41.4184C66.7721 41.4889 61.8549 41.4688 60.0749 41.4789C59.0181 41.4889 58.1281 40.6425 57.8611 39.4434C57.5941 38.2947 57.4606 37.6598 57.4161 35.9468C57.405 35.3422 57.583 34.8888 57.9056 34.5563C58.3839 34.0323 59.1961 33.8308 60.0638 33.8308Z" fill="black"/>
<path fill-rule="evenodd" clip-rule="evenodd" d="M79.3075 33.0986C78.2172 33.0986 77.2049 33.4009 76.5819 34.0458C76.1591 34.4892 75.8921 35.0938 75.9144 35.8898C75.9589 37.6633 76.1035 38.3183 76.3705 39.5073C76.7265 41.049 77.9391 42.0768 79.3075 42.0668C81.0986 42.0567 86.038 42.0768 87.8736 42.0063C89.6981 41.9358 90.5102 40.6762 90.7883 39.5174C91.1109 38.1974 91.2667 36.9378 91.2667 35.6782C91.2667 34.8419 90.9329 34.2071 90.4101 33.7738C89.8872 33.3405 89.1641 33.1188 88.3297 33.1188H79.3075V33.0986ZM79.3075 33.7536H88.3408C88.975 33.7536 89.5312 33.9148 89.9317 34.2474C90.3211 34.5698 90.5547 35.0535 90.5547 35.6681C90.5547 36.8874 90.3989 38.0966 90.0874 39.3662C89.8649 40.2731 89.2642 41.2909 87.8513 41.3412C86.0157 41.4118 81.0986 41.3916 79.3186 41.4017C78.2617 41.4118 77.3717 40.5653 77.1047 39.3662C76.8377 38.2175 76.7042 37.5827 76.6597 35.8697C76.6486 35.2651 76.8266 34.8116 77.1492 34.4791C77.6276 33.9551 78.4397 33.7536 79.3075 33.7536Z" fill="black"/>
<path fill-rule="evenodd" clip-rule="evenodd" d="M74.5818 39.524C75.1603 41.2672 75.9168 43.4538 76.3841 45.0056C76.5398 45.5195 76.5065 45.9125 76.3285 46.2047C76.0615 46.6279 75.5052 46.7992 74.9267 46.7992H72.7685C72.5682 46.7992 72.4014 46.9504 72.4014 47.1318C72.4014 47.3131 72.5682 47.4643 72.7685 47.4643H74.9267C75.7833 47.4643 76.5732 47.162 76.9626 46.5272C77.2184 46.114 77.3074 45.5598 77.0849 44.8343C76.6177 43.2825 75.8501 41.0858 75.2716 39.3426C75.216 39.1713 75.0157 39.0705 74.8266 39.1209C74.6263 39.1713 74.5151 39.3527 74.5818 39.524Z" fill="black"/>
<path fill-rule="evenodd" clip-rule="evenodd" d="M71.9788 37.4578C72.5239 37.0245 73.5919 36.6819 74.5486 36.7424C75.1383 36.7726 75.6834 36.954 76.006 37.3974C76.1172 37.5485 76.3397 37.5888 76.5066 37.4881C76.6735 37.3873 76.718 37.1858 76.6067 37.0346C76.1617 36.42 75.4164 36.1277 74.5931 36.0874C73.4362 36.027 72.1568 36.4401 71.5004 36.9742C71.3558 37.0951 71.3336 37.2966 71.4671 37.4377C71.6006 37.5586 71.8342 37.5687 71.9788 37.4578Z" fill="black"/>
<path fill-rule="evenodd" clip-rule="evenodd" d="M78.6424 53.8019C74.9823 54.5073 69.1196 55.1421 65.326 52.8245C65.1591 52.7237 64.9366 52.764 64.8254 52.9152C64.7141 53.0663 64.7586 53.2679 64.9255 53.3686C68.8748 55.787 74.9823 55.1824 78.7982 54.4468C78.9984 54.4065 79.1208 54.2352 79.0763 54.0538C79.0318 53.8724 78.8427 53.7616 78.6424 53.8019Z" fill="black"/>
<path fill-rule="evenodd" clip-rule="evenodd" d="M76.8143 66.3238C74.4336 66.8377 70.2395 66.8478 66.6351 66.3238C64.2655 65.9812 62.1629 65.4169 61.017 64.5907C60.8613 64.4798 60.6277 64.5 60.5053 64.641C60.3829 64.7821 60.4052 64.9937 60.5609 65.1046C61.7735 65.9812 64.0096 66.606 66.5238 66.9687C70.2284 67.5129 74.5448 67.4927 76.9812 66.9586C77.1703 66.9183 77.2927 66.737 77.2482 66.5657C77.2037 66.3843 77.0145 66.2734 76.8143 66.3238Z" fill="black"/>
<path fill-rule="evenodd" clip-rule="evenodd" d="M59.6188 31.1502C62.9118 30.5657 65.9155 30.3843 69.2974 30.5657C69.8648 30.5959 70.3543 30.203 70.3877 29.6891C70.421 29.1751 69.9872 28.7318 69.4198 28.7015C65.8599 28.5101 62.6893 28.7015 59.2295 29.3162C58.6732 29.417 58.3061 29.9107 58.4173 30.4146C58.5175 30.9184 59.0626 31.2509 59.6188 31.1502Z" fill="black"/>
<path fill-rule="evenodd" clip-rule="evenodd" d="M78.3935 29.3072C81.7421 29.3072 84.323 29.5994 86.7482 30.0226C87.3045 30.1234 87.8496 29.7908 87.9609 29.2769C88.0721 28.763 87.705 28.2794 87.1376 28.1786C84.59 27.7352 81.8978 27.4229 78.3935 27.4229C77.8261 27.4229 77.3589 27.8461 77.3589 28.36C77.3589 28.894 77.8261 29.3072 78.3935 29.3072Z" fill="black"/>
<path fill-rule="evenodd" clip-rule="evenodd" d="M51.5534 74.6104C51.2642 77.8953 64.0132 85.4527 68.7969 86.7627C72.7907 83.9009 76.9403 80.7067 76.8624 77.1698C79.0651 79.034 81.4125 97.0307 72.4236 112.055C63.6127 108.105 47.1814 81.6942 51.5534 74.6104Z" fill="white"/>
<path fill-rule="evenodd" clip-rule="evenodd" d="M68.7196 86.4002C71.0447 84.7376 73.4032 82.954 74.9162 81.0596C75.9063 79.8202 76.5293 78.5304 76.507 77.1801C76.507 77.0492 76.5849 76.9282 76.7184 76.8779C76.8519 76.8275 77.0076 76.8476 77.1078 76.9383C77.397 77.1902 77.7085 77.684 77.9866 78.4095C78.3649 79.4071 78.7097 80.8682 78.9322 82.6618C79.8222 89.5844 79.0769 101.636 72.7357 112.216C72.6467 112.367 72.4353 112.438 72.2573 112.357C69.7542 111.239 66.6393 108.337 63.5577 104.578C58.9854 98.9858 54.4687 91.4888 52.1214 85.191C51.109 82.4703 50.4972 79.9714 50.4638 77.9359C50.4415 76.5352 50.6863 75.3462 51.2314 74.4595C51.3093 74.3285 51.4873 74.2579 51.6541 74.3083C51.821 74.3486 51.9211 74.4897 51.91 74.6509C51.8766 74.9935 52.0213 75.3865 52.2883 75.8198C52.7333 76.5453 53.512 77.3615 54.491 78.218C58.3402 81.5433 65.3266 85.4026 68.7196 86.4002ZM51.4428 75.7291C51.2537 76.364 51.1758 77.0995 51.1869 77.9157C51.2203 79.8907 51.821 82.3192 52.8111 84.9693C55.1362 91.2067 59.6084 98.6331 64.1473 104.175C67.0175 107.682 69.8989 110.433 72.2685 111.612C78.3649 101.233 79.0769 89.4937 78.2091 82.7222C77.9866 80.979 77.664 79.5784 77.2969 78.611C77.2413 78.4699 77.1856 78.3289 77.13 78.208C76.9186 79.3164 76.329 80.3946 75.4947 81.4425C73.9149 83.4276 71.4341 85.2817 69.0089 87.0249C68.9199 87.0955 68.7975 87.1156 68.6751 87.0854C65.2932 86.1584 57.973 82.1479 53.9792 78.6816C52.9335 77.7747 52.1103 76.898 51.643 76.1221C51.5763 75.9911 51.4984 75.8601 51.4428 75.7291Z" fill="black"/>
<path fill-rule="evenodd" clip-rule="evenodd" d="M75.6921 145.109C75.6921 145.109 51.8964 141.662 48.0906 141.662C46.6126 139.218 41.0332 142.197 34.8625 142.431C30.0221 142.632 26.5119 141.762 24.7383 141.16C26.438 132.123 29.4309 126.735 30.6133 121.48C33.6801 107.825 37.7077 102.638 37.7077 102.638C37.7077 102.638 64.8288 101.4 67.0089 101.299C70.8147 101.098 73.2534 101.299 73.512 105.215C73.7707 110.637 75.6921 145.109 75.6921 145.109Z" fill="white"/>
<path fill-rule="evenodd" clip-rule="evenodd" d="M75.6172 145.376C75.728 145.376 75.8389 145.376 75.9128 145.309C75.9867 145.242 76.0236 145.176 76.0236 145.109H75.9867C75.9867 145.109 75.3585 132.357 74.7673 121.179C74.3978 113.95 74.0283 107.357 73.8805 105.215C73.7327 103.039 72.9568 101.935 71.7005 101.366C70.5181 100.864 68.9292 100.83 66.9709 100.931L37.6697 102.269C37.5588 102.269 37.411 102.336 37.3371 102.437C37.3371 102.437 35.6744 104.579 33.6422 109.8C32.5337 112.678 31.3143 116.493 30.2058 121.413C29.319 125.396 27.3607 129.446 25.7719 135.102C25.2546 136.909 24.7742 138.917 24.3308 141.126C24.2939 141.293 24.4047 141.461 24.5895 141.528C25.661 141.896 27.3976 142.364 29.6885 142.632C31.2035 142.799 32.9401 142.9 34.8985 142.833C39.1846 142.665 43.2122 141.159 45.7617 141.092C46.6855 141.059 47.4244 141.226 47.7939 141.862C47.8678 141.963 47.9787 142.03 48.1265 142.03C49.3458 142.03 52.5605 142.364 56.4033 142.833C64.6431 143.837 75.6911 145.41 75.6911 145.41V145.376H75.6172ZM75.3585 144.74C73.3632 144.439 63.7932 143.067 56.4402 142.13C52.7822 141.661 49.6784 141.327 48.3112 141.293C47.757 140.557 46.8702 140.289 45.6878 140.323C43.1383 140.39 39.1477 141.862 34.8246 142.03C32.9032 142.096 31.2404 141.996 29.7624 141.829C27.7671 141.594 26.2153 141.193 25.1807 140.892C25.5871 138.817 26.0305 136.976 26.5478 135.236C28.1736 129.579 30.1319 125.496 31.0187 121.514C32.1272 116.627 33.3466 112.845 34.4551 110.001C36.1178 105.717 37.5588 103.541 37.9283 102.972L67.0079 101.634C68.7814 101.533 70.2594 101.5 71.331 101.968C72.3656 102.437 72.9568 103.374 73.0676 105.181C73.2154 107.323 73.5849 113.916 73.9914 121.145C74.5456 131.253 75.2107 142.565 75.3585 144.74Z" fill="black"/>
<path fill-rule="evenodd" clip-rule="evenodd" d="M39.1849 101.132C38.8154 101.132 38.372 101.367 37.8916 101.835C37.0787 102.638 36.0811 104.111 35.0834 106.186C34.7878 106.822 34.4553 107.491 34.1597 108.228C33.8641 108.863 33.6054 109.566 33.3468 110.303C32.3122 113.114 31.2776 116.461 30.4278 120.209C29.6149 123.757 28.3216 126.936 27.1392 130.417C26.8436 131.287 26.548 132.157 26.2894 133.061C26.1046 133.63 25.9568 134.232 25.7721 134.835C25.5134 135.872 25.2548 136.943 25.0331 138.048C24.8483 139.085 24.6636 140.156 24.5527 141.294C24.5527 141.394 24.6266 141.461 24.7005 141.461C24.8114 141.461 24.8853 141.394 24.8853 141.327C25.107 140.223 25.3287 139.152 25.5873 138.148C25.846 137.044 26.1416 136.006 26.4741 135.002C26.6589 134.4 26.8436 133.831 27.0284 133.262C27.324 132.358 27.6196 131.488 27.9152 130.651C29.1345 127.17 30.4278 123.958 31.2776 120.376C32.1274 116.662 33.1251 113.348 34.1227 110.537C34.3814 109.801 34.64 109.131 34.8987 108.495C35.1943 107.759 35.4529 107.09 35.7485 106.454C36.6723 104.412 37.5221 102.906 38.2611 102.103C38.6306 101.701 38.9262 101.467 39.2218 101.467C39.3327 101.467 39.4066 101.4 39.4066 101.3C39.4066 101.199 39.2957 101.132 39.1849 101.132Z" fill="black"/>
<path fill-rule="evenodd" clip-rule="evenodd" d="M16.1653 140.623C17.3107 140.389 18.4192 140.389 19.5277 140.523C20.4145 140.623 21.2644 140.791 22.1881 140.992C23.0379 141.192 23.9247 141.427 24.8485 141.661C27.1763 142.23 29.7998 142.799 33.0883 142.832C38.2613 142.866 42.4366 141.494 45.097 141.226C46.2055 141.126 47.0184 141.159 47.4248 141.761C47.5357 141.929 47.7943 141.996 47.9791 141.895C48.1638 141.795 48.2377 141.561 48.1269 141.393C47.5726 140.557 46.5011 140.322 44.9861 140.49C42.3627 140.757 38.2243 142.13 33.0883 142.063C29.9106 142.029 27.3241 141.494 25.0332 140.958C24.1095 140.757 23.2227 140.523 22.3359 140.356C21.4122 140.188 20.4884 140.021 19.5647 139.988C18.4192 139.921 17.2738 140.021 16.0914 140.322C16.0175 140.356 15.9436 140.423 15.9805 140.49C16.0175 140.557 16.0544 140.623 16.1653 140.623Z" fill="black"/>
<path fill-rule="evenodd" clip-rule="evenodd" d="M68.1536 141.661H74.1026C74.1026 141.661 72.6615 113.481 72.292 109.063C72.0334 105.616 71.4052 103.407 69.9272 103.407C68.2645 103.407 67.8211 105.348 67.858 109.063C67.895 112.778 68.1536 141.661 68.1536 141.661Z" fill="white"/>
<path fill-rule="evenodd" clip-rule="evenodd" d="M67.9686 141.662C67.9686 141.796 68.0425 141.93 68.1533 141.93L74.1022 141.963C74.1761 141.963 74.287 141.93 74.3239 141.863C74.3978 141.796 74.3978 141.729 74.3978 141.662C74.3978 141.662 73.9175 131.253 73.4002 122.083C73.0676 116.159 72.7351 110.771 72.6242 109.031C72.4764 107.056 72.1808 105.483 71.7374 104.479C71.294 103.542 70.7028 103.073 69.9269 103.073C69.0401 103.073 68.4489 103.508 68.0794 104.412C67.673 105.383 67.5252 106.922 67.5621 109.031L67.9686 141.662ZM68.3381 141.394L68.1903 109.064C68.1903 107.458 68.2642 106.152 68.4859 105.249C68.7445 104.245 69.151 103.709 69.9269 103.709C70.2225 103.709 70.4442 103.843 70.6659 104.044C70.9245 104.345 71.1462 104.747 71.331 105.316C71.6266 106.253 71.8113 107.558 71.9222 109.097C71.9591 109.733 72.033 110.871 72.1069 112.344C72.2917 115.323 72.5134 119.64 72.772 124.091C73.2154 131.789 73.6588 139.754 73.7327 141.394H68.3381Z" fill="black"/>
<path fill-rule="evenodd" clip-rule="evenodd" d="M47.3937 141.839C46.1374 143.847 46.6547 155.929 50.091 158.807C56.2616 160.146 75.3647 160.38 77.2491 157.2C78.5424 154.992 76.7688 154.657 78.9488 152.716C80.316 151.544 80.6855 150.674 80.316 148.9C79.9095 147.026 81.8679 146.792 81.3875 143.713C81.055 141.805 83.5675 140.901 83.5675 137.421C83.5675 135.547 79.1705 132.635 75.106 132.635C75.2538 134.107 75.6233 138.893 75.6233 138.893H63.7994C63.6885 135.814 66.7554 132.635 65.7577 126.744C65.0557 122.728 61.3607 124.268 60.7695 126.744C59.8088 130.761 57.9983 132.367 56.2247 134.476C54.0447 137.053 50.5714 139.295 47.3937 141.839Z" fill="white"/>
<path fill-rule="evenodd" clip-rule="evenodd" d="M75.1425 138.558H64.1684C64.2054 137.788 64.4271 136.985 64.7227 136.115C65.1661 134.843 65.7203 133.437 66.0529 131.764C66.3485 130.291 66.4224 128.651 66.0898 126.71C65.7203 124.535 64.464 123.832 63.2816 123.966C61.9884 124.1 60.6582 125.238 60.3256 126.71C59.9192 128.417 59.365 129.689 58.6999 130.76C57.85 132.132 56.8524 133.136 55.8917 134.341C55.2266 135.144 54.4137 135.948 53.5269 136.717C51.6424 138.357 49.3516 139.93 47.2085 141.671V141.637C47.1715 141.671 47.1715 141.671 47.1346 141.704H47.0976C46.839 142.106 46.6542 142.875 46.5434 143.879C46.2847 146.055 46.4325 149.368 46.9868 152.414C47.5041 155.292 48.4648 157.936 49.8689 159.107C49.9058 159.141 49.9797 159.174 50.0536 159.208C53.416 159.944 60.6212 160.379 66.7919 160.078C70.4129 159.911 73.7015 159.476 75.6968 158.773C76.6944 158.405 77.3595 157.969 77.6921 157.434C78.2833 156.463 78.2833 155.828 78.2833 155.292C78.2833 154.89 78.2094 154.556 78.4311 154.121C78.5789 153.819 78.8375 153.485 79.3178 153.083C80.0568 152.414 80.5372 151.878 80.7589 151.209C80.9806 150.573 80.9806 149.87 80.7958 148.933C80.648 148.264 80.8697 147.829 81.1284 147.36C81.424 146.858 81.7565 146.289 81.8674 145.486C81.9413 145.017 81.9413 144.448 81.8304 143.779C81.7196 143.21 81.9413 142.742 82.2738 142.239C82.7172 141.537 83.3084 140.767 83.6779 139.662C83.8627 139.06 84.0105 138.391 84.0105 137.554C84.0105 137.152 83.8627 136.717 83.5671 136.282C83.1237 135.613 82.3477 134.91 81.3501 134.274C79.6504 133.203 77.3595 132.4 75.1425 132.4C75.0317 132.4 74.9208 132.433 74.8469 132.534C74.773 132.601 74.7361 132.701 74.7361 132.835C74.8469 133.973 75.1056 137.119 75.2164 138.458L75.1425 138.558ZM47.6888 141.972C47.6519 142.005 47.6519 142.005 47.6149 142.039H47.578C49.758 140.332 52.0489 138.759 53.9703 137.119C54.894 136.316 55.7439 135.546 56.4459 134.709C57.4436 133.504 58.4782 132.467 59.365 131.095C60.067 129.99 60.6582 128.651 61.1016 126.844C61.3602 125.706 62.3948 124.769 63.3925 124.669C64.2793 124.568 65.0552 125.204 65.3139 126.811C65.6464 128.651 65.5356 130.258 65.2769 131.63C64.9444 133.27 64.3901 134.642 63.9467 135.881C63.5772 136.952 63.3186 137.956 63.3555 138.926C63.3555 139.127 63.5403 139.294 63.762 139.294H75.5859C75.6598 139.294 75.7337 139.294 75.7707 139.261C75.7707 139.261 76.0293 139.127 75.9924 138.826C75.9924 138.725 75.9554 138.525 75.9554 138.257C75.8446 137.052 75.6229 134.408 75.512 133.036C77.0639 133.103 78.6158 133.605 79.909 134.274C81.0914 134.877 82.0521 135.613 82.6064 136.316C82.902 136.717 83.0867 137.085 83.0867 137.42C83.0867 138.156 82.9759 138.759 82.7911 139.294C82.4586 140.332 81.8674 141.068 81.4609 141.737C81.0545 142.373 80.8328 143.009 80.9436 143.779C81.0545 144.381 81.0545 144.883 80.9806 145.285C80.8697 145.988 80.5741 146.49 80.3155 146.925C79.9829 147.527 79.7243 148.096 79.909 148.967C80.0938 149.77 80.0938 150.339 79.909 150.874C79.7243 151.41 79.3178 151.878 78.6897 152.447C78.0985 152.949 77.8029 153.351 77.6182 153.719C77.3965 154.154 77.3965 154.522 77.3965 154.89C77.3965 155.426 77.5073 156.028 76.9161 157.032C76.7683 157.267 76.4727 157.501 76.1032 157.702C75.6598 157.936 75.0317 158.17 74.3296 158.338C72.4082 158.84 69.674 159.141 66.718 159.275C60.6951 159.576 53.6747 159.208 50.3122 158.505C49.056 157.367 48.2061 154.924 47.7258 152.28C47.1715 149.301 47.0237 146.055 47.2454 143.913C47.3193 143.043 47.4671 142.34 47.6888 141.972Z" fill="black"/>
<path fill-rule="evenodd" clip-rule="evenodd" d="M75.8072 139.093C75.955 138.959 76.0658 138.825 76.2136 138.725C76.3614 138.591 76.4723 138.457 76.6201 138.357C76.7309 138.256 76.8418 138.156 76.9157 138.055C77.1004 137.888 77.2482 137.754 77.396 137.62C78.0981 137.018 78.5784 136.884 78.5784 136.884C78.6893 136.884 78.7632 136.784 78.7262 136.683C78.7262 136.583 78.6154 136.516 78.5045 136.549C78.5045 136.549 77.7655 136.549 76.657 137.386C76.4723 137.52 76.2506 137.687 76.0658 137.888C75.955 138.022 75.8072 138.156 75.6963 138.323C75.5855 138.457 75.4746 138.624 75.3638 138.792C75.2529 138.892 75.2899 139.059 75.4377 139.16C75.5485 139.227 75.6963 139.193 75.8072 139.093Z" fill="black"/>
<path fill-rule="evenodd" clip-rule="evenodd" d="M81.2392 142.206C81.0914 142.373 80.9436 142.54 80.7958 142.741C80.7219 142.875 80.648 143.009 80.5741 143.109C80.1677 143.913 80.0568 144.649 80.0568 144.649C80.0199 144.749 80.0568 144.816 80.1677 144.85C80.2785 144.883 80.3524 144.85 80.3894 144.749C80.3894 144.749 80.685 144.247 81.0545 143.645C81.1653 143.511 81.2392 143.344 81.3501 143.176C81.424 143.076 81.4609 142.942 81.5348 142.842C81.6087 142.741 81.6457 142.607 81.7196 142.507C81.7935 142.373 81.7565 142.206 81.6457 142.139C81.4979 142.072 81.3131 142.105 81.2392 142.206Z" fill="black"/>
<path fill-rule="evenodd" clip-rule="evenodd" d="M51.6371 159.233C51.5632 160.304 51.1937 160.873 50.5286 161.141C49.9005 161.408 48.9767 161.442 47.8682 161.375C47.1292 161.341 45.7991 161.341 44.2472 161.341C40.5891 161.375 35.8596 161.442 35.8596 161.442C35.7487 161.442 35.6748 161.509 35.6748 161.609C35.6748 161.71 35.7487 161.776 35.8596 161.776C35.8596 161.776 39.6284 161.843 43.0648 161.91C45.0601 161.944 46.9075 161.977 47.8682 162.011C48.6811 162.044 49.4201 162.011 50.0113 161.91C50.6025 161.81 51.0459 161.609 51.4154 161.308C51.8958 160.873 52.2283 160.237 52.2283 159.199C52.2283 159.066 52.1175 158.932 51.9327 158.932C51.7849 158.965 51.6371 159.066 51.6371 159.233Z" fill="black"/>
<path fill-rule="evenodd" clip-rule="evenodd" d="M12.1304 162.383C12.6846 162.383 13.4975 162.416 14.3843 162.416C14.8646 162.416 15.3819 162.416 15.8992 162.416C18.6335 162.383 21.5526 162.283 21.5526 162.283C21.6634 162.283 21.7373 162.216 21.7373 162.115C21.7373 162.015 21.6634 161.948 21.5526 161.948C21.5526 161.948 18.6335 161.781 15.8992 161.747C15.3819 161.747 14.8646 161.747 14.3843 161.747C13.4975 161.781 12.6846 161.814 12.0934 161.847C11.9456 161.847 11.7978 161.981 11.7978 162.115C11.8348 162.283 11.9826 162.383 12.1304 162.383Z" fill="black"/>
<path fill-rule="evenodd" clip-rule="evenodd" d="M86.3534 96.8986C86.2422 99.1053 88.0778 101.161 90.6921 101.373C93.3065 101.574 94.4857 99.2968 94.4523 97.4024C94.4189 95.5282 92.8837 93.5028 90.6365 93.2609C88.6229 93.0393 86.4869 94.2887 86.3534 96.8986Z" fill="#DBDDDC"/>
<path fill-rule="evenodd" clip-rule="evenodd" d="M85.9854 96.8775C85.863 99.2556 87.8321 101.472 90.6578 101.694C93.5058 101.916 94.8408 99.4571 94.8074 97.3914C94.774 95.366 93.1053 93.1895 90.6801 92.9275C88.4885 92.6958 86.1411 94.0359 85.9854 96.8775ZM86.7085 96.9077C86.8309 94.5297 88.7666 93.381 90.5911 93.5825C92.6603 93.8042 94.062 95.6784 94.0843 97.4015C94.1065 99.1145 93.083 101.231 90.7134 101.039C88.2993 100.848 86.5972 98.9432 86.7085 96.9077Z" fill="black"/>
<path fill-rule="evenodd" clip-rule="evenodd" d="M88.4668 94.3892C87.5101 94.8527 85.9081 97.6036 88.3222 99.8204C89.4013 98.2686 91.9823 96.9285 93.6955 96.8075C93.1949 94.8023 91.0367 93.1498 88.4668 94.3892Z" fill="white"/>
<path fill-rule="evenodd" clip-rule="evenodd" d="M89.9353 97.5329C89.8908 97.2911 89.9575 97.0794 90.091 96.9384C90.2801 96.7368 90.6139 96.6663 90.9031 96.8074C90.981 96.8477 91.0811 96.8174 91.1256 96.7469C91.1701 96.6764 91.1368 96.5857 91.0589 96.5454C90.625 96.3338 90.1355 96.4345 89.8351 96.7469C89.646 96.9484 89.5348 97.2306 89.6015 97.5833C89.6126 97.6639 89.7016 97.7243 89.7906 97.7042C89.8908 97.6941 89.9575 97.6135 89.9353 97.5329Z" fill="black"/>
<path fill-rule="evenodd" clip-rule="evenodd" d="M40.618 83.1539C40.7293 81.8741 40.1953 80.4332 38.571 80.3929C37.0692 80.3526 36.1458 81.2695 35.9122 82.4787C35.6675 83.7484 36.4573 85.2901 38.2039 85.3405C39.9505 85.4009 40.5179 84.3026 40.618 83.1539Z" fill="white"/>
<path fill-rule="evenodd" clip-rule="evenodd" d="M40.9852 83.1744C41.1187 81.7133 40.4401 80.1111 38.5823 80.0607C36.8802 80.0204 35.8233 81.0381 35.5563 82.4186C35.2782 83.8596 36.2015 85.6028 38.1929 85.6633C39.005 85.6935 39.5946 85.492 40.0174 85.1695C40.6292 84.706 40.9073 83.9603 40.9852 83.1744ZM40.2621 83.124C40.2065 83.7286 40.0285 84.313 39.5501 84.6758C39.2386 84.9075 38.8048 85.0385 38.2151 85.0184C36.7133 84.968 36.0569 83.6278 36.2683 82.5395C36.4685 81.4916 37.2584 80.6955 38.56 80.7258C39.9617 80.756 40.3622 82.0256 40.2621 83.124Z" fill="black"/>
<path fill-rule="evenodd" clip-rule="evenodd" d="M40.1503 109.45C40.0541 108.466 38.9251 108.061 37.6387 108.158C36.119 108.268 35.5683 108.892 35.5837 109.659C35.6036 110.495 36.505 111.175 38.2449 111.023C39.4849 110.898 40.2303 110.354 40.1503 109.45Z" fill="white"/>
<path fill-rule="evenodd" clip-rule="evenodd" d="M40.5059 109.418C40.3988 108.263 39.1157 107.714 37.5967 107.834C36.554 107.909 35.9167 108.225 35.5641 108.637C35.3155 108.932 35.2041 109.281 35.2062 109.665C35.2241 110.643 36.2278 111.529 38.2662 111.342C39.7728 111.202 40.6079 110.492 40.5059 109.418ZM39.7853 109.476C39.8543 110.209 39.2104 110.596 38.2023 110.689C36.7506 110.815 35.9515 110.342 35.9405 109.647C35.923 109.022 36.4291 108.571 37.6606 108.487C38.2264 108.447 38.7647 108.5 39.178 108.69C39.5221 108.843 39.7504 109.104 39.7853 109.476Z" fill="black"/>
<path fill-rule="evenodd" clip-rule="evenodd" d="M32.213 109.398C32.292 108.412 31.2492 107.849 29.9621 107.758C28.4427 107.646 27.7886 108.183 27.6684 108.941C27.5401 109.77 28.3097 110.572 30.0539 110.674C31.3001 110.73 32.132 110.302 32.213 109.398Z" fill="white"/>
<path fill-rule="evenodd" clip-rule="evenodd" d="M32.5679 109.421C32.6665 108.265 31.497 107.537 29.9764 107.435C28.9339 107.358 28.249 107.577 27.8281 107.933C27.5304 108.188 27.3587 108.517 27.293 108.896C27.1377 109.864 27.9717 110.884 30.017 110.995C31.5288 111.076 32.4786 110.496 32.5679 109.421ZM31.8464 109.373C31.7849 110.107 31.0809 110.395 30.0693 110.341C28.614 110.255 27.9088 109.673 28.0211 108.984C28.1142 108.365 28.6935 107.994 29.9241 108.089C30.4896 108.132 31.0116 108.262 31.3859 108.509C31.6984 108.711 31.8777 109.001 31.8464 109.373Z" fill="black"/>
<path fill-rule="evenodd" clip-rule="evenodd" d="M38.849 81.7132C38.1926 82.3581 38.1036 83.265 38.4151 84.1819C38.4374 84.2625 38.5375 84.3029 38.6265 84.2827C38.7155 84.2625 38.76 84.1719 38.7377 84.0912C38.4707 83.2851 38.5264 82.479 39.0937 81.9147C39.1605 81.8543 39.1493 81.7535 39.0826 81.7031C39.0159 81.6527 38.9157 81.6527 38.849 81.7132Z" fill="black"/>
<path fill-rule="evenodd" clip-rule="evenodd" d="M39.5616 83.3759C40.0733 83.4364 40.6184 83.4767 40.9522 83.8092C41.1636 84.0208 41.2637 84.3634 41.2526 84.8773C41.1858 86.4593 41.9423 105.595 41.9534 107.66C41.9534 108.084 41.831 108.386 41.6308 108.598C41.4194 108.809 41.1302 108.93 40.8298 109.011C40.3626 109.132 39.8508 109.162 39.4837 109.212C39.2835 109.242 39.15 109.404 39.1833 109.585C39.2167 109.766 39.3947 109.887 39.595 109.857C39.9954 109.807 40.5294 109.776 41.0412 109.635C41.4751 109.525 41.8755 109.333 42.1759 109.031C42.4763 108.718 42.6877 108.285 42.6877 107.66C42.6877 105.605 41.9312 86.4896 41.9868 84.9076C42.0202 84.1619 41.8088 83.6883 41.5084 83.3759C41.0634 82.9225 40.3626 82.8116 39.684 82.7209C39.4837 82.7008 39.3057 82.8217 39.2723 83.0031C39.239 83.1845 39.3613 83.3558 39.5616 83.3759Z" fill="black"/>
<path fill-rule="evenodd" clip-rule="evenodd" d="M35.7796 82.421C35.3903 82.4109 35.012 82.5318 34.6449 82.7938C34.1665 83.1263 33.7104 83.7209 33.3322 84.5673C32.6758 86.0385 26.4125 102.373 25.6115 105.839C25.3557 106.978 25.4224 107.713 25.7339 108.217C26.0565 108.741 26.6462 109.053 27.5028 109.285C27.6919 109.335 27.8921 109.235 27.9589 109.063C28.0145 108.892 27.9033 108.711 27.7141 108.65C27.08 108.479 26.6128 108.287 26.368 107.895C26.1122 107.481 26.1122 106.887 26.3235 105.97C27.1134 102.514 33.3544 86.2702 33.9997 84.8091C34.2667 84.2146 34.567 83.7612 34.9008 83.4589C35.1789 83.207 35.4681 83.076 35.7685 83.076C35.9688 83.076 36.1356 82.9349 36.1356 82.7535C36.1356 82.5721 35.9799 82.421 35.7796 82.421Z" fill="black"/>
<path fill-rule="evenodd" clip-rule="evenodd" d="M98.8172 110.233C98.0782 111.605 97.7457 112.91 97.5979 114.35C97.4501 116.157 97.6348 118.132 97.7457 120.675C97.8196 122.382 97.8935 124.122 97.9304 125.863C97.9674 127.001 97.9674 128.172 98.0043 129.343C98.0413 131.92 98.0413 134.531 98.0413 137.141C98.0413 138.882 98.0043 140.622 97.9674 142.329C97.8196 150.16 97.4501 157.657 97.0806 163.983C97.0806 164.083 97.1545 164.15 97.2653 164.15C97.3762 164.15 97.4501 164.083 97.4501 163.983C97.8196 159.331 98.1891 154.009 98.4847 148.387C98.6694 145.006 98.7802 141.492 98.8541 137.978C98.928 134.497 98.928 131.017 98.8172 127.569C98.7433 125.227 98.6324 122.917 98.4477 120.642C98.263 118.132 98.0043 116.157 98.1152 114.383C98.1891 113.011 98.4847 111.739 99.1497 110.4C99.1867 110.333 99.1497 110.233 99.0758 110.2C98.965 110.133 98.8541 110.166 98.8172 110.233Z" fill="black"/>
<path fill-rule="evenodd" clip-rule="evenodd" d="M69.8535 104.911C69.8535 105.245 70.0013 109.63 70.1491 115.152C70.4817 125.192 70.9251 139.014 70.9251 139.014C70.9251 139.115 71.0359 139.215 71.1468 139.215C71.2576 139.215 71.3685 139.115 71.3685 139.014C71.3685 139.014 70.8142 125.192 70.4447 115.152C70.223 109.63 70.0752 105.245 70.0752 104.944C70.0752 104.877 70.0383 104.844 69.9644 104.844C69.9274 104.81 69.8535 104.877 69.8535 104.911Z" fill="black"/>
<path fill-rule="evenodd" clip-rule="evenodd" d="M68.8394 105.683L69.4306 138.984C69.4306 139.085 69.5414 139.185 69.6522 139.185C69.7631 139.185 69.8739 139.085 69.8739 138.984L69.098 105.683C69.098 105.616 69.0611 105.583 68.9872 105.583C68.9133 105.583 68.8394 105.65 68.8394 105.683Z" fill="black"/>
<path fill-rule="evenodd" clip-rule="evenodd" d="M70.8657 106.05C70.8657 106.384 71.0505 110.601 71.3091 115.923C71.7525 125.628 72.4176 138.982 72.4176 138.982C72.4176 139.083 72.5285 139.183 72.6393 139.183C72.7502 139.183 72.861 139.083 72.861 138.982C72.861 138.982 72.122 125.628 71.6417 115.923C71.3461 110.601 71.1244 106.351 71.1244 106.05C71.1244 105.983 71.0874 105.949 71.0135 105.949C70.9396 105.949 70.8657 106.016 70.8657 106.05Z" fill="black"/>
<path fill-rule="evenodd" clip-rule="evenodd" d="M26.1782 135.604C28.1366 135.637 32.238 135.637 36.8937 135.604C39.2215 135.604 41.6602 135.57 44.025 135.503C45.0226 135.47 46.0203 135.47 47.0179 135.436C48.0525 135.403 49.0502 135.37 50.0109 135.303C51.0824 135.236 52.0801 135.169 52.9669 135.102C54.1493 135.001 55.1838 134.901 55.9228 134.834C56.0337 134.834 56.1445 134.734 56.1445 134.6C56.1445 134.499 56.0337 134.399 55.8859 134.399C55.1469 134.432 54.1862 134.466 53.0408 134.499C52.4496 134.499 51.8214 134.533 51.1563 134.566C50.2695 134.6 49.3088 134.6 48.3112 134.633C47.683 134.667 47.0549 134.667 46.4267 134.7C44.5792 134.767 42.6579 134.834 40.7365 134.901C37.7066 135.001 34.7136 135.102 32.1641 135.202C29.5776 135.269 27.4715 135.336 26.2152 135.37C26.1413 135.37 26.1043 135.403 26.1043 135.47C26.0674 135.57 26.1043 135.604 26.1782 135.604Z" fill="black"/>
<path fill-rule="evenodd" clip-rule="evenodd" d="M66.6385 123.52C66.6385 122.416 66.6016 119.671 66.6016 116.693C66.6016 114.35 66.6016 111.84 66.5646 109.865C66.5646 108.292 66.5277 107.02 66.5277 106.451C66.4907 105.447 66.7863 104.678 67.1189 104.042C67.8579 102.77 68.9664 102.201 68.9664 102.201C69.0033 102.201 69.0033 102.168 69.0033 102.134C69.0033 102.101 68.9664 102.101 68.9294 102.101C68.9294 102.101 67.7101 102.636 66.9341 103.908C66.5277 104.544 66.2321 105.38 66.1951 106.418C66.1951 106.92 66.1582 107.891 66.1951 109.162C66.1951 110.334 66.1951 111.773 66.2321 113.245C66.269 117.329 66.3429 121.947 66.4168 123.487C66.4168 123.554 66.4907 123.587 66.5277 123.587C66.5646 123.621 66.6385 123.587 66.6385 123.52Z" fill="black"/>
<path fill-rule="evenodd" clip-rule="evenodd" d="M84.495 114.705C86.1577 114.605 87.8205 114.571 89.4093 114.605C91.072 114.605 92.6609 114.672 94.1758 114.772C94.2867 115.91 94.3975 117.215 94.4714 118.487C94.5453 119.525 94.5823 120.529 94.6192 121.399C94.6931 123.106 94.767 124.31 94.767 124.31C94.767 124.344 94.804 124.344 94.804 124.344C94.8409 124.344 94.8409 124.31 94.8409 124.31C94.8409 124.31 94.8779 123.306 94.8779 121.867C94.8779 121.131 94.8779 120.294 94.8409 119.424C94.8409 118.788 94.804 118.119 94.767 117.483C94.6931 116.479 94.6192 115.475 94.5084 114.571C94.5084 114.504 94.4345 114.437 94.3236 114.404C92.7717 114.303 91.109 114.27 89.3724 114.27C87.7835 114.27 86.1208 114.337 84.458 114.471C84.3841 114.471 84.3472 114.538 84.3472 114.571C84.3841 114.672 84.4211 114.705 84.495 114.705Z" fill="black"/>
<path fill-rule="evenodd" clip-rule="evenodd" d="M90.0743 114.439C90.0743 114.439 90.0004 110.021 90.0743 109.653C90.1482 109.285 90.5547 109.285 90.5547 109.285V108.281H91.4045V109.285C91.4045 109.285 91.8479 109.251 91.8479 109.653C91.8479 110.055 91.8479 110.59 91.8479 110.59C91.8479 110.59 92.3652 110.389 92.4022 110.824C92.4761 111.259 91.9588 114.272 92.513 116.849C92.6978 117.652 91.774 117.786 91.5893 117.049C91.3306 116.079 91.4045 114.439 91.4045 114.439H90.0743Z" fill="black"/>
</svg>
