<svg width="92" height="156" viewBox="0 0 92 156" fill="none" xmlns="http://www.w3.org/2000/svg">
<path d="M12 32.5L15 35L19 37L19.5 39L19 45L16.5 50.5L10 58L6 63L4 67.5L2 73L1 79.5V83.5V114V129L2.5 135L5 140L10.5 145.5L20.5 151L32 153.5L50 154.5L65.5 152.5L77 148L86 140.5L90 133L90.5 125.5L90 84.5L89.5 74.5L86.5 66L81.5 58.5L76 52.5L72 46L71.5 38.5L72.5 36.5L77.5 32.5L80 25.5V16L78.5 10L74.5 5.5L69.5 3.5L59.5 1.5L50 0.5H42L34 1L26 2.5L20 4L16 5.5L12.5 8.5L10.5 13L10 20L10.5 28L12 32.5Z" fill="white"/>
<path d="M75.6499 13.9425C73.53 15.4025 71.15 16.4125 68.72 17.1925C66.29 17.9725 63.8 18.5525 61.3 19.0125C56.29 19.9225 51.2 20.3625 46.11 20.4225C41.02 20.4625 35.93 20.1225 30.89 19.3425C25.88 18.5325 20.83 17.4225 16.27 15.0525C16.16 14.9925 16.11 14.8525 16.17 14.7425C16.23 14.6325 16.36 14.5825 16.48 14.6425H16.49C18.74 15.7425 21.15 16.5125 23.59 17.1225C26.03 17.7325 28.51 18.1825 31.01 18.5225C36.01 19.1825 41.06 19.4325 46.1 19.3625C48.62 19.3625 51.14 19.2425 53.65 19.0525C56.16 18.8625 58.67 18.6025 61.16 18.1925C63.64 17.7825 66.11 17.2625 68.52 16.5425C70.92 15.8225 73.29 14.9225 75.39 13.5625L75.3999 13.5525C75.5099 13.4825 75.65 13.5125 75.72 13.6225C75.78 13.7325 75.7499 13.8725 75.6499 13.9425ZM65.75 71.2025C66.08 74.5225 66.24 77.8525 66.29 81.1925C66.29 81.3125 66.39 81.4125 66.51 81.4225C66.64 81.4325 66.75 81.3325 66.75 81.2025C66.9 77.8525 66.83 74.4925 66.62 71.1325C66.42 68.0125 66.08 64.9025 65.52 61.8325C67.81 62.1725 70.09 62.5525 72.35 63.0625C74.84 63.6225 77.31 64.2925 79.72 65.1325C79.83 65.1725 79.96 65.1125 80.01 65.0025C80.06 64.8825 79.9999 64.7525 79.89 64.7025C77.5099 63.7125 75.04 62.9425 72.54 62.3025C70.04 61.6625 67.52 61.1225 64.97 60.7225C64.92 60.7125 64.86 60.7125 64.81 60.7225C64.53 60.7725 64.34 61.0325 64.39 61.3125V61.3225C64.93 64.5925 65.42 67.8825 65.75 71.2025ZM2.41 137.372C0.899997 134.402 0.03 131.092 0 127.732V108.492L0.00999755 89.2525C0.0399975 86.0525 -0.05 82.8425 0.2 79.5725C0.44 76.3225 1.03 73.0825 2.05 69.9525C3.06 66.8225 4.6 63.8625 6.5 61.2025C7.51 59.7925 8.61999 58.4825 9.75999 57.2025C10.06 57.1525 10.37 57.2025 10.6 57.4125C10.83 57.6125 10.92 57.9125 10.9 58.2125C9.78999 59.4725 8.72 60.7425 7.77 62.1025C5.97 64.6725 4.52999 67.4725 3.58999 70.4625C2.62999 73.4425 2.08 76.5525 1.87 79.7025C1.64 82.8325 1.75 86.0425 1.74 89.2525L1.75 108.492V127.732C1.78 130.782 2.58 133.842 3.97 136.582C5.37 139.332 7.38999 141.742 9.72999 143.772C14.49 147.802 20.46 150.272 26.61 151.652C32.79 153.042 39.16 153.462 45.52 153.572C51.88 153.462 58.25 153.042 64.43 151.652C70.58 150.272 76.56 147.792 81.31 143.772C83.65 141.742 85.67 139.332 87.07 136.582C88.4699 133.832 89.2699 130.782 89.2899 127.732V119.502C89.0699 120.052 88.7799 120.572 88.4499 121.052C87.5399 122.382 86.3999 123.512 85.13 124.462C82.6 126.362 79.7499 127.732 76.84 128.822C71 131.002 64.87 132.232 58.73 132.982C52.58 133.712 46.37 133.912 40.18 133.642C33.99 133.362 27.82 132.612 21.77 131.172C21.47 131.102 21.26 130.832 21.24 130.542C20.68 122.502 20.43 114.442 20.46 106.372C18.64 105.812 16.84 105.132 15.15 104.192C14.21 103.662 13.29 103.062 12.47 102.322C11.79 101.692 11.18 100.932 10.77 100.032L10.78 102.712L10.85 118.452C10.89 121.082 10.79 123.712 11.02 126.272C11.26 128.842 11.8 131.392 12.92 133.672C14.03 135.952 15.8 137.872 18.03 139.062C20.24 140.292 22.8 140.842 25.35 141.062C26.63 141.162 27.94 141.202 29.2 141.132C30.47 141.052 31.74 140.832 33.01 140.572C35.55 140.012 38.18 139.472 40.83 139.272C43.48 139.062 46.13 139.052 48.78 139.252C51.43 139.422 54.06 139.952 56.61 140.522C59.16 141.112 61.69 141.372 64.26 141.092C66.82 140.842 69.27 140.092 71.67 139.102C71.79 139.052 71.92 139.112 71.97 139.222C72.01 139.322 71.98 139.432 71.89 139.502C69.72 141.102 67.01 141.832 64.36 142.102C63.03 142.242 61.68 142.262 60.34 142.162C59 142.062 57.68 141.812 56.39 141.542C53.82 140.982 51.29 140.482 48.69 140.322C46.11 140.132 43.49 140.162 40.91 140.372C38.32 140.572 35.8 141.112 33.22 141.662C31.93 141.932 30.6 142.152 29.25 142.232C27.89 142.302 26.58 142.252 25.24 142.142C22.59 141.902 19.89 141.322 17.5 139.992C15.09 138.702 13.15 136.572 11.98 134.122C10.79 131.672 10.25 129.002 10.01 126.352C9.76999 123.682 9.89999 121.062 9.88999 118.442L9.95999 102.702L10.03 86.9625C10.05 84.3425 10.01 81.7025 10.33 79.0725C10.64 76.4525 11.24 73.8325 12.31 71.4025C12.36 71.2825 12.5 71.2325 12.61 71.2825C12.73 71.3325 12.78 71.4725 12.73 71.5825C11.72 73.9725 11.17 76.5425 10.9 79.1325C10.61 81.7225 10.71 84.3325 10.71 86.9625L10.75 96.4025C10.8 96.2925 10.83 96.1725 10.89 96.0625C11.42 95.0225 12.24 94.2325 13.09 93.5525C14.82 92.2025 16.79 91.3025 18.8 90.5825C18.92 90.5425 19.05 90.6025 19.1 90.7225C19.14 90.8325 19.08 90.9625 18.97 91.0125C17.06 91.8825 15.18 92.8525 13.62 94.1925C12.86 94.8625 12.16 95.6225 11.77 96.5025C11.35 97.3625 11.28 98.3225 11.55 99.2125C11.83 100.102 12.43 100.912 13.14 101.622C13.85 102.332 14.69 102.942 15.57 103.492C17.1 104.442 18.77 105.172 20.47 105.842C20.51 98.7925 20.76 91.7425 21.25 84.7125C21.28 84.3325 21.61 84.0425 21.99 84.0625C22.02 84.0625 22.05 84.0725 22.08 84.0725C27.93 85.2225 33.9 85.8325 39.87 86.0825C45.85 86.3225 51.84 86.2125 57.8 85.6825C63.75 85.1425 69.69 84.2325 75.41 82.5925C78.26 81.7525 81.09 80.7925 83.67 79.3925C84.96 78.7125 86.2099 77.9225 87.2399 76.9125C87.7899 76.3925 88.27 75.7925 88.61 75.1325C88.32 73.5425 87.9399 71.9825 87.4499 70.4525C86.4999 67.4625 85.07 64.6625 83.26 62.0925C81.45 59.5225 79.25 57.2325 77.08 54.8525C74.92 52.4825 72.75 49.8325 71.75 46.5825C70.83 43.6225 70.86 40.5425 71.31 37.5825C70.35 37.9225 69.37 38.1925 68.4 38.4525C60.73 40.3325 52.87 41.0725 45.03 41.0725C37.19 41.0725 29.33 40.3325 21.66 38.4525C21.02 38.2825 20.39 38.1025 19.75 37.9025C20.15 40.7625 20.14 43.7225 19.26 46.5825C18.35 49.5525 16.46 52.0125 14.5 54.2225C14.2 54.2725 13.9 54.2125 13.68 54.0125C13.46 53.8125 13.37 53.5325 13.38 53.2425C15.31 51.0925 17.09 48.8225 17.95 46.1525C18.85 43.4125 18.85 40.3725 18.42 37.4425C17.6 37.1425 16.79 36.8025 16.01 36.3825C14.2 35.4325 12.5 34.0325 11.41 32.2025C10.31 30.3825 9.79999 28.3425 9.49999 26.3625C9.18999 24.3625 9.17999 22.3925 9.13999 20.4125C9.17999 18.4425 9.18999 16.4625 9.49999 14.4625C9.78999 12.4825 10.3 10.4325 11.41 8.63249C12.51 6.81249 14.21 5.42249 16.02 4.49249C17.84 3.53249 19.77 2.96248 21.68 2.47248C29.35 0.652485 37.2 -0.0475132 45.02 0.00248682C52.84 -0.0475132 60.69 0.652487 68.36 2.46249C70.27 2.95249 72.2 3.51249 74.02 4.48249C75.83 5.41249 77.54 6.81249 78.63 8.63249C79.75 10.4425 80.2499 12.4825 80.5499 14.4625C80.8599 16.4625 80.88 18.4325 80.92 20.4125C80.88 22.3825 80.87 24.3625 80.56 26.3625C80.26 28.3425 79.7499 30.3825 78.6499 32.2025C77.56 34.0325 75.8699 35.4425 74.0499 36.3925C73.59 36.6425 73.1199 36.8625 72.6499 37.0625C72.16 40.1025 72.12 43.3025 73.06 46.1625C74 49.0825 76.04 51.5225 78.18 53.8625C80.34 56.2025 82.61 58.5425 84.52 61.2125C86.42 63.8825 87.96 66.8425 88.9699 69.9625C89.9999 73.0825 90.5799 76.3325 90.8199 79.5825C91.0799 82.8525 90.9799 86.0625 91.0099 89.2625L91.02 108.502V127.742C90.99 131.112 90.1199 134.422 88.61 137.382C87.1 140.362 84.92 142.942 82.43 145.112C77.36 149.402 71.1199 151.952 64.8 153.372C58.44 154.802 51.96 155.222 45.5 155.332C39.04 155.222 32.55 154.802 26.2 153.372C19.87 151.952 13.63 149.392 8.57 145.112C6.1 142.932 3.92 140.352 2.41 137.372ZM77.17 31.2825C78.1 29.7625 78.57 27.9525 78.84 26.1025C79.13 24.2525 79.1499 22.3225 79.1899 20.4025C79.1499 18.4925 79.14 16.5625 78.84 14.7125C78.57 12.8625 78.08 11.0625 77.17 9.52248C76.27 7.98248 74.88 6.80248 73.26 5.92248C71.65 5.03248 69.82 4.46249 67.98 3.96249C60.52 2.07249 52.76 1.29249 45.03 1.24249C37.3 1.29249 29.53 2.07249 22.08 3.96249C20.24 4.46249 18.41 5.03248 16.8 5.92248C15.18 6.79248 13.79 7.98249 12.89 9.51249C11.1 12.6225 10.95 16.6025 10.9 20.4025C10.94 22.3125 10.95 24.2425 11.24 26.1025C11.51 27.9525 11.98 29.7625 12.91 31.2825C13.82 32.8125 15.22 33.9725 16.84 34.8325C18.45 35.7025 20.28 36.2725 22.12 36.7525C29.58 38.5825 37.33 39.3225 45.05 39.3225C52.77 39.3225 60.52 38.5825 67.98 36.7525C71.62 35.8325 75.34 34.3825 77.17 31.2825ZM89.2999 116.772V108.492L89.31 96.6425C82.58 103.132 66.61 106.932 45.53 106.932V101.932C69.58 101.932 85.5499 96.2925 89.3199 91.2925V89.2425C89.31 86.0325 89.4199 82.8225 89.1899 79.6925C89.1099 78.5625 88.9799 77.4325 88.81 76.3125C88.54 76.7525 88.2299 77.1625 87.8899 77.5225C86.8199 78.6725 85.54 79.5725 84.22 80.3625C81.54 81.8725 78.67 82.9525 75.76 83.7925C69.93 85.4725 63.93 86.4125 57.92 86.9725C51.9 87.5225 45.86 87.6525 39.82 87.4225C34.05 87.1925 28.29 86.6225 22.6 85.5625C21.67 100.332 21.68 115.152 22.62 129.922C28.4 131.272 34.32 132.012 40.26 132.292C46.37 132.572 52.52 132.392 58.59 131.682C64.66 130.962 70.7 129.752 76.41 127.642C79.25 126.562 82.03 125.292 84.47 123.542C85.68 122.662 86.8299 121.692 87.7199 120.512C88.56 119.432 89.1499 118.152 89.2999 116.772ZM32.46 9.35249C33.29 9.81249 34.12 10.0225 34.94 10.2325C36.59 10.6125 38.26 10.7825 39.92 10.8625C40.15 10.8725 40.36 10.7025 40.39 10.4725C40.42 10.2325 40.25 10.0025 40 9.97248C38.39 9.75248 36.77 9.49249 35.23 9.08249C34.47 8.88249 33.69 8.63249 33.09 8.28249C32.78 8.12249 32.59 7.85249 32.62 7.88249C32.57 7.94249 32.74 7.68249 33.03 7.52248C34.27 6.83248 35.95 6.53249 37.52 6.28249C39.12 6.04249 40.74 5.91249 42.36 5.84249C45.61 5.70249 48.89 5.77249 52.1 6.19249C52.9 6.30249 53.7 6.43249 54.48 6.60249C55.26 6.76249 56.04 6.97249 56.71 7.28249C57.03 7.43249 57.37 7.63249 57.47 7.78249C57.52 7.82249 57.52 7.84249 57.52 7.85249C57.54 7.86249 57.55 7.87249 57.54 7.89249C57.54 7.93249 57.47 8.03249 57.36 8.13249C56.87 8.54249 56.08 8.86249 55.34 9.10249H55.33C55.11 9.17249 54.98 9.41249 55.04 9.64249C55.1 9.88249 55.35 10.0225 55.59 9.96249C56.41 9.74249 57.24 9.56249 58.06 8.95249C58.26 8.79249 58.48 8.57249 58.6 8.21249C58.67 8.03249 58.67 7.82249 58.63 7.64249C58.6 7.44249 58.53 7.27249 58.43 7.16249C58.06 6.63249 57.64 6.43249 57.23 6.21249C55.6 5.46249 53.95 5.18249 52.29 4.93249C48.97 4.48249 45.65 4.38249 42.32 4.50249C40.66 4.58249 39 4.73249 37.34 4.98249C35.68 5.27249 34.04 5.51249 32.38 6.43249C32.18 6.54249 31.96 6.73249 31.76 6.93249C31.66 7.07249 31.56 7.18249 31.49 7.35249C31.43 7.54249 31.37 7.74249 31.39 7.95249C31.42 8.39249 31.66 8.67249 31.86 8.88249C32.04 9.09249 32.25 9.23249 32.46 9.35249ZM45.52 116.052C58.97 116.052 71.53 114.012 80.13 110.452V109.102C71.68 112.722 59.06 114.802 45.52 114.802V116.052Z" fill="black"/>
</svg>
